<svg version="1.1" viewBox="0.0 0.0 768.0 192.0" fill="none" stroke="none" stroke-linecap="square" stroke-miterlimit="10" xmlns:xlink="http://www.w3.org/1999/xlink" xmlns="http://www.w3.org/2000/svg"><clipPath id="p.0"><path d="m0 0l768.0 0l0 192.0l-768.0 0l0 -192.0z" clip-rule="nonzero"/></clipPath><g clip-path="url(#p.0)"><path fill="#000000" fill-opacity="0.0" d="m0 0l768.0 0l0 192.0l-768.0 0z" fill-rule="evenodd"/><path fill="#000000" fill-opacity="0.0" d="m28.8 19.2l259.21262 0l0 115.2126l-259.21262 0z" fill-rule="evenodd"/><path fill="#2979ff" d="m108.108215 112.99754q-9.984375 0 -18.25 -4.75q-8.25 -4.75 -13.0 -12.953125q-4.75 -8.21875 -4.75 -18.203125q0 -9.984375 4.75 -18.187496q4.75 -8.203125 13.0 -12.953125q8.265625 -4.75 18.25 -4.75q15.546875 0 25.71875 11.21875l-9.109375 8.84375q-6.625 -7.78125 -16.515625 -7.78125q-6.4375 0 -11.71875 2.9375q-5.28125 2.921875 -8.3125 8.296871q-3.015625 5.375 -3.015625 12.375q0 7.015625 3.015625 12.390625q3.03125 5.375 8.3125 8.3125q5.28125 2.921875 11.71875 2.921875q10.84375 0 18.140625 -9.03125l9.21875 8.734375q-5.09375 6.15625 -12.0625 9.375q-6.953125 3.203125 -15.390625 3.203125zm39.453094 -70.265625l12.953125 0l0 56.45312l29.09375 0l0 12.28125l-42.046875 0l0 -68.734375zm73.630356 70.265625q-9.03125 0 -15.9375 -5.078125q-6.90625 -5.09375 -9.703125 -14.40625l12.203125 -4.796875q1.4375 5.46875 4.890625 8.734375q3.453125 3.265625 8.640625 3.265625q4.328125 0 7.390625 -2.15625q3.078125 -2.171875 3.078125 -6.0q0 -3.84375 -2.9375 -6.28125q-2.921875 -2.453125 -10.40625 -5.25l-4.234375 -1.53125q-6.625 -2.296875 -11.328125 -7.046875q-4.703125 -4.765625 -4.703125 -11.953121q0 -5.390625 2.78125 -9.796875q2.796875 -4.421875 7.875 -6.953125q5.09375 -2.546875 11.53125 -2.546875q9.3125 0 14.6875 4.375q5.375 4.359375 7.390625 10.203125l-11.421875 4.8125q-1.0625 -3.171875 -3.703125 -5.328125q-2.640625 -2.171875 -6.765625 -2.171875q-4.21875 0 -6.96875 1.96875q-2.734375 1.96875 -2.734375 5.140625q0 3.078125 2.59375 5.234371q2.59375 2.15625 8.546875 4.171875l4.328125 1.4375q8.921875 3.078125 13.671875 8.125q4.75 5.03125 4.75 13.1875q0 6.71875 -3.453125 11.375q-3.453125 4.65625 -8.875 6.96875q-5.421875 2.296875 -11.1875 2.296875z" fill-rule="nonzero"/><path fill="#0cce6b" d="m360.0 57.6l115.212585 0l0 43.2126l-115.212585 0z" fill-rule="evenodd"/><path fill="#000000" d="m401.9218 84.22505q-1.359375 0 -2.5 -0.65625q-1.140625 -0.65625 -1.828125 -1.796875q-0.671875 -1.140625 -0.671875 -2.53125q0 -1.40625 0.671875 -2.546875q0.6875 -1.140625 1.828125 -1.78125q1.140625 -0.65625 2.5 -0.65625q1.09375 0 2.015625 0.390625q0.921875 0.375 1.5625 1.0625l-1.015625 1.015625q-0.96875 -1.09375 -2.5625 -1.09375q-0.921875 0 -1.75 0.453125q-0.8125 0.4375 -1.296875 1.265625q-0.46875 0.828125 -0.46875 1.890625q0 1.0625 0.484375 1.890625q0.484375 0.8125 1.296875 1.265625q0.8125 0.4375 1.75 0.4375q1.515625 0 2.453125 -0.953125q0.3125 -0.28125 0.515625 -0.734375q0.203125 -0.453125 0.28125 -1.0l-3.28125 0l0 -1.296875l4.640625 0q0.078125 0.453125 0.078125 0.765625q0 0.90625 -0.28125 1.734375q-0.28125 0.8125 -0.890625 1.4375q-0.640625 0.703125 -1.53125 1.078125q-0.890625 0.359375 -2.0 0.359375zm10.868805 0q-1.390625 0 -2.53125 -0.671875q-1.125 -0.671875 -1.78125 -1.8125q-0.640625 -1.140625 -0.640625 -2.5q0 -1.375 0.640625 -2.515625q0.65625 -1.140625 1.78125 -1.796875q1.140625 -0.671875 2.53125 -0.671875q1.390625 0 2.515625 0.671875q1.125 0.65625 1.765625 1.796875q0.640625 1.140625 0.640625 2.515625q0 1.359375 -0.640625 2.5q-0.640625 1.140625 -1.765625 1.8125q-1.125 0.671875 -2.515625 0.671875zm0 -1.390625q0.953125 0 1.75 -0.453125q0.796875 -0.46875 1.25 -1.28125q0.46875 -0.828125 0.46875 -1.859375q0 -1.046875 -0.46875 -1.859375q-0.453125 -0.828125 -1.25 -1.28125q-0.796875 -0.46875 -1.75 -0.46875q-0.96875 0 -1.765625 0.46875q-0.78125 0.453125 -1.25 1.28125q-0.453125 0.8125 -0.453125 1.859375q0 1.03125 0.453125 1.859375q0.46875 0.8125 1.25 1.28125q0.796875 0.453125 1.765625 0.453125zm10.955627 1.390625q-1.390625 0 -2.53125 -0.671875q-1.125 -0.671875 -1.78125 -1.8125q-0.640625 -1.140625 -0.640625 -2.5q0 -1.375 0.640625 -2.515625q0.65625 -1.140625 1.78125 -1.796875q1.140625 -0.671875 2.53125 -0.671875q1.390625 0 2.515625 0.671875q1.125 0.65625 1.765625 1.796875q0.640625 1.140625 0.640625 2.515625q0 1.359375 -0.640625 2.5q-0.640625 1.140625 -1.765625 1.8125q-1.125 0.671875 -2.515625 0.671875zm0 -1.390625q0.953125 0 1.75 -0.453125q0.796875 -0.46875 1.25 -1.28125q0.46875 -0.828125 0.46875 -1.859375q0 -1.046875 -0.46875 -1.859375q-0.453125 -0.828125 -1.25 -1.28125q-0.796875 -0.46875 -1.75 -0.46875q-0.96875 0 -1.765625 0.46875q-0.78125 0.453125 -1.25 1.28125q-0.453125 0.8125 -0.453125 1.859375q0 1.03125 0.453125 1.859375q0.46875 0.8125 1.25 1.28125q0.796875 0.453125 1.765625 0.453125zm6.6202087 -8.375l3.046875 0q1.484375 0 2.578125 0.609375q1.109375 0.59375 1.703125 1.6875q0.59375 1.078125 0.59375 2.484375q0 1.390625 -0.59375 2.484375q-0.59375 1.078125 -1.703125 1.6875q-1.09375 0.59375 -2.578125 0.59375l-3.046875 0l0 -9.546875zm3.015625 8.15625q1.625 0 2.515625 -0.890625q0.90625 -0.90625 0.90625 -2.484375q0 -1.59375 -0.90625 -2.484375q-0.890625 -0.90625 -2.515625 -0.90625l-1.546875 0l0 6.765625l1.546875 0z" fill-rule="nonzero"/><path fill="#ffa400" d="m475.2 57.600365l124.787415 0l0 43.2126l-124.787415 0z" fill-rule="evenodd"/><path fill="#000000" d="m517.5868 66.459785l1.734375 0l4.3125 7.015625l0.078125 0l-0.078125 -1.84375l0 -5.171875l1.453125 0l0 9.546875l-1.515625 0l-4.53125 -7.375l-0.078125 0l0.078125 1.84375l0 5.53125l-1.453125 0l0 -9.546875zm9.662842 0l5.78125 0l0 1.390625l-4.3125 0l0 2.6875l3.890625 0l0 1.390625l-3.890625 0l0 2.6875l4.3125 0l0 1.390625l-5.78125 0l0 -9.546875zm7.623657 0l5.78125 0l0 1.390625l-4.3125 0l0 2.6875l3.890625 0l0 1.390625l-3.890625 0l0 2.6875l4.3125 0l0 1.390625l-5.78125 0l0 -9.546875zm7.623657 0l3.046875 0q1.484375 0 2.578125 0.609375q1.109375 0.59375 1.703125 1.6875q0.59375 1.078125 0.59375 2.484375q0 1.390625 -0.59375 2.484375q-0.59375 1.078125 -1.703125 1.6875q-1.09375 0.59375 -2.578125 0.59375l-3.046875 0l0 -9.546875zm3.015625 8.15625q1.625 0 2.515625 -0.890625q0.90625 -0.90625 0.90625 -2.484375q0 -1.59375 -0.90625 -2.484375q-0.890625 -0.90625 -2.515625 -0.90625l-1.546875 0l0 6.765625l1.546875 0zm9.361877 1.609375q-1.1875 0 -2.140625 -0.6875q-0.953125 -0.703125 -1.3125 -1.953125l1.375 -0.5625q0.21875 0.796875 0.765625 1.3125q0.546875 0.5 1.3125 0.5q0.71875 0 1.21875 -0.375q0.5 -0.375 0.5 -1.03125q0 -0.59375 -0.4375 -0.984375q-0.4375 -0.390625 -1.515625 -0.765625l-0.59375 -0.21875q-0.984375 -0.34375 -1.625 -0.953125q-0.640625 -0.625 -0.640625 -1.65625q0 -0.703125 0.375 -1.296875q0.375 -0.609375 1.0625 -0.953125q0.6875 -0.34375 1.5625 -0.34375q1.234375 0 1.96875 0.609375q0.75 0.59375 1.015625 1.359375l-1.3125 0.5625q-0.140625 -0.484375 -0.5625 -0.828125q-0.421875 -0.34375 -1.109375 -0.34375q-0.640625 0 -1.09375 0.34375q-0.453125 0.34375 -0.453125 0.875q0 0.5 0.40625 0.828125q0.40625 0.3125 1.25 0.609375l0.609375 0.21875q1.234375 0.421875 1.890625 1.109375q0.671875 0.671875 0.671875 1.8125q0 0.921875 -0.46875 1.5625q-0.46875 0.625 -1.21875 0.9375q-0.734375 0.3125 -1.5 0.3125z" fill-rule="nonzero"/><path fill="#000000" d="m491.15063 82.459785l1.46875 0l0 9.546875l-1.46875 0l0 -9.546875zm3.611908 0l1.96875 0l2.796875 7.265625l0.078125 0l2.796875 -7.265625l1.96875 0l0 9.546875l-1.4375 0l0 -5.390625l0.078125 -1.703125l-0.078125 0l-2.78125 7.09375l-1.171875 0l-2.78125 -7.09375l-0.078125 0l0.078125 1.703125l0 5.390625l-1.4375 0l0 -9.546875zm11.768707 0l3.28125 0q0.859375 0 1.5625 0.375q0.71875 0.375 1.140625 1.046875q0.421875 0.65625 0.421875 1.5q0 0.84375 -0.421875 1.515625q-0.421875 0.65625 -1.140625 1.03125q-0.703125 0.375 -1.5625 0.375l-1.8125 0l0 3.703125l-1.46875 0l0 -9.546875zm3.3125 4.453125q0.734375 0 1.1875 -0.453125q0.453125 -0.46875 0.453125 -1.078125q0 -0.609375 -0.453125 -1.0625q-0.453125 -0.46875 -1.1875 -0.46875l-1.84375 0l0 3.0625l1.84375 0zm4.5910645 -4.453125l3.34375 0q0.875 0 1.5625 0.375q0.703125 0.375 1.109375 1.046875q0.40625 0.65625 0.40625 1.5q0 0.953125 -0.625 1.703125q-0.609375 0.734375 -1.546875 0.984375l-0.015625 0.078125l2.625 3.78125l0 0.078125l-1.6875 0l-2.546875 -3.75l-1.15625 0l0 3.75l-1.46875 0l0 -9.546875zm3.3125 4.453125q0.6875 0 1.15625 -0.4375q0.484375 -0.4375 0.484375 -1.109375q0 -0.609375 -0.4375 -1.0625q-0.4375 -0.46875 -1.15625 -0.46875l-1.890625 0l0 3.078125l1.84375 0zm9.286377 5.3125q-1.390625 0 -2.53125 -0.671875q-1.125 -0.671875 -1.78125 -1.8125q-0.640625 -1.140625 -0.640625 -2.5q0 -1.375 0.640625 -2.515625q0.65625 -1.140625 1.78125 -1.796875q1.140625 -0.671875 2.53125 -0.671875q1.390625 0 2.515625 0.671875q1.125 0.65625 1.765625 1.796875q0.640625 1.140625 0.640625 2.515625q0 1.359375 -0.640625 2.5q-0.640625 1.140625 -1.765625 1.8125q-1.125 0.671875 -2.515625 0.671875zm0 -1.390625q0.953125 0 1.75 -0.453125q0.796875 -0.46875 1.25 -1.28125q0.46875 -0.828125 0.46875 -1.859375q0 -1.046875 -0.46875 -1.859375q-0.453125 -0.828125 -1.25 -1.28125q-0.796875 -0.46875 -1.75 -0.46875q-0.96875 0 -1.765625 0.46875q-0.78125 0.453125 -1.25 1.28125q-0.453125 0.8125 -0.453125 1.859375q0 1.03125 0.453125 1.859375q0.46875 0.8125 1.25 1.28125q0.796875 0.453125 1.765625 0.453125zm5.32959 -8.375l1.59375 0l2.15625 6.34375l0.34375 1.078125l0.078125 0l0.359375 -1.078125l2.25 -6.34375l1.59375 0l-3.46875 9.546875l-1.515625 0l-3.390625 -9.546875zm9.647156 0l5.78125 0l0 1.390625l-4.3125 0l0 2.6875l3.890625 0l0 1.390625l-3.890625 0l0 2.6875l4.3125 0l0 1.390625l-5.78125 0l0 -9.546875zm7.623657 0l1.96875 0l2.796875 7.265625l0.078125 0l2.796875 -7.265625l1.96875 0l0 9.546875l-1.4375 0l0 -5.390625l0.078125 -1.703125l-0.078125 0l-2.78125 7.09375l-1.171875 0l-2.78125 -7.09375l-0.078125 0l0.078125 1.703125l0 5.390625l-1.4375 0l0 -9.546875zm11.768677 0l5.78125 0l0 1.390625l-4.3125 0l0 2.6875l3.890625 0l0 1.390625l-3.890625 0l0 2.6875l4.3125 0l0 1.390625l-5.78125 0l0 -9.546875zm7.623657 0l1.734375 0l4.3125 7.015625l0.078125 0l-0.078125 -1.84375l0 -5.171875l1.453125 0l0 9.546875l-1.515625 0l-4.53125 -7.375l-0.078125 0l0.078125 1.84375l0 5.53125l-1.453125 0l0 -9.546875zm11.615967 1.390625l-2.6875 0l0 -1.390625l6.8125 0l0 1.390625l-2.671875 0l0 8.15625l-1.453125 0l0 -8.15625z" fill-rule="nonzero"/><path fill="#ff4e42" d="m600.025 57.60126l115.212585 0l0 43.212597l-115.212585 0z" fill-rule="evenodd"/><path fill="#000000" d="m639.73035 74.460686l3.28125 0q0.859375 0 1.5625 0.375q0.71875 0.375 1.140625 1.046875q0.421875 0.65625 0.421875 1.5q0 0.84375 -0.421875 1.515625q-0.421875 0.65625 -1.140625 1.03125q-0.703125 0.375 -1.5625 0.375l-1.8125 0l0 3.703125l-1.46875 0l0 -9.546875zm3.3125 4.453125q0.734375 0 1.1875 -0.453125q0.453125 -0.46875 0.453125 -1.078125q0 -0.609375 -0.453125 -1.0625q-0.453125 -0.46875 -1.1875 -0.46875l-1.84375 0l0 3.0625l1.84375 0zm8.939758 5.3125q-1.390625 0 -2.53125 -0.671875q-1.125 -0.671875 -1.78125 -1.8125q-0.640625 -1.140625 -0.640625 -2.5q0 -1.375 0.640625 -2.515625q0.65625 -1.140625 1.78125 -1.796875q1.140625 -0.671875 2.53125 -0.671875q1.390625 0 2.515625 0.671875q1.125 0.65625 1.765625 1.796875q0.640625 1.140625 0.640625 2.515625q0 1.359375 -0.640625 2.5q-0.640625 1.140625 -1.765625 1.8125q-1.125 0.671875 -2.515625 0.671875zm0 -1.390625q0.953125 0 1.75 -0.453125q0.796875 -0.46875 1.25 -1.28125q0.46875 -0.828125 0.46875 -1.859375q0 -1.046875 -0.46875 -1.859375q-0.453125 -0.828125 -1.25 -1.28125q-0.796875 -0.46875 -1.75 -0.46875q-0.96875 0 -1.765625 0.46875q-0.78125 0.453125 -1.25 1.28125q-0.453125 0.8125 -0.453125 1.859375q0 1.03125 0.453125 1.859375q0.46875 0.8125 1.25 1.28125q0.796875 0.453125 1.765625 0.453125zm10.955627 1.390625q-1.390625 0 -2.53125 -0.671875q-1.125 -0.671875 -1.78125 -1.8125q-0.640625 -1.140625 -0.640625 -2.5q0 -1.375 0.640625 -2.515625q0.65625 -1.140625 1.78125 -1.796875q1.140625 -0.671875 2.53125 -0.671875q1.390625 0 2.515625 0.671875q1.125 0.65625 1.765625 1.796875q0.640625 1.140625 0.640625 2.515625q0 1.359375 -0.640625 2.5q-0.640625 1.140625 -1.765625 1.8125q-1.125 0.671875 -2.515625 0.671875zm0 -1.390625q0.953125 0 1.75 -0.453125q0.796875 -0.46875 1.25 -1.28125q0.46875 -0.828125 0.46875 -1.859375q0 -1.046875 -0.46875 -1.859375q-0.453125 -0.828125 -1.25 -1.28125q-0.796875 -0.46875 -1.75 -0.46875q-0.96875 0 -1.765625 0.46875q-0.78125 0.453125 -1.25 1.28125q-0.453125 0.8125 -0.453125 1.859375q0 1.03125 0.453125 1.859375q0.46875 0.8125 1.25 1.28125q0.796875 0.453125 1.765625 0.453125zm6.6202393 -8.375l3.34375 0q0.875 0 1.5625 0.375q0.703125 0.375 1.109375 1.046875q0.40625 0.65625 0.40625 1.5q0 0.953125 -0.625 1.703125q-0.609375 0.734375 -1.546875 0.984375l-0.015625 0.078125l2.625 3.78125l0 0.078125l-1.6875 0l-2.546875 -3.75l-1.15625 0l0 3.75l-1.46875 0l0 -9.546875zm3.3125 4.453125q0.6875 0 1.15625 -0.4375q0.484375 -0.4375 0.484375 -1.109375q0 -0.609375 -0.4375 -1.0625q-0.4375 -0.46875 -1.15625 -0.46875l-1.890625 0l0 3.078125l1.84375 0z" fill-rule="nonzero"/><path fill="#000000" fill-opacity="0.0" d="m552.0 124.8l96.0 0l0 28.7874l-96.0 0z" fill-rule="evenodd"/><path fill="#434343" d="m588.0545 145.61494q-1.453125 0 -2.5625 -0.8125q-1.09375 -0.828125 -1.703125 -2.234375q-0.59375 -1.40625 -0.59375 -3.15625q0 -1.75 0.59375 -3.15625q0.609375 -1.421875 1.703125 -2.234375q1.109375 -0.8125 2.5625 -0.8125q1.453125 0 2.5625 0.8125q1.109375 0.8125 1.703125 2.234375q0.59375 1.40625 0.59375 3.15625q0 1.75 -0.59375 3.15625q-0.59375 1.40625 -1.703125 2.234375q-1.109375 0.8125 -2.5625 0.8125zm0 -1.765625q0.921875 0 1.59375 -0.578125q0.671875 -0.59375 1.03125 -1.59375q0.359375 -1.0 0.359375 -2.265625q0 -1.265625 -0.359375 -2.28125q-0.359375 -1.015625 -1.03125 -1.578125q-0.671875 -0.578125 -1.59375 -0.578125q-0.90625 0 -1.578125 0.578125q-0.65625 0.5625 -1.015625 1.578125q-0.359375 1.015625 -0.359375 2.28125q0 1.265625 0.359375 2.265625q0.359375 1.0 1.015625 1.59375q0.671875 0.578125 1.578125 0.578125zm7.9990234 1.59375q-0.546875 0 -0.9375 -0.375q-0.375 -0.390625 -0.375 -0.9375q0 -0.53125 0.375 -0.90625q0.390625 -0.390625 0.9375 -0.390625q0.5625 0 0.921875 0.375q0.375 0.375 0.375 0.921875q0 0.546875 -0.375 0.9375q-0.359375 0.375 -0.921875 0.375zm3.102417 -1.875q3.515625 -3.5 4.328125 -4.40625q0.765625 -0.796875 1.046875 -1.296875q0.28125 -0.5 0.28125 -1.171875q0 -0.703125 -0.53125 -1.203125q-0.53125 -0.515625 -1.4375 -0.515625q-0.828125 0 -1.34375 0.484375q-0.5 0.46875 -0.6875 1.109375l-1.6875 -0.703125q0.171875 -0.609375 0.640625 -1.21875q0.484375 -0.609375 1.28125 -1.015625q0.796875 -0.421875 1.84375 -0.421875q1.125 0 1.984375 0.46875q0.875 0.46875 1.34375 1.25q0.484375 0.765625 0.484375 1.703125q0 1.875 -1.890625 3.765625q-0.765625 0.765625 -1.71875 1.71875q-0.96875 0.953125 -1.46875 1.46875l0.015625 0.046875l5.203125 0l0 1.703125l-7.6875 0l0 -1.765625zm13.421387 2.046875q-0.890625 0 -1.734375 -0.359375q-0.84375 -0.359375 -1.46875 -1.078125q-0.625 -0.71875 -0.890625 -1.765625l1.671875 -0.671875q0.25 0.984375 0.859375 1.5625q0.625 0.5625 1.546875 0.5625q0.984375 0 1.625 -0.625q0.65625 -0.640625 0.65625 -1.625q0 -1.0 -0.640625 -1.640625q-0.625 -0.65625 -1.625 -0.65625q-0.578125 0 -1.078125 0.25q-0.484375 0.25 -0.796875 0.6875l-1.84375 -0.8125l0.71875 -5.96875l6.40625 0l0 1.703125l-4.875 0l-0.4375 3.1875l0.09375 0.015625q0.9375 -0.734375 2.171875 -0.734375q1.0 0 1.859375 0.5q0.875 0.5 1.390625 1.40625q0.53125 0.890625 0.53125 2.03125q0 1.15625 -0.546875 2.078125q-0.53125 0.90625 -1.484375 1.4375q-0.9375 0.515625 -2.109375 0.515625z" fill-rule="nonzero"/><path fill="#000000" fill-opacity="0.0" d="m427.2 124.8l96.0 0l0 28.7874l-96.0 0z" fill-rule="evenodd"/><path fill="#434343" d="m469.73532 145.61494q-1.453125 0 -2.5625 -0.8125q-1.09375 -0.828125 -1.703125 -2.234375q-0.59375 -1.40625 -0.59375 -3.15625q0 -1.75 0.59375 -3.15625q0.609375 -1.421875 1.703125 -2.234375q1.109375 -0.8125 2.5625 -0.8125q1.453125 0 2.5625 0.8125q1.109375 0.8125 1.703125 2.234375q0.59375 1.40625 0.59375 3.15625q0 1.75 -0.59375 3.15625q-0.59375 1.40625 -1.703125 2.234375q-1.109375 0.8125 -2.5625 0.8125zm0 -1.765625q0.921875 0 1.59375 -0.578125q0.671875 -0.59375 1.03125 -1.59375q0.359375 -1.0 0.359375 -2.265625q0 -1.265625 -0.359375 -2.28125q-0.359375 -1.015625 -1.03125 -1.578125q-0.671875 -0.578125 -1.59375 -0.578125q-0.90625 0 -1.578125 0.578125q-0.65625 0.5625 -1.015625 1.578125q-0.359375 1.015625 -0.359375 2.28125q0 1.265625 0.359375 2.265625q0.359375 1.0 1.015625 1.59375q0.671875 0.578125 1.578125 0.578125zm7.998993 1.59375q-0.546875 0 -0.9375 -0.375q-0.375 -0.390625 -0.375 -0.9375q0 -0.53125 0.375 -0.90625q0.390625 -0.390625 0.9375 -0.390625q0.5625 0 0.921875 0.375q0.375 0.375 0.375 0.921875q0 0.546875 -0.375 0.9375q-0.359375 0.375 -0.921875 0.375zm5.2528687 -9.453125l-1.9375 1.390625l-0.953125 -1.4375l3.421875 -2.46875l1.34375 0l0 11.859375l-1.875 0l0 -9.34375z" fill-rule="nonzero"/><path fill="#000000" fill-opacity="0.0" d="m474.88504 125.7474l0 -28.7874" fill-rule="evenodd"/><path stroke="#434343" stroke-width="2.0" stroke-linejoin="round" stroke-linecap="butt" d="m474.88504 125.747406l0 -21.207397" fill-rule="evenodd"/><path fill="#434343" stroke="#434343" stroke-width="2.0" stroke-linecap="butt" d="m474.88504 97.96001c1.8170166 0 3.2900085 1.4729843 3.2900085 3.290001c0 1.8170166 -1.472992 3.2899933 -3.2900085 3.2899933c-1.8170166 0 -3.289978 -1.4729767 -3.289978 -3.2899933c0 -1.8170166 1.4729614 -3.290001 3.289978 -3.290001z" fill-rule="nonzero"/><path fill="#000000" fill-opacity="0.0" d="m28.8 129.6l268.7874 0l0 38.393692l-268.7874 0z" fill-rule="evenodd"/><path fill="#666666" d="m65.1763 156.30934q-2.0781288 0 -3.7812538 -0.96875q-1.6875 -0.984375 -2.65625 -2.6875q-0.96875 -1.71875 -0.96875 -3.8125q0 -2.109375 0.96875 -3.8125q0.96875 -1.71875 2.65625 -2.6875q1.703125 -0.984375 3.7812538 -0.984375q1.609375 0 2.9375 0.609375q1.328125 0.59375 2.3125 1.734375l-1.21875 1.171875q-0.828125 -0.96875 -1.796875 -1.421875q-0.96875 -0.46875 -2.234375 -0.46875q-1.5468788 0 -2.8593788 0.734375q-1.296875 0.71875 -2.0625 2.046875q-0.765625 1.328125 -0.765625 3.078125q0 1.734375 0.765625 3.0625q0.765625 1.328125 2.0625 2.0625q1.3125 0.734375 2.8593788 0.734375q2.609375 0 4.421875 -2.140625l1.25 1.203125q-0.984375 1.171875 -2.453125 1.859375q-1.46875 0.6875 -3.21875 0.6875zm11.160614 0q-1.828125 0 -2.796875 -1.078125q-0.96875 -1.078125 -0.96875 -3.015625l0 -6.421875l1.6875 0l0 6.15625q0 1.46875 0.65625 2.15625q0.671875 0.671875 1.78125 0.671875q0.875 0 1.53125 -0.453125q0.671875 -0.46875 1.046875 -1.203125q0.375 -0.75 0.375 -1.5625l0 -5.765625l1.6875 0l0 10.203125l-1.609375 0l0 -1.484375l-0.078125 0q-0.421875 0.765625 -1.34375 1.28125q-0.921875 0.515625 -1.96875 0.515625zm7.532486 -10.515625l1.609375 0l0 1.5l0.078125 0q0.453125 -0.78125 1.328125 -1.296875q0.875 -0.515625 1.859375 -0.515625q1.125 0 1.953125 0.546875q0.828125 0.53125 1.1875 1.421875q0.53125 -0.890625 1.421875 -1.421875q0.890625 -0.546875 2.078125 -0.546875q1.765625 0 2.640625 1.078125q0.890625 1.0625 0.890625 2.890625l0 6.546875l-1.671875 0l0 -6.28125q0 -1.421875 -0.578125 -2.0625q-0.578125 -0.640625 -1.71875 -0.640625q-0.765625 0 -1.390625 0.453125q-0.609375 0.4375 -0.96875 1.171875q-0.34375 0.734375 -0.34375 1.59375l0 5.765625l-1.703125 0l0 -6.265625q0 -1.4375 -0.578125 -2.078125q-0.578125 -0.640625 -1.703125 -0.640625q-0.75 0 -1.375 0.453125q-0.625 0.453125 -0.984375 1.203125q-0.34375 0.75 -0.34375 1.609375l0 5.71875l-1.6875 0l0 -10.203125zm21.207489 10.515625q-1.828125 0 -2.796875 -1.078125q-0.96875 -1.078125 -0.96875 -3.015625l0 -6.421875l1.6875 0l0 6.15625q0 1.46875 0.65625 2.15625q0.671875 0.671875 1.78125 0.671875q0.875 0 1.53125 -0.453125q0.671875 -0.46875 1.046875 -1.203125q0.375 -0.75 0.375 -1.5625l0 -5.765625l1.6875 0l0 10.203125l-1.609375 0l0 -1.484375l-0.078125 0q-0.421875 0.765625 -1.34375 1.28125q-0.921875 0.515625 -1.96875 0.515625zm7.532486 -14.625l1.6875 0l0 14.3125l-1.6875 0l0 -14.3125zm7.369995 14.625q-1.109375 0 -2.0 -0.4375q-0.875 -0.4375 -1.359375 -1.203125q-0.46875 -0.765625 -0.46875 -1.75q0 -1.625 1.21875 -2.53125q1.21875 -0.90625 3.078125 -0.90625q0.921875 0 1.703125 0.203125q0.796875 0.1875 1.21875 0.453125l0 -0.625q0 -1.140625 -0.8125 -1.828125q-0.796875 -0.6875 -2.015625 -0.6875q-0.84375 0 -1.578125 0.375q-0.71875 0.359375 -1.140625 1.03125l-1.28125 -0.96875q0.609375 -0.921875 1.65625 -1.4375q1.0625 -0.515625 2.34375 -0.515625q2.078125 0 3.25 1.09375q1.1875 1.078125 1.1875 2.96875l0 6.453125l-1.609375 0l0 -1.453125l-0.09375 0q-0.4375 0.734375 -1.3125 1.25q-0.875 0.515625 -1.984375 0.515625zm0.171875 -1.5q0.859375 0 1.59375 -0.4375q0.734375 -0.4375 1.171875 -1.171875q0.453125 -0.75 0.453125 -1.625q-0.484375 -0.3125 -1.1875 -0.515625q-0.703125 -0.203125 -1.484375 -0.203125q-1.390625 0 -2.109375 0.578125q-0.703125 0.578125 -0.703125 1.5q0 0.84375 0.640625 1.359375q0.640625 0.515625 1.625 0.515625zm10.919998 1.34375q-0.625 0 -1.15625 -0.1875q-0.53125 -0.203125 -0.890625 -0.546875q-0.796875 -0.765625 -0.796875 -2.109375l0 -5.96875l-1.78125 0l0 -1.546875l1.78125 0l0 -2.875l1.703125 0l0 2.875l2.5 0l0 1.546875l-2.5 0l0 5.5625q0 0.828125 0.3125 1.234375q0.375 0.4375 1.09375 0.4375q0.625 0 1.125 -0.34375l0 1.671875q-0.296875 0.140625 -0.609375 0.1875q-0.3125 0.0625 -0.78125 0.0625zm4.498123 -12.234375q-0.5 0 -0.859375 -0.359375q-0.359375 -0.359375 -0.359375 -0.859375q0 -0.515625 0.359375 -0.859375q0.359375 -0.359375 0.859375 -0.359375q0.515625 0 0.859375 0.359375q0.359375 0.34375 0.359375 0.859375q0 0.5 -0.359375 0.859375q-0.34375 0.359375 -0.859375 0.359375zm-0.84375 1.875l1.703125 0l0 10.203125l-1.703125 0l0 -10.203125zm3.238739 0l1.8125 0l3.171875 8.203125l0.03125 0l3.203125 -8.203125l1.78125 0l-4.15625 10.203125l-1.71875 0l-4.125 -10.203125zm15.63623 10.515625q-1.453125 0 -2.625 -0.6875q-1.15625 -0.703125 -1.8125 -1.9375q-0.640625 -1.234375 -0.640625 -2.765625q0 -1.46875 0.609375 -2.71875q0.609375 -1.25 1.734375 -1.984375q1.140625 -0.734375 2.59375 -0.734375q1.5 0 2.59375 0.671875q1.109375 0.65625 1.703125 1.84375q0.59375 1.1875 0.59375 2.703125q0 0.234375 -0.046875 0.515625l-8.078125 0q0.0625 1.15625 0.5625 1.96875q0.5 0.796875 1.265625 1.203125q0.765625 0.390625 1.609375 0.390625q2.0 0 3.015625 -1.84375l1.4375 0.703125q-0.625 1.21875 -1.765625 1.953125q-1.140625 0.71875 -2.75 0.71875zm2.9375 -6.5q-0.03125 -0.625 -0.359375 -1.265625q-0.3125 -0.640625 -1.0 -1.078125q-0.671875 -0.453125 -1.71875 -0.453125q-1.203125 0 -2.046875 0.78125q-0.828125 0.765625 -1.09375 2.015625l6.21875 0zm2.5256195 6.1875l0 0zm6.2337494 -14.3125l1.703125 0l0 12.6875l6.265625 0l0 1.625l-7.96875 0l0 -14.3125zm13.101868 14.625q-1.109375 0 -2.0 -0.4375q-0.875 -0.4375 -1.359375 -1.203125q-0.46875 -0.765625 -0.46875 -1.75q0 -1.625 1.21875 -2.53125q1.21875 -0.90625 3.078125 -0.90625q0.921875 0 1.703125 0.203125q0.796875 0.1875 1.21875 0.453125l0 -0.625q0 -1.140625 -0.8125 -1.828125q-0.796875 -0.6875 -2.015625 -0.6875q-0.84375 0 -1.578125 0.375q-0.71875 0.359375 -1.140625 1.03125l-1.28125 -0.96875q0.609375 -0.921875 1.65625 -1.4375q1.0625 -0.515625 2.34375 -0.515625q2.078125 0 3.25 1.09375q1.1875 1.078125 1.1875 2.96875l0 6.453125l-1.609375 0l0 -1.453125l-0.09375 0q-0.4375 0.734375 -1.3125 1.25q-0.875 0.515625 -1.984375 0.515625zm0.171875 -1.5q0.859375 0 1.59375 -0.4375q0.734375 -0.4375 1.171875 -1.171875q0.453125 -0.75 0.453125 -1.625q-0.484375 -0.3125 -1.1875 -0.515625q-0.703125 -0.203125 -1.484375 -0.203125q-1.390625 0 -2.109375 0.578125q-0.703125 0.578125 -0.703125 1.5q0 0.84375 0.640625 1.359375q0.640625 0.515625 1.625 0.515625zm10.107498 0.546875l-4.21875 -9.5625l1.84375 0l3.203125 7.578125l0.03125 0l3.078125 -7.578125l1.84375 0l-6.296875 14.515625l-1.765625 0l2.28125 -4.953125zm11.498123 0.953125q-1.5 0 -2.703125 -0.71875q-1.1875 -0.71875 -1.859375 -1.953125q-0.671875 -1.234375 -0.671875 -2.734375q0 -1.5 0.671875 -2.734375q0.671875 -1.25 1.859375 -1.96875q1.203125 -0.71875 2.703125 -0.71875q1.5 0 2.703125 0.71875q1.203125 0.71875 1.875 1.96875q0.671875 1.234375 0.671875 2.734375q0 1.5 -0.671875 2.734375q-0.671875 1.234375 -1.875 1.953125q-1.203125 0.71875 -2.703125 0.71875zm0 -1.53125q0.953125 0 1.75 -0.46875q0.8125 -0.46875 1.296875 -1.34375q0.5 -0.890625 0.5 -2.0625q0 -1.1875 -0.5 -2.0625q-0.484375 -0.890625 -1.296875 -1.359375q-0.796875 -0.46875 -1.75 -0.46875q-0.9375 0 -1.765625 0.46875q-0.8125 0.46875 -1.296875 1.359375q-0.484375 0.875 -0.484375 2.0625q0 1.171875 0.484375 2.0625q0.484375 0.875 1.296875 1.34375q0.828125 0.46875 1.765625 0.46875zm10.819977 1.53125q-1.828125 0 -2.796875 -1.078125q-0.96875 -1.078125 -0.96875 -3.015625l0 -6.421875l1.6875 0l0 6.15625q0 1.46875 0.65625 2.15625q0.671875 0.671875 1.78125 0.671875q0.875 0 1.53125 -0.453125q0.671875 -0.46875 1.046875 -1.203125q0.375 -0.75 0.375 -1.5625l0 -5.765625l1.6875 0l0 10.203125l-1.609375 0l0 -1.484375l-0.078125 0q-0.421875 0.765625 -1.34375 1.28125q-0.921875 0.515625 -1.96875 0.515625zm11.554367 -0.15625q-0.625 0 -1.15625 -0.1875q-0.53125 -0.203125 -0.890625 -0.546875q-0.796875 -0.765625 -0.796875 -2.109375l0 -5.96875l-1.78125 0l0 -1.546875l1.78125 0l0 -2.875l1.703125 0l0 2.875l2.5 0l0 1.546875l-2.5 0l0 5.5625q0 0.828125 0.3125 1.234375q0.375 0.4375 1.09375 0.4375q0.625 0 1.125 -0.34375l0 1.671875q-0.296875 0.140625 -0.609375 0.1875q-0.3125 0.0625 -0.78125 0.0625zm2.132492 -0.15625l0 0zm9.633743 0.3125q-1.078125 0 -2.09375 -0.4375q-1.0 -0.453125 -1.78125 -1.3125q-0.78125 -0.875 -1.125 -2.125l1.625 -0.65625q0.34375 1.28125 1.265625 2.109375q0.921875 0.8125 2.15625 0.8125q1.234375 0 2.09375 -0.671875q0.859375 -0.671875 0.859375 -1.828125q0 -1.0 -0.734375 -1.640625q-0.71875 -0.65625 -2.375 -1.21875l-0.90625 -0.328125q-1.515625 -0.53125 -2.484375 -1.40625q-0.953125 -0.890625 -0.953125 -2.453125q0 -1.015625 0.5625 -1.875q0.5625 -0.875 1.5625 -1.390625q1.0 -0.53125 2.234375 -0.53125q1.234375 0 2.15625 0.46875q0.921875 0.453125 1.46875 1.109375q0.5625 0.65625 0.78125 1.296875l-1.59375 0.6875q-0.21875 -0.734375 -0.921875 -1.328125q-0.703125 -0.609375 -1.875 -0.609375q-1.09375 0 -1.875 0.625q-0.78125 0.609375 -0.78125 1.546875q0 0.84375 0.65625 1.375q0.671875 0.53125 2.0 0.984375l0.9375 0.328125q1.828125 0.65625 2.84375 1.65625q1.015625 0.984375 1.015625 2.6875q0 1.375 -0.703125 2.3125q-0.703125 0.9375 -1.796875 1.375q-1.078125 0.4375 -2.21875 0.4375zm6.911865 -14.625l1.6875 0l0 4.21875l-0.078125 1.390625l0.078125 0q0.421875 -0.78125 1.328125 -1.296875q0.921875 -0.515625 2.0 -0.515625q1.859375 0 2.828125 1.09375q0.984375 1.078125 0.984375 2.875l0 6.546875l-1.6875 0l0 -6.28125q0 -1.375 -0.703125 -2.03125q-0.703125 -0.671875 -1.828125 -0.671875q-0.796875 0 -1.46875 0.484375q-0.671875 0.484375 -1.0625 1.25q-0.390625 0.75 -0.390625 1.5625l0 5.6875l-1.6875 0l0 -14.3125zm12.2799835 2.234375q-0.5 0 -0.859375 -0.359375q-0.359375 -0.359375 -0.359375 -0.859375q0 -0.515625 0.359375 -0.859375q0.359375 -0.359375 0.859375 -0.359375q0.515625 0 0.859375 0.359375q0.359375 0.34375 0.359375 0.859375q0 0.5 -0.359375 0.859375q-0.34375 0.359375 -0.859375 0.359375zm-0.84375 1.875l1.703125 0l0 10.203125l-1.703125 0l0 -10.203125zm14.723114 10.359375q-0.625 0 -1.15625 -0.1875q-0.53125 -0.203125 -0.890625 -0.546875q-0.796875 -0.765625 -0.796875 -2.109375l0 -5.96875l-4.640625 0l0 8.65625l-1.703125 0l0 -8.65625l-1.875 0l0 -1.546875l1.875 0l0 -1.09375q0 -0.96875 0.4375 -1.6875q0.4375 -0.71875 1.171875 -1.109375q0.75 -0.390625 1.65625 -0.390625q0.859375 0 1.5 0.25l0 1.65625q-0.359375 -0.140625 -0.6875 -0.234375q-0.3125 -0.09375 -0.75 -0.09375q-0.671875 0 -1.15625 0.484375q-0.46875 0.46875 -0.46875 1.296875l0 0.921875l4.640625 0l0 -2.875l1.703125 0l0 2.875l2.5 0l0 1.546875l-2.5 0l0 5.5625q0 0.859375 0.3125 1.234375q0.390625 0.4375 1.109375 0.4375q0.609375 0 1.109375 -0.34375l0 1.671875q-0.296875 0.140625 -0.609375 0.1875q-0.3125 0.0625 -0.78125 0.0625z" fill-rule="nonzero"/><path fill="#000000" fill-opacity="0.0" d="m600.0 125.62752l0 -28.566933" fill-rule="evenodd"/><path stroke="#434343" stroke-width="2.0" stroke-linejoin="round" stroke-linecap="butt" d="m600.0 125.627525l0 -20.98693" fill-rule="evenodd"/><path fill="#434343" stroke="#434343" stroke-width="2.0" stroke-linecap="butt" d="m600.0 98.06059c1.8170166 0 3.289978 1.4729843 3.289978 3.290001c0 1.8170166 -1.4729614 3.290001 -3.289978 3.290001c-1.8170166 0 -3.289978 -1.4729843 -3.289978 -3.290001c0 -1.8170166 1.4729614 -3.290001 3.289978 -3.290001z" fill-rule="nonzero"/></g></svg>