<svg version="1.1" viewBox="0.0 0.0 384.0 336.0" fill="none" stroke="none" stroke-linecap="square" stroke-miterlimit="10" xmlns:xlink="http://www.w3.org/1999/xlink" xmlns="http://www.w3.org/2000/svg"><clipPath id="p.0"><path d="m0 0l384.0 0l0 336.0l-384.0 0l0 -336.0z" clip-rule="nonzero"/></clipPath><g clip-path="url(#p.0)"><path fill="#000000" fill-opacity="0.0" d="m0 0l384.0 0l0 336.0l-384.0 0z" fill-rule="evenodd"/><path fill="#000000" fill-opacity="0.0" d="m48.006233 28.0l288.0 0l0 33.574802l-288.0 0z" fill-rule="evenodd"/><path fill="#999999" d="m144.34512 52.81928q-0.796875 -1.125 -1.328125 -2.703125q-0.515625 -1.578125 -0.515625 -3.4375q0 -2.453125 1.125 -4.65625q1.140625 -2.21875 3.140625 -3.859375l1.046875 0.953125q-1.765625 1.6875 -2.6875 3.546875q-0.90625 1.859375 -0.90625 4.125q0 1.515625 0.359375 2.765625q0.375 1.25 1.03125 2.375l-1.265625 0.890625zm5.174759 -13.625l1.75 0l-2.046875 11.453125l-1.734375 0l2.03125 -11.453125zm5.007889 4.40625q0.4375 -0.640625 1.125 -1.0q0.6875 -0.375 1.578125 -0.375q1.234375 0 1.921875 0.6875q0.6875 0.671875 0.6875 1.765625q0 0.609375 -0.09375 1.078125l-0.875 4.890625l-1.71875 0l0.84375 -4.796875q0.078125 -0.40625 0.078125 -0.703125q0 -0.609375 -0.40625 -0.96875q-0.40625 -0.359375 -1.09375 -0.359375q-0.953125 0 -1.640625 0.6875q-0.6875 0.671875 -0.859375 1.75l-0.78125 4.390625l-1.734375 0l1.453125 -8.15625l1.609375 0l-0.1875 1.109375l0.09375 0zm9.239395 7.171875q-0.953125 0 -1.53125 -0.515625q-0.5625 -0.53125 -0.5625 -1.484375q0 -0.265625 0.078125 -0.796875l0.703125 -3.984375l-1.421875 0l0.28125 -1.5l1.421875 0l0.421875 -2.3125l1.703125 0l-0.40625 2.3125l1.984375 0l-0.265625 1.5l-2.0 0l-0.671875 3.859375q-0.046875 0.21875 -0.046875 0.5q0 0.375 0.234375 0.59375q0.234375 0.21875 0.625 0.21875q0.53125 0 1.0625 -0.3125l-0.296875 1.6875q-0.5625 0.234375 -1.3125 0.234375zm6.577011 0.125q-1.109375 0 -1.96875 -0.5q-0.84375 -0.515625 -1.296875 -1.390625q-0.453125 -0.875 -0.453125 -1.90625q0 -1.265625 0.59375 -2.390625q0.59375 -1.125 1.65625 -1.796875q1.078125 -0.6875 2.453125 -0.6875q1.0625 0 1.859375 0.484375q0.796875 0.46875 1.203125 1.25q0.421875 0.78125 0.421875 1.71875q0 0.703125 -0.171875 1.25l-6.296875 0q-0.03125 0.203125 -0.03125 0.359375q0.015625 0.953125 0.640625 1.515625q0.625 0.5625 1.515625 0.5625q0.90625 0 1.515625 -0.34375q0.609375 -0.34375 1.015625 -1.03125l1.296875 0.71875q-0.65625 1.09375 -1.625 1.640625q-0.96875 0.546875 -2.328125 0.546875zm2.84375 -5.265625l0 -0.140625q0 -0.734375 -0.5625 -1.25q-0.546875 -0.53125 -1.46875 -0.53125q-0.9375 0 -1.625 0.5625q-0.6875 0.546875 -0.9375 1.359375l4.59375 0zm3.8722687 -3.140625l1.609375 0l-0.1875 1.09375l0.09375 0q0.34375 -0.625 1.0625 -0.984375q0.71875 -0.359375 1.546875 -0.359375q0.59375 0 0.953125 0.171875l-0.3125 1.8125q-0.46875 -0.3125 -1.1875 -0.3125q-0.921875 0 -1.65625 0.703125q-0.71875 0.703125 -0.890625 1.71875l-0.75 4.3125l-1.734375 0l1.453125 -8.15625zm7.3311462 8.40625q-0.71875 0 -1.328125 -0.328125q-0.609375 -0.328125 -0.96875 -0.890625q-0.359375 -0.578125 -0.359375 -1.28125q0 -1.359375 0.96875 -2.15625q0.96875 -0.8125 2.71875 -0.8125q0.625 0 1.203125 0.140625q0.59375 0.125 1.046875 0.34375l0.109375 -0.421875l0.03125 -0.40625q0 -0.609375 -0.53125 -1.0q-0.515625 -0.390625 -1.28125 -0.390625q-1.3125 0 -2.09375 0.984375l-1.21875 -0.890625q0.609375 -0.75 1.515625 -1.15625q0.921875 -0.40625 1.984375 -0.40625q1.53125 0 2.40625 0.75q0.875 0.734375 0.875 1.953125q0 0.34375 -0.078125 0.828125l-0.875 4.890625l-1.671875 0l0.171875 -0.984375l-0.09375 0q-0.40625 0.5625 -1.046875 0.90625q-0.625 0.328125 -1.484375 0.328125zm0.5 -1.40625q1.0 0 1.703125 -0.640625q0.703125 -0.640625 0.859375 -1.640625q-0.484375 -0.25 -0.9375 -0.359375q-0.4375 -0.125 -1.078125 -0.125q-0.890625 0 -1.421875 0.40625q-0.53125 0.390625 -0.53125 1.125q0 0.5625 0.40625 0.90625q0.40625 0.328125 1.0 0.328125zm9.389282 1.40625q-1.078125 0 -1.9375 -0.5q-0.84375 -0.515625 -1.3125 -1.375q-0.453125 -0.875 -0.453125 -1.90625q0 -1.3125 0.59375 -2.4375q0.609375 -1.125 1.703125 -1.78125q1.109375 -0.671875 2.53125 -0.671875q1.3125 0 2.1875 0.65625q0.890625 0.640625 1.1875 1.625l-1.59375 0.640625q-0.234375 -0.625 -0.75 -0.96875q-0.515625 -0.359375 -1.234375 -0.359375q-0.796875 0 -1.453125 0.40625q-0.65625 0.40625 -1.046875 1.125q-0.390625 0.71875 -0.390625 1.59375q0 1.03125 0.59375 1.703125q0.609375 0.671875 1.5625 0.671875q0.78125 0 1.375 -0.359375q0.609375 -0.359375 0.9375 -1.0l1.421875 0.6875q-1.25 2.25 -3.921875 2.25zm8.286621 -0.125q-0.953125 0 -1.53125 -0.515625q-0.5625 -0.53125 -0.5625 -1.484375q0 -0.265625 0.078125 -0.796875l0.703125 -3.984375l-1.421875 0l0.28125 -1.5l1.421875 0l0.421875 -2.3125l1.703125 0l-0.40625 2.3125l1.984375 0l-0.265625 1.5l-2.0 0l-0.671875 3.859375q-0.046875 0.21875 -0.046875 0.5q0 0.375 0.234375 0.59375q0.234375 0.21875 0.625 0.21875q0.53125 0 1.0625 -0.3125l-0.296875 1.6875q-0.5625 0.234375 -1.3125 0.234375zm5.8832703 -9.484375q-0.5 0 -0.84375 -0.34375q-0.328125 -0.34375 -0.328125 -0.828125q0 -0.484375 0.328125 -0.8125q0.34375 -0.34375 0.84375 -0.34375q0.46875 0 0.796875 0.34375q0.34375 0.328125 0.34375 0.8125q0 0.484375 -0.34375 0.828125q-0.328125 0.34375 -0.796875 0.34375zm-1.296875 1.203125l1.71875 0l-1.4375 8.15625l-1.703125 0l1.421875 -8.15625zm2.9847717 0l1.90625 0l1.21875 5.9375l0.078125 0l3.359375 -5.9375l1.9375 0l-4.84375 8.15625l-1.75 0l-1.90625 -8.15625zm11.064148 -1.203125q-0.5 0 -0.84375 -0.34375q-0.328125 -0.34375 -0.328125 -0.828125q0 -0.484375 0.328125 -0.8125q0.34375 -0.34375 0.84375 -0.34375q0.46875 0 0.796875 0.34375q0.34375 0.328125 0.34375 0.8125q0 0.484375 -0.34375 0.828125q-0.328125 0.34375 -0.796875 0.34375zm-1.296875 1.203125l1.71875 0l-1.4375 8.15625l-1.703125 0l1.421875 -8.15625zm5.7016296 8.28125q-0.953125 0 -1.53125 -0.515625q-0.5625 -0.53125 -0.5625 -1.484375q0 -0.265625 0.078125 -0.796875l0.703125 -3.984375l-1.421875 0l0.28125 -1.5l1.421875 0l0.421875 -2.3125l1.703125 0l-0.40625 2.3125l1.984375 0l-0.265625 1.5l-2.0 0l-0.671875 3.859375q-0.046875 0.21875 -0.046875 0.5q0 0.375 0.234375 0.59375q0.234375 0.21875 0.625 0.21875q0.53125 0 1.0625 -0.3125l-0.296875 1.6875q-0.5625 0.234375 -1.3125 0.234375zm5.5863953 -0.625l-2.03125 -7.65625l1.890625 0l1.375 5.5625l0.0625 0l3.265625 -5.5625l1.9375 0l-7.109375 11.609375l-1.859375 0l2.46875 -3.953125zm5.345764 1.734375q1.78125 -1.71875 2.6875 -3.5625q0.921875 -1.84375 0.921875 -4.125q0 -1.515625 -0.375 -2.765625q-0.375 -1.25 -1.046875 -2.359375l1.265625 -0.90625q0.8125 1.140625 1.328125 2.71875q0.53125 1.578125 0.53125 3.421875q0 2.453125 -1.140625 4.671875q-1.125 2.21875 -3.125 3.84375l-1.046875 -0.9375z" fill-rule="nonzero"/><path fill="#000000" fill-opacity="0.0" d="m47.99836 67.2l288.0 0l0 96.0l-288.0 0z" fill-rule="evenodd"/><path fill="#2979ff" d="m128.42107 83.66437l39.953125 0l0 11.265625l-28.078125 0l0 15.3125l25.265625 0l0 11.265625l-25.265625 0l0 25.171875l-11.875 0l0 -63.015625zm50.424026 0l11.875 0l0 63.015625l-11.875 0l0 -63.015625zm26.223999 0l21.296875 0q9.859375 0 17.15625 3.96875q7.296875 3.953125 11.25 11.09375q3.96875 7.125 3.96875 16.453125q0 9.328125 -3.96875 16.453125q-3.953125 7.125 -11.25 11.09375q-7.296875 3.953125 -17.15625 3.953125l-21.296875 0l0 -63.015625zm20.765625 51.75q10.203125 0 15.5625 -5.40625q5.375 -5.421875 5.375 -14.828125q0 -9.421875 -5.375 -14.828125q-5.359375 -5.421875 -15.5625 -5.421875l-8.890625 0l0 40.484375l8.890625 0z" fill-rule="nonzero"/><path fill="#0cce6b" d="m43.2 220.80136l96.0 0l0 38.393707l-96.0 0z" fill-rule="evenodd"/><path fill="#000000" d="m77.08874 244.70572q-1.234375 0 -2.265625 -0.578125q-1.03125 -0.59375 -1.640625 -1.609375q-0.59375 -1.03125 -0.59375 -2.296875q0 -1.265625 0.59375 -2.28125q0.609375 -1.03125 1.640625 -1.609375q1.03125 -0.59375 2.265625 -0.59375q0.984375 0 1.8125 0.34375q0.828125 0.34375 1.390625 0.96875l-0.90625 0.921875q-0.875 -0.984375 -2.296875 -0.984375q-0.84375 0 -1.578125 0.40625q-0.734375 0.390625 -1.171875 1.140625q-0.421875 0.734375 -0.421875 1.6875q0 0.953125 0.4375 1.703125q0.4375 0.734375 1.15625 1.140625q0.734375 0.390625 1.578125 0.390625q1.359375 0 2.21875 -0.84375q0.265625 -0.265625 0.453125 -0.671875q0.1875 -0.40625 0.265625 -0.90625l-2.953125 0l0 -1.15625l4.171875 0q0.078125 0.40625 0.078125 0.6875q0 0.828125 -0.265625 1.5625q-0.25 0.734375 -0.796875 1.296875q-0.578125 0.625 -1.390625 0.953125q-0.796875 0.328125 -1.78125 0.328125zm9.765564 0q-1.234375 0 -2.265625 -0.59375q-1.015625 -0.609375 -1.59375 -1.625q-0.578125 -1.03125 -0.578125 -2.265625q0 -1.234375 0.578125 -2.25q0.578125 -1.03125 1.59375 -1.625q1.03125 -0.609375 2.265625 -0.609375q1.25 0 2.265625 0.609375q1.015625 0.59375 1.59375 1.625q0.59375 1.015625 0.59375 2.25q0 1.234375 -0.59375 2.265625q-0.578125 1.015625 -1.59375 1.625q-1.015625 0.59375 -2.265625 0.59375zm0 -1.25q0.875 0 1.578125 -0.40625q0.71875 -0.421875 1.125 -1.15625q0.421875 -0.734375 0.421875 -1.671875q0 -0.9375 -0.421875 -1.671875q-0.40625 -0.734375 -1.125 -1.140625q-0.703125 -0.421875 -1.578125 -0.421875q-0.859375 0 -1.578125 0.421875q-0.703125 0.40625 -1.125 1.140625q-0.40625 0.734375 -0.40625 1.671875q0 0.9375 0.40625 1.671875q0.421875 0.734375 1.125 1.15625q0.71875 0.40625 1.578125 0.40625zm9.864075 1.25q-1.234375 0 -2.265625 -0.59375q-1.015625 -0.609375 -1.59375 -1.625q-0.578125 -1.03125 -0.578125 -2.265625q0 -1.234375 0.578125 -2.25q0.578125 -1.03125 1.59375 -1.625q1.03125 -0.609375 2.265625 -0.609375q1.25 0 2.265625 0.609375q1.015625 0.59375 1.59375 1.625q0.59375 1.015625 0.59375 2.25q0 1.234375 -0.59375 2.265625q-0.578125 1.015625 -1.59375 1.625q-1.015625 0.59375 -2.265625 0.59375zm0 -1.25q0.875 0 1.578125 -0.40625q0.71875 -0.421875 1.125 -1.15625q0.421875 -0.734375 0.421875 -1.671875q0 -0.9375 -0.421875 -1.671875q-0.40625 -0.734375 -1.125 -1.140625q-0.703125 -0.421875 -1.578125 -0.421875q-0.859375 0 -1.578125 0.421875q-0.703125 0.40625 -1.125 1.140625q-0.40625 0.734375 -0.40625 1.671875q0 0.9375 0.40625 1.671875q0.421875 0.734375 1.125 1.15625q0.71875 0.40625 1.578125 0.40625zm5.968445 -7.53125l2.75 0q1.328125 0 2.3125 0.546875q1.0 0.53125 1.53125 1.515625q0.53125 0.96875 0.53125 2.234375q0 1.265625 -0.53125 2.25q-0.53125 0.96875 -1.53125 1.515625q-0.984375 0.53125 -2.3125 0.53125l-2.75 0l0 -8.59375zm2.71875 7.34375q1.453125 0 2.265625 -0.8125q0.8125 -0.8125 0.8125 -2.234375q0 -1.421875 -0.8125 -2.234375q-0.8125 -0.8125 -2.265625 -0.8125l-1.390625 0l0 6.09375l1.390625 0z" fill-rule="nonzero"/><path fill="#ffa400" d="m139.2 220.80132l105.60631 0l0 38.393692l-105.60631 0z" fill-rule="evenodd"/><path fill="#000000" d="m173.98776 228.92441l1.5625 0l3.890625 6.3125l0.0625 0l-0.0625 -1.65625l0 -4.65625l1.3125 0l0 8.59375l-1.375 0l-4.078125 -6.640625l-0.078125 0l0.078125 1.65625l0 4.984375l-1.3125 0l0 -8.59375zm8.700058 0l5.21875 0l0 1.25l-3.890625 0l0 2.421875l3.5 0l0 1.25l-3.5 0l0 2.421875l3.890625 0l0 1.25l-5.21875 0l0 -8.59375zm6.864044 0l5.21875 0l0 1.25l-3.890625 0l0 2.421875l3.5 0l0 1.25l-3.5 0l0 2.421875l3.890625 0l0 1.25l-5.21875 0l0 -8.59375zm6.864044 0l2.75 0q1.328125 0 2.3125 0.546875q1.0 0.53125 1.53125 1.515625q0.53125 0.96875 0.53125 2.234375q0 1.265625 -0.53125 2.25q-0.53125 0.96875 -1.53125 1.515625q-0.984375 0.53125 -2.3125 0.53125l-2.75 0l0 -8.59375zm2.71875 7.34375q1.453125 0 2.265625 -0.8125q0.8125 -0.8125 0.8125 -2.234375q0 -1.421875 -0.8125 -2.234375q-0.8125 -0.8125 -2.265625 -0.8125l-1.390625 0l0 6.09375l1.390625 0zm8.42131 1.4375q-1.0625 0 -1.921875 -0.625q-0.84375 -0.625 -1.1875 -1.75l1.25 -0.5q0.1875 0.71875 0.671875 1.171875q0.5 0.453125 1.203125 0.453125q0.640625 0 1.09375 -0.328125q0.453125 -0.34375 0.453125 -0.921875q0 -0.546875 -0.40625 -0.890625q-0.390625 -0.359375 -1.359375 -0.703125l-0.546875 -0.1875q-0.875 -0.3125 -1.453125 -0.859375q-0.578125 -0.5625 -0.578125 -1.484375q0 -0.640625 0.34375 -1.171875q0.34375 -0.546875 0.953125 -0.859375q0.625 -0.3125 1.40625 -0.3125q1.109375 0 1.78125 0.546875q0.671875 0.546875 0.90625 1.21875l-1.1875 0.515625q-0.109375 -0.4375 -0.5 -0.75q-0.375 -0.3125 -1.0 -0.3125q-0.578125 0 -1.0 0.3125q-0.40625 0.3125 -0.40625 0.796875q0 0.4375 0.359375 0.734375q0.375 0.296875 1.140625 0.5625l0.5625 0.1875q1.09375 0.390625 1.6875 1.0q0.609375 0.609375 0.609375 1.625q0 0.84375 -0.421875 1.421875q-0.421875 0.5625 -1.09375 0.84375q-0.671875 0.265625 -1.359375 0.265625zm3.431305 -0.1875l0 0z" fill-rule="nonzero"/><path fill="#000000" d="m150.18561 242.92441l1.328125 0l0 8.59375l-1.328125 0l0 -8.59375zm3.2520294 0l1.78125 0l2.5 6.546875l0.078125 0l2.515625 -6.546875l1.78125 0l0 8.59375l-1.296875 0l0 -4.859375l0.078125 -1.53125l-0.078125 0l-2.515625 6.390625l-1.03125 0l-2.515625 -6.390625l-0.0625 0l0.0625 1.53125l0 4.859375l-1.296875 0l0 -8.59375zm10.596069 0l2.953125 0q0.765625 0 1.40625 0.34375q0.640625 0.328125 1.015625 0.9375q0.390625 0.59375 0.390625 1.34375q0 0.765625 -0.390625 1.359375q-0.375 0.59375 -1.015625 0.9375q-0.640625 0.328125 -1.40625 0.328125l-1.625 0l0 3.34375l-1.328125 0l0 -8.59375zm2.984375 4.015625q0.671875 0 1.0625 -0.40625q0.40625 -0.421875 0.40625 -0.984375q0 -0.546875 -0.40625 -0.953125q-0.390625 -0.421875 -1.0625 -0.421875l-1.65625 0l0 2.765625l1.65625 0zm4.131668 -4.015625l3.015625 0q0.78125 0 1.40625 0.34375q0.640625 0.328125 1.0 0.9375q0.359375 0.59375 0.359375 1.34375q0 0.875 -0.5625 1.546875q-0.546875 0.65625 -1.390625 0.875l-0.015625 0.0625l2.375 3.40625l0 0.078125l-1.53125 0l-2.28125 -3.375l-1.046875 0l0 3.375l-1.328125 0l0 -8.59375zm2.984375 4.015625q0.625 0 1.046875 -0.390625q0.421875 -0.40625 0.421875 -1.0q0 -0.5625 -0.390625 -0.96875q-0.390625 -0.421875 -1.03125 -0.421875l-1.703125 0l0 2.78125l1.65625 0zm8.351303 4.765625q-1.234375 0 -2.265625 -0.59375q-1.015625 -0.609375 -1.59375 -1.625q-0.578125 -1.03125 -0.578125 -2.265625q0 -1.234375 0.578125 -2.25q0.578125 -1.03125 1.59375 -1.625q1.03125 -0.609375 2.265625 -0.609375q1.25 0 2.265625 0.609375q1.015625 0.59375 1.59375 1.625q0.59375 1.015625 0.59375 2.25q0 1.234375 -0.59375 2.265625q-0.578125 1.015625 -1.59375 1.625q-1.015625 0.59375 -2.265625 0.59375zm0 -1.25q0.875 0 1.578125 -0.40625q0.71875 -0.421875 1.125 -1.15625q0.421875 -0.734375 0.421875 -1.671875q0 -0.9375 -0.421875 -1.671875q-0.40625 -0.734375 -1.125 -1.140625q-0.703125 -0.421875 -1.578125 -0.421875q-0.859375 0 -1.578125 0.421875q-0.703125 0.40625 -1.125 1.140625q-0.40625 0.734375 -0.40625 1.671875q0 0.9375 0.40625 1.671875q0.421875 0.734375 1.125 1.15625q0.71875 0.40625 1.578125 0.40625zm4.811569 -7.53125l1.4375 0l1.9375 5.71875l0.3125 0.96875l0.0625 0l0.328125 -0.96875l2.03125 -5.71875l1.4375 0l-3.140625 8.59375l-1.359375 0l-3.046875 -8.59375zm8.680923 0l5.21875 0l0 1.25l-3.890625 0l0 2.421875l3.5 0l0 1.25l-3.5 0l0 2.421875l3.890625 0l0 1.25l-5.21875 0l0 -8.59375zm6.864044 0l1.78125 0l2.5 6.546875l0.078125 0l2.515625 -6.546875l1.78125 0l0 8.59375l-1.296875 0l0 -4.859375l0.078125 -1.53125l-0.078125 0l-2.515625 6.390625l-1.03125 0l-2.515625 -6.390625l-0.0625 0l0.0625 1.53125l0 4.859375l-1.296875 0l0 -8.59375zm10.596069 0l5.21875 0l0 1.25l-3.890625 0l0 2.421875l3.5 0l0 1.25l-3.5 0l0 2.421875l3.890625 0l0 1.25l-5.21875 0l0 -8.59375zm6.864044 0l1.5625 0l3.890625 6.3125l0.0625 0l-0.0625 -1.65625l0 -4.65625l1.3125 0l0 8.59375l-1.375 0l-4.078125 -6.640625l-0.078125 0l0.078125 1.65625l0 4.984375l-1.3125 0l0 -8.59375zm10.450058 1.25l-2.40625 0l0 -1.25l6.125 0l0 1.25l-2.390625 0l0 7.34375l-1.328125 0l0 -7.34375z" fill-rule="nonzero"/><path fill="#ff4e42" d="m243.84 220.8l96.0 0l0 38.393692l-96.0 0z" fill-rule="evenodd"/><path fill="#000000" d="m275.72064 235.9231l2.953125 0q0.765625 0 1.40625 0.34375q0.640625 0.328125 1.015625 0.9375q0.390625 0.59375 0.390625 1.34375q0 0.765625 -0.390625 1.359375q-0.375 0.59375 -1.015625 0.9375q-0.640625 0.328125 -1.40625 0.328125l-1.625 0l0 3.34375l-1.328125 0l0 -8.59375zm2.984375 4.015625q0.671875 0 1.0625 -0.40625q0.40625 -0.421875 0.40625 -0.984375q0 -0.546875 -0.40625 -0.953125q-0.390625 -0.421875 -1.0625 -0.421875l-1.65625 0l0 2.765625l1.65625 0zm8.039276 4.765625q-1.234375 0 -2.265625 -0.59375q-1.015625 -0.609375 -1.59375 -1.625q-0.578125 -1.03125 -0.578125 -2.265625q0 -1.234375 0.578125 -2.25q0.578125 -1.03125 1.59375 -1.625q1.03125 -0.609375 2.265625 -0.609375q1.25 0 2.265625 0.609375q1.015625 0.59375 1.59375 1.625q0.59375 1.015625 0.59375 2.25q0 1.234375 -0.59375 2.265625q-0.578125 1.015625 -1.59375 1.625q-1.015625 0.59375 -2.265625 0.59375zm0 -1.25q0.875 0 1.578125 -0.40625q0.71875 -0.421875 1.125 -1.15625q0.421875 -0.734375 0.421875 -1.671875q0 -0.9375 -0.421875 -1.671875q-0.40625 -0.734375 -1.125 -1.140625q-0.703125 -0.421875 -1.578125 -0.421875q-0.859375 0 -1.578125 0.421875q-0.703125 0.40625 -1.125 1.140625q-0.40625 0.734375 -0.40625 1.671875q0 0.9375 0.40625 1.671875q0.421875 0.734375 1.125 1.15625q0.71875 0.40625 1.578125 0.40625zm9.864075 1.25q-1.234375 0 -2.265625 -0.59375q-1.015625 -0.609375 -1.59375 -1.625q-0.578125 -1.03125 -0.578125 -2.265625q0 -1.234375 0.578125 -2.25q0.578125 -1.03125 1.59375 -1.625q1.03125 -0.609375 2.265625 -0.609375q1.25 0 2.265625 0.609375q1.015625 0.59375 1.59375 1.625q0.59375 1.015625 0.59375 2.25q0 1.234375 -0.59375 2.265625q-0.578125 1.015625 -1.59375 1.625q-1.015625 0.59375 -2.265625 0.59375zm0 -1.25q0.875 0 1.578125 -0.40625q0.71875 -0.421875 1.125 -1.15625q0.421875 -0.734375 0.421875 -1.671875q0 -0.9375 -0.421875 -1.671875q-0.40625 -0.734375 -1.125 -1.140625q-0.703125 -0.421875 -1.578125 -0.421875q-0.859375 0 -1.578125 0.421875q-0.703125 0.40625 -1.125 1.140625q-0.40625 0.734375 -0.40625 1.671875q0 0.9375 0.40625 1.671875q0.421875 0.734375 1.125 1.15625q0.71875 0.40625 1.578125 0.40625zm5.968445 -7.53125l3.015625 0q0.78125 0 1.40625 0.34375q0.640625 0.328125 1.0 0.9375q0.359375 0.59375 0.359375 1.34375q0 0.875 -0.5625 1.546875q-0.546875 0.65625 -1.390625 0.875l-0.015625 0.0625l2.375 3.40625l0 0.078125l-1.53125 0l-2.28125 -3.375l-1.046875 0l0 3.375l-1.328125 0l0 -8.59375zm2.984375 4.015625q0.625 0 1.046875 -0.390625q0.421875 -0.40625 0.421875 -1.0q0 -0.5625 -0.390625 -0.96875q-0.390625 -0.421875 -1.03125 -0.421875l-1.703125 0l0 2.78125l1.65625 0z" fill-rule="nonzero"/><path fill="#000000" fill-opacity="0.0" d="m196.8 283.2l95.999985 0l0 28.409424l-95.999985 0z" fill-rule="evenodd"/><path fill="#434343" d="m221.31894 303.5147q-1.25 0 -2.296875 -0.703125q-1.046875 -0.71875 -1.453125 -2.09375l1.609375 -0.65625q0.234375 0.859375 0.78125 1.328125q0.546875 0.46875 1.359375 0.46875q0.8125 0 1.40625 -0.5q0.59375 -0.5 0.59375 -1.265625q0 -0.765625 -0.625 -1.25q-0.609375 -0.5 -1.5625 -0.5l-0.9375 0l0 -1.59375l0.859375 0q0.796875 0 1.328125 -0.421875q0.546875 -0.421875 0.546875 -1.1875q0 -0.65625 -0.484375 -1.0625q-0.484375 -0.40625 -1.234375 -0.40625q-0.734375 0 -1.171875 0.390625q-0.4375 0.390625 -0.625 0.96875l-1.578125 -0.65625q0.328125 -0.921875 1.171875 -1.609375q0.859375 -0.703125 2.203125 -0.703125q1.0 0 1.78125 0.390625q0.796875 0.375 1.234375 1.0625q0.453125 0.671875 0.453125 1.515625q0 0.859375 -0.421875 1.46875q-0.421875 0.609375 -1.03125 0.921875l0 0.078125q0.8125 0.34375 1.3125 1.03125q0.515625 0.6875 0.515625 1.640625q0 0.96875 -0.484375 1.734375q-0.484375 0.75 -1.34375 1.1875q-0.84375 0.421875 -1.90625 0.421875zm9.722641 0q-1.34375 0 -2.359375 -0.75q-1.015625 -0.75 -1.578125 -2.046875q-0.546875 -1.3125 -0.546875 -2.921875q0 -1.625 0.546875 -2.921875q0.5625 -1.3125 1.578125 -2.0625q1.015625 -0.75 2.359375 -0.75q1.34375 0 2.359375 0.75q1.03125 0.75 1.578125 2.0625q0.5625 1.296875 0.5625 2.921875q0 1.609375 -0.5625 2.921875q-0.546875 1.296875 -1.578125 2.046875q-1.015625 0.75 -2.359375 0.75zm0 -1.625q0.84375 0 1.46875 -0.53125q0.625 -0.546875 0.953125 -1.46875q0.328125 -0.921875 0.328125 -2.09375q0 -1.171875 -0.328125 -2.109375q-0.328125 -0.9375 -0.953125 -1.453125q-0.625 -0.53125 -1.46875 -0.53125q-0.828125 0 -1.453125 0.53125q-0.609375 0.515625 -0.9375 1.453125q-0.328125 0.9375 -0.328125 2.109375q0 1.171875 0.328125 2.09375q0.328125 0.921875 0.9375 1.46875q0.625 0.53125 1.453125 0.53125zm10.560028 1.625q-1.34375 0 -2.359375 -0.75q-1.015625 -0.75 -1.578125 -2.046875q-0.546875 -1.3125 -0.546875 -2.921875q0 -1.625 0.546875 -2.921875q0.5625 -1.3125 1.578125 -2.0625q1.015625 -0.75 2.359375 -0.75q1.34375 0 2.359375 0.75q1.03125 0.75 1.578125 2.0625q0.5625 1.296875 0.5625 2.921875q0 1.609375 -0.5625 2.921875q-0.546875 1.296875 -1.578125 2.046875q-1.015625 0.75 -2.359375 0.75zm0 -1.625q0.84375 0 1.46875 -0.53125q0.625 -0.546875 0.953125 -1.46875q0.328125 -0.921875 0.328125 -2.09375q0 -1.171875 -0.328125 -2.109375q-0.328125 -0.9375 -0.953125 -1.453125q-0.625 -0.53125 -1.46875 -0.53125q-0.828125 0 -1.453125 0.53125q-0.609375 0.515625 -0.9375 1.453125q-0.328125 0.9375 -0.328125 2.109375q0 1.171875 0.328125 2.09375q0.328125 0.921875 0.9375 1.46875q0.625 0.53125 1.453125 0.53125zm5.294403 1.375l0 0zm4.743637 -8.15625l1.625 0l0 1.109375l0.09375 0q0.375 -0.59375 1.046875 -0.984375q0.671875 -0.390625 1.46875 -0.390625q0.875 0 1.515625 0.421875q0.65625 0.421875 0.953125 1.109375q0.421875 -0.6875 1.109375 -1.109375q0.703125 -0.421875 1.65625 -0.421875q1.40625 0 2.125 0.859375q0.71875 0.859375 0.71875 2.328125l0 5.234375l-1.71875 0l0 -4.9375q0 -1.890625 -1.59375 -1.890625q-0.875 0 -1.4375 0.703125q-0.546875 0.703125 -0.546875 1.75l0 4.375l-1.71875 0l0 -4.9375q0 -1.890625 -1.640625 -1.890625q-0.84375 0 -1.390625 0.71875q-0.546875 0.703125 -0.546875 1.75l0 4.359375l-1.71875 0l0 -8.15625zm17.176758 8.40625q-1.390625 0 -2.296875 -0.59375q-0.90625 -0.609375 -1.265625 -1.59375l1.546875 -0.671875q0.28125 0.65625 0.8125 1.0q0.53125 0.34375 1.203125 0.34375q0.6875 0 1.140625 -0.25q0.46875 -0.25 0.46875 -0.734375q0 -0.453125 -0.390625 -0.71875q-0.390625 -0.265625 -1.21875 -0.453125l-0.96875 -0.21875q-0.984375 -0.25 -1.625 -0.859375q-0.640625 -0.609375 -0.640625 -1.53125q0 -0.703125 0.421875 -1.25q0.421875 -0.546875 1.140625 -0.84375q0.71875 -0.296875 1.5625 -0.296875q1.15625 0 2.0 0.453125q0.859375 0.453125 1.25 1.3125l-1.5 0.671875q-0.484375 -0.96875 -1.734375 -0.96875q-0.609375 0 -1.015625 0.25q-0.40625 0.25 -0.40625 0.640625q0 0.71875 1.25 1.03125l1.171875 0.296875q1.203125 0.296875 1.8125 0.90625q0.625 0.609375 0.625 1.515625q0 0.765625 -0.4375 1.34375q-0.4375 0.578125 -1.21875 0.90625q-0.765625 0.3125 -1.6875 0.3125z" fill-rule="nonzero"/><path fill="#000000" fill-opacity="0.0" d="m91.2 283.59363l96.0 0l0 28.409424l-96.0 0z" fill-rule="evenodd"/><path fill="#434343" d="m115.89456 295.03336l-1.796875 1.28125l-0.875 -1.328125l3.171875 -2.265625l1.234375 0l0 10.9375l-1.734375 0l0 -8.625zm8.387009 8.875q-1.34375 0 -2.359375 -0.75q-1.015625 -0.75 -1.578125 -2.046875q-0.546875 -1.3125 -0.546875 -2.921875q0 -1.625 0.546875 -2.921875q0.5625 -1.3125 1.578125 -2.0625q1.015625 -0.75 2.359375 -0.75q1.34375 0 2.359375 0.75q1.03125 0.75 1.578125 2.0625q0.5625 1.296875 0.5625 2.921875q0 1.609375 -0.5625 2.921875q-0.546875 1.296875 -1.578125 2.046875q-1.015625 0.75 -2.359375 0.75zm0 -1.625q0.84375 0 1.46875 -0.53125q0.625 -0.546875 0.953125 -1.46875q0.328125 -0.921875 0.328125 -2.09375q0 -1.171875 -0.328125 -2.109375q-0.328125 -0.9375 -0.953125 -1.453125q-0.625 -0.53125 -1.46875 -0.53125q-0.828125 0 -1.453125 0.53125q-0.609375 0.515625 -0.9375 1.453125q-0.328125 0.9375 -0.328125 2.109375q0 1.171875 0.328125 2.09375q0.328125 0.921875 0.9375 1.46875q0.625 0.53125 1.453125 0.53125zm10.560028 1.625q-1.34375 0 -2.359375 -0.75q-1.015625 -0.75 -1.578125 -2.046875q-0.546875 -1.3125 -0.546875 -2.921875q0 -1.625 0.546875 -2.921875q0.5625 -1.3125 1.578125 -2.0625q1.015625 -0.75 2.359375 -0.75q1.34375 0 2.359375 0.75q1.03125 0.75 1.578125 2.0625q0.5625 1.296875 0.5625 2.921875q0 1.609375 -0.5625 2.921875q-0.546875 1.296875 -1.578125 2.046875q-1.015625 0.75 -2.359375 0.75zm0 -1.625q0.84375 0 1.46875 -0.53125q0.625 -0.546875 0.953125 -1.46875q0.328125 -0.921875 0.328125 -2.09375q0 -1.171875 -0.328125 -2.109375q-0.328125 -0.9375 -0.953125 -1.453125q-0.625 -0.53125 -1.46875 -0.53125q-0.828125 0 -1.453125 0.53125q-0.609375 0.515625 -0.9375 1.453125q-0.328125 0.9375 -0.328125 2.109375q0 1.171875 0.328125 2.09375q0.328125 0.921875 0.9375 1.46875q0.625 0.53125 1.453125 0.53125zm5.294403 1.375l0 0zm4.743637 -8.15625l1.625 0l0 1.109375l0.09375 0q0.375 -0.59375 1.046875 -0.984375q0.671875 -0.390625 1.46875 -0.390625q0.875 0 1.515625 0.421875q0.65625 0.421875 0.953125 1.109375q0.421875 -0.6875 1.109375 -1.109375q0.703125 -0.421875 1.65625 -0.421875q1.40625 0 2.125 0.859375q0.71875 0.859375 0.71875 2.328125l0 5.234375l-1.71875 0l0 -4.9375q0 -1.890625 -1.59375 -1.890625q-0.875 0 -1.4375 0.703125q-0.546875 0.703125 -0.546875 1.75l0 4.375l-1.71875 0l0 -4.9375q0 -1.890625 -1.640625 -1.890625q-0.84375 0 -1.390625 0.71875q-0.546875 0.703125 -0.546875 1.75l0 4.359375l-1.71875 0l0 -8.15625zm17.176773 8.40625q-1.390625 0 -2.296875 -0.59375q-0.90625 -0.609375 -1.265625 -1.59375l1.546875 -0.671875q0.28125 0.65625 0.8125 1.0q0.53125 0.34375 1.203125 0.34375q0.6875 0 1.140625 -0.25q0.46875 -0.25 0.46875 -0.734375q0 -0.453125 -0.390625 -0.71875q-0.390625 -0.265625 -1.21875 -0.453125l-0.96875 -0.21875q-0.984375 -0.25 -1.625 -0.859375q-0.640625 -0.609375 -0.640625 -1.53125q0 -0.703125 0.421875 -1.25q0.421875 -0.546875 1.140625 -0.84375q0.71875 -0.296875 1.5625 -0.296875q1.15625 0 2.0 0.453125q0.859375 0.453125 1.25 1.3125l-1.5 0.671875q-0.484375 -0.96875 -1.734375 -0.96875q-0.609375 0 -1.015625 0.25q-0.40625 0.25 -0.40625 0.640625q0 0.71875 1.25 1.03125l1.171875 0.296875q1.203125 0.296875 1.8125 0.90625q0.625 0.609375 0.625 1.515625q0 0.765625 -0.4375 1.34375q-0.4375 0.578125 -1.21875 0.90625q-0.765625 0.3125 -1.6875 0.3125z" fill-rule="nonzero"/><path fill="#000000" fill-opacity="0.0" d="m139.2 285.0754l0 -28.566925" fill-rule="evenodd"/><path stroke="#434343" stroke-width="2.0" stroke-linejoin="round" stroke-linecap="butt" d="m139.2 285.0754l0 -20.986938" fill-rule="evenodd"/><path fill="#434343" stroke="#434343" stroke-width="2.0" stroke-linecap="butt" d="m139.2 257.50848c1.8170166 0 3.2899933 1.4729614 3.2899933 3.289978c0 1.8170166 -1.4729767 3.2900085 -3.2899933 3.2900085c-1.8170166 0 -3.2899933 -1.472992 -3.2899933 -3.2900085c0 -1.8170166 1.4729767 -3.289978 3.2899933 -3.289978z" fill-rule="nonzero"/><path fill="#000000" fill-opacity="0.0" d="m48.00492 158.4l288.0 0l0 28.787415l-288.0 0z" fill-rule="evenodd"/><path fill="#666666" d="m121.34873 165.6812l8.281258 0l0 1.609375l-6.5781326 0l0 4.90625l5.9375076 0l0 1.59375l-5.9375076 0l0 6.203125l-1.703125 0l0 -14.3125zm11.091881 2.234375q-0.5 0 -0.859375 -0.359375q-0.359375 -0.359375 -0.359375 -0.859375q0 -0.515625 0.359375 -0.859375q0.359375 -0.359375 0.859375 -0.359375q0.515625 0 0.859375 0.359375q0.359375 0.34375 0.359375 0.859375q0 0.5 -0.359375 0.859375q-0.34375 0.359375 -0.859375 0.359375zm-0.84375 1.875l1.703125 0l0 10.203125l-1.703125 0l0 -10.203125zm4.363739 0l1.609375 0l0 1.640625l0.078125 0q0.3125 -0.84375 1.171875 -1.390625q0.859375 -0.546875 1.796875 -0.546875q0.703125 0 1.203125 0.203125l0 1.84375q-0.640625 -0.328125 -1.4375 -0.328125q-0.75 0 -1.375 0.421875q-0.609375 0.421875 -0.984375 1.140625q-0.375 0.703125 -0.375 1.515625l0 5.703125l-1.6875 0l0 -10.203125zm10.646881 10.515625q-1.625 0 -2.734375 -0.765625q-1.09375 -0.765625 -1.5625 -1.96875l1.53125 -0.671875q0.375 0.90625 1.125 1.40625q0.75 0.5 1.640625 0.5q0.96875 0 1.640625 -0.375q0.6875 -0.390625 0.6875 -1.125q0 -0.625 -0.546875 -1.015625q-0.53125 -0.390625 -1.6875 -0.671875l-1.25 -0.328125q-1.21875 -0.296875 -2.0 -1.015625q-0.78125 -0.71875 -0.78125 -1.859375q0 -0.875 0.53125 -1.546875q0.53125 -0.671875 1.40625 -1.03125q0.890625 -0.359375 1.90625 -0.359375q1.34375 0 2.390625 0.578125q1.046875 0.578125 1.484375 1.625l-1.46875 0.671875q-0.6875 -1.359375 -2.421875 -1.359375q-0.84375 0 -1.484375 0.390625q-0.625 0.390625 -0.625 0.984375q0 0.5625 0.4375 0.921875q0.453125 0.34375 1.328125 0.5625l1.484375 0.375q1.5 0.390625 2.25 1.140625q0.765625 0.75 0.765625 1.828125q0 0.9375 -0.546875 1.65625q-0.53125 0.703125 -1.453125 1.078125q-0.921875 0.375 -2.046875 0.375zm9.734985 -0.15625q-0.625 0 -1.15625 -0.1875q-0.53125 -0.203125 -0.890625 -0.546875q-0.796875 -0.765625 -0.796875 -2.109375l0 -5.96875l-1.78125 0l0 -1.546875l1.78125 0l0 -2.875l1.703125 0l0 2.875l2.5 0l0 1.546875l-2.5 0l0 5.5625q0 0.828125 0.3125 1.234375q0.375 0.4375 1.09375 0.4375q0.625 0 1.125 -0.34375l0 1.671875q-0.296875 0.140625 -0.609375 0.1875q-0.3125 0.0625 -0.78125 0.0625zm2.132492 -0.15625l0 0zm6.2337494 -14.3125l1.703125 0l0 14.3125l-1.703125 0l0 -14.3125zm4.571869 4.109375l1.609375 0l0 1.5l0.078125 0q0.421875 -0.75 1.34375 -1.28125q0.921875 -0.53125 1.96875 -0.53125q1.828125 0 2.796875 1.078125q0.984375 1.0625 0.984375 2.890625l0 6.546875l-1.703125 0l0 -6.28125q0 -1.421875 -0.6875 -2.0625q-0.671875 -0.640625 -1.859375 -0.640625q-0.8125 0 -1.46875 0.46875q-0.640625 0.453125 -1.015625 1.203125q-0.359375 0.75 -0.359375 1.578125l0 5.734375l-1.6875 0l0 -10.203125zm11.141861 0l1.609375 0l0 1.515625l0.078125 0q0.46875 -0.765625 1.390625 -1.296875q0.9375 -0.53125 2.09375 -0.53125q1.375 0 2.484375 0.703125q1.109375 0.6875 1.75 1.9375q0.640625 1.234375 0.640625 2.78125q0 1.546875 -0.640625 2.78125q-0.640625 1.234375 -1.75 1.9375q-1.109375 0.6875 -2.484375 0.6875q-1.15625 0 -2.09375 -0.515625q-0.921875 -0.53125 -1.390625 -1.296875l-0.078125 0l0.078125 1.40625l0 4.40625l-1.6875 0l0 -14.515625zm5.0 8.984375q0.875 0 1.65625 -0.484375q0.78125 -0.484375 1.234375 -1.359375q0.46875 -0.875 0.46875 -2.03125q0 -1.171875 -0.46875 -2.046875q-0.453125 -0.875 -1.234375 -1.359375q-0.78125 -0.484375 -1.65625 -0.484375q-0.90625 0 -1.6875 0.484375q-0.765625 0.484375 -1.234375 1.359375q-0.46875 0.875 -0.46875 2.046875q0 1.15625 0.46875 2.03125q0.46875 0.875 1.234375 1.359375q0.78125 0.484375 1.6875 0.484375zm10.62561 1.53125q-1.828125 0 -2.796875 -1.078125q-0.96875 -1.078125 -0.96875 -3.015625l0 -6.421875l1.6875 0l0 6.15625q0 1.46875 0.65625 2.15625q0.671875 0.671875 1.78125 0.671875q0.875 0 1.53125 -0.453125q0.671875 -0.46875 1.046875 -1.203125q0.375 -0.75 0.375 -1.5625l0 -5.765625l1.6875 0l0 10.203125l-1.609375 0l0 -1.484375l-0.078125 0q-0.421875 0.765625 -1.34375 1.28125q-0.921875 0.515625 -1.96875 0.515625zm11.554367 -0.15625q-0.625 0 -1.15625 -0.1875q-0.53125 -0.203125 -0.890625 -0.546875q-0.796875 -0.765625 -0.796875 -2.109375l0 -5.96875l-1.78125 0l0 -1.546875l1.78125 0l0 -2.875l1.703125 0l0 2.875l2.5 0l0 1.546875l-2.5 0l0 5.5625q0 0.828125 0.3125 1.234375q0.375 0.4375 1.09375 0.4375q0.625 0 1.125 -0.34375l0 1.671875q-0.296875 0.140625 -0.609375 0.1875q-0.3125 0.0625 -0.78125 0.0625zm2.132492 -0.15625l0 0zm6.2337494 -14.3125l4.328125 0q2.203125 0 3.84375 0.90625q1.640625 0.90625 2.515625 2.53125q0.875 1.609375 0.875 3.71875q0 2.09375 -0.875 3.71875q-0.875 1.625 -2.515625 2.53125q-1.640625 0.90625 -3.84375 0.90625l-4.328125 0l0 -14.3125zm4.328125 12.6875q2.53125 0 4.015625 -1.453125q1.5 -1.46875 1.5 -4.078125q0 -2.625 -1.5 -4.078125q-1.484375 -1.46875 -4.015625 -1.46875l-2.625 0l0 11.078125l2.625 0zm13.634979 1.9375q-1.453125 0 -2.625 -0.6875q-1.15625 -0.703125 -1.8125 -1.9375q-0.640625 -1.234375 -0.640625 -2.765625q0 -1.46875 0.609375 -2.71875q0.609375 -1.25 1.734375 -1.984375q1.140625 -0.734375 2.59375 -0.734375q1.5 0 2.59375 0.671875q1.109375 0.65625 1.703125 1.84375q0.59375 1.1875 0.59375 2.703125q0 0.234375 -0.046875 0.515625l-8.078125 0q0.0625 1.15625 0.5625 1.96875q0.5 0.796875 1.265625 1.203125q0.765625 0.390625 1.609375 0.390625q2.0 0 3.015625 -1.84375l1.4375 0.703125q-0.625 1.21875 -1.765625 1.953125q-1.140625 0.71875 -2.75 0.71875zm2.9375 -6.5q-0.03125 -0.625 -0.359375 -1.265625q-0.3125 -0.640625 -1.0 -1.078125q-0.671875 -0.453125 -1.71875 -0.453125q-1.203125 0 -2.046875 0.78125q-0.828125 0.765625 -1.09375 2.015625l6.21875 0zm3.7912445 -8.125l1.6875 0l0 14.3125l-1.6875 0l0 -14.3125zm7.369995 14.625q-1.109375 0 -2.0 -0.4375q-0.875 -0.4375 -1.359375 -1.203125q-0.46875 -0.765625 -0.46875 -1.75q0 -1.625 1.21875 -2.53125q1.21875 -0.90625 3.078125 -0.90625q0.921875 0 1.703125 0.203125q0.796875 0.1875 1.21875 0.453125l0 -0.625q0 -1.140625 -0.8125 -1.828125q-0.796875 -0.6875 -2.015625 -0.6875q-0.84375 0 -1.578125 0.375q-0.71875 0.359375 -1.140625 1.03125l-1.28125 -0.96875q0.609375 -0.921875 1.65625 -1.4375q1.0625 -0.515625 2.34375 -0.515625q2.078125 0 3.25 1.09375q1.1875 1.078125 1.1875 2.96875l0 6.453125l-1.609375 0l0 -1.453125l-0.09375 0q-0.4375 0.734375 -1.3125 1.25q-0.875 0.515625 -1.984375 0.515625zm0.171875 -1.5q0.859375 0 1.59375 -0.4375q0.734375 -0.4375 1.171875 -1.171875q0.453125 -0.75 0.453125 -1.625q-0.484375 -0.3125 -1.1875 -0.515625q-0.703125 -0.203125 -1.484375 -0.203125q-1.390625 0 -2.109375 0.578125q-0.703125 0.578125 -0.703125 1.5q0 0.84375 0.640625 1.359375q0.640625 0.515625 1.625 0.515625zm10.107498 0.546875l-4.21875 -9.5625l1.84375 0l3.203125 7.578125l0.03125 0l3.078125 -7.578125l1.84375 0l-6.296875 14.515625l-1.765625 0l2.28125 -4.953125z" fill-rule="nonzero"/><path fill="#000000" fill-opacity="0.0" d="m244.8 284.57184l0 -28.283447" fill-rule="evenodd"/><path stroke="#434343" stroke-width="2.0" stroke-linejoin="round" stroke-linecap="butt" d="m244.79999 284.57184l0 -20.70346" fill-rule="evenodd"/><path fill="#434343" stroke="#434343" stroke-width="2.0" stroke-linecap="butt" d="m244.79999 257.2884c1.8170166 0 3.2900085 1.472992 3.2900085 3.2900085c0 1.8170166 -1.472992 3.289978 -3.2900085 3.289978c-1.8170166 0 -3.2899933 -1.4729614 -3.2899933 -3.289978c0 -1.8170166 1.4729767 -3.2900085 3.2899933 -3.2900085z" fill-rule="nonzero"/></g></svg>