<svg version="1.1" viewBox="0.0 0.0 768.0 192.0" fill="none" stroke="none" stroke-linecap="square" stroke-miterlimit="10" xmlns:xlink="http://www.w3.org/1999/xlink" xmlns="http://www.w3.org/2000/svg"><clipPath id="p.0"><path d="m0 0l768.0 0l0 192.0l-768.0 0l0 -192.0z" clip-rule="nonzero"/></clipPath><g clip-path="url(#p.0)"><path fill="#000000" fill-opacity="0.0" d="m0 0l768.0 0l0 192.0l-768.0 0z" fill-rule="evenodd"/><path fill="#000000" fill-opacity="0.0" d="m28.8 19.2l259.21262 0l0 115.2126l-259.21262 0z" fill-rule="evenodd"/><path fill="#2979ff" d="m75.273346 42.731922l12.953125 0l0 56.45312l29.09375 0l0 12.28125l-42.046875 0l0 -68.734375zm84.00285 70.265625q-9.984375 0 -18.25 -4.75q-8.25 -4.75 -13.0 -12.953125q-4.75 -8.21875 -4.75 -18.203125q0 -9.984375 4.75 -18.187496q4.75 -8.203125 13.0 -12.953125q8.265625 -4.75 18.25 -4.75q15.546875 0 25.71875 11.21875l-9.109375 8.84375q-6.625 -7.78125 -16.515625 -7.78125q-6.4375 0 -11.71875 2.9375q-5.28125 2.921875 -8.3125 8.296871q-3.015625 5.375 -3.015625 12.375q0 7.015625 3.015625 12.390625q3.03125 5.375 8.3125 8.3125q5.28125 2.921875 11.71875 2.921875q10.84375 0 18.140625 -9.03125l9.21875 8.734375q-5.09375 6.15625 -12.0625 9.375q-6.953125 3.203125 -15.390625 3.203125zm39.453094 -70.265625l24.1875 0q6.53125 0 11.90625 2.734375q5.375 2.734375 8.4375 7.6875q3.078125 4.9375 3.078125 11.265621q0 6.34375 -3.078125 11.34375q-3.0625 4.984375 -8.4375 7.71875q-5.375 2.734375 -11.90625 2.734375l-11.234375 0l0 25.25l-12.953125 0l0 -68.734375zm24.578125 31.203121q4.796875 0 7.53125 -2.78125q2.734375 -2.796875 2.734375 -6.734375q0 -3.9218712 -2.734375 -6.656246q-2.734375 -2.75 -7.53125 -2.75l-11.625 0l0 18.921871l11.625 0z" fill-rule="nonzero"/><path fill="#0cce6b" d="m360.0 57.6l115.212585 0l0 43.2126l-115.212585 0z" fill-rule="evenodd"/><path fill="#000000" d="m401.9218 84.22505q-1.359375 0 -2.5 -0.65625q-1.140625 -0.65625 -1.828125 -1.796875q-0.671875 -1.140625 -0.671875 -2.53125q0 -1.40625 0.671875 -2.546875q0.6875 -1.140625 1.828125 -1.78125q1.140625 -0.65625 2.5 -0.65625q1.09375 0 2.015625 0.390625q0.921875 0.375 1.5625 1.0625l-1.015625 1.015625q-0.96875 -1.09375 -2.5625 -1.09375q-0.921875 0 -1.75 0.453125q-0.8125 0.4375 -1.296875 1.265625q-0.46875 0.828125 -0.46875 1.890625q0 1.0625 0.484375 1.890625q0.484375 0.8125 1.296875 1.265625q0.8125 0.4375 1.75 0.4375q1.515625 0 2.453125 -0.953125q0.3125 -0.28125 0.515625 -0.734375q0.203125 -0.453125 0.28125 -1.0l-3.28125 0l0 -1.296875l4.640625 0q0.078125 0.453125 0.078125 0.765625q0 0.90625 -0.28125 1.734375q-0.28125 0.8125 -0.890625 1.4375q-0.640625 0.703125 -1.53125 1.078125q-0.890625 0.359375 -2.0 0.359375zm10.868805 0q-1.390625 0 -2.53125 -0.671875q-1.125 -0.671875 -1.78125 -1.8125q-0.640625 -1.140625 -0.640625 -2.5q0 -1.375 0.640625 -2.515625q0.65625 -1.140625 1.78125 -1.796875q1.140625 -0.671875 2.53125 -0.671875q1.390625 0 2.515625 0.671875q1.125 0.65625 1.765625 1.796875q0.640625 1.140625 0.640625 2.515625q0 1.359375 -0.640625 2.5q-0.640625 1.140625 -1.765625 1.8125q-1.125 0.671875 -2.515625 0.671875zm0 -1.390625q0.953125 0 1.75 -0.453125q0.796875 -0.46875 1.25 -1.28125q0.46875 -0.828125 0.46875 -1.859375q0 -1.046875 -0.46875 -1.859375q-0.453125 -0.828125 -1.25 -1.28125q-0.796875 -0.46875 -1.75 -0.46875q-0.96875 0 -1.765625 0.46875q-0.78125 0.453125 -1.25 1.28125q-0.453125 0.8125 -0.453125 1.859375q0 1.03125 0.453125 1.859375q0.46875 0.8125 1.25 1.28125q0.796875 0.453125 1.765625 0.453125zm10.955627 1.390625q-1.390625 0 -2.53125 -0.671875q-1.125 -0.671875 -1.78125 -1.8125q-0.640625 -1.140625 -0.640625 -2.5q0 -1.375 0.640625 -2.515625q0.65625 -1.140625 1.78125 -1.796875q1.140625 -0.671875 2.53125 -0.671875q1.390625 0 2.515625 0.671875q1.125 0.65625 1.765625 1.796875q0.640625 1.140625 0.640625 2.515625q0 1.359375 -0.640625 2.5q-0.640625 1.140625 -1.765625 1.8125q-1.125 0.671875 -2.515625 0.671875zm0 -1.390625q0.953125 0 1.75 -0.453125q0.796875 -0.46875 1.25 -1.28125q0.46875 -0.828125 0.46875 -1.859375q0 -1.046875 -0.46875 -1.859375q-0.453125 -0.828125 -1.25 -1.28125q-0.796875 -0.46875 -1.75 -0.46875q-0.96875 0 -1.765625 0.46875q-0.78125 0.453125 -1.25 1.28125q-0.453125 0.8125 -0.453125 1.859375q0 1.03125 0.453125 1.859375q0.46875 0.8125 1.25 1.28125q0.796875 0.453125 1.765625 0.453125zm6.6202087 -8.375l3.046875 0q1.484375 0 2.578125 0.609375q1.109375 0.59375 1.703125 1.6875q0.59375 1.078125 0.59375 2.484375q0 1.390625 -0.59375 2.484375q-0.59375 1.078125 -1.703125 1.6875q-1.09375 0.59375 -2.578125 0.59375l-3.046875 0l0 -9.546875zm3.015625 8.15625q1.625 0 2.515625 -0.890625q0.90625 -0.90625 0.90625 -2.484375q0 -1.59375 -0.90625 -2.484375q-0.890625 -0.90625 -2.515625 -0.90625l-1.546875 0l0 6.765625l1.546875 0z" fill-rule="nonzero"/><path fill="#ffa400" d="m475.2 57.600365l124.787415 0l0 43.2126l-124.787415 0z" fill-rule="evenodd"/><path fill="#000000" d="m517.5868 66.459785l1.734375 0l4.3125 7.015625l0.078125 0l-0.078125 -1.84375l0 -5.171875l1.453125 0l0 9.546875l-1.515625 0l-4.53125 -7.375l-0.078125 0l0.078125 1.84375l0 5.53125l-1.453125 0l0 -9.546875zm9.662842 0l5.78125 0l0 1.390625l-4.3125 0l0 2.6875l3.890625 0l0 1.390625l-3.890625 0l0 2.6875l4.3125 0l0 1.390625l-5.78125 0l0 -9.546875zm7.623657 0l5.78125 0l0 1.390625l-4.3125 0l0 2.6875l3.890625 0l0 1.390625l-3.890625 0l0 2.6875l4.3125 0l0 1.390625l-5.78125 0l0 -9.546875zm7.623657 0l3.046875 0q1.484375 0 2.578125 0.609375q1.109375 0.59375 1.703125 1.6875q0.59375 1.078125 0.59375 2.484375q0 1.390625 -0.59375 2.484375q-0.59375 1.078125 -1.703125 1.6875q-1.09375 0.59375 -2.578125 0.59375l-3.046875 0l0 -9.546875zm3.015625 8.15625q1.625 0 2.515625 -0.890625q0.90625 -0.90625 0.90625 -2.484375q0 -1.59375 -0.90625 -2.484375q-0.890625 -0.90625 -2.515625 -0.90625l-1.546875 0l0 6.765625l1.546875 0zm9.361877 1.609375q-1.1875 0 -2.140625 -0.6875q-0.953125 -0.703125 -1.3125 -1.953125l1.375 -0.5625q0.21875 0.796875 0.765625 1.3125q0.546875 0.5 1.3125 0.5q0.71875 0 1.21875 -0.375q0.5 -0.375 0.5 -1.03125q0 -0.59375 -0.4375 -0.984375q-0.4375 -0.390625 -1.515625 -0.765625l-0.59375 -0.21875q-0.984375 -0.34375 -1.625 -0.953125q-0.640625 -0.625 -0.640625 -1.65625q0 -0.703125 0.375 -1.296875q0.375 -0.609375 1.0625 -0.953125q0.6875 -0.34375 1.5625 -0.34375q1.234375 0 1.96875 0.609375q0.75 0.59375 1.015625 1.359375l-1.3125 0.5625q-0.140625 -0.484375 -0.5625 -0.828125q-0.421875 -0.34375 -1.109375 -0.34375q-0.640625 0 -1.09375 0.34375q-0.453125 0.34375 -0.453125 0.875q0 0.5 0.40625 0.828125q0.40625 0.3125 1.25 0.609375l0.609375 0.21875q1.234375 0.421875 1.890625 1.109375q0.671875 0.671875 0.671875 1.8125q0 0.921875 -0.46875 1.5625q-0.46875 0.625 -1.21875 0.9375q-0.734375 0.3125 -1.5 0.3125z" fill-rule="nonzero"/><path fill="#000000" d="m491.15063 82.459785l1.46875 0l0 9.546875l-1.46875 0l0 -9.546875zm3.611908 0l1.96875 0l2.796875 7.265625l0.078125 0l2.796875 -7.265625l1.96875 0l0 9.546875l-1.4375 0l0 -5.390625l0.078125 -1.703125l-0.078125 0l-2.78125 7.09375l-1.171875 0l-2.78125 -7.09375l-0.078125 0l0.078125 1.703125l0 5.390625l-1.4375 0l0 -9.546875zm11.768707 0l3.28125 0q0.859375 0 1.5625 0.375q0.71875 0.375 1.140625 1.046875q0.421875 0.65625 0.421875 1.5q0 0.84375 -0.421875 1.515625q-0.421875 0.65625 -1.140625 1.03125q-0.703125 0.375 -1.5625 0.375l-1.8125 0l0 3.703125l-1.46875 0l0 -9.546875zm3.3125 4.453125q0.734375 0 1.1875 -0.453125q0.453125 -0.46875 0.453125 -1.078125q0 -0.609375 -0.453125 -1.0625q-0.453125 -0.46875 -1.1875 -0.46875l-1.84375 0l0 3.0625l1.84375 0zm4.5910645 -4.453125l3.34375 0q0.875 0 1.5625 0.375q0.703125 0.375 1.109375 1.046875q0.40625 0.65625 0.40625 1.5q0 0.953125 -0.625 1.703125q-0.609375 0.734375 -1.546875 0.984375l-0.015625 0.078125l2.625 3.78125l0 0.078125l-1.6875 0l-2.546875 -3.75l-1.15625 0l0 3.75l-1.46875 0l0 -9.546875zm3.3125 4.453125q0.6875 0 1.15625 -0.4375q0.484375 -0.4375 0.484375 -1.109375q0 -0.609375 -0.4375 -1.0625q-0.4375 -0.46875 -1.15625 -0.46875l-1.890625 0l0 3.078125l1.84375 0zm9.286377 5.3125q-1.390625 0 -2.53125 -0.671875q-1.125 -0.671875 -1.78125 -1.8125q-0.640625 -1.140625 -0.640625 -2.5q0 -1.375 0.640625 -2.515625q0.65625 -1.140625 1.78125 -1.796875q1.140625 -0.671875 2.53125 -0.671875q1.390625 0 2.515625 0.671875q1.125 0.65625 1.765625 1.796875q0.640625 1.140625 0.640625 2.515625q0 1.359375 -0.640625 2.5q-0.640625 1.140625 -1.765625 1.8125q-1.125 0.671875 -2.515625 0.671875zm0 -1.390625q0.953125 0 1.75 -0.453125q0.796875 -0.46875 1.25 -1.28125q0.46875 -0.828125 0.46875 -1.859375q0 -1.046875 -0.46875 -1.859375q-0.453125 -0.828125 -1.25 -1.28125q-0.796875 -0.46875 -1.75 -0.46875q-0.96875 0 -1.765625 0.46875q-0.78125 0.453125 -1.25 1.28125q-0.453125 0.8125 -0.453125 1.859375q0 1.03125 0.453125 1.859375q0.46875 0.8125 1.25 1.28125q0.796875 0.453125 1.765625 0.453125zm5.32959 -8.375l1.59375 0l2.15625 6.34375l0.34375 1.078125l0.078125 0l0.359375 -1.078125l2.25 -6.34375l1.59375 0l-3.46875 9.546875l-1.515625 0l-3.390625 -9.546875zm9.647156 0l5.78125 0l0 1.390625l-4.3125 0l0 2.6875l3.890625 0l0 1.390625l-3.890625 0l0 2.6875l4.3125 0l0 1.390625l-5.78125 0l0 -9.546875zm7.623657 0l1.96875 0l2.796875 7.265625l0.078125 0l2.796875 -7.265625l1.96875 0l0 9.546875l-1.4375 0l0 -5.390625l0.078125 -1.703125l-0.078125 0l-2.78125 7.09375l-1.171875 0l-2.78125 -7.09375l-0.078125 0l0.078125 1.703125l0 5.390625l-1.4375 0l0 -9.546875zm11.768677 0l5.78125 0l0 1.390625l-4.3125 0l0 2.6875l3.890625 0l0 1.390625l-3.890625 0l0 2.6875l4.3125 0l0 1.390625l-5.78125 0l0 -9.546875zm7.623657 0l1.734375 0l4.3125 7.015625l0.078125 0l-0.078125 -1.84375l0 -5.171875l1.453125 0l0 9.546875l-1.515625 0l-4.53125 -7.375l-0.078125 0l0.078125 1.84375l0 5.53125l-1.453125 0l0 -9.546875zm11.615967 1.390625l-2.6875 0l0 -1.390625l6.8125 0l0 1.390625l-2.671875 0l0 8.15625l-1.453125 0l0 -8.15625z" fill-rule="nonzero"/><path fill="#ff4e42" d="m600.025 57.60126l115.212585 0l0 43.212597l-115.212585 0z" fill-rule="evenodd"/><path fill="#000000" d="m639.73035 74.460686l3.28125 0q0.859375 0 1.5625 0.375q0.71875 0.375 1.140625 1.046875q0.421875 0.65625 0.421875 1.5q0 0.84375 -0.421875 1.515625q-0.421875 0.65625 -1.140625 1.03125q-0.703125 0.375 -1.5625 0.375l-1.8125 0l0 3.703125l-1.46875 0l0 -9.546875zm3.3125 4.453125q0.734375 0 1.1875 -0.453125q0.453125 -0.46875 0.453125 -1.078125q0 -0.609375 -0.453125 -1.0625q-0.453125 -0.46875 -1.1875 -0.46875l-1.84375 0l0 3.0625l1.84375 0zm8.939758 5.3125q-1.390625 0 -2.53125 -0.671875q-1.125 -0.671875 -1.78125 -1.8125q-0.640625 -1.140625 -0.640625 -2.5q0 -1.375 0.640625 -2.515625q0.65625 -1.140625 1.78125 -1.796875q1.140625 -0.671875 2.53125 -0.671875q1.390625 0 2.515625 0.671875q1.125 0.65625 1.765625 1.796875q0.640625 1.140625 0.640625 2.515625q0 1.359375 -0.640625 2.5q-0.640625 1.140625 -1.765625 1.8125q-1.125 0.671875 -2.515625 0.671875zm0 -1.390625q0.953125 0 1.75 -0.453125q0.796875 -0.46875 1.25 -1.28125q0.46875 -0.828125 0.46875 -1.859375q0 -1.046875 -0.46875 -1.859375q-0.453125 -0.828125 -1.25 -1.28125q-0.796875 -0.46875 -1.75 -0.46875q-0.96875 0 -1.765625 0.46875q-0.78125 0.453125 -1.25 1.28125q-0.453125 0.8125 -0.453125 1.859375q0 1.03125 0.453125 1.859375q0.46875 0.8125 1.25 1.28125q0.796875 0.453125 1.765625 0.453125zm10.955627 1.390625q-1.390625 0 -2.53125 -0.671875q-1.125 -0.671875 -1.78125 -1.8125q-0.640625 -1.140625 -0.640625 -2.5q0 -1.375 0.640625 -2.515625q0.65625 -1.140625 1.78125 -1.796875q1.140625 -0.671875 2.53125 -0.671875q1.390625 0 2.515625 0.671875q1.125 0.65625 1.765625 1.796875q0.640625 1.140625 0.640625 2.515625q0 1.359375 -0.640625 2.5q-0.640625 1.140625 -1.765625 1.8125q-1.125 0.671875 -2.515625 0.671875zm0 -1.390625q0.953125 0 1.75 -0.453125q0.796875 -0.46875 1.25 -1.28125q0.46875 -0.828125 0.46875 -1.859375q0 -1.046875 -0.46875 -1.859375q-0.453125 -0.828125 -1.25 -1.28125q-0.796875 -0.46875 -1.75 -0.46875q-0.96875 0 -1.765625 0.46875q-0.78125 0.453125 -1.25 1.28125q-0.453125 0.8125 -0.453125 1.859375q0 1.03125 0.453125 1.859375q0.46875 0.8125 1.25 1.28125q0.796875 0.453125 1.765625 0.453125zm6.6202393 -8.375l3.34375 0q0.875 0 1.5625 0.375q0.703125 0.375 1.109375 1.046875q0.40625 0.65625 0.40625 1.5q0 0.953125 -0.625 1.703125q-0.609375 0.734375 -1.546875 0.984375l-0.015625 0.078125l2.625 3.78125l0 0.078125l-1.6875 0l-2.546875 -3.75l-1.15625 0l0 3.75l-1.46875 0l0 -9.546875zm3.3125 4.453125q0.6875 0 1.15625 -0.4375q0.484375 -0.4375 0.484375 -1.109375q0 -0.609375 -0.4375 -1.0625q-0.4375 -0.46875 -1.15625 -0.46875l-1.890625 0l0 3.078125l1.84375 0z" fill-rule="nonzero"/><path fill="#000000" fill-opacity="0.0" d="m552.0 124.8l96.0 0l0 28.7874l-96.0 0z" fill-rule="evenodd"/><path fill="#434343" d="m576.9277 142.9587l-5.578125 0l0 -1.453125l5.421875 -8.03125l2.015625 0l0 7.75l1.5 0l0 1.734375l-1.5 0l0 2.375l-1.859375 0l0 -2.375zm0 -1.734375l0 -4.984375l-0.109375 0l-3.375 4.984375l3.484375 0zm6.4590454 4.21875q-0.546875 0 -0.9375 -0.375q-0.375 -0.390625 -0.375 -0.9375q0 -0.53125 0.375 -0.90625q0.390625 -0.390625 0.9375 -0.390625q0.5625 0 0.921875 0.375q0.375 0.375 0.375 0.921875q0 0.546875 -0.375 0.9375q-0.359375 0.375 -0.921875 0.375zm7.977417 0.171875q-1.453125 0 -2.5625 -0.8125q-1.09375 -0.828125 -1.703125 -2.234375q-0.59375 -1.40625 -0.59375 -3.15625q0 -1.75 0.59375 -3.15625q0.609375 -1.421875 1.703125 -2.234375q1.109375 -0.8125 2.5625 -0.8125q1.453125 0 2.5625 0.8125q1.109375 0.8125 1.703125 2.234375q0.59375 1.40625 0.59375 3.15625q0 1.75 -0.59375 3.15625q-0.59375 1.40625 -1.703125 2.234375q-1.109375 0.8125 -2.5625 0.8125zm0 -1.765625q0.921875 0 1.59375 -0.578125q0.671875 -0.59375 1.03125 -1.59375q0.359375 -1.0 0.359375 -2.265625q0 -1.265625 -0.359375 -2.28125q-0.359375 -1.015625 -1.03125 -1.578125q-0.671875 -0.578125 -1.59375 -0.578125q-0.90625 0 -1.578125 0.578125q-0.65625 0.5625 -1.015625 1.578125q-0.359375 1.015625 -0.359375 2.28125q0 1.265625 0.359375 2.265625q0.359375 1.0 1.015625 1.59375q0.671875 0.578125 1.578125 0.578125zm5.7333984 1.484375l0 0zm8.349915 0.28125q-1.5 0 -2.484375 -0.65625q-0.984375 -0.671875 -1.375 -1.71875l1.671875 -0.734375q0.3125 0.71875 0.890625 1.09375q0.578125 0.359375 1.296875 0.359375q0.75 0 1.25 -0.265625q0.5 -0.265625 0.5 -0.796875q0 -0.484375 -0.421875 -0.765625q-0.421875 -0.296875 -1.328125 -0.5l-1.0625 -0.25q-1.046875 -0.25 -1.75 -0.90625q-0.6875 -0.671875 -0.6875 -1.671875q0 -0.765625 0.453125 -1.34375q0.46875 -0.59375 1.234375 -0.90625q0.78125 -0.328125 1.6875 -0.328125q1.25 0 2.171875 0.484375q0.9375 0.484375 1.359375 1.421875l-1.625 0.71875q-0.53125 -1.046875 -1.890625 -1.046875q-0.65625 0 -1.09375 0.28125q-0.4375 0.265625 -0.4375 0.6875q0 0.78125 1.34375 1.125l1.28125 0.3125q1.3125 0.328125 1.96875 0.984375q0.671875 0.65625 0.671875 1.625q0 0.828125 -0.484375 1.46875q-0.46875 0.625 -1.3125 0.984375q-0.828125 0.34375 -1.828125 0.34375zm9.372559 0q-1.28125 0 -2.3125 -0.609375q-1.03125 -0.609375 -1.609375 -1.671875q-0.578125 -1.0625 -0.578125 -2.40625q0 -1.265625 0.5625 -2.34375q0.5625 -1.078125 1.5625 -1.71875q1.015625 -0.640625 2.28125 -0.640625q1.328125 0 2.296875 0.578125q0.96875 0.578125 1.484375 1.609375q0.515625 1.015625 0.515625 2.3125q0 0.34375 -0.046875 0.59375l-6.828125 0q0.125 1.265625 0.90625 1.953125q0.78125 0.671875 1.828125 0.671875q0.84375 0 1.453125 -0.390625q0.609375 -0.390625 0.96875 -1.03125l1.546875 0.75q-0.609375 1.09375 -1.625 1.71875q-1.0 0.625 -2.40625 0.625zm2.34375 -5.703125q-0.03125 -0.484375 -0.3125 -0.96875q-0.28125 -0.484375 -0.8125 -0.796875q-0.515625 -0.328125 -1.296875 -0.328125q-0.9375 0 -1.59375 0.578125q-0.640625 0.5625 -0.890625 1.515625l4.90625 0zm7.769043 5.703125q-1.328125 0 -2.375 -0.609375q-1.03125 -0.609375 -1.609375 -1.671875q-0.578125 -1.0625 -0.578125 -2.421875q0 -1.34375 0.578125 -2.40625q0.578125 -1.078125 1.609375 -1.671875q1.046875 -0.609375 2.375 -0.609375q1.453125 0 2.453125 0.65625q1.015625 0.640625 1.46875 1.78125l-1.6875 0.6875q-0.625 -1.421875 -2.28125 -1.421875q-0.71875 0 -1.34375 0.375q-0.609375 0.375 -0.96875 1.0625q-0.34375 0.671875 -0.34375 1.546875q0 0.890625 0.34375 1.5625q0.359375 0.671875 0.96875 1.046875q0.625 0.375 1.34375 0.375q0.84375 0 1.4375 -0.375q0.59375 -0.375 0.921875 -1.078125l1.6875 0.71875q-0.53125 1.125 -1.546875 1.796875q-1.015625 0.65625 -2.453125 0.65625z" fill-rule="nonzero"/><path fill="#000000" fill-opacity="0.0" d="m427.2 124.8l96.0 0l0 28.7874l-96.0 0z" fill-rule="evenodd"/><path fill="#434343" d="m447.9307 143.56807q3.515625 -3.5 4.328125 -4.40625q0.765625 -0.796875 1.046875 -1.296875q0.28125 -0.5 0.28125 -1.171875q0 -0.703125 -0.53125 -1.203125q-0.53125 -0.515625 -1.4375 -0.515625q-0.828125 0 -1.34375 0.484375q-0.5 0.46875 -0.6875 1.109375l-1.6875 -0.703125q0.171875 -0.609375 0.640625 -1.21875q0.484375 -0.609375 1.28125 -1.015625q0.796875 -0.421875 1.84375 -0.421875q1.125 0 1.984375 0.46875q0.875 0.46875 1.34375 1.25q0.484375 0.765625 0.484375 1.703125q0 1.875 -1.890625 3.765625q-0.765625 0.765625 -1.71875 1.71875q-0.96875 0.953125 -1.46875 1.46875l0.015625 0.046875l5.203125 0l0 1.703125l-7.6875 0l0 -1.765625zm10.811981 1.875q-0.546875 0 -0.9375 -0.375q-0.375 -0.390625 -0.375 -0.9375q0 -0.53125 0.375 -0.90625q0.390625 -0.390625 0.9375 -0.390625q0.5625 0 0.921875 0.375q0.375 0.375 0.375 0.921875q0 0.546875 -0.375 0.9375q-0.359375 0.375 -0.921875 0.375zm7.1493225 0.171875q-0.890625 0 -1.734375 -0.359375q-0.84375 -0.359375 -1.46875 -1.078125q-0.625 -0.71875 -0.890625 -1.765625l1.671875 -0.671875q0.25 0.984375 0.859375 1.5625q0.625 0.5625 1.546875 0.5625q0.984375 0 1.625 -0.625q0.65625 -0.640625 0.65625 -1.625q0 -1.0 -0.640625 -1.640625q-0.625 -0.65625 -1.625 -0.65625q-0.578125 0 -1.078125 0.25q-0.484375 0.25 -0.796875 0.6875l-1.84375 -0.8125l0.71875 -5.96875l6.40625 0l0 1.703125l-4.875 0l-0.4375 3.1875l0.09375 0.015625q0.9375 -0.734375 2.171875 -0.734375q1.0 0 1.859375 0.5q0.875 0.5 1.390625 1.40625q0.53125 0.890625 0.53125 2.03125q0 1.15625 -0.546875 2.078125q-0.53125 0.90625 -1.484375 1.4375q-0.9375 0.515625 -2.109375 0.515625zm5.071289 -0.28125l0 0zm8.349915 0.28125q-1.5 0 -2.484375 -0.65625q-0.984375 -0.671875 -1.375 -1.71875l1.671875 -0.734375q0.3125 0.71875 0.890625 1.09375q0.578125 0.359375 1.296875 0.359375q0.75 0 1.25 -0.265625q0.5 -0.265625 0.5 -0.796875q0 -0.484375 -0.421875 -0.765625q-0.421875 -0.296875 -1.328125 -0.5l-1.0625 -0.25q-1.046875 -0.25 -1.75 -0.90625q-0.6875 -0.671875 -0.6875 -1.671875q0 -0.765625 0.453125 -1.34375q0.46875 -0.59375 1.234375 -0.90625q0.78125 -0.328125 1.6875 -0.328125q1.25 0 2.171875 0.484375q0.9375 0.484375 1.359375 1.421875l-1.625 0.71875q-0.53125 -1.046875 -1.890625 -1.046875q-0.65625 0 -1.09375 0.28125q-0.4375 0.265625 -0.4375 0.6875q0 0.78125 1.34375 1.125l1.28125 0.3125q1.3125 0.328125 1.96875 0.984375q0.671875 0.65625 0.671875 1.625q0 0.828125 -0.484375 1.46875q-0.46875 0.625 -1.3125 0.984375q-0.828125 0.34375 -1.828125 0.34375zm9.372589 0q-1.28125 0 -2.3125 -0.609375q-1.03125 -0.609375 -1.609375 -1.671875q-0.578125 -1.0625 -0.578125 -2.40625q0 -1.265625 0.5625 -2.34375q0.5625 -1.078125 1.5625 -1.71875q1.015625 -0.640625 2.28125 -0.640625q1.328125 0 2.296875 0.578125q0.96875 0.578125 1.484375 1.609375q0.515625 1.015625 0.515625 2.3125q0 0.34375 -0.046875 0.59375l-6.828125 0q0.125 1.265625 0.90625 1.953125q0.78125 0.671875 1.828125 0.671875q0.84375 0 1.453125 -0.390625q0.609375 -0.390625 0.96875 -1.03125l1.546875 0.75q-0.609375 1.09375 -1.625 1.71875q-1.0 0.625 -2.40625 0.625zm2.34375 -5.703125q-0.03125 -0.484375 -0.3125 -0.96875q-0.28125 -0.484375 -0.8125 -0.796875q-0.515625 -0.328125 -1.296875 -0.328125q-0.9375 0 -1.59375 0.578125q-0.640625 0.5625 -0.890625 1.515625l4.90625 0zm7.7690125 5.703125q-1.328125 0 -2.375 -0.609375q-1.03125 -0.609375 -1.609375 -1.671875q-0.578125 -1.0625 -0.578125 -2.421875q0 -1.34375 0.578125 -2.40625q0.578125 -1.078125 1.609375 -1.671875q1.046875 -0.609375 2.375 -0.609375q1.453125 0 2.453125 0.65625q1.015625 0.640625 1.46875 1.78125l-1.6875 0.6875q-0.625 -1.421875 -2.28125 -1.421875q-0.71875 0 -1.34375 0.375q-0.609375 0.375 -0.96875 1.0625q-0.34375 0.671875 -0.34375 1.546875q0 0.890625 0.34375 1.5625q0.359375 0.671875 0.96875 1.046875q0.625 0.375 1.34375 0.375q0.84375 0 1.4375 -0.375q0.59375 -0.375 0.921875 -1.078125l1.6875 0.71875q-0.53125 1.125 -1.546875 1.796875q-1.015625 0.65625 -2.453125 0.65625z" fill-rule="nonzero"/><path fill="#000000" fill-opacity="0.0" d="m474.88504 125.7474l0 -28.7874" fill-rule="evenodd"/><path stroke="#434343" stroke-width="2.0" stroke-linejoin="round" stroke-linecap="butt" d="m474.88504 125.747406l0 -21.207397" fill-rule="evenodd"/><path fill="#434343" stroke="#434343" stroke-width="2.0" stroke-linecap="butt" d="m474.88504 97.96001c1.8170166 0 3.2900085 1.4729843 3.2900085 3.290001c0 1.8170166 -1.472992 3.2899933 -3.2900085 3.2899933c-1.8170166 0 -3.289978 -1.4729767 -3.289978 -3.2899933c0 -1.8170166 1.4729614 -3.290001 3.289978 -3.290001z" fill-rule="nonzero"/><path fill="#000000" fill-opacity="0.0" d="m28.8 129.6l268.7874 0l0 38.393692l-268.7874 0z" fill-rule="evenodd"/><path fill="#666666" d="m49.916965 141.01123l1.8125 0l0 13.53125l6.671875 0l0 1.734375l-8.484375 0l0 -15.265625zm13.965439 15.609375q-1.1875 0 -2.125 -0.46875q-0.9375 -0.46875 -1.453125 -1.28125q-0.515625 -0.828125 -0.515625 -1.875q0 -1.734375 1.296875 -2.703125q1.3125 -0.96875 3.2968788 -0.96875q0.984375 0 1.828125 0.21875q0.84375 0.203125 1.28125 0.484375l0 -0.65625q0 -1.21875 -0.859375 -1.953125q-0.84375 -0.734375 -2.140625 -0.734375q-0.9062538 0 -1.6875038 0.390625q-0.765625 0.390625 -1.21875 1.09375l-1.359375 -1.015625q0.640625 -0.984375 1.765625 -1.53125q1.125 -0.5625 2.5000038 -0.5625q2.21875 0 3.46875 1.171875q1.265625 1.15625 1.265625 3.15625l0 6.890625l-1.734375 0l0 -1.5625l-0.078125 0q-0.46875 0.796875 -1.40625 1.359375q-0.9375 0.546875 -2.1250038 0.546875zm0.17187881 -1.609375q0.921875 0 1.703125 -0.46875q0.796875 -0.46875 1.265625 -1.25q0.46875 -0.796875 0.46875 -1.734375q-0.515625 -0.34375 -1.265625 -0.546875q-0.734375 -0.21875 -1.5625 -0.21875q-1.5000038 0 -2.2656288 0.625q-0.75 0.609375 -0.75 1.59375q0 0.890625 0.6875 1.453125q0.6875 0.546875 1.7187538 0.546875zm7.684662 -9.609375l1.734375 0l0 1.75l0.078125 0q0.3125 -0.90625 1.234375 -1.484375q0.921875 -0.59375 1.921875 -0.59375q0.75 0 1.28125 0.21875l0 1.96875q-0.6875 -0.34375 -1.53125 -0.34375q-0.796875 0 -1.453125 0.453125q-0.65625 0.4375 -1.0625 1.203125q-0.390625 0.75 -0.390625 1.625l0 6.078125l-1.8125 0l0 -10.875zm12.245987 15.828125q-1.921875 0 -3.171875 -0.90625q-1.25 -0.890625 -1.671875 -2.15625l1.65625 -0.703125q0.34375 0.953125 1.1875 1.53125q0.84375 0.59375 2.0 0.59375q1.6875 0 2.609375 -0.984375q0.921875 -0.984375 0.921875 -2.78125l0 -1.203125l-0.078125 0q-0.53125 0.828125 -1.5 1.359375q-0.96875 0.515625 -2.21875 0.515625q-1.40625 0 -2.5625 -0.71875q-1.15625 -0.734375 -1.84375 -2.03125q-0.6875 -1.3125 -0.6875 -2.96875q0 -1.640625 0.6875 -2.953125q0.6875 -1.3125 1.84375 -2.03125q1.15625 -0.734375 2.5625 -0.734375q1.25 0 2.21875 0.53125q0.96875 0.515625 1.5 1.359375l0.078125 0l0 -1.546875l1.734375 0l0 10.453125q0 2.625 -1.453125 4.0q-1.453125 1.375 -3.8125 1.375zm0 -6.375q0.984375 0 1.78125 -0.484375q0.796875 -0.5 1.265625 -1.421875q0.484375 -0.921875 0.484375 -2.171875q0 -1.28125 -0.484375 -2.1875q-0.46875 -0.921875 -1.265625 -1.40625q-0.796875 -0.484375 -1.78125 -0.484375q-0.984375 0 -1.796875 0.5q-0.8125 0.484375 -1.296875 1.40625q-0.46875 0.90625 -0.46875 2.171875q0 1.25 0.46875 2.1875q0.484375 0.921875 1.296875 1.40625q0.8125 0.484375 1.796875 0.484375zm12.6887665 1.765625q-1.5625 0 -2.796875 -0.75q-1.234375 -0.75 -1.9375 -2.0625q-0.6875 -1.3125 -0.6875 -2.953125q0 -1.546875 0.640625 -2.875q0.65625 -1.34375 1.859375 -2.125q1.21875 -0.796875 2.765625 -0.796875q1.609375 0 2.78125 0.71875q1.171875 0.703125 1.796875 1.96875q0.625 1.265625 0.625 2.875q0 0.265625 -0.03125 0.5625l-8.625 0q0.0625 1.234375 0.59375 2.09375q0.546875 0.84375 1.359375 1.28125q0.828125 0.421875 1.71875 0.421875q2.125 0 3.21875 -1.96875l1.53125 0.75q-0.671875 1.296875 -1.890625 2.078125q-1.21875 0.78125 -2.921875 0.78125zm3.140625 -6.9375q-0.046875 -0.671875 -0.390625 -1.359375q-0.34375 -0.6875 -1.078125 -1.15625q-0.71875 -0.46875 -1.828125 -0.46875q-1.28125 0 -2.171875 0.828125q-0.890625 0.8125 -1.171875 2.15625l6.640625 0zm7.926956 6.9375q-1.75 0 -2.921875 -0.8125q-1.171875 -0.828125 -1.671875 -2.109375l1.625 -0.734375q0.40625 0.984375 1.203125 1.515625q0.8125 0.53125 1.765625 0.53125q1.015625 0 1.734375 -0.40625q0.734375 -0.421875 0.734375 -1.1875q0 -0.6875 -0.578125 -1.09375q-0.5625 -0.421875 -1.8125 -0.71875l-1.3125 -0.34375q-1.296875 -0.3125 -2.140625 -1.078125q-0.828125 -0.78125 -0.828125 -1.984375q0 -0.9375 0.5625 -1.65625q0.5625 -0.71875 1.5 -1.09375q0.953125 -0.390625 2.03125 -0.390625q1.4375 0 2.546875 0.625q1.125 0.609375 1.59375 1.71875l-1.578125 0.734375q-0.71875 -1.453125 -2.578125 -1.453125q-0.90625 0 -1.578125 0.421875q-0.671875 0.40625 -0.671875 1.046875q0 0.59375 0.46875 0.96875q0.484375 0.375 1.421875 0.609375l1.578125 0.40625q1.59375 0.40625 2.40625 1.203125q0.8125 0.796875 0.8125 1.953125q0 1.0 -0.578125 1.765625q-0.578125 0.75 -1.5625 1.15625q-0.984375 0.40625 -2.171875 0.40625zm10.372192 -0.171875q-0.671875 0 -1.234375 -0.203125q-0.5625 -0.21875 -0.953125 -0.59375q-0.84375 -0.796875 -0.84375 -2.234375l0 -6.375l-1.90625 0l0 -1.640625l1.90625 0l0 -3.078125l1.8125 0l0 3.078125l2.65625 0l0 1.640625l-2.65625 0l0 5.921875q0 0.90625 0.34375 1.328125q0.40625 0.46875 1.171875 0.46875q0.65625 0 1.1875 -0.359375l0 1.765625q-0.3125 0.15625 -0.65625 0.21875q-0.328125 0.0625 -0.828125 0.0625zm2.2748718 -0.171875l0 0zm13.396477 0.34375q-2.21875 0 -4.03125 -1.046875q-1.8124924 -1.046875 -2.8593674 -2.859375q-1.03125 -1.828125 -1.03125 -4.078125q0 -2.234375 1.03125 -4.046875q1.046875 -1.828125 2.8593674 -2.875q1.8125 -1.046875 4.03125 -1.046875q1.703125 0 3.125 0.640625q1.421875 0.640625 2.453125 1.859375l-1.296875 1.25q-0.875 -1.046875 -1.90625 -1.53125q-1.03125 -0.5 -2.375 -0.5q-1.671875 0 -3.0625 0.78125q-1.375 0.78125 -2.203125 2.203125q-0.8124924 1.421875 -0.8124924 3.265625q0 1.859375 0.8124924 3.28125q0.828125 1.421875 2.203125 2.203125q1.390625 0.765625 3.0625 0.765625q2.765625 0 4.71875 -2.28125l1.3125 1.28125q-1.046875 1.265625 -2.609375 2.0q-1.5625 0.734375 -3.421875 0.734375zm12.861908 0q-1.609375 0 -2.890625 -0.765625q-1.265625 -0.765625 -1.984375 -2.09375q-0.71875 -1.328125 -0.71875 -2.921875q0 -1.59375 0.71875 -2.921875q0.71875 -1.328125 1.984375 -2.09375q1.28125 -0.765625 2.890625 -0.765625q1.59375 0 2.875 0.765625q1.28125 0.765625 1.984375 2.09375q0.71875 1.328125 0.71875 2.921875q0 1.59375 -0.71875 2.921875q-0.703125 1.328125 -1.984375 2.09375q-1.28125 0.765625 -2.875 0.765625zm0 -1.640625q1.0 0 1.859375 -0.5q0.859375 -0.5 1.375 -1.4375q0.53125 -0.953125 0.53125 -2.203125q0 -1.265625 -0.53125 -2.203125q-0.515625 -0.9375 -1.375 -1.4375q-0.859375 -0.5 -1.859375 -0.5q-1.0 0 -1.875 0.5q-0.875 0.5 -1.40625 1.4375q-0.515625 0.9375 -0.515625 2.203125q0 1.25 0.515625 2.203125q0.53125 0.9375 1.40625 1.4375q0.875 0.5 1.875 0.5zm7.4826508 -9.578125l1.734375 0l0 1.59375l0.078125 0q0.453125 -0.8125 1.421875 -1.375q0.984375 -0.5625 2.09375 -0.5625q1.96875 0 3.0 1.140625q1.03125 1.140625 1.03125 3.109375l0 6.96875l-1.8125 0l0 -6.703125q0 -1.515625 -0.734375 -2.1875q-0.71875 -0.6875 -1.96875 -0.6875q-0.875 0 -1.578125 0.5q-0.6875 0.484375 -1.078125 1.28125q-0.375 0.796875 -0.375 1.671875l0 6.125l-1.8125 0l0 -10.875zm15.619293 11.046875q-0.671875 0 -1.234375 -0.203125q-0.5625 -0.21875 -0.953125 -0.59375q-0.84375 -0.796875 -0.84375 -2.234375l0 -6.375l-1.90625 0l0 -1.640625l1.90625 0l0 -3.078125l1.8125 0l0 3.078125l2.65625 0l0 1.640625l-2.65625 0l0 5.921875q0 0.90625 0.34375 1.328125q0.40625 0.46875 1.171875 0.46875q0.65625 0 1.1875 -0.359375l0 1.765625q-0.3125 0.15625 -0.65625 0.21875q-0.328125 0.0625 -0.828125 0.0625zm7.993042 0.171875q-1.5625 0 -2.796875 -0.75q-1.234375 -0.75 -1.9375 -2.0625q-0.6875 -1.3125 -0.6875 -2.953125q0 -1.546875 0.640625 -2.875q0.65625 -1.34375 1.859375 -2.125q1.21875 -0.796875 2.765625 -0.796875q1.609375 0 2.78125 0.71875q1.171875 0.703125 1.796875 1.96875q0.625 1.265625 0.625 2.875q0 0.265625 -0.03125 0.5625l-8.625 0q0.0625 1.234375 0.59375 2.09375q0.546875 0.84375 1.359375 1.28125q0.828125 0.421875 1.71875 0.421875q2.125 0 3.21875 -1.96875l1.53125 0.75q-0.671875 1.296875 -1.890625 2.078125q-1.21875 0.78125 -2.921875 0.78125zm3.140625 -6.9375q-0.046875 -0.671875 -0.390625 -1.359375q-0.34375 -0.6875 -1.078125 -1.15625q-0.71875 -0.46875 -1.828125 -0.46875q-1.28125 0 -2.171875 0.828125q-0.890625 0.8125 -1.171875 2.15625l6.640625 0zm4.023407 -4.28125l1.734375 0l0 1.59375l0.078125 0q0.453125 -0.8125 1.421875 -1.375q0.984375 -0.5625 2.09375 -0.5625q1.96875 0 3.0 1.140625q1.03125 1.140625 1.03125 3.109375l0 6.96875l-1.8125 0l0 -6.703125q0 -1.515625 -0.734375 -2.1875q-0.71875 -0.6875 -1.96875 -0.6875q-0.875 0 -1.578125 0.5q-0.6875 0.484375 -1.078125 1.28125q-0.375 0.796875 -0.375 1.671875l0 6.125l-1.8125 0l0 -10.875zm15.619293 11.046875q-0.671875 0 -1.234375 -0.203125q-0.5625 -0.21875 -0.953125 -0.59375q-0.84375 -0.796875 -0.84375 -2.234375l0 -6.375l-1.90625 0l0 -1.640625l1.90625 0l0 -3.078125l1.8125 0l0 3.078125l4.9375 0l0 -1.171875q0 -1.03125 0.453125 -1.796875q0.46875 -0.765625 1.265625 -1.171875q0.796875 -0.421875 1.765625 -0.421875q0.875 0 1.59375 0.25l0 1.765625q-0.421875 -0.171875 -0.75 -0.25q-0.328125 -0.078125 -0.796875 -0.078125q-0.703125 0 -1.21875 0.5q-0.515625 0.5 -0.515625 1.390625l0 0.984375l2.796875 0l0 1.640625l-2.796875 0l0 9.234375l-1.796875 0l0 -9.234375l-4.9375 0l0 5.921875q0 0.90625 0.34375 1.328125q0.40625 0.46875 1.171875 0.46875q0.65625 0 1.1875 -0.359375l0 1.765625q-0.3125 0.15625 -0.65625 0.21875q-0.328125 0.0625 -0.828125 0.0625zm14.2901 0.171875q-1.96875 0 -3.0 -1.15625q-1.03125 -1.15625 -1.03125 -3.21875l0 -6.84375l1.8125 0l0 6.5625q0 1.5625 0.703125 2.296875q0.703125 0.71875 1.890625 0.71875q0.921875 0 1.625 -0.484375q0.71875 -0.5 1.109375 -1.28125q0.40625 -0.796875 0.40625 -1.671875l0 -6.140625l1.8125 0l0 10.875l-1.734375 0l0 -1.578125l-0.078125 0q-0.453125 0.8125 -1.4375 1.375q-0.96875 0.546875 -2.078125 0.546875zm8.011993 -15.609375l1.8125 0l0 15.265625l-1.8125 0l0 -15.265625zm3.1565247 15.265625l0 0zm6.6512756 -15.265625l5.140625 0q1.28125 0 2.359375 0.578125q1.09375 0.5625 1.75 1.609375q0.65625 1.03125 0.65625 2.328125q0 1.296875 -0.65625 2.34375q-0.65625 1.03125 -1.75 1.609375q-1.078125 0.5625 -2.359375 0.5625l-3.328125 0l0 6.234375l-1.8125 0l0 -15.265625zm5.1875 7.3125q0.84375 0 1.5 -0.40625q0.65625 -0.40625 1.015625 -1.046875q0.359375 -0.640625 0.359375 -1.34375q0 -0.703125 -0.359375 -1.34375q-0.359375 -0.640625 -1.015625 -1.046875q-0.65625 -0.40625 -1.5 -0.40625l-3.375 0l0 5.59375l3.375 0zm9.780243 8.296875q-1.1875 0 -2.125 -0.46875q-0.9375 -0.46875 -1.453125 -1.28125q-0.515625 -0.828125 -0.515625 -1.875q0 -1.734375 1.296875 -2.703125q1.3125 -0.96875 3.296875 -0.96875q0.984375 0 1.828125 0.21875q0.84375 0.203125 1.28125 0.484375l0 -0.65625q0 -1.21875 -0.859375 -1.953125q-0.84375 -0.734375 -2.140625 -0.734375q-0.90625 0 -1.6875 0.390625q-0.765625 0.390625 -1.21875 1.09375l-1.359375 -1.015625q0.640625 -0.984375 1.765625 -1.53125q1.125 -0.5625 2.5 -0.5625q2.21875 0 3.46875 1.171875q1.265625 1.15625 1.265625 3.15625l0 6.890625l-1.734375 0l0 -1.5625l-0.078125 0q-0.46875 0.796875 -1.40625 1.359375q-0.9375 0.546875 -2.125 0.546875zm0.171875 -1.609375q0.921875 0 1.703125 -0.46875q0.796875 -0.46875 1.265625 -1.25q0.46875 -0.796875 0.46875 -1.734375q-0.515625 -0.34375 -1.265625 -0.546875q-0.734375 -0.21875 -1.5625 -0.21875q-1.5 0 -2.265625 0.625q-0.75 0.609375 -0.75 1.59375q0 0.890625 0.6875 1.453125q0.6875 0.546875 1.71875 0.546875zm8.747147 -11.609375q-0.53123474 0 -0.92185974 -0.390625q-0.375 -0.390625 -0.375 -0.921875q0 -0.546875 0.375 -0.921875q0.390625 -0.375 0.92185974 -0.375q0.5625 0 0.9375 0.375q0.375 0.375 0.375 0.921875q0 0.53125 -0.375 0.921875q-0.375 0.390625 -0.9375 0.390625zm-0.89060974 2.0l1.8124847 0l0 10.875l-1.8124847 0l0 -10.875zm4.6483 0l1.734375 0l0 1.59375l0.078125 0q0.453125 -0.8125 1.421875 -1.375q0.984375 -0.5625 2.09375 -0.5625q1.96875 0 3.0 1.140625q1.03125 1.140625 1.03125 3.109375l0 6.96875l-1.8125 0l0 -6.703125q0 -1.515625 -0.734375 -2.1875q-0.71875 -0.6875 -1.96875 -0.6875q-0.875 0 -1.578125 0.5q-0.6875 0.484375 -1.078125 1.28125q-0.375 0.796875 -0.375 1.671875l0 6.125l-1.8125 0l0 -10.875zm15.619293 11.046875q-0.671875 0 -1.234375 -0.203125q-0.5625 -0.21875 -0.953125 -0.59375q-0.84375 -0.796875 -0.84375 -2.234375l0 -6.375l-1.90625 0l0 -1.640625l1.90625 0l0 -3.078125l1.8125 0l0 3.078125l2.65625 0l0 1.640625l-2.65625 0l0 5.921875q0 0.90625 0.34375 1.328125q0.40625 0.46875 1.171875 0.46875q0.65625 0 1.1875 -0.359375l0 1.765625q-0.3125 0.15625 -0.65625 0.21875q-0.328125 0.0625 -0.828125 0.0625z" fill-rule="nonzero"/><path fill="#000000" fill-opacity="0.0" d="m600.0 125.62752l0 -28.566933" fill-rule="evenodd"/><path stroke="#434343" stroke-width="2.0" stroke-linejoin="round" stroke-linecap="butt" d="m600.0 125.627525l0 -20.98693" fill-rule="evenodd"/><path fill="#434343" stroke="#434343" stroke-width="2.0" stroke-linecap="butt" d="m600.0 98.06059c1.8170166 0 3.289978 1.4729843 3.289978 3.290001c0 1.8170166 -1.4729614 3.290001 -3.289978 3.290001c-1.8170166 0 -3.289978 -1.4729843 -3.289978 -3.290001c0 -1.8170166 1.4729614 -3.290001 3.289978 -3.290001z" fill-rule="nonzero"/></g></svg>