<svg version="1.1" viewBox="0.0 0.0 384.0 336.0" fill="none" stroke="none" stroke-linecap="square" stroke-miterlimit="10" xmlns:xlink="http://www.w3.org/1999/xlink" xmlns="http://www.w3.org/2000/svg"><clipPath id="p.0"><path d="m0 0l384.0 0l0 336.0l-384.0 0l0 -336.0z" clip-rule="nonzero"/></clipPath><g clip-path="url(#p.0)"><path fill="#000000" fill-opacity="0.0" d="m0 0l384.0 0l0 336.0l-384.0 0z" fill-rule="evenodd"/><path fill="#000000" fill-opacity="0.0" d="m48.006233 28.0l288.0 0l0 33.574802l-288.0 0z" fill-rule="evenodd"/><path fill="#999999" d="m159.75316 52.81928q-0.796875 -1.125 -1.328125 -2.703125q-0.515625 -1.578125 -0.515625 -3.4375q0 -2.453125 1.125 -4.65625q1.140625 -2.21875 3.140625 -3.859375l1.046875 0.953125q-1.765625 1.6875 -2.6875 3.546875q-0.90625 1.859375 -0.90625 4.125q0 1.515625 0.359375 2.765625q0.375 1.25 1.03125 2.375l-1.265625 0.890625zm5.174759 -13.625l1.75 0l-1.734375 9.796875l4.921875 0l-0.28125 1.65625l-6.6875 0l2.03125 -11.453125zm9.975525 11.703125q-1.09375 0 -1.953125 -0.5q-0.84375 -0.515625 -1.3125 -1.390625q-0.46875 -0.890625 -0.46875 -1.953125q0 -1.34375 0.59375 -2.4375q0.59375 -1.109375 1.671875 -1.75q1.09375 -0.640625 2.515625 -0.640625q1.1093903 0 1.9531403 0.515625q0.859375 0.515625 1.328125 1.40625q0.484375 0.875 0.484375 1.9375q0 1.34375 -0.609375 2.4375q-0.59375 1.09375 -1.6875 1.734375q-1.078125 0.640625 -2.5156403 0.640625zm0.21875 -1.578125q0.8125 0 1.4531403 -0.40625q0.65625 -0.40625 1.015625 -1.109375q0.375 -0.71875 0.375 -1.578125q0 -1.046875 -0.609375 -1.71875q-0.59375 -0.6875 -1.6093903 -0.6875q-0.8125 0 -1.453125 0.421875q-0.640625 0.40625 -1.03125 1.109375q-0.375 0.703125 -0.375 1.546875q0 1.0625 0.609375 1.75q0.609375 0.671875 1.625 0.671875zm8.085159 1.578125q-0.71875 0 -1.328125 -0.328125q-0.609375 -0.328125 -0.96875 -0.890625q-0.359375 -0.578125 -0.359375 -1.28125q0 -1.359375 0.96875 -2.15625q0.96875 -0.8125 2.71875 -0.8125q0.625 0 1.203125 0.140625q0.59375 0.125 1.046875 0.34375l0.109375 -0.421875l0.03125 -0.40625q0 -0.609375 -0.53125 -1.0q-0.515625 -0.390625 -1.28125 -0.390625q-1.3125 0 -2.09375 0.984375l-1.21875 -0.890625q0.609375 -0.75 1.515625 -1.15625q0.921875 -0.40625 1.984375 -0.40625q1.53125 0 2.40625 0.75q0.875 0.734375 0.875 1.953125q0 0.34375 -0.078125 0.828125l-0.875 4.890625l-1.671875 0l0.171875 -0.984375l-0.09375 0q-0.40625 0.5625 -1.046875 0.90625q-0.625 0.328125 -1.484375 0.328125zm0.5 -1.40625q1.0 0 1.703125 -0.640625q0.703125 -0.640625 0.859375 -1.640625q-0.484375 -0.25 -0.9375 -0.359375q-0.4375 -0.125 -1.078125 -0.125q-0.890625 0 -1.421875 0.40625q-0.53125 0.390625 -0.53125 1.125q0 0.5625 0.40625 0.90625q0.40625 0.328125 1.0 0.328125zm8.936127 1.40625q-0.9375 0 -1.703125 -0.46875q-0.75 -0.46875 -1.1875 -1.328125q-0.421875 -0.859375 -0.421875 -1.921875q0 -1.359375 0.59375 -2.5q0.59375 -1.140625 1.65625 -1.796875q1.078125 -0.65625 2.421875 -0.65625q0.875 0 1.546875 0.421875q0.6875 0.40625 0.953125 0.953125l0.109375 0l0.09375 -1.140625l0.578125 -3.265625l1.703125 0l-2.03125 11.453125l-1.609375 0l0.1875 -1.09375l-0.09375 0q-0.4375 0.625 -1.140625 0.984375q-0.6875 0.359375 -1.65625 0.359375zm0.578125 -1.578125q0.78125 0 1.453125 -0.40625q0.671875 -0.421875 1.0625 -1.15625q0.390625 -0.734375 0.390625 -1.6875q0 -1.0 -0.625 -1.625q-0.609375 -0.625 -1.53125 -0.625q-0.84375 0 -1.515625 0.421875q-0.65625 0.421875 -1.03125 1.15625q-0.359375 0.71875 -0.359375 1.625q0 1.03125 0.609375 1.671875q0.609375 0.625 1.546875 0.625zm8.636902 -8.03125q-0.5 0 -0.84375 -0.34375q-0.328125 -0.34375 -0.328125 -0.828125q0 -0.484375 0.328125 -0.8125q0.34375 -0.34375 0.84375 -0.34375q0.46875 0 0.796875 0.34375q0.34375 0.328125 0.34375 0.8125q0 0.484375 -0.34375 0.828125q-0.328125 0.34375 -0.796875 0.34375zm-1.296875 1.203125l1.71875 0l-1.4375 8.15625l-1.703125 0l1.421875 -8.15625zm5.4222717 1.109375q0.4375 -0.640625 1.125 -1.0q0.6875 -0.375 1.578125 -0.375q1.234375 0 1.921875 0.6875q0.6875 0.671875 0.6875 1.765625q0 0.609375 -0.09375 1.078125l-0.875 4.890625l-1.71875 0l0.84375 -4.796875q0.078125 -0.40625 0.078125 -0.703125q0 -0.609375 -0.40625 -0.96875q-0.40625 -0.359375 -1.09375 -0.359375q-0.953125 0 -1.640625 0.6875q-0.6875 0.671875 -0.859375 1.75l-0.78125 4.390625l-1.734375 0l1.453125 -8.15625l1.609375 0l-0.1875 1.109375l0.09375 0zm9.356262 10.765625q-0.953125 0 -1.6875 -0.328125q-0.71875 -0.328125 -1.15625 -0.859375q-0.4375 -0.53125 -0.5625 -1.140625l1.671875 -0.65625q0.171875 0.65625 0.65625 1.046875q0.5 0.390625 1.28125 0.390625q1.171875 0 1.90625 -0.65625q0.734375 -0.65625 0.953125 -1.875l0.140625 -0.828125l-0.09375 0q-0.4375 0.625 -1.09375 0.953125q-0.640625 0.3125 -1.59375 0.3125q-0.9375 0 -1.6875 -0.453125q-0.75 -0.46875 -1.1875 -1.296875q-0.421875 -0.828125 -0.421875 -1.859375q0 -1.296875 0.5625 -2.421875q0.578125 -1.125 1.609375 -1.796875q1.03125 -0.671875 2.390625 -0.671875q0.859375 0 1.515625 0.34375q0.671875 0.34375 0.953125 0.9375l0.109375 0l0.1875 -1.015625l1.625 0l-1.375 7.84375q-0.734375 4.03125 -4.703125 4.03125zm0.875 -5.203125q0.828125 0 1.484375 -0.421875q0.671875 -0.4375 1.046875 -1.140625q0.390625 -0.71875 0.390625 -1.5625q0 -1.015625 -0.59375 -1.625q-0.59375 -0.609375 -1.46875 -0.609375q-0.84375 0 -1.5 0.421875q-0.640625 0.40625 -1.015625 1.125q-0.375 0.71875 -0.375 1.609375q0 1.03125 0.578125 1.625q0.578125 0.578125 1.453125 0.578125zm4.91626 2.71875q1.78125 -1.71875 2.6875 -3.5625q0.921875 -1.84375 0.921875 -4.125q0 -1.515625 -0.375 -2.765625q-0.375 -1.25 -1.046875 -2.359375l1.265625 -0.90625q0.8125 1.140625 1.328125 2.71875q0.53125 1.578125 0.53125 3.421875q0 2.453125 -1.140625 4.671875q-1.125 2.21875 -3.125 3.84375l-1.046875 -0.9375z" fill-rule="nonzero"/><path fill="#000000" fill-opacity="0.0" d="m47.99836 67.2l288.0 0l0 96.0l-288.0 0z" fill-rule="evenodd"/><path fill="#2979ff" d="m115.79305 83.66437l11.875 0l0 51.75l26.671867 0l0 11.265625l-38.546867 0l0 -63.015625zm76.99615 64.421875q-9.15625 0 -16.71875 -4.34375q-7.5625 -4.359375 -11.921875 -11.890625q-4.359375 -7.53125 -4.359375 -16.671875q0 -9.15625 4.359375 -16.671875q4.359375 -7.53125 11.921875 -11.890625q7.5625 -4.359375 16.71875 -4.359375q14.25 0 23.578125 10.296875l-8.359375 8.09375q-6.0625 -7.125 -15.125 -7.125q-5.90625 0 -10.75 2.6875q-4.828125 2.6875 -7.609375 7.625q-2.765625 4.921875 -2.765625 11.34375q0 6.421875 2.765625 11.359375q2.78125 4.921875 7.609375 7.609375q4.84375 2.671875 10.75 2.671875q9.9375 0 16.625 -8.265625l8.453125 8.0q-4.671875 5.640625 -11.046875 8.59375q-6.375 2.9375 -14.125 2.9375zm36.17192 -64.421875l22.171875 0q5.984375 0 10.90625 2.515625q4.9375 2.515625 7.75 7.046875q2.8125 4.53125 2.8125 10.328125q0 5.8125 -2.8125 10.390625q-2.8125 4.578125 -7.75 7.09375q-4.921875 2.5 -10.90625 2.5l-10.296875 0l0 23.140625l-11.875 0l0 -63.015625zm22.53125 28.609375q4.390625 0 6.890625 -2.546875q2.515625 -2.5625 2.515625 -6.171875q0 -3.609375 -2.515625 -6.109375q-2.5 -2.515625 -6.890625 -2.515625l-10.65625 0l0 17.34375l10.65625 0z" fill-rule="nonzero"/><path fill="#0cce6b" d="m43.2 220.80136l96.0 0l0 38.393707l-96.0 0z" fill-rule="evenodd"/><path fill="#000000" d="m77.08874 244.70572q-1.234375 0 -2.265625 -0.578125q-1.03125 -0.59375 -1.640625 -1.609375q-0.59375 -1.03125 -0.59375 -2.296875q0 -1.265625 0.59375 -2.28125q0.609375 -1.03125 1.640625 -1.609375q1.03125 -0.59375 2.265625 -0.59375q0.984375 0 1.8125 0.34375q0.828125 0.34375 1.390625 0.96875l-0.90625 0.921875q-0.875 -0.984375 -2.296875 -0.984375q-0.84375 0 -1.578125 0.40625q-0.734375 0.390625 -1.171875 1.140625q-0.421875 0.734375 -0.421875 1.6875q0 0.953125 0.4375 1.703125q0.4375 0.734375 1.15625 1.140625q0.734375 0.390625 1.578125 0.390625q1.359375 0 2.21875 -0.84375q0.265625 -0.265625 0.453125 -0.671875q0.1875 -0.40625 0.265625 -0.90625l-2.953125 0l0 -1.15625l4.171875 0q0.078125 0.40625 0.078125 0.6875q0 0.828125 -0.265625 1.5625q-0.25 0.734375 -0.796875 1.296875q-0.578125 0.625 -1.390625 0.953125q-0.796875 0.328125 -1.78125 0.328125zm9.765564 0q-1.234375 0 -2.265625 -0.59375q-1.015625 -0.609375 -1.59375 -1.625q-0.578125 -1.03125 -0.578125 -2.265625q0 -1.234375 0.578125 -2.25q0.578125 -1.03125 1.59375 -1.625q1.03125 -0.609375 2.265625 -0.609375q1.25 0 2.265625 0.609375q1.015625 0.59375 1.59375 1.625q0.59375 1.015625 0.59375 2.25q0 1.234375 -0.59375 2.265625q-0.578125 1.015625 -1.59375 1.625q-1.015625 0.59375 -2.265625 0.59375zm0 -1.25q0.875 0 1.578125 -0.40625q0.71875 -0.421875 1.125 -1.15625q0.421875 -0.734375 0.421875 -1.671875q0 -0.9375 -0.421875 -1.671875q-0.40625 -0.734375 -1.125 -1.140625q-0.703125 -0.421875 -1.578125 -0.421875q-0.859375 0 -1.578125 0.421875q-0.703125 0.40625 -1.125 1.140625q-0.40625 0.734375 -0.40625 1.671875q0 0.9375 0.40625 1.671875q0.421875 0.734375 1.125 1.15625q0.71875 0.40625 1.578125 0.40625zm9.864075 1.25q-1.234375 0 -2.265625 -0.59375q-1.015625 -0.609375 -1.59375 -1.625q-0.578125 -1.03125 -0.578125 -2.265625q0 -1.234375 0.578125 -2.25q0.578125 -1.03125 1.59375 -1.625q1.03125 -0.609375 2.265625 -0.609375q1.25 0 2.265625 0.609375q1.015625 0.59375 1.59375 1.625q0.59375 1.015625 0.59375 2.25q0 1.234375 -0.59375 2.265625q-0.578125 1.015625 -1.59375 1.625q-1.015625 0.59375 -2.265625 0.59375zm0 -1.25q0.875 0 1.578125 -0.40625q0.71875 -0.421875 1.125 -1.15625q0.421875 -0.734375 0.421875 -1.671875q0 -0.9375 -0.421875 -1.671875q-0.40625 -0.734375 -1.125 -1.140625q-0.703125 -0.421875 -1.578125 -0.421875q-0.859375 0 -1.578125 0.421875q-0.703125 0.40625 -1.125 1.140625q-0.40625 0.734375 -0.40625 1.671875q0 0.9375 0.40625 1.671875q0.421875 0.734375 1.125 1.15625q0.71875 0.40625 1.578125 0.40625zm5.968445 -7.53125l2.75 0q1.328125 0 2.3125 0.546875q1.0 0.53125 1.53125 1.515625q0.53125 0.96875 0.53125 2.234375q0 1.265625 -0.53125 2.25q-0.53125 0.96875 -1.53125 1.515625q-0.984375 0.53125 -2.3125 0.53125l-2.75 0l0 -8.59375zm2.71875 7.34375q1.453125 0 2.265625 -0.8125q0.8125 -0.8125 0.8125 -2.234375q0 -1.421875 -0.8125 -2.234375q-0.8125 -0.8125 -2.265625 -0.8125l-1.390625 0l0 6.09375l1.390625 0z" fill-rule="nonzero"/><path fill="#ffa400" d="m139.2 220.80132l105.60631 0l0 38.393692l-105.60631 0z" fill-rule="evenodd"/><path fill="#000000" d="m173.98776 228.92441l1.5625 0l3.890625 6.3125l0.0625 0l-0.0625 -1.65625l0 -4.65625l1.3125 0l0 8.59375l-1.375 0l-4.078125 -6.640625l-0.078125 0l0.078125 1.65625l0 4.984375l-1.3125 0l0 -8.59375zm8.700058 0l5.21875 0l0 1.25l-3.890625 0l0 2.421875l3.5 0l0 1.25l-3.5 0l0 2.421875l3.890625 0l0 1.25l-5.21875 0l0 -8.59375zm6.864044 0l5.21875 0l0 1.25l-3.890625 0l0 2.421875l3.5 0l0 1.25l-3.5 0l0 2.421875l3.890625 0l0 1.25l-5.21875 0l0 -8.59375zm6.864044 0l2.75 0q1.328125 0 2.3125 0.546875q1.0 0.53125 1.53125 1.515625q0.53125 0.96875 0.53125 2.234375q0 1.265625 -0.53125 2.25q-0.53125 0.96875 -1.53125 1.515625q-0.984375 0.53125 -2.3125 0.53125l-2.75 0l0 -8.59375zm2.71875 7.34375q1.453125 0 2.265625 -0.8125q0.8125 -0.8125 0.8125 -2.234375q0 -1.421875 -0.8125 -2.234375q-0.8125 -0.8125 -2.265625 -0.8125l-1.390625 0l0 6.09375l1.390625 0zm8.42131 1.4375q-1.0625 0 -1.921875 -0.625q-0.84375 -0.625 -1.1875 -1.75l1.25 -0.5q0.1875 0.71875 0.671875 1.171875q0.5 0.453125 1.203125 0.453125q0.640625 0 1.09375 -0.328125q0.453125 -0.34375 0.453125 -0.921875q0 -0.546875 -0.40625 -0.890625q-0.390625 -0.359375 -1.359375 -0.703125l-0.546875 -0.1875q-0.875 -0.3125 -1.453125 -0.859375q-0.578125 -0.5625 -0.578125 -1.484375q0 -0.640625 0.34375 -1.171875q0.34375 -0.546875 0.953125 -0.859375q0.625 -0.3125 1.40625 -0.3125q1.109375 0 1.78125 0.546875q0.671875 0.546875 0.90625 1.21875l-1.1875 0.515625q-0.109375 -0.4375 -0.5 -0.75q-0.375 -0.3125 -1.0 -0.3125q-0.578125 0 -1.0 0.3125q-0.40625 0.3125 -0.40625 0.796875q0 0.4375 0.359375 0.734375q0.375 0.296875 1.140625 0.5625l0.5625 0.1875q1.09375 0.390625 1.6875 1.0q0.609375 0.609375 0.609375 1.625q0 0.84375 -0.421875 1.421875q-0.421875 0.5625 -1.09375 0.84375q-0.671875 0.265625 -1.359375 0.265625zm3.431305 -0.1875l0 0z" fill-rule="nonzero"/><path fill="#000000" d="m150.18561 242.92441l1.328125 0l0 8.59375l-1.328125 0l0 -8.59375zm3.2520294 0l1.78125 0l2.5 6.546875l0.078125 0l2.515625 -6.546875l1.78125 0l0 8.59375l-1.296875 0l0 -4.859375l0.078125 -1.53125l-0.078125 0l-2.515625 6.390625l-1.03125 0l-2.515625 -6.390625l-0.0625 0l0.0625 1.53125l0 4.859375l-1.296875 0l0 -8.59375zm10.596069 0l2.953125 0q0.765625 0 1.40625 0.34375q0.640625 0.328125 1.015625 0.9375q0.390625 0.59375 0.390625 1.34375q0 0.765625 -0.390625 1.359375q-0.375 0.59375 -1.015625 0.9375q-0.640625 0.328125 -1.40625 0.328125l-1.625 0l0 3.34375l-1.328125 0l0 -8.59375zm2.984375 4.015625q0.671875 0 1.0625 -0.40625q0.40625 -0.421875 0.40625 -0.984375q0 -0.546875 -0.40625 -0.953125q-0.390625 -0.421875 -1.0625 -0.421875l-1.65625 0l0 2.765625l1.65625 0zm4.131668 -4.015625l3.015625 0q0.78125 0 1.40625 0.34375q0.640625 0.328125 1.0 0.9375q0.359375 0.59375 0.359375 1.34375q0 0.875 -0.5625 1.546875q-0.546875 0.65625 -1.390625 0.875l-0.015625 0.0625l2.375 3.40625l0 0.078125l-1.53125 0l-2.28125 -3.375l-1.046875 0l0 3.375l-1.328125 0l0 -8.59375zm2.984375 4.015625q0.625 0 1.046875 -0.390625q0.421875 -0.40625 0.421875 -1.0q0 -0.5625 -0.390625 -0.96875q-0.390625 -0.421875 -1.03125 -0.421875l-1.703125 0l0 2.78125l1.65625 0zm8.351303 4.765625q-1.234375 0 -2.265625 -0.59375q-1.015625 -0.609375 -1.59375 -1.625q-0.578125 -1.03125 -0.578125 -2.265625q0 -1.234375 0.578125 -2.25q0.578125 -1.03125 1.59375 -1.625q1.03125 -0.609375 2.265625 -0.609375q1.25 0 2.265625 0.609375q1.015625 0.59375 1.59375 1.625q0.59375 1.015625 0.59375 2.25q0 1.234375 -0.59375 2.265625q-0.578125 1.015625 -1.59375 1.625q-1.015625 0.59375 -2.265625 0.59375zm0 -1.25q0.875 0 1.578125 -0.40625q0.71875 -0.421875 1.125 -1.15625q0.421875 -0.734375 0.421875 -1.671875q0 -0.9375 -0.421875 -1.671875q-0.40625 -0.734375 -1.125 -1.140625q-0.703125 -0.421875 -1.578125 -0.421875q-0.859375 0 -1.578125 0.421875q-0.703125 0.40625 -1.125 1.140625q-0.40625 0.734375 -0.40625 1.671875q0 0.9375 0.40625 1.671875q0.421875 0.734375 1.125 1.15625q0.71875 0.40625 1.578125 0.40625zm4.811569 -7.53125l1.4375 0l1.9375 5.71875l0.3125 0.96875l0.0625 0l0.328125 -0.96875l2.03125 -5.71875l1.4375 0l-3.140625 8.59375l-1.359375 0l-3.046875 -8.59375zm8.680923 0l5.21875 0l0 1.25l-3.890625 0l0 2.421875l3.5 0l0 1.25l-3.5 0l0 2.421875l3.890625 0l0 1.25l-5.21875 0l0 -8.59375zm6.864044 0l1.78125 0l2.5 6.546875l0.078125 0l2.515625 -6.546875l1.78125 0l0 8.59375l-1.296875 0l0 -4.859375l0.078125 -1.53125l-0.078125 0l-2.515625 6.390625l-1.03125 0l-2.515625 -6.390625l-0.0625 0l0.0625 1.53125l0 4.859375l-1.296875 0l0 -8.59375zm10.596069 0l5.21875 0l0 1.25l-3.890625 0l0 2.421875l3.5 0l0 1.25l-3.5 0l0 2.421875l3.890625 0l0 1.25l-5.21875 0l0 -8.59375zm6.864044 0l1.5625 0l3.890625 6.3125l0.0625 0l-0.0625 -1.65625l0 -4.65625l1.3125 0l0 8.59375l-1.375 0l-4.078125 -6.640625l-0.078125 0l0.078125 1.65625l0 4.984375l-1.3125 0l0 -8.59375zm10.450058 1.25l-2.40625 0l0 -1.25l6.125 0l0 1.25l-2.390625 0l0 7.34375l-1.328125 0l0 -7.34375z" fill-rule="nonzero"/><path fill="#ff4e42" d="m243.84 220.8l96.0 0l0 38.393692l-96.0 0z" fill-rule="evenodd"/><path fill="#000000" d="m275.72064 235.9231l2.953125 0q0.765625 0 1.40625 0.34375q0.640625 0.328125 1.015625 0.9375q0.390625 0.59375 0.390625 1.34375q0 0.765625 -0.390625 1.359375q-0.375 0.59375 -1.015625 0.9375q-0.640625 0.328125 -1.40625 0.328125l-1.625 0l0 3.34375l-1.328125 0l0 -8.59375zm2.984375 4.015625q0.671875 0 1.0625 -0.40625q0.40625 -0.421875 0.40625 -0.984375q0 -0.546875 -0.40625 -0.953125q-0.390625 -0.421875 -1.0625 -0.421875l-1.65625 0l0 2.765625l1.65625 0zm8.039276 4.765625q-1.234375 0 -2.265625 -0.59375q-1.015625 -0.609375 -1.59375 -1.625q-0.578125 -1.03125 -0.578125 -2.265625q0 -1.234375 0.578125 -2.25q0.578125 -1.03125 1.59375 -1.625q1.03125 -0.609375 2.265625 -0.609375q1.25 0 2.265625 0.609375q1.015625 0.59375 1.59375 1.625q0.59375 1.015625 0.59375 2.25q0 1.234375 -0.59375 2.265625q-0.578125 1.015625 -1.59375 1.625q-1.015625 0.59375 -2.265625 0.59375zm0 -1.25q0.875 0 1.578125 -0.40625q0.71875 -0.421875 1.125 -1.15625q0.421875 -0.734375 0.421875 -1.671875q0 -0.9375 -0.421875 -1.671875q-0.40625 -0.734375 -1.125 -1.140625q-0.703125 -0.421875 -1.578125 -0.421875q-0.859375 0 -1.578125 0.421875q-0.703125 0.40625 -1.125 1.140625q-0.40625 0.734375 -0.40625 1.671875q0 0.9375 0.40625 1.671875q0.421875 0.734375 1.125 1.15625q0.71875 0.40625 1.578125 0.40625zm9.864075 1.25q-1.234375 0 -2.265625 -0.59375q-1.015625 -0.609375 -1.59375 -1.625q-0.578125 -1.03125 -0.578125 -2.265625q0 -1.234375 0.578125 -2.25q0.578125 -1.03125 1.59375 -1.625q1.03125 -0.609375 2.265625 -0.609375q1.25 0 2.265625 0.609375q1.015625 0.59375 1.59375 1.625q0.59375 1.015625 0.59375 2.25q0 1.234375 -0.59375 2.265625q-0.578125 1.015625 -1.59375 1.625q-1.015625 0.59375 -2.265625 0.59375zm0 -1.25q0.875 0 1.578125 -0.40625q0.71875 -0.421875 1.125 -1.15625q0.421875 -0.734375 0.421875 -1.671875q0 -0.9375 -0.421875 -1.671875q-0.40625 -0.734375 -1.125 -1.140625q-0.703125 -0.421875 -1.578125 -0.421875q-0.859375 0 -1.578125 0.421875q-0.703125 0.40625 -1.125 1.140625q-0.40625 0.734375 -0.40625 1.671875q0 0.9375 0.40625 1.671875q0.421875 0.734375 1.125 1.15625q0.71875 0.40625 1.578125 0.40625zm5.968445 -7.53125l3.015625 0q0.78125 0 1.40625 0.34375q0.640625 0.328125 1.0 0.9375q0.359375 0.59375 0.359375 1.34375q0 0.875 -0.5625 1.546875q-0.546875 0.65625 -1.390625 0.875l-0.015625 0.0625l2.375 3.40625l0 0.078125l-1.53125 0l-2.28125 -3.375l-1.046875 0l0 3.375l-1.328125 0l0 -8.59375zm2.984375 4.015625q0.625 0 1.046875 -0.390625q0.421875 -0.40625 0.421875 -1.0q0 -0.5625 -0.390625 -0.96875q-0.390625 -0.421875 -1.03125 -0.421875l-1.703125 0l0 2.78125l1.65625 0z" fill-rule="nonzero"/><path fill="#000000" fill-opacity="0.0" d="m196.8 283.2l95.999985 0l0 28.409424l-95.999985 0z" fill-rule="evenodd"/><path fill="#434343" d="m223.49895 301.0772l-5.15625 0l0 -1.34375l5.015625 -7.40625l1.84375 0l0 7.140625l1.390625 0l0 1.609375l-1.390625 0l0 2.1875l-1.703125 0l0 -2.1875zm0 -1.609375l0 -4.609375l-0.09375 0l-3.125 4.609375l3.21875 0zm5.9627686 3.890625q-0.515625 0 -0.875 -0.34375q-0.34375 -0.359375 -0.34375 -0.859375q0 -0.484375 0.34375 -0.828125q0.359375 -0.359375 0.875 -0.359375q0.515625 0 0.859375 0.34375q0.34375 0.34375 0.34375 0.84375q0 0.5 -0.34375 0.859375q-0.34375 0.34375 -0.859375 0.34375zm7.3638763 0.15625q-1.34375 0 -2.359375 -0.75q-1.015625 -0.75 -1.578125 -2.046875q-0.546875 -1.3125 -0.546875 -2.921875q0 -1.625 0.546875 -2.921875q0.5625 -1.3125 1.578125 -2.0625q1.015625 -0.75 2.359375 -0.75q1.34375 0 2.359375 0.75q1.03125 0.75 1.578125 2.0625q0.5625 1.296875 0.5625 2.921875q0 1.609375 -0.5625 2.921875q-0.546875 1.296875 -1.578125 2.046875q-1.015625 0.75 -2.359375 0.75zm0 -1.625q0.84375 0 1.46875 -0.53125q0.625 -0.546875 0.953125 -1.46875q0.328125 -0.921875 0.328125 -2.09375q0 -1.171875 -0.328125 -2.109375q-0.328125 -0.9375 -0.953125 -1.453125q-0.625 -0.53125 -1.46875 -0.53125q-0.828125 0 -1.453125 0.53125q-0.609375 0.515625 -0.9375 1.453125q-0.328125 0.9375 -0.328125 2.109375q0 1.171875 0.328125 2.09375q0.328125 0.921875 0.9375 1.46875q0.625 0.53125 1.453125 0.53125zm5.294403 1.375l0 0zm7.712387 0.25q-1.390625 0 -2.296875 -0.59375q-0.90625 -0.609375 -1.265625 -1.59375l1.546875 -0.671875q0.28125 0.65625 0.8125 1.0q0.53125 0.34375 1.203125 0.34375q0.6875 0 1.140625 -0.25q0.46875 -0.25 0.46875 -0.734375q0 -0.453125 -0.390625 -0.71875q-0.390625 -0.265625 -1.21875 -0.453125l-0.96875 -0.21875q-0.984375 -0.25 -1.625 -0.859375q-0.640625 -0.609375 -0.640625 -1.53125q0 -0.703125 0.421875 -1.25q0.421875 -0.546875 1.140625 -0.84375q0.71875 -0.296875 1.5625 -0.296875q1.15625 0 2.0 0.453125q0.859375 0.453125 1.25 1.3125l-1.5 0.671875q-0.484375 -0.96875 -1.734375 -0.96875q-0.609375 0 -1.015625 0.25q-0.40625 0.25 -0.40625 0.640625q0 0.71875 1.25 1.03125l1.171875 0.296875q1.203125 0.296875 1.8125 0.90625q0.625 0.609375 0.625 1.515625q0 0.765625 -0.4375 1.34375q-0.4375 0.578125 -1.21875 0.90625q-0.765625 0.3125 -1.6875 0.3125zm8.654007 0q-1.1875 0 -2.140625 -0.546875q-0.95310974 -0.5625 -1.4843597 -1.546875q-0.53125 -0.984375 -0.53125 -2.21875q0 -1.171875 0.515625 -2.171875q0.515625 -1.0 1.4374847 -1.59375q0.9375 -0.59375 2.109375 -0.59375q1.234375 0 2.125 0.546875q0.890625 0.53125 1.359375 1.484375q0.484375 0.9375 0.484375 2.140625q0 0.3125 -0.03125 0.53125l-6.3125 0q0.125 1.171875 0.84375 1.8125q0.71875 0.625 1.671875 0.625q0.78125 0 1.34375 -0.359375q0.5625 -0.359375 0.90625 -0.953125l1.421875 0.6875q-0.5625 1.015625 -1.5 1.59375q-0.921875 0.5625 -2.21875 0.5625zm2.15625 -5.265625q-0.03125 -0.4375 -0.28125 -0.890625q-0.25 -0.453125 -0.75 -0.734375q-0.484375 -0.296875 -1.203125 -0.296875q-0.859375 0 -1.46875 0.53125q-0.59375 0.515625 -0.8125 1.390625l4.515625 0zm7.1706543 5.265625q-1.21875 0 -2.1875 -0.546875q-0.953125 -0.5625 -1.484375 -1.546875q-0.53125 -0.984375 -0.53125 -2.234375q0 -1.25 0.53125 -2.234375q0.53125 -0.984375 1.484375 -1.546875q0.96875 -0.5625 2.1875 -0.5625q1.34375 0 2.28125 0.609375q0.9375 0.59375 1.359375 1.65625l-1.578125 0.640625q-0.578125 -1.3125 -2.09375 -1.3125q-0.671875 0 -1.25 0.34375q-0.5625 0.34375 -0.890625 0.96875q-0.328125 0.625 -0.328125 1.4375q0 0.8125 0.328125 1.4375q0.328125 0.625 0.890625 0.96875q0.578125 0.34375 1.25 0.34375q0.765625 0 1.3125 -0.34375q0.5625 -0.34375 0.859375 -1.0l1.5625 0.671875q-0.484375 1.046875 -1.4375 1.65625q-0.9375 0.59375 -2.265625 0.59375z" fill-rule="nonzero"/><path fill="#000000" fill-opacity="0.0" d="m91.2 283.59363l96.0 0l0 28.409424l-96.0 0z" fill-rule="evenodd"/><path fill="#434343" d="m114.02157 302.03336q3.25 -3.234375 4.0 -4.078125q0.703125 -0.734375 0.953125 -1.1875q0.265625 -0.46875 0.265625 -1.09375q0 -0.640625 -0.484375 -1.109375q-0.484375 -0.46875 -1.328125 -0.46875q-0.765625 0 -1.234375 0.4375q-0.46875 0.4375 -0.65625 1.03125l-1.546875 -0.640625q0.15625 -0.578125 0.59375 -1.140625q0.453125 -0.5625 1.1875 -0.9375q0.734375 -0.390625 1.6875 -0.390625q1.046875 0 1.84375 0.4375q0.796875 0.421875 1.234375 1.15625q0.453125 0.71875 0.453125 1.578125q0 1.734375 -1.75 3.46875q-0.703125 0.703125 -1.578125 1.59375q-0.90625 0.875 -1.359375 1.359375l0.015625 0.046875l4.796875 0l0 1.5625l-7.09375 0l0 -1.625zm9.984146 1.71875q-0.515625 0 -0.875 -0.34375q-0.34375 -0.359375 -0.34375 -0.859375q0 -0.484375 0.34375 -0.828125q0.359375 -0.359375 0.875 -0.359375q0.515625 0 0.859375 0.34375q0.34375 0.34375 0.34375 0.84375q0 0.5 -0.34375 0.859375q-0.34375 0.34375 -0.859375 0.34375zm6.598259 0.15625q-0.8125 0 -1.59375 -0.328125q-0.78125 -0.328125 -1.3750076 -0.984375q-0.578125 -0.671875 -0.8125 -1.640625l1.5468826 -0.609375q0.234375 0.890625 0.796875 1.421875q0.5625 0.53125 1.421875 0.53125q0.90625 0 1.5 -0.578125q0.609375 -0.59375 0.609375 -1.5q0 -0.921875 -0.59375 -1.515625q-0.578125 -0.59375 -1.5 -0.59375q-0.53125 0 -0.984375 0.234375q-0.453125 0.21875 -0.75 0.625l-1.6875076 -0.75l0.65625 -5.5l5.9062576 0l0 1.5625l-4.484375 0l-0.421875 2.9375l0.09375 0.015625q0.875 -0.6875 2.0 -0.6875q0.9375 0 1.734375 0.46875q0.796875 0.46875 1.265625 1.296875q0.484375 0.828125 0.484375 1.890625q0 1.046875 -0.5 1.90625q-0.484375 0.84375 -1.359375 1.328125q-0.875 0.46875 -1.953125 0.46875zm4.684021 -0.25l0 0zm7.712387 0.25q-1.390625 0 -2.296875 -0.59375q-0.90625 -0.609375 -1.265625 -1.59375l1.546875 -0.671875q0.28125 0.65625 0.8125 1.0q0.53125 0.34375 1.203125 0.34375q0.6875 0 1.140625 -0.25q0.46875 -0.25 0.46875 -0.734375q0 -0.453125 -0.390625 -0.71875q-0.390625 -0.265625 -1.21875 -0.453125l-0.96875 -0.21875q-0.984375 -0.25 -1.625 -0.859375q-0.640625 -0.609375 -0.640625 -1.53125q0 -0.703125 0.421875 -1.25q0.421875 -0.546875 1.140625 -0.84375q0.71875 -0.296875 1.5625 -0.296875q1.15625 0 2.0 0.453125q0.859375 0.453125 1.25 1.3125l-1.5 0.671875q-0.484375 -0.96875 -1.734375 -0.96875q-0.609375 0 -1.015625 0.25q-0.40625 0.25 -0.40625 0.640625q0 0.71875 1.25 1.03125l1.171875 0.296875q1.203125 0.296875 1.8125 0.90625q0.625 0.609375 0.625 1.515625q0 0.765625 -0.4375 1.34375q-0.4375 0.578125 -1.21875 0.90625q-0.765625 0.3125 -1.6875 0.3125zm8.654022 0q-1.1875 0 -2.140625 -0.546875q-0.953125 -0.5625 -1.484375 -1.546875q-0.53125 -0.984375 -0.53125 -2.21875q0 -1.171875 0.515625 -2.171875q0.515625 -1.0 1.4375 -1.59375q0.9375 -0.59375 2.109375 -0.59375q1.234375 0 2.125 0.546875q0.890625 0.53125 1.359375 1.484375q0.484375 0.9375 0.484375 2.140625q0 0.3125 -0.03125 0.53125l-6.3125 0q0.125 1.171875 0.84375 1.8125q0.71875 0.625 1.671875 0.625q0.78125 0 1.34375 -0.359375q0.5625 -0.359375 0.90625 -0.953125l1.421875 0.6875q-0.5625 1.015625 -1.5 1.59375q-0.921875 0.5625 -2.21875 0.5625zm2.15625 -5.265625q-0.03125 -0.4375 -0.28125 -0.890625q-0.25 -0.453125 -0.75 -0.734375q-0.484375 -0.296875 -1.203125 -0.296875q-0.859375 0 -1.46875 0.53125q-0.59375 0.515625 -0.8125 1.390625l4.515625 0zm7.170639 5.265625q-1.21875 0 -2.1875 -0.546875q-0.953125 -0.5625 -1.484375 -1.546875q-0.53125 -0.984375 -0.53125 -2.234375q0 -1.25 0.53125 -2.234375q0.53125 -0.984375 1.484375 -1.546875q0.96875 -0.5625 2.1875 -0.5625q1.34375 0 2.28125 0.609375q0.9375 0.59375 1.359375 1.65625l-1.578125 0.640625q-0.578125 -1.3125 -2.09375 -1.3125q-0.671875 0 -1.25 0.34375q-0.5625 0.34375 -0.890625 0.96875q-0.328125 0.625 -0.328125 1.4375q0 0.8125 0.328125 1.4375q0.328125 0.625 0.890625 0.96875q0.578125 0.34375 1.25 0.34375q0.765625 0 1.3125 -0.34375q0.5625 -0.34375 0.859375 -1.0l1.5625 0.671875q-0.484375 1.046875 -1.4375 1.65625q-0.9375 0.59375 -2.265625 0.59375z" fill-rule="nonzero"/><path fill="#000000" fill-opacity="0.0" d="m139.2 285.0754l0 -28.566925" fill-rule="evenodd"/><path stroke="#434343" stroke-width="2.0" stroke-linejoin="round" stroke-linecap="butt" d="m139.2 285.0754l0 -20.986938" fill-rule="evenodd"/><path fill="#434343" stroke="#434343" stroke-width="2.0" stroke-linecap="butt" d="m139.2 257.50848c1.8170166 0 3.2899933 1.4729614 3.2899933 3.289978c0 1.8170166 -1.4729767 3.2900085 -3.2899933 3.2900085c-1.8170166 0 -3.2899933 -1.472992 -3.2899933 -3.2900085c0 -1.8170166 1.4729767 -3.289978 3.2899933 -3.289978z" fill-rule="nonzero"/><path fill="#000000" fill-opacity="0.0" d="m48.00492 158.4l288.0 0l0 28.787415l-288.0 0z" fill-rule="evenodd"/><path fill="#666666" d="m85.778755 165.6812l1.703125 0l0 12.6875l6.265625 0l0 1.625l-7.96875 0l0 -14.3125zm13.101868 14.625q-1.109375 0 -2.0 -0.4375q-0.875 -0.4375 -1.359375 -1.203125q-0.46875 -0.765625 -0.46875 -1.75q0 -1.625 1.21875 -2.53125q1.21875 -0.90625 3.078125 -0.90625q0.921875 0 1.703125 0.203125q0.796875 0.1875 1.21875 0.453125l0 -0.625q0 -1.140625 -0.8125 -1.828125q-0.796875 -0.6875 -2.015625 -0.6875q-0.84375 0 -1.578125 0.375q-0.71875 0.359375 -1.140625 1.03125l-1.28125 -0.96875q0.609375 -0.921875 1.65625 -1.4375q1.0625 -0.515625 2.34375 -0.515625q2.078125 0 3.25 1.09375q1.1875 1.078125 1.1875 2.96875l0 6.453125l-1.609375 0l0 -1.453125l-0.09375 0q-0.4375 0.734375 -1.3125 1.25q-0.875 0.515625 -1.984375 0.515625zm0.171875 -1.5q0.859375 0 1.59375 -0.4375q0.734375 -0.4375 1.171875 -1.171875q0.453125 -0.75 0.453125 -1.625q-0.484375 -0.3125 -1.1875 -0.515625q-0.703125 -0.203125 -1.484375 -0.203125q-1.390625 0 -2.109375 0.578125q-0.703125 0.578125 -0.703125 1.5q0 0.84375 0.640625 1.359375q0.640625 0.515625 1.625 0.515625zm7.19812 -9.015625l1.609375 0l0 1.640625l0.078125 0q0.3125 -0.84375 1.171875 -1.390625q0.859375 -0.546875 1.796875 -0.546875q0.703125 0 1.203125 0.203125l0 1.84375q-0.640625 -0.328125 -1.4375 -0.328125q-0.75 0 -1.375 0.421875q-0.609375 0.421875 -0.984375 1.140625q-0.375 0.703125 -0.375 1.515625l0 5.703125l-1.6875 0l0 -10.203125zm11.46875 14.84375q-1.796875 0 -2.96875 -0.84375q-1.171875 -0.84375 -1.5625 -2.015625l1.5625 -0.65625q0.3125 0.875 1.09375 1.421875q0.796875 0.546875 1.875 0.546875q1.578125 0 2.453125 -0.921875q0.875 -0.90625 0.875 -2.59375l0 -1.140625l-0.078125 0q-0.5 0.78125 -1.421875 1.28125q-0.90625 0.484375 -2.0625 0.484375q-1.3125 0 -2.40625 -0.671875q-1.09375 -0.6875 -1.734375 -1.90625q-0.640625 -1.21875 -0.640625 -2.78125q0 -1.546875 0.640625 -2.765625q0.640625 -1.234375 1.734375 -1.90625q1.09375 -0.6875 2.40625 -0.6875q1.15625 0 2.0625 0.484375q0.921875 0.484375 1.421875 1.296875l0.078125 0l0 -1.46875l1.625 0l0 9.796875q0 2.46875 -1.375 3.75q-1.359375 1.296875 -3.578125 1.296875zm0 -5.984375q0.921875 0 1.671875 -0.453125q0.75 -0.46875 1.203125 -1.328125q0.453125 -0.859375 0.453125 -2.03125q0 -1.203125 -0.453125 -2.0625q-0.453125 -0.859375 -1.203125 -1.3125q-0.75 -0.453125 -1.671875 -0.453125q-0.921875 0 -1.6875 0.46875q-0.75 0.453125 -1.203125 1.3125q-0.4375 0.859375 -0.4375 2.046875q0 1.171875 0.4375 2.046875q0.453125 0.875 1.203125 1.328125q0.765625 0.4375 1.6875 0.4375zm11.902489 1.65625q-1.453125 0 -2.6250076 -0.6875q-1.15625 -0.703125 -1.8125 -1.9375q-0.640625 -1.234375 -0.640625 -2.765625q0 -1.46875 0.609375 -2.71875q0.609375 -1.25 1.734375 -1.984375q1.1406326 -0.734375 2.5937576 -0.734375q1.5 0 2.59375 0.671875q1.109375 0.65625 1.703125 1.84375q0.59375 1.1875 0.59375 2.703125q0 0.234375 -0.046875 0.515625l-8.078133 0q0.0625 1.15625 0.5625 1.96875q0.5 0.796875 1.2656326 1.203125q0.765625 0.390625 1.609375 0.390625q2.0 0 3.015625 -1.84375l1.4375 0.703125q-0.625 1.21875 -1.765625 1.953125q-1.140625 0.71875 -2.75 0.71875zm2.9375 -6.5q-0.03125 -0.625 -0.359375 -1.265625q-0.3125 -0.640625 -1.0 -1.078125q-0.671875 -0.453125 -1.71875 -0.453125q-1.203125 0 -2.0468826 0.78125q-0.828125 0.765625 -1.09375 2.015625l6.2187576 0zm7.4381256 6.5q-1.625 0 -2.734375 -0.765625q-1.09375 -0.765625 -1.5625 -1.96875l1.53125 -0.671875q0.375 0.90625 1.125 1.40625q0.75 0.5 1.640625 0.5q0.96875 0 1.640625 -0.375q0.6875 -0.390625 0.6875 -1.125q0 -0.625 -0.546875 -1.015625q-0.53125 -0.390625 -1.6875 -0.671875l-1.25 -0.328125q-1.21875 -0.296875 -2.0 -1.015625q-0.78125 -0.71875 -0.78125 -1.859375q0 -0.875 0.53125 -1.546875q0.53125 -0.671875 1.40625 -1.03125q0.890625 -0.359375 1.90625 -0.359375q1.34375 0 2.390625 0.578125q1.046875 0.578125 1.484375 1.625l-1.46875 0.671875q-0.6875 -1.359375 -2.421875 -1.359375q-0.84375 0 -1.484375 0.390625q-0.625 0.390625 -0.625 0.984375q0 0.5625 0.4375 0.921875q0.453125 0.34375 1.328125 0.5625l1.484375 0.375q1.5 0.390625 2.25 1.140625q0.765625 0.75 0.765625 1.828125q0 0.9375 -0.546875 1.65625q-0.53125 0.703125 -1.453125 1.078125q-0.921875 0.375 -2.046875 0.375zm9.734985 -0.15625q-0.625 0 -1.15625 -0.1875q-0.53125 -0.203125 -0.890625 -0.546875q-0.796875 -0.765625 -0.796875 -2.109375l0 -5.96875l-1.78125 0l0 -1.546875l1.78125 0l0 -2.875l1.703125 0l0 2.875l2.5 0l0 1.546875l-2.5 0l0 5.5625q0 0.828125 0.3125 1.234375q0.375 0.4375 1.09375 0.4375q0.625 0 1.125 -0.34375l0 1.671875q-0.296875 0.140625 -0.609375 0.1875q-0.3125 0.0625 -0.78125 0.0625zm2.132492 -0.15625l0 0zm12.5525055 0.3125q-2.078125 0 -3.78125 -0.96875q-1.6875 -0.984375 -2.65625 -2.6875q-0.96875 -1.71875 -0.96875 -3.8125q0 -2.109375 0.96875 -3.8125q0.96875 -1.71875 2.65625 -2.6875q1.703125 -0.984375 3.78125 -0.984375q1.609375 0 2.9375 0.609375q1.328125 0.59375 2.3125 1.734375l-1.21875 1.171875q-0.828125 -0.96875 -1.796875 -1.421875q-0.96875 -0.46875 -2.234375 -0.46875q-1.546875 0 -2.859375 0.734375q-1.296875 0.71875 -2.0625 2.046875q-0.765625 1.328125 -0.765625 3.078125q0 1.734375 0.765625 3.0625q0.765625 1.328125 2.0625 2.0625q1.3125 0.734375 2.859375 0.734375q2.609375 0 4.421875 -2.140625l1.25 1.203125q-0.984375 1.171875 -2.453125 1.859375q-1.46875 0.6875 -3.21875 0.6875zm12.060623 0q-1.5 0 -2.703125 -0.71875q-1.1875 -0.71875 -1.859375 -1.953125q-0.671875 -1.234375 -0.671875 -2.734375q0 -1.5 0.671875 -2.734375q0.671875 -1.25 1.859375 -1.96875q1.203125 -0.71875 2.703125 -0.71875q1.5 0 2.703125 0.71875q1.203125 0.71875 1.875 1.96875q0.671875 1.234375 0.671875 2.734375q0 1.5 -0.671875 2.734375q-0.671875 1.234375 -1.875 1.953125q-1.203125 0.71875 -2.703125 0.71875zm0 -1.53125q0.953125 0 1.75 -0.46875q0.8125 -0.46875 1.296875 -1.34375q0.5 -0.890625 0.5 -2.0625q0 -1.1875 -0.5 -2.0625q-0.484375 -0.890625 -1.296875 -1.359375q-0.796875 -0.46875 -1.75 -0.46875q-0.9375 0 -1.765625 0.46875q-0.8125 0.46875 -1.296875 1.359375q-0.484375 0.875 -0.484375 2.0625q0 1.171875 0.484375 2.0625q0.484375 0.875 1.296875 1.34375q0.828125 0.46875 1.765625 0.46875zm7.032486 -8.984375l1.609375 0l0 1.5l0.078125 0q0.421875 -0.75 1.34375 -1.28125q0.921875 -0.53125 1.96875 -0.53125q1.828125 0 2.796875 1.078125q0.984375 1.0625 0.984375 2.890625l0 6.546875l-1.703125 0l0 -6.28125q0 -1.421875 -0.6875 -2.0625q-0.671875 -0.640625 -1.859375 -0.640625q-0.8125 0 -1.46875 0.46875q-0.640625 0.453125 -1.015625 1.203125q-0.359375 0.75 -0.359375 1.578125l0 5.734375l-1.6875 0l0 -10.203125zm14.641861 10.359375q-0.625 0 -1.15625 -0.1875q-0.53125 -0.203125 -0.890625 -0.546875q-0.796875 -0.765625 -0.796875 -2.109375l0 -5.96875l-1.78125 0l0 -1.546875l1.78125 0l0 -2.875l1.703125 0l0 2.875l2.5 0l0 1.546875l-2.5 0l0 5.5625q0 0.828125 0.3125 1.234375q0.375 0.4375 1.09375 0.4375q0.625 0 1.125 -0.34375l0 1.671875q-0.296875 0.140625 -0.609375 0.1875q-0.3125 0.0625 -0.78125 0.0625zm7.4893646 0.15625q-1.453125 0 -2.625 -0.6875q-1.15625 -0.703125 -1.8125 -1.9375q-0.640625 -1.234375 -0.640625 -2.765625q0 -1.46875 0.609375 -2.71875q0.609375 -1.25 1.734375 -1.984375q1.140625 -0.734375 2.59375 -0.734375q1.5 0 2.59375 0.671875q1.109375 0.65625 1.703125 1.84375q0.59375 1.1875 0.59375 2.703125q0 0.234375 -0.046875 0.515625l-8.078125 0q0.0625 1.15625 0.5625 1.96875q0.5 0.796875 1.265625 1.203125q0.765625 0.390625 1.609375 0.390625q2.0 0 3.015625 -1.84375l1.4375 0.703125q-0.625 1.21875 -1.765625 1.953125q-1.140625 0.71875 -2.75 0.71875zm2.9375 -6.5q-0.03125 -0.625 -0.359375 -1.265625q-0.3125 -0.640625 -1.0 -1.078125q-0.671875 -0.453125 -1.71875 -0.453125q-1.203125 0 -2.046875 0.78125q-0.828125 0.765625 -1.09375 2.015625l6.21875 0zm3.7912445 -4.015625l1.609375 0l0 1.5l0.078125 0q0.421875 -0.75 1.34375 -1.28125q0.921875 -0.53125 1.96875 -0.53125q1.828125 0 2.796875 1.078125q0.984375 1.0625 0.984375 2.890625l0 6.546875l-1.703125 0l0 -6.28125q0 -1.421875 -0.6875 -2.0625q-0.671875 -0.640625 -1.859375 -0.640625q-0.8125 0 -1.46875 0.46875q-0.640625 0.453125 -1.015625 1.203125q-0.359375 0.75 -0.359375 1.578125l0 5.734375l-1.6875 0l0 -10.203125zm14.641861 10.359375q-0.625 0 -1.15625 -0.1875q-0.53125 -0.203125 -0.890625 -0.546875q-0.796875 -0.765625 -0.796875 -2.109375l0 -5.96875l-1.78125 0l0 -1.546875l1.78125 0l0 -2.875l1.703125 0l0 2.875l4.640625 0l0 -1.09375q0 -0.96875 0.421875 -1.6875q0.4375 -0.71875 1.1875 -1.109375q0.75 -0.390625 1.640625 -0.390625q0.828125 0 1.5 0.25l0 1.65625q-0.390625 -0.15625 -0.703125 -0.234375q-0.3125 -0.09375 -0.75 -0.09375q-0.671875 0 -1.15625 0.484375q-0.46875 0.46875 -0.46875 1.296875l0 0.921875l2.625 0l0 1.546875l-2.625 0l0 8.65625l-1.671875 0l0 -8.65625l-4.640625 0l0 5.5625q0 0.828125 0.3125 1.234375q0.375 0.4375 1.09375 0.4375q0.625 0 1.125 -0.34375l0 1.671875q-0.296875 0.140625 -0.609375 0.1875q-0.3125 0.0625 -0.78125 0.0625zm13.38562 0.15625q-1.828125 0 -2.796875 -1.078125q-0.96875 -1.078125 -0.96875 -3.015625l0 -6.421875l1.6875 0l0 6.15625q0 1.46875 0.65625 2.15625q0.671875 0.671875 1.78125 0.671875q0.875 0 1.53125 -0.453125q0.671875 -0.46875 1.046875 -1.203125q0.375 -0.75 0.375 -1.5625l0 -5.765625l1.6875 0l0 10.203125l-1.609375 0l0 -1.484375l-0.078125 0q-0.421875 0.765625 -1.34375 1.28125q-0.921875 0.515625 -1.96875 0.515625zm7.532486 -14.625l1.6875 0l0 14.3125l-1.6875 0l0 -14.3125zm2.9543762 14.3125l0 0zm6.233734 -14.3125l4.828125 0q1.203125 0 2.21875 0.546875q1.015625 0.53125 1.625 1.5q0.609375 0.96875 0.609375 2.1875q0 1.21875 -0.609375 2.1875q-0.609375 0.96875 -1.625 1.515625q-1.015625 0.53125 -2.21875 0.53125l-3.125 0l0 5.84375l-1.703125 0l0 -14.3125zm4.859375 6.859375q0.8125 0 1.421875 -0.375q0.609375 -0.390625 0.9375 -0.984375q0.34375 -0.609375 0.34375 -1.265625q0 -0.65625 -0.34375 -1.25q-0.328125 -0.609375 -0.9375 -0.984375q-0.609375 -0.390625 -1.421875 -0.390625l-3.15625 0l0 5.25l3.15625 0zm9.182495 7.765625q-1.109375 0 -2.0 -0.4375q-0.875 -0.4375 -1.359375 -1.203125q-0.46875 -0.765625 -0.46875 -1.75q0 -1.625 1.21875 -2.53125q1.21875 -0.90625 3.078125 -0.90625q0.921875 0 1.703125 0.203125q0.796875 0.1875 1.21875 0.453125l0 -0.625q0 -1.140625 -0.8125 -1.828125q-0.796875 -0.6875 -2.015625 -0.6875q-0.84375 0 -1.578125 0.375q-0.71875 0.359375 -1.140625 1.03125l-1.28125 -0.96875q0.609375 -0.921875 1.65625 -1.4375q1.0625 -0.515625 2.34375 -0.515625q2.078125 0 3.25 1.09375q1.1875 1.078125 1.1875 2.96875l0 6.453125l-1.609375 0l0 -1.453125l-0.09375 0q-0.4375 0.734375 -1.3125 1.25q-0.875 0.515625 -1.984375 0.515625zm0.171875 -1.5q0.859375 0 1.59375 -0.4375q0.734375 -0.4375 1.171875 -1.171875q0.453125 -0.75 0.453125 -1.625q-0.484375 -0.3125 -1.1875 -0.515625q-0.703125 -0.203125 -1.484375 -0.203125q-1.390625 0 -2.109375 0.578125q-0.703125 0.578125 -0.703125 1.5q0 0.84375 0.640625 1.359375q0.640625 0.515625 1.625 0.515625zm8.19812 -10.890625q-0.5 0 -0.859375 -0.359375q-0.359375 -0.359375 -0.359375 -0.859375q0 -0.515625 0.359375 -0.859375q0.359375 -0.359375 0.859375 -0.359375q0.515625 0 0.859375 0.359375q0.359375 0.34375 0.359375 0.859375q0 0.5 -0.359375 0.859375q-0.34375 0.359375 -0.859375 0.359375zm-0.84375 1.875l1.703125 0l0 10.203125l-1.703125 0l0 -10.203125zm4.363739 0l1.609375 0l0 1.5l0.078125 0q0.421875 -0.75 1.34375 -1.28125q0.921875 -0.53125 1.96875 -0.53125q1.828125 0 2.796875 1.078125q0.984375 1.0625 0.984375 2.890625l0 6.546875l-1.703125 0l0 -6.28125q0 -1.421875 -0.6875 -2.0625q-0.671875 -0.640625 -1.859375 -0.640625q-0.8125 0 -1.46875 0.46875q-0.640625 0.453125 -1.015625 1.203125q-0.359375 0.75 -0.359375 1.578125l0 5.734375l-1.6875 0l0 -10.203125zm14.641876 10.359375q-0.625 0 -1.15625 -0.1875q-0.53125 -0.203125 -0.890625 -0.546875q-0.796875 -0.765625 -0.796875 -2.109375l0 -5.96875l-1.78125 0l0 -1.546875l1.78125 0l0 -2.875l1.703125 0l0 2.875l2.5 0l0 1.546875l-2.5 0l0 5.5625q0 0.828125 0.3125 1.234375q0.375 0.4375 1.09375 0.4375q0.625 0 1.125 -0.34375l0 1.671875q-0.296875 0.140625 -0.609375 0.1875q-0.3125 0.0625 -0.78125 0.0625z" fill-rule="nonzero"/><path fill="#000000" fill-opacity="0.0" d="m244.8 284.57184l0 -28.283447" fill-rule="evenodd"/><path stroke="#434343" stroke-width="2.0" stroke-linejoin="round" stroke-linecap="butt" d="m244.79999 284.57184l0 -20.70346" fill-rule="evenodd"/><path fill="#434343" stroke="#434343" stroke-width="2.0" stroke-linecap="butt" d="m244.79999 257.2884c1.8170166 0 3.2900085 1.472992 3.2900085 3.2900085c0 1.8170166 -1.472992 3.289978 -3.2900085 3.289978c-1.8170166 0 -3.2899933 -1.4729614 -3.2899933 -3.289978c0 -1.8170166 1.4729767 -3.2900085 3.2899933 -3.2900085z" fill-rule="nonzero"/></g></svg>