<svg version="1.1" viewBox="0.0 0.0 384.0 288.0" fill="none" stroke="none" stroke-linecap="square" stroke-miterlimit="10" xmlns:xlink="http://www.w3.org/1999/xlink" xmlns="http://www.w3.org/2000/svg"><clipPath id="p.0"><path d="m0 0l384.0 0l0 288.0l-384.0 0l0 -288.0z" clip-rule="nonzero"/></clipPath><g clip-path="url(#p.0)"><path fill="#000000" fill-opacity="0.0" d="m0 0l384.0 0l0 288.0l-384.0 0z" fill-rule="evenodd"/><path fill="#000000" fill-opacity="0.0" d="m47.99836 48.0l288.0 0l0 96.0l-288.0 0z" fill-rule="evenodd"/><path fill="#2979ff" d="m122.72093 67.518745l10.796875 0l0 47.046875l24.234375 0l0 10.234375l-35.03125 0l0 -57.28125zm70.00496 58.5625q-8.328125 0 -15.21875 -3.953125q-6.875 -3.96875 -10.828125 -10.796875q-3.953125 -6.84375 -3.953125 -15.171875q0 -8.3125 3.953125 -15.15625q3.953125 -6.84375 10.828125 -10.796875q6.890625 -3.96875 15.21875 -3.96875q12.953125 0 21.4375 9.359375l-7.609375 7.359375q-5.515625 -6.46875 -13.75 -6.46875q-5.359375 0 -9.765625 2.4375q-4.40625 2.4375 -6.921875 6.921875q-2.515625 4.46875 -2.515625 10.3125q0 5.84375 2.515625 10.328125q2.515625 4.46875 6.921875 6.921875q4.40625 2.4375 9.765625 2.4375q9.03125 0 15.109375 -7.53125l7.6875 7.28125q-4.25 5.125 -10.046875 7.8125q-5.796875 2.671875 -12.828125 2.671875zm32.87494 -58.5625l20.15625 0q5.4375 0 9.921875 2.28125q4.484375 2.28125 7.03125 6.40625q2.5625 4.109375 2.5625 9.390625q0 5.28125 -2.5625 9.453125q-2.546875 4.15625 -7.03125 6.4375q-4.484375 2.265625 -9.921875 2.265625l-9.359375 0l0 21.046875l-10.796875 0l0 -57.28125zm20.484375 26.0q4.0 0 6.265625 -2.3125q2.28125 -2.328125 2.28125 -5.609375q0 -3.28125 -2.28125 -5.5625q-2.265625 -2.28125 -6.265625 -2.28125l-9.6875 0l0 15.765625l9.6875 0z" fill-rule="nonzero"/><path fill="#0cce6b" d="m47.99836 182.40137l95.99999 0l0 38.393692l-95.99999 0z" fill-rule="evenodd"/><path fill="#000000" d="m83.63084 205.51009q-1.078125 0 -1.984375 -0.515625q-0.90625 -0.53125 -1.4375 -1.4375q-0.53125 -0.921875 -0.53125 -2.03125q0 -1.109375 0.53125 -2.015625q0.53125 -0.921875 1.4375 -1.4375q0.90625 -0.53125 1.984375 -0.53125q0.84375 0 1.578125 0.296875q0.734375 0.296875 1.21875 0.84375l-0.640625 0.640625q-0.375 -0.4375 -0.9375 -0.671875q-0.5625 -0.25 -1.21875 -0.25q-0.796875 0 -1.5 0.390625q-0.703125 0.390625 -1.125 1.109375q-0.421875 0.703125 -0.421875 1.625q0 0.921875 0.421875 1.640625q0.421875 0.703125 1.125 1.09375q0.703125 0.390625 1.5 0.390625q0.78125 0 1.296875 -0.234375q0.515625 -0.25 0.890625 -0.640625q0.265625 -0.296875 0.4375 -0.71875q0.171875 -0.421875 0.21875 -0.9375l-2.828125 0l0 -0.84375l3.671875 0q0.046875 0.296875 0.046875 0.5625q0 0.703125 -0.234375 1.375q-0.21875 0.65625 -0.703125 1.15625q-1.046875 1.140625 -2.796875 1.140625zm8.616745 0q-1.09375 0 -2.0 -0.53125q-0.890625 -0.53125 -1.40625 -1.453125q-0.5 -0.921875 -0.5 -2.0q0 -1.09375 0.5 -2.0q0.515625 -0.921875 1.40625 -1.453125q0.90625 -0.53125 2.0 -0.53125q1.09375 0 1.984375 0.53125q0.90625 0.53125 1.40625 1.453125q0.515625 0.90625 0.515625 2.0q0 1.078125 -0.515625 2.0q-0.5 0.921875 -1.40625 1.453125q-0.890625 0.53125 -1.984375 0.53125zm0 -0.859375q0.828125 0 1.5 -0.390625q0.6875 -0.40625 1.09375 -1.109375q0.40625 -0.71875 0.40625 -1.625q0 -0.90625 -0.40625 -1.609375q-0.40625 -0.71875 -1.09375 -1.109375q-0.671875 -0.40625 -1.5 -0.40625q-0.828125 0 -1.515625 0.40625q-0.6875 0.390625 -1.09375 1.109375q-0.390625 0.703125 -0.390625 1.609375q0 0.90625 0.390625 1.625q0.40625 0.703125 1.09375 1.109375q0.6875 0.390625 1.515625 0.390625zm8.674164 0.859375q-1.09375 0 -2.0 -0.53125q-0.890625 -0.53125 -1.40625 -1.453125q-0.5 -0.921875 -0.5 -2.0q0 -1.09375 0.5 -2.0q0.515625 -0.921875 1.40625 -1.453125q0.90625 -0.53125 2.0 -0.53125q1.09375 0 1.984375 0.53125q0.90625 0.53125 1.40625 1.453125q0.515625 0.90625 0.515625 2.0q0 1.078125 -0.515625 2.0q-0.5 0.921875 -1.40625 1.453125q-0.890625 0.53125 -1.984375 0.53125zm0 -0.859375q0.828125 0 1.5 -0.390625q0.6875 -0.40625 1.09375 -1.109375q0.40625 -0.71875 0.40625 -1.625q0 -0.90625 -0.40625 -1.609375q-0.40625 -0.71875 -1.09375 -1.109375q-0.671875 -0.40625 -1.5 -0.40625q-0.828125 0 -1.515625 0.40625q-0.6875 0.390625 -1.09375 1.109375q-0.390625 0.703125 -0.390625 1.609375q0 0.90625 0.390625 1.625q0.40625 0.703125 1.09375 1.109375q0.6875 0.390625 1.515625 0.390625zm5.249588 -6.9375l2.296875 0q1.171875 0 2.046875 0.484375q0.875 0.484375 1.34375 1.34375q0.46875 0.859375 0.46875 1.984375q0 1.109375 -0.46875 1.984375q-0.46875 0.859375 -1.34375 1.34375q-0.875 0.484375 -2.046875 0.484375l-2.296875 0l0 -7.625zm2.296875 6.765625q1.34375 0 2.140625 -0.78125q0.796875 -0.78125 0.796875 -2.171875q0 -1.40625 -0.796875 -2.171875q-0.796875 -0.78125 -2.140625 -0.78125l-1.390625 0l0 5.90625l1.390625 0z" fill-rule="nonzero"/><path fill="#ffa400" d="m143.99518 182.4013l96.0 0l0 38.393707l-96.0 0z" fill-rule="evenodd"/><path fill="#000000" d="m176.47038 191.21317l1.09375 0l3.828125 6.0625l0.046875 0l-0.046875 -1.46875l0 -4.59375l0.90625 0l0 7.625l-0.9375 0l-3.984375 -6.359375l-0.046875 0l0.046875 1.46875l0 4.890625l-0.90625 0l0 -7.625zm7.5447083 0l4.40625 0l0 0.859375l-3.5 0l0 2.53125l3.15625 0l0 0.84375l-3.15625 0l0 2.53125l3.5 0l0 0.859375l-4.40625 0l0 -7.625zm5.8716583 0l4.40625 0l0 0.859375l-3.5 0l0 2.53125l3.15625 0l0 0.84375l-3.15625 0l0 2.53125l3.5 0l0 0.859375l-4.40625 0l0 -7.625zm5.8716583 0l2.296875 0q1.171875 0 2.046875 0.484375q0.875 0.484375 1.34375 1.34375q0.46875 0.859375 0.46875 1.984375q0 1.109375 -0.46875 1.984375q-0.46875 0.859375 -1.34375 1.34375q-0.875 0.484375 -2.046875 0.484375l-2.296875 0l0 -7.625zm2.296875 6.765625q1.34375 0 2.140625 -0.78125q0.796875 -0.78125 0.796875 -2.171875q0 -1.40625 -0.796875 -2.171875q-0.796875 -0.78125 -2.140625 -0.78125l-1.390625 0l0 5.90625l1.390625 0zm7.3195496 1.03125q-0.578125 0 -1.125 -0.234375q-0.53125 -0.25 -0.953125 -0.703125q-0.40625 -0.46875 -0.59375 -1.125l0.875 -0.359375q0.171875 0.6875 0.65625 1.125q0.5 0.4375 1.15625 0.4375q0.671875 0 1.125 -0.359375q0.453125 -0.359375 0.453125 -0.984375q0 -0.53125 -0.390625 -0.875q-0.390625 -0.34375 -1.265625 -0.640625l-0.484375 -0.171875q-0.8125 -0.28125 -1.328125 -0.75q-0.5 -0.46875 -0.5 -1.3125q0 -0.53125 0.296875 -1.0q0.296875 -0.46875 0.828125 -0.734375q0.53125 -0.28125 1.203125 -0.28125q0.65625 0 1.140625 0.25q0.5 0.234375 0.78125 0.59375q0.296875 0.34375 0.421875 0.6875l-0.84375 0.359375q-0.125 -0.390625 -0.5 -0.703125q-0.375 -0.328125 -1.0 -0.328125q-0.578125 0 -1.0 0.328125q-0.40625 0.328125 -0.40625 0.828125q0 0.453125 0.34375 0.734375q0.359375 0.28125 1.0625 0.53125l0.5 0.171875q0.96875 0.34375 1.515625 0.875q0.546875 0.53125 0.546875 1.4375q0 0.734375 -0.390625 1.234375q-0.375 0.5 -0.953125 0.734375q-0.5625 0.234375 -1.171875 0.234375zm3.0045013 -0.171875l0 0z" fill-rule="nonzero"/><path fill="#000000" d="m156.02632 204.21317l0.90625 0l0 7.625l-0.90625 0l0 -7.625zm2.6108093 0l1.296875 0l2.4375 6.25l0.046875 0l2.421875 -6.25l1.3125 0l0 7.625l-0.890625 0l0 -4.84375l0.03125 -1.453125l-0.03125 0l-2.5 6.296875l-0.75 0l-2.484375 -6.296875l-0.046875 0l0.046875 1.453125l0 4.84375l-0.890625 0l0 -7.625zm9.228409 0l2.5625 0q0.640625 0 1.171875 0.296875q0.546875 0.28125 0.875 0.796875q0.328125 0.515625 0.328125 1.15625q0 0.65625 -0.328125 1.171875q-0.328125 0.515625 -0.875 0.8125q-0.53125 0.28125 -1.171875 0.28125l-1.65625 0l0 3.109375l-0.90625 0l0 -7.625zm2.578125 3.65625q0.4375 0 0.75 -0.203125q0.328125 -0.203125 0.5 -0.515625q0.1875 -0.328125 0.1875 -0.6875q0 -0.34375 -0.1875 -0.65625q-0.171875 -0.328125 -0.5 -0.53125q-0.3125 -0.203125 -0.75 -0.203125l-1.671875 0l0 2.796875l1.671875 0zm3.5599365 -3.65625l2.578125 0q0.625 0 1.15625 0.296875q0.546875 0.28125 0.875 0.796875q0.328125 0.515625 0.328125 1.15625q0 0.53125 -0.25 1.0q-0.234375 0.453125 -0.65625 0.765625q-0.421875 0.3125 -0.921875 0.40625l-0.03125 0.03125l2.15625 3.125l0 0.046875l-1.0625 0l-2.078125 -3.109375l-1.1875 0l0 3.109375l-0.90625 0l0 -7.625zm2.515625 3.671875q0.390625 0 0.734375 -0.171875q0.359375 -0.1875 0.5625 -0.515625q0.203125 -0.328125 0.203125 -0.734375q0 -0.34375 -0.1875 -0.65625q-0.171875 -0.328125 -0.5 -0.53125q-0.3125 -0.203125 -0.75 -0.203125l-1.671875 0l0 2.8125l1.609375 0zm7.260254 4.125q-1.09375 0 -2.0 -0.53125q-0.890625 -0.53125 -1.40625 -1.453125q-0.5 -0.921875 -0.5 -2.0q0 -1.09375 0.5 -2.0q0.515625 -0.921875 1.40625 -1.453125q0.90625 -0.53125 2.0 -0.53125q1.09375 0 1.984375 0.53125q0.90625 0.53125 1.40625 1.453125q0.515625 0.90625 0.515625 2.0q0 1.078125 -0.515625 2.0q-0.5 0.921875 -1.40625 1.453125q-0.890625 0.53125 -1.984375 0.53125zm0 -0.859375q0.828125 0 1.5 -0.390625q0.6875 -0.40625 1.09375 -1.109375q0.40625 -0.71875 0.40625 -1.625q0 -0.90625 -0.40625 -1.609375q-0.40625 -0.71875 -1.09375 -1.109375q-0.671875 -0.40625 -1.5 -0.40625q-0.828125 0 -1.515625 0.40625q-0.6875 0.390625 -1.09375 1.109375q-0.390625 0.703125 -0.390625 1.609375q0 0.90625 0.390625 1.625q0.40625 0.703125 1.09375 1.109375q0.6875 0.390625 1.515625 0.390625zm4.2264557 -6.9375l1.0 0l1.875 5.53125l0.265625 0.75l0.03125 0l0.28125 -0.75l1.96875 -5.53125l1.0 0l-2.796875 7.625l-0.921875 0l-2.703125 -7.625zm7.427292 0l4.40625 0l0 0.859375l-3.5 0l0 2.53125l3.15625 0l0 0.84375l-3.15625 0l0 2.53125l3.5 0l0 0.859375l-4.40625 0l0 -7.625zm5.8716583 0l1.296875 0l2.4375 6.25l0.046875 0l2.421875 -6.25l1.3125 0l0 7.625l-0.890625 0l0 -4.84375l0.03125 -1.453125l-0.03125 0l-2.5 6.296875l-0.75 0l-2.484375 -6.296875l-0.046875 0l0.046875 1.453125l0 4.84375l-0.890625 0l0 -7.625zm9.228409 0l4.40625 0l0 0.859375l-3.5 0l0 2.53125l3.15625 0l0 0.84375l-3.15625 0l0 2.53125l3.5 0l0 0.859375l-4.40625 0l0 -7.625zm5.8716583 0l1.09375 0l3.828125 6.0625l0.046875 0l-0.046875 -1.46875l0 -4.59375l0.90625 0l0 7.625l-0.9375 0l-3.984375 -6.359375l-0.046875 0l0.046875 1.46875l0 4.890625l-0.90625 0l0 -7.625zm9.107208 0.859375l-2.140625 0l0 -0.859375l5.171875 0l0 0.859375l-2.125 0l0 6.765625l-0.90625 0l0 -6.765625z" fill-rule="nonzero"/><path fill="#ff4e42" d="m239.99196 182.4l96.000015 0l0 38.393707l-96.000015 0z" fill-rule="evenodd"/><path fill="#000000" d="m273.98584 197.71185l2.5625 0q0.640625 0 1.171875 0.296875q0.546875 0.28125 0.875 0.796875q0.328125 0.515625 0.328125 1.15625q0 0.65625 -0.328125 1.171875q-0.328125 0.515625 -0.875 0.8125q-0.53125 0.28125 -1.171875 0.28125l-1.65625 0l0 3.109375l-0.90625 0l0 -7.625zm2.578125 3.65625q0.4375 0 0.75 -0.203125q0.328125 -0.203125 0.5 -0.515625q0.1875 -0.328125 0.1875 -0.6875q0 -0.34375 -0.1875 -0.65625q-0.171875 -0.328125 -0.5 -0.53125q-0.3125 -0.203125 -0.75 -0.203125l-1.671875 0l0 2.796875l1.671875 0zm6.984497 4.140625q-1.09375 0 -2.0 -0.53125q-0.890625 -0.53125 -1.40625 -1.453125q-0.5 -0.921875 -0.5 -2.0q0 -1.09375 0.5 -2.0q0.515625 -0.921875 1.40625 -1.453125q0.90625 -0.53125 2.0 -0.53125q1.09375 0 1.984375 0.53125q0.90625 0.53125 1.40625 1.453125q0.515625 0.90625 0.515625 2.0q0 1.078125 -0.515625 2.0q-0.5 0.921875 -1.40625 1.453125q-0.890625 0.53125 -1.984375 0.53125zm0 -0.859375q0.828125 0 1.5 -0.390625q0.6875 -0.40625 1.09375 -1.109375q0.40625 -0.71875 0.40625 -1.625q0 -0.90625 -0.40625 -1.609375q-0.40625 -0.71875 -1.09375 -1.109375q-0.671875 -0.40625 -1.5 -0.40625q-0.828125 0 -1.515625 0.40625q-0.6875 0.390625 -1.09375 1.109375q-0.390625 0.703125 -0.390625 1.609375q0 0.90625 0.390625 1.625q0.40625 0.703125 1.09375 1.109375q0.6875 0.390625 1.515625 0.390625zm8.674164 0.859375q-1.09375 0 -2.0 -0.53125q-0.890625 -0.53125 -1.40625 -1.453125q-0.5 -0.921875 -0.5 -2.0q0 -1.09375 0.5 -2.0q0.515625 -0.921875 1.40625 -1.453125q0.90625 -0.53125 2.0 -0.53125q1.09375 0 1.984375 0.53125q0.90625 0.53125 1.40625 1.453125q0.515625 0.90625 0.515625 2.0q0 1.078125 -0.515625 2.0q-0.5 0.921875 -1.40625 1.453125q-0.890625 0.53125 -1.984375 0.53125zm0 -0.859375q0.828125 0 1.5 -0.390625q0.6875 -0.40625 1.09375 -1.109375q0.40625 -0.71875 0.40625 -1.625q0 -0.90625 -0.40625 -1.609375q-0.40625 -0.71875 -1.09375 -1.109375q-0.671875 -0.40625 -1.5 -0.40625q-0.828125 0 -1.515625 0.40625q-0.6875 0.390625 -1.09375 1.109375q-0.390625 0.703125 -0.390625 1.609375q0 0.90625 0.390625 1.625q0.40625 0.703125 1.09375 1.109375q0.6875 0.390625 1.515625 0.390625zm5.2496033 -6.9375l2.578125 0q0.625 0 1.15625 0.296875q0.546875 0.28125 0.875 0.796875q0.328125 0.515625 0.328125 1.15625q0 0.53125 -0.25 1.0q-0.234375 0.453125 -0.65625 0.765625q-0.421875 0.3125 -0.921875 0.40625l-0.03125 0.03125l2.15625 3.125l0 0.046875l-1.0625 0l-2.078125 -3.109375l-1.1875 0l0 3.109375l-0.90625 0l0 -7.625zm2.515625 3.671875q0.390625 0 0.734375 -0.171875q0.359375 -0.1875 0.5625 -0.515625q0.203125 -0.328125 0.203125 -0.734375q0 -0.34375 -0.1875 -0.65625q-0.171875 -0.328125 -0.5 -0.53125q-0.3125 -0.203125 -0.75 -0.203125l-1.671875 0l0 2.8125l1.609375 0z" fill-rule="nonzero"/><path fill="#000000" fill-opacity="0.0" d="m191.99367 240.0l95.999985 0l0 18.929138l-95.999985 0z" fill-rule="evenodd"/><path fill="#434343" d="m222.97105 252.31145l-4.375 0l0 -0.859375l4.265625 -6.296875l1.234375 0l0 6.078125l1.171875 0l0 1.078125l-1.171875 0l0 1.953125l-1.125 0l0 -1.953125zm0 -1.078125l0 -4.4375l-0.046875 0l-3.03125 4.4375l3.078125 0zm4.528549 3.109375q-0.375 0 -0.625 -0.234375q-0.234375 -0.25 -0.234375 -0.609375q0 -0.359375 0.234375 -0.59375q0.25 -0.25 0.625 -0.25q0.359375 0 0.59375 0.25q0.25 0.234375 0.25 0.59375q0 0.359375 -0.25 0.609375q-0.234375 0.234375 -0.59375 0.234375zm5.8752136 0.140625q-1.078125 0 -1.921875 -0.625q-0.828125 -0.640625 -1.28125 -1.71875q-0.4375 -1.09375 -0.4375 -2.4375q0 -1.328125 0.4375 -2.40625q0.453125 -1.09375 1.28125 -1.71875q0.828125 -0.640625 1.921875 -0.640625q1.09375 0 1.90625 0.640625q0.828125 0.625 1.28125 1.71875q0.453125 1.078125 0.453125 2.40625q0 1.34375 -0.453125 2.4375q-0.453125 1.078125 -1.28125 1.71875q-0.828125 0.625 -1.90625 0.625zm0 -1.078125q0.75 0 1.3125 -0.484375q0.5625 -0.5 0.859375 -1.328125q0.3125 -0.84375 0.3125 -1.890625q0 -1.03125 -0.3125 -1.875q-0.296875 -0.84375 -0.859375 -1.328125q-0.5625 -0.484375 -1.3125 -0.484375q-0.765625 0 -1.328125 0.484375q-0.5625 0.484375 -0.859375 1.328125q-0.296875 0.84375 -0.296875 1.875q0 1.046875 0.296875 1.890625q0.296875 0.828125 0.859375 1.328125q0.5625 0.484375 1.328125 0.484375zm4.2997284 0.859375l0 0zm6.3108673 0.21875q-1.09375 0 -1.828125 -0.515625q-0.734375 -0.515625 -1.046875 -1.3125l1.015625 -0.453125q0.25 0.609375 0.75 0.953125q0.5 0.328125 1.109375 0.328125q0.640625 0 1.09375 -0.265625q0.453125 -0.265625 0.453125 -0.734375q0 -0.4375 -0.375 -0.6875q-0.359375 -0.265625 -1.125 -0.453125l-0.828125 -0.203125q-0.8125 -0.203125 -1.328125 -0.6875q-0.515625 -0.484375 -0.515625 -1.234375q0 -0.59375 0.34375 -1.03125q0.359375 -0.453125 0.9375 -0.6875q0.59375 -0.25 1.265625 -0.25q0.890625 0 1.59375 0.390625q0.703125 0.390625 1.0 1.078125l-0.984375 0.453125q-0.453125 -0.90625 -1.625 -0.90625q-0.546875 0 -0.96875 0.265625q-0.421875 0.25 -0.421875 0.65625q0 0.375 0.28125 0.609375q0.296875 0.234375 0.890625 0.375l0.984375 0.25q1.0 0.265625 1.5 0.765625q0.515625 0.5 0.515625 1.21875q0 0.625 -0.359375 1.09375q-0.359375 0.46875 -0.984375 0.734375q-0.609375 0.25 -1.34375 0.25zm7.0114746 0q-0.96875 0 -1.75 -0.46875q-0.765625 -0.46875 -1.203125 -1.28125q-0.421875 -0.828125 -0.421875 -1.859375q0 -0.96875 0.40625 -1.796875q0.40625 -0.84375 1.15625 -1.328125q0.75 -0.5 1.71875 -0.5q1.0 0 1.734375 0.453125q0.734375 0.4375 1.125 1.234375q0.40625 0.78125 0.40625 1.796875q0 0.15625 -0.03125 0.34375l-5.390625 0q0.046875 0.78125 0.375 1.3125q0.328125 0.53125 0.84375 0.796875q0.515625 0.265625 1.078125 0.265625q1.328125 0 2.015625 -1.234375l0.953125 0.46875q-0.421875 0.8125 -1.1875 1.3125q-0.75 0.484375 -1.828125 0.484375zm1.96875 -4.34375q-0.03125 -0.421875 -0.25 -0.84375q-0.203125 -0.421875 -0.65625 -0.71875q-0.453125 -0.296875 -1.15625 -0.296875q-0.796875 0 -1.359375 0.515625q-0.546875 0.515625 -0.734375 1.34375l4.15625 0zm5.6641235 4.34375q-0.984375 0 -1.78125 -0.46875q-0.78125 -0.484375 -1.21875 -1.296875q-0.4375 -0.828125 -0.4375 -1.859375q0 -1.015625 0.4375 -1.84375q0.4375 -0.828125 1.21875 -1.296875q0.796875 -0.46875 1.78125 -0.46875q1.109375 0 1.859375 0.515625q0.75 0.515625 1.0625 1.375l-1.015625 0.421875q-0.25 -0.625 -0.75 -0.953125q-0.5 -0.328125 -1.21875 -0.328125q-0.59375 0 -1.125 0.328125q-0.515625 0.328125 -0.828125 0.921875q-0.3125 0.578125 -0.3125 1.328125q0 0.765625 0.3125 1.359375q0.3125 0.578125 0.828125 0.90625q0.53125 0.328125 1.125 0.328125q0.71875 0 1.234375 -0.328125q0.53125 -0.34375 0.78125 -0.953125l1.015625 0.421875q-0.34375 0.84375 -1.109375 1.375q-0.765625 0.515625 -1.859375 0.515625z" fill-rule="nonzero"/><path fill="#000000" fill-opacity="0.0" d="m95.99672 240.26237l96.0 0l0 18.929123l-96.0 0z" fill-rule="evenodd"/><path fill="#434343" d="m123.59205 253.3863q2.625 -2.625 3.34375 -3.421875q0.6875 -0.734375 0.921875 -1.140625q0.24999237 -0.421875 0.24999237 -1.0q0 -0.390625 -0.20311737 -0.75q-0.203125 -0.359375 -0.59375 -0.578125q-0.390625 -0.21875 -0.9375 -0.21875q-0.71875 0 -1.171875 0.421875q-0.4375 0.421875 -0.5625 0.90625l-1.03125 -0.40625q0.125 -0.421875 0.46875 -0.875q0.34375 -0.46875 0.921875 -0.796875q0.59375 -0.328125 1.40625 -0.328125q0.828125 0 1.46875 0.359375q0.6562424 0.359375 1.0156174 0.96875q0.359375 0.59375 0.359375 1.28125q0 1.40625 -1.4687424 2.890625l-2.734375 2.75l4.3124924 0l0 1.078125l-5.7656174 0l0 -1.140625zm8.010567 1.21875q-0.375 0 -0.625 -0.234375q-0.234375 -0.25 -0.234375 -0.609375q0 -0.359375 0.234375 -0.59375q0.25 -0.25 0.625 -0.25q0.359375 0 0.59375 0.25q0.25 0.234375 0.25 0.59375q0 0.359375 -0.25 0.609375q-0.234375 0.234375 -0.59375 0.234375zm5.2345886 0.140625q-0.640625 0 -1.265625 -0.265625q-0.625 -0.28125 -1.109375 -0.828125q-0.484375 -0.5625 -0.6875 -1.375l1.0 -0.40625q0.21875 0.8125 0.75 1.3125q0.53125 0.484375 1.28125 0.484375q0.890625 0 1.453125 -0.546875q0.578125 -0.546875 0.578125 -1.4375q0 -0.859375 -0.5625 -1.421875q-0.5625 -0.578125 -1.4375 -0.578125q-0.484375 0 -0.921875 0.234375q-0.421875 0.21875 -0.6875 0.59375l-1.140625 -0.5l0.59375 -4.59375l4.703125 0l0 1.078125l-3.78125 0l-0.359375 2.75l0.0625 0.015625q0.703125 -0.59375 1.734375 -0.59375q0.78125 0 1.453125 0.390625q0.671875 0.375 1.0625 1.078125q0.40625 0.6875 0.40625 1.53125q0 0.859375 -0.40625 1.5625q-0.40625 0.703125 -1.125 1.109375q-0.703125 0.40625 -1.59375 0.40625zm3.847458 -0.21875l0 0zm6.3108673 0.21875q-1.09375 0 -1.828125 -0.515625q-0.734375 -0.515625 -1.046875 -1.3125l1.015625 -0.453125q0.25 0.609375 0.75 0.953125q0.5 0.328125 1.109375 0.328125q0.640625 0 1.09375 -0.265625q0.453125 -0.265625 0.453125 -0.734375q0 -0.4375 -0.375 -0.6875q-0.359375 -0.265625 -1.125 -0.453125l-0.828125 -0.203125q-0.8125 -0.203125 -1.328125 -0.6875q-0.515625 -0.484375 -0.515625 -1.234375q0 -0.59375 0.34375 -1.03125q0.359375 -0.453125 0.9375 -0.6875q0.59375 -0.25 1.265625 -0.25q0.890625 0 1.59375 0.390625q0.703125 0.390625 1.0 1.078125l-0.984375 0.453125q-0.453125 -0.90625 -1.625 -0.90625q-0.546875 0 -0.96875 0.265625q-0.421875 0.25 -0.421875 0.65625q0 0.375 0.28125 0.609375q0.296875 0.234375 0.890625 0.375l0.984375 0.25q1.0 0.265625 1.5 0.765625q0.515625 0.5 0.515625 1.21875q0 0.625 -0.359375 1.09375q-0.359375 0.46875 -0.984375 0.734375q-0.609375 0.25 -1.34375 0.25zm7.0114746 0q-0.96875 0 -1.75 -0.46875q-0.765625 -0.46875 -1.203125 -1.28125q-0.421875 -0.828125 -0.421875 -1.859375q0 -0.96875 0.40625 -1.796875q0.40625 -0.84375 1.15625 -1.328125q0.75 -0.5 1.71875 -0.5q1.0 0 1.734375 0.453125q0.734375 0.4375 1.125 1.234375q0.40625 0.78125 0.40625 1.796875q0 0.15625 -0.03125 0.34375l-5.390625 0q0.046875 0.78125 0.375 1.3125q0.328125 0.53125 0.84375 0.796875q0.515625 0.265625 1.078125 0.265625q1.328125 0 2.015625 -1.234375l0.953125 0.46875q-0.421875 0.8125 -1.1875 1.3125q-0.75 0.484375 -1.828125 0.484375zm1.96875 -4.34375q-0.03125 -0.421875 -0.25 -0.84375q-0.203125 -0.421875 -0.65625 -0.71875q-0.453125 -0.296875 -1.15625 -0.296875q-0.796875 0 -1.359375 0.515625q-0.546875 0.515625 -0.734375 1.34375l4.15625 0zm5.6641235 4.34375q-0.984375 0 -1.78125 -0.46875q-0.78125 -0.484375 -1.21875 -1.296875q-0.4375 -0.828125 -0.4375 -1.859375q0 -1.015625 0.4375 -1.84375q0.4375 -0.828125 1.21875 -1.296875q0.796875 -0.46875 1.78125 -0.46875q1.109375 0 1.859375 0.515625q0.75 0.515625 1.0625 1.375l-1.015625 0.421875q-0.25 -0.625 -0.75 -0.953125q-0.5 -0.328125 -1.21875 -0.328125q-0.59375 0 -1.125 0.328125q-0.515625 0.328125 -0.828125 0.921875q-0.3125 0.578125 -0.3125 1.328125q0 0.765625 0.3125 1.359375q0.3125 0.578125 0.828125 0.90625q0.53125 0.328125 1.125 0.328125q0.71875 0 1.234375 -0.328125q0.53125 -0.34375 0.78125 -0.953125l1.015625 0.421875q-0.34375 0.84375 -1.109375 1.375q-0.765625 0.515625 -1.859375 0.515625z" fill-rule="nonzero"/><path fill="#000000" fill-opacity="0.0" d="m143.99672 240.26237l0 -22.362213" fill-rule="evenodd"/><path stroke="#434343" stroke-width="1.0" stroke-linejoin="round" stroke-linecap="butt" d="m143.99672 240.26236l0 -18.57219" fill-rule="evenodd"/><path fill="#434343" stroke="#434343" stroke-width="1.0" stroke-linecap="butt" d="m143.99672 218.40016c0.9085083 0 1.6450043 0.736496 1.6450043 1.6450043c0 0.9085083 -0.736496 1.644989 -1.6450043 1.644989c-0.9085083 0 -1.6450043 -0.7364807 -1.6450043 -1.644989c0 -0.9085083 0.736496 -1.6450043 1.6450043 -1.6450043z" fill-rule="nonzero"/><path fill="#000000" fill-opacity="0.0" d="m48.00492 134.4l288.0 0l0 28.787415l-288.0 0z" fill-rule="evenodd"/><path fill="#666666" d="m92.93016 142.35432l1.578125 0l0 11.84375l5.84375 0l0 1.515625l-7.421875 0l0 -13.359375zm12.214783 13.65625q-1.046875 0 -1.875 -0.40625q-0.8125 -0.40625 -1.265625 -1.125q-0.4375 -0.71875 -0.4375 -1.640625q0 -1.515625 1.125 -2.359375q1.140625 -0.84375 2.875 -0.84375q0.859375 0 1.59375 0.1875q0.75 0.1875 1.140625 0.421875l0 -0.578125q0 -1.0625 -0.75 -1.703125q-0.75 -0.640625 -1.890625 -0.640625q-0.78125 0 -1.46875 0.34375q-0.671875 0.34375 -1.0625 0.953125l-1.203125 -0.890625q0.5625 -0.859375 1.546875 -1.34375q1.0 -0.484375 2.1875 -0.484375q1.9375 0 3.03125 1.015625q1.109375 1.015625 1.109375 2.765625l0 6.03125l-1.5 0l0 -1.359375l-0.078125 0q-0.40625 0.6875 -1.234375 1.171875q-0.8125 0.484375 -1.84375 0.484375zm0.140625 -1.390625q0.8125 0 1.5 -0.40625q0.6875 -0.421875 1.09375 -1.109375q0.421875 -0.6875 0.421875 -1.515625q-0.453125 -0.296875 -1.109375 -0.484375q-0.65625 -0.1875 -1.375 -0.1875q-1.3125 0 -1.984375 0.546875q-0.65625 0.53125 -0.65625 1.390625q0 0.78125 0.59375 1.28125q0.609375 0.484375 1.515625 0.484375zm6.7189636 -8.421875l1.515625 0l0 1.53125l0.078125 0q0.28125 -0.78125 1.078125 -1.296875q0.796875 -0.515625 1.671875 -0.515625q0.65625 0 1.125 0.1875l0 1.71875q-0.59375 -0.296875 -1.34375 -0.296875q-0.6875 0 -1.265625 0.390625q-0.578125 0.390625 -0.921875 1.0625q-0.34375 0.65625 -0.34375 1.421875l0 5.3125l-1.59375 0l0 -9.515625zm10.716934 13.84375q-1.6875 0 -2.78125 -0.78125q-1.078125 -0.78125 -1.453125 -1.890625l1.453125 -0.609375q0.296875 0.8125 1.03125 1.328125q0.734375 0.515625 1.75 0.515625q1.46875 0 2.28125 -0.859375q0.8125 -0.859375 0.8125 -2.421875l0 -1.0625l-0.078125 0q-0.46875 0.71875 -1.3125 1.1875q-0.84375 0.453125 -1.9375 0.453125q-1.21875 0 -2.25 -0.625q-1.015625 -0.640625 -1.609375 -1.78125q-0.59375 -1.140625 -0.59375 -2.59375q0 -1.4375 0.59375 -2.578125q0.59375 -1.15625 1.609375 -1.78125q1.03125 -0.640625 2.25 -0.640625q1.09375 0 1.9375 0.453125q0.84375 0.453125 1.3125 1.203125l0.078125 0l0 -1.359375l1.515625 0l0 9.140625q0 2.296875 -1.28125 3.5q-1.265625 1.203125 -3.328125 1.203125zm0 -5.578125q0.859375 0 1.546875 -0.421875q0.703125 -0.4375 1.125 -1.234375q0.421875 -0.8125 0.421875 -1.90625q0 -1.125 -0.421875 -1.921875q-0.421875 -0.796875 -1.125 -1.21875q-0.6875 -0.421875 -1.546875 -0.421875q-0.859375 0 -1.578125 0.4375q-0.703125 0.421875 -1.125 1.234375q-0.421875 0.796875 -0.421875 1.890625q0 1.09375 0.421875 1.90625q0.421875 0.8125 1.125 1.234375q0.71875 0.421875 1.578125 0.421875zm11.091324 1.546875q-1.359375 0 -2.4375 -0.640625q-1.078125 -0.65625 -1.6875 -1.796875q-0.609375 -1.15625 -0.609375 -2.59375q0 -1.359375 0.5625 -2.53125q0.578125 -1.171875 1.625 -1.859375q1.0625 -0.6875 2.421875 -0.6875q1.390625 0 2.421875 0.625q1.03125 0.625 1.578125 1.734375q0.546875 1.09375 0.546875 2.515625q0 0.21875 -0.03125 0.484375l-7.546875 0q0.0625 1.078125 0.53125 1.828125q0.46875 0.734375 1.1875 1.109375q0.71875 0.375 1.5 0.375q1.859375 0 2.8125 -1.71875l1.34375 0.65625q-0.59375 1.140625 -1.65625 1.828125q-1.0625 0.671875 -2.5625 0.671875zm2.75 -6.0625q-0.046875 -0.59375 -0.34375 -1.1875q-0.296875 -0.609375 -0.9375 -1.015625q-0.625 -0.40625 -1.59375 -0.40625q-1.125 0 -1.90625 0.71875q-0.78125 0.71875 -1.03125 1.890625l5.8125 0zm6.9405518 6.0625q-1.53125 0 -2.5625 -0.71875q-1.015625 -0.71875 -1.453125 -1.828125l1.421875 -0.640625q0.34375 0.859375 1.046875 1.328125q0.703125 0.46875 1.546875 0.46875q0.890625 0 1.515625 -0.359375q0.640625 -0.375 0.640625 -1.046875q0 -0.59375 -0.5 -0.953125q-0.5 -0.375 -1.578125 -0.625l-1.15625 -0.3125q-1.140625 -0.28125 -1.875 -0.9375q-0.71875 -0.671875 -0.71875 -1.75q0 -0.8125 0.484375 -1.4375q0.5 -0.625 1.3125 -0.953125q0.828125 -0.34375 1.78125 -0.34375q1.25 0 2.21875 0.546875q0.984375 0.53125 1.390625 1.5l-1.375 0.640625q-0.640625 -1.265625 -2.25 -1.265625q-0.796875 0 -1.390625 0.359375q-0.578125 0.359375 -0.578125 0.921875q0 0.53125 0.40625 0.859375q0.421875 0.3125 1.234375 0.515625l1.390625 0.359375q1.390625 0.359375 2.09375 1.0625q0.71875 0.6875 0.71875 1.703125q0 0.875 -0.515625 1.546875q-0.5 0.65625 -1.359375 1.015625q-0.84375 0.34375 -1.890625 0.34375zm9.059189 -0.140625q-0.578125 0 -1.078125 -0.1875q-0.484375 -0.1875 -0.828125 -0.515625q-0.734375 -0.703125 -0.734375 -1.953125l0 -5.578125l-1.671875 0l0 -1.4375l1.671875 0l0 -2.6875l1.578125 0l0 2.6875l2.328125 0l0 1.4375l-2.328125 0l0 5.1875q0 0.78125 0.296875 1.15625q0.359375 0.40625 1.03125 0.40625q0.578125 0 1.046875 -0.3125l0 1.546875q-0.28125 0.125 -0.578125 0.1875q-0.28125 0.0625 -0.734375 0.0625zm2.000061 -0.15625l0 0zm11.720535 0.296875q-1.9375 0 -3.53125 -0.90625q-1.578125 -0.921875 -2.484375 -2.515625q-0.90625 -1.59375 -0.90625 -3.546875q0 -1.96875 0.90625 -3.5625q0.90625 -1.59375 2.484375 -2.5q1.59375 -0.921875 3.53125 -0.921875q1.484375 0 2.71875 0.5625q1.25 0.5625 2.171875 1.625l-1.140625 1.09375q-0.765625 -0.90625 -1.671875 -1.328125q-0.90625 -0.4375 -2.078125 -0.4375q-1.453125 0 -2.671875 0.6875q-1.21875 0.671875 -1.9375 1.921875q-0.71875 1.234375 -0.71875 2.859375q0 1.609375 0.71875 2.859375q0.71875 1.234375 1.9375 1.921875q1.21875 0.671875 2.671875 0.671875q2.421875 0 4.125 -1.984375l1.15625 1.109375q-0.921875 1.109375 -2.296875 1.75q-1.359375 0.640625 -2.984375 0.640625zm11.247833 0q-1.40625 0 -2.5312653 -0.671875q-1.109375 -0.671875 -1.734375 -1.828125q-0.625 -1.15625 -0.625 -2.546875q0 -1.40625 0.625 -2.5625q0.625 -1.15625 1.734375 -1.828125q1.1250153 -0.671875 2.5312653 -0.671875q1.390625 0 2.515625 0.671875q1.125 0.671875 1.75 1.828125q0.625 1.15625 0.625 2.5625q0 1.390625 -0.625 2.546875q-0.625 1.15625 -1.75 1.828125q-1.125 0.671875 -2.515625 0.671875zm0 -1.4375q0.875 0 1.625 -0.4375q0.765625 -0.4375 1.21875 -1.25q0.453125 -0.828125 0.453125 -1.921875q0 -1.109375 -0.453125 -1.921875q-0.453125 -0.828125 -1.21875 -1.265625q-0.75 -0.4375 -1.625 -0.4375q-0.875 0 -1.6406403 0.4375q-0.765625 0.4375 -1.234375 1.265625q-0.453125 0.8125 -0.453125 1.921875q0 1.09375 0.453125 1.921875q0.46875 0.8125 1.234375 1.25q0.76564026 0.4375 1.6406403 0.4375zm6.5418396 -8.375l1.515625 0l0 1.40625l0.078125 0q0.390625 -0.71875 1.25 -1.203125q0.859375 -0.5 1.828125 -0.5q1.71875 0 2.609375 1.0q0.90625 1.0 0.90625 2.71875l0 6.09375l-1.578125 0l0 -5.859375q0 -1.328125 -0.640625 -1.921875q-0.625 -0.59375 -1.734375 -0.59375q-0.765625 0 -1.375 0.4375q-0.59375 0.421875 -0.9375 1.125q-0.328125 0.6875 -0.328125 1.453125l0 5.359375l-1.59375 0l0 -9.515625zm13.655731 9.671875q-0.578125 0 -1.078125 -0.1875q-0.484375 -0.1875 -0.828125 -0.515625q-0.734375 -0.703125 -0.734375 -1.953125l0 -5.578125l-1.671875 0l0 -1.4375l1.671875 0l0 -2.6875l1.578125 0l0 2.6875l2.328125 0l0 1.4375l-2.328125 0l0 5.1875q0 0.78125 0.296875 1.15625q0.359375 0.40625 1.03125 0.40625q0.578125 0 1.046875 -0.3125l0 1.546875q-0.28125 0.125 -0.578125 0.1875q-0.28125 0.0625 -0.734375 0.0625zm6.9956665 0.140625q-1.359375 0 -2.4375 -0.640625q-1.078125 -0.65625 -1.6875 -1.796875q-0.609375 -1.15625 -0.609375 -2.59375q0 -1.359375 0.5625 -2.53125q0.578125 -1.171875 1.625 -1.859375q1.0625 -0.6875 2.421875 -0.6875q1.390625 0 2.421875 0.625q1.03125 0.625 1.578125 1.734375q0.546875 1.09375 0.546875 2.515625q0 0.21875 -0.03125 0.484375l-7.546875 0q0.0625 1.078125 0.53125 1.828125q0.46875 0.734375 1.1875 1.109375q0.71875 0.375 1.5 0.375q1.859375 0 2.8125 -1.71875l1.34375 0.65625q-0.59375 1.140625 -1.65625 1.828125q-1.0625 0.671875 -2.5625 0.671875zm2.75 -6.0625q-0.046875 -0.59375 -0.34375 -1.1875q-0.296875 -0.609375 -0.9375 -1.015625q-0.625 -0.40625 -1.59375 -0.40625q-1.125 0 -1.90625 0.71875q-0.78125 0.71875 -1.03125 1.890625l5.8125 0zm3.5190735 -3.75l1.515625 0l0 1.40625l0.078125 0q0.390625 -0.71875 1.25 -1.203125q0.859375 -0.5 1.828125 -0.5q1.71875 0 2.609375 1.0q0.90625 1.0 0.90625 2.71875l0 6.09375l-1.578125 0l0 -5.859375q0 -1.328125 -0.640625 -1.921875q-0.625 -0.59375 -1.734375 -0.59375q-0.765625 0 -1.375 0.4375q-0.59375 0.421875 -0.9375 1.125q-0.328125 0.6875 -0.328125 1.453125l0 5.359375l-1.59375 0l0 -9.515625zm13.655762 9.671875q-0.578125 0 -1.078125 -0.1875q-0.484375 -0.1875 -0.828125 -0.515625q-0.734375 -0.703125 -0.734375 -1.953125l0 -5.578125l-1.671875 0l0 -1.4375l1.671875 0l0 -2.6875l1.578125 0l0 2.6875l4.328125 0l0 -1.03125q0 -0.890625 0.40625 -1.5625q0.40625 -0.671875 1.09375 -1.03125q0.703125 -0.359375 1.546875 -0.359375q0.765625 0 1.390625 0.21875l0 1.546875q-0.375 -0.15625 -0.671875 -0.21875q-0.28125 -0.078125 -0.6875 -0.078125q-0.609375 0 -1.0625 0.4375q-0.453125 0.4375 -0.453125 1.21875l0 0.859375l2.453125 0l0 1.4375l-2.453125 0l0 8.078125l-1.5625 0l0 -8.078125l-4.328125 0l0 5.1875q0 0.78125 0.296875 1.15625q0.359375 0.40625 1.03125 0.40625q0.578125 0 1.046875 -0.3125l0 1.546875q-0.28125 0.125 -0.578125 0.1875q-0.28125 0.0625 -0.734375 0.0625zm12.501678 0.140625q-1.71875 0 -2.625 -1.0q-0.90625 -1.015625 -0.90625 -2.828125l0 -5.984375l1.59375 0l0 5.75q0 1.359375 0.609375 2.0q0.625 0.625 1.671875 0.625q0.796875 0 1.421875 -0.421875q0.625 -0.4375 0.96875 -1.125q0.34375 -0.6875 0.34375 -1.453125l0 -5.375l1.59375 0l0 9.515625l-1.515625 0l0 -1.375l-0.078125 0q-0.390625 0.703125 -1.25 1.1875q-0.859375 0.484375 -1.828125 0.484375zm7.013031 -13.65625l1.59375 0l0 13.359375l-1.59375 0l0 -13.359375zm2.7645874 13.359375l0 0zm5.828247 -13.359375l4.4843597 0q1.125 0 2.078125 0.515625q0.953125 0.5 1.515625 1.40625q0.578125 0.890625 0.578125 2.03125q0 1.140625 -0.578125 2.046875q-0.5625 0.90625 -1.515625 1.40625q-0.953125 0.5 -2.078125 0.5l-2.9062347 0l0 5.453125l-1.578125 0l0 -13.359375zm4.5312347 6.40625q0.734375 0 1.296875 -0.359375q0.578125 -0.359375 0.890625 -0.90625q0.328125 -0.5625 0.328125 -1.1875q0 -0.609375 -0.328125 -1.171875q-0.3125 -0.5625 -0.890625 -0.90625q-0.5625 -0.359375 -1.296875 -0.359375l-2.9531097 0l0 4.890625l2.9531097 0zm8.56015 7.25q-1.046875 0 -1.875 -0.40625q-0.8125 -0.40625 -1.265625 -1.125q-0.4375 -0.71875 -0.4375 -1.640625q0 -1.515625 1.125 -2.359375q1.140625 -0.84375 2.875 -0.84375q0.859375 0 1.59375 0.1875q0.75 0.1875 1.140625 0.421875l0 -0.578125q0 -1.0625 -0.75 -1.703125q-0.75 -0.640625 -1.890625 -0.640625q-0.78125 0 -1.46875 0.34375q-0.671875 0.34375 -1.0625 0.953125l-1.203125 -0.890625q0.5625 -0.859375 1.546875 -1.34375q1.0 -0.484375 2.1875 -0.484375q1.9375 0 3.03125 1.015625q1.109375 1.015625 1.109375 2.765625l0 6.03125l-1.5 0l0 -1.359375l-0.078125 0q-0.40625 0.6875 -1.234375 1.171875q-0.8125 0.484375 -1.84375 0.484375zm0.140625 -1.390625q0.8125 0 1.5 -0.40625q0.6875 -0.421875 1.09375 -1.109375q0.421875 -0.6875 0.421875 -1.515625q-0.453125 -0.296875 -1.109375 -0.484375q-0.65625 -0.1875 -1.375 -0.1875q-1.3125 0 -1.984375 0.546875q-0.65625 0.53125 -0.65625 1.390625q0 0.78125 0.59375 1.28125q0.609375 0.484375 1.515625 0.484375zm7.6564636 -10.171875q-0.46875 0 -0.8125 -0.328125q-0.328125 -0.34375 -0.328125 -0.8125q0 -0.484375 0.328125 -0.8125q0.34375 -0.328125 0.8125 -0.328125q0.484375 0 0.8125 0.328125q0.328125 0.328125 0.328125 0.8125q0 0.46875 -0.328125 0.8125q-0.328125 0.328125 -0.8125 0.328125zm-0.78125 1.75l1.578125 0l0 9.515625l-1.578125 0l0 -9.515625zm4.0600586 0l1.515625 0l0 1.40625l0.078125 0q0.390625 -0.71875 1.25 -1.203125q0.859375 -0.5 1.828125 -0.5q1.71875 0 2.609375 1.0q0.90625 1.0 0.90625 2.71875l0 6.09375l-1.578125 0l0 -5.859375q0 -1.328125 -0.640625 -1.921875q-0.625 -0.59375 -1.734375 -0.59375q-0.765625 0 -1.375 0.4375q-0.59375 0.421875 -0.9375 1.125q-0.328125 0.6875 -0.328125 1.453125l0 5.359375l-1.59375 0l0 -9.515625zm13.655762 9.671875q-0.578125 0 -1.078125 -0.1875q-0.484375 -0.1875 -0.828125 -0.515625q-0.734375 -0.703125 -0.734375 -1.953125l0 -5.578125l-1.671875 0l0 -1.4375l1.671875 0l0 -2.6875l1.578125 0l0 2.6875l2.328125 0l0 1.4375l-2.328125 0l0 5.1875q0 0.78125 0.296875 1.15625q0.359375 0.40625 1.03125 0.40625q0.578125 0 1.046875 -0.3125l0 1.546875q-0.28125 0.125 -0.578125 0.1875q-0.28125 0.0625 -0.734375 0.0625z" fill-rule="nonzero"/><path fill="#000000" fill-opacity="0.0" d="m48.006233 24.0l288.0 0l0 28.787403l-288.0 0z" fill-rule="evenodd"/><path fill="#999999" d="m163.54532 45.4737q-0.734375 -1.046875 -1.234375 -2.5q-0.484375 -1.453125 -0.484375 -3.171875q0 -2.234375 1.0625 -4.296875q1.078125 -2.0625 2.875 -3.46875l0.703125 0.671875q-1.640625 1.515625 -2.515625 3.3125q-0.875 1.78125 -0.875 4.015625q0 2.59375 1.359375 4.78125l-0.890625 0.65625zm4.4683685 -12.5l1.234375 0l-1.640625 9.3125l4.59375 0l-0.21875 1.1875l-5.828125 0l1.859375 -10.5zm8.800659 10.734375q-0.984375 0 -1.765625 -0.46875q-0.765625 -0.46875 -1.1875 -1.28125q-0.421875 -0.8125 -0.421875 -1.8125q0 -1.21875 0.53125 -2.203125q0.53125 -1.0 1.515625 -1.578125q1.0 -0.59375 2.28125 -0.59375q0.984375 0 1.75 0.46875q0.78125 0.46875 1.1875 1.28125q0.421875 0.8125 0.421875 1.8125q0 1.203125 -0.53125 2.21875q-0.53125 1.0 -1.53125 1.578125q-0.984375 0.578125 -2.25 0.578125zm0.140625 -1.125q0.84375 0 1.515625 -0.4375q0.671875 -0.4375 1.03125 -1.15625q0.375 -0.71875 0.375 -1.59375q0 -1.078125 -0.625 -1.78125q-0.625 -0.71875 -1.640625 -0.71875q-0.84375 0 -1.515625 0.4375q-0.671875 0.421875 -1.046875 1.15625q-0.359375 0.71875 -0.359375 1.578125q0 1.109375 0.625 1.8125q0.625 0.703125 1.640625 0.703125zm7.4392548 1.125q-0.65625 0 -1.21875 -0.296875q-0.5625 -0.296875 -0.890625 -0.8125q-0.328125 -0.53125 -0.328125 -1.171875q0 -1.25 0.90625 -1.984375q0.921875 -0.75 2.515625 -0.75q0.59375 0 1.15625 0.140625q0.5625 0.140625 1.0 0.375l0.09375 -0.4375q0.046875 -0.25 0.046875 -0.421875q0 -0.671875 -0.53125 -1.0625q-0.515625 -0.40625 -1.3125 -0.40625q-1.21875 0 -2.0 1.0l-0.96875 -0.6875q0.53125 -0.6875 1.328125 -1.046875q0.8125 -0.375 1.78125 -0.375q1.34375 0 2.109375 0.65625q0.765625 0.640625 0.765625 1.734375q0 0.3125 -0.0625 0.75l-0.828125 4.5625l-1.1875 0l0.1875 -1.0625l-0.046875 0q-0.40625 0.59375 -1.046875 0.953125q-0.640625 0.34375 -1.46875 0.34375zm0.28125 -1.09375q1.015625 0 1.765625 -0.671875q0.75 -0.671875 0.921875 -1.703125q-0.453125 -0.265625 -0.90625 -0.390625q-0.453125 -0.140625 -1.140625 -0.140625q-0.9375 0 -1.515625 0.4375q-0.578125 0.421875 -0.578125 1.1875q0 0.59375 0.421875 0.9375q0.421875 0.34375 1.03125 0.34375zm8.1310425 1.09375q-0.859375 0 -1.5625 -0.40625q-0.6875 -0.421875 -1.09375 -1.1875q-0.390625 -0.78125 -0.390625 -1.796875q0 -1.234375 0.5625 -2.28125q0.5625 -1.046875 1.546875 -1.65625q0.984375 -0.609375 2.21875 -0.609375q0.828125 0 1.453125 0.390625q0.625 0.390625 0.921875 0.96875l0.0625 0l0.109375 -1.046875l0.5625 -3.109375l1.234375 0l-1.875 10.5l-1.171875 0l0.203125 -1.09375l-0.0625 0q-0.421875 0.609375 -1.109375 0.96875q-0.671875 0.359375 -1.609375 0.359375zm0.34375 -1.125q0.8125 0 1.5 -0.453125q0.6875 -0.453125 1.0625 -1.21875q0.390625 -0.78125 0.390625 -1.703125q0 -1.046875 -0.59375 -1.671875q-0.59375 -0.640625 -1.515625 -0.640625q-0.84375 0 -1.515625 0.4375q-0.671875 0.421875 -1.0625 1.1875q-0.375 0.765625 -0.375 1.6875q0 1.078125 0.59375 1.734375q0.59375 0.640625 1.515625 0.640625zm7.7156525 -7.96875q-0.359375 0 -0.625 -0.25q-0.265625 -0.265625 -0.265625 -0.640625q0 -0.375 0.265625 -0.625q0.265625 -0.265625 0.625 -0.265625q0.390625 0 0.640625 0.265625q0.265625 0.25 0.265625 0.625q0 0.375 -0.265625 0.640625q-0.25 0.25 -0.640625 0.25zm-1.03125 1.390625l1.25 0l-1.328125 7.46875l-1.234375 0l1.3125 -7.46875zm4.265457 1.09375q0.390625 -0.59375 1.046875 -0.953125q0.671875 -0.375 1.515625 -0.375q1.109375 0 1.75 0.609375q0.640625 0.59375 0.640625 1.59375q0 0.59375 -0.09375 1.046875l-0.78125 4.453125l-1.25 0l0.796875 -4.484375q0.078125 -0.5625 0.078125 -0.734375q0 -0.640625 -0.4375 -1.0q-0.421875 -0.359375 -1.140625 -0.359375q-0.90625 0 -1.609375 0.671875q-0.703125 0.671875 -0.890625 1.703125l-0.734375 4.203125l-1.25 0l1.3125 -7.46875l1.171875 0l-0.1875 1.09375l0.0625 0zm8.5394745 9.78125q-0.84375 0 -1.484375 -0.3125q-0.640625 -0.3125 -1.03125 -0.796875q-0.375 -0.46875 -0.46875 -1.0l1.203125 -0.46875q0.15625 0.640625 0.65625 1.03125q0.5 0.40625 1.296875 0.40625q1.171875 0 1.90625 -0.6875q0.75 -0.6875 0.953125 -1.890625l0.15625 -0.8125l-0.0625 0q-0.421875 0.609375 -1.078125 0.9375q-0.640625 0.328125 -1.578125 0.328125q-0.828125 0 -1.515625 -0.40625q-0.6875 -0.421875 -1.09375 -1.1875q-0.390625 -0.78125 -0.390625 -1.75q0 -1.1875 0.515625 -2.21875q0.53125 -1.046875 1.484375 -1.65625q0.96875 -0.625 2.21875 -0.625q0.84375 0 1.46875 0.375q0.640625 0.359375 0.90625 0.921875l0.0625 0l0.1875 -1.0625l1.1875 0l-1.28125 7.234375q-0.3125 1.84375 -1.4375 2.734375q-1.109375 0.90625 -2.78125 0.90625zm0.734375 -4.390625q0.84375 0 1.53125 -0.453125q0.6875 -0.453125 1.0625 -1.203125q0.375 -0.765625 0.375 -1.625q0 -1.046875 -0.578125 -1.671875q-0.5625 -0.640625 -1.453125 -0.640625q-0.875 0 -1.546875 0.4375q-0.671875 0.4375 -1.046875 1.203125q-0.359375 0.75 -0.359375 1.671875q0 1.0625 0.5625 1.671875q0.578125 0.609375 1.453125 0.609375zm4.437317 2.3125q1.640625 -1.515625 2.515625 -3.296875q0.875 -1.796875 0.875 -4.03125q0 -2.59375 -1.359375 -4.78125l0.890625 -0.65625q0.734375 1.046875 1.21875 2.5q0.5 1.453125 0.5 3.15625q0 2.25 -1.078125 4.3125q-1.0625 2.0625 -2.859375 3.46875l-0.703125 -0.671875z" fill-rule="nonzero"/><path fill="#000000" fill-opacity="0.0" d="m239.99367 240.0l0 -22.11023" fill-rule="evenodd"/><path stroke="#434343" stroke-width="1.0" stroke-linejoin="round" stroke-linecap="butt" d="m239.99367 240.0l0 -18.320236" fill-rule="evenodd"/><path fill="#434343" stroke="#434343" stroke-width="1.0" stroke-linecap="butt" d="m239.99367 218.38977c0.9085083 0 1.644989 0.7364807 1.644989 1.644989c0 0.9085083 -0.7364807 1.6450043 -1.644989 1.6450043c-0.9085083 0 -1.6450043 -0.736496 -1.6450043 -1.6450043c0 -0.9085083 0.736496 -1.644989 1.6450043 -1.644989z" fill-rule="nonzero"/></g></svg>