<svg width="420" height="280" xmlns="http://www.w3.org/2000/svg">
  <g fill="none" fill-rule="evenodd">
    <g transform="translate(129.449998 99.524997)">
      <rect stroke="#212121" stroke-width="1.27499995" fill="#FFF" x=".45624996" y=".45624996" width="158.737493" height="131.962494" rx="10.5187496"/>
      <path d="M10.9600017 0H148.700002c5.79899 0 10.5 4.70101013 10.5 10.5v15h0H.46000168v-15c0-5.79898987 4.70101013-10.5 10.50000002-10.5z" stroke="#212121" stroke-width="1.27499995" fill="#F5F5F5"/>
      <circle fill="#2979FF" cx="26.7531239" cy="12.4093745" r="4.30312482"/>
      <circle fill="#3740FF" cx="12.4093745" cy="12.4093745" r="4.30312482"/>
      <circle fill="#3FC4FF" cx="41.0968732" cy="12.4093745" r="4.30312482"/>
      <path stroke="#212121" stroke-width="1.27499995" stroke-linecap="square" d="M.828765 93.637496h157.992463M.828765 113.612495h157.992463M19.2624992 132.021705V94.7782855M39.6624983 132.021705V94.7782855M59.6374975 132.021705V94.7782855M78.7624967 132.021705V94.7782855M99.1624958 132.021705V94.7782855M118.712495 132.021705V94.7782855M139.112494 132.021705V94.7782855"/>
    </g>
    <circle stroke="#212121" stroke-width="1.27499995" fill="#3FC4FF" cx="248.162493" cy="213.562492" r="4.46249981"/>
    <circle stroke="#212121" stroke-width="1.27499995" fill="#2979FF" cx="208.212495" cy="213.562492" r="4.46249981"/>
    <circle stroke="#212121" stroke-width="1.27499995" fill="#FFF" cx="122.574999" cy="212.924992" r="33.5749986"/>
    <circle stroke="#212121" stroke-width="1.27499995" fill="#FFF" cx="341.237489" cy="159.162495" r="24.012499"/>
    <circle stroke="#212121" stroke-width="1.27499995" fill="#FFF" cx="209.912495" cy="58.012499" r="24.012499"/>
    <path stroke="#212121" stroke-width="1.27499995" stroke-linecap="round" d="M318.651776 159.162495h6.071428"/>
    <path stroke="#FF4E42" stroke-width="1.27499995" stroke-linecap="round" d="M341.768739 159.146405l13.3875-5.737499"/>
    <path stroke="#212121" stroke-width="1.27499995" stroke-linecap="round" d="M341.662489 135.999996v5.949999M325.29999 142.374995l4.519167 4.519167M357.599989 142.374995l-4.519166 4.519167M358.601774 159.162495h6.071429"/>
    <circle fill="#FF4E42" cx="341.449989" cy="158.949995" r="5.09999979"/>
    <path fill="#DADCE0" d="M221.493743 47.5999994h-14.343749v4.58999969h14.343749zM221.493743 55.9087489h-19.5074987v4.58999969h19.5074987zM221.493745 64.2174983h-23.5237484v4.58999969h23.5237484z"/>
    <path fill="#0CCE6B" d="M214.264495 47.5999994h-16.0649989v4.58999969h16.0649989z"/>
    <path fill="#FFA400" d="M208.679995 55.9087489h-10.7099993v4.58999969h10.7099993z"/>
    <path fill="#FF4E42" d="M203.324995 64.2174983h-5.35499963v4.58999969h5.35499963z"/>
    <circle fill="#DADCE0" transform="matrix(-1 0 0 1 442.987488 0)" cx="221.493744" cy="49.8949993" r="2.29499984"/>
    <circle fill="#0CCE6B" transform="matrix(-1 0 0 1 395.93999 0)" cx="197.969995" cy="49.8949993" r="2.29499984"/>
    <circle fill="#DADCE0" transform="matrix(-1 0 0 1 442.987488 0)" cx="221.493744" cy="58.2037487" r="2.29499984"/>
    <circle fill="#FFA400" transform="matrix(-1 0 0 1 395.93999 0)" cx="197.969995" cy="58.2037487" r="2.29499984"/>
    <circle fill="#DADCE0" transform="matrix(-1 0 0 1 442.987488 0)" cx="221.493744" cy="66.5124982" r="2.29499984"/>
    <circle fill="#FF4E42" transform="matrix(-1 0 0 1 395.93999 0)" cx="197.969995" cy="66.5124982" r="2.29499984"/>
    <path stroke="#212121" stroke-width="1.27499995" stroke-linecap="round" stroke-linejoin="round" d="M103.963987 210.513285l10.466259-9.322252 6.601374 5.949811 13.957366-11.502559"/>
    <path fill="#212121" d="M139.36733355 192.11542276l-3.0760085 7.57426047-4.9173252-5.86023998z"/>
    <path fill="#3740FF" d="M137.8749981 203.829994h5.35500014v27.3700007h-5.35500014z"/>
    <path fill="#2979FF" d="M129.37499845 210.07749416h5.35500014v21.1225006h-5.35500014z"/>
    <path fill="#3FC4FF" d="M120.705001 217.5149944h5.35500014v13.6850004H120.705001z"/>
    <g transform="translate(96.8625 212.046919)">
      <circle fill="#DADCE0" cx="11.0075001" cy="11.1205758" r="8.03250021"/>
      <path d="M17.96384909 7.06942462l-13.91269844 8.0325002c-2.21811367-3.84188557-.90178648-8.7544856 2.94009912-10.9725993 3.8418856-2.21811368 8.75448566-.90178646 10.97259932 2.9400991z" fill="#018642"/>
      <path d="M11.0075001 3.05317464V19.1181751c-4.43622738 0-8.03250023-3.5962729-8.03250023-8.0325003 0-4.43622732 3.59627285-8.03250016 8.03250023-8.03250016z" fill="#0CCE6B"/>
    </g>
    <path stroke="#212121" stroke-width="1.27499995" stroke-dasharray="3.18749976" d="M291.512491 159.162495h25.924999M209.912495 100.087497V83.0874979"/>
    <path stroke="#3FC4FF" stroke-width="6.7473005" stroke-linecap="round" stroke-linejoin="round" d="M168 158.420192h25.524271L203.881333 140l12.126702 36 10.4068-17.579808H252"/>
  </g>
</svg>
