<svg xmlns="http://www.w3.org/2000/svg" width="420" height="280">
  <rect x="129.90625" y="99.98124" width="158.73749" height="131.9625" rx="10.51875" fill="#fff" stroke="#212121" stroke-width="1.275"/>
  <path d="M140.422 99.525h137.706a10.50787 10.50787 0 0110.51573 10.5v15H129.90625v-15a10.50787 10.50787 0 0110.51575-10.5z" fill="#f5f5f5" stroke="#212121" stroke-width="1.275" fill-rule="evenodd"/>
  <circle cx="156.20312" cy="111.93437" r="4.30313" fill="#2979ff"/>
  <circle cx="141.85937" cy="111.93437" r="4.30313" fill="#3740ff"/>
  <circle cx="170.54687" cy="111.93437" r="4.30312" fill="#3fc4ff"/>
  <path fill="none" stroke="#212121" stroke-linecap="square" stroke-width="1.275" d="M130.27876 193.16249h157.99246M130.27876 213.13749h157.99246M148.7125 231.54669v-37.24341M169.1125 231.54669v-37.24341M189.08749 231.54669v-37.24341M208.21249 231.54669v-37.24341M228.6125 231.54669v-37.24341M248.16249 231.54669v-37.24341M268.56248 231.54669v-37.24341"/>
  <circle cx="248.16249" cy="213.56248" r="4.46249" fill="#3fc4ff" stroke="#212121" stroke-width="1.275"/>
  <circle cx="208.21249" cy="213.56248" r="4.4625" fill="#2979ff" stroke="#212121" stroke-width="1.275"/>
  <circle cx="122.575" cy="212.92499" r="33.575" fill="#fff" stroke="#212121" stroke-width="1.275"/>
  <circle cx="341.23749" cy="159.1625" r="24.01251" fill="#fff" stroke="#212121" stroke-width="1.275"/>
  <circle cx="209.9125" cy="58.0125" r="24.0125" fill="#fff" stroke="#212121" stroke-width="1.275"/>
  <path fill="none" stroke="#212121" stroke-linecap="round" stroke-width="1.275" d="M318.65178 159.1625h6.07143"/>
  <path fill="none" stroke="#ff4e42" stroke-linecap="round" stroke-width="1.275" d="M341.76874 159.14641l13.38751-5.7375"/>
  <path fill="none" stroke="#212121" stroke-linecap="round" stroke-width="1.275" d="M341.66249 135.99999V141.95M325.29999 142.37499l4.51916 4.51918M357.59998 142.37499l-4.51917 4.51918M358.60178 159.1625h6.07144"/>
  <circle cx="341.44998" cy="158.95" r="5.10001" fill="#ff4e42"/>
  <path fill="#dadce0" d="M207.14999 47.6h14.34375v4.59h-14.34375zM201.98624 55.90875h19.5075v4.59h-19.5075zM197.97 64.2175h23.52375v4.59H197.97z"/>
  <path fill="#0cce6b" d="M198.19949 47.6h16.065v4.59h-16.065z"/>
  <path fill="#ffa400" d="M197.97 55.90875h10.71v4.59h-10.71z"/>
  <path fill="#ff4e42" d="M197.96999 64.2175h5.355v4.59h-5.355z"/>
  <circle cx="221.49374" cy="49.895" r="2.295" fill="#dadce0"/>
  <circle cx="197.96999" cy="49.895" r="2.295" fill="#0cce6b"/>
  <circle cx="221.49374" cy="58.20375" r="2.295" fill="#dadce0"/>
  <circle cx="197.96999" cy="58.20375" r="2.295" fill="#ffa400"/>
  <circle cx="221.49374" cy="66.5125" r="2.295" fill="#dadce0"/>
  <circle cx="197.96999" cy="66.5125" r="2.295" fill="#ff4e42"/>
  <path fill="none" stroke="#212121" stroke-linecap="round" stroke-linejoin="round" stroke-width="1.275" d="M103.964 210.513l10.466-9.322 6.602 5.95 13.957-11.503"/>
  <path fill="#212121" fill-rule="evenodd" d="M139.367 192.115l-3.076 7.575-4.917-5.861 7.993-1.714z"/>
  <g>
    <path fill="#3740ff" d="M137.875 203.82999h5.355v27.37h-5.355z"/>
    <path fill="#2979ff" d="M129.375 210.07749h5.355v21.1225h-5.355z"/>
    <path fill="#3fc4ff" d="M120.705 217.51499h5.355v13.685h-5.355z"/>
  </g>
  <g>
    <circle cx="107.87" cy="223.1675" r="8.0325" fill="#dadce0"/>
    <path d="M114.82635 219.11635l-13.9127 8.0325a8.0325 8.0325 0 0113.9127-8.0325z" fill="#018642" fill-rule="evenodd"/>
    <path d="M107.87 215.1001v16.065a8.0325 8.0325 0 110-16.065z" fill="#0cce6b" fill-rule="evenodd"/>
  </g>
  <path fill="none" stroke="#212121" stroke-width="1.275" stroke-dasharray="3.1875" d="M291.5125 159.1625h25.92498M209.9125 100.08749V83.0875"/>
  <path fill="none" stroke="#3fc4ff" stroke-linecap="round" stroke-linejoin="round" stroke-width="6.375" d="M157.425 157.565h16.021l7.797-14.34 7.365 33.15 9.45-16.575 8.846 16.575 8.242-32.202 11.69 32.202 12.429-31.965 7.33 13.155h15.38"/>
</svg>
