<?xml version="1.0" encoding="utf-8"?>
<!-- Generator: Adobe Illustrator 23.1.1, SVG Export Plug-In . SVG Version: 6.00 Build 0)  -->
<svg version="1.2" baseProfile="tiny" id="Layer_1" xmlns="http://www.w3.org/2000/svg" xmlns:xlink="http://www.w3.org/1999/xlink"
	 x="0px" y="0px" viewBox="0 0 537.5 195.44" xml:space="preserve">
<g>
	<g>
		<path fill="#F6C43F" d="M266.94,85.47h1.91c-0.63,0-1.25-0.02-1.87-0.04L266.94,85.47z"/>
		<polygon fill="#F6C43F" points="266.97,85.43 266.94,85.47 266.98,85.43 		"/>
		<polygon fill="none" points="284.5,54.77 268.85,27.67 253.21,54.77 		"/>
		<polygon fill="none" points="235.42,24.25 235.42,24.25 235.42,24.26 		"/>
		<path fill="#FFC840" d="M304.25,27.67L304.25,27.67l-30.67,8.2l10.91,18.9l-17.53,30.66l0.02,0c0.62,0.03,1.24,0.04,1.87,0.04
			c21.95,0,39.74-17.79,39.74-39.74C308.58,39.23,307.02,33.09,304.25,27.67z"/>
		<polygon fill="#E19B32" points="268.85,27.67 273.58,35.87 304.25,27.67 		"/>
		<path fill="#D85044" d="M304.25,27.67C297.67,14.81,284.29,6,268.85,6c-14.03,0-26.36,7.27-33.43,18.25v0.02l0.01,0.01
			l22.44,22.43l10.99-19.03H304.25z"/>
		<polygon fill="#B04337" points="252.94,54.31 253.21,54.77 257.86,46.7 235.43,24.27 		"/>
		<path fill="#179B5E" d="M284.5,54.77l-17.53,30.66l8.22-30.66h-21.97l-17.79-30.51l0-0.01c-3.99,6.19-6.3,13.57-6.3,21.48
			c0,21.31,16.78,38.71,37.85,39.69L284.5,54.77L284.5,54.77z"/>
		<polygon fill="#0E8A52" points="284.5,54.77 275.18,54.77 266.97,85.42 		"/>
		<g>
			<circle fill="#FFFFFF" cx="268.85" cy="45.74" r="18.06"/>
		</g>
		<g>
			<circle fill="#4683EF" cx="268.85" cy="45.74" r="14.7"/>
		</g>
	</g>
	<g>
		<g>
			<g>
				<path fill="#616161" d="M21.16,189.43c-3.54,0-6.45-1.2-8.73-3.59c-2.28-2.4-3.43-5.39-3.43-9c0-3.6,1.14-6.6,3.43-9
					c2.28-2.39,5.19-3.59,8.73-3.59c2.64,0,4.82,0.64,6.56,1.93c1.74,1.29,3.01,2.91,3.81,4.87l-4.05,1.69
					c-1.22-2.96-3.42-4.44-6.61-4.44c-1.96,0-3.69,0.8-5.19,2.41c-1.5,1.61-2.24,3.65-2.24,6.13c0,2.48,0.75,4.52,2.24,6.13
					s3.22,2.41,5.19,2.41c3.31,0,5.6-1.48,6.85-4.44l3.96,1.69c-0.8,1.93-2.1,3.55-3.88,4.85C26,188.78,23.79,189.43,21.16,189.43z"
					/>
				<path fill="#616161" d="M40.93,154.12v10.9l-0.19,3.28h0.19c0.64-1.13,1.66-2.08,3.04-2.87c1.38-0.79,2.86-1.18,4.44-1.18
					c2.93,0,5.16,0.9,6.7,2.7c1.54,1.8,2.32,4.21,2.32,7.23v14.47h-4.44v-13.8c0-4.37-1.94-6.56-5.84-6.56
					c-1.83,0-3.33,0.73-4.49,2.19c-1.16,1.46-1.74,3.16-1.74,5.09v13.07H36.5v-34.54H40.93z"/>
				<path fill="#616161" d="M68.04,188.66H63.6v-23.64h4.25v3.86h0.19c0.45-1.29,1.37-2.35,2.77-3.18c1.4-0.84,2.76-1.25,4.08-1.25
					c1.32,0,2.43,0.19,3.33,0.58l-1.69,4.15c-0.58-0.22-1.37-0.34-2.36-0.34c-1.61,0-3.03,0.64-4.27,1.91
					c-1.24,1.27-1.86,2.93-1.86,4.99V188.66z"/>
				<path fill="#616161" d="M82.7,167.85c2.28-2.39,5.19-3.59,8.73-3.59c3.54,0,6.45,1.2,8.73,3.59c2.28,2.4,3.43,5.4,3.43,9
					c0,3.6-1.14,6.6-3.43,9c-2.28,2.4-5.19,3.59-8.73,3.59c-3.54,0-6.45-1.2-8.73-3.59c-2.28-2.4-3.43-5.39-3.43-9
					C79.28,173.24,80.42,170.24,82.7,167.85z M86.01,183.04c1.53,1.56,3.34,2.34,5.43,2.34c2.09,0,3.9-0.78,5.43-2.34
					c1.53-1.56,2.29-3.63,2.29-6.2c0-2.57-0.77-4.64-2.29-6.2c-1.53-1.56-3.34-2.34-5.43-2.34c-2.09,0-3.9,0.78-5.43,2.34
					c-1.53,1.56-2.29,3.63-2.29,6.2C83.72,179.42,84.48,181.48,86.01,183.04z"/>
				<path fill="#616161" d="M108.13,188.66v-23.64h4.25v3.28h0.19c0.68-1.13,1.71-2.08,3.11-2.87c1.4-0.79,2.79-1.18,4.17-1.18
					c3.67,0,6.16,1.51,7.48,4.53c1.93-3.02,4.68-4.53,8.25-4.53c2.8,0,4.9,0.89,6.32,2.68c1.41,1.78,2.12,4.21,2.12,7.26v14.47
					h-4.44v-13.8c0-2.38-0.43-4.07-1.3-5.06c-0.87-1-2.19-1.5-3.95-1.5c-1.74,0-3.18,0.74-4.32,2.22c-1.14,1.48-1.71,3.17-1.71,5.06
					v13.07h-4.44v-13.8c0-2.38-0.43-4.07-1.3-5.06c-0.87-1-2.19-1.5-3.95-1.5c-1.74,0-3.18,0.74-4.32,2.22
					c-1.14,1.48-1.71,3.17-1.71,5.06v13.07H108.13z"/>
				<path fill="#616161" d="M160.9,189.43c-3.57,0-6.47-1.19-8.71-3.57c-2.24-2.38-3.35-5.39-3.35-9.02c0-3.44,1.09-6.4,3.26-8.88
					c2.17-2.48,4.94-3.71,8.32-3.71c3.5,0,6.31,1.14,8.42,3.42c2.11,2.28,3.16,5.34,3.16,9.16l-0.05,0.82h-18.67
					c0.13,2.38,0.92,4.26,2.39,5.64s3.18,2.07,5.14,2.07c3.18,0,5.34-1.35,6.46-4.05l3.96,1.64c-0.77,1.83-2.04,3.37-3.81,4.61
					C165.64,188.81,163.47,189.43,160.9,189.43z M167.26,174c-0.1-1.35-0.72-2.64-1.86-3.86c-1.14-1.22-2.84-1.83-5.09-1.83
					c-1.64,0-3.06,0.52-4.27,1.54c-1.21,1.03-2.03,2.41-2.48,4.15H167.26z"/>
				<path fill="#616161" d="M200.13,189.44c-3.06,0-5.69-1.21-7.91-3.62c-2.22-2.41-3.33-5.4-3.33-8.97s1.11-6.56,3.33-8.97
					c2.22-2.41,4.86-3.62,7.91-3.62c1.8,0,3.42,0.39,4.85,1.16c1.43,0.77,2.5,1.74,3.21,2.9h0.19l-0.19-3.28v-10.9h4.44v34.54h-4.25
					v-3.28h-0.19c-0.71,1.16-1.78,2.12-3.21,2.9C203.55,189.05,201.93,189.44,200.13,189.44z M200.86,185.38
					c2.09,0,3.87-0.77,5.33-2.32c1.46-1.54,2.19-3.62,2.19-6.22c0-2.6-0.73-4.68-2.19-6.22c-1.46-1.54-3.24-2.32-5.33-2.32
					c-2.06,0-3.83,0.78-5.31,2.34c-1.48,1.56-2.22,3.63-2.22,6.2c0,2.57,0.74,4.64,2.22,6.2
					C197.03,184.6,198.8,185.38,200.86,185.38z"/>
				<path fill="#616161" d="M229.46,189.44c-3.57,0-6.47-1.19-8.71-3.57c-2.24-2.38-3.35-5.39-3.35-9.02c0-3.44,1.09-6.4,3.26-8.88
					s4.94-3.71,8.32-3.71c3.5,0,6.31,1.14,8.42,3.43c2.1,2.28,3.16,5.34,3.16,9.16l-0.05,0.82h-18.67c0.13,2.38,0.92,4.26,2.39,5.64
					c1.46,1.38,3.18,2.07,5.14,2.07c3.18,0,5.34-1.35,6.46-4.05l3.96,1.64c-0.77,1.83-2.04,3.37-3.81,4.61
					C234.2,188.82,232.03,189.44,229.46,189.44z M235.83,174c-0.1-1.35-0.72-2.64-1.86-3.86s-2.84-1.83-5.09-1.83
					c-1.64,0-3.06,0.51-4.27,1.54c-1.21,1.03-2.03,2.41-2.48,4.15H235.83z"/>
				<path fill="#616161" d="M252.13,188.66l-9.55-23.64h4.82l6.95,18.33h0.1l7.04-18.33h4.73l-9.65,23.64H252.13z"/>
				<path fill="#616161" d="M290.43,189.44c-2.64,0-4.82-0.64-6.54-1.93c-1.72-1.29-2.98-2.89-3.79-4.82l3.96-1.64
					c1.25,2.96,3.39,4.44,6.41,4.44c1.38,0,2.52-0.31,3.4-0.92s1.33-1.41,1.33-2.41c0-1.54-1.08-2.59-3.23-3.13l-4.78-1.16
					c-1.51-0.39-2.94-1.12-4.29-2.2c-1.35-1.08-2.03-2.53-2.03-4.36c0-2.09,0.92-3.79,2.77-5.09c1.85-1.3,4.04-1.95,6.58-1.95
					c2.09,0,3.96,0.48,5.6,1.42c1.64,0.95,2.81,2.31,3.52,4.08l-3.86,1.59c-0.87-2.09-2.67-3.13-5.4-3.13
					c-1.32,0-2.43,0.27-3.33,0.82c-0.9,0.55-1.35,1.29-1.35,2.22c0,1.35,1.04,2.27,3.14,2.75l4.68,1.11
					c2.22,0.51,3.86,1.4,4.92,2.65c1.06,1.25,1.59,2.67,1.59,4.25c0,2.12-0.87,3.89-2.6,5.31S293.16,189.44,290.43,189.44z"/>
				<path fill="#616161" d="M325.31,188.66h-4.25v-3.28h-0.19c-0.68,1.13-1.71,2.08-3.09,2.87c-1.38,0.79-2.85,1.18-4.39,1.18
					c-2.96,0-5.2-0.9-6.73-2.7s-2.29-4.21-2.29-7.24v-14.47h4.44v13.75c0,4.41,1.94,6.61,5.84,6.61c1.83,0,3.33-0.74,4.49-2.22
					c1.16-1.48,1.74-3.18,1.74-5.11v-13.02h4.44V188.66z"/>
				<path fill="#616161" d="M331.67,188.66v-23.64h4.25v3.28h0.19c0.68-1.13,1.71-2.08,3.11-2.87c1.4-0.79,2.79-1.18,4.17-1.18
					c3.67,0,6.16,1.51,7.48,4.53c1.93-3.02,4.68-4.53,8.25-4.53c2.8,0,4.9,0.89,6.32,2.68s2.12,4.2,2.12,7.26v14.47h-4.44v-13.79
					c0-2.38-0.43-4.07-1.3-5.06c-0.87-1-2.19-1.5-3.95-1.5c-1.74,0-3.18,0.74-4.32,2.22c-1.14,1.48-1.71,3.17-1.71,5.06v13.07h-4.44
					v-13.79c0-2.38-0.43-4.07-1.3-5.06c-0.87-1-2.19-1.5-3.95-1.5c-1.74,0-3.18,0.74-4.32,2.22c-1.14,1.48-1.71,3.17-1.71,5.06
					v13.07H331.67z"/>
				<path fill="#616161" d="M373.73,188.66v-23.64h4.25v3.28h0.19c0.68-1.13,1.71-2.08,3.11-2.87c1.4-0.79,2.79-1.18,4.17-1.18
					c3.67,0,6.16,1.51,7.48,4.53c1.93-3.02,4.68-4.53,8.25-4.53c2.8,0,4.9,0.89,6.32,2.68c1.41,1.78,2.12,4.2,2.12,7.26v14.47h-4.44
					v-13.79c0-2.38-0.43-4.07-1.3-5.06c-0.87-1-2.19-1.5-3.95-1.5c-1.74,0-3.18,0.74-4.32,2.22c-1.14,1.48-1.71,3.17-1.71,5.06
					v13.07h-4.44v-13.79c0-2.38-0.43-4.07-1.3-5.06c-0.87-1-2.19-1.5-3.95-1.5c-1.74,0-3.18,0.74-4.32,2.22
					c-1.14,1.48-1.71,3.17-1.71,5.06v13.07H373.73z"/>
				<path fill="#616161" d="M420.62,159.09c-0.61,0.61-1.35,0.92-2.22,0.92c-0.87,0-1.61-0.31-2.22-0.92
					c-0.61-0.61-0.92-1.35-0.92-2.22s0.3-1.61,0.92-2.22c0.61-0.61,1.35-0.92,2.22-0.92c0.87,0,1.61,0.31,2.22,0.92
					c0.61,0.61,0.92,1.35,0.92,2.22S421.23,158.48,420.62,159.09z M420.62,188.66h-4.44v-23.64h4.44V188.66z"/>
				<path fill="#616161" d="M437.36,189.05c-2.48,0-4.36-0.66-5.67-1.98c-1.3-1.32-1.95-3.18-1.95-5.6v-12.4h-4.15v-4.05h4.15v-7.24
					h4.44v7.24h5.79v4.05h-5.79v12.06c0,2.57,1.06,3.86,3.18,3.86c0.8,0,1.48-0.13,2.03-0.39l1.54,3.81
					C439.96,188.84,438.77,189.05,437.36,189.05z"/>
			</g>
			<g>
				<path fill="#898989" d="M455.69,185.67c0.73-0.73,2.17-2.19,4.33-4.38c2.16-2.19,3.66-3.75,4.51-4.67
					c1.2-1.27,2.01-2.27,2.43-3.01c0.42-0.74,0.63-1.62,0.63-2.66c0-0.7-0.18-1.37-0.53-1.99c-0.35-0.62-0.87-1.13-1.57-1.51
					s-1.52-0.58-2.48-0.58c-1.27,0-2.29,0.37-3.06,1.11c-0.77,0.74-1.28,1.54-1.51,2.41l-2.71-1.09c0.23-0.75,0.66-1.53,1.27-2.34
					c0.61-0.81,1.43-1.5,2.46-2.08c1.03-0.58,2.24-0.86,3.63-0.86c1.48,0,2.79,0.32,3.94,0.95c1.15,0.63,2.04,1.48,2.68,2.53
					c0.63,1.06,0.95,2.2,0.95,3.42c0,2.49-1.3,5.03-3.91,7.64l-7.18,7.25h11.37v2.85h-15.24V185.67z"/>
				<path fill="#898989" d="M479.61,187.55c-1.47-1.11-2.59-2.63-3.38-4.54c-0.79-1.91-1.18-4.04-1.18-6.39
					c0-2.35,0.39-4.48,1.18-6.39c0.79-1.91,1.91-3.43,3.36-4.54c1.45-1.11,3.14-1.67,5.07-1.67c1.9,0,3.58,0.56,5.03,1.67
					c1.45,1.12,2.58,2.63,3.38,4.54c0.8,1.91,1.2,4.04,1.2,6.39c0,2.35-0.4,4.48-1.2,6.39c-0.8,1.91-1.92,3.43-3.38,4.54
					c-1.46,1.11-3.13,1.67-5.03,1.67C482.76,189.23,481.08,188.67,479.61,187.55z M488.13,185.09c1-0.86,1.77-2.02,2.31-3.5
					c0.54-1.48,0.81-3.13,0.81-4.96c0-1.83-0.27-3.49-0.81-4.96c-0.54-1.48-1.31-2.65-2.31-3.5c-1-0.86-2.15-1.29-3.47-1.29
					c-1.34,0-2.5,0.43-3.49,1.29c-0.99,0.86-1.75,2.02-2.29,3.5c-0.54,1.48-0.81,3.13-0.81,4.96c0,1.83,0.27,3.49,0.81,4.96
					c0.54,1.48,1.3,2.65,2.29,3.5c0.99,0.86,2.15,1.29,3.49,1.29C485.98,186.37,487.14,185.95,488.13,185.09z"/>
				<path fill="#898989" d="M503.71,168.77l-4.23,3.03l-1.58-2.29l6.87-4.93h1.9v24.08h-2.96V168.77z"/>
				<path fill="#898989" d="M516.71,187.57l6.09-8.49l-0.07-0.07c-0.82,0.56-1.87,0.84-3.13,0.84c-1.22,0-2.42-0.34-3.59-1.02
					c-1.17-0.68-2.13-1.61-2.87-2.8c-0.74-1.19-1.11-2.51-1.11-3.96c0-1.41,0.38-2.73,1.13-3.96s1.75-2.22,3.01-2.98
					c1.26-0.75,2.61-1.13,4.07-1.13c1.62,0,3.06,0.39,4.31,1.16c1.26,0.77,2.23,1.78,2.92,3.01s1.04,2.53,1.04,3.89
					c0,1.29-0.26,2.53-0.79,3.71c-0.53,1.19-1.29,2.51-2.27,3.96l-6.34,9.47L516.71,187.57z M522.85,176.5
					c0.81-0.46,1.45-1.08,1.92-1.87c0.47-0.79,0.7-1.65,0.7-2.59c0-0.96-0.23-1.84-0.7-2.62c-0.47-0.79-1.11-1.41-1.92-1.87
					c-0.81-0.46-1.68-0.69-2.62-0.69c-0.94,0-1.8,0.23-2.59,0.69c-0.79,0.46-1.41,1.08-1.88,1.87c-0.47,0.79-0.7,1.66-0.7,2.62
					c0,0.94,0.23,1.8,0.7,2.59c0.47,0.79,1.1,1.41,1.88,1.87c0.79,0.46,1.65,0.69,2.59,0.69
					C521.17,177.19,522.04,176.96,522.85,176.5z"/>
			</g>
		</g>
		
			<rect x="267.91" y="32.24" transform="matrix(6.123234e-17 -1 1 6.123234e-17 147.2211 390.2791)" fill="#898989" width="1.68" height="178.58"/>
	</g>
</g>
</svg>
