<svg version="1.2" baseProfile="tiny" xmlns="http://www.w3.org/2000/svg" viewBox="0 0 537.5 195.44"><path fill="#F6C43F" d="M266.94 85.47h1.91c-.63 0-1.25-.02-1.87-.04l-.04.04z"/><path fill="#F6C43F" d="M266.97 85.43l-.03.04.04-.04z"/><path fill="none" d="M284.5 54.77l-15.65-27.1-15.64 27.1zM235.42 24.25v.01z"/><path fill="#FFC840" d="M304.25 27.67l-30.67 8.2 10.91 18.9-17.53 30.66h.02c.62.03 1.24.04 1.87.04 21.95 0 39.74-17.79 39.74-39.74a39.71 39.71 0 00-4.34-18.06z"/><path fill="#E19B32" d="M268.85 27.67l4.73 8.2 30.67-8.2z"/><path fill="#D85044" d="M304.25 27.67C297.67 14.81 284.29 6 268.85 6c-14.03 0-26.36 7.27-33.43 18.25v.02l.01.01 22.44 22.43 10.99-19.03h35.39z"/><path fill="#B04337" d="M252.94 54.31l.27.46 4.65-8.07-22.43-22.43z"/><path fill="#179B5E" d="M284.5 54.77l-17.53 30.66 8.22-30.66h-21.97l-17.79-30.51v-.01c-3.99 6.19-6.3 13.57-6.3 21.48 0 21.31 16.78 38.71 37.85 39.69l17.52-30.65z"/><path fill="#0E8A52" d="M284.5 54.77h-9.32l-8.21 30.65z"/><circle fill="#FFF" cx="268.85" cy="45.74" r="18.06"/><circle fill="#4683EF" cx="268.85" cy="45.74" r="14.7"/><g><g fill="#616161"><path d="M21.16 189.43c-3.54 0-6.45-1.2-8.73-3.59-2.28-2.4-3.43-5.39-3.43-9 0-3.6 1.14-6.6 3.43-9 2.28-2.39 5.19-3.59 8.73-3.59 2.64 0 4.82.64 6.56 1.93 1.74 1.29 3.01 2.91 3.81 4.87l-4.05 1.69c-1.22-2.96-3.42-4.44-6.61-4.44-1.96 0-3.69.8-5.19 2.41-1.5 1.61-2.24 3.65-2.24 6.13s.75 4.52 2.24 6.13 3.22 2.41 5.19 2.41c3.31 0 5.6-1.48 6.85-4.44l3.96 1.69c-.8 1.93-2.1 3.55-3.88 4.85-1.8 1.3-4.01 1.95-6.64 1.95zM40.93 154.12v10.9l-.19 3.28h.19c.64-1.13 1.66-2.08 3.04-2.87a8.786 8.786 0 014.44-1.18c2.93 0 5.16.9 6.7 2.7 1.54 1.8 2.32 4.21 2.32 7.23v14.47h-4.44v-13.8c0-4.37-1.94-6.56-5.84-6.56-1.83 0-3.33.73-4.49 2.19-1.16 1.46-1.74 3.16-1.74 5.09v13.07H36.5V154.1h4.43zM68.04 188.66H63.6v-23.64h4.25v3.86h.19c.45-1.29 1.37-2.35 2.77-3.18 1.4-.84 2.76-1.25 4.08-1.25 1.32 0 2.43.19 3.33.58l-1.69 4.15c-.58-.22-1.37-.34-2.36-.34-1.61 0-3.03.64-4.27 1.91-1.24 1.27-1.86 2.93-1.86 4.99v12.92zM82.7 167.85c2.28-2.39 5.19-3.59 8.73-3.59s6.45 1.2 8.73 3.59c2.28 2.4 3.43 5.4 3.43 9 0 3.6-1.14 6.6-3.43 9-2.28 2.4-5.19 3.59-8.73 3.59s-6.45-1.2-8.73-3.59c-2.28-2.4-3.43-5.39-3.43-9 .01-3.61 1.15-6.61 3.43-9zm3.31 15.19c1.53 1.56 3.34 2.34 5.43 2.34s3.9-.78 5.43-2.34c1.53-1.56 2.29-3.63 2.29-6.2 0-2.57-.77-4.64-2.29-6.2-1.53-1.56-3.34-2.34-5.43-2.34s-3.9.78-5.43 2.34c-1.53 1.56-2.29 3.63-2.29 6.2 0 2.58.76 4.64 2.29 6.2zM108.13 188.66v-23.64h4.25v3.28h.19c.68-1.13 1.71-2.08 3.11-2.87s2.79-1.18 4.17-1.18c3.67 0 6.16 1.51 7.48 4.53 1.93-3.02 4.68-4.53 8.25-4.53 2.8 0 4.9.89 6.32 2.68 1.41 1.78 2.12 4.21 2.12 7.26v14.47h-4.44v-13.8c0-2.38-.43-4.07-1.3-5.06-.87-1-2.19-1.5-3.95-1.5-1.74 0-3.18.74-4.32 2.22-1.14 1.48-1.71 3.17-1.71 5.06v13.07h-4.44v-13.8c0-2.38-.43-4.07-1.3-5.06-.87-1-2.19-1.5-3.95-1.5-1.74 0-3.18.74-4.32 2.22-1.14 1.48-1.71 3.17-1.71 5.06v13.07h-4.45zM160.9 189.43c-3.57 0-6.47-1.19-8.71-3.57-2.24-2.38-3.35-5.39-3.35-9.02 0-3.44 1.09-6.4 3.26-8.88 2.17-2.48 4.94-3.71 8.32-3.71 3.5 0 6.31 1.14 8.42 3.42 2.11 2.28 3.16 5.34 3.16 9.16l-.05.82h-18.67c.13 2.38.92 4.26 2.39 5.64s3.18 2.07 5.14 2.07c3.18 0 5.34-1.35 6.46-4.05l3.96 1.64c-.77 1.83-2.04 3.37-3.81 4.61-1.78 1.25-3.95 1.87-6.52 1.87zm6.36-15.43c-.1-1.35-.72-2.64-1.86-3.86-1.14-1.22-2.84-1.83-5.09-1.83-1.64 0-3.06.52-4.27 1.54-1.21 1.03-2.03 2.41-2.48 4.15h13.7zM200.13 189.44c-3.06 0-5.69-1.21-7.91-3.62-2.22-2.41-3.33-5.4-3.33-8.97s1.11-6.56 3.33-8.97c2.22-2.41 4.86-3.62 7.91-3.62 1.8 0 3.42.39 4.85 1.16 1.43.77 2.5 1.74 3.21 2.9h.19l-.19-3.28v-10.9h4.44v34.54h-4.25v-3.28h-.19c-.71 1.16-1.78 2.12-3.21 2.9-1.43.75-3.05 1.14-4.85 1.14zm.73-4.06c2.09 0 3.87-.77 5.33-2.32 1.46-1.54 2.19-3.62 2.19-6.22 0-2.6-.73-4.68-2.19-6.22s-3.24-2.32-5.33-2.32c-2.06 0-3.83.78-5.31 2.34-1.48 1.56-2.22 3.63-2.22 6.2 0 2.57.74 4.64 2.22 6.2 1.48 1.56 3.25 2.34 5.31 2.34zM229.46 189.44c-3.57 0-6.47-1.19-8.71-3.57-2.24-2.38-3.35-5.39-3.35-9.02 0-3.44 1.09-6.4 3.26-8.88s4.94-3.71 8.32-3.71c3.5 0 6.31 1.14 8.42 3.43 2.1 2.28 3.16 5.34 3.16 9.16l-.05.82h-18.67c.13 2.38.92 4.26 2.39 5.64 1.46 1.38 3.18 2.07 5.14 2.07 3.18 0 5.34-1.35 6.46-4.05l3.96 1.64c-.77 1.83-2.04 3.37-3.81 4.61-1.78 1.24-3.95 1.86-6.52 1.86zm6.37-15.44c-.1-1.35-.72-2.64-1.86-3.86s-2.84-1.83-5.09-1.83c-1.64 0-3.06.51-4.27 1.54-1.21 1.03-2.03 2.41-2.48 4.15h13.7zM252.13 188.66l-9.55-23.64h4.82l6.95 18.33h.1l7.04-18.33h4.73l-9.65 23.64h-4.44zM290.43 189.44c-2.64 0-4.82-.64-6.54-1.93-1.72-1.29-2.98-2.89-3.79-4.82l3.96-1.64c1.25 2.96 3.39 4.44 6.41 4.44 1.38 0 2.52-.31 3.4-.92s1.33-1.41 1.33-2.41c0-1.54-1.08-2.59-3.23-3.13l-4.78-1.16c-1.51-.39-2.94-1.12-4.29-2.2s-2.03-2.53-2.03-4.36c0-2.09.92-3.79 2.77-5.09 1.85-1.3 4.04-1.95 6.58-1.95 2.09 0 3.96.48 5.6 1.42 1.64.95 2.81 2.31 3.52 4.08l-3.86 1.59c-.87-2.09-2.67-3.13-5.4-3.13-1.32 0-2.43.27-3.33.82-.9.55-1.35 1.29-1.35 2.22 0 1.35 1.04 2.27 3.14 2.75l4.68 1.11c2.22.51 3.86 1.4 4.92 2.65s1.59 2.67 1.59 4.25c0 2.12-.87 3.89-2.6 5.31s-3.97 2.1-6.7 2.1zM325.31 188.66h-4.25v-3.28h-.19c-.68 1.13-1.71 2.08-3.09 2.87a8.713 8.713 0 01-4.39 1.18c-2.96 0-5.2-.9-6.73-2.7s-2.29-4.21-2.29-7.24v-14.47h4.44v13.75c0 4.41 1.94 6.61 5.84 6.61 1.83 0 3.33-.74 4.49-2.22 1.16-1.48 1.74-3.18 1.74-5.11v-13.02h4.44v23.63zM331.67 188.66v-23.64h4.25v3.28h.19c.68-1.13 1.71-2.08 3.11-2.87s2.79-1.18 4.17-1.18c3.67 0 6.16 1.51 7.48 4.53 1.93-3.02 4.68-4.53 8.25-4.53 2.8 0 4.9.89 6.32 2.68s2.12 4.2 2.12 7.26v14.47h-4.44v-13.79c0-2.38-.43-4.07-1.3-5.06-.87-1-2.19-1.5-3.95-1.5-1.74 0-3.18.74-4.32 2.22-1.14 1.48-1.71 3.17-1.71 5.06v13.07h-4.44v-13.79c0-2.38-.43-4.07-1.3-5.06-.87-1-2.19-1.5-3.95-1.5-1.74 0-3.18.74-4.32 2.22-1.14 1.48-1.71 3.17-1.71 5.06v13.07h-4.45zM373.73 188.66v-23.64h4.25v3.28h.19c.68-1.13 1.71-2.08 3.11-2.87s2.79-1.18 4.17-1.18c3.67 0 6.16 1.51 7.48 4.53 1.93-3.02 4.68-4.53 8.25-4.53 2.8 0 4.9.89 6.32 2.68 1.41 1.78 2.12 4.2 2.12 7.26v14.47h-4.44v-13.79c0-2.38-.43-4.07-1.3-5.06-.87-1-2.19-1.5-3.95-1.5-1.74 0-3.18.74-4.32 2.22-1.14 1.48-1.71 3.17-1.71 5.06v13.07h-4.44v-13.79c0-2.38-.43-4.07-1.3-5.06-.87-1-2.19-1.5-3.95-1.5-1.74 0-3.18.74-4.32 2.22-1.14 1.48-1.71 3.17-1.71 5.06v13.07h-4.45zM420.62 159.09c-.61.61-1.35.92-2.22.92-.87 0-1.61-.31-2.22-.92-.61-.61-.92-1.35-.92-2.22s.3-1.61.92-2.22c.61-.61 1.35-.92 2.22-.92.87 0 1.61.31 2.22.92.61.61.92 1.35.92 2.22s-.31 1.61-.92 2.22zm0 29.57h-4.44v-23.64h4.44v23.64zM437.36 189.05c-2.48 0-4.36-.66-5.67-1.98-1.3-1.32-1.95-3.18-1.95-5.6v-12.4h-4.15v-4.05h4.15v-7.24h4.44v7.24h5.79v4.05h-5.79v12.06c0 2.57 1.06 3.86 3.18 3.86.8 0 1.48-.13 2.03-.39l1.54 3.81c-.97.43-2.16.64-3.57.64z"/></g><g fill="#898989"><path d="M455.69 185.67c.73-.73 2.17-2.19 4.33-4.38s3.66-3.75 4.51-4.67c1.2-1.27 2.01-2.27 2.43-3.01.42-.74.63-1.62.63-2.66 0-.7-.18-1.37-.53-1.99-.35-.62-.87-1.13-1.57-1.51s-1.52-.58-2.48-.58c-1.27 0-2.29.37-3.06 1.11-.77.74-1.28 1.54-1.51 2.41l-2.71-1.09c.23-.75.66-1.53 1.27-2.34.61-.81 1.43-1.5 2.46-2.08 1.03-.58 2.24-.86 3.63-.86 1.48 0 2.79.32 3.94.95 1.15.63 2.04 1.48 2.68 2.53.63 1.06.95 2.2.95 3.42 0 2.49-1.3 5.03-3.91 7.64l-7.18 7.25h11.37v2.85H455.7v-2.99zM479.61 187.55c-1.47-1.11-2.59-2.63-3.38-4.54-.79-1.91-1.18-4.04-1.18-6.39 0-2.35.39-4.48 1.18-6.39.79-1.91 1.91-3.43 3.36-4.54 1.45-1.11 3.14-1.67 5.07-1.67 1.9 0 3.58.56 5.03 1.67 1.45 1.12 2.58 2.63 3.38 4.54.8 1.91 1.2 4.04 1.2 6.39 0 2.35-.4 4.48-1.2 6.39-.8 1.91-1.92 3.43-3.38 4.54-1.46 1.11-3.13 1.67-5.03 1.67-1.9.01-3.58-.55-5.05-1.67zm8.52-2.46c1-.86 1.77-2.02 2.31-3.5s.81-3.13.81-4.96-.27-3.49-.81-4.96c-.54-1.48-1.31-2.65-2.31-3.5-1-.86-2.15-1.29-3.47-1.29-1.34 0-2.5.43-3.49 1.29-.99.86-1.75 2.02-2.29 3.5s-.81 3.13-.81 4.96.27 3.49.81 4.96c.54 1.48 1.3 2.65 2.29 3.5.99.86 2.15 1.29 3.49 1.29 1.32-.01 2.48-.43 3.47-1.29zM503.71 168.77l-4.23 3.03-1.58-2.29 6.87-4.93h1.9v24.08h-2.96v-19.89zM516.71 187.57l6.09-8.49-.07-.07c-.82.56-1.87.84-3.13.84-1.22 0-2.42-.34-3.59-1.02a8.179 8.179 0 01-2.87-2.8c-.74-1.19-1.11-2.51-1.11-3.96 0-1.41.38-2.73 1.13-3.96s1.75-2.22 3.01-2.98a7.808 7.808 0 014.07-1.13c1.62 0 3.06.39 4.31 1.16 1.26.77 2.23 1.78 2.92 3.01s1.04 2.53 1.04 3.89c0 1.29-.26 2.53-.79 3.71-.53 1.19-1.29 2.51-2.27 3.96l-6.34 9.47-2.4-1.63zm6.14-11.07c.81-.46 1.45-1.08 1.92-1.87s.7-1.65.7-2.59c0-.96-.23-1.84-.7-2.62a5.144 5.144 0 00-1.92-1.87 5.21 5.21 0 00-2.62-.69c-.94 0-1.8.23-2.59.69-.79.46-1.41 1.08-1.88 1.87s-.7 1.66-.7 2.62c0 .94.23 1.8.7 2.59.47.79 1.1 1.41 1.88 1.87.79.46 1.65.69 2.59.69s1.81-.23 2.62-.69z"/></g><path fill="#898989" d="M179.461 122.37v-1.68h178.58v1.68z"/></g></svg>