<svg id="Layer_1" data-name="Layer 1" xmlns="http://www.w3.org/2000/svg" xmlns:xlink="http://www.w3.org/1999/xlink" viewBox="0 0 338 155"><defs><style>.cls-1{fill:none;}.cls-2{clip-path:url(#clip-path);}.cls-3{fill:#4285f4;}.cls-3,.cls-4,.cls-5{opacity:0.48;}.cls-4{fill:#f2f0ff;}.cls-5{fill:#c3bce8;}.cls-6{font-size:61.9px;}.cls-6,.cls-7{fill:#3c3c3b;font-family:GoogleSans-Regular, Google Sans;}.cls-7{font-size:36.15px;}.cls-8{letter-spacing:-0.01em;}</style><clipPath id="clip-path"><rect class="cls-1" x="186.12" y="33.28" width="80.56" height="80.56"/></clipPath></defs><title>Logo_SOW</title><g class="cls-2"><path class="cls-3" d="M244.6,59a27.17,27.17,0,1,0,8,19.22A27,27,0,0,0,244.6,59Z"/><path class="cls-3" d="M244.6,59a27,27,0,0,0-19.22-8V105.4A27.17,27.17,0,0,0,244.6,59Z"/><path class="cls-4" d="M252.51,76.63h-13.8a57.64,57.64,0,0,0-1.12-10H250a27.49,27.49,0,0,0-1.78-3.18H236.85a40.32,40.32,0,0,0-5-11.62,26.75,26.75,0,0,0-4.49-.7,29.56,29.56,0,0,1,5,8.78c.44,1.14.84,2.32,1.19,3.54H217.22c.35-1.22.74-2.4,1.18-3.54a29.79,29.79,0,0,1,5-8.78,26.75,26.75,0,0,0-4.49.7,40.32,40.32,0,0,0-5,11.62H202.58a26.08,26.08,0,0,0-1.78,3.18h12.37a58.64,58.64,0,0,0-1.11,10h-13.8c0,.53,0,1.06,0,1.6s0,1.06,0,1.59h13.8a58.64,58.64,0,0,0,1.11,10H200.8A26.08,26.08,0,0,0,202.58,93h11.34a40.32,40.32,0,0,0,5,11.62,26.75,26.75,0,0,0,4.49.7,29.79,29.79,0,0,1-5-8.78c-.44-1.14-.83-2.32-1.18-3.54h16.33c-.35,1.22-.75,2.4-1.19,3.54a29.56,29.56,0,0,1-5,8.78,26.75,26.75,0,0,0,4.49-.7,40.32,40.32,0,0,0,5-11.62h11.34A27.49,27.49,0,0,0,250,89.83H237.59a57.64,57.64,0,0,0,1.12-10h13.8c0-.53.05-1.06.05-1.59S252.54,77.16,252.51,76.63Zm-18.16,13.2H216.42a55.94,55.94,0,0,1-1.18-10h20.28A55,55,0,0,1,234.35,89.83Zm-19.11-13.2a55.94,55.94,0,0,1,1.18-10h17.93a55,55,0,0,1,1.17,10Z"/><path class="cls-5" d="M252.51,79.82c0-.53.05-1.06.05-1.59s0-1.07-.05-1.6h-13.8a57.64,57.64,0,0,0-1.12-10H250a27.49,27.49,0,0,0-1.78-3.18H236.85a40.32,40.32,0,0,0-5-11.62,26.75,26.75,0,0,0-4.49-.7,29.56,29.56,0,0,1,5,8.78c.44,1.14.84,2.32,1.19,3.54h-8.17v3.18h9a55,55,0,0,1,1.17,10H225.38v3.19h10.14a55,55,0,0,1-1.17,10h-9V93h8.17c-.35,1.22-.75,2.4-1.19,3.54a29.56,29.56,0,0,1-5,8.78,26.75,26.75,0,0,0,4.49-.7,40.32,40.32,0,0,0,5-11.62h11.34A27.49,27.49,0,0,0,250,89.83H237.59a57.64,57.64,0,0,0,1.12-10Z"/></g><text class="cls-6" transform="translate(2 100.47)">SCALE</text><text class="cls-7" transform="translate(266.17 74.88)"><tspan class="cls-8">o</tspan><tspan x="21.18" y="0">n </tspan><tspan class="cls-8" x="0" y="27.64">w</tspan><tspan x="27.72" y="27.64">eb</tspan></text></svg>