<svg version="1.1" viewBox="0.0 0.0 960.0 312.0" fill="none" stroke="none" stroke-linecap="square" stroke-miterlimit="10" xmlns:xlink="http://www.w3.org/1999/xlink" xmlns="http://www.w3.org/2000/svg"><clipPath id="p.0"><path d="m0 0l960.0 0l0 312.0l-960.0 0l0 -312.0z" clip-rule="nonzero"/></clipPath><g clip-path="url(#p.0)"><path fill="#000000" fill-opacity="0.0" d="m0 0l960.0 0l0 312.0l-960.0 0z" fill-rule="evenodd"/><path fill="#000000" fill-opacity="0.0" d="m136.7454 214.56903l782.1417 0" fill-rule="evenodd"/><path stroke="#000000" stroke-width="1.0" stroke-linejoin="round" stroke-linecap="butt" d="m136.7454 214.56902l776.1417 0" fill-rule="evenodd"/><path fill="#000000" stroke="#000000" stroke-width="1.0" stroke-linecap="butt" d="m912.88715 216.22075l4.538086 -1.6517334l-4.538086 -1.6517334z" fill-rule="evenodd"/><path fill="#e8c469" d="m348.27032 204.15486l86.33072 0l0 19.842514l-86.33072 0z" fill-rule="evenodd"/><path fill="#e8c469" d="m694.026 204.15547l31.716553 0l0 19.842514l-31.716553 0z" fill-rule="evenodd"/><path fill="#e8c469" d="m467.13385 204.15486l186.64569 0l0 19.842514l-186.64569 0z" fill-rule="evenodd"/><path fill="#000000" fill-opacity="0.0" d="m136.74652 13.794635l145.51181 0l0 47.68504l-145.51181 0z" fill-rule="evenodd"/><path fill="#000000" d="m146.76215 35.594635l0 -9.546875l1.296875 0l5.015625 7.5l0 -7.5l1.203125 0l0 9.546875l-1.296875 0l-5.015625 -7.5l0 7.5l-1.203125 0zm14.000153 -0.859375q-0.65625 0.5625 -1.265625 0.796875q-0.59375 0.21875 -1.28125 0.21875q-1.140625 0 -1.75 -0.546875q-0.609375 -0.5625 -0.609375 -1.4375q0 -0.5 0.21875 -0.921875q0.234375 -0.421875 0.609375 -0.671875q0.375 -0.25 0.84375 -0.390625q0.34375 -0.078125 1.046875 -0.171875q1.421875 -0.171875 2.09375 -0.40625q0 -0.234375 0 -0.296875q0 -0.71875 -0.328125 -1.015625q-0.453125 -0.390625 -1.34375 -0.390625q-0.8125 0 -1.21875 0.296875q-0.390625 0.28125 -0.578125 1.015625l-1.140625 -0.15625q0.15625 -0.734375 0.515625 -1.1875q0.359375 -0.453125 1.03125 -0.6875q0.671875 -0.25 1.5625 -0.25q0.890625 0 1.4375 0.203125q0.5625 0.203125 0.8125 0.53125q0.265625 0.3125 0.375 0.796875q0.046875 0.296875 0.046875 1.078125l0 1.5625q0 1.625 0.078125 2.0625q0.078125 0.4375 0.296875 0.828125l-1.21875 0q-0.1875 -0.359375 -0.234375 -0.859375zm-0.09375 -2.609375q-0.640625 0.265625 -1.921875 0.4375q-0.71875 0.109375 -1.015625 0.25q-0.296875 0.125 -0.46875 0.375q-0.15625 0.25 -0.15625 0.546875q0 0.46875 0.34375 0.78125q0.359375 0.3125 1.046875 0.3125q0.671875 0 1.203125 -0.296875q0.53125 -0.296875 0.78125 -0.8125q0.1875 -0.390625 0.1875 -1.171875l0 -0.421875zm4.9124756 3.46875l-2.625 -6.90625l1.234375 0l1.484375 4.140625q0.234375 0.65625 0.4375 1.390625q0.15625 -0.546875 0.4375 -1.3125l1.53125 -4.21875l1.21875 0l-2.625 6.90625l-1.09375 0zm4.7578125 -8.1875l0 -1.359375l1.171875 0l0 1.359375l-1.171875 0zm0 8.1875l0 -6.90625l1.171875 0l0 6.90625l-1.171875 0zm2.726715 0.578125l1.140625 0.15625q0.078125 0.53125 0.40625 0.78125q0.4375 0.3125 1.1875 0.3125q0.8125 0 1.25 -0.328125q0.453125 -0.3125 0.609375 -0.90625q0.09375 -0.359375 0.078125 -1.5q-0.765625 0.90625 -1.90625 0.90625q-1.4375 0 -2.21875 -1.03125q-0.78125 -1.03125 -0.78125 -2.46875q0 -0.984375 0.359375 -1.8125q0.359375 -0.84375 1.03125 -1.296875q0.6875 -0.453125 1.609375 -0.453125q1.21875 0 2.015625 0.984375l0 -0.828125l1.078125 0l0 5.96875q0 1.609375 -0.328125 2.28125q-0.328125 0.6875 -1.046875 1.078125q-0.703125 0.390625 -1.75 0.390625q-1.234375 0 -2.0 -0.5625q-0.75 -0.5625 -0.734375 -1.671875zm0.984375 -4.15625q0 1.359375 0.53125 1.984375q0.546875 0.625 1.359375 0.625q0.796875 0 1.34375 -0.625q0.546875 -0.625 0.546875 -1.953125q0 -1.265625 -0.5625 -1.90625q-0.5625 -0.640625 -1.359375 -0.640625q-0.765625 0 -1.3125 0.640625q-0.546875 0.625 -0.546875 1.875zm11.162476 2.71875q-0.65625 0.5625 -1.265625 0.796875q-0.59375 0.21875 -1.28125 0.21875q-1.140625 0 -1.75 -0.546875q-0.609375 -0.5625 -0.609375 -1.4375q0 -0.5 0.21875 -0.921875q0.234375 -0.421875 0.609375 -0.671875q0.375 -0.25 0.84375 -0.390625q0.34375 -0.078125 1.046875 -0.171875q1.421875 -0.171875 2.09375 -0.40625q0 -0.234375 0 -0.296875q0 -0.71875 -0.328125 -1.015625q-0.453125 -0.390625 -1.34375 -0.390625q-0.8125 0 -1.21875 0.296875q-0.390625 0.28125 -0.578125 1.015625l-1.140625 -0.15625q0.15625 -0.734375 0.515625 -1.1875q0.359375 -0.453125 1.03125 -0.6875q0.671875 -0.25 1.5625 -0.25q0.890625 0 1.4375 0.203125q0.5625 0.203125 0.8125 0.53125q0.265625 0.3125 0.375 0.796875q0.046875 0.296875 0.046875 1.078125l0 1.5625q0 1.625 0.078125 2.0625q0.078125 0.4375 0.296875 0.828125l-1.21875 0q-0.1875 -0.359375 -0.234375 -0.859375zm-0.09375 -2.609375q-0.640625 0.265625 -1.921875 0.4375q-0.71875 0.109375 -1.015625 0.25q-0.296875 0.125 -0.46875 0.375q-0.15625 0.25 -0.15625 0.546875q0 0.46875 0.34375 0.78125q0.359375 0.3125 1.046875 0.3125q0.671875 0 1.203125 -0.296875q0.53125 -0.296875 0.78125 -0.8125q0.1875 -0.390625 0.1875 -1.171875l0 -0.421875zm5.5531006 2.421875l0.171875 1.03125q-0.5 0.109375 -0.890625 0.109375q-0.640625 0 -1.0 -0.203125q-0.34375 -0.203125 -0.484375 -0.53125q-0.140625 -0.328125 -0.140625 -1.390625l0 -3.96875l-0.859375 0l0 -0.90625l0.859375 0l0 -1.71875l1.171875 -0.703125l0 2.421875l1.171875 0l0 0.90625l-1.171875 0l0 4.046875q0 0.5 0.046875 0.640625q0.0625 0.140625 0.203125 0.234375q0.140625 0.078125 0.40625 0.078125q0.203125 0 0.515625 -0.046875zm1.1561127 -7.140625l0 -1.359375l1.171875 0l0 1.359375l-1.171875 0zm0 8.1875l0 -6.90625l1.171875 0l0 6.90625l-1.171875 0zm2.507965 -3.453125q0 -1.921875 1.078125 -2.84375q0.890625 -0.765625 2.171875 -0.765625q1.421875 0 2.328125 0.9375q0.90625 0.921875 0.90625 2.578125q0 1.328125 -0.40625 2.09375q-0.390625 0.765625 -1.15625 1.1875q-0.765625 0.421875 -1.671875 0.421875q-1.453125 0 -2.359375 -0.921875q-0.890625 -0.9375 -0.890625 -2.6875zm1.203125 0q0 1.328125 0.578125 1.984375q0.59375 0.65625 1.46875 0.65625q0.875 0 1.453125 -0.65625q0.578125 -0.671875 0.578125 -2.03125q0 -1.28125 -0.59375 -1.9375q-0.578125 -0.65625 -1.4375 -0.65625q-0.875 0 -1.46875 0.65625q-0.578125 0.65625 -0.578125 1.984375zm6.6468506 3.453125l0 -6.90625l1.0625 0l0 0.984375q0.75 -1.140625 2.1875 -1.140625q0.625 0 1.15625 0.21875q0.53125 0.21875 0.78125 0.59375q0.265625 0.359375 0.375 0.859375q0.0625 0.328125 0.0625 1.140625l0 4.25l-1.171875 0l0 -4.203125q0 -0.71875 -0.140625 -1.0625q-0.140625 -0.359375 -0.484375 -0.5625q-0.34375 -0.21875 -0.8125 -0.21875q-0.75 0 -1.296875 0.46875q-0.546875 0.46875 -0.546875 1.796875l0 3.78125l-1.171875 0z" fill-rule="nonzero"/><path fill="#000000" d="m146.34027 48.532135l1.203125 -0.109375q0.078125 0.71875 0.390625 1.1875q0.3125 0.453125 0.953125 0.734375q0.65625 0.28125 1.46875 0.28125q0.71875 0 1.265625 -0.21875q0.5625 -0.21875 0.828125 -0.578125q0.265625 -0.375 0.265625 -0.828125q0 -0.453125 -0.265625 -0.78125q-0.25 -0.328125 -0.84375 -0.5625q-0.390625 -0.15625 -1.703125 -0.46875q-1.3125 -0.3125 -1.84375 -0.59375q-0.671875 -0.359375 -1.015625 -0.890625q-0.328125 -0.53125 -0.328125 -1.1875q0 -0.71875 0.40625 -1.34375q0.40625 -0.625 1.1875 -0.953125q0.796875 -0.328125 1.765625 -0.328125q1.046875 0 1.859375 0.34375q0.8125 0.34375 1.25 1.015625q0.4375 0.65625 0.46875 1.484375l-1.203125 0.09375q-0.109375 -0.90625 -0.671875 -1.359375q-0.5625 -0.46875 -1.65625 -0.46875q-1.140625 0 -1.671875 0.421875q-0.515625 0.421875 -0.515625 1.015625q0 0.515625 0.359375 0.84375q0.375 0.328125 1.90625 0.6875q1.546875 0.34375 2.109375 0.59375q0.84375 0.390625 1.234375 0.984375q0.390625 0.578125 0.390625 1.359375q0 0.75 -0.4375 1.4375q-0.421875 0.671875 -1.25 1.046875q-0.8125 0.359375 -1.828125 0.359375q-1.296875 0 -2.171875 -0.375q-0.875 -0.375 -1.375 -1.125q-0.5 -0.765625 -0.53125 -1.71875zm11.733505 2.015625l0.171875 1.03125q-0.5 0.109375 -0.890625 0.109375q-0.640625 0 -1.0 -0.203125q-0.34375 -0.203125 -0.484375 -0.53125q-0.140625 -0.328125 -0.140625 -1.390625l0 -3.96875l-0.859375 0l0 -0.90625l0.859375 0l0 -1.71875l1.171875 -0.703125l0 2.421875l1.171875 0l0 0.90625l-1.171875 0l0 4.046875q0 0.5 0.046875 0.640625q0.0625 0.140625 0.203125 0.234375q0.140625 0.078125 0.40625 0.078125q0.203125 0 0.515625 -0.046875zm5.6561127 0.1875q-0.65625 0.5625 -1.265625 0.796875q-0.59375 0.21875 -1.28125 0.21875q-1.140625 0 -1.75 -0.546875q-0.609375 -0.5625 -0.609375 -1.4375q0 -0.5 0.21875 -0.921875q0.234375 -0.421875 0.609375 -0.671875q0.375 -0.25 0.84375 -0.390625q0.34375 -0.078125 1.046875 -0.171875q1.421875 -0.171875 2.09375 -0.40625q0 -0.234375 0 -0.296875q0 -0.71875 -0.328125 -1.015625q-0.453125 -0.390625 -1.34375 -0.390625q-0.8125 0 -1.21875 0.296875q-0.390625 0.28125 -0.578125 1.015625l-1.140625 -0.15625q0.15625 -0.734375 0.515625 -1.1875q0.359375 -0.453125 1.03125 -0.6875q0.671875 -0.25 1.5625 -0.25q0.890625 0 1.4375 0.203125q0.5625 0.203125 0.8125 0.53125q0.265625 0.3125 0.375 0.796875q0.046875 0.296875 0.046875 1.078125l0 1.5625q0 1.625 0.078125 2.0625q0.078125 0.4375 0.296875 0.828125l-1.21875 0q-0.1875 -0.359375 -0.234375 -0.859375zm-0.09375 -2.609375q-0.640625 0.265625 -1.921875 0.4375q-0.71875 0.109375 -1.015625 0.25q-0.296875 0.125 -0.46875 0.375q-0.15625 0.25 -0.15625 0.546875q0 0.46875 0.34375 0.78125q0.359375 0.3125 1.046875 0.3125q0.671875 0 1.203125 -0.296875q0.53125 -0.296875 0.78125 -0.8125q0.1875 -0.390625 0.1875 -1.171875l0 -0.421875zm2.9749756 3.46875l0 -6.90625l1.0625 0l0 1.046875q0.40625 -0.734375 0.734375 -0.96875q0.34375 -0.234375 0.765625 -0.234375q0.59375 0 1.203125 0.375l-0.40625 1.078125q-0.4375 -0.25 -0.859375 -0.25q-0.390625 0 -0.703125 0.234375q-0.296875 0.234375 -0.421875 0.640625q-0.203125 0.625 -0.203125 1.359375l0 3.625l-1.171875 0zm7.0164948 -1.046875l0.171875 1.03125q-0.5 0.109375 -0.890625 0.109375q-0.640625 0 -1.0 -0.203125q-0.34375 -0.203125 -0.484375 -0.53125q-0.140625 -0.328125 -0.140625 -1.390625l0 -3.96875l-0.859375 0l0 -0.90625l0.859375 0l0 -1.71875l1.171875 -0.703125l0 2.421875l1.171875 0l0 0.90625l-1.171875 0l0 4.046875q0 0.5 0.046875 0.640625q0.0625 0.140625 0.203125 0.234375q0.140625 0.078125 0.40625 0.078125q0.203125 0 0.515625 -0.046875z" fill-rule="nonzero"/><path fill="#cccccc" d="m136.96323 88.419945l86.33072 0l0 11.055122l-86.33072 0z" fill-rule="evenodd"/><path fill="#cccccc" d="m223.29396 103.09974l55.43306 0l0 11.055115l-55.43306 0z" fill-rule="evenodd"/><path fill="#cccccc" d="m223.29396 117.78215l124.976395 0l0 11.055115l-124.976395 0z" fill-rule="evenodd"/><path fill="#e8c469" d="m278.72183 204.15486l12.629913 0l0 19.842514l-12.629913 0z" fill-rule="evenodd"/><path fill="#cccccc" d="m223.29396 132.46194l243.84251 0l0 11.055115l-243.84251 0z" fill-rule="evenodd"/><path fill="#cccccc" d="m348.27032 147.14174l345.7638 0l0 11.055115l-345.7638 0z" fill-rule="evenodd"/><path fill="#000000" fill-opacity="0.0" d="m23.54593 63.884514l93.29134 0l0 60.850395l-93.29134 0z" fill-rule="evenodd"/><path fill="#000000" d="m45.89977 88.244514l0 -11.453125l2.25 0l4.6875 7.640625l0 -7.640625l2.15625 0l0 11.453125l-2.328125 0l-4.609375 -7.46875l0 7.46875l-2.15625 0zm16.320312 -2.640625l2.1874962 0.359375q-0.4218712 1.203125 -1.3281212 1.84375q-0.90625 0.625 -2.28125 0.625q-2.15625 0 -3.203125 -1.421875q-0.8125 -1.125 -0.8125 -2.859375q0 -2.0625 1.078125 -3.21875q1.078125 -1.171875 2.71875 -1.171875q1.859375 0 2.921875 1.21875q1.0781212 1.21875 1.0312462 3.75l-5.499996 0q0.015625 0.96875 0.515625 1.515625q0.515625 0.546875 1.28125 0.546875q0.515625 0 0.859375 -0.28125q0.359375 -0.28125 0.53125 -0.90625zm0.125 -2.21875q-0.015625 -0.953125 -0.484375 -1.453125q-0.46875 -0.5 -1.140625 -0.5q-0.71875 0 -1.1875 0.53125q-0.46875 0.515625 -0.46875 1.421875l3.28125 0zm7.7734337 -3.4375l0 1.75l-1.5 0l0 3.34375q0 1.015625 0.046875 1.1875q0.046875 0.15625 0.1875 0.265625q0.15625 0.109375 0.375 0.109375q0.3125 0 0.890625 -0.203125l0.1875 1.703125q-0.765625 0.328125 -1.734375 0.328125q-0.59375 0 -1.078125 -0.203125q-0.46875 -0.203125 -0.703125 -0.515625q-0.21875 -0.3125 -0.296875 -0.859375q-0.078125 -0.375 -0.078125 -1.546875l0 -3.609375l-1.0 0l0 -1.75l1.0 0l0 -1.65625l2.203125 -1.28125l0 2.9375l1.5 0zm3.078125 8.296875l-2.625 -8.296875l2.125 0l1.5625 5.4375l1.421875 -5.4375l2.125 0l1.375 5.4375l1.59375 -5.4375l2.15625 0l-2.65625 8.296875l-2.109375 0l-1.4375 -5.34375l-1.40625 5.34375l-2.125 0zm10.3828125 -4.265625q0 -1.09375 0.53125 -2.109375q0.546875 -1.03125 1.53125 -1.5625q1.0 -0.546875 2.21875 -0.546875q1.875 0 3.078125 1.21875q1.203125 1.21875 1.203125 3.09375q0 1.875 -1.21875 3.125q-1.203125 1.234375 -3.046875 1.234375q-1.140625 0 -2.1875 -0.515625q-1.03125 -0.515625 -1.578125 -1.515625q-0.53125 -1.0 -0.53125 -2.421875zm2.25 0.109375q0 1.234375 0.578125 1.890625q0.59375 0.65625 1.453125 0.65625q0.859375 0 1.4375 -0.65625q0.59375 -0.65625 0.59375 -1.90625q0 -1.21875 -0.59375 -1.875q-0.578125 -0.65625 -1.4375 -0.65625q-0.859375 0 -1.453125 0.65625q-0.578125 0.65625 -0.578125 1.890625zm10.1328125 4.15625l-2.1875 0l0 -8.296875l2.03125 0l0 1.171875q0.53125 -0.828125 0.9375 -1.09375q0.421875 -0.265625 0.953125 -0.265625q0.75 0 1.453125 0.40625l-0.6875 1.921875q-0.546875 -0.359375 -1.03125 -0.359375q-0.453125 0 -0.78125 0.25q-0.3125 0.25 -0.5 0.921875q-0.1875 0.65625 -0.1875 2.78125l0 2.5625zm4.0546875 0l0 -11.453125l2.1875 0l0 6.078125l2.578125 -2.921875l2.703125 0l-2.84375 3.03125l3.046875 5.265625l-2.375 0l-2.078125 -3.734375l-1.03125 1.078125l0 2.65625l-2.1875 0z" fill-rule="nonzero"/><path fill="#000000" d="m36.985706 107.244514l0 -11.453125l4.875 0q1.828125 0 2.65625 0.3125q0.84375 0.296875 1.34375 1.09375q0.5 0.78125 0.5 1.796875q0 1.296875 -0.765625 2.140625q-0.75 0.828125 -2.265625 1.046875q0.75 0.4375 1.234375 0.96875q0.5 0.515625 1.328125 1.859375l1.390625 2.234375l-2.765625 0l-1.671875 -2.5q-0.890625 -1.328125 -1.21875 -1.671875q-0.328125 -0.359375 -0.703125 -0.484375q-0.359375 -0.125 -1.15625 -0.125l-0.46875 0l0 4.78125l-2.3125 0zm2.3125 -6.609375l1.71875 0q1.65625 0 2.0625 -0.140625q0.421875 -0.140625 0.65625 -0.484375q0.234375 -0.34375 0.234375 -0.859375q0 -0.578125 -0.3125 -0.9375q-0.296875 -0.359375 -0.859375 -0.453125q-0.28125 -0.03125 -1.6875 -0.03125l-1.8125 0l0 2.90625zm14.0234375 3.96875l2.1875 0.359375q-0.421875 1.203125 -1.328125 1.84375q-0.90625 0.625 -2.28125 0.625q-2.15625 0 -3.203125 -1.421875q-0.8125 -1.125 -0.8125 -2.859375q0 -2.0625 1.078125 -3.21875q1.078125 -1.171875 2.71875 -1.171875q1.859375 0 2.921875 1.21875q1.078125 1.21875 1.03125 3.75l-5.5 0q0.015625 0.96875 0.515625 1.515625q0.515625 0.546875 1.28125 0.546875q0.515625 0 0.859375 -0.28125q0.359375 -0.28125 0.53125 -0.90625zm0.125 -2.21875q-0.015625 -0.953125 -0.484375 -1.453125q-0.46875 -0.5 -1.140625 -0.5q-0.71875 0 -1.1875 0.53125q-0.46875 0.515625 -0.46875 1.421875l3.28125 0zm9.3984375 8.015625l0 -4.171875q-0.4375 0.546875 -1.078125 0.875q-0.640625 0.328125 -1.375 0.328125q-1.421875 0 -2.328125 -1.0625q-1.078125 -1.25 -1.078125 -3.375q0 -2.0 1.0 -3.109375q1.015625 -1.125 2.515625 -1.125q0.828125 0 1.4375 0.359375q0.609375 0.34375 1.078125 1.046875l0 -1.21875l2.0156212 0l0 11.453125l-2.1874962 0zm0.0625 -7.40625q0 -1.28125 -0.515625 -1.890625q-0.515625 -0.625 -1.296875 -0.625q-0.796875 0 -1.34375 0.640625q-0.53125 0.625 -0.53125 2.0q0 1.359375 0.515625 1.96875q0.515625 0.609375 1.28125 0.609375q0.75 0 1.3125 -0.671875q0.578125 -0.6875 0.578125 -2.03125zm9.742184 4.25l0 -1.25q-0.453125 0.671875 -1.1875 1.0625q-0.734375 0.375 -1.5625 0.375q-0.828125 0 -1.5 -0.359375q-0.65625 -0.375 -0.953125 -1.03125q-0.296875 -0.671875 -0.296875 -1.84375l0 -5.25l2.1875 0l0 3.8125q0 1.75 0.125 2.140625q0.125 0.390625 0.4375 0.625q0.328125 0.234375 0.8125 0.234375q0.5625 0 1.0 -0.3125q0.453125 -0.3125 0.609375 -0.765625q0.171875 -0.453125 0.171875 -2.234375l0 -3.5l2.203125 0l0 8.296875l-2.046875 0zm9.1171875 -2.640625l2.1875 0.359375q-0.421875 1.203125 -1.328125 1.84375q-0.90625 0.625 -2.28125 0.625q-2.15625 0 -3.203125 -1.421875q-0.8125 -1.125 -0.8125 -2.859375q0 -2.0625 1.078125 -3.21875q1.078125 -1.171875 2.71875 -1.171875q1.859375 0 2.921875 1.21875q1.078125 1.21875 1.03125 3.75l-5.5 0q0.015625 0.96875 0.515625 1.515625q0.515625 0.546875 1.28125 0.546875q0.515625 0 0.859375 -0.28125q0.359375 -0.28125 0.53125 -0.90625zm0.125 -2.21875q-0.015625 -0.953125 -0.484375 -1.453125q-0.46875 -0.5 -1.140625 -0.5q-0.71875 0 -1.1875 0.53125q-0.46875 0.515625 -0.46875 1.421875l3.28125 0zm3.1953125 2.484375l2.203125 -0.328125q0.140625 0.640625 0.5625 0.96875q0.4375 0.328125 1.21875 0.328125q0.84375 0 1.28125 -0.3125q0.28125 -0.21875 0.28125 -0.578125q0 -0.25 -0.15625 -0.421875q-0.15625 -0.15625 -0.734375 -0.28125q-2.65625 -0.59375 -3.359375 -1.078125q-0.984375 -0.671875 -0.984375 -1.859375q0 -1.078125 0.84375 -1.8125q0.859375 -0.734375 2.640625 -0.734375q1.703125 0 2.53125 0.5625q0.828125 0.546875 1.140625 1.625l-2.0625 0.390625q-0.140625 -0.484375 -0.515625 -0.734375q-0.359375 -0.265625 -1.046875 -0.265625q-0.875 0 -1.25 0.234375q-0.25 0.171875 -0.25 0.453125q0 0.234375 0.21875 0.390625q0.296875 0.21875 2.046875 0.625q1.765625 0.390625 2.453125 0.96875q0.6875 0.59375 0.6875 1.640625q0 1.140625 -0.953125 1.96875q-0.953125 0.8125 -2.8125 0.8125q-1.703125 0 -2.6875 -0.6875q-0.984375 -0.6875 -1.296875 -1.875zm13.4765625 -5.921875l0 1.75l-1.5 0l0 3.34375q0 1.015625 0.046875 1.1875q0.046875 0.15625 0.1875 0.265625q0.15625 0.109375 0.375 0.109375q0.3125 0 0.890625 -0.203125l0.1875 1.703125q-0.765625 0.328125 -1.734375 0.328125q-0.59375 0 -1.078125 -0.203125q-0.46875 -0.203125 -0.703125 -0.515625q-0.21875 -0.3125 -0.296875 -0.859375q-0.078125 -0.375 -0.078125 -1.546875l0 -3.609375l-1.0 0l0 -1.75l1.0 0l0 -1.65625l2.203125 -1.28125l0 2.9375l1.5 0zm0.75 5.921875l2.203125 -0.328125q0.140625 0.640625 0.5625 0.96875q0.4375 0.328125 1.21875 0.328125q0.84375 0 1.28125 -0.3125q0.28125 -0.21875 0.28125 -0.578125q0 -0.25 -0.15625 -0.421875q-0.15625 -0.15625 -0.734375 -0.28125q-2.65625 -0.59375 -3.359375 -1.078125q-0.984375 -0.671875 -0.984375 -1.859375q0 -1.078125 0.84375 -1.8125q0.859375 -0.734375 2.640625 -0.734375q1.703125 0 2.53125 0.5625q0.828125 0.546875 1.140625 1.625l-2.0625 0.390625q-0.140625 -0.484375 -0.515625 -0.734375q-0.359375 -0.265625 -1.046875 -0.265625q-0.875 0 -1.25 0.234375q-0.25 0.171875 -0.25 0.453125q0 0.234375 0.21875 0.390625q0.296875 0.21875 2.046875 0.625q1.765625 0.390625 2.453125 0.96875q0.6875 0.59375 0.6875 1.640625q0 1.140625 -0.953125 1.96875q-0.953125 0.8125 -2.8125 0.8125q-1.703125 0 -2.6875 -0.6875q-0.984375 -0.6875 -1.296875 -1.875z" fill-rule="nonzero"/><path fill="#000000" fill-opacity="0.0" d="m23.54593 183.65092l93.29134 0l0 60.850388l-93.29134 0z" fill-rule="evenodd"/><path fill="#000000" d="m72.53258 208.01093l0 -11.453125l3.453125 0l2.078125 7.8125l2.0625 -7.8125l3.46875 0l0 11.453125l-2.15625 0l0 -9.015625l-2.265625 9.015625l-2.234375 0l-2.265625 -9.015625l0 9.015625l-2.140625 0zm14.984375 -5.765625l-2.0 -0.359375q0.34375 -1.203125 1.15625 -1.78125q0.828125 -0.578125 2.4375 -0.578125q1.46875 0 2.1875 0.34375q0.71875 0.34375 1.015625 0.890625q0.296875 0.53125 0.296875 1.953125l-0.03125 2.5625q0 1.09375 0.109375 1.625q0.109375 0.515625 0.390625 1.109375l-2.171875 0q-0.078125 -0.21875 -0.203125 -0.65625q-0.0625 -0.1875 -0.078125 -0.25q-0.5625 0.546875 -1.203125 0.828125q-0.640625 0.265625 -1.375 0.265625q-1.28125 0 -2.015625 -0.6875q-0.734375 -0.703125 -0.734375 -1.765625q0 -0.703125 0.328125 -1.25q0.34375 -0.5625 0.9375 -0.84375q0.609375 -0.296875 1.75 -0.515625q1.546875 -0.296875 2.140625 -0.546875l0 -0.21875q0 -0.625 -0.3125 -0.890625q-0.3125 -0.28125 -1.1875 -0.28125q-0.578125 0 -0.90625 0.234375q-0.328125 0.234375 -0.53125 0.8125zm2.9375 1.78125q-0.421875 0.140625 -1.34375 0.34375q-0.90625 0.1875 -1.1875 0.375q-0.4375 0.296875 -0.4375 0.765625q0 0.46875 0.34375 0.8125q0.34375 0.328125 0.875 0.328125q0.59375 0 1.140625 -0.390625q0.390625 -0.296875 0.515625 -0.734375q0.09375 -0.28125 0.09375 -1.0625l0 -0.4375zm4.3203125 -5.4375l0 -2.03125l2.1875 0l0 2.03125l-2.1875 0zm0 9.421875l0 -8.296875l2.1875 0l0 8.296875l-2.1875 0zm11.9921875 0l-2.203125 0l0 -4.234375q0 -1.34375 -0.140625 -1.734375q-0.140625 -0.40625 -0.453125 -0.625q-0.3125 -0.21875 -0.765625 -0.21875q-0.5625 0 -1.015625 0.3125q-0.453125 0.3125 -0.625 0.828125q-0.171875 0.515625 -0.171875 1.90625l0 3.765625l-2.1875 0l0 -8.296875l2.03125 0l0 1.21875q1.09375 -1.40625 2.734375 -1.40625q0.734375 0 1.328125 0.265625q0.609375 0.25 0.90625 0.65625q0.3125 0.40625 0.4375 0.921875q0.125 0.515625 0.125 1.484375l0 5.15625z" fill-rule="nonzero"/><path fill="#000000" d="m58.24352 227.01093l0 -9.515625l-3.40625 0l0 -1.9375l9.109375 0l0 1.9375l-3.390625 0l0 9.515625l-2.3125 0zm9.367184 -11.453125l0 4.203125q1.0625 -1.234375 2.53125 -1.234375q0.765625 0 1.375 0.28125q0.609375 0.28125 0.90625 0.71875q0.3125 0.4375 0.421875 0.96875q0.125 0.53125 0.125 1.640625l0 4.875l-2.203125 0l0 -4.390625q0 -1.296875 -0.125 -1.640625q-0.125 -0.359375 -0.4375 -0.5625q-0.3125 -0.21875 -0.796875 -0.21875q-0.546875 0 -0.984375 0.265625q-0.421875 0.265625 -0.625 0.8125q-0.1875 0.53125 -0.1875 1.578125l0 4.15625l-2.203125 0l0 -11.453125l2.203125 0zm9.6796875 11.453125l-2.1875 0l0 -8.296875l2.03125 0l0 1.171875q0.53125 -0.828125 0.9375 -1.09375q0.421875 -0.265625 0.953125 -0.265625q0.75 0 1.453125 0.40625l-0.6875 1.921875q-0.546875 -0.359375 -1.03125 -0.359375q-0.453125 0 -0.78125 0.25q-0.3125 0.25 -0.5 0.921875q-0.1875 0.65625 -0.1875 2.78125l0 2.5625zm8.9296875 -2.640625l2.1875 0.359375q-0.421875 1.203125 -1.328125 1.84375q-0.90625 0.625 -2.28125 0.625q-2.15625 0 -3.203125 -1.421875q-0.8125 -1.125 -0.8125 -2.859375q0 -2.0625 1.078125 -3.21875q1.078125 -1.171875 2.71875 -1.171875q1.859375 0 2.921875 1.21875q1.078125 1.21875 1.03125 3.75l-5.5 0q0.015625 0.96875 0.515625 1.515625q0.515625 0.546875 1.28125 0.546875q0.515625 0 0.859375 -0.28125q0.359375 -0.28125 0.53125 -0.90625zm0.125 -2.21875q-0.015625 -0.953125 -0.484375 -1.453125q-0.46875 -0.5 -1.140625 -0.5q-0.71875 0 -1.1875 0.53125q-0.46875 0.515625 -0.46875 1.421875l3.28125 0zm5.6171875 -0.90625l-2.0 -0.359375q0.34375 -1.203125 1.15625 -1.78125q0.828125 -0.578125 2.4375 -0.578125q1.46875 0 2.1875 0.34375q0.71875 0.34375 1.015625 0.890625q0.296875 0.53125 0.296875 1.953125l-0.03125 2.5625q0 1.09375 0.109375 1.625q0.109375 0.515625 0.390625 1.109375l-2.171875 0q-0.078125 -0.21875 -0.203125 -0.65625q-0.0625 -0.1875 -0.078125 -0.25q-0.5625 0.546875 -1.203125 0.828125q-0.640625 0.265625 -1.375 0.265625q-1.28125 0 -2.015625 -0.6875q-0.734375 -0.703125 -0.734375 -1.765625q0 -0.703125 0.328125 -1.25q0.34375 -0.5625 0.9375 -0.84375q0.609375 -0.296875 1.75 -0.515625q1.546875 -0.296875 2.140625 -0.546875l0 -0.21875q0 -0.625 -0.3125 -0.890625q-0.3125 -0.28125 -1.1875 -0.28125q-0.578125 0 -0.90625 0.234375q-0.328125 0.234375 -0.53125 0.8125zm2.9375 1.78125q-0.421875 0.140625 -1.34375 0.34375q-0.90625 0.1875 -1.1875 0.375q-0.4375 0.296875 -0.4375 0.765625q0 0.46875 0.34375 0.8125q0.34375 0.328125 0.875 0.328125q0.59375 0 1.140625 -0.390625q0.390625 -0.296875 0.515625 -0.734375q0.09375 -0.28125 0.09375 -1.0625l0 -0.4375zm11.9296875 3.984375l-2.046875 0l0 -1.21875q-0.5 0.703125 -1.203125 1.0625q-0.6875 0.34375 -1.390625 0.34375q-1.421875 0 -2.453125 -1.15625q-1.015625 -1.15625 -1.015625 -3.21875q0 -2.109375 0.984375 -3.203125q1.0 -1.09375 2.515625 -1.09375q1.390625 0 2.40625 1.15625l0 -4.125l2.203125 0l0 11.453125zm-5.859375 -4.328125q0 1.328125 0.359375 1.921875q0.53125 0.859375 1.484375 0.859375q0.765625 0 1.296875 -0.640625q0.53125 -0.65625 0.53125 -1.9375q0 -1.421875 -0.515625 -2.046875q-0.515625 -0.640625 -1.328125 -0.640625q-0.78125 0 -1.3125 0.625q-0.515625 0.625 -0.515625 1.859375z" fill-rule="nonzero"/><path fill="#000000" fill-opacity="0.0" d="m136.7454 224.0l0 -196.0315" fill-rule="evenodd"/><path stroke="#000000" stroke-width="1.0" stroke-linejoin="round" stroke-linecap="butt" d="m136.7454 224.0l0 -192.2415" fill-rule="evenodd"/><path stroke="#000000" stroke-width="1.0" stroke-linecap="butt" d="m135.1004 31.758503l0 -3.289999l3.2900085 0l0 3.289999l-3.2900085 0z" fill-rule="nonzero"/><path fill="#e8c469" d="m223.5118 204.6483l19.62204 0l0 19.842514l-19.62204 0z" fill-rule="evenodd"/><path fill="#cccccc" d="m129.81366 254.77338l15.307083 0l0 15.307098l-15.307083 0z" fill-rule="evenodd"/><path fill="#000000" fill-opacity="0.0" d="m142.37076 252.50656l145.51181 0l0 19.84253l-145.51181 0z" fill-rule="evenodd"/><path fill="#000000" d="m152.18326 266.16782l0 -7.625l1.03125 0l4.015625 5.984375l0 -5.984375l0.96875 0l0 7.625l-1.046875 0l-4.0 -6.0l0 6.0l-0.96875 0zm11.367477 -1.78125l0.96875 0.125q-0.234375 0.84375 -0.859375 1.3125q-0.609375 0.46875 -1.578125 0.46875q-1.203125 0 -1.921875 -0.75q-0.703125 -0.75 -0.703125 -2.09375q0 -1.390625 0.71875 -2.15625q0.71875 -0.78125 1.859375 -0.78125q1.109375 0 1.8125 0.765625q0.703125 0.75 0.703125 2.125q0 0.078125 0 0.234375l-4.125 0q0.046875 0.921875 0.515625 1.40625q0.46875 0.484375 1.15625 0.484375q0.515625 0 0.875 -0.265625q0.359375 -0.28125 0.578125 -0.875zm-3.078125 -1.515625l3.09375 0q-0.0625 -0.6875 -0.359375 -1.046875q-0.453125 -0.53125 -1.15625 -0.53125q-0.640625 0 -1.09375 0.4375q-0.4375 0.421875 -0.484375 1.140625zm7.2702484 2.453125l0.125 0.828125q-0.390625 0.09375 -0.703125 0.09375q-0.5 0 -0.78125 -0.15625q-0.28125 -0.171875 -0.40625 -0.4375q-0.109375 -0.265625 -0.109375 -1.109375l0 -3.171875l-0.6875 0l0 -0.734375l0.6875 0l0 -1.359375l0.9375 -0.5625l0 1.921875l0.9375 0l0 0.734375l-0.9375 0l0 3.234375q0 0.390625 0.046875 0.515625q0.046875 0.109375 0.15625 0.1875q0.109375 0.0625 0.328125 0.0625q0.15625 0 0.40625 -0.046875zm1.9293976 0.84375l-1.6875 -5.53125l0.96875 0l0.875 3.1875l0.328125 1.1875q0.03125 -0.078125 0.296875 -1.140625l0.875 -3.234375l0.953125 0l0.828125 3.203125l0.28125 1.0625l0.3125 -1.0625l0.953125 -3.203125l0.90625 0l-1.71875 5.53125l-0.984375 0l-0.875 -3.3125l-0.21875 -0.9375l-1.109375 4.25l-0.984375 0zm6.3362274 -2.765625q0 -1.53125 0.84375 -2.265625q0.71875 -0.625 1.734375 -0.625q1.140625 0 1.859375 0.75q0.734375 0.75 0.734375 2.0625q0 1.0625 -0.328125 1.6875q-0.3125 0.609375 -0.921875 0.953125q-0.609375 0.328125 -1.34375 0.328125q-1.15625 0 -1.875 -0.734375q-0.703125 -0.75 -0.703125 -2.15625zm0.953125 0q0 1.0625 0.46875 1.59375q0.46875 0.53125 1.15625 0.53125q0.703125 0 1.15625 -0.53125q0.46875 -0.53125 0.46875 -1.625q0 -1.015625 -0.46875 -1.546875q-0.453125 -0.53125 -1.15625 -0.53125q-0.6875 0 -1.15625 0.53125q-0.46875 0.515625 -0.46875 1.578125zm5.3014984 2.765625l0 -5.53125l0.84375 0l0 0.84375q0.328125 -0.59375 0.59375 -0.78125q0.28125 -0.1875 0.609375 -0.1875q0.46875 0 0.953125 0.3125l-0.3125 0.859375q-0.34375 -0.203125 -0.6875 -0.203125q-0.3125 0 -0.5625 0.1875q-0.234375 0.1875 -0.34375 0.515625q-0.15625 0.5 -0.15625 1.09375l0 2.890625l-0.9375 0zm3.5642395 0l0 -7.625l0.9375 0l0 4.34375l2.21875 -2.25l1.21875 0l-2.125 2.0625l2.328125 3.46875l-1.15625 0l-1.8125 -2.828125l-0.671875 0.640625l0 2.1875l-0.9375 0zm8.273148 0l0 -5.53125l0.84375 0l0 0.84375q0.328125 -0.59375 0.59375 -0.78125q0.28125 -0.1875 0.609375 -0.1875q0.46875 0 0.953125 0.3125l-0.3125 0.859375q-0.34375 -0.203125 -0.6875 -0.203125q-0.3125 0 -0.5625 0.1875q-0.234375 0.1875 -0.34375 0.515625q-0.15625 0.5 -0.15625 1.09375l0 2.890625l-0.9375 0zm7.3454895 -1.78125l0.96875 0.125q-0.234375 0.84375 -0.859375 1.3125q-0.609375 0.46875 -1.578125 0.46875q-1.203125 0 -1.921875 -0.75q-0.703125 -0.75 -0.703125 -2.09375q0 -1.390625 0.71875 -2.15625q0.71875 -0.78125 1.859375 -0.78125q1.109375 0 1.8125 0.765625q0.703125 0.75 0.703125 2.125q0 0.078125 0 0.234375l-4.125 0q0.046875 0.921875 0.515625 1.40625q0.46875 0.484375 1.15625 0.484375q0.515625 0 0.875 -0.265625q0.359375 -0.28125 0.578125 -0.875zm-3.078125 -1.515625l3.09375 0q-0.0625 -0.6875 -0.359375 -1.046875q-0.453125 -0.53125 -1.15625 -0.53125q-0.640625 0 -1.09375 0.4375q-0.4375 0.421875 -0.484375 1.140625zm8.738998 5.421875l0 -2.71875q-0.21875 0.3125 -0.609375 0.515625q-0.390625 0.203125 -0.828125 0.203125q-0.984375 0 -1.703125 -0.78125q-0.703125 -0.796875 -0.703125 -2.15625q0 -0.828125 0.28125 -1.484375q0.296875 -0.671875 0.84375 -1.015625q0.546875 -0.34375 1.203125 -0.34375q1.03125 0 1.609375 0.875l0 -0.75l0.84375 0l0 7.65625l-0.9375 0zm-2.875 -4.90625q0 1.0625 0.4375 1.609375q0.453125 0.53125 1.078125 0.53125q0.59375 0 1.015625 -0.5q0.4375 -0.515625 0.4375 -1.546875q0 -1.109375 -0.453125 -1.65625q-0.453125 -0.5625 -1.0625 -0.5625q-0.609375 0 -1.03125 0.515625q-0.421875 0.515625 -0.421875 1.609375zm8.910873 2.78125l0 -0.8125q-0.65625 0.9375 -1.75 0.9375q-0.5 0 -0.921875 -0.1875q-0.421875 -0.1875 -0.625 -0.46875q-0.203125 -0.28125 -0.296875 -0.703125q-0.046875 -0.265625 -0.046875 -0.875l0 -3.421875l0.9375 0l0 3.0625q0 0.734375 0.046875 1.0q0.09375 0.359375 0.375 0.578125q0.296875 0.203125 0.703125 0.203125q0.421875 0 0.796875 -0.203125q0.375 -0.21875 0.515625 -0.59375q0.15625 -0.375 0.15625 -1.078125l0 -2.96875l0.9375 0l0 5.53125l-0.828125 0zm6.0827484 -1.78125l0.96875 0.125q-0.234375 0.84375 -0.859375 1.3125q-0.609375 0.46875 -1.578125 0.46875q-1.203125 0 -1.921875 -0.75q-0.703125 -0.75 -0.703125 -2.09375q0 -1.390625 0.71875 -2.15625q0.71875 -0.78125 1.859375 -0.78125q1.109375 0 1.8125 0.765625q0.703125 0.75 0.703125 2.125q0 0.078125 0 0.234375l-4.125 0q0.046875 0.921875 0.515625 1.40625q0.46875 0.484375 1.15625 0.484375q0.515625 0 0.875 -0.265625q0.359375 -0.28125 0.578125 -0.875zm-3.078125 -1.515625l3.09375 0q-0.0625 -0.6875 -0.359375 -1.046875q-0.453125 -0.53125 -1.15625 -0.53125q-0.640625 0 -1.09375 0.4375q-0.4375 0.421875 -0.484375 1.140625zm4.8483734 1.640625l0.921875 -0.140625q0.078125 0.5625 0.4375 0.859375q0.359375 0.296875 1.0 0.296875q0.640625 0 0.953125 -0.265625q0.3125 -0.265625 0.3125 -0.625q0 -0.3125 -0.28125 -0.5q-0.1875 -0.125 -0.953125 -0.3125q-1.03125 -0.265625 -1.4375 -0.453125q-0.390625 -0.1875 -0.59375 -0.515625q-0.203125 -0.34375 -0.203125 -0.75q0 -0.359375 0.171875 -0.671875q0.171875 -0.328125 0.453125 -0.53125q0.21875 -0.15625 0.59375 -0.265625q0.390625 -0.125 0.8125 -0.125q0.65625 0 1.140625 0.1875q0.5 0.1875 0.734375 0.515625q0.234375 0.3125 0.3125 0.859375l-0.90625 0.125q-0.0625 -0.4375 -0.375 -0.671875q-0.296875 -0.234375 -0.828125 -0.234375q-0.65625 0 -0.9375 0.21875q-0.265625 0.203125 -0.265625 0.484375q0 0.1875 0.109375 0.328125q0.125 0.15625 0.359375 0.25q0.140625 0.0625 0.828125 0.25q1.0 0.265625 1.390625 0.4375q0.390625 0.15625 0.609375 0.484375q0.234375 0.3125 0.234375 0.796875q0 0.46875 -0.28125 0.890625q-0.265625 0.40625 -0.78125 0.640625q-0.515625 0.21875 -1.171875 0.21875q-1.078125 0 -1.640625 -0.4375q-0.5625 -0.453125 -0.71875 -1.34375zm7.75 0.8125l0.125 0.828125q-0.390625 0.09375 -0.703125 0.09375q-0.5 0 -0.78125 -0.15625q-0.28125 -0.171875 -0.40625 -0.4375q-0.109375 -0.265625 -0.109375 -1.109375l0 -3.171875l-0.6875 0l0 -0.734375l0.6875 0l0 -1.359375l0.9375 -0.5625l0 1.921875l0.9375 0l0 0.734375l-0.9375 0l0 3.234375q0 0.390625 0.046875 0.515625q0.046875 0.109375 0.15625 0.1875q0.109375 0.0625 0.328125 0.0625q0.15625 0 0.40625 -0.046875z" fill-rule="nonzero"/><path fill="#e8c469" d="m129.81366 277.98334l15.307083 0l0 15.307098l-15.307083 0z" fill-rule="evenodd"/><path fill="#000000" fill-opacity="0.0" d="m142.37076 275.71652l145.51181 0l0 19.84253l-145.51181 0z" fill-rule="evenodd"/><path fill="#000000" d="m152.16763 289.3778l0 -7.625l1.515625 0l1.796875 5.390625q0.25 0.765625 0.375 1.140625q0.125 -0.421875 0.40625 -1.234375l1.828125 -5.296875l1.34375 0l0 7.625l-0.96875 0l0 -6.390625l-2.21875 6.390625l-0.90625 0l-2.203125 -6.5l0 6.5l-0.96875 0zm12.3923645 -0.6875q-0.53125 0.453125 -1.015625 0.640625q-0.46875 0.171875 -1.015625 0.171875q-0.921875 0 -1.40625 -0.4375q-0.484375 -0.453125 -0.484375 -1.140625q0 -0.40625 0.171875 -0.734375q0.1875 -0.34375 0.484375 -0.546875q0.3125 -0.203125 0.6875 -0.3125q0.265625 -0.0625 0.828125 -0.140625q1.125 -0.125 1.671875 -0.3125q0 -0.203125 0 -0.25q0 -0.578125 -0.265625 -0.8125q-0.359375 -0.3125 -1.0625 -0.3125q-0.65625 0 -0.984375 0.234375q-0.3125 0.234375 -0.453125 0.8125l-0.921875 -0.125q0.125 -0.578125 0.40625 -0.9375q0.296875 -0.375 0.828125 -0.5625q0.546875 -0.203125 1.25 -0.203125q0.71875 0 1.15625 0.171875q0.4375 0.171875 0.640625 0.421875q0.21875 0.25 0.296875 0.640625q0.046875 0.234375 0.046875 0.859375l0 1.25q0 1.296875 0.0625 1.65625q0.0625 0.34375 0.234375 0.65625l-0.96875 0q-0.15625 -0.296875 -0.1875 -0.6875zm-0.078125 -2.078125q-0.515625 0.203125 -1.53125 0.34375q-0.578125 0.078125 -0.828125 0.1875q-0.234375 0.109375 -0.359375 0.3125q-0.125 0.1875 -0.125 0.4375q0 0.375 0.28125 0.625q0.28125 0.25 0.828125 0.25q0.53125 0 0.953125 -0.234375q0.421875 -0.234375 0.625 -0.65625q0.15625 -0.3125 0.15625 -0.9375l0 -0.328125zm2.3952484 -3.78125l0 -1.078125l0.9375 0l0 1.078125l-0.9375 0zm0 6.546875l0 -5.53125l0.9375 0l0 5.53125l-0.9375 0zm2.3674774 0l0 -5.53125l0.84375 0l0 0.796875q0.609375 -0.921875 1.75 -0.921875q0.5 0 0.921875 0.1875q0.421875 0.171875 0.625 0.46875q0.21875 0.296875 0.296875 0.6875q0.046875 0.265625 0.046875 0.921875l0 3.390625l-0.9375 0l0 -3.359375q0 -0.578125 -0.109375 -0.859375q-0.109375 -0.28125 -0.390625 -0.453125q-0.265625 -0.171875 -0.640625 -0.171875q-0.59375 0 -1.03125 0.390625q-0.4375 0.375 -0.4375 1.4375l0 3.015625l-0.9375 0zm10.934021 -0.84375l0.125 0.828125q-0.390625 0.09375 -0.703125 0.09375q-0.5 0 -0.78125 -0.15625q-0.28125 -0.171875 -0.40625 -0.4375q-0.109375 -0.265625 -0.109375 -1.109375l0 -3.171875l-0.6875 0l0 -0.734375l0.6875 0l0 -1.359375l0.9375 -0.5625l0 1.921875l0.9375 0l0 0.734375l-0.9375 0l0 3.234375q0 0.390625 0.046875 0.515625q0.046875 0.109375 0.15625 0.1875q0.109375 0.0625 0.328125 0.0625q0.15625 0 0.40625 -0.046875zm0.9137726 0.84375l0 -7.625l0.9375 0l0 2.734375q0.65625 -0.765625 1.65625 -0.765625q0.609375 0 1.0625 0.25q0.453125 0.234375 0.640625 0.671875q0.203125 0.421875 0.203125 1.234375l0 3.5l-0.9375 0l0 -3.5q0 -0.703125 -0.3125 -1.015625q-0.296875 -0.328125 -0.859375 -0.328125q-0.40625 0 -0.78125 0.21875q-0.359375 0.21875 -0.515625 0.59375q-0.15625 0.359375 -0.15625 1.015625l0 3.015625l-0.9375 0zm5.9108734 0l0 -5.53125l0.84375 0l0 0.84375q0.328125 -0.59375 0.59375 -0.78125q0.28125 -0.1875 0.609375 -0.1875q0.46875 0 0.953125 0.3125l-0.3125 0.859375q-0.34375 -0.203125 -0.6875 -0.203125q-0.3125 0 -0.5625 0.1875q-0.234375 0.1875 -0.34375 0.515625q-0.15625 0.5 -0.15625 1.09375l0 2.890625l-0.9375 0zm7.3454895 -1.78125l0.96875 0.125q-0.234375 0.84375 -0.859375 1.3125q-0.609375 0.46875 -1.578125 0.46875q-1.203125 0 -1.921875 -0.75q-0.703125 -0.75 -0.703125 -2.09375q0 -1.390625 0.71875 -2.15625q0.71875 -0.78125 1.859375 -0.78125q1.109375 0 1.8125 0.765625q0.703125 0.75 0.703125 2.125q0 0.078125 0 0.234375l-4.125 0q0.046875 0.921875 0.515625 1.40625q0.46875 0.484375 1.15625 0.484375q0.515625 0 0.875 -0.265625q0.359375 -0.28125 0.578125 -0.875zm-3.078125 -1.515625l3.09375 0q-0.0625 -0.6875 -0.359375 -1.046875q-0.453125 -0.53125 -1.15625 -0.53125q-0.640625 0 -1.09375 0.4375q-0.4375 0.421875 -0.484375 1.140625zm8.832748 2.609375q-0.53125 0.453125 -1.015625 0.640625q-0.46875 0.171875 -1.015625 0.171875q-0.921875 0 -1.40625 -0.4375q-0.484375 -0.453125 -0.484375 -1.140625q0 -0.40625 0.171875 -0.734375q0.1875 -0.34375 0.484375 -0.546875q0.3125 -0.203125 0.6875 -0.3125q0.265625 -0.0625 0.828125 -0.140625q1.125 -0.125 1.671875 -0.3125q0 -0.203125 0 -0.25q0 -0.578125 -0.265625 -0.8125q-0.359375 -0.3125 -1.0625 -0.3125q-0.65625 0 -0.984375 0.234375q-0.3125 0.234375 -0.453125 0.8125l-0.921875 -0.125q0.125 -0.578125 0.40625 -0.9375q0.296875 -0.375 0.828125 -0.5625q0.546875 -0.203125 1.25 -0.203125q0.71875 0 1.15625 0.171875q0.4375 0.171875 0.640625 0.421875q0.21875 0.25 0.296875 0.640625q0.046875 0.234375 0.046875 0.859375l0 1.25q0 1.296875 0.0625 1.65625q0.0625 0.34375 0.234375 0.65625l-0.96875 0q-0.15625 -0.296875 -0.1875 -0.6875zm-0.078125 -2.078125q-0.515625 0.203125 -1.53125 0.34375q-0.578125 0.078125 -0.828125 0.1875q-0.234375 0.109375 -0.359375 0.3125q-0.125 0.1875 -0.125 0.4375q0 0.375 0.28125 0.625q0.28125 0.25 0.828125 0.25q0.53125 0 0.953125 -0.234375q0.421875 -0.234375 0.625 -0.65625q0.15625 -0.3125 0.15625 -0.9375l0 -0.328125zm5.9733734 2.765625l0 -0.703125q-0.515625 0.828125 -1.546875 0.828125q-0.65625 0 -1.21875 -0.359375q-0.546875 -0.375 -0.859375 -1.015625q-0.296875 -0.65625 -0.296875 -1.5q0 -0.828125 0.28125 -1.5q0.28125 -0.6875 0.828125 -1.046875q0.546875 -0.359375 1.234375 -0.359375q0.5 0 0.890625 0.21875q0.390625 0.203125 0.625 0.546875l0 -2.734375l0.9375 0l0 7.625l-0.875 0zm-2.953125 -2.75q0 1.046875 0.4375 1.578125q0.453125 0.53125 1.0625 0.53125q0.609375 0 1.03125 -0.5q0.4375 -0.515625 0.4375 -1.53125q0 -1.140625 -0.4375 -1.671875q-0.4375 -0.53125 -1.078125 -0.53125q-0.609375 0 -1.03125 0.515625q-0.421875 0.5 -0.421875 1.609375zm10.309021 1.90625l0.125 0.828125q-0.390625 0.09375 -0.703125 0.09375q-0.5 0 -0.78125 -0.15625q-0.28125 -0.171875 -0.40625 -0.4375q-0.109375 -0.265625 -0.109375 -1.109375l0 -3.171875l-0.6875 0l0 -0.734375l0.6875 0l0 -1.359375l0.9375 -0.5625l0 1.921875l0.9375 0l0 0.734375l-0.9375 0l0 3.234375q0 0.390625 0.046875 0.515625q0.046875 0.109375 0.15625 0.1875q0.109375 0.0625 0.328125 0.0625q0.15625 0 0.40625 -0.046875zm4.5231476 0.15625q-0.53125 0.453125 -1.015625 0.640625q-0.46875 0.171875 -1.015625 0.171875q-0.921875 0 -1.40625 -0.4375q-0.484375 -0.453125 -0.484375 -1.140625q0 -0.40625 0.171875 -0.734375q0.1875 -0.34375 0.484375 -0.546875q0.3125 -0.203125 0.6875 -0.3125q0.265625 -0.0625 0.828125 -0.140625q1.125 -0.125 1.671875 -0.3125q0 -0.203125 0 -0.25q0 -0.578125 -0.265625 -0.8125q-0.359375 -0.3125 -1.0625 -0.3125q-0.65625 0 -0.984375 0.234375q-0.3125 0.234375 -0.453125 0.8125l-0.921875 -0.125q0.125 -0.578125 0.40625 -0.9375q0.296875 -0.375 0.828125 -0.5625q0.546875 -0.203125 1.25 -0.203125q0.71875 0 1.15625 0.171875q0.4375 0.171875 0.640625 0.421875q0.21875 0.25 0.296875 0.640625q0.046875 0.234375 0.046875 0.859375l0 1.25q0 1.296875 0.0625 1.65625q0.0625 0.34375 0.234375 0.65625l-0.96875 0q-0.15625 -0.296875 -0.1875 -0.6875zm-0.078125 -2.078125q-0.515625 0.203125 -1.53125 0.34375q-0.578125 0.078125 -0.828125 0.1875q-0.234375 0.109375 -0.359375 0.3125q-0.125 0.1875 -0.125 0.4375q0 0.375 0.28125 0.625q0.28125 0.25 0.828125 0.25q0.53125 0 0.953125 -0.234375q0.421875 -0.234375 0.625 -0.65625q0.15625 -0.3125 0.15625 -0.9375l0 -0.328125zm2.0202484 1.109375l0.921875 -0.140625q0.078125 0.5625 0.4375 0.859375q0.359375 0.296875 1.0 0.296875q0.640625 0 0.953125 -0.265625q0.3125 -0.265625 0.3125 -0.625q0 -0.3125 -0.28125 -0.5q-0.1875 -0.125 -0.953125 -0.3125q-1.03125 -0.265625 -1.4375 -0.453125q-0.390625 -0.1875 -0.59375 -0.515625q-0.203125 -0.34375 -0.203125 -0.75q0 -0.359375 0.171875 -0.671875q0.171875 -0.328125 0.453125 -0.53125q0.21875 -0.15625 0.59375 -0.265625q0.390625 -0.125 0.8125 -0.125q0.65625 0 1.140625 0.1875q0.5 0.1875 0.734375 0.515625q0.234375 0.3125 0.3125 0.859375l-0.90625 0.125q-0.0625 -0.4375 -0.375 -0.671875q-0.296875 -0.234375 -0.828125 -0.234375q-0.65625 0 -0.9375 0.21875q-0.265625 0.203125 -0.265625 0.484375q0 0.1875 0.109375 0.328125q0.125 0.15625 0.359375 0.25q0.140625 0.0625 0.828125 0.25q1.0 0.265625 1.390625 0.4375q0.390625 0.15625 0.609375 0.484375q0.234375 0.3125 0.234375 0.796875q0 0.46875 -0.28125 0.890625q-0.265625 0.40625 -0.78125 0.640625q-0.515625 0.21875 -1.171875 0.21875q-1.078125 0 -1.640625 -0.4375q-0.5625 -0.453125 -0.71875 -1.34375zm5.703125 1.65625l0 -7.625l0.9375 0l0 4.34375l2.21875 -2.25l1.21875 0l-2.125 2.0625l2.328125 3.46875l-1.15625 0l-1.8125 -2.828125l-0.671875 0.640625l0 2.1875l-0.9375 0z" fill-rule="nonzero"/></g></svg>