<svg width="293" height="144" fill="none" xmlns="http://www.w3.org/2000/svg"><circle cx="106.917" cy="-14.167" fill="#FEDFC8" r="36.667"/><circle cx="245.333" cy="109.583" fill="#CEEAD6" r="9.167"/><path d="M15.588.873l21.849 18.333-26.802 9.755L15.588.873z" fill="#CEEAD6"/><path d="M246.356-23.933v35.018L216.03-6.424l30.326-17.509z" fill="#D2E3FC"/><path d="M176.026 58.25v19.053l-16.5-9.527 16.5-9.526z" fill="#FDCFE8"/><path fill="#E9D2FD" d="M259.64 54.396l28.334-7.592 7.592 28.334-28.334 7.591z"/><path fill="#CEEAD6" d="M129.738 126.015h73.333v55h-73.333z"/><mask id="a" fill="#fff"><path fill-rule="evenodd" clip-rule="evenodd" d="M148.167-9.583c0 20.25-16.417 36.666-36.667 36.666S74.833 10.667 74.833-9.583c0-20.25 16.417-36.667 36.667-36.667s36.667 16.416 36.667 36.667zM19.881 5.199l22.35 18.753-27.416 9.979 5.066-28.732zm201.055-6.717l30.326 17.509v-35.018L220.936-1.518zm-40.004 83.726l-16.5-9.526 16.5-9.526v19.052zM292.88 51.71l-28.334 7.592 7.592 28.334 28.334-7.592-7.592-28.334zm-158.237 79.212h73.334v55h-73.334v-55zM249 122.417a9.167 9.167 0 009.167-9.167 9.167 9.167 0 00-9.167-9.167 9.167 9.167 0 00-9.167 9.167 9.167 9.167 0 009.167 9.167z"/></mask><path d="M42.23 23.952l.342.94 1.628-.593-1.327-1.113-.643.766zM19.882 5.2l.642-.766-1.326-1.113-.301 1.706.985.173zm-5.067 28.732l-.984-.174-.301 1.706 1.627-.593-.342-.94zm236.447-17.94l-.5.866 1.5.866V15.99h-1zM220.936-1.52l-.5-.865-1.5.866 1.5.866.5-.866zm30.326-17.508h1v-1.732l-1.5.866.5.866zm-86.83 91.709l-.5-.866-1.5.866 1.5.866.5-.866zm16.5 9.526l-.5.866 1.5.866v-1.732h-1zm0-19.052h1v-1.732l-1.5.866.5.866zm83.614-3.855l-.259-.965-.966.258.259.966.966-.259zm28.334-7.592l.966-.259-.259-.965-.966.258.259.966zm-20.742 35.926l-.966.259.259.966.966-.259-.259-.966zm28.334-7.592l.258.966.966-.259-.258-.966-.966.26zm-92.495 50.878h1v-1h-1v1zm-73.334 0v-1h-1v1h1zm73.334 55v1h1v-1h-1zm-73.334 0h-1v1h1v-1zM111.5 28.083c20.803 0 37.667-16.864 37.667-37.666h-2c0 19.698-15.969 35.666-35.667 35.666v2zM73.833-9.583c0 20.802 16.864 37.666 37.667 37.666v-2c-19.698 0-35.667-15.968-35.667-35.666h-2zM111.5-47.25c-20.803 0-37.667 16.864-37.667 37.667h2c0-19.699 15.969-35.667 35.667-35.667v-2zm37.667 37.667c0-20.803-16.864-37.667-37.667-37.667v2c19.698 0 35.667 15.968 35.667 35.667h2zM42.873 23.187L20.524 4.432 19.24 5.965l22.349 18.753 1.285-1.532zM15.157 34.87l27.415-9.978-.684-1.88-27.415 9.979.684 1.88zm3.74-29.844l-5.066 28.73 1.97.348 5.065-28.731-1.97-.347zm232.865 10.099l-30.326-17.51-1 1.733 30.326 17.509 1-1.732zm-1.5-34.152V15.99h2v-35.018h-2zM221.436-.652l30.326-17.509-1-1.732-30.326 17.509 1 1.732zm-57.504 74.2l16.5 9.526 1-1.732-16.5-9.526-1 1.732zm16.5-11.258l-16.5 9.526 1 1.732 16.5-9.526-1-1.732zm1.5 19.918V63.156h-2v19.052h2zm82.873-21.94l28.333-7.593-.517-1.932-28.334 7.593.518 1.931zm8.299 27.108l-7.592-28.333-1.932.517 7.592 28.334 1.932-.518zm27.109-8.299l-28.334 7.592.518 1.932 28.333-7.592-.517-1.932zm-8.299-27.109l7.592 28.334 1.932-.518-7.592-28.334-1.932.518zm-83.937 77.953h-73.334v2h73.334v-2zm1 56v-55h-2v55h2zm-74.334 1h73.334v-2h-73.334v2zm-1-56v55h2v-55h-2zm123.524-17.671a8.168 8.168 0 01-8.167 8.167v2c5.615 0 10.167-4.552 10.167-10.167h-2zM249 105.083a8.168 8.168 0 018.167 8.167h2c0-5.615-4.552-10.167-10.167-10.167v2zm-8.167 8.167a8.168 8.168 0 018.167-8.167v-2c-5.615 0-10.167 4.552-10.167 10.167h2zm8.167 8.167a8.168 8.168 0 01-8.167-8.167h-2c0 5.615 4.552 10.167 10.167 10.167v-2z" fill="#80868B" mask="url(#a)"/></svg>