<svg version="1.1" viewBox="0.0 0.0 863.9632545931759 168.0" fill="none" stroke="none" stroke-linecap="square" stroke-miterlimit="10" xmlns:xlink="http://www.w3.org/1999/xlink" xmlns="http://www.w3.org/2000/svg"><clipPath id="p.0"><path d="m0 0l863.96326 0l0 168.0l-863.96326 0l0 -168.0z" clip-rule="nonzero"/></clipPath><g clip-path="url(#p.0)"><path fill="#000000" fill-opacity="0.0" d="m0 0l863.96326 0l0 168.0l-863.96326 0z" fill-rule="evenodd"/><path fill="#000000" fill-opacity="0.0" d="m48.0 112.002625l0 9.6063" fill-rule="evenodd"/><path stroke="#000000" stroke-width="1.0" stroke-linejoin="round" stroke-linecap="butt" d="m48.0 112.002625l0 9.6063" fill-rule="evenodd"/><path fill="#000000" fill-opacity="0.0" d="m48.0 116.80263l768.3779 0" fill-rule="evenodd"/><path stroke="#000000" stroke-width="1.0" stroke-linejoin="round" stroke-linecap="butt" d="m48.0 116.80263l762.3779 0" fill-rule="evenodd"/><path fill="#000000" stroke="#000000" stroke-width="1.0" stroke-linecap="butt" d="m810.3779 118.45436l4.538147 -1.6517334l-4.538147 -1.6517334z" fill-rule="evenodd"/><path fill="#000000" fill-opacity="0.0" d="m47.810764 25.60105l768.3779 0l0 28.787401l-768.3779 0z" fill-rule="evenodd"/><path fill="#000000" d="m328.65677 35.326l1.65625 7.71875l4.34375 -7.71875l1.609375 0l-1.640625 9.46875l-1.21875 0l0.640625 -3.75l0.78125 -3.8125l-4.296875 7.5625l-0.9375 0l-1.6875 -7.71875l-0.59375 4.09375l-0.625 3.625l-1.21875 0l1.640625 -9.46875l1.546875 0zm12.287231 9.46875q-0.046875 -0.1875 -0.046875 -0.375l0.015625 -0.359375q-0.96875 0.890625 -2.0625 0.859375q-0.921875 -0.015625 -1.515625 -0.578125q-0.578125 -0.578125 -0.515625 -1.453125q0.0625 -1.109375 0.96875 -1.734375q0.921875 -0.640625 2.40625 -0.640625l1.234375 0.015625l0.078125 -0.5625q0.0625 -0.625 -0.25 -1.0q-0.3125 -0.375 -0.921875 -0.375q-0.609375 -0.015625 -1.078125 0.296875q-0.453125 0.296875 -0.5625 0.8125l-1.1875 0q0.0625 -0.609375 0.484375 -1.09375q0.421875 -0.484375 1.078125 -0.734375q0.671875 -0.265625 1.375 -0.25q1.109375 0.015625 1.71875 0.65625q0.609375 0.640625 0.515625 1.703125l-0.578125 3.484375l-0.03125 0.515625q-0.015625 0.34375 0.078125 0.703125l-0.015625 0.109375l-1.1875 0zm-1.859375 -0.90625q0.578125 0.015625 1.078125 -0.265625q0.5 -0.296875 0.859375 -0.796875l0.265625 -1.453125l-0.890625 0q-1.125 0 -1.71875 0.359375q-0.578125 0.34375 -0.65625 0.984375q-0.0625 0.5 0.21875 0.828125q0.296875 0.328125 0.84375 0.34375zm5.9282227 0.90625l-1.171875 0l1.21875 -7.046875l1.171875 0l-1.21875 7.046875zm0.96875 -9.609375q0.296875 -0.015625 0.484375 0.1875q0.203125 0.1875 0.203125 0.5q0 0.296875 -0.203125 0.5q-0.1875 0.1875 -0.5 0.203125q-0.296875 0.015625 -0.5 -0.171875q-0.1875 -0.1875 -0.1875 -0.5q0.015625 -0.3125 0.203125 -0.5q0.1875 -0.203125 0.5 -0.21875zm3.2799988 2.5625l-0.15625 0.890625q0.9375 -1.046875 2.15625 -1.015625q1.0 0.03125 1.46875 0.703125q0.46875 0.65625 0.359375 1.859375l-0.78125 4.609375l-1.171875 0l0.78125 -4.640625q0.03125 -0.3125 0 -0.578125q-0.109375 -0.921875 -1.078125 -0.9375q-1.0625 -0.015625 -1.859375 1.125l-0.875 5.03125l-1.171875 0l1.21875 -7.046875l1.109375 0zm11.245911 -1.703125l-0.296875 1.703125l1.28125 0l-0.171875 0.9375l-1.265625 0l-0.734375 4.375q-0.015625 0.171875 -0.015625 0.3125q0.046875 0.515625 0.5625 0.515625q0.21875 0 0.5625 -0.0625l-0.078125 0.96875q-0.421875 0.125 -0.859375 0.125q-0.703125 -0.015625 -1.0625 -0.515625q-0.34375 -0.5 -0.265625 -1.359375l0.703125 -4.359375l-1.234375 0l0.15625 -0.9375l1.25 0l0.296875 -1.703125l1.171875 0zm3.3824463 2.5625q0.921875 -1.0 2.125 -0.984375q0.984375 0.015625 1.453125 0.6875q0.484375 0.671875 0.375 1.875l-0.78125 4.609375l-1.171875 0l0.78125 -4.640625q0.03125 -0.3125 0 -0.578125q-0.109375 -0.921875 -1.078125 -0.9375q-1.078125 -0.03125 -1.859375 1.125l-0.875 5.03125l-1.171875 0l1.734375 -10.0l1.1875 0l-0.71875 3.8125zm9.356567 0.21875l-0.546875 -0.0625q-1.140625 0 -1.78125 1.03125l-0.875 5.0l-1.171875 0l1.21875 -7.046875l1.140625 0l-0.171875 0.8125q0.75 -0.96875 1.765625 -0.953125q0.203125 0 0.5625 0.09375l-0.140625 1.125zm2.9865417 6.09375q-1.3125 -0.015625 -2.0625 -0.953125q-0.734375 -0.953125 -0.625 -2.421875l0.03125 -0.28125q0.109375 -1.046875 0.625 -1.90625q0.515625 -0.875 1.25 -1.3125q0.734375 -0.4375 1.578125 -0.421875q1.09375 0.03125 1.703125 0.734375q0.625 0.6875 0.6875 1.875q0.015625 0.421875 -0.03125 0.84375l-0.0625 0.546875l-4.609375 0q-0.109375 0.953125 0.3125 1.625q0.4375 0.671875 1.296875 0.6875q1.046875 0.03125 1.921875 -0.9375l0.6875 0.578125q-0.453125 0.640625 -1.15625 1.0q-0.6875 0.359375 -1.546875 0.34375zm0.75 -6.3125q-0.734375 -0.015625 -1.28125 0.5q-0.53125 0.5 -0.859375 1.515625l3.421875 0.015625l0.03125 -0.109375q0.109375 -0.8125 -0.265625 -1.359375q-0.375 -0.546875 -1.046875 -0.5625zm7.427002 6.1875q-0.046875 -0.1875 -0.046875 -0.375l0.015625 -0.359375q-0.96875 0.890625 -2.0625 0.859375q-0.921875 -0.015625 -1.515625 -0.578125q-0.578125 -0.578125 -0.515625 -1.453125q0.0625 -1.109375 0.96875 -1.734375q0.921875 -0.640625 2.40625 -0.640625l1.234375 0.015625l0.078125 -0.5625q0.0625 -0.625 -0.25 -1.0q-0.3125 -0.375 -0.921875 -0.375q-0.609375 -0.015625 -1.078125 0.296875q-0.453125 0.296875 -0.5625 0.8125l-1.1875 0q0.0625 -0.609375 0.484375 -1.09375q0.421875 -0.484375 1.078125 -0.734375q0.671875 -0.265625 1.375 -0.25q1.109375 0.015625 1.71875 0.65625q0.609375 0.640625 0.515625 1.703125l-0.578125 3.484375l-0.03125 0.515625q-0.015625 0.34375 0.078125 0.703125l-0.015625 0.109375l-1.1875 0zm-1.859375 -0.90625q0.578125 0.015625 1.078125 -0.265625q0.5 -0.296875 0.859375 -0.796875l0.265625 -1.453125l-0.890625 0q-1.125 0 -1.71875 0.359375q-0.578125 0.34375 -0.65625 0.984375q-0.0625 0.5 0.21875 0.828125q0.296875 0.328125 0.84375 0.34375zm4.9907227 -2.625q0.125 -1.078125 0.578125 -1.9375q0.46875 -0.875 1.140625 -1.296875q0.6875 -0.4375 1.5 -0.40625q1.171875 0.015625 1.8125 0.859375l0.671875 -3.6875l1.171875 0l-1.734375 10.0l-1.0625 0l0.125 -0.75q-0.84375 0.90625 -2.0625 0.875q-0.96875 -0.015625 -1.5625 -0.75q-0.578125 -0.75 -0.625 -1.984375q-0.015625 -0.390625 0.046875 -0.921875zm1.125 0.671875q-0.015625 0.9375 0.328125 1.453125q0.359375 0.515625 1.03125 0.515625q1.015625 0.046875 1.8125 -1.015625l0.5625 -3.265625q-0.390625 -0.953125 -1.421875 -0.984375q-0.6875 -0.015625 -1.21875 0.421875q-0.53125 0.4375 -0.8125 1.234375q-0.28125 0.78125 -0.28125 1.640625zm12.261475 -5.890625l-0.296875 1.703125l1.28125 0l-0.171875 0.9375l-1.265625 0l-0.734375 4.375q-0.015625 0.171875 -0.015625 0.3125q0.046875 0.515625 0.5625 0.515625q0.21875 0 0.5625 -0.0625l-0.078125 0.96875q-0.421875 0.125 -0.859375 0.125q-0.703125 -0.015625 -1.0625 -0.515625q-0.34375 -0.5 -0.265625 -1.359375l0.703125 -4.359375l-1.234375 0l0.15625 -0.9375l1.25 0l0.296875 -1.703125l1.171875 0zm2.4605713 8.75l-1.171875 0l1.21875 -7.046875l1.171875 0l-1.21875 7.046875zm0.96875 -9.609375q0.296875 -0.015625 0.484375 0.1875q0.203125 0.1875 0.203125 0.5q0 0.296875 -0.203125 0.5q-0.1875 0.1875 -0.5 0.203125q-0.296875 0.015625 -0.5 -0.171875q-0.1875 -0.1875 -0.1875 -0.5q0.015625 -0.3125 0.203125 -0.5q0.1875 -0.203125 0.5 -0.21875zm3.2799683 2.5625l-0.15625 0.78125q0.890625 -0.9375 2.140625 -0.90625q0.671875 0.015625 1.140625 0.3125q0.46875 0.28125 0.640625 0.8125q0.984375 -1.15625 2.328125 -1.125q1.0625 0.03125 1.5625 0.71875q0.5 0.671875 0.375 1.828125l-0.78125 4.625l-1.171875 0l0.765625 -4.640625q0.046875 -0.34375 0 -0.625q-0.125 -0.875 -1.15625 -0.890625q-0.640625 -0.015625 -1.171875 0.40625q-0.515625 0.40625 -0.671875 1.078125l-0.796875 4.671875l-1.1875 0l0.78125 -4.640625q0.09375 -0.71875 -0.21875 -1.109375q-0.296875 -0.390625 -0.9375 -0.40625q-1.09375 -0.015625 -1.75 1.015625l-0.890625 5.140625l-1.1875 0l1.234375 -7.046875l1.109375 0zm12.114075 7.171875q-1.3125 -0.015625 -2.0625 -0.953125q-0.734375 -0.953125 -0.625 -2.421875l0.03125 -0.28125q0.109375 -1.046875 0.625 -1.90625q0.515625 -0.875 1.25 -1.3125q0.734375 -0.4375 1.578125 -0.421875q1.09375 0.03125 1.703125 0.734375q0.625 0.6875 0.6875 1.875q0.015625 0.421875 -0.03125 0.84375l-0.0625 0.546875l-4.609375 0q-0.109375 0.953125 0.3125 1.625q0.4375 0.671875 1.296875 0.6875q1.046875 0.03125 1.921875 -0.9375l0.6875 0.578125q-0.453125 0.640625 -1.15625 1.0q-0.6875 0.359375 -1.546875 0.34375zm0.75 -6.3125q-0.734375 -0.015625 -1.28125 0.5q-0.53125 0.5 -0.859375 1.515625l3.421875 0.015625l0.03125 -0.109375q0.109375 -0.8125 -0.265625 -1.359375q-0.375 -0.546875 -1.046875 -0.5625zm4.3957214 6.1875l-1.171875 0l1.71875 -10.0l1.1875 0l-1.734375 10.0zm3.2018738 0l-1.171875 0l1.21875 -7.046875l1.171875 0l-1.21875 7.046875zm0.96875 -9.609375q0.296875 -0.015625 0.484375 0.1875q0.203125 0.1875 0.203125 0.5q0 0.296875 -0.203125 0.5q-0.1875 0.1875 -0.5 0.203125q-0.296875 0.015625 -0.5 -0.171875q-0.1875 -0.1875 -0.1875 -0.5q0.015625 -0.3125 0.203125 -0.5q0.1875 -0.203125 0.5 -0.21875zm3.2799988 2.5625l-0.15625 0.890625q0.9375 -1.046875 2.15625 -1.015625q1.0 0.03125 1.46875 0.703125q0.46875 0.65625 0.359375 1.859375l-0.78125 4.609375l-1.171875 0l0.78125 -4.640625q0.03125 -0.3125 0 -0.578125q-0.109375 -0.921875 -1.078125 -0.9375q-1.0625 -0.015625 -1.859375 1.125l-0.875 5.03125l-1.171875 0l1.21875 -7.046875l1.109375 0zm7.9164734 7.171875q-1.3125 -0.015625 -2.0625 -0.953125q-0.734375 -0.953125 -0.625 -2.421875l0.03125 -0.28125q0.109375 -1.046875 0.625 -1.90625q0.515625 -0.875 1.25 -1.3125q0.734375 -0.4375 1.578125 -0.421875q1.09375 0.03125 1.703125 0.734375q0.625 0.6875 0.6875 1.875q0.015625 0.421875 -0.03125 0.84375l-0.0625 0.546875l-4.609375 0q-0.109375 0.953125 0.3125 1.625q0.4375 0.671875 1.296875 0.6875q1.046875 0.03125 1.921875 -0.9375l0.6875 0.578125q-0.453125 0.640625 -1.15625 1.0q-0.6875 0.359375 -1.546875 0.34375zm0.75 -6.3125q-0.734375 -0.015625 -1.28125 0.5q-0.53125 0.5 -0.859375 1.515625l3.421875 0.015625l0.03125 -0.109375q0.109375 -0.8125 -0.265625 -1.359375q-0.375 -0.546875 -1.046875 -0.5625zm7.0376587 2.375q0.21875 -1.515625 0.796875 -2.9375q0.59375 -1.421875 1.4375 -2.421875q0.84375 -1.015625 1.890625 -1.53125l0.171875 0.8125q-1.03125 0.765625 -1.765625 2.0q-0.71875 1.21875 -1.125 2.90625q-0.390625 1.6875 -0.375 3.328125q0 1.34375 0.34375 2.359375q0.34375 1.03125 1.0 1.625l-0.28125 0.734375q-1.09375 -0.765625 -1.671875 -2.25q-0.578125 -1.46875 -0.515625 -3.375q0.015625 -0.625 0.09375 -1.1875l0 -0.0625zm6.9370728 -4.9375l-0.296875 1.703125l1.28125 0l-0.171875 0.9375l-1.265625 0l-0.734375 4.375q-0.015625 0.171875 -0.015625 0.3125q0.046875 0.515625 0.5625 0.515625q0.21875 0 0.5625 -0.0625l-0.078125 0.96875q-0.421875 0.125 -0.859375 0.125q-0.703125 -0.015625 -1.0625 -0.515625q-0.34375 -0.5 -0.265625 -1.359375l0.703125 -4.359375l-1.234375 0l0.15625 -0.9375l1.25 0l0.296875 -1.703125l1.171875 0zm5.4918213 8.75q-0.046875 -0.1875 -0.046875 -0.375l0.015625 -0.359375q-0.96875 0.890625 -2.0625 0.859375q-0.921875 -0.015625 -1.515625 -0.578125q-0.578125 -0.578125 -0.515625 -1.453125q0.0625 -1.109375 0.96875 -1.734375q0.921875 -0.640625 2.40625 -0.640625l1.234375 0.015625l0.078125 -0.5625q0.0625 -0.625 -0.25 -1.0q-0.3125 -0.375 -0.921875 -0.375q-0.609375 -0.015625 -1.078125 0.296875q-0.453125 0.296875 -0.5625 0.8125l-1.1875 0q0.0625 -0.609375 0.484375 -1.09375q0.421875 -0.484375 1.078125 -0.734375q0.671875 -0.265625 1.375 -0.25q1.109375 0.015625 1.71875 0.65625q0.609375 0.640625 0.515625 1.703125l-0.578125 3.484375l-0.03125 0.515625q-0.015625 0.34375 0.078125 0.703125l-0.015625 0.109375l-1.1875 0zm-1.859375 -0.90625q0.578125 0.015625 1.078125 -0.265625q0.5 -0.296875 0.859375 -0.796875l0.265625 -1.453125l-0.890625 0q-1.125 0 -1.71875 0.359375q-0.578125 0.34375 -0.65625 0.984375q-0.0625 0.5 0.21875 0.828125q0.296875 0.328125 0.84375 0.34375zm9.006348 -1.0q0.09375 -0.734375 -0.796875 -1.03125l-1.234375 -0.359375q-1.546875 -0.53125 -1.484375 -1.765625q0.046875 -0.9375 0.84375 -1.53125q0.796875 -0.59375 1.890625 -0.578125q1.0625 0.015625 1.734375 0.625q0.671875 0.609375 0.640625 1.578125l-1.171875 0q0.015625 -0.53125 -0.328125 -0.859375q-0.34375 -0.328125 -0.921875 -0.34375q-0.609375 -0.015625 -1.046875 0.296875q-0.421875 0.296875 -0.484375 0.765625q-0.078125 0.609375 0.75 0.890625l0.59375 0.171875q1.203125 0.3125 1.703125 0.8125q0.515625 0.5 0.484375 1.234375q-0.046875 0.65625 -0.4375 1.15625q-0.390625 0.484375 -1.046875 0.75q-0.640625 0.25 -1.375 0.21875q-1.125 -0.015625 -1.859375 -0.65625q-0.71875 -0.640625 -0.6875 -1.640625l1.171875 0q0 0.59375 0.375 0.953125q0.390625 0.359375 1.046875 0.359375q0.640625 0.015625 1.109375 -0.265625q0.46875 -0.28125 0.53125 -0.78125zm4.901001 -1.34375l-0.9375 0.828125l-0.40625 2.421875l-1.1875 0l1.75 -10.0l1.171875 0l-1.046875 5.984375l0.734375 -0.734375l2.484375 -2.296875l1.53125 0l-3.234375 3.0l2.234375 4.046875l-1.296875 0l-1.796875 -3.25zm7.697998 -0.28125q0.125 -1.078125 0.578125 -1.9375q0.46875 -0.875 1.140625 -1.296875q0.6875 -0.4375 1.5 -0.40625q1.171875 0.015625 1.8125 0.859375l0.671875 -3.6875l1.171875 0l-1.734375 10.0l-1.0625 0l0.125 -0.75q-0.84375 0.90625 -2.0625 0.875q-0.96875 -0.015625 -1.5625 -0.75q-0.578125 -0.75 -0.625 -1.984375q-0.015625 -0.390625 0.046875 -0.921875zm1.125 0.671875q-0.015625 0.9375 0.328125 1.453125q0.359375 0.515625 1.03125 0.515625q1.015625 0.046875 1.8125 -1.015625l0.5625 -3.265625q-0.390625 -0.953125 -1.421875 -0.984375q-0.6875 -0.015625 -1.21875 0.421875q-0.53125 0.4375 -0.8125 1.234375q-0.28125 0.78125 -0.28125 1.640625zm10.353882 2.15625q-0.828125 0.859375 -2.09375 0.828125q-1.015625 -0.015625 -1.5 -0.703125q-0.484375 -0.703125 -0.359375 -1.921875l0.75 -4.546875l1.1875 0l-0.765625 4.578125q-0.03125 0.28125 -0.015625 0.5625q0.03125 0.46875 0.28125 0.734375q0.25 0.265625 0.6875 0.28125q1.265625 0.03125 1.953125 -1.015625l0.890625 -5.140625l1.171875 0l-1.21875 7.046875l-1.125 0l0.15625 -0.703125zm7.097473 -5.265625l-0.546875 -0.0625q-1.140625 0 -1.78125 1.03125l-0.875 5.0l-1.171875 0l1.21875 -7.046875l1.140625 0l-0.171875 0.8125q0.75 -0.96875 1.765625 -0.953125q0.203125 0 0.5625 0.09375l-0.140625 1.125zm4.1154175 5.96875q-0.046875 -0.1875 -0.046875 -0.375l0.015625 -0.359375q-0.96875 0.890625 -2.0625 0.859375q-0.921875 -0.015625 -1.515625 -0.578125q-0.578125 -0.578125 -0.515625 -1.453125q0.0625 -1.109375 0.96875 -1.734375q0.921875 -0.640625 2.40625 -0.640625l1.234375 0.015625l0.078125 -0.5625q0.0625 -0.625 -0.25 -1.0q-0.3125 -0.375 -0.921875 -0.375q-0.609375 -0.015625 -1.078125 0.296875q-0.453125 0.296875 -0.5625 0.8125l-1.1875 0q0.0625 -0.609375 0.484375 -1.09375q0.421875 -0.484375 1.078125 -0.734375q0.671875 -0.265625 1.375 -0.25q1.109375 0.015625 1.71875 0.65625q0.609375 0.640625 0.515625 1.703125l-0.578125 3.484375l-0.03125 0.515625q-0.015625 0.34375 0.078125 0.703125l-0.015625 0.109375l-1.1875 0zm-1.859375 -0.90625q0.578125 0.015625 1.078125 -0.265625q0.5 -0.296875 0.859375 -0.796875l0.265625 -1.453125l-0.890625 0q-1.125 0 -1.71875 0.359375q-0.578125 0.34375 -0.65625 0.984375q-0.0625 0.5 0.21875 0.828125q0.296875 0.328125 0.84375 0.34375zm7.7563477 -7.84375l-0.296875 1.703125l1.28125 0l-0.171875 0.9375l-1.265625 0l-0.734375 4.375q-0.015625 0.171875 -0.015625 0.3125q0.046875 0.515625 0.5625 0.515625q0.21875 0 0.5625 -0.0625l-0.078125 0.96875q-0.421875 0.125 -0.859375 0.125q-0.703125 -0.015625 -1.0625 -0.515625q-0.34375 -0.5 -0.265625 -1.359375l0.703125 -4.359375l-1.234375 0l0.15625 -0.9375l1.25 0l0.296875 -1.703125l1.171875 0zm2.4605713 8.75l-1.171875 0l1.21875 -7.046875l1.1719055 0l-1.2187805 7.046875zm0.9687805 -9.609375q0.296875 -0.015625 0.484375 0.1875q0.203125 0.1875 0.203125 0.5q0 0.296875 -0.203125 0.5q-0.1875 0.1875 -0.5 0.203125q-0.29690552 0.015625 -0.5000305 -0.171875q-0.1875 -0.1875 -0.1875 -0.5q0.015625 -0.3125 0.203125 -0.5q0.1875 -0.203125 0.5000305 -0.21875zm4.8581543 2.4375q0.890625 0.015625 1.515625 0.484375q0.640625 0.46875 0.9375 1.296875q0.296875 0.8125 0.203125 1.796875l-0.015625 0.140625q-0.125 1.03125 -0.609375 1.859375q-0.484375 0.828125 -1.265625 1.296875q-0.765625 0.453125 -1.6875 0.421875q-0.890625 -0.015625 -1.53125 -0.46875q-0.625 -0.46875 -0.921875 -1.28125q-0.28125 -0.8125 -0.203125 -1.78125q0.09375 -1.09375 0.59375 -1.953125q0.5 -0.875 1.265625 -1.359375q0.78125 -0.484375 1.71875 -0.453125zm-2.390625 3.78125q-0.046875 0.40625 0 0.84375q0.0625 0.765625 0.453125 1.234375q0.40625 0.453125 1.0625 0.46875q0.578125 0.015625 1.0625 -0.28125q0.5 -0.3125 0.84375 -0.9375q0.34375 -0.625 0.4375 -1.390625q0.046875 -0.59375 0.015625 -1.015625q-0.078125 -0.78125 -0.484375 -1.234375q-0.390625 -0.453125 -1.046875 -0.484375q-0.90625 -0.015625 -1.546875 0.71875q-0.640625 0.734375 -0.78125 1.921875l-0.015625 0.15625zm8.250977 -3.65625l-0.15625 0.890625q0.9375 -1.046875 2.15625 -1.015625q1.0 0.03125 1.46875 0.703125q0.46875 0.65625 0.359375 1.859375l-0.78125 4.609375l-1.171875 0l0.78125 -4.640625q0.03125 -0.3125 0 -0.578125q-0.109375 -0.921875 -1.078125 -0.9375q-1.0625 -0.015625 -1.859375 1.125l-0.875 5.03125l-1.171875 0l1.21875 -7.046875l1.109375 0zm9.228943 5.140625q0.09375 -0.734375 -0.796875 -1.03125l-1.234375 -0.359375q-1.546875 -0.53125 -1.484375 -1.765625q0.046875 -0.9375 0.84375 -1.53125q0.796875 -0.59375 1.890625 -0.578125q1.0625 0.015625 1.734375 0.625q0.671875 0.609375 0.640625 1.578125l-1.171875 0q0.015625 -0.53125 -0.328125 -0.859375q-0.34375 -0.328125 -0.921875 -0.34375q-0.609375 -0.015625 -1.046875 0.296875q-0.421875 0.296875 -0.484375 0.765625q-0.078125 0.609375 0.75 0.890625l0.59375 0.171875q1.203125 0.3125 1.703125 0.8125q0.515625 0.5 0.484375 1.234375q-0.046875 0.65625 -0.4375 1.15625q-0.390625 0.484375 -1.046875 0.75q-0.640625 0.25 -1.375 0.21875q-1.125 -0.015625 -1.859375 -0.65625q-0.71875 -0.640625 -0.6875 -1.640625l1.171875 0q0 0.59375 0.375 0.953125q0.390625 0.359375 1.046875 0.359375q0.640625 0.015625 1.109375 -0.265625q0.46875 -0.28125 0.53125 -0.78125zm5.729187 -1.90625q-0.234375 1.59375 -0.828125 3.015625q-0.59375 1.40625 -1.4375 2.375q-0.828125 0.984375 -1.84375 1.484375l-0.1875 -0.75q2.234375 -1.671875 2.984375 -5.390625q0.296875 -1.5 0.28125 -2.890625q-0.03125 -2.78125 -1.359375 -4.0l0.3125 -0.71875q0.734375 0.5 1.234375 1.34375q0.5 0.84375 0.734375 1.96875q0.25 1.109375 0.21875 2.3125q-0.015625 0.625 -0.09375 1.1875l-0.015625 0.0625z" fill-rule="nonzero"/><path fill="#e8c469" d="m96.0 104.0l240.0 0l0 24.0l-240.0 0z" fill-rule="evenodd"/><path fill="#e8c469" d="m369.6 104.0l86.39371 0l0 24.0l-86.39371 0z" fill-rule="evenodd"/><path fill="#e8c469" d="m477.84933 104.0l33.606323 0l0 24.0l-33.606323 0z" fill-rule="evenodd"/><path fill="#e8c469" d="m552.0 104.0l27.968506 0l0 24.0l-27.968506 0z" fill-rule="evenodd"/><path fill="#e8c469" d="m624.0 104.0l148.78741 0l0 24.0l-148.78741 0z" fill-rule="evenodd"/><path fill="#000000" fill-opacity="0.0" d="m369.6 60.8l86.39371 0l0 28.787403l-86.39371 0z" fill-rule="evenodd"/><path fill="#000000" d="m407.4485 77.168076l0.90625 -0.078125q0.109375 0.625 0.4375 0.921875q0.328125 0.28125 0.828125 0.28125q0.421875 0 0.75 -0.1875q0.328125 -0.203125 0.53125 -0.53125q0.21875 -0.34375 0.359375 -0.890625q0.140625 -0.5625 0.140625 -1.15625q0 -0.0625 -0.015625 -0.1875q-0.28125 0.453125 -0.765625 0.734375q-0.484375 0.265625 -1.046875 0.265625q-0.953125 0 -1.609375 -0.671875q-0.65625 -0.6875 -0.65625 -1.8125q0 -1.171875 0.6875 -1.875q0.6875 -0.703125 1.71875 -0.703125q0.734375 0 1.34375 0.40625q0.625 0.390625 0.9375 1.140625q0.328125 0.734375 0.328125 2.140625q0 1.453125 -0.3125 2.328125q-0.3125 0.859375 -0.953125 1.3125q-0.625 0.453125 -1.46875 0.453125q-0.890625 0 -1.453125 -0.484375q-0.5625 -0.5 -0.6875 -1.40625zm3.84375 -3.359375q0 -0.8125 -0.4375 -1.28125q-0.421875 -0.484375 -1.03125 -0.484375q-0.625 0 -1.09375 0.515625q-0.453125 0.515625 -0.453125 1.328125q0 0.71875 0.4375 1.1875q0.4375 0.453125 1.078125 0.453125q0.65625 0 1.078125 -0.453125q0.421875 -0.46875 0.421875 -1.265625zm1.9421082 1.359375q0 -1.34375 0.28125 -2.171875q0.28125 -0.828125 0.828125 -1.265625q0.546875 -0.453125 1.375 -0.453125q0.625 0 1.078125 0.25q0.46875 0.234375 0.765625 0.703125q0.3125 0.46875 0.484375 1.140625q0.171875 0.671875 0.171875 1.796875q0 1.34375 -0.28125 2.171875q-0.28125 0.828125 -0.828125 1.28125q-0.546875 0.4375 -1.390625 0.4375q-1.09375 0 -1.71875 -0.78125q-0.765625 -0.953125 -0.765625 -3.109375zm0.96875 0q0 1.875 0.4375 2.5q0.4375 0.625 1.078125 0.625q0.65625 0 1.09375 -0.625q0.4375 -0.625 0.4375 -2.5q0 -1.875 -0.4375 -2.5q-0.4375 -0.625 -1.09375 -0.625q-0.640625 0 -1.03125 0.546875q-0.484375 0.703125 -0.484375 2.578125z" fill-rule="nonzero"/><path fill="#000000" fill-opacity="0.0" d="m369.6 89.6l86.39371 0" fill-rule="evenodd"/><path stroke="#000000" stroke-width="1.0" stroke-linejoin="round" stroke-linecap="butt" d="m369.6 89.6l86.39371 0" fill-rule="evenodd"/><path fill="#000000" fill-opacity="0.0" d="m477.84933 89.6l33.606323 0" fill-rule="evenodd"/><path stroke="#000000" stroke-width="1.0" stroke-linejoin="round" stroke-linecap="butt" d="m477.84933 89.6l33.606323 0" fill-rule="evenodd"/><path fill="#000000" fill-opacity="0.0" d="m552.0 89.6l27.968506 0" fill-rule="evenodd"/><path stroke="#000000" stroke-width="1.0" stroke-linejoin="round" stroke-linecap="butt" d="m552.0 89.6l27.968506 0" fill-rule="evenodd"/><path fill="#000000" fill-opacity="0.0" d="m624.0 89.6l148.78741 0" fill-rule="evenodd"/><path stroke="#000000" stroke-width="1.0" stroke-linejoin="round" stroke-linecap="butt" d="m624.0 89.6l148.78741 0" fill-rule="evenodd"/><path fill="#000000" fill-opacity="0.0" d="m336.0 89.6l-240.0 0" fill-rule="evenodd"/><path stroke="#000000" stroke-width="1.0" stroke-linejoin="round" stroke-linecap="butt" d="m336.0 89.6l-240.0 0" fill-rule="evenodd"/><path fill="#000000" fill-opacity="0.0" d="m96.0 84.8l0 9.606293" fill-rule="evenodd"/><path stroke="#000000" stroke-width="1.0" stroke-linejoin="round" stroke-linecap="butt" d="m96.0 84.8l0 9.606293" fill-rule="evenodd"/><path fill="#000000" fill-opacity="0.0" d="m336.0 84.794754l0 9.606293" fill-rule="evenodd"/><path stroke="#000000" stroke-width="1.0" stroke-linejoin="round" stroke-linecap="butt" d="m336.0 84.794754l0 9.606293" fill-rule="evenodd"/><path fill="#000000" fill-opacity="0.0" d="m369.6 84.794754l0 9.606293" fill-rule="evenodd"/><path stroke="#000000" stroke-width="1.0" stroke-linejoin="round" stroke-linecap="butt" d="m369.6 84.794754l0 9.606293" fill-rule="evenodd"/><path fill="#000000" fill-opacity="0.0" d="m456.0 84.794754l0 9.606293" fill-rule="evenodd"/><path stroke="#000000" stroke-width="1.0" stroke-linejoin="round" stroke-linecap="butt" d="m456.0 84.794754l0 9.606293" fill-rule="evenodd"/><path fill="#000000" fill-opacity="0.0" d="m477.84933 84.8l0 9.606293" fill-rule="evenodd"/><path stroke="#000000" stroke-width="1.0" stroke-linejoin="round" stroke-linecap="butt" d="m477.84933 84.8l0 9.606293" fill-rule="evenodd"/><path fill="#000000" fill-opacity="0.0" d="m511.44934 84.794754l0 9.606293" fill-rule="evenodd"/><path stroke="#000000" stroke-width="1.0" stroke-linejoin="round" stroke-linecap="butt" d="m511.44934 84.794754l0 9.606293" fill-rule="evenodd"/><path fill="#000000" fill-opacity="0.0" d="m552.0 84.8l0 9.606293" fill-rule="evenodd"/><path stroke="#000000" stroke-width="1.0" stroke-linejoin="round" stroke-linecap="butt" d="m552.0 84.8l0 9.606293" fill-rule="evenodd"/><path fill="#000000" fill-opacity="0.0" d="m579.9755 84.794754l0 9.606293" fill-rule="evenodd"/><path stroke="#000000" stroke-width="1.0" stroke-linejoin="round" stroke-linecap="butt" d="m579.9755 84.794754l0 9.606293" fill-rule="evenodd"/><path fill="#000000" fill-opacity="0.0" d="m624.0 84.794754l0 9.606293" fill-rule="evenodd"/><path stroke="#000000" stroke-width="1.0" stroke-linejoin="round" stroke-linecap="butt" d="m624.0 84.794754l0 9.606293" fill-rule="evenodd"/><path fill="#000000" fill-opacity="0.0" d="m772.7998 84.794754l0 9.606293" fill-rule="evenodd"/><path stroke="#000000" stroke-width="1.0" stroke-linejoin="round" stroke-linecap="butt" d="m772.7998 84.794754l0 9.606293" fill-rule="evenodd"/><path fill="#000000" fill-opacity="0.0" d="m96.0 60.8l240.0 0l0 28.787403l-240.0 0z" fill-rule="evenodd"/><path fill="#000000" d="m212.46964 78.02745l0 0.90625l-5.03125 0q-0.015625 -0.34375 0.109375 -0.65625q0.1875 -0.515625 0.609375 -1.015625q0.421875 -0.5 1.234375 -1.140625q1.234375 -1.03125 1.671875 -1.625q0.4375 -0.59375 0.4375 -1.125q0 -0.5625 -0.40625 -0.9375q-0.390625 -0.390625 -1.03125 -0.390625q-0.671875 0 -1.078125 0.40625q-0.40625 0.40625 -0.40625 1.125l-0.96875 -0.09375q0.09375 -1.078125 0.734375 -1.640625q0.65625 -0.5625 1.734375 -0.5625q1.109375 0 1.75 0.609375q0.640625 0.609375 0.640625 1.5q0 0.46875 -0.1875 0.90625q-0.1875 0.4375 -0.625 0.9375q-0.4375 0.484375 -1.453125 1.328125q-0.828125 0.71875 -1.078125 0.96875q-0.234375 0.25 -0.390625 0.5l3.734375 0zm1.0046082 -1.09375l0.984375 -0.078125q0.109375 0.71875 0.5 1.078125q0.40625 0.359375 0.96875 0.359375q0.671875 0 1.140625 -0.5q0.46875 -0.515625 0.46875 -1.359375q0 -0.796875 -0.453125 -1.265625q-0.4375 -0.46875 -1.171875 -0.46875q-0.453125 0 -0.8125 0.21875q-0.359375 0.203125 -0.578125 0.53125l-0.875 -0.125l0.734375 -3.921875l3.796875 0l0 0.90625l-3.046875 0l-0.40625 2.046875q0.6875 -0.484375 1.4375 -0.484375q1.0 0 1.6875 0.703125q0.6875 0.6875 0.6875 1.765625q0 1.046875 -0.609375 1.796875q-0.734375 0.921875 -2.0 0.921875q-1.03125 0 -1.703125 -0.578125q-0.65625 -0.578125 -0.75 -1.546875zm5.9265137 -1.765625q0 -1.34375 0.28125 -2.171875q0.28125 -0.828125 0.828125 -1.265625q0.546875 -0.453125 1.375 -0.453125q0.625 0 1.078125 0.25q0.46875 0.234375 0.765625 0.703125q0.3125 0.46875 0.484375 1.140625q0.171875 0.671875 0.171875 1.796875q0 1.34375 -0.28125 2.171875q-0.28125 0.828125 -0.828125 1.28125q-0.546875 0.4375 -1.390625 0.4375q-1.09375 0 -1.71875 -0.78125q-0.765625 -0.953125 -0.765625 -3.109375zm0.96875 0q0 1.875 0.4375 2.5q0.4375 0.625 1.078125 0.625q0.65625 0 1.09375 -0.625q0.4375 -0.625 0.4375 -2.5q0 -1.875 -0.4375 -2.5q-0.4375 -0.625 -1.09375 -0.625q-0.640625 0 -1.03125 0.546875q-0.484375 0.703125 -0.484375 2.578125z" fill-rule="nonzero"/><path fill="#000000" fill-opacity="0.0" d="m624.0 60.8l148.78741 0l0 28.787403l-148.78741 0z" fill-rule="evenodd"/><path fill="#000000" d="m693.4727 78.9337l-0.9375 0l0 -5.96875q-0.34375 0.328125 -0.890625 0.65625q-0.546875 0.3125 -0.984375 0.46875l0 -0.90625q0.796875 -0.359375 1.375 -0.890625q0.59375 -0.53125 0.828125 -1.015625l0.609375 0l0 7.65625zm2.3952026 -2.0l0.984375 -0.078125q0.109375 0.71875 0.5 1.078125q0.40625 0.359375 0.96875 0.359375q0.671875 0 1.140625 -0.5q0.46875 -0.515625 0.46875 -1.359375q0 -0.796875 -0.453125 -1.265625q-0.4375 -0.46875 -1.171875 -0.46875q-0.453125 0 -0.8125 0.21875q-0.359375 0.203125 -0.578125 0.53125l-0.875 -0.125l0.734375 -3.921875l3.796875 0l0 0.90625l-3.046875 0l-0.40625 2.046875q0.6875 -0.484375 1.4375 -0.484375q1.0 0 1.6875 0.703125q0.6875 0.6875 0.6875 1.765625q0 1.046875 -0.609375 1.796875q-0.734375 0.921875 -2.0 0.921875q-1.03125 0 -1.703125 -0.578125q-0.65625 -0.578125 -0.75 -1.546875zm5.9265137 0l0.984375 -0.078125q0.109375 0.71875 0.5 1.078125q0.40625 0.359375 0.96875 0.359375q0.671875 0 1.140625 -0.5q0.46875 -0.515625 0.46875 -1.359375q0 -0.796875 -0.453125 -1.265625q-0.4375 -0.46875 -1.171875 -0.46875q-0.453125 0 -0.8125 0.21875q-0.359375 0.203125 -0.578125 0.53125l-0.875 -0.125l0.734375 -3.921875l3.796875 0l0 0.90625l-3.046875 0l-0.40625 2.046875q0.6875 -0.484375 1.4375 -0.484375q1.0 0 1.6875 0.703125q0.6875 0.6875 0.6875 1.765625q0 1.046875 -0.609375 1.796875q-0.734375 0.921875 -2.0 0.921875q-1.03125 0 -1.703125 -0.578125q-0.65625 -0.578125 -0.75 -1.546875z" fill-rule="nonzero"/><path fill="#000000" fill-opacity="0.0" d="m475.2 60.800526l33.606293 0l0 28.787403l-33.606293 0z" fill-rule="evenodd"/><path fill="#000000" d="m486.5298 76.9186l0.9375 -0.125q0.15625 0.796875 0.546875 1.15625q0.390625 0.34375 0.9375 0.34375q0.65625 0 1.109375 -0.453125q0.46875 -0.46875 0.46875 -1.140625q0 -0.640625 -0.421875 -1.0625q-0.421875 -0.421875 -1.078125 -0.421875q-0.265625 0 -0.65625 0.109375l0.109375 -0.828125q0.09375 0.015625 0.140625 0.015625q0.59375 0 1.078125 -0.3125q0.484375 -0.3125 0.484375 -0.96875q0 -0.515625 -0.359375 -0.84375q-0.34375 -0.34375 -0.890625 -0.34375q-0.546875 0 -0.921875 0.34375q-0.359375 0.34375 -0.453125 1.03125l-0.9375 -0.171875q0.171875 -0.9375 0.78125 -1.453125q0.609375 -0.515625 1.5 -0.515625q0.625 0 1.15625 0.265625q0.53125 0.265625 0.796875 0.734375q0.28125 0.453125 0.28125 0.984375q0 0.484375 -0.265625 0.890625q-0.265625 0.40625 -0.78125 0.65625q0.671875 0.15625 1.046875 0.65625q0.375 0.484375 0.375 1.21875q0 1.0 -0.734375 1.703125q-0.71875 0.6875 -1.828125 0.6875q-1.0 0 -1.671875 -0.59375q-0.65625 -0.609375 -0.75 -1.5625zm5.910858 0.015625l0.984375 -0.078125q0.109375 0.71875 0.5 1.078125q0.40625 0.359375 0.96875 0.359375q0.671875 0 1.140625 -0.5q0.46875 -0.515625 0.46875 -1.359375q0 -0.796875 -0.453125 -1.265625q-0.4375 -0.46875 -1.171875 -0.46875q-0.453125 0 -0.8125 0.21875q-0.359375 0.203125 -0.578125 0.53125l-0.875 -0.125l0.734375 -3.921875l3.796875 0l0 0.90625l-3.046875 0l-0.40625 2.046875q0.6875 -0.484375 1.4375 -0.484375q1.0 0 1.6875 0.703125q0.6875 0.6875 0.6875 1.765625q0 1.046875 -0.609375 1.796875q-0.734375 0.921875 -2.0 0.921875q-1.03125 0 -1.703125 -0.578125q-0.65625 -0.578125 -0.75 -1.546875z" fill-rule="nonzero"/><path fill="#000000" fill-opacity="0.0" d="m552.0 60.800526l28.787415 0l0 28.787403l-28.787415 0z" fill-rule="evenodd"/><path fill="#000000" d="m560.92035 76.9186l0.9375 -0.125q0.15625 0.796875 0.546875 1.15625q0.390625 0.34375 0.9375 0.34375q0.65625 0 1.109375 -0.453125q0.46875 -0.46875 0.46875 -1.140625q0 -0.640625 -0.421875 -1.0625q-0.421875 -0.421875 -1.078125 -0.421875q-0.265625 0 -0.65625 0.109375l0.109375 -0.828125q0.09375 0.015625 0.140625 0.015625q0.59375 0 1.078125 -0.3125q0.484375 -0.3125 0.484375 -0.96875q0 -0.515625 -0.359375 -0.84375q-0.34375 -0.34375 -0.890625 -0.34375q-0.546875 0 -0.921875 0.34375q-0.359375 0.34375 -0.453125 1.03125l-0.9375 -0.171875q0.171875 -0.9375 0.78125 -1.453125q0.609375 -0.515625 1.5 -0.515625q0.625 0 1.15625 0.265625q0.53125 0.265625 0.796875 0.734375q0.28125 0.453125 0.28125 0.984375q0 0.484375 -0.265625 0.890625q-0.265625 0.40625 -0.78125 0.65625q0.671875 0.15625 1.046875 0.65625q0.375 0.484375 0.375 1.21875q0 1.0 -0.734375 1.703125q-0.71875 0.6875 -1.828125 0.6875q-1.0 0 -1.671875 -0.59375q-0.65625 -0.609375 -0.75 -1.5625zm5.9108276 -1.75q0 -1.34375 0.28125 -2.171875q0.28125 -0.828125 0.828125 -1.265625q0.546875 -0.453125 1.375 -0.453125q0.625 0 1.078125 0.25q0.46875 0.234375 0.765625 0.703125q0.3125 0.46875 0.484375 1.140625q0.171875 0.671875 0.171875 1.796875q0 1.34375 -0.28125 2.171875q-0.28125 0.828125 -0.828125 1.28125q-0.546875 0.4375 -1.390625 0.4375q-1.09375 0 -1.71875 -0.78125q-0.765625 -0.953125 -0.765625 -3.109375zm0.96875 0q0 1.875 0.4375 2.5q0.4375 0.625 1.078125 0.625q0.65625 0 1.09375 -0.625q0.4375 -0.625 0.4375 -2.5q0 -1.875 -0.4375 -2.5q-0.4375 -0.625 -1.09375 -0.625q-0.640625 0 -1.03125 0.546875q-0.484375 0.703125 -0.484375 2.578125z" fill-rule="nonzero"/></g></svg>