
<svg width="38" height="22" viewBox="0 0 38 22" fill="none" xmlns="http://www.w3.org/2000/svg">
<path fill-rule="evenodd" clip-rule="evenodd" d="M12.6676 2.21159L2.11839 13.2002L0.00854492 11.0024L10.5578 0.0138804L12.6676 2.21159Z" fill="#A8DAB5"/>
<path fill-rule="evenodd" clip-rule="evenodd" d="M8.44415 2.19735L14.7737 8.79049L16.8835 6.59277L10.554 -0.000363149L8.44415 2.19735Z" fill="#A8DAB5"/>
<path fill-rule="evenodd" clip-rule="evenodd" d="M25.3324 2.21159L35.8816 13.2002L37.9915 11.0024L27.4422 0.0138804L25.3324 2.21159Z" fill="#A8DAB5"/>
<path fill-rule="evenodd" clip-rule="evenodd" d="M27.4548 21.9998L21.1253 15.4067L23.2351 13.209L29.5647 19.8021L27.4548 21.9998Z" fill="#A8DAB5"/>
<path fill-rule="evenodd" clip-rule="evenodd" d="M38.0001 10.9934L29.5088 19.8383L27.3989 17.6406L35.8902 8.79572L38.0001 10.9934Z" fill="#A8DAB5"/>
<path fill-rule="evenodd" clip-rule="evenodd" d="M10.5493 21.9822L1.35582e-05 10.9936L2.10986 8.7959L12.6591 19.7845L10.5493 21.9822Z" fill="#1E8E3E"/>
<path fill-rule="evenodd" clip-rule="evenodd" d="M10.5625 21.991L19.0019 13.2002L16.8921 11.0024L8.45269 19.7933L10.5625 21.991Z" fill="#DDB98E"/>
<path fill-rule="evenodd" clip-rule="evenodd" d="M29.5558 2.21159L19.0066 13.2002L16.8967 11.0024L27.446 0.0138804L29.5558 2.21159Z" fill="#DDB98E"/>
<path fill-rule="evenodd" clip-rule="evenodd" d="M10.5625 21.991L19.0019 13.2002L16.8921 11.0024L8.45269 19.7933L10.5625 21.991Z" fill="#1E8E3E"/>
<path fill-rule="evenodd" clip-rule="evenodd" d="M29.5558 2.21159L19.0066 13.2002L16.8967 11.0024L27.446 0.0138804L29.5558 2.21159Z" fill="#1E8E3E"/>
</svg>
