<svg width="238" height="36" viewBox="0 0 238 36" fill="none" xmlns="http://www.w3.org/2000/svg">
    <path d="M54.5001 26.3499C53.4194 26.3768 52.3446 26.1822 51.3419 25.7781C50.3393 25.3739 49.43 24.7688 48.6701 23.9999C47.8956 23.2332 47.2866 22.3159 46.8806 21.3045C46.4747 20.2932 46.2805 19.2093 46.3101 18.1199C46.3101 15.7799 47.1001 13.8199 48.6701 12.2499C49.43 11.4811 50.3393 10.8759 51.3419 10.4718C52.3446 10.0676 53.4194 9.873 54.5001 9.89992C56.8701 9.89992 58.8001 10.7499 60.2801 12.4699L58.8801 13.8299C58.3592 13.175 57.6909 12.6525 56.9298 12.3049C56.1686 11.9574 55.3361 11.7946 54.5001 11.8299C53.6937 11.812 52.8919 11.9568 52.1428 12.2558C51.3937 12.5548 50.7125 13.0017 50.1401 13.5699C49.5504 14.1671 49.0899 14.8792 48.7871 15.662C48.4843 16.4447 48.3458 17.2814 48.3801 18.1199C48.3801 19.9999 48.9701 21.5199 50.1401 22.6799C50.7125 23.2481 51.3937 23.6951 52.1428 23.994C52.8919 24.293 53.6937 24.4378 54.5001 24.4199C56.3901 24.4199 58.0001 23.6499 59.3401 22.1199L60.7401 23.5399C60.0025 24.4168 59.0806 25.1202 58.0401 25.5999C56.9501 26.0999 55.7701 26.3499 54.5001 26.3499V26.3499ZM64.5701 10.2499V15.2199L64.4801 16.7199H64.5701C64.8701 16.1999 65.3201 15.7699 65.9501 15.4199C66.565 15.0574 67.2662 14.8674 67.9801 14.8699C69.3101 14.8699 70.3301 15.2699 71.0401 16.0999C71.7801 17.0354 72.1534 18.2088 72.09 19.3999V25.9999H70.0701V19.6999C70.0701 17.7099 69.1801 16.7199 67.4101 16.7199C66.5701 16.7199 65.8901 17.0499 65.3601 17.7199C64.8301 18.3899 64.5601 19.1599 64.5601 20.0399V25.9999H62.5401V10.2499H64.5701ZM76.4901 25.9999H74.4701V15.2199H76.4001V16.9799H76.5001C76.7001 16.3899 77.1201 15.9099 77.7501 15.5299C78.2472 15.2107 78.8139 15.0159 79.4022 14.962C79.9905 14.908 80.5831 14.9965 81.1301 15.2199L80.3601 17.1199C80.1001 17.0099 79.7401 16.9599 79.2901 16.9599C78.5501 16.9599 77.9001 17.2599 77.3301 17.8399C77.0462 18.1414 76.8256 18.4967 76.6813 18.8849C76.5371 19.2731 76.472 19.6862 76.4901 20.0999V25.9999V25.9999ZM82.7401 16.5199C83.2486 15.9785 83.8665 15.5514 84.5526 15.2669C85.2388 14.9825 85.9776 14.8471 86.7201 14.8699C88.3401 14.8699 89.6601 15.4199 90.7001 16.5199C91.2199 17.0634 91.6265 17.705 91.896 18.4072C92.1656 19.1093 92.2927 19.8581 92.2701 20.6099C92.2701 22.2499 91.7501 23.6199 90.7001 24.7199C90.1881 25.2556 89.5692 25.6775 88.8835 25.9583C88.1978 26.2392 87.4607 26.3726 86.7201 26.3499C85.9794 26.3727 85.2423 26.2393 84.5566 25.9585C83.8709 25.6777 83.2519 25.2557 82.7401 24.7199C81.6962 23.6106 81.1351 22.1325 81.1801 20.6099C81.1801 18.9699 81.7001 17.6099 82.7401 16.5099V16.5199ZM84.2401 23.4499C84.5579 23.7874 84.9415 24.0563 85.3671 24.2401C85.7927 24.4239 86.2514 24.5187 86.715 24.5187C87.1787 24.5187 87.6374 24.4239 88.063 24.2401C88.4886 24.0563 88.8722 23.7874 89.1901 23.4499C89.5465 23.0711 89.8231 22.6245 90.0035 22.1366C90.1839 21.6487 90.2643 21.1295 90.2401 20.6099C90.2662 20.0931 90.1866 19.5765 90.0061 19.0916C89.8255 18.6066 89.5478 18.1637 89.1901 17.7899C88.8745 17.4485 88.4917 17.176 88.0658 16.9897C87.6399 16.8033 87.18 16.7071 86.715 16.7071C86.2501 16.7071 85.7902 16.8033 85.3643 16.9897C84.9384 17.176 84.5556 17.4485 84.2401 17.7899C83.8865 18.1662 83.6122 18.6098 83.4335 19.0942C83.2548 19.5787 83.1754 20.0941 83.2001 20.6099C83.2001 21.7799 83.5501 22.7299 84.2401 23.4499ZM93.8901 25.9999V15.2199H95.8301V16.7199H95.9101C96.2201 16.1999 96.6901 15.7699 97.3201 15.4199C97.9007 15.0713 98.5629 14.8816 99.2401 14.8699C100.91 14.8699 102.04 15.5599 102.64 16.9399C103.024 16.2875 103.577 15.7508 104.24 15.3865C104.904 15.0221 105.654 14.8437 106.41 14.8699C107.68 14.8699 108.64 15.2699 109.29 16.0999C109.94 16.8999 110.26 17.9999 110.26 19.3999V25.9999H108.23V19.6999C108.23 18.6199 108.03 17.8499 107.64 17.3999C107.24 16.9399 106.64 16.7199 105.84 16.7199C105.04 16.7199 104.38 17.0499 103.86 17.7199C103.349 18.3844 103.078 19.2019 103.09 20.0399V25.9999H101.06V19.6999C101.06 18.6199 100.86 17.8499 100.46 17.3999C100.07 16.9399 99.4701 16.7199 98.6601 16.7199C97.8701 16.7199 97.2101 17.0499 96.6801 17.7199C96.1694 18.3844 95.8981 19.2019 95.9101 20.0399V25.9999H93.8901ZM117.51 26.3499C116.769 26.3759 116.031 26.244 115.345 25.963C114.659 25.6819 114.04 25.2582 113.53 24.7199C112.505 23.6014 111.96 22.126 112.01 20.6099C112.01 19.0399 112.5 17.6899 113.48 16.5599C114.48 15.4299 115.75 14.8599 117.28 14.8599C118.88 14.8599 120.16 15.3899 121.12 16.4299C122.127 17.5825 122.647 19.0813 122.57 20.6099L122.55 20.9799H114.03C114.036 21.9486 114.424 22.8758 115.11 23.5599C115.78 24.1899 116.57 24.4999 117.47 24.4999C118.92 24.4999 119.9 23.8899 120.41 22.6599L122.21 23.3999C121.846 24.2564 121.246 24.9917 120.48 25.5199C119.68 26.0699 118.68 26.3499 117.51 26.3499ZM120.41 19.3099C120.343 18.6414 120.042 18.0181 119.56 17.5499C119.04 16.9899 118.27 16.7199 117.25 16.7199C116.5 16.7199 115.85 16.9499 115.29 17.4199C114.74 17.8899 114.37 18.5199 114.16 19.3199H120.41V19.3099V19.3099ZM129.61 25.9999V10.2499H134.42C136.84 10.2499 138.78 10.9799 140.23 12.4499C140.96 13.1972 141.529 14.0854 141.904 15.0603C142.279 16.0352 142.451 17.0763 142.41 18.1199C142.41 20.4599 141.68 22.3599 140.23 23.8199C138.78 25.2699 136.84 25.9999 134.43 25.9999H129.6H129.61V25.9999ZM131.63 24.0599H134.43C136.24 24.0599 137.68 23.5399 138.73 22.4999C139.81 21.4599 140.34 19.9999 140.34 18.1199C140.34 16.2599 139.81 14.8099 138.74 13.7699C138.166 13.2256 137.486 12.8038 136.744 12.5305C136.001 12.2571 135.21 12.1379 134.42 12.1799H131.62V24.0599H131.63V24.0599ZM149.03 26.3599C148.287 26.3853 147.546 26.2521 146.859 25.9694C146.171 25.6866 145.551 25.2607 145.04 24.7199C144.019 23.5998 143.477 22.1246 143.53 20.6099C143.53 19.0399 144.02 17.6899 145 16.5599C146 15.4299 147.27 14.8599 148.8 14.8599C150.4 14.8599 151.68 15.3899 152.63 16.4299C153.641 17.5809 154.164 19.0799 154.09 20.6099L154.06 20.9799H145.55C145.556 21.9486 145.944 22.8758 146.63 23.5599C147.3 24.1899 148.09 24.4999 148.98 24.4999C150.43 24.4999 151.42 23.8899 151.93 22.6599L153.73 23.3999C153.366 24.2564 152.766 24.9917 152 25.5199C151.19 26.0699 150.2 26.3499 149.03 26.3499V26.3599V26.3599ZM151.93 19.3099C151.86 18.6401 151.556 18.0165 151.07 17.5499C150.56 16.9899 149.79 16.7199 148.77 16.7199C148.01 16.7199 147.37 16.9499 146.8 17.4199C146.26 17.8899 145.89 18.5199 145.68 19.3199H151.93V19.3099V19.3099ZM158.93 25.9999L154.58 15.2199H156.78L159.95 23.5799H159.99L163.2 15.2199H165.36L160.96 25.9999H158.93V25.9999ZM171.24 26.3499C170.499 26.3752 169.761 26.243 169.075 25.9621C168.389 25.6811 167.77 25.2577 167.26 24.7199C166.235 23.6014 165.69 22.126 165.74 20.6099C165.74 19.0399 166.24 17.6899 167.21 16.5599C168.21 15.4299 169.48 14.8599 171.02 14.8599C172.62 14.8599 173.9 15.3899 174.85 16.4299C175.857 17.5825 176.377 19.0813 176.3 20.6099L176.28 20.9799H167.76C167.766 21.9486 168.154 22.8758 168.84 23.5599C169.52 24.1899 170.3 24.4999 171.2 24.4999C172.65 24.4999 173.63 23.8899 174.15 22.6599L175.95 23.3999C175.584 24.2579 174.98 24.9934 174.21 25.5199C173.41 26.0699 172.41 26.3499 171.24 26.3499V26.3499ZM174.14 19.3099C174.073 18.6414 173.772 18.0181 173.29 17.5499C172.77 16.9899 172 16.7199 170.98 16.7199C170.23 16.7199 169.58 16.9499 169.02 17.4199C168.48 17.8899 168.1 18.5199 167.9 19.3199H174.15L174.14 19.3099V19.3099ZM180.18 25.9999H178.15V10.2499H180.18V25.9999V25.9999ZM183.48 16.5199C183.989 15.9785 184.606 15.5513 185.293 15.2668C185.979 14.9824 186.718 14.8471 187.46 14.8699C189.08 14.8699 190.4 15.4199 191.44 16.5199C191.96 17.0637 192.366 17.7052 192.635 18.4074C192.905 19.1095 193.032 19.8582 193.01 20.6099C193.01 22.2499 192.49 23.6199 191.45 24.7199C190.937 25.2567 190.316 25.6794 189.629 25.9602C188.941 26.2411 188.202 26.3739 187.46 26.3499C186.719 26.373 185.982 26.2398 185.296 25.959C184.611 25.6781 183.992 25.2559 183.48 24.7199C182.436 23.6106 181.875 22.1325 181.92 20.6099C181.92 18.9699 182.44 17.6099 183.48 16.5099V16.5199V16.5199ZM184.98 23.4499C185.3 23.7848 185.685 24.0507 186.112 24.2313C186.538 24.4118 186.997 24.5033 187.46 24.4999C188.42 24.4999 189.24 24.1499 189.93 23.4499C190.287 23.0711 190.563 22.6245 190.744 22.1366C190.924 21.6487 191.004 21.1295 190.98 20.6099C191.006 20.0931 190.927 19.5764 190.746 19.0914C190.566 18.6065 190.288 18.1636 189.93 17.7899C189.454 17.2758 188.83 16.9226 188.145 16.7792C187.459 16.6359 186.746 16.7095 186.104 16.9899C185.678 17.1763 185.296 17.4487 184.98 17.7899C184.626 18.1662 184.352 18.6098 184.174 19.0942C183.995 19.5787 183.915 20.0941 183.94 20.6099C183.94 21.7799 184.29 22.7299 184.98 23.4499ZM200.35 26.3499C199.53 26.3499 198.79 26.1799 198.13 25.8199C197.535 25.5172 197.031 25.0617 196.67 24.4999H196.59L196.67 25.9999V30.7499H194.65V15.2199H196.59V16.7199H196.67C197 16.1899 197.48 15.7499 198.13 15.3999C198.79 15.0399 199.53 14.8699 200.35 14.8699C201.75 14.8699 202.95 15.4199 203.95 16.5199C204.968 17.6345 205.513 19.101 205.47 20.6099C205.47 22.2399 204.97 23.6099 203.96 24.7099C203.512 25.2275 202.958 25.6421 202.335 25.9252C201.711 26.2082 201.034 26.3531 200.35 26.3499V26.3499ZM200.02 24.4999C200.96 24.4999 201.76 24.1499 202.44 23.4499C203.136 22.6723 203.499 21.6524 203.45 20.6099C203.476 20.0965 203.4 19.5831 203.226 19.0992C203.053 18.6152 202.786 18.1703 202.44 17.7899C202.136 17.4496 201.763 17.1781 201.346 16.9936C200.928 16.8091 200.476 16.7158 200.02 16.7199C199.06 16.7199 198.25 17.0699 197.58 17.7699C196.92 18.4699 196.58 19.4199 196.58 20.6099C196.58 21.7999 196.92 22.7399 197.58 23.4499C198.25 24.1499 199.06 24.4999 200.02 24.4999ZM212.22 26.3499C211.477 26.3773 210.737 26.2461 210.049 25.965C209.361 25.684 208.741 25.2595 208.23 24.7199C207.205 23.6014 206.66 22.126 206.71 20.6099C206.71 19.0399 207.21 17.6899 208.19 16.5599C209.19 15.4299 210.45 14.8599 211.99 14.8599C213.59 14.8599 214.87 15.3899 215.82 16.4299C216.827 17.5825 217.347 19.0813 217.27 20.6099L217.25 20.9799H208.74C208.744 21.9471 209.128 22.8739 209.81 23.5599C210.49 24.1899 211.27 24.4999 212.17 24.4999C213.62 24.4999 214.6 23.8899 215.12 22.6599L216.92 23.3999C216.554 24.2579 215.95 24.9934 215.18 25.5199C214.38 26.0699 213.38 26.3499 212.21 26.3499H212.22V26.3499ZM215.12 19.3099C215.05 18.6401 214.746 18.0165 214.26 17.5499C213.74 16.9899 212.97 16.7199 211.95 16.7199C211.2 16.7199 210.55 16.9499 209.99 17.4199C209.45 17.8899 209.07 18.5199 208.87 19.3199H215.12V19.3099V19.3099ZM221.15 25.9999H219.12V15.2199H221.06V16.9799H221.15C221.35 16.3899 221.77 15.9099 222.4 15.5299C222.898 15.2083 223.467 15.0121 224.057 14.9581C224.647 14.9041 225.242 14.9939 225.79 15.2199L225.02 17.1199C224.75 17.0099 224.39 16.9599 223.94 16.9599C223.21 16.9599 222.56 17.2599 221.98 17.8399C221.698 18.142 221.479 18.4976 221.336 18.8858C221.193 19.274 221.13 19.6868 221.15 20.0999V25.9999V25.9999ZM230.69 26.3499C229.49 26.3499 228.49 26.0499 227.69 25.4699C226.936 24.9025 226.349 24.1426 225.99 23.2699L227.79 22.5199C228.36 23.8699 229.33 24.5499 230.71 24.5499C231.34 24.5499 231.85 24.4099 232.25 24.1299C232.66 23.8499 232.87 23.4799 232.87 23.0299C232.87 22.3299 232.37 21.8499 231.39 21.5999L229.22 21.0699C228.504 20.8812 227.837 20.5439 227.26 20.0799C226.959 19.8426 226.718 19.538 226.557 19.1906C226.395 18.8433 226.318 18.4628 226.33 18.0799C226.33 17.1299 226.75 16.3599 227.59 15.7699C228.44 15.1699 229.44 14.8699 230.6 14.8699C231.55 14.8699 232.4 15.0899 233.15 15.5299C233.883 15.9409 234.449 16.5954 234.75 17.3799L233 18.0999C232.6 17.1499 231.78 16.6699 230.53 16.6699C229.93 16.6699 229.43 16.7999 229.02 17.0499C228.61 17.2999 228.4 17.6299 228.4 18.0499C228.4 18.6699 228.88 19.0899 229.83 19.3099L231.96 19.8099C232.98 20.0499 233.72 20.4599 234.21 21.0299C234.479 21.3406 234.682 21.7032 234.805 22.0954C234.928 22.4876 234.97 22.9009 234.927 23.3098C234.884 23.7186 234.757 24.1142 234.554 24.4721C234.352 24.8299 234.078 25.1423 233.75 25.3899C232.95 26.0299 231.94 26.3499 230.69 26.3499Z" fill="#5F6368"/>
    <mask id="mask0_636_18464" style="mask-type:alpha" maskUnits="userSpaceOnUse" x="2" y="2" width="33" height="32">
    <path d="M18.5 34C27.337 34 34.5 26.837 34.5 18C34.5 9.163 27.337 2 18.5 2C9.663 2 2.5 9.163 2.5 18C2.5 26.837 9.663 34 18.5 34Z" fill="#C4C4C4"/>
    </mask>
    <g mask="url(#mask0_636_18464)">
    <path d="M2.5 2V21.636H12.202L18.5 10.727H34.5V2H2.5Z" fill="#DB4437"/>
    <path d="M2.5 34.0001H17.73L24.8 26.9301V21.6361H12.202L2.5 4.99609V34.0001Z" fill="#0F9D58"/>
    <path d="M2.5 34.0001H17.73L24.8 26.9301V21.6361H12.202L2.5 4.99609V34.0001Z" fill="url(#paint0_linear_636_18464)"/>
    <path d="M18.5 10.7266L24.8 21.6366L17.73 33.9996H34.5V10.7266H18.5Z" fill="#FFCD40"/>
    <path d="M18.5 10.7266L24.8 21.6366L17.73 33.9996H34.5V10.7266H18.5Z" fill="url(#paint1_linear_636_18464)"/>
    <path d="M12.3741 21.5733L5.1331 9.15332L5.0271 9.33532L12.2171 21.6623L12.3741 21.5723V21.5733Z" fill="#3E2723" fill-opacity="0.15"/>
    <path d="M24.653 21.878L24.502 21.791L17.522 34H17.731L24.658 21.884L24.653 21.878Z" fill="#263238" fill-opacity="0.15"/>
    <path d="M5.04004 9.35352L15.449 19.7615L12.202 21.6355L5.04004 9.35352Z" fill="url(#paint2_radial_636_18464)"/>
    <path d="M17.7419 33.9797L21.5519 19.7617L24.7999 21.6357L17.7419 33.9797Z" fill="url(#paint3_radial_636_18464)"/>
    <path d="M18.5 10.7266V14.5366L32.755 10.7266H18.5Z" fill="url(#paint4_radial_636_18464)"/>
    <path d="M18.5001 25.2726C20.429 25.2726 22.2789 24.5063 23.6428 23.1424C25.0068 21.7784 25.7731 19.9285 25.7731 17.9996C25.7731 16.0706 25.0068 14.2207 23.6428 12.8568C22.2789 11.4928 20.429 10.7266 18.5001 10.7266C16.5711 10.7266 14.7212 11.4928 13.3573 12.8568C11.9933 14.2207 11.2271 16.0706 11.2271 17.9996C11.2271 19.9285 11.9933 21.7784 13.3573 23.1424C14.7212 24.5063 16.5711 25.2726 18.5001 25.2726V25.2726Z" fill="#F1F1F1"/>
    <path d="M18.4999 23.8176C20.0429 23.8176 21.5227 23.2047 22.6138 22.1136C23.7049 21.0225 24.3179 19.5427 24.3179 17.9996C24.3179 16.4566 23.7049 14.9768 22.6138 13.8857C21.5227 12.7946 20.0429 12.1816 18.4999 12.1816C16.9569 12.1816 15.477 12.7946 14.3859 13.8857C13.2949 14.9768 12.6819 16.4566 12.6819 17.9996C12.6819 19.5427 13.2949 21.0225 14.3859 22.1136C15.477 23.2047 16.9569 23.8176 18.4999 23.8176V23.8176Z" fill="#4285F4"/>
    <path d="M18.5001 10.5459C16.5713 10.5459 14.7215 11.312 13.3576 12.6758C11.9937 14.0395 11.2273 15.8892 11.2271 17.8179V17.9999C11.2271 16.071 11.9933 14.2211 13.3573 12.8571C14.7212 11.4932 16.5711 10.7269 18.5001 10.7269H34.5V10.5459H18.5001V10.5459Z" fill="#3E2723" fill-opacity="0.2"/>
    <path d="M24.79 21.6361C24.153 22.741 23.2364 23.6588 22.1322 24.2973C21.0281 24.9357 19.7754 25.2722 18.5 25.2731C17.2241 25.2728 15.9707 24.9365 14.866 24.298C13.7614 23.6596 12.8443 22.7415 12.207 21.6361H12.2L2.5 4.99609V5.17809L12.202 21.8181H12.209C12.8464 22.9233 13.7635 23.8412 14.8682 24.4795C15.9729 25.1177 17.2262 25.4539 18.502 25.4541C19.7774 25.4537 21.0302 25.1175 22.1344 24.4792C23.2386 23.841 24.1552 22.9231 24.792 21.8181H24.802V21.6361H24.791H24.79Z" fill="white" fill-opacity="0.1"/>
    <path opacity="0.1" d="M18.6821 10.7266C18.6511 10.7266 18.6221 10.7306 18.5911 10.7326C20.5034 10.7557 22.3296 11.5315 23.6739 12.8917C25.0182 14.2519 25.7724 16.0871 25.7731 17.9996C25.7724 19.912 25.0182 21.7472 23.6739 23.1074C22.3296 24.4677 20.5034 25.2434 18.5911 25.2666C18.6211 25.2666 18.6511 25.2726 18.6811 25.2726C20.61 25.2726 22.4599 24.5063 23.8239 23.1424C25.1878 21.7784 25.9541 19.9285 25.9541 17.9996C25.9541 16.0706 25.1878 14.2207 23.8239 12.8568C22.4599 11.4928 20.61 10.7266 18.6811 10.7266H18.6821Z" fill="#3E2723"/>
    <path d="M24.864 21.8778C25.3698 21.0043 25.6876 20.0348 25.7971 19.0314C25.9066 18.028 25.8054 17.0128 25.5 16.0508C25.673 16.6728 25.773 17.3258 25.773 18.0008C25.773 19.3258 25.415 20.5608 24.796 21.6308L24.8 21.6378L17.73 34.0018H17.942L24.867 21.8848L24.864 21.8778V21.8778Z" fill="white" fill-opacity="0.2"/>
    <path d="M18.5 2.182C27.305 2.182 34.45 9.296 34.498 18.091L34.5 18C34.5 9.164 27.336 2 18.5 2C9.664 2 2.5 9.164 2.5 18L2.502 18.09C2.55 9.297 9.694 2.183 18.5 2.183V2.182Z" fill="white" fill-opacity="0.2"/>
    <path d="M18.5 33.8182C27.305 33.8182 34.45 26.7042 34.498 17.9092L34.5 18.0002C34.5 26.8362 27.336 34.0002 18.5 34.0002C9.664 34.0002 2.5 26.8362 2.5 18.0002L2.502 17.9102C2.55 26.7032 9.694 33.8172 18.5 33.8172V33.8182Z" fill="#3E2723" fill-opacity="0.15"/>
    <path d="M18.5 34C27.337 34 34.5 26.837 34.5 18C34.5 9.163 27.337 2 18.5 2C9.663 2 2.5 9.163 2.5 18C2.5 26.837 9.663 34 18.5 34Z" fill="url(#paint5_radial_636_18464)"/>
    </g>
    <defs>
    <linearGradient id="paint0_linear_636_18464" x1="21.204" y1="30.4541" x2="10.598" y2="24.2421" gradientUnits="userSpaceOnUse">
    <stop stop-color="#055524" stop-opacity="0.4"/>
    <stop offset="0.33" stop-color="#055524" stop-opacity="0"/>
    </linearGradient>
    <linearGradient id="paint1_linear_636_18464" x1="23.201" y1="9.60056" x2="25.872" y2="21.2956" gradientUnits="userSpaceOnUse">
    <stop stop-color="#EA6100" stop-opacity="0.3"/>
    <stop offset="0.66" stop-color="#EA6100" stop-opacity="0"/>
    </linearGradient>
    <radialGradient id="paint2_radial_636_18464" cx="0" cy="0" r="1" gradientUnits="userSpaceOnUse" gradientTransform="translate(5.02304 9.36652) scale(14.1898)">
    <stop stop-color="#3E2723" stop-opacity="0.2"/>
    <stop offset="1" stop-color="#3E2723" stop-opacity="0"/>
    </radialGradient>
    <radialGradient id="paint3_radial_636_18464" cx="0" cy="0" r="1" gradientUnits="userSpaceOnUse" gradientTransform="translate(18.4719 18.0247) scale(15.9764 15.9764)">
    <stop stop-color="#263238" stop-opacity="0.2"/>
    <stop offset="1" stop-color="#263238" stop-opacity="0"/>
    </radialGradient>
    <radialGradient id="paint4_radial_636_18464" cx="0" cy="0" r="1" gradientUnits="userSpaceOnUse" gradientTransform="translate(17.805 10.7176) scale(15.2869 15.2869)">
    <stop stop-color="#3E2723" stop-opacity="0.2"/>
    <stop offset="1" stop-color="#3E2723" stop-opacity="0"/>
    </radialGradient>
    <radialGradient id="paint5_radial_636_18464" cx="0" cy="0" r="1" gradientUnits="userSpaceOnUse" gradientTransform="translate(7.28 6.366) scale(32.1356)">
    <stop stop-color="white" stop-opacity="0.1"/>
    <stop offset="1" stop-color="white" stop-opacity="0"/>
    </radialGradient>
    </defs>
</svg>
