<svg width="24" height="24" viewBox="0 0 24 24" fill="none" xmlns="http://www.w3.org/2000/svg">
<path d="M12.0002 0.000198896C8.03654 0.000198896 4.52717 1.9163 2.34307 4.87283L6.04945 11.2927C6.22181 9.848 6.91291 8.51514 7.99463 7.54208C9.07636 6.56901 10.4747 6.0223 11.9296 6.00331C11.9529 6.00073 11.9767 5.99962 12.0005 5.99981L22.3939 5.99981C20.3207 2.41237 16.4471 0.000198896 12.0002 0.000198896ZM1.60671 5.99906C0.586498 7.76412 0 9.81226 0 12.0003C0 18.1811 4.65658 23.2593 10.6575 23.9249L14.3581 17.5155C13.6129 17.8346 12.8109 17.9998 12.0001 18.0003C9.89088 17.9976 7.93796 16.8875 6.85643 15.0765C6.83691 15.0526 6.81923 15.027 6.80376 15.0003L1.60671 5.99906ZM12.0002 7.20025C10.7271 7.20025 9.50625 7.70609 8.60612 8.60622C7.70598 9.50636 7.20033 10.7273 7.20033 12.0003C7.20033 13.2733 7.70603 14.4942 8.60612 15.3943C9.50621 16.2945 10.7271 16.8001 12.0002 16.8001C13.2732 16.8001 14.4941 16.2944 15.3942 15.3943C16.2944 14.4943 16.8 13.2733 16.8 12.0003C16.8 10.7273 16.2943 9.50636 15.3942 8.60622C14.4941 7.70609 13.2732 7.20025 12.0002 7.20025ZM15.5902 7.20025C17.1048 8.33129 17.9977 10.11 18.0001 12.0003C17.9977 13.0181 17.7364 14.0185 17.2409 14.9076C17.2289 14.9397 17.2142 14.9706 17.1969 15.0003L12.0009 24.0002C18.6352 23.9998 24 18.6345 24 12.0001C24 10.2923 23.6427 8.66976 23.0015 7.2001L15.5902 7.20025Z" fill="white"/>
</svg>
