<svg width="20" height="20" viewBox="0 0 20 20" fill="currentColor" xmlns="http://www.w3.org/2000/svg">
<path d="M10.0001 0.000165745C6.69712 0.000165745 3.77264 1.5969 1.95256 4.06066L5.04121 9.41048C5.18484 8.20659 5.76075 7.09589 6.6622 6.28501C7.56364 5.47413 8.72896 5.01854 9.9413 5.00271C9.96079 5.00056 9.98058 4.99964 10.0004 4.99979H18.6616C16.934 2.01029 13.7059 0.000165745 10.0001 0.000165745ZM1.33892 4.99917C0.488748 6.47004 0 8.17681 0 10.0001C0 15.1508 3.88048 19.3826 8.88123 19.9373L11.9651 14.5961C11.3441 14.862 10.6758 14.9997 10.0001 15.0001C8.2424 14.9978 6.61497 14.0728 5.71369 12.5637C5.69742 12.5437 5.68269 12.5224 5.6698 12.5001L1.33892 4.99917ZM10.0001 6.00015C8.93929 6.00015 7.92188 6.42168 7.17176 7.17179C6.42165 7.9219 6.00028 8.93929 6.00028 10.0001C6.00028 11.061 6.42169 12.0784 7.17176 12.8285C7.92184 13.5786 8.93929 14 10.0001 14C11.061 14 12.0784 13.5786 12.8285 12.8285C13.5786 12.0784 14 11.061 14 10.0001C14 8.93929 13.5786 7.9219 12.8285 7.17179C12.0785 6.42168 11.061 6.00015 10.0001 6.00015ZM12.9918 6.00015C14.254 6.94268 14.9981 8.42494 15.0001 10.0001C14.9981 10.8483 14.7804 11.682 14.3674 12.4229C14.3574 12.4496 14.3452 12.4754 14.3307 12.5001L10.0007 20C15.5293 19.9997 20 15.5286 20 10C20 8.57684 19.7023 7.22474 19.1679 6.00003L12.9918 6.00015Z" />
</svg>
