<svg width="24" height="20" viewBox="0 0 24 20" fill="currentColor" xmlns="http://www.w3.org/2000/svg">
<path fill-rule="evenodd" clip-rule="evenodd" d="M10.9684 18.1769L10.9716 18.1843L10.9642 18.1839L10.9684 18.1769ZM10.9716 18.1843C11.1189 18.5178 11.1827 18.8823 11.1575 19.2461C10.9165 19.3047 10.6691 19.3326 10.4211 19.3294C9.74093 19.4503 9.04286 19.4256 8.37295 19.2569C7.0258 18.9713 6.40323 17.5335 6.40323 17.5335C6.40323 17.5335 6.41607 17.5207 6.4421 17.4988C6.40057 17.4861 6.3568 17.4823 6.3137 17.4877C5.65974 17.6145 4.99327 17.6649 4.32767 17.638C3.66485 17.638 1.04307 16.642 0.198067 15.5749C0.198067 15.5749 1.50982 15.2546 1.50982 14.9836C1.50982 14.7126 0.0110196 14.2122 0.0110196 14.2122C0.0110196 14.2122 -0.215935 12.9629 1.3901 11.716C2.22362 11.0164 3.16768 10.4603 4.18366 10.0704C3.34941 9.95936 0.99102 9.02031 0.197719 8.01844C0.197719 8.01844 1.50948 7.69814 1.50948 7.42711C1.50948 7.15608 0.0110196 6.65671 0.0110196 6.65671C0.0110196 6.65671 -0.215935 5.40742 1.3901 4.16056C2.99614 2.91369 4.19823 2.32132 5.54886 2.25192L7.35235 2.18251C7.35235 2.18251 8.52807 0.595215 9.14578 0.595215C9.4581 0.595215 13.9788 1.55648 14.3706 2.18286C14.5414 2.50792 14.8174 2.76545 15.1535 2.91335C15.2627 2.99511 15.2749 2.99667 15.4107 3.01401C15.5238 3.02846 15.7229 3.05388 16.1356 3.14585C17.2846 3.40229 17.7728 3.58005 18.1929 3.73304C18.6029 3.88232 18.9481 4.00802 19.7793 4.16021C20.1538 4.22875 21.2644 3.79694 22.2394 3.41782C23.0415 3.10592 23.7519 2.82968 23.8854 2.89704C24.0228 2.96644 24.1307 4.28514 23.5938 5.15617C23.3219 5.59742 23.4361 5.99788 23.5585 6.4272C23.6777 6.84538 23.8048 7.29095 23.5904 7.82827C23.324 8.49591 23.5714 9.05528 23.7562 9.47287C23.8727 9.73641 23.9643 9.94349 23.886 10.0857C23.777 10.2837 22.762 9.919 21.7581 9.55825C20.8992 9.24959 20.0484 8.94385 19.78 8.99601C19.6288 9.02555 19.3966 9.10518 19.0725 9.21636C18.281 9.48784 16.941 9.94745 14.8918 10.3251C14.9809 10.3698 15.0675 10.4191 15.1514 10.473C15.2606 10.5547 15.2727 10.5563 15.4085 10.5736C15.5217 10.5881 15.7207 10.6135 16.1335 10.7055C17.2825 10.9619 17.7707 11.1397 18.1908 11.2926C18.6008 11.4419 18.946 11.5676 19.7773 11.7198C20.1518 11.7884 21.2623 11.3565 22.2373 10.9774C23.0394 10.6655 23.7498 10.3893 23.8833 10.4566C24.0207 10.5261 24.1286 11.8447 23.5918 12.7158C23.3198 13.157 23.434 13.5575 23.5564 13.9868C23.6756 14.405 23.8027 14.8506 23.5883 15.3879C23.3219 16.0555 23.5694 16.6149 23.7541 17.0325C23.8706 17.296 23.9622 17.5031 23.884 17.6453C23.7749 17.8433 22.76 17.4786 21.7561 17.1179C20.8971 16.8092 20.0463 16.5035 19.778 16.5556C19.6265 16.5851 19.3941 16.665 19.0696 16.7766C18.1471 17.0937 16.4804 17.6668 13.8147 18.0634C12.8732 18.1962 11.921 18.2367 10.9716 18.1843ZM7.21958 11.8527L7.24387 11.8944L7.31328 12.0203L7.52635 12.4611C7.6376 12.7099 7.72352 12.9692 7.7828 13.2353C7.81094 13.364 7.82594 13.4953 7.82757 13.6271C7.81877 13.9935 7.75032 14.356 7.6249 14.7004L7.48366 15.0613L7.43786 15.1606L7.42259 15.1953C7.39167 15.2544 7.38371 15.3229 7.40024 15.3875C7.41677 15.4521 7.45662 15.5084 7.51212 15.5454C7.53919 15.5618 7.56941 15.5722 7.60079 15.5761C7.63218 15.58 7.66403 15.5773 7.69428 15.568C7.72453 15.5588 7.7525 15.5433 7.77636 15.5225C7.80022 15.5018 7.81944 15.4762 7.83277 15.4476L7.90773 15.2879L8.06597 14.8836C8.21182 14.4812 8.29049 14.0575 8.29883 13.6295C8.29738 13.4588 8.27843 13.2886 8.24226 13.1218C8.17557 12.8192 8.07837 12.5241 7.95215 12.241L7.71964 11.7615L7.61137 11.5692C7.59603 11.5416 7.57501 11.5176 7.5497 11.4987C7.5244 11.4798 7.49538 11.4665 7.46456 11.4597C7.43374 11.4528 7.40182 11.4526 7.3709 11.4589C7.33998 11.4653 7.31076 11.4782 7.28517 11.4967C7.2322 11.5375 7.19612 11.5964 7.18383 11.6622C7.17154 11.7279 7.1839 11.7959 7.21854 11.8531L7.21958 11.8527ZM7.24343 4.25113L7.21914 4.20879L7.21879 4.21226C7.18402 4.15506 7.17155 4.08704 7.18378 4.02123C7.19601 3.95541 7.23207 3.89641 7.28507 3.85552C7.31066 3.83703 7.33988 3.82417 7.3708 3.81779C7.40173 3.81141 7.43365 3.81165 7.46447 3.81851C7.49529 3.82536 7.52431 3.83866 7.54961 3.85754C7.57491 3.87643 7.59593 3.90045 7.61128 3.92805L7.71955 4.1203L7.95206 4.59989C8.07828 4.88291 8.17548 5.17801 8.24217 5.48064C8.27808 5.64683 8.29692 5.81624 8.29839 5.98626C8.29005 6.41425 8.21139 6.83795 8.06553 7.24041L7.90729 7.64469L7.83233 7.80432C7.819 7.833 7.79978 7.85855 7.77592 7.87931C7.75206 7.90007 7.72409 7.91557 7.69384 7.9248C7.66359 7.93403 7.63174 7.93679 7.60035 7.93289C7.56897 7.929 7.53875 7.91853 7.51168 7.90219C7.45618 7.86516 7.41633 7.80891 7.3998 7.74427C7.38327 7.67963 7.39123 7.61116 7.42215 7.55204L7.43742 7.51733L7.48322 7.41809L7.62446 7.05718C7.74988 6.71278 7.81833 6.35025 7.82713 5.98383C7.8255 5.85205 7.8105 5.72078 7.78236 5.59204C7.72308 5.32601 7.63716 5.06663 7.52591 4.81782L7.31284 4.3771L7.24343 4.25113ZM9.30864 4.11439L10.5121 4.17859L10.8959 4.20045L11.7552 4.25389C12.8022 4.34609 13.8434 4.49624 14.8739 4.70364C16.5028 5.05492 18.0843 5.59834 19.5851 6.32251L20.2604 6.62304C20.2926 6.63625 20.3273 6.64252 20.3621 6.64145C20.3969 6.64039 20.4311 6.632 20.4625 6.61685C20.4938 6.60169 20.5217 6.5801 20.5441 6.55349C20.5666 6.52687 20.5832 6.49582 20.5929 6.46237C20.619 6.39354 20.6188 6.3175 20.5924 6.2488C20.5659 6.1801 20.5151 6.12356 20.4496 6.09001L19.7732 5.78914C18.241 5.05043 16.6264 4.4964 14.9634 4.13868C13.9137 3.92742 12.8531 3.77473 11.7864 3.6813L10.9223 3.62751L10.5371 3.60565L9.33189 3.54145L8.78359 3.51369C8.73559 3.51605 8.68896 3.53048 8.64803 3.55565C8.60709 3.58081 8.57316 3.6159 8.54939 3.65767C8.52562 3.69943 8.51277 3.74652 8.51204 3.79457C8.5113 3.84262 8.5227 3.89007 8.54518 3.93255L8.566 3.98009L8.62569 4.12064L8.80892 4.6089C8.89742 4.86534 8.96746 5.12779 9.01852 5.39422L9.05323 5.659C9.05866 6.06308 9.00821 6.46597 8.90331 6.85624L8.75687 7.44688L8.54518 8.17806L8.47577 8.39808L8.45634 8.45707L8.4494 8.47685C8.4244 8.54601 8.42584 8.62196 8.45345 8.69012C8.48106 8.75828 8.53288 8.81383 8.59897 8.84609C8.63151 8.85861 8.66633 8.86416 8.70115 8.86237C8.73598 8.86057 8.77004 8.85148 8.80112 8.83567C8.83221 8.81987 8.85962 8.79771 8.88159 8.77063C8.90356 8.74355 8.91959 8.71215 8.92864 8.67847L8.93628 8.65592L8.9571 8.59345L9.02928 8.3658L9.24791 7.61171L9.4006 6.9954C9.52332 6.53883 9.57793 6.06664 9.56266 5.59411C9.55248 5.49231 9.53744 5.38705 9.51755 5.27831C9.46106 4.98197 9.38336 4.69006 9.28504 4.40485L9.17815 4.10641L9.30864 4.11439ZM10.5118 11.8222L9.30829 11.758L9.17815 11.7507L9.28504 12.0491C9.38335 12.3344 9.46106 12.6263 9.51754 12.9226C9.53744 13.0309 9.55248 13.1359 9.56266 13.2377C9.57793 13.7102 9.52332 14.1824 9.4006 14.639L9.24791 15.2553L9.02928 16.0094L8.9571 16.2371L8.93628 16.2995L8.92864 16.3221C8.91959 16.3557 8.90356 16.3871 8.88159 16.4142C8.85962 16.4413 8.83221 16.4635 8.80112 16.4793C8.77004 16.4951 8.73598 16.5042 8.70115 16.506C8.66633 16.5078 8.63151 16.5022 8.59897 16.4897C8.53288 16.4574 8.48106 16.4019 8.45345 16.3337C8.42584 16.2656 8.4244 16.1896 8.4494 16.1205L8.45634 16.1007L8.47577 16.0417L8.54518 15.8217L8.75686 15.0905L8.90331 14.4998C9.00821 14.1096 9.05865 13.7067 9.05322 13.3026L9.01852 13.0378C8.96746 12.7714 8.89742 12.5089 8.80892 12.2525L8.62569 11.7642L8.566 11.6237L8.54518 11.5761C8.5227 11.5337 8.5113 11.4862 8.51204 11.4382C8.51277 11.3901 8.52562 11.343 8.54939 11.3013C8.57316 11.2595 8.60709 11.2244 8.64803 11.1992C8.68896 11.1741 8.73559 11.1596 8.78359 11.1573L9.33189 11.185L10.5371 11.2492L10.9223 11.2711L11.7864 11.3249C12.8531 11.4183 13.9137 11.571 14.9634 11.7823C16.6264 12.14 18.241 12.694 19.7732 13.4327L20.4492 13.7336C20.5147 13.7672 20.5656 13.8237 20.592 13.8924C20.6185 13.9611 20.6186 14.0371 20.5925 14.106C20.5829 14.1394 20.5662 14.1705 20.5438 14.1971C20.5213 14.2237 20.4935 14.2453 20.4621 14.2604C20.4308 14.2756 20.3966 14.284 20.3618 14.2851C20.327 14.2861 20.2923 14.2798 20.2601 14.2666L19.5848 13.9661C18.084 13.2419 16.5025 12.6985 14.8735 12.3472C13.8431 12.1398 12.8019 11.9897 11.7548 11.8975L10.8956 11.8441L10.5118 11.8222ZM3.05566 5.42375V5.41091C3.06214 5.19043 3.13345 4.97675 3.26067 4.79657C3.38789 4.61638 3.56539 4.47768 3.77098 4.39779C3.97658 4.3179 4.20115 4.30037 4.41666 4.34738C4.63216 4.39439 4.82903 4.50387 4.98268 4.66212C5.13632 4.82038 5.23993 5.0204 5.28055 5.2372C5.32117 5.454 5.297 5.67796 5.21107 5.8811C5.12514 6.08425 4.98125 6.25756 4.79738 6.3794C4.61352 6.50124 4.39782 6.5662 4.17725 6.56616C3.90333 6.58533 3.633 6.49496 3.42568 6.31491C3.21836 6.13485 3.09101 5.87985 3.07163 5.60594C3.09644 5.81074 3.19766 5.99862 3.35504 6.132C3.51242 6.26538 3.71435 6.33443 3.92045 6.32532C4.09721 6.33054 4.27152 6.28304 4.42119 6.18886C4.57085 6.09469 4.68911 5.9581 4.76088 5.79649C4.83266 5.63488 4.85472 5.45556 4.82424 5.28138C4.79377 5.10719 4.71214 4.94601 4.58976 4.81837C4.46738 4.69073 4.30977 4.6024 4.13702 4.56464C3.96427 4.52687 3.78419 4.54137 3.6197 4.60629C3.45522 4.67121 3.31378 4.78362 3.2134 4.92919C3.11301 5.07477 3.05788 5.24693 3.05566 5.42375ZM3.05566 13.0215V13.034C3.05795 12.8572 3.11279 12.6851 3.21322 12.5396C3.31364 12.394 3.4551 12.2817 3.61959 12.2168C3.78408 12.1519 3.96415 12.1375 4.13688 12.1753C4.30961 12.2131 4.46718 12.3015 4.58953 12.4291C4.71188 12.5568 4.79347 12.7179 4.82391 12.8921C4.85436 13.0663 4.83229 13.2456 4.7605 13.4072C4.68871 13.5688 4.57046 13.7053 4.4208 13.7995C4.27114 13.8937 4.09685 13.9412 3.92011 13.9359C3.71401 13.945 3.51207 13.876 3.35469 13.7426C3.19731 13.6092 3.09609 13.4214 3.07128 13.2166C3.09066 13.4905 3.21806 13.7456 3.42545 13.9257C3.63285 14.1057 3.90327 14.196 4.17725 14.1768C4.39782 14.1768 4.61352 14.1119 4.79738 13.99C4.98125 13.8682 5.12514 13.6949 5.21107 13.4917C5.297 13.2886 5.32117 13.0646 5.28055 12.8478C5.23993 12.631 5.13632 12.431 4.98268 12.2727C4.82903 12.1145 4.63216 12.005 4.41666 11.958C4.20115 11.911 3.97658 11.9285 3.77098 12.0084C3.56539 12.0883 3.38789 12.227 3.26067 12.4072C3.13345 12.5874 3.06214 12.8011 3.05566 13.0215ZM3.50421 6.03104C3.66214 6.03104 3.79016 5.90301 3.79016 5.74509C3.79016 5.58716 3.66214 5.45914 3.50421 5.45914C3.34629 5.45914 3.21826 5.58716 3.21826 5.74509C3.21826 5.90301 3.34629 6.03104 3.50421 6.03104ZM3.79016 13.356C3.79016 13.514 3.66214 13.642 3.50421 13.642C3.34629 13.642 3.21826 13.514 3.21826 13.356C3.21826 13.1981 3.34629 13.0701 3.50421 13.0701C3.66214 13.0701 3.79016 13.1981 3.79016 13.356Z" />
</svg>
