<svg width="20" height="20" viewBox="0 0 20 20" fill="currentColor" xmlns="http://www.w3.org/2000/svg">
<path fill-rule="evenodd" clip-rule="evenodd" d="M13.9683 15.2439C16.4742 14.9446 18.6561 13.4006 18.9304 11.9898C19.3625 9.76737 19.3268 6.56632 19.3268 6.56632C19.3268 2.22771 16.4842 0.955994 16.4842 0.955994C15.051 0.297725 12.5899 0.0209043 10.033 0H9.97018C7.41328 0.0209043 4.95379 0.297725 3.52045 0.955994C3.52045 0.955994 0.677788 2.22771 0.677788 6.56632C0.677788 6.82934 0.676429 7.10599 0.675013 7.39399C0.671083 8.19382 0.666722 9.08121 0.689857 10.0074C0.793085 14.2504 1.46773 18.432 5.39063 19.4703C7.19939 19.9491 8.75234 20.0493 10.003 19.9805C12.2712 19.8548 13.5444 19.1711 13.5444 19.1711L13.4696 17.5254C13.4696 17.5254 11.8488 18.0365 10.0285 17.9742C8.22499 17.9124 6.32109 17.7797 6.0294 15.5655C6.00246 15.371 5.98899 15.163 5.98899 14.9446C5.98899 14.9446 7.75939 15.3774 10.003 15.4802C11.375 15.5431 12.6616 15.3998 13.9683 15.2439ZM15.9738 12.1562V6.90289C15.9738 5.82923 15.7004 4.97603 15.1514 4.34481C14.5851 3.71359 13.8435 3.39 12.9231 3.39C11.8579 3.39 11.0514 3.79936 10.5182 4.61818L9.9997 5.48722L9.4813 4.61818C8.94802 3.79936 8.14148 3.39 7.07644 3.39C6.1559 3.39 5.41433 3.71359 4.84809 4.34481C4.29897 4.97603 4.0256 5.82923 4.0256 6.90289V12.1562H6.10687V7.0573C6.10687 5.98245 6.55911 5.4369 7.46371 5.4369C8.46388 5.4369 8.96526 6.08407 8.96526 7.36375V10.1547H11.0342V7.36375C11.0342 6.08407 11.5355 5.4369 12.5357 5.4369C13.4403 5.4369 13.8925 5.98245 13.8925 7.0573V12.1562H15.9738Z" />
</svg>
