<svg width="22" height="21" viewBox="0 0 22 21" fill="none" xmlns="http://www.w3.org/2000/svg">
<path d="M0 21L14 16L5 7L0 21ZM10.35 15.18L3.3 17.7L5.82 10.65L10.35 15.18Z" />
<path d="M12.5297 11.5296L18.1197 5.93965C18.6097 5.44965 19.3997 5.44965 19.8897 5.93965L20.4797 6.52965L21.5397 5.46965L20.9497 4.87965C19.8797 3.80965 18.1297 3.80965 17.0597 4.87965L11.4697 10.4696L12.5297 11.5296Z"/>
<path d="M8.05973 5.87996L7.46973 6.46996L8.52973 7.52996L9.11973 6.93996C10.1897 5.86996 10.1897 4.11996 9.11973 3.04996L8.52973 2.45996L7.46973 3.52996L8.05973 4.11996C8.53973 4.59996 8.53973 5.39996 8.05973 5.87996Z"/>
<path d="M15.0597 10.8796L13.4697 12.4696L14.5297 13.5296L16.1197 11.9396C16.6097 11.4496 17.3997 11.4496 17.8897 11.9396L19.4997 13.5496L20.5597 12.4896L18.9497 10.8796C17.8697 9.80965 16.1297 9.80965 15.0597 10.8796Z"/>
<path d="M13.0597 4.87996L9.46973 8.46996L10.5297 9.52996L14.1197 5.93996C15.1897 4.86996 15.1897 3.11996 14.1197 2.04996L12.5297 0.459961L11.4697 1.51996L13.0597 3.10996C13.5397 3.59996 13.5397 4.39996 13.0597 4.87996Z"/>
</svg>
