<svg width="16" height="16" viewBox="0 0 16 16" fill="none" xmlns="http://www.w3.org/2000/svg">
<path d="M0 2C0 0.9 0.9 0 2 0C3.1 0 4 0.9 4 2C4 3.1 3.1 4 2 4C0.9 4 0 3.1 0 2ZM2 10C3.1 10 4 9.1 4 8C4 6.9 3.1 6 2 6C0.9 6 0 6.9 0 8C0 9.1 0.9 10 2 10ZM8 4C9.1 4 10 3.1 10 2C10 0.9 9.1 0 8 0C6.9 0 6 0.9 6 2C6 3.1 6.9 4 8 4ZM14 6C12.9 6 12 6.9 12 8C12 9.1 12.9 10 14 10C15.1 10 16 9.1 16 8C16 6.9 15.1 6 14 6ZM13.98 12C13.24 12 12.61 12.4 12.26 13H9.72C9.38 12.4 8.74 12 8 12C7.26 12 6.63 12.4 6.28 13H4.41L7.48 9.93C7.65 9.97 7.82 10 8 10C9.1 10 10 9.1 10 8C10 7.82 9.97 7.65 9.93 7.49L13.49 3.93C13.65 3.97 13.82 4 14 4C15.1 4 16 3.1 16 2C16 0.9 15.1 0 14 0C12.9 0 12 0.9 12 2C12 2.18 12.03 2.35 12.07 2.51L8.51 6.07C8.35 6.03 8.18 6 8 6C6.9 6 6 6.9 6 8C6 8.18 6.03 8.35 6.07 8.51L2.51 12.07C2.35 12.03 2.18 12 2 12C0.9 12 0 12.9 0 14C0 15.1 0.9 16 2 16C2.74 16 3.37 15.6 3.72 15H6.29C6.63 15.6 7.27 16 8.01 16C8.75 16 9.38 15.6 9.73 15H12.28C12.62 15.6 13.26 16 14 16C15.1 16 16 15.1 16 14C15.98 12.9 15.08 12 13.98 12Z" />
</svg>
