<svg width="20" height="20" viewBox="0 0 20 20" fill="none" xmlns="http://www.w3.org/2000/svg">
<path d="M12 10C12 10.74 11.6 11.38 11 11.72V20H9V11.72C8.4 11.37 8 10.74 8 10C8 8.9 8.9 8 10 8C11.1 8 12 8.9 12 10ZM10 4C6.69 4 4 6.69 4 10C4 11.74 4.75 13.31 5.94 14.4L7.36 12.98C6.53 12.25 6 11.19 6 10C6 7.79 7.79 6 10 6C12.21 6 14 7.79 14 10C14 11.19 13.47 12.25 12.64 12.98L14.06 14.4C15.25 13.31 16 11.74 16 10C16 6.69 13.31 4 10 4ZM10 0C4.48 0 0 4.48 0 10C0 12.85 1.2 15.41 3.11 17.24L4.53 15.82C2.98 14.36 2 12.29 2 10C2 5.59 5.59 2 10 2C14.41 2 18 5.59 18 10C18 12.29 17.02 14.36 15.47 15.82L16.89 17.24C18.8 15.41 20 12.85 20 10C20 4.48 15.52 0 10 0Z" />
</svg>
