<svg width="17" height="17" viewBox="0 0 17 17" fill="currentColor" xmlns="http://www.w3.org/2000/svg">
<path d="M2 17C1.45 17 0.979167 16.8042 0.5875 16.4125C0.195833 16.0208 0 15.55 0 15C0 14.45 0.195833 13.9792 0.5875 13.5875C0.979167 13.1958 1.45 13 2 13C2.55 13 3.02083 13.1958 3.4125 13.5875C3.80417 13.9792 4 14.45 4 15C4 15.55 3.80417 16.0208 3.4125 16.4125C3.02083 16.8042 2.55 17 2 17ZM14 17C14 15.0667 13.6333 13.2542 12.9 11.5625C12.1667 9.87083 11.1625 8.3875 9.8875 7.1125C8.6125 5.8375 7.12917 4.83333 5.4375 4.1C3.74583 3.36667 1.93333 3 0 3V0C2.35 0 4.55833 0.445833 6.625 1.3375C8.69167 2.22917 10.4917 3.44167 12.025 4.975C13.5583 6.50833 14.7708 8.30833 15.6625 10.375C16.5542 12.4417 17 14.65 17 17H14ZM8 17C8 14.7833 7.22083 12.8958 5.6625 11.3375C4.10417 9.77917 2.21667 9 0 9V6C1.53333 6 2.96667 6.2875 4.3 6.8625C5.63333 7.4375 6.79583 8.22083 7.7875 9.2125C8.77917 10.2042 9.5625 11.3667 10.1375 12.7C10.7125 14.0333 11 15.4667 11 17H8Z" />
</svg>
