<svg width="20" height="18" viewBox="0 0 20 18" fill="currentColor" xmlns="http://www.w3.org/2000/svg">
<path d="M17.9525 4.9201C17.9647 5.09642 17.9647 5.27273 17.9647 5.45067C17.9647 10.8726 13.8371 17.1257 6.28966 17.1257V17.1224C4.06013 17.1257 1.8769 16.487 0 15.2829C0.324193 15.3219 0.65001 15.3414 0.97664 15.3422C2.82429 15.3438 4.61913 14.7239 6.07272 13.5823C4.31688 13.549 2.77717 12.4042 2.23928 10.7328C2.85436 10.8514 3.48812 10.8271 4.09181 10.6621C2.17753 10.2754 0.800325 8.59347 0.800325 6.64019C0.800325 6.62232 0.800325 6.60525 0.800325 6.58819C1.37071 6.90588 2.00934 7.0822 2.6626 7.1017C0.859638 5.89674 0.30388 3.49821 1.39265 1.62293C3.47593 4.1864 6.54967 5.7448 9.84928 5.90974C9.51859 4.4846 9.97034 2.9912 11.0364 1.98937C12.689 0.435846 15.2882 0.515472 16.8418 2.16731C17.7607 1.98612 18.6415 1.64893 19.4475 1.17117C19.1412 2.121 18.5001 2.92782 17.6437 3.44052C18.457 3.34464 19.2517 3.12689 20 2.79457C19.4491 3.62008 18.7552 4.33916 17.9525 4.9201Z" />
</svg>
