<svg width="360" height="144" viewBox="0 0 360 144" fill="none" xmlns="http://www.w3.org/2000/svg">
<g clip-path="url(#clip0_1864_2018)">
<circle cx="190.902" cy="-20.2981" r="23.9245" fill="#F4FAF4"/>
<circle cx="190.902" cy="128.034" r="23.9245" fill="#FAFCFA"/>
<circle cx="324.879" cy="128.034" r="23.9245" fill="#FFFAFF"/>
<circle cx="123.913" cy="151.958" r="23.9245" fill="#FFF7FF"/>
<circle cx="56.9245" cy="-20.2981" r="23.9245" fill="#FAFCFA"/>
<circle cx="123.913" cy="3.62643" r="23.9245" fill="#FFFAFF"/>
<circle cx="257.891" cy="3.62643" r="23.9245" fill="#F7FBF7"/>
<circle cx="257.891" cy="151.958" r="23.9245" fill="#FFF7FF"/>
<circle cx="326.075" cy="-20.2981" r="23.9245" fill="#FFF7FF"/>
<circle cx="324.879" cy="51.4755" r="23.9245" fill="#F4FAF4"/>
<rect x="236.059" y="55.9613" width="43.6623" height="43.6623" stroke="#9933FF" stroke-width="0.598113"/>
<path d="M241.143 94.2855H270.296L261.416 82.5774L252.851 93.4212L247.194 86.5063L241.143 94.2855Z" fill="#C994FF"/>
<circle cx="271.498" cy="72.2599" r="3.14009" fill="#C994FF"/>
<path d="M310.321 -2.69691L341.078 -39.3514M310.321 -2.69691L309.584 -11.1233M310.321 -2.69691L318.748 -3.43412M341.078 -39.3514L332.652 -38.6142M341.078 -39.3514L341.815 -30.925" stroke="#9933FF" stroke-width="0.598113"/>
<path fill-rule="evenodd" clip-rule="evenodd" d="M181.93 113.081V135.809V136.408H182.528H205.257V135.809H182.528V113.081H181.93Z" fill="#33CC00"/>
<path fill-rule="evenodd" clip-rule="evenodd" d="M182.528 118.464L176.547 118.464L176.547 119.062L182.528 119.062V118.464ZM183.725 119.062V118.464L199.276 118.464L199.874 118.464V119.062L199.874 134.613H199.276L199.276 119.062L183.725 119.062ZM199.276 135.809V141.791H199.874V135.809H199.276Z" fill="#33CC00"/>
<line x1="252.121" y1="17.5343" x2="258.042" y2="11.6133" stroke="#33CC00" stroke-width="0.598113"/>
<line x1="257.619" y1="11.6133" x2="263.54" y2="17.5343" stroke="#33CC00" stroke-width="0.598113"/>
<line x1="257.831" y1="22.8255" x2="257.831" y2="11.8293" stroke="#33CC00" stroke-width="0.598113"/>
<line x1="244.732" y1="1.53304" x2="270.451" y2="1.53304" stroke="#33CC00" stroke-width="0.598113"/>
<line x1="244.732" y1="6.31795" x2="270.451" y2="6.31795" stroke="#33CC00" stroke-width="0.598113"/>
<line x1="129.595" y1="17.383" x2="129.595" y2="9.00941" stroke="#9933FF" stroke-width="0.598113"/>
<line x1="129.296" y1="9.30849" x2="137.67" y2="9.30849" stroke="#9933FF" stroke-width="0.598113"/>
<line x1="137.375" y1="17.0866" x2="129.599" y2="9.31111" stroke="#9933FF" stroke-width="0.598113"/>
<line y1="-0.299057" x2="8.37358" y2="-0.299057" transform="matrix(-1.31134e-07 -1 -1 1.31134e-07 117.932 17.383)" stroke="#9933FF" stroke-width="0.598113"/>
<line y1="-0.299057" x2="8.37358" y2="-0.299057" transform="matrix(-1 1.74846e-07 1.74846e-07 1 118.53 9.60754)" stroke="#9933FF" stroke-width="0.598113"/>
<line y1="-0.299057" x2="10.9962" y2="-0.299057" transform="matrix(0.707107 -0.707107 -0.707107 -0.707107 110.24 16.8751)" stroke="#9933FF" stroke-width="0.598113"/>
<line x1="42.9339" y1="118.561" x2="42.9339" y2="109.277" stroke="#33CC00" stroke-width="0.598113"/>
<line x1="42.5698" y1="109.641" x2="51.8536" y2="109.641" stroke="#33CC00" stroke-width="0.598113"/>
<line x1="51.5492" y1="118.209" x2="42.9285" y2="109.589" stroke="#33CC00" stroke-width="0.598113"/>
<line y1="-0.299057" x2="9.28376" y2="-0.299057" transform="matrix(1.31134e-07 -1 -1 -1.31134e-07 72.4105 118.561)" stroke="#33CC00" stroke-width="0.598113"/>
<line y1="-0.299057" x2="9.28376" y2="-0.299057" transform="matrix(-1 -8.74228e-08 -8.74228e-08 1 73.0736 109.94)" stroke="#33CC00" stroke-width="0.598113"/>
<line y1="-0.299057" x2="12.1914" y2="-0.299057" transform="matrix(0.707107 -0.707107 -0.707107 -0.707107 63.8828 117.998)" stroke="#33CC00" stroke-width="0.598113"/>
<line x1="72.7096" y1="130.497" x2="72.7096" y2="139.781" stroke="#33CC00" stroke-width="0.598113"/>
<line x1="73.0736" y1="139.417" x2="63.7899" y2="139.417" stroke="#33CC00" stroke-width="0.598113"/>
<line x1="64.0943" y1="130.849" x2="72.7149" y2="139.47" stroke="#33CC00" stroke-width="0.598113"/>
<line y1="-0.299057" x2="9.28376" y2="-0.299057" transform="matrix(-4.37113e-08 1 1 4.37113e-08 43.2329 130.497)" stroke="#33CC00" stroke-width="0.598113"/>
<line y1="-0.299057" x2="9.28376" y2="-0.299057" transform="matrix(1 0 0 -1 42.5698 139.118)" stroke="#33CC00" stroke-width="0.598113"/>
<line y1="-0.299057" x2="12.1914" y2="-0.299057" transform="matrix(-0.707107 0.707107 0.707107 0.707107 51.7606 131.061)" stroke="#33CC00" stroke-width="0.598113"/>
<path d="M314.711 56.3865V61.8734H335.091V56.3865" stroke="#33CC00" stroke-width="0.598113"/>
<line x1="325.2" y1="40.7094" x2="325.2" y2="56.2297" stroke="#33CC00" stroke-width="0.598113"/>
<line x1="325.078" y1="56.4054" x2="330.066" y2="51.417" stroke="#33CC00" stroke-width="0.598113"/>
<line x1="320.512" y1="51.417" x2="325.501" y2="56.4054" stroke="#33CC00" stroke-width="0.598113"/>
</g>
<defs>
<clipPath id="clip0_1864_2018">
<rect width="360" height="144" fill="white"/>
</clipPath>
</defs>
</svg>
