<svg width="640" height="320" viewBox="0 0 640 320" fill="none" xmlns="http://www.w3.org/2000/svg">
<g clip-path="url(#clip0_1847_2112)">
<rect width="640" height="320" fill="white"/>
<circle cx="378" cy="3" r="40" fill="#F4FAF4"/>
<circle cx="378" cy="251" r="40" fill="#FAFCFA"/>
<circle cx="602" cy="251" r="40" fill="#FFFAFF"/>
<circle cx="266" cy="291" r="40" fill="#FFF7FF"/>
<circle cx="154" cy="3" r="40" fill="#FAFCFA"/>
<circle cx="266" cy="43" r="40" fill="#FFFAFF"/>
<circle cx="490" cy="43" r="40" fill="#F7FBF7"/>
<circle cx="490" cy="291" r="40" fill="#FFF7FF"/>
<circle cx="604" cy="3" r="40" fill="#FFF7FF"/>
<circle cx="602" cy="123" r="40" fill="#F4FAF4"/>
<rect x="453.5" y="130.5" width="73" height="73" stroke="#9933FF"/>
<path d="M462 194.575H510.741L495.895 175L481.575 193.13L472.116 181.569L462 194.575Z" fill="#C994FF"/>
<circle cx="512.75" cy="157.75" r="5.25" fill="#C994FF"/>
<path d="M577.66 32.4279L629.083 -28.8557M577.66 32.4279L576.428 18.3396M577.66 32.4279L591.749 31.1953M629.083 -28.8557L614.995 -27.6231M629.083 -28.8557L630.316 -14.7674" stroke="#9933FF"/>
<path fill-rule="evenodd" clip-rule="evenodd" d="M363 226V264V265H364H402V264H364V226H363Z" fill="#33CC00"/>
<path fill-rule="evenodd" clip-rule="evenodd" d="M364 235L354 235L354 236L364 236V235ZM366 236V235L392 235L393 235V236L393 262H392L392 236L366 236ZM392 264V274H393V264H392Z" fill="#33CC00"/>
<line y1="-0.5" x2="14" y2="-0.5" transform="matrix(0.707107 0.707107 0.707107 -0.707107 480.707 20.1924)" stroke="#33CC00"/>
<line y1="-0.5" x2="14" y2="-0.5" transform="matrix(0.707107 -0.707107 -0.707107 -0.707107 489.192 30.0919)" stroke="#33CC00"/>
<line y1="-0.5" x2="18.3848" y2="-0.5" transform="matrix(0 1 1 0 490.401 11.6995)" stroke="#33CC00"/>
<line x1="480.354" y1="66.253" x2="490.253" y2="56.3535" stroke="#33CC00"/>
<line x1="489.546" y1="56.3535" x2="499.445" y2="66.253" stroke="#33CC00"/>
<line x1="489.901" y1="75.0995" x2="489.901" y2="56.7147" stroke="#33CC00"/>
<line x1="468" y1="39.5" x2="511" y2="39.5" stroke="#33CC00"/>
<line x1="468" y1="47.5" x2="511" y2="47.5" stroke="#33CC00"/>
<line x1="256.5" y1="20" x2="256.5" y2="34" stroke="#9933FF"/>
<line x1="257" y1="33.5" x2="243" y2="33.5" stroke="#9933FF"/>
<line x1="243.494" y1="20.4957" x2="256.494" y2="33.4957" stroke="#9933FF"/>
<line y1="-0.5" x2="14" y2="-0.5" transform="matrix(4.37115e-08 1 1 -4.37115e-08 276 20)" stroke="#9933FF"/>
<line y1="-0.5" x2="14" y2="-0.5" transform="matrix(1 -8.74228e-08 -8.74228e-08 -1 275 33)" stroke="#9933FF"/>
<line y1="-0.5" x2="18.3848" y2="-0.5" transform="matrix(-0.707107 0.707107 0.707107 0.707107 288.86 20.8492)" stroke="#9933FF"/>
<line x1="275.5" y1="66" x2="275.5" y2="52" stroke="#9933FF"/>
<line x1="275" y1="52.5" x2="289" y2="52.5" stroke="#9933FF"/>
<line x1="288.506" y1="65.5043" x2="275.506" y2="52.5043" stroke="#9933FF"/>
<line y1="-0.5" x2="14" y2="-0.5" transform="matrix(-1.31134e-07 -1 -1 1.31134e-07 256 66)" stroke="#9933FF"/>
<line y1="-0.5" x2="14" y2="-0.5" transform="matrix(-1 1.74846e-07 1.74846e-07 1 257 53)" stroke="#9933FF"/>
<line y1="-0.5" x2="18.3848" y2="-0.5" transform="matrix(0.707107 -0.707107 -0.707107 -0.707107 243.14 65.1508)" stroke="#9933FF"/>
<line x1="130.609" y1="243.522" x2="130.609" y2="228" stroke="#33CC00"/>
<line x1="130" y1="228.609" x2="145.522" y2="228.609" stroke="#33CC00"/>
<line x1="145.013" y1="242.934" x2="130.6" y2="228.521" stroke="#33CC00"/>
<line y1="-0.5" x2="15.5217" y2="-0.5" transform="matrix(1.31134e-07 -1 -1 -1.31134e-07 179.891 243.522)" stroke="#33CC00"/>
<line y1="-0.5" x2="15.5217" y2="-0.5" transform="matrix(-1 -8.74228e-08 -8.74228e-08 1 181 229.109)" stroke="#33CC00"/>
<line y1="-0.5" x2="20.3831" y2="-0.5" transform="matrix(0.707107 -0.707107 -0.707107 -0.707107 165.634 242.58)" stroke="#33CC00"/>
<line x1="180.391" y1="263.478" x2="180.391" y2="279" stroke="#33CC00"/>
<line x1="181" y1="278.391" x2="165.478" y2="278.391" stroke="#33CC00"/>
<line x1="165.987" y1="264.066" x2="180.4" y2="278.479" stroke="#33CC00"/>
<line y1="-0.5" x2="15.5217" y2="-0.5" transform="matrix(-4.37113e-08 1 1 4.37113e-08 131.109 263.478)" stroke="#33CC00"/>
<line y1="-0.5" x2="15.5217" y2="-0.5" transform="matrix(1 0 0 -1 130 277.891)" stroke="#33CC00"/>
<line y1="-0.5" x2="20.3831" y2="-0.5" transform="matrix(-0.707107 0.707107 0.707107 0.707107 145.366 264.42)" stroke="#33CC00"/>
<rect x="470.5" y="272.5" width="39" height="15" stroke="#9933FF"/>
<circle cx="478" cy="280" r="2" fill="#9933FF"/>
<rect x="470.5" y="294.5" width="39" height="15" stroke="#9933FF"/>
<circle cx="478" cy="302" r="2" fill="#9933FF"/>
<path d="M585 131.211V140.385H619.074V131.211" stroke="#33CC00"/>
<line x1="602.537" y1="105" x2="602.537" y2="130.949" stroke="#33CC00"/>
<line x1="602.332" y1="131.242" x2="610.672" y2="122.902" stroke="#33CC00"/>
<line x1="594.699" y1="122.902" x2="603.039" y2="131.243" stroke="#33CC00"/>
<path d="M249 295.211V304.385H283.074V295.211" stroke="#9933FF"/>
<line x1="266.185" y1="295.597" x2="266.185" y2="269.648" stroke="#9933FF"/>
<line x1="266.39" y1="269.354" x2="258.05" y2="277.694" stroke="#9933FF"/>
<line x1="274.023" y1="277.694" x2="265.683" y2="269.354" stroke="#9933FF"/>
<g style="mix-blend-mode:darken">
<path d="M169.806 139.978H175.91V179H169.806V139.978ZM183.788 151.968H189.456V155.565H189.783C190.583 154.257 191.745 153.185 193.271 152.349C194.797 151.514 196.396 151.096 198.067 151.096C200.029 151.096 201.737 151.55 203.19 152.458C204.644 153.367 205.716 154.584 206.406 156.11C207.351 154.584 208.604 153.367 210.166 152.458C211.765 151.55 213.582 151.096 215.616 151.096C218.777 151.096 221.175 152.077 222.81 154.039C224.445 155.965 225.263 158.599 225.263 161.941V179H219.268V162.922C219.268 160.67 218.814 159.053 217.905 158.072C217.033 157.091 215.725 156.6 213.981 156.6C212.056 156.6 210.493 157.4 209.294 158.998C208.132 160.561 207.55 162.468 207.55 164.721V179H201.555V162.922C201.555 160.67 201.101 159.053 200.193 158.072C199.285 157.091 197.922 156.6 196.105 156.6C194.216 156.6 192.69 157.4 191.527 158.998C190.365 160.561 189.783 162.468 189.783 164.721V179H183.788V151.968ZM240.36 179.872C238.435 179.872 236.691 179.491 235.128 178.727C233.602 177.928 232.385 176.838 231.477 175.457C230.605 174.04 230.169 172.442 230.169 170.661C230.169 167.827 231.222 165.593 233.33 163.958C235.473 162.323 238.18 161.505 241.45 161.505C244.321 161.505 246.773 161.996 248.808 162.977V161.832C248.808 160.197 248.154 158.853 246.846 157.799C245.574 156.709 244.03 156.164 242.213 156.164C239.452 156.164 237.236 157.291 235.564 159.543L230.986 156.382C232.258 154.675 233.838 153.367 235.728 152.458C237.653 151.55 239.815 151.096 242.213 151.096C246.174 151.096 249.226 152.095 251.369 154.093C253.549 156.055 254.639 158.835 254.639 162.432V179H248.808V175.675H248.481C247.609 176.911 246.501 177.928 245.156 178.727C243.812 179.491 242.213 179.872 240.36 179.872ZM241.341 174.912C242.686 174.912 243.921 174.585 245.047 173.931C246.21 173.241 247.118 172.351 247.772 171.261C248.463 170.135 248.808 168.936 248.808 167.664C246.882 166.61 244.829 166.083 242.649 166.083C240.651 166.083 239.089 166.519 237.962 167.391C236.836 168.263 236.273 169.372 236.273 170.716C236.273 171.951 236.763 172.969 237.744 173.768C238.762 174.531 239.961 174.912 241.341 174.912ZM273.13 191.644C269.751 191.644 266.954 190.845 264.737 189.246C262.557 187.684 261.086 185.849 260.323 183.742L265.991 181.398C266.536 182.888 267.444 184.069 268.716 184.941C269.987 185.813 271.459 186.249 273.13 186.249C275.637 186.249 277.599 185.486 279.016 183.96C280.47 182.434 281.196 180.326 281.196 177.637V175.294H280.869C279.997 176.566 278.798 177.583 277.272 178.346C275.783 179.109 274.075 179.491 272.149 179.491C269.897 179.491 267.789 178.891 265.827 177.692C263.902 176.493 262.339 174.822 261.14 172.678C259.978 170.498 259.396 168.045 259.396 165.32C259.396 162.595 259.978 160.161 261.14 158.017C262.339 155.837 263.902 154.148 265.827 152.949C267.789 151.714 269.897 151.096 272.149 151.096C274.075 151.096 275.783 151.477 277.272 152.24C278.798 153.003 279.997 154.021 280.869 155.292H281.196V151.968H286.919V177.474C286.919 180.453 286.319 183.015 285.12 185.159C283.958 187.302 282.323 188.919 280.215 190.009C278.144 191.099 275.783 191.644 273.13 191.644ZM273.294 174.04C274.711 174.04 276.019 173.695 277.218 173.005C278.417 172.315 279.38 171.315 280.106 170.007C280.833 168.663 281.196 167.101 281.196 165.32C281.196 163.504 280.833 161.941 280.106 160.633C279.38 159.289 278.417 158.272 277.218 157.581C276.019 156.891 274.711 156.546 273.294 156.546C271.877 156.546 270.569 156.909 269.37 157.636C268.171 158.326 267.208 159.344 266.481 160.688C265.755 161.996 265.391 163.54 265.391 165.32C265.391 167.101 265.755 168.663 266.481 170.007C267.208 171.315 268.171 172.315 269.37 173.005C270.569 173.695 271.877 174.04 273.294 174.04ZM306.034 179.872C303.382 179.872 300.984 179.254 298.84 178.019C296.733 176.784 295.08 175.076 293.881 172.896C292.682 170.68 292.082 168.209 292.082 165.484C292.082 162.868 292.645 160.47 293.772 158.29C294.934 156.074 296.551 154.33 298.622 153.058C300.693 151.75 303.055 151.096 305.707 151.096C308.432 151.096 310.794 151.695 312.792 152.894C314.827 154.093 316.371 155.765 317.425 157.908C318.478 160.016 319.005 162.45 319.005 165.211C319.005 165.538 318.987 165.865 318.951 166.192C318.914 166.519 318.896 166.701 318.896 166.737H298.077C298.259 169.208 299.149 171.116 300.748 172.46C302.346 173.804 304.163 174.476 306.198 174.476C309.322 174.476 311.72 173.023 313.392 170.116L318.515 172.569C317.316 174.785 315.644 176.566 313.501 177.91C311.393 179.218 308.904 179.872 306.034 179.872ZM312.901 162.159C312.828 161.287 312.538 160.397 312.029 159.489C311.52 158.581 310.721 157.818 309.631 157.2C308.577 156.546 307.251 156.219 305.653 156.219C303.872 156.219 302.328 156.764 301.02 157.854C299.748 158.944 298.876 160.379 298.404 162.159H312.901ZM334.671 179.872C331.582 179.872 329.021 179.163 326.986 177.746C324.988 176.293 323.571 174.476 322.735 172.296L328.076 170.007C328.694 171.497 329.584 172.623 330.747 173.386C331.946 174.149 333.254 174.531 334.671 174.531C336.16 174.531 337.378 174.258 338.322 173.713C339.267 173.132 339.739 172.387 339.739 171.479C339.739 170.607 339.358 169.898 338.595 169.353C337.832 168.772 336.578 168.263 334.834 167.827L331.128 166.955C329.094 166.483 327.331 165.611 325.842 164.339C324.388 163.031 323.662 161.342 323.662 159.271C323.662 156.764 324.697 154.784 326.768 153.33C328.839 151.841 331.383 151.096 334.398 151.096C336.905 151.096 339.122 151.623 341.047 152.676C343.009 153.73 344.426 155.256 345.298 157.254L340.012 159.489C339.503 158.363 338.722 157.527 337.668 156.982C336.615 156.437 335.47 156.164 334.235 156.164C333.036 156.164 331.982 156.437 331.074 156.982C330.165 157.491 329.711 158.181 329.711 159.053C329.711 159.816 330.02 160.434 330.638 160.906C331.292 161.378 332.309 161.778 333.69 162.105L337.723 163.086C340.448 163.776 342.482 164.83 343.827 166.247C345.171 167.628 345.843 169.299 345.843 171.261C345.843 172.86 345.353 174.313 344.372 175.621C343.427 176.929 342.101 177.964 340.393 178.727C338.722 179.491 336.814 179.872 334.671 179.872ZM351.652 151.804V139.978H357.756V151.804L357.102 166.301H352.251L351.652 151.804ZM354.704 179.327C353.541 179.327 352.542 178.927 351.706 178.128C350.907 177.292 350.507 176.293 350.507 175.13C350.507 173.968 350.907 172.987 351.706 172.188C352.542 171.388 353.541 170.989 354.704 170.989C355.866 170.989 356.847 171.388 357.647 172.188C358.446 172.987 358.846 173.968 358.846 175.13C358.846 176.293 358.446 177.292 357.647 178.128C356.847 178.927 355.866 179.327 354.704 179.327Z" fill="url(#paint0_linear_1847_2112)"/>
</g>
<path d="M24 140H30.1202V173.279H46.8962V179.126H24V140Z" fill="#3C4043"/>
<path d="M63.7596 180C61.1003 180 58.6959 179.381 56.5465 178.142C54.4336 176.903 52.776 175.191 51.5739 173.005C50.3717 170.783 49.7706 168.306 49.7706 165.574C49.7706 162.951 50.3352 160.546 51.4646 158.361C52.6303 156.138 54.2514 154.39 56.328 153.115C58.4045 151.803 60.7724 151.148 63.4318 151.148C66.164 151.148 68.532 151.749 70.5356 152.951C72.5757 154.153 74.1239 155.829 75.1804 157.978C76.2369 160.091 76.7651 162.532 76.7651 165.301C76.7651 165.628 76.7469 165.956 76.7105 166.284C76.674 166.612 76.6558 166.794 76.6558 166.831H55.7815C55.9637 169.308 56.8562 171.22 58.4591 172.568C60.062 173.916 61.8835 174.59 63.9236 174.59C67.0565 174.59 69.4609 173.133 71.1367 170.219L76.2733 172.678C75.0711 174.9 73.3953 176.685 71.246 178.033C69.1331 179.344 66.6376 180 63.7596 180ZM70.6449 162.24C70.572 161.366 70.2806 160.474 69.7706 159.563C69.2606 158.652 68.4591 157.887 67.3662 157.268C66.3097 156.612 64.98 156.284 63.3771 156.284C61.5921 156.284 60.0438 156.831 58.7323 157.923C57.4573 159.016 56.583 160.455 56.1094 162.24H70.6449Z" fill="#3C4043"/>
<path d="M90.8857 180C88.9549 180 87.2062 179.617 85.6398 178.852C84.1097 178.051 82.8893 176.958 81.9786 175.574C81.1042 174.153 80.6671 172.55 80.6671 170.765C80.6671 167.923 81.7236 165.683 83.8365 164.044C85.9859 162.404 88.6999 161.585 91.9786 161.585C94.8565 161.585 97.3155 162.077 99.3556 163.06V161.913C99.3556 160.273 98.6999 158.925 97.3884 157.869C96.1133 156.776 94.5651 156.23 92.7436 156.23C89.9749 156.23 87.7527 157.359 86.0769 159.617L81.4868 156.448C82.7618 154.736 84.3465 153.424 86.2409 152.514C88.1716 151.603 90.3392 151.148 92.7436 151.148C96.7144 151.148 99.7746 152.149 101.924 154.153C104.11 156.12 105.203 158.907 105.203 162.514V179.126H99.3556V175.792H99.0277C98.1534 177.031 97.0423 178.051 95.6944 178.852C94.3465 179.617 92.7436 180 90.8857 180ZM91.8693 175.027C93.2172 175.027 94.4558 174.699 95.5851 174.044C96.7509 173.352 97.6616 172.459 98.3174 171.366C99.0095 170.237 99.3556 169.035 99.3556 167.76C97.4248 166.703 95.3665 166.175 93.1807 166.175C91.1771 166.175 89.6106 166.612 88.4813 167.486C87.352 168.361 86.7873 169.472 86.7873 170.82C86.7873 172.058 87.2791 173.078 88.2627 173.88C89.2828 174.645 90.4849 175.027 91.8693 175.027Z" fill="#3C4043"/>
<path d="M111.549 152.022H117.232V156.066H117.56C118.142 154.681 119.199 153.534 120.729 152.623C122.259 151.676 123.826 151.202 125.428 151.202C126.74 151.202 127.815 151.384 128.652 151.749V158.033C127.414 157.413 126.03 157.104 124.499 157.104C122.532 157.104 120.875 157.869 119.527 159.399C118.215 160.893 117.56 162.732 117.56 164.918V179.126H111.549V152.022Z" fill="#3C4043"/>
<path d="M133.054 152.022H138.737V155.628H139.065C139.867 154.317 141.033 153.242 142.563 152.404C144.093 151.566 145.75 151.148 147.535 151.148C150.887 151.148 153.419 152.131 155.131 154.098C156.88 156.066 157.754 158.78 157.754 162.24V179.126H151.743V163.06C151.743 158.798 149.757 156.667 145.787 156.667C143.783 156.667 142.162 157.468 140.923 159.071C139.685 160.674 139.065 162.568 139.065 164.754V179.126H133.054V152.022Z" fill="#3C4043"/>
</g>
<defs>
<linearGradient id="paint0_linear_1847_2112" x1="356.5" y1="141" x2="168.178" y2="164.224" gradientUnits="userSpaceOnUse">
<stop offset="0.130208" stop-color="#FF3399"/>
<stop offset="0.369792" stop-color="#9933FF"/>
<stop offset="0.625" stop-color="#0066FF"/>
<stop offset="0.869792" stop-color="#3399FF"/>
</linearGradient>
<clipPath id="clip0_1847_2112">
<rect width="640" height="320" fill="white"/>
</clipPath>
</defs>
</svg>
