<svg width="320" height="160" viewBox="0 0 320 160" fill="none" xmlns="http://www.w3.org/2000/svg">
<g clip-path="url(#clip0_2249_61622)">
<g clip-path="url(#clip1_2249_61622)">
<mask id="mask0_2249_61622" style="mask-type:luminance" maskUnits="userSpaceOnUse" x="0" y="0" width="320" height="160">
<path d="M320 0H0V160H320V0Z" fill="white"/>
</mask>
<g mask="url(#mask0_2249_61622)">
<path d="M320 0H0V160H320V0Z" fill="#303136"/>
<path opacity="0.1" d="M189 21.5C200.046 21.5 209 12.5457 209 1.5C209 -9.5457 200.046 -18.5 189 -18.5C177.954 -18.5 169 -9.5457 169 1.5C169 12.5457 177.954 21.5 189 21.5Z" fill="#F4FAF4"/>
<path opacity="0.1" d="M189 145.5C200.046 145.5 209 136.546 209 125.5C209 114.454 200.046 105.5 189 105.5C177.954 105.5 169 114.454 169 125.5C169 136.546 177.954 145.5 189 145.5Z" fill="#FAFCFA"/>
<path opacity="0.1" d="M301 145.5C312.046 145.5 321 136.546 321 125.5C321 114.454 312.046 105.5 301 105.5C289.954 105.5 281 114.454 281 125.5C281 136.546 289.954 145.5 301 145.5Z" fill="#FFFAFF"/>
<path opacity="0.1" d="M133 165.5C144.046 165.5 153 156.546 153 145.5C153 134.454 144.046 125.5 133 125.5C121.954 125.5 113 134.454 113 145.5C113 156.546 121.954 165.5 133 165.5Z" fill="#FFF7FF"/>
<path opacity="0.1" d="M77 21.5C88.0457 21.5 97 12.5457 97 1.5C97 -9.5457 88.0457 -18.5 77 -18.5C65.9543 -18.5 57 -9.5457 57 1.5C57 12.5457 65.9543 21.5 77 21.5Z" fill="#FAFCFA"/>
<path opacity="0.1" d="M133 41.5C144.046 41.5 153 32.5457 153 21.5C153 10.4543 144.046 1.5 133 1.5C121.954 1.5 113 10.4543 113 21.5C113 32.5457 121.954 41.5 133 41.5Z" fill="#FFFAFF"/>
<path opacity="0.1" d="M245 41.5C256.046 41.5 265 32.5457 265 21.5C265 10.4543 256.046 1.5 245 1.5C233.954 1.5 225 10.4543 225 21.5C225 32.5457 233.954 41.5 245 41.5Z" fill="#F7FBF7"/>
<path opacity="0.1" d="M245 165.5C256.046 165.5 265 156.546 265 145.5C265 134.454 256.046 125.5 245 125.5C233.954 125.5 225 134.454 225 145.5C225 156.546 233.954 165.5 245 165.5Z" fill="#FFF7FF"/>
<path opacity="0.1" d="M302 21.5C313.046 21.5 322 12.5457 322 1.5C322 -9.5457 313.046 -18.5 302 -18.5C290.954 -18.5 282 -9.5457 282 1.5C282 12.5457 290.954 21.5 302 21.5Z" fill="#FFF7FF"/>
<path opacity="0.1" d="M301 81.5C312.046 81.5 321 72.5457 321 61.5C321 50.4543 312.046 41.5 301 41.5C289.954 41.5 281 50.4543 281 61.5C281 72.5457 289.954 81.5 301 81.5Z" fill="#F4FAF4"/>
<path d="M263.25 65.25H226.75V101.75H263.25V65.25Z" stroke="#9933FF"/>
<path d="M231 97.2875H255.37L247.947 87.5L240.788 96.565L236.058 90.7845L231 97.2875Z" fill="#C994FF"/>
<path d="M256.375 81.5C257.825 81.5 259 80.3247 259 78.875C259 77.4253 257.825 76.25 256.375 76.25C254.925 76.25 253.75 77.4253 253.75 78.875C253.75 80.3247 254.925 81.5 256.375 81.5Z" fill="#C994FF"/>
<path d="M288.83 16.2141L314.541 -14.4277M288.83 16.2141L288.214 9.16991M288.83 16.2141L295.874 15.5978M314.541 -14.4277L307.497 -13.8114M314.541 -14.4277L315.158 -7.38358" stroke="#9933FF"/>
<path fill-rule="evenodd" clip-rule="evenodd" d="M181.5 113V132V132.5H182H201V132H182V113H181.5Z" fill="#33CC00"/>
<path fill-rule="evenodd" clip-rule="evenodd" d="M182 117.5H177V118H182V117.5ZM183 118V117.5H196H196.5V118V131H196V118H183ZM196 132V137H196.5V132H196Z" fill="#33CC00"/>
<path d="M240.177 10.2729L245.127 15.2227" stroke="#33CC00"/>
<path d="M244.773 15.2227L249.722 10.2729" stroke="#33CC00"/>
<path d="M244.95 5.84985V15.0423" stroke="#33CC00"/>
<path d="M240.177 33.1265L245.126 28.1768" stroke="#33CC00"/>
<path d="M244.773 28.1768L249.722 33.1265" stroke="#33CC00"/>
<path d="M244.95 37.5498V28.3574" stroke="#33CC00"/>
<path d="M234 19.75H255.5" stroke="#33CC00"/>
<path d="M234 23.75H255.5" stroke="#33CC00"/>
<path d="M128.25 10V17" stroke="#9933FF"/>
<path d="M128.5 16.75H121.5" stroke="#9933FF"/>
<path d="M121.747 10.2478L128.247 16.7478" stroke="#9933FF"/>
<path d="M137.75 10L137.75 17" stroke="#9933FF"/>
<path d="M137.5 16.75L144.5 16.75" stroke="#9933FF"/>
<path d="M144.253 10.2478L137.753 16.7478" stroke="#9933FF"/>
<path d="M137.75 33V26" stroke="#9933FF"/>
<path d="M137.5 26.25H144.5" stroke="#9933FF"/>
<path d="M144.253 32.7522L137.753 26.2522" stroke="#9933FF"/>
<path d="M128.25 33L128.25 26" stroke="#9933FF"/>
<path d="M128.5 26.25L121.5 26.25" stroke="#9933FF"/>
<path d="M121.747 32.7522L128.247 26.2522" stroke="#9933FF"/>
<path d="M65.3044 121.761V114" stroke="#33CC00"/>
<path d="M65 114.304H72.761" stroke="#33CC00"/>
<path d="M72.5065 121.467L65.3 114.26" stroke="#33CC00"/>
<path d="M90.1956 121.761L90.1956 114" stroke="#33CC00"/>
<path d="M90.5 114.304L82.7392 114.304" stroke="#33CC00"/>
<path d="M82.9937 121.467L90.2002 114.26" stroke="#33CC00"/>
<path d="M90.1956 131.739V139.5" stroke="#33CC00"/>
<path d="M90.5 139.196H82.739" stroke="#33CC00"/>
<path d="M82.9934 132.033L90.1999 139.239" stroke="#33CC00"/>
<path d="M65.3044 131.739L65.3044 139.5" stroke="#33CC00"/>
<path d="M65 139.196H72.7608" stroke="#33CC00"/>
<path d="M72.5063 132.033L65.2998 139.24" stroke="#33CC00"/>
<path d="M254.75 136.25H235.25V143.75H254.75V136.25Z" stroke="#9933FF"/>
<path d="M239 141C239.552 141 240 140.552 240 140C240 139.448 239.552 139 239 139C238.448 139 238 139.448 238 140C238 140.552 238.448 141 239 141Z" fill="#9933FF"/>
<path d="M254.75 147.25H235.25V154.75H254.75V147.25Z" stroke="#9933FF"/>
<path d="M239 152C239.552 152 240 151.552 240 151C240 150.448 239.552 150 239 150C238.448 150 238 150.448 238 151C238 151.552 238.448 152 239 152Z" fill="#9933FF"/>
<path d="M292.5 65.6055V70.1925H309.537V65.6055" stroke="#33CC00"/>
<path d="M301.269 52.5V65.4745" stroke="#33CC00"/>
<path d="M301.166 65.6209L305.336 61.4509" stroke="#33CC00"/>
<path d="M297.35 61.4509L301.52 65.6214" stroke="#33CC00"/>
<path d="M124.5 147.605V152.192H141.537V147.605" stroke="#9933FF"/>
<path d="M133.093 147.798V134.824" stroke="#9933FF"/>
<path d="M133.195 134.677L129.025 138.847" stroke="#9933FF"/>
<path d="M137.012 138.847L132.842 134.677" stroke="#9933FF"/>
<path d="M84.9031 69.989H87.9551V89.5H84.9031V69.989ZM91.8941 75.984H94.7281V77.7825H94.8916C95.2916 77.1285 95.8726 76.5925 96.6356 76.1745C97.3986 75.757 98.1981 75.548 99.0336 75.548C100.015 75.548 100.869 75.775 101.595 76.229C102.322 76.6835 102.858 77.292 103.203 78.055C103.676 77.292 104.302 76.6835 105.083 76.229C105.883 75.775 106.791 75.548 107.808 75.548C109.389 75.548 110.588 76.0385 111.405 77.0195C112.223 77.9825 112.632 79.2995 112.632 80.9705V89.5H109.634V81.461C109.634 80.335 109.407 79.5265 108.953 79.036C108.517 78.5455 107.863 78.3 106.991 78.3C106.028 78.3 105.247 78.7 104.647 79.499C104.066 80.2805 103.775 81.234 103.775 82.3605V89.5H100.778V81.461C100.778 80.335 100.551 79.5265 100.097 79.036C99.6426 78.5455 98.9611 78.3 98.0526 78.3C97.1081 78.3 96.3451 78.7 95.7636 79.499C95.1826 80.2805 94.8916 81.234 94.8916 82.3605V89.5H91.8941V75.984ZM120.18 89.936C119.218 89.936 118.346 89.7455 117.564 89.3635C116.801 88.964 116.193 88.419 115.739 87.7285C115.303 87.02 115.085 86.221 115.085 85.3305C115.085 83.9135 115.611 82.7965 116.665 81.979C117.737 81.1615 119.09 80.7525 120.725 80.7525C122.161 80.7525 123.387 80.998 124.404 81.4885V80.916C124.404 80.0985 124.077 79.4265 123.423 78.8995C122.787 78.3545 122.015 78.082 121.107 78.082C119.726 78.082 118.618 78.6455 117.782 79.7715L115.493 78.191C116.129 77.3375 116.919 76.6835 117.864 76.229C118.827 75.775 119.908 75.548 121.107 75.548C123.087 75.548 124.613 76.0475 125.685 77.0465C126.775 78.0275 127.32 79.4175 127.32 81.216V89.5H124.404V87.8375H124.241C123.805 88.4555 123.251 88.964 122.578 89.3635C121.906 89.7455 121.107 89.936 120.18 89.936ZM120.671 87.456C121.343 87.456 121.961 87.2925 122.524 86.9655C123.105 86.6205 123.559 86.1755 123.886 85.6305C124.232 85.0675 124.404 84.468 124.404 83.832C123.441 83.305 122.415 83.0415 121.325 83.0415C120.326 83.0415 119.545 83.2595 118.981 83.6955C118.418 84.1315 118.137 84.686 118.137 85.358C118.137 85.9755 118.382 86.4845 118.872 86.884C119.381 87.2655 119.981 87.456 120.671 87.456ZM136.565 95.822C134.876 95.822 133.477 95.4225 132.369 94.623C131.279 93.842 130.543 92.9245 130.162 91.871L132.996 90.699C133.268 91.444 133.722 92.0345 134.358 92.4705C134.994 92.9065 135.73 93.1245 136.565 93.1245C137.819 93.1245 138.8 92.743 139.508 91.98C140.235 91.217 140.598 90.163 140.598 88.8185V87.647H140.435C139.999 88.283 139.399 88.7915 138.636 89.173C137.892 89.5545 137.038 89.7455 136.075 89.7455C134.949 89.7455 133.895 89.4455 132.914 88.846C131.951 88.2465 131.17 87.411 130.57 86.339C129.989 85.249 129.698 84.0225 129.698 82.66C129.698 81.2975 129.989 80.0805 130.57 79.0085C131.17 77.9185 131.951 77.074 132.914 76.4745C133.895 75.857 134.949 75.548 136.075 75.548C137.038 75.548 137.892 75.7385 138.636 76.12C139.399 76.5015 139.999 77.0105 140.435 77.646H140.598V75.984H143.46V88.737C143.46 90.2265 143.16 91.5075 142.56 92.5795C141.979 93.651 141.162 94.4595 140.108 95.0045C139.072 95.5495 137.892 95.822 136.565 95.822ZM136.647 87.02C137.356 87.02 138.01 86.8475 138.609 86.5025C139.209 86.1575 139.69 85.6575 140.053 85.0035C140.417 84.3315 140.598 83.5505 140.598 82.66C140.598 81.752 140.417 80.9705 140.053 80.3165C139.69 79.6445 139.209 79.136 138.609 78.7905C138.01 78.4455 137.356 78.273 136.647 78.273C135.939 78.273 135.285 78.4545 134.685 78.818C134.086 79.163 133.604 79.672 133.241 80.344C132.878 80.998 132.696 81.77 132.696 82.66C132.696 83.5505 132.878 84.3315 133.241 85.0035C133.604 85.6575 134.086 86.1575 134.685 86.5025C135.285 86.8475 135.939 87.02 136.647 87.02ZM153.017 89.936C151.691 89.936 150.492 89.627 149.42 89.0095C148.367 88.392 147.54 87.538 146.941 86.448C146.341 85.34 146.041 84.1045 146.041 82.742C146.041 81.434 146.323 80.235 146.886 79.145C147.467 78.037 148.276 77.165 149.311 76.529C150.347 75.875 151.528 75.548 152.854 75.548C154.216 75.548 155.397 75.8475 156.396 76.447C157.414 77.0465 158.186 77.8825 158.713 78.954C159.239 80.008 159.503 81.225 159.503 82.6055C159.503 82.769 159.494 82.9325 159.476 83.096C159.457 83.2595 159.448 83.3505 159.448 83.3685H149.039C149.13 84.604 149.575 85.558 150.374 86.23C151.173 86.902 152.082 87.238 153.099 87.238C154.661 87.238 155.86 86.5115 156.696 85.058L159.258 86.2845C158.658 87.3925 157.822 88.283 156.751 88.955C155.697 89.609 154.452 89.936 153.017 89.936ZM156.451 81.0795C156.414 80.6435 156.269 80.1985 156.015 79.7445C155.76 79.2905 155.361 78.909 154.816 78.6C154.289 78.273 153.626 78.1095 152.827 78.1095C151.936 78.1095 151.164 78.382 150.51 78.927C149.874 79.472 149.438 80.1895 149.202 81.0795H156.451ZM167.336 89.936C165.791 89.936 164.511 89.5815 163.493 88.873C162.494 88.1465 161.786 87.238 161.368 86.148L164.038 85.0035C164.347 85.7485 164.792 86.3115 165.374 86.693C165.973 87.0745 166.627 87.2655 167.336 87.2655C168.08 87.2655 168.689 87.129 169.161 86.8565C169.634 86.566 169.87 86.1935 169.87 85.7395C169.87 85.3035 169.679 84.949 169.298 84.6765C168.916 84.386 168.289 84.1315 167.417 83.9135L165.564 83.4775C164.547 83.2415 163.666 82.8055 162.921 82.1695C162.194 81.5155 161.831 80.671 161.831 79.6355C161.831 78.382 162.349 77.392 163.384 76.665C164.42 75.9205 165.692 75.548 167.199 75.548C168.453 75.548 169.561 75.8115 170.524 76.338C171.505 76.865 172.213 77.628 172.649 78.627L170.006 79.7445C169.752 79.1815 169.361 78.7635 168.834 78.491C168.308 78.2185 167.735 78.082 167.118 78.082C166.518 78.082 165.991 78.2185 165.537 78.491C165.083 78.7455 164.856 79.0905 164.856 79.5265C164.856 79.908 165.01 80.217 165.319 80.453C165.646 80.689 166.155 80.889 166.845 81.0525L168.862 81.543C170.224 81.888 171.241 82.415 171.914 83.1235C172.586 83.814 172.922 84.6495 172.922 85.6305C172.922 86.43 172.677 87.1565 172.186 87.8105C171.714 88.4645 171.051 88.982 170.197 89.3635C169.361 89.7455 168.407 89.936 167.336 89.936ZM175.826 75.902V69.989H178.878V75.902L178.551 83.1505H176.126L175.826 75.902ZM177.352 89.6635C176.771 89.6635 176.271 89.4635 175.853 89.064C175.454 88.646 175.254 88.1465 175.254 87.565C175.254 86.984 175.454 86.4935 175.853 86.094C176.271 85.694 176.771 85.4945 177.352 85.4945C177.933 85.4945 178.424 85.694 178.824 86.094C179.223 86.4935 179.423 86.984 179.423 87.565C179.423 88.1465 179.223 88.646 178.824 89.064C178.424 89.4635 177.933 89.6635 177.352 89.6635Z" fill="url(#paint0_linear_2249_61622)"/>
<path d="M12 70H15.0601V86.6395H23.4481V89.563H12V70Z" fill="white"/>
<path d="M31.8798 90C30.5501 90 29.3479 89.6905 28.2732 89.071C27.2168 88.4515 26.388 87.5955 25.7869 86.5025C25.1858 85.3915 24.8853 84.153 24.8853 82.787C24.8853 81.4755 25.1676 80.273 25.7323 79.1805C26.3151 78.069 27.1257 77.195 28.164 76.5575C29.2022 75.9015 30.3862 75.574 31.7159 75.574C33.082 75.574 34.266 75.8745 35.2678 76.4755C36.2878 77.0765 37.0619 77.9145 37.5902 78.989C38.1184 80.0455 38.3825 81.266 38.3825 82.6505C38.3825 82.814 38.3734 82.978 38.3552 83.142C38.337 83.306 38.3279 83.397 38.3279 83.4155H27.8907C27.9818 84.654 28.4281 85.61 29.2295 86.284C30.031 86.958 30.9417 87.295 31.9618 87.295C33.5282 87.295 34.7304 86.5665 35.5683 85.1095L38.1366 86.339C37.5355 87.45 36.6976 88.3425 35.623 89.0165C34.5665 89.672 33.3188 90 31.8798 90ZM35.3224 81.12C35.286 80.683 35.1403 80.237 34.8853 79.7815C34.6303 79.326 34.2295 78.9435 33.6831 78.634C33.1548 78.306 32.49 78.142 31.6885 78.142C30.796 78.142 30.0219 78.4155 29.3661 78.9615C28.7286 79.508 28.2915 80.2275 28.0547 81.12H35.3224Z" fill="white"/>
<path d="M45.4428 90C44.4774 90 43.603 89.8085 42.8198 89.426C42.0548 89.0255 41.4446 88.479 40.9892 87.787C40.552 87.0765 40.3335 86.275 40.3335 85.3825C40.3335 83.9615 40.8617 82.8415 41.9182 82.022C42.9929 81.202 44.3499 80.7925 45.9892 80.7925C47.4282 80.7925 48.6577 81.0385 49.6777 81.53V80.9565C49.6777 80.1365 49.3499 79.4625 48.6941 78.9345C48.0566 78.388 47.2825 78.115 46.3717 78.115C44.9874 78.115 43.8763 78.6795 43.0384 79.8085L40.7433 78.224C41.3808 77.368 42.1732 76.712 43.1204 76.257C44.0857 75.8015 45.1695 75.574 46.3717 75.574C48.3571 75.574 49.8872 76.0745 50.9619 77.0765C52.0549 78.06 52.6014 79.4535 52.6014 81.257V89.563H49.6777V87.896H49.5138C49.0766 88.5155 48.5211 89.0255 47.8471 89.426C47.1732 89.8085 46.3717 90 45.4428 90ZM45.9346 87.5135C46.6085 87.5135 47.2278 87.3495 47.7925 87.022C48.3754 86.676 48.8307 86.2295 49.1586 85.683C49.5047 85.1185 49.6777 84.5175 49.6777 83.88C48.7123 83.3515 47.6832 83.0875 46.5903 83.0875C45.5885 83.0875 44.8052 83.306 44.2406 83.743C43.6759 84.1805 43.3936 84.736 43.3936 85.41C43.3936 86.029 43.6395 86.539 44.1313 86.94C44.6413 87.3225 45.2424 87.5135 45.9346 87.5135Z" fill="white"/>
<path d="M55.7744 76.0111H58.6159V78.0331H58.7799C59.0709 77.3406 59.5994 76.7671 60.3644 76.3116C61.1294 75.8381 61.9129 75.6011 62.7139 75.6011C63.3699 75.6011 63.9074 75.6921 64.3259 75.8746V79.0166C63.7069 78.7066 63.0149 78.5521 62.2494 78.5521C61.2659 78.5521 60.4374 78.9346 59.7634 79.6996C59.1074 80.4466 58.7799 81.3661 58.7799 82.4591V89.5631H55.7744V76.0111Z" fill="white"/>
<path d="M66.5271 76.011H69.3686V77.814H69.5326C69.9336 77.1585 70.5166 76.621 71.2816 76.202C72.0466 75.783 72.8751 75.574 73.7676 75.574C75.4436 75.574 76.7096 76.0655 77.5656 77.049C78.4401 78.033 78.8771 79.39 78.8771 81.12V89.563H75.8716V81.53C75.8716 79.399 74.8786 78.3335 72.8936 78.3335C71.8916 78.3335 71.0811 78.734 70.4616 79.5355C69.8426 80.337 69.5326 81.284 69.5326 82.377V89.563H66.5271V76.011Z" fill="white"/>
</g>
</g>
</g>
<defs>
<linearGradient id="paint0_linear_2249_61622" x1="178.25" y1="70.5" x2="84.0891" y2="82.112" gradientUnits="userSpaceOnUse">
<stop offset="0.130208" stop-color="#FF3399"/>
<stop offset="0.369792" stop-color="#D36DFF"/>
<stop offset="0.625" stop-color="#359BFF"/>
<stop offset="0.869792" stop-color="#359BFF"/>
</linearGradient>
<clipPath id="clip0_2249_61622">
<rect width="320" height="160" fill="white"/>
</clipPath>
<clipPath id="clip1_2249_61622">
<rect width="320" height="160" fill="white"/>
</clipPath>
</defs>
</svg>
