<svg width="170" height="40" viewBox="0 0 170 40" fill="none" xmlns="http://www.w3.org/2000/svg">
<g style="mix-blend-mode:darken">
<path d="M72.9028 9.489H75.9548V29H72.9028V9.489ZM79.8942 15.484H82.7282V17.2825H82.8917C83.2914 16.6285 83.8727 16.0926 84.6357 15.6747C85.3987 15.2569 86.1981 15.048 87.0337 15.048C88.0147 15.048 88.8686 15.2751 89.5952 15.7292C90.3219 16.1834 90.8578 16.792 91.203 17.555C91.6753 16.792 92.3021 16.1834 93.0832 15.7292C93.8826 15.2751 94.7909 15.048 95.8082 15.048C97.3887 15.048 98.5877 15.5385 99.4052 16.5195C100.223 17.4823 100.631 18.7994 100.631 20.4707V29H97.634V20.9612C97.634 19.8349 97.4069 19.0265 96.9527 18.536C96.5167 18.0455 95.8627 17.8002 94.9907 17.8002C94.0279 17.8002 93.2467 18.1999 92.6472 18.9992C92.0659 19.7804 91.7752 20.7342 91.7752 21.8605V29H88.7777V20.9612C88.7777 19.8349 88.5506 19.0265 88.0965 18.536C87.6423 18.0455 86.9611 17.8002 86.0527 17.8002C85.1081 17.8002 84.3451 18.1999 83.7637 18.9992C83.1824 19.7804 82.8917 20.7342 82.8917 21.8605V29H79.8942V15.484ZM108.18 29.436C107.217 29.436 106.345 29.2453 105.564 28.8637C104.801 28.4641 104.193 27.9191 103.738 27.2287C103.302 26.5202 103.084 25.7209 103.084 24.8307C103.084 23.4137 103.611 22.2965 104.665 21.479C105.737 20.6615 107.09 20.2527 108.725 20.2527C110.16 20.2527 111.387 20.498 112.404 20.9885V20.4162C112.404 19.5987 112.077 18.9266 111.423 18.3997C110.787 17.8547 110.015 17.5822 109.107 17.5822C107.726 17.5822 106.618 18.1454 105.782 19.2717L103.493 17.6912C104.129 16.8374 104.919 16.1834 105.864 15.7292C106.827 15.2751 107.908 15.048 109.107 15.048C111.087 15.048 112.613 15.5476 113.685 16.5467C114.775 17.5277 115.32 18.9175 115.32 20.716V29H112.404V27.3377H112.24C111.804 27.9554 111.25 28.4641 110.578 28.8637C109.906 29.2453 109.107 29.436 108.18 29.436ZM108.671 26.9562C109.343 26.9562 109.96 26.7927 110.524 26.4657C111.105 26.1206 111.559 25.6755 111.886 25.1305C112.231 24.5673 112.404 23.9678 112.404 23.332C111.441 22.8052 110.415 22.5417 109.325 22.5417C108.325 22.5417 107.544 22.7597 106.981 23.1957C106.418 23.6317 106.136 24.1858 106.136 24.858C106.136 25.4757 106.382 25.9843 106.872 26.384C107.381 26.7655 107.98 26.9562 108.671 26.9562ZM124.565 35.322C122.876 35.322 121.477 34.9223 120.369 34.123C119.279 33.3418 118.543 32.4244 118.161 31.3708L120.995 30.199C121.268 30.9438 121.722 31.5343 122.358 31.9703C122.994 32.4063 123.729 32.6243 124.565 32.6243C125.819 32.6243 126.8 32.2428 127.508 31.4798C128.235 30.7168 128.598 29.6631 128.598 28.3187V27.147H128.435C127.999 27.7828 127.399 28.2915 126.636 28.673C125.891 29.0545 125.037 29.2453 124.075 29.2453C122.948 29.2453 121.895 28.9455 120.914 28.346C119.951 27.7465 119.17 26.9108 118.57 25.839C117.989 24.749 117.698 23.5227 117.698 22.1602C117.698 20.7977 117.989 19.5806 118.57 18.5087C119.17 17.4187 119.951 16.574 120.914 15.9745C121.895 15.3568 122.948 15.048 124.075 15.048C125.037 15.048 125.891 15.2387 126.636 15.6202C127.399 16.0017 127.999 16.5104 128.435 17.1462H128.598V15.484H131.459V28.237C131.459 29.7267 131.16 31.0074 130.56 32.0793C129.979 33.1511 129.161 33.9595 128.108 34.5045C127.072 35.0495 125.891 35.322 124.565 35.322ZM124.647 26.5202C125.355 26.5202 126.009 26.3477 126.609 26.0025C127.208 25.6573 127.69 25.1577 128.053 24.5037C128.416 23.8316 128.598 23.0504 128.598 22.1602C128.598 21.2519 128.416 20.4707 128.053 19.8167C127.69 19.1446 127.208 18.6359 126.609 18.2907C126.009 17.9456 125.355 17.773 124.647 17.773C123.938 17.773 123.284 17.9547 122.685 18.318C122.085 18.6632 121.604 19.1718 121.241 19.844C120.877 20.498 120.696 21.2701 120.696 22.1602C120.696 23.0504 120.877 23.8316 121.241 24.5037C121.604 25.1577 122.085 25.6573 122.685 26.0025C123.284 26.3477 123.938 26.5202 124.647 26.5202ZM141.017 29.436C139.691 29.436 138.492 29.1272 137.42 28.5095C136.366 27.8918 135.54 27.038 134.94 25.948C134.341 24.8398 134.041 23.6045 134.041 22.242C134.041 20.934 134.323 19.735 134.886 18.645C135.467 17.5368 136.276 16.6648 137.311 16.029C138.347 15.375 139.527 15.048 140.854 15.048C142.216 15.048 143.397 15.3477 144.396 15.9472C145.413 16.5467 146.185 17.3824 146.712 18.4542C147.239 19.5079 147.503 20.7251 147.503 22.1057C147.503 22.2692 147.493 22.4327 147.475 22.5962C147.457 22.7597 147.448 22.8506 147.448 22.8687H137.039C137.129 24.1041 137.574 25.0578 138.374 25.73C139.173 26.4022 140.081 26.7382 141.099 26.7382C142.661 26.7382 143.86 26.0116 144.696 24.5582L147.257 25.7845C146.658 26.8927 145.822 27.7828 144.75 28.455C143.697 29.109 142.452 29.436 141.017 29.436ZM144.451 20.5797C144.414 20.1437 144.269 19.6987 144.015 19.2445C143.76 18.7903 143.361 18.4088 142.816 18.1C142.289 17.773 141.626 17.6095 140.826 17.6095C139.936 17.6095 139.164 17.882 138.51 18.427C137.874 18.972 137.438 19.6896 137.202 20.5797H144.451ZM155.335 29.436C153.791 29.436 152.51 29.0818 151.493 28.3732C150.494 27.6466 149.785 26.7382 149.368 25.6482L152.038 24.5037C152.347 25.2486 152.792 25.8117 153.373 26.1932C153.973 26.5747 154.627 26.7655 155.335 26.7655C156.08 26.7655 156.689 26.6292 157.161 26.3567C157.633 26.0661 157.87 25.6937 157.87 25.2395C157.87 24.8035 157.679 24.4492 157.297 24.1767C156.916 23.8861 156.289 23.6317 155.417 23.4137L153.564 22.9777C152.547 22.7416 151.666 22.3056 150.921 21.6697C150.194 21.0157 149.831 20.171 149.831 19.1355C149.831 17.882 150.349 16.8919 151.384 16.1652C152.42 15.4204 153.691 15.048 155.199 15.048C156.453 15.048 157.561 15.3114 158.524 15.8382C159.505 16.3651 160.213 17.1281 160.649 18.1272L158.006 19.2445C157.752 18.6813 157.361 18.2635 156.834 17.991C156.307 17.7185 155.735 17.5822 155.117 17.5822C154.518 17.5822 153.991 17.7185 153.537 17.991C153.083 18.2453 152.856 18.5905 152.856 19.0265C152.856 19.408 153.01 19.7168 153.319 19.953C153.646 20.1892 154.155 20.389 154.845 20.5525L156.861 21.043C158.224 21.3882 159.241 21.915 159.913 22.6235C160.586 23.3138 160.922 24.1495 160.922 25.1305C160.922 25.9298 160.676 26.6565 160.186 27.3105C159.714 27.9645 159.05 28.4822 158.197 28.8637C157.361 29.2453 156.407 29.436 155.335 29.436ZM163.826 15.4022V9.489H166.878V15.4022L166.551 22.6507H164.126L163.826 15.4022ZM165.352 29.1635C164.771 29.1635 164.271 28.9637 163.853 28.564C163.453 28.1462 163.254 27.6466 163.254 27.0652C163.254 26.4839 163.453 25.9934 163.853 25.5937C164.271 25.1941 164.771 24.9942 165.352 24.9942C165.933 24.9942 166.424 25.1941 166.823 25.5937C167.223 25.9934 167.423 26.4839 167.423 27.0652C167.423 27.6466 167.223 28.1462 166.823 28.564C166.424 28.9637 165.933 29.1635 165.352 29.1635Z" fill="url(#paint0_linear_1864_2555)"/>
</g>
<path d="M0 9.5H3.06011V26.1393H11.4481V29.0628H0L0 9.5Z" fill="#3C4043"/>
<path d="M19.8798 29.5C18.5501 29.5 17.3479 29.1904 16.2733 28.571C15.2168 27.9517 14.388 27.0956 13.7869 26.0027C13.1858 24.8916 12.8853 23.653 12.8853 22.2869C12.8853 20.9754 13.1676 19.7732 13.7323 18.6803C14.3152 17.5692 15.1257 16.6949 16.164 16.0574C17.2022 15.4016 18.3862 15.0738 19.7159 15.0738C21.082 15.0738 22.266 15.3743 23.2678 15.9754C24.2878 16.5765 25.062 17.4144 25.5902 18.4891C26.1184 19.5455 26.3826 20.7659 26.3826 22.1503C26.3826 22.3142 26.3735 22.4781 26.3552 22.6421C26.337 22.806 26.3279 22.8971 26.3279 22.9153H15.8908C15.9818 24.1539 16.4281 25.1102 17.2296 25.7842C18.031 26.4581 18.9418 26.7951 19.9618 26.7951C21.5283 26.7951 22.7305 26.0665 23.5684 24.6093L26.1367 25.8388C25.5356 26.9499 24.6977 27.8424 23.623 28.5164C22.5665 29.1721 21.3188 29.5 19.8798 29.5ZM23.3224 20.6202C23.286 20.1831 23.1403 19.7368 22.8853 19.2814C22.6303 18.826 22.2296 18.4435 21.6831 18.1339C21.1549 17.806 20.49 17.6421 19.6886 17.6421C18.796 17.6421 18.0219 17.9153 17.3662 18.4618C16.7286 19.0082 16.2915 19.7277 16.0547 20.6202H23.3224Z" fill="#3C4043"/>
<path d="M33.4428 29.5C32.4774 29.5 31.6031 29.3087 30.8199 28.9262C30.0549 28.5255 29.4447 27.9791 28.9893 27.2869C28.5521 26.5765 28.3335 25.775 28.3335 24.8825C28.3335 23.4618 28.8618 22.3415 29.9182 21.5219C30.9929 20.7022 32.3499 20.2924 33.9893 20.2924C35.4283 20.2924 36.6578 20.5383 37.6778 21.0301V20.4563C37.6778 19.6366 37.3499 18.9627 36.6942 18.4344C36.0567 17.888 35.2825 17.6148 34.3718 17.6148C32.9875 17.6148 31.8764 18.1794 31.0385 19.3087L28.7434 17.724C29.3809 16.8679 30.1733 16.2122 31.1204 15.7568C32.0858 15.3015 33.1696 15.0738 34.3718 15.0738C36.3572 15.0738 37.8873 15.5747 38.962 16.5765C40.0549 17.5601 40.6013 18.9536 40.6013 20.7568V29.0628H37.6778V27.3962H37.5139C37.0767 28.0155 36.5212 28.5255 35.8472 28.9262C35.1733 29.3087 34.3718 29.5 33.4428 29.5ZM33.9346 27.0137C34.6086 27.0137 35.2279 26.8497 35.7926 26.5219C36.3754 26.1758 36.8308 25.7295 37.1587 25.1831C37.5048 24.6184 37.6778 24.0173 37.6778 23.3798C36.7124 22.8516 35.6833 22.5874 34.5904 22.5874C33.5886 22.5874 32.8053 22.806 32.2407 23.2432C31.676 23.6803 31.3937 24.2359 31.3937 24.9098C31.3937 25.5291 31.6396 26.0392 32.1314 26.4399C32.6414 26.8224 33.2425 27.0137 33.9346 27.0137Z" fill="#3C4043"/>
<path d="M43.7743 15.5109H46.6159V17.5328H46.7798C47.0712 16.8406 47.5995 16.2669 48.3645 15.8115C49.1295 15.3379 49.9128 15.1011 50.7142 15.1011C51.37 15.1011 51.9073 15.1922 52.3263 15.3743V18.5164C51.7069 18.2067 51.0148 18.0519 50.2498 18.0519C49.2661 18.0519 48.4374 18.4344 47.7634 19.1995C47.1077 19.9463 46.7798 20.8661 46.7798 21.959V29.0628H43.7743V15.5109Z" fill="#3C4043"/>
<path d="M54.5272 15.5109H57.3687V17.3142H57.5327C57.9334 16.6585 58.5163 16.1211 59.2813 15.7022C60.0463 15.2832 60.8751 15.0738 61.7676 15.0738C63.4434 15.0738 64.7094 15.5656 65.5655 16.5492C66.4398 17.5328 66.8769 18.8898 66.8769 20.6202V29.0628H63.8715V21.0301C63.8715 18.8989 62.8788 17.8333 60.8933 17.8333C59.8915 17.8333 59.0809 18.2341 58.4616 19.0355C57.8423 19.837 57.5327 20.7842 57.5327 21.8771V29.0628H54.5272V15.5109Z" fill="#3C4043"/>
<defs>
<linearGradient id="paint0_linear_1864_2555" x1="166.735" y1="10" x2="72.1101" y2="21.7283" gradientUnits="userSpaceOnUse">
<stop offset="0.130208" stop-color="#FF3399"/>
<stop offset="0.369792" stop-color="#9933FF"/>
<stop offset="0.625" stop-color="#0066FF"/>
<stop offset="0.869792" stop-color="#3399FF"/>
</linearGradient>
</defs>
</svg>
