<svg width="320" height="160" viewBox="0 0 320 160" fill="none" xmlns="http://www.w3.org/2000/svg">
<g clip-path="url(#clip0_2212_59114)">
<path d="M0 0H320V160H0V0Z" fill="#303136"/>
<path d="M65 -88H105V27H65V-88Z" fill="#FF66CC"/>
<path d="M84.75 -88L85 27M85 27L78 20M85 27L92 20" stroke="#FFDDEE"/>
<path d="M268.5 115H326.5V230H268.5V115Z" fill="#FFDDEE" fill-opacity="0.28"/>
<path d="M172.5 133H212.5V248H172.5V133Z" fill="#CCEEFF"/>
<path d="M172.5 143.5H212.5M172.5 143.5L177.5 138.5M172.5 143.5L177.5 148.5M212.5 143.5L207.5 138.5M212.5 143.5L207.5 148.5" stroke="#3399FF"/>
<path d="M220.5 133H260.5V153H220.5V133Z" fill="#FFDDEE" fill-opacity="0.56"/>
<path d="M113.25 -105.75H212.25V18.75H113.25V-105.75ZM65.25 133.25H164.25V257.75H65.25V133.25ZM220.75 13.25H326.25V44.75H220.75V13.25Z" stroke="#FF66CC" stroke-dasharray="2 2"/>
<path d="M220.5 -32H326.5V5H220.5V-32Z" fill="#CCEEFF"/>
<path d="M226.5 27V39M226.5 39H238.5M226.5 39L252.25 13.25" stroke="#FF66CC" stroke-dasharray="2 2"/>
<path d="M12 55H15.06V71.6395H23.448V74.563H12V55ZM31.88 75C30.55 75 29.348 74.6905 28.2735 74.071C27.217 73.4515 26.388 72.5955 25.787 71.5025C25.186 70.3915 24.8855 69.153 24.8855 67.787C24.8855 66.4755 25.1675 65.273 25.7325 64.1805C26.315 63.069 27.1255 62.195 28.164 61.5575C29.202 60.9015 30.386 60.574 31.716 60.574C33.082 60.574 34.266 60.8745 35.268 61.4755C36.288 62.0765 37.062 62.9145 37.59 63.989C38.1185 65.0455 38.3825 66.266 38.3825 67.6505C38.3825 67.814 38.3735 67.978 38.355 68.142C38.337 68.306 38.328 68.397 38.328 68.4155H27.89C27.9815 69.654 28.4275 70.61 29.229 71.284C30.0305 71.958 30.941 72.295 31.9615 72.295C33.528 72.295 34.73 71.5665 35.568 70.1095L38.136 71.339C37.5476 72.4365 36.6807 73.36 35.6225 74.0165C34.5665 74.672 33.319 75 31.88 75ZM35.3225 66.12C35.286 65.683 35.1405 65.237 34.8855 64.7815C34.6305 64.326 34.2295 63.9435 33.683 63.634C33.155 63.306 32.49 63.142 31.6885 63.142C30.796 63.142 30.022 63.4155 29.366 63.9615C28.7285 64.508 28.2915 65.2275 28.0545 66.12H35.3225ZM45.443 75C44.4775 75 43.603 74.8085 42.82 74.426C42.055 74.0255 41.445 73.479 40.9895 72.787C40.552 72.0765 40.3335 71.275 40.3335 70.3825C40.3335 68.9615 40.862 67.8415 41.9185 67.022C42.993 66.202 44.35 65.7925 45.9895 65.7925C47.428 65.7925 48.658 66.0385 49.678 66.53V65.9565C49.678 65.1365 49.35 64.4625 48.694 63.9345C48.0565 63.388 47.2825 63.115 46.372 63.115C44.987 63.115 43.8765 63.6795 43.0385 64.8085L40.7435 63.224C41.3624 62.3832 42.1788 61.7077 43.1205 61.257C44.0855 60.8015 45.1695 60.574 46.372 60.574C48.357 60.574 49.887 61.0745 50.962 62.0765C52.055 63.06 52.6015 64.4535 52.6015 66.257V74.563H49.678V72.896H49.514C49.0734 73.5187 48.5051 74.0402 47.847 74.426C47.1735 74.8085 46.372 75 45.443 75ZM45.9345 72.5135C46.5867 72.5192 47.2284 72.3494 47.7925 72.022C48.3755 71.676 48.831 71.2295 49.1585 70.683C49.505 70.1185 49.678 69.5175 49.678 68.88C48.7333 68.3569 47.6704 68.0841 46.5905 68.0875C45.5885 68.0875 44.8055 68.306 44.2405 68.743C43.676 69.1805 43.3935 69.736 43.3935 70.41C43.3935 71.029 43.6395 71.539 44.1315 71.94C44.6415 72.3225 45.2425 72.5135 45.9345 72.5135ZM55.7745 61.011H58.616V63.033H58.78C59.071 62.3405 59.5995 61.767 60.3645 61.3115C61.1295 60.838 61.913 60.601 62.714 60.601C63.37 60.601 63.9075 60.692 64.326 60.8745V64.0165C63.707 63.7065 63.015 63.552 62.2495 63.552C61.266 63.552 60.4375 63.9345 59.7635 64.6995C59.1075 65.4465 58.78 66.366 58.78 67.459V74.563H55.7745V61.011ZM66.527 61.011H69.3685V62.814H69.5325C69.9335 62.1585 70.5165 61.621 71.2815 61.202C72.0465 60.783 72.875 60.574 73.7675 60.574C75.4435 60.574 76.7095 61.0655 77.5655 62.049C78.44 63.033 78.877 64.39 78.877 66.12V74.563H75.8715V66.53C75.8715 64.399 74.8785 63.3335 72.8935 63.3335C71.8915 63.3335 71.081 63.734 70.4615 64.5355C69.8425 65.337 69.5325 66.284 69.5325 67.377V74.563H66.527V61.011Z" fill="white"/>
<path d="M12 104.5V85.168H18.777C19.965 85.168 21.027 85.42 21.963 85.924C22.899 86.428 23.637 87.13 24.177 88.03C24.735 88.912 25.014 89.929 25.014 91.081C25.014 92.341 24.618 93.484 23.826 94.51C23.052 95.518 21.954 96.22 20.532 96.616L25.905 104.338V104.5H22.476L17.319 96.913H14.97V104.5H12ZM18.804 87.949H14.97V94.186H18.696C19.614 94.186 20.397 93.898 21.045 93.322C21.693 92.728 22.017 91.972 22.017 91.054C22.0178 90.5351 21.8878 90.0243 21.639 89.569C21.3883 89.0843 21.0042 88.6815 20.532 88.408C20.064 88.102 19.488 87.949 18.804 87.949Z" fill="url(#paint0_linear_2212_59114)"/>
<path d="M34.021 104.932C32.671 104.932 31.465 104.617 30.403 103.987C29.341 103.357 28.504 102.493 27.892 101.395C27.298 100.297 27.001 99.046 27.001 97.642C27.001 96.328 27.289 95.113 27.865 93.997C28.441 92.881 29.242 91.99 30.268 91.324C31.312 90.64 32.509 90.298 33.859 90.298C35.281 90.298 36.487 90.604 37.477 91.216C38.4701 91.8117 39.2677 92.6844 39.772 93.727C40.294 94.789 40.555 95.986 40.555 97.318C40.555 97.516 40.546 97.696 40.528 97.858C40.528 98.02 40.519 98.146 40.501 98.236H29.863C30.007 99.604 30.484 100.63 31.294 101.314C32.122 101.998 33.058 102.34 34.102 102.34C35.038 102.34 35.812 102.133 36.424 101.719C37.0219 101.302 37.5198 100.758 37.882 100.126L40.285 101.287C39.7029 102.354 38.8687 103.262 37.855 103.933C36.829 104.599 35.551 104.932 34.021 104.932ZM33.886 92.782C32.914 92.782 32.086 93.079 31.402 93.673C30.718 94.267 30.259 95.059 30.025 96.049H37.666C37.63 95.581 37.477 95.095 37.207 94.591C36.937 94.087 36.523 93.664 35.965 93.322C35.425 92.962 34.732 92.782 33.886 92.782Z" fill="url(#paint1_linear_2212_59114)"/>
<path d="M48.4141 104.932C46.7581 104.932 45.4351 104.572 44.4451 103.852C43.4551 103.114 42.7711 102.241 42.3931 101.233L45.0121 100.099C45.3361 100.837 45.8041 101.404 46.4161 101.8C47.0281 102.178 47.7211 102.367 48.4951 102.367C49.2151 102.367 49.8361 102.241 50.3581 101.989C50.8801 101.719 51.1411 101.287 51.1411 100.693C51.1411 100.117 50.8801 99.694 50.3581 99.424C49.8361 99.154 49.1881 98.92 48.4141 98.722L46.7671 98.344C46.1118 98.1863 45.4839 97.9315 44.9041 97.588C44.3419 97.259 43.8618 96.8066 43.5001 96.265C43.1401 95.707 42.9601 95.059 42.9601 94.321C42.9601 93.511 43.2031 92.809 43.6891 92.215C44.1751 91.603 44.8141 91.135 45.6061 90.811C46.4161 90.469 47.2891 90.298 48.2251 90.298C49.5031 90.298 50.6191 90.55 51.5731 91.054C52.5451 91.54 53.2561 92.278 53.7061 93.268L51.1951 94.402C50.8711 93.79 50.4481 93.367 49.9261 93.133C49.4221 92.881 48.8641 92.755 48.2521 92.755C47.5681 92.755 46.9921 92.899 46.5241 93.187C46.0741 93.475 45.8491 93.835 45.8491 94.267C45.8491 94.735 46.0471 95.104 46.4431 95.374C46.8571 95.644 47.3611 95.86 47.9551 96.022L49.9531 96.508C51.3211 96.85 52.3471 97.372 53.0311 98.074C53.7151 98.758 54.0571 99.595 54.0571 100.585C54.0571 101.467 53.8051 102.241 53.3011 102.907C52.7971 103.555 52.1131 104.059 51.2491 104.419C50.4031 104.761 49.4581 104.932 48.4141 104.932Z" fill="url(#paint2_linear_2212_59114)"/>
<path d="M56.4431 110.332V90.73H59.1701V92.593H59.3321C59.6921 91.999 60.2501 91.468 61.0061 91C61.7801 90.532 62.6981 90.298 63.7601 90.298C65.0201 90.298 66.1451 90.613 67.1351 91.243C68.1251 91.873 68.9081 92.737 69.4841 93.835C70.0781 94.933 70.3751 96.193 70.3751 97.615C70.3751 99.037 70.0781 100.306 69.4841 101.422C68.9081 102.52 68.1251 103.384 67.1351 104.014C66.1451 104.626 65.0201 104.932 63.7601 104.932C62.6981 104.932 61.7801 104.707 61.0061 104.257C60.2501 103.789 59.6921 103.258 59.3321 102.664H59.1701L59.3321 104.581V110.332H56.4431ZM63.3281 102.259C64.0481 102.259 64.7231 102.07 65.3531 101.692C65.9831 101.314 66.4961 100.783 66.8921 100.099C67.2881 99.397 67.4861 98.569 67.4861 97.615C67.4861 96.661 67.2881 95.842 66.8921 95.158C66.4961 94.456 65.9831 93.916 65.3531 93.538C64.7434 93.1656 64.0425 92.9694 63.3281 92.971C62.6081 92.971 61.9331 93.16 61.3031 93.538C60.6731 93.916 60.1601 94.456 59.7641 95.158C59.3681 95.842 59.1701 96.661 59.1701 97.615C59.1701 98.569 59.3681 99.397 59.7641 100.099C60.1601 100.783 60.6731 101.314 61.3031 101.692C61.9128 102.064 62.6137 102.261 63.3281 102.259Z" fill="url(#paint3_linear_2212_59114)"/>
<path d="M79.5349 104.932C78.1129 104.932 76.8619 104.608 75.7819 103.96C74.7179 103.328 73.8417 102.424 73.2439 101.341C72.6319 100.243 72.3259 99.001 72.3259 97.615C72.3259 96.247 72.6319 95.014 73.2439 93.916C73.8559 92.8 74.7019 91.918 75.7819 91.27C76.8619 90.622 78.1129 90.298 79.5349 90.298C80.9389 90.298 82.1809 90.622 83.2609 91.27C84.3409 91.918 85.1869 92.8 85.7989 93.916C86.4109 95.014 86.7169 96.247 86.7169 97.615C86.7169 99.001 86.4109 100.243 85.7989 101.341C85.2011 102.424 84.325 103.328 83.2609 103.96C82.1809 104.608 80.9389 104.932 79.5349 104.932ZM79.5349 102.259C80.2909 102.259 80.9929 102.079 81.6409 101.719C82.2889 101.341 82.8109 100.81 83.2069 100.126C83.6209 99.424 83.8279 98.587 83.8279 97.615C83.8279 96.643 83.6209 95.815 83.2069 95.131C82.8109 94.429 82.2889 93.898 81.6409 93.538C81.0029 93.1627 80.2752 92.9667 79.5349 92.971C78.7864 92.969 78.0506 93.1646 77.4019 93.538C76.7539 93.898 76.2229 94.429 75.8089 95.131C75.4129 95.815 75.2149 96.643 75.2149 97.615C75.2149 98.587 75.4129 99.424 75.8089 100.126C76.2229 100.81 76.7539 101.341 77.4019 101.719C78.056 102.076 78.7898 102.262 79.5349 102.259Z" fill="url(#paint4_linear_2212_59114)"/>
<path d="M89.1389 104.5V90.73H91.8929V92.62H92.0549C92.4509 91.954 93.0359 91.405 93.8099 90.973C94.6019 90.523 95.4659 90.298 96.4019 90.298C98.0939 90.298 99.3629 90.802 100.209 91.81C101.055 92.818 101.478 94.15 101.478 95.806V104.5H98.5889V96.184C98.5889 95.068 98.3099 94.258 97.7519 93.754C97.1939 93.232 96.4649 92.971 95.5649 92.971C94.8629 92.971 94.2509 93.169 93.7289 93.565C93.2069 93.943 92.7929 94.447 92.4869 95.077C92.1977 95.7126 92.0503 96.4036 92.0549 97.102V104.5H89.1389Z" fill="url(#paint5_linear_2212_59114)"/>
<path d="M109.691 104.932C108.035 104.932 106.712 104.572 105.722 103.852C104.732 103.114 104.048 102.241 103.67 101.233L106.289 100.099C106.613 100.837 107.081 101.404 107.693 101.8C108.305 102.178 108.998 102.367 109.772 102.367C110.492 102.367 111.113 102.241 111.635 101.989C112.157 101.719 112.418 101.287 112.418 100.693C112.418 100.117 112.157 99.694 111.635 99.424C111.113 99.154 110.465 98.92 109.691 98.722L108.044 98.344C107.389 98.1863 106.761 97.9315 106.181 97.588C105.619 97.259 105.139 96.8066 104.777 96.265C104.417 95.707 104.237 95.059 104.237 94.321C104.237 93.511 104.48 92.809 104.966 92.215C105.452 91.603 106.091 91.135 106.883 90.811C107.693 90.469 108.566 90.298 109.502 90.298C110.78 90.298 111.896 90.55 112.85 91.054C113.822 91.54 114.533 92.278 114.983 93.268L112.472 94.402C112.148 93.79 111.725 93.367 111.203 93.133C110.699 92.881 110.141 92.755 109.529 92.755C108.845 92.755 108.269 92.899 107.801 93.187C107.351 93.475 107.126 93.835 107.126 94.267C107.126 94.735 107.324 95.104 107.72 95.374C108.134 95.644 108.638 95.86 109.232 96.022L111.23 96.508C112.598 96.85 113.624 97.372 114.308 98.074C114.992 98.758 115.334 99.595 115.334 100.585C115.334 101.467 115.082 102.241 114.578 102.907C114.074 103.555 113.39 104.059 112.526 104.419C111.68 104.761 110.735 104.932 109.691 104.932Z" fill="url(#paint6_linear_2212_59114)"/>
<path d="M119.421 88.705C118.881 88.705 118.413 88.516 118.017 88.138C117.639 87.742 117.45 87.274 117.45 86.734C117.45 86.194 117.639 85.735 118.017 85.357C118.413 84.979 118.881 84.79 119.421 84.79C119.961 84.79 120.42 84.979 120.798 85.357C121.194 85.735 121.392 86.194 121.392 86.734C121.392 87.274 121.194 87.742 120.798 88.138C120.42 88.516 119.961 88.705 119.421 88.705ZM117.963 104.5V90.73H120.879V104.5H117.963Z" fill="url(#paint7_linear_2212_59114)"/>
<path d="M128.683 104.5L122.986 90.73H126.226L130.087 100.747H130.222L134.164 90.73H137.35L131.599 104.5H128.683Z" fill="url(#paint8_linear_2212_59114)"/>
<path d="M145.132 104.932C143.782 104.932 142.576 104.617 141.514 103.987C140.452 103.357 139.615 102.493 139.003 101.395C138.409 100.297 138.112 99.046 138.112 97.642C138.112 96.328 138.4 95.113 138.976 93.997C139.552 92.881 140.353 91.99 141.379 91.324C142.423 90.64 143.62 90.298 144.97 90.298C146.392 90.298 147.598 90.604 148.588 91.216C149.581 91.8117 150.379 92.6844 150.883 93.727C151.405 94.789 151.666 95.986 151.666 97.318C151.666 97.516 151.657 97.696 151.639 97.858C151.639 98.02 151.63 98.146 151.612 98.236H140.974C141.118 99.604 141.595 100.63 142.405 101.314C143.233 101.998 144.169 102.34 145.213 102.34C146.149 102.34 146.923 102.133 147.535 101.719C148.133 101.302 148.631 100.758 148.993 100.126L151.396 101.287C150.814 102.354 149.98 103.262 148.966 103.933C147.94 104.599 146.662 104.932 145.132 104.932ZM144.997 92.782C144.025 92.782 143.197 93.079 142.513 93.673C141.829 94.267 141.37 95.059 141.136 96.049H148.777C148.741 95.581 148.588 95.095 148.318 94.591C148.048 94.087 147.634 93.664 147.076 93.322C146.536 92.962 145.843 92.782 144.997 92.782Z" fill="url(#paint9_linear_2212_59114)"/>
<path d="M161.159 104.5V85.168H167.342C169.376 85.168 171.122 85.582 172.58 86.41C174.056 87.22 175.19 88.354 175.982 89.812C176.792 91.27 177.197 92.944 177.197 94.834C177.197 96.742 176.792 98.425 175.982 99.883C175.19 101.323 174.056 102.457 172.58 103.285C171.122 104.095 169.376 104.5 167.342 104.5H161.159ZM164.129 101.692H167.261C169.457 101.692 171.158 101.08 172.364 99.856C173.588 98.632 174.2 96.958 174.2 94.834C174.2 92.71 173.588 91.036 172.364 89.812C171.158 88.588 169.457 87.976 167.261 87.976H164.129V101.692Z" fill="url(#paint10_linear_2212_59114)"/>
<path d="M186.001 104.932C184.651 104.932 183.445 104.617 182.383 103.987C181.321 103.357 180.484 102.493 179.872 101.395C179.278 100.297 178.981 99.046 178.981 97.642C178.981 96.328 179.269 95.113 179.845 93.997C180.421 92.881 181.222 91.99 182.248 91.324C183.292 90.64 184.489 90.298 185.839 90.298C187.261 90.298 188.467 90.604 189.457 91.216C190.451 91.8117 191.248 92.6844 191.752 93.727C192.274 94.789 192.535 95.986 192.535 97.318C192.535 97.516 192.526 97.696 192.508 97.858C192.508 98.02 192.499 98.146 192.481 98.236H181.843C181.987 99.604 182.464 100.63 183.274 101.314C184.102 101.998 185.038 102.34 186.082 102.34C187.018 102.34 187.792 102.133 188.404 101.719C189.002 101.302 189.5 100.758 189.862 100.126L192.265 101.287C191.683 102.354 190.849 103.262 189.835 103.933C188.809 104.599 187.531 104.932 186.001 104.932ZM185.866 92.782C184.894 92.782 184.066 93.079 183.382 93.673C182.698 94.267 182.239 95.059 182.005 96.049H189.646C189.61 95.581 189.457 95.095 189.187 94.591C188.917 94.087 188.503 93.664 187.945 93.322C187.405 92.962 186.712 92.782 185.866 92.782Z" fill="url(#paint11_linear_2212_59114)"/>
<path d="M200.395 104.932C198.739 104.932 197.416 104.572 196.426 103.852C195.436 103.114 194.752 102.241 194.374 101.233L196.993 100.099C197.317 100.837 197.785 101.404 198.397 101.8C199.009 102.178 199.702 102.367 200.476 102.367C201.196 102.367 201.817 102.241 202.339 101.989C202.861 101.719 203.122 101.287 203.122 100.693C203.122 100.117 202.861 99.694 202.339 99.424C201.817 99.154 201.169 98.92 200.395 98.722L198.748 98.344C198.092 98.1863 197.464 97.9315 196.885 97.588C196.322 97.259 195.842 96.8066 195.481 96.265C195.121 95.707 194.941 95.059 194.941 94.321C194.941 93.511 195.184 92.809 195.67 92.215C196.156 91.603 196.795 91.135 197.587 90.811C198.397 90.469 199.27 90.298 200.206 90.298C201.484 90.298 202.6 90.55 203.554 91.054C204.526 91.54 205.237 92.278 205.687 93.268L203.176 94.402C202.852 93.79 202.429 93.367 201.907 93.133C201.403 92.881 200.845 92.755 200.233 92.755C199.549 92.755 198.973 92.899 198.505 93.187C198.055 93.475 197.83 93.835 197.83 94.267C197.83 94.735 198.028 95.104 198.424 95.374C198.838 95.644 199.342 95.86 199.936 96.022L201.934 96.508C203.302 96.85 204.328 97.372 205.012 98.074C205.696 98.758 206.038 99.595 206.038 100.585C206.038 101.467 205.786 102.241 205.282 102.907C204.778 103.555 204.094 104.059 203.23 104.419C202.384 104.761 201.439 104.932 200.395 104.932Z" fill="url(#paint12_linear_2212_59114)"/>
<path d="M210.125 88.705C209.585 88.705 209.117 88.516 208.721 88.138C208.343 87.742 208.154 87.274 208.154 86.734C208.154 86.194 208.343 85.735 208.721 85.357C209.117 84.979 209.585 84.79 210.125 84.79C210.665 84.79 211.124 84.979 211.502 85.357C211.898 85.735 212.096 86.194 212.096 86.734C212.096 87.274 211.898 87.742 211.502 88.138C211.124 88.516 210.665 88.705 210.125 88.705ZM208.667 104.5V90.73H211.583V104.5H208.667Z" fill="url(#paint13_linear_2212_59114)"/>
<path d="M221.279 110.764C220.073 110.764 219.029 110.566 218.147 110.17C217.283 109.792 216.581 109.297 216.041 108.685C215.501 108.091 215.114 107.479 214.88 106.849L217.58 105.715C217.857 106.422 218.336 107.032 218.957 107.47C219.605 107.938 220.379 108.172 221.279 108.172C222.539 108.172 223.529 107.794 224.249 107.038C224.987 106.282 225.356 105.211 225.356 103.825V102.502H225.194C224.762 103.15 224.159 103.672 223.385 104.068C222.629 104.446 221.765 104.635 220.793 104.635C219.623 104.635 218.552 104.338 217.58 103.744C216.608 103.15 215.825 102.322 215.231 101.26C214.637 100.18 214.34 98.92 214.34 97.48C214.34 96.022 214.637 94.762 215.231 93.7C215.825 92.62 216.608 91.783 217.58 91.189C218.552 90.595 219.623 90.298 220.793 90.298C221.765 90.298 222.629 90.496 223.385 90.892C224.159 91.288 224.762 91.81 225.194 92.458H225.356V90.73H228.137V103.771C228.137 105.265 227.84 106.534 227.246 107.578C226.67 108.622 225.869 109.414 224.843 109.954C223.817 110.494 222.629 110.764 221.279 110.764ZM221.306 101.989C222.026 101.989 222.692 101.818 223.304 101.476C223.916 101.116 224.411 100.603 224.789 99.937C225.167 99.253 225.356 98.434 225.356 97.48C225.356 96.49 225.167 95.662 224.789 94.996C224.411 94.312 223.916 93.799 223.304 93.457C222.693 93.1154 222.005 92.9386 221.306 92.944C220.586 92.944 219.911 93.124 219.281 93.484C218.669 93.826 218.174 94.33 217.796 94.996C217.418 95.662 217.229 96.49 217.229 97.48C217.229 98.452 217.418 99.28 217.796 99.964C218.174 100.63 218.669 101.134 219.281 101.476C219.901 101.816 220.598 101.992 221.306 101.989Z" fill="url(#paint14_linear_2212_59114)"/>
<path d="M231.548 104.5V90.73H234.302V92.62H234.464C234.86 91.954 235.445 91.405 236.219 90.973C237.011 90.523 237.875 90.298 238.811 90.298C240.503 90.298 241.772 90.802 242.618 91.81C243.464 92.818 243.887 94.15 243.887 95.806V104.5H240.998V96.184C240.998 95.068 240.719 94.258 240.161 93.754C239.603 93.232 238.874 92.971 237.974 92.971C237.272 92.971 236.66 93.169 236.138 93.565C235.616 93.943 235.202 94.447 234.896 95.077C234.607 95.7126 234.459 96.4036 234.464 97.102V104.5H231.548Z" fill="url(#paint15_linear_2212_59114)"/>
<path d="M247.859 98.344L247.589 91.243V85.168H250.505V91.243L250.208 98.344H247.859ZM249.047 104.662C248.471 104.662 247.985 104.464 247.589 104.068C247.193 103.672 246.995 103.195 246.995 102.637C246.995 102.079 247.193 101.602 247.589 101.206C247.985 100.81 248.471 100.612 249.047 100.612C249.605 100.612 250.082 100.81 250.478 101.206C250.874 101.602 251.072 102.079 251.072 102.637C251.072 103.195 250.874 103.672 250.478 104.068C250.082 104.464 249.605 104.662 249.047 104.662Z" fill="url(#paint16_linear_2212_59114)"/>
</g>
<defs>
<linearGradient id="paint0_linear_2212_59114" x1="12" y1="110.764" x2="183.078" y2="-10.8545" gradientUnits="userSpaceOnUse">
<stop offset="0.068" stop-color="#FF3399"/>
<stop offset="0.38" stop-color="#D36DFF"/>
<stop offset="0.948" stop-color="#359BFF"/>
</linearGradient>
<linearGradient id="paint1_linear_2212_59114" x1="12" y1="110.764" x2="183.078" y2="-10.8545" gradientUnits="userSpaceOnUse">
<stop offset="0.068" stop-color="#FF3399"/>
<stop offset="0.38" stop-color="#D36DFF"/>
<stop offset="0.948" stop-color="#359BFF"/>
</linearGradient>
<linearGradient id="paint2_linear_2212_59114" x1="12.0001" y1="110.764" x2="183.078" y2="-10.8545" gradientUnits="userSpaceOnUse">
<stop offset="0.068" stop-color="#FF3399"/>
<stop offset="0.38" stop-color="#D36DFF"/>
<stop offset="0.948" stop-color="#359BFF"/>
</linearGradient>
<linearGradient id="paint3_linear_2212_59114" x1="12.0001" y1="110.764" x2="183.078" y2="-10.8545" gradientUnits="userSpaceOnUse">
<stop offset="0.068" stop-color="#FF3399"/>
<stop offset="0.38" stop-color="#D36DFF"/>
<stop offset="0.948" stop-color="#359BFF"/>
</linearGradient>
<linearGradient id="paint4_linear_2212_59114" x1="11.9999" y1="110.764" x2="183.078" y2="-10.8546" gradientUnits="userSpaceOnUse">
<stop offset="0.068" stop-color="#FF3399"/>
<stop offset="0.38" stop-color="#D36DFF"/>
<stop offset="0.948" stop-color="#359BFF"/>
</linearGradient>
<linearGradient id="paint5_linear_2212_59114" x1="11.9999" y1="110.764" x2="183.078" y2="-10.8545" gradientUnits="userSpaceOnUse">
<stop offset="0.068" stop-color="#FF3399"/>
<stop offset="0.38" stop-color="#D36DFF"/>
<stop offset="0.948" stop-color="#359BFF"/>
</linearGradient>
<linearGradient id="paint6_linear_2212_59114" x1="11.9999" y1="110.764" x2="183.078" y2="-10.8545" gradientUnits="userSpaceOnUse">
<stop offset="0.068" stop-color="#FF3399"/>
<stop offset="0.38" stop-color="#D36DFF"/>
<stop offset="0.948" stop-color="#359BFF"/>
</linearGradient>
<linearGradient id="paint7_linear_2212_59114" x1="11.9999" y1="110.764" x2="183.078" y2="-10.8545" gradientUnits="userSpaceOnUse">
<stop offset="0.068" stop-color="#FF3399"/>
<stop offset="0.38" stop-color="#D36DFF"/>
<stop offset="0.948" stop-color="#359BFF"/>
</linearGradient>
<linearGradient id="paint8_linear_2212_59114" x1="12.0001" y1="110.764" x2="183.078" y2="-10.8546" gradientUnits="userSpaceOnUse">
<stop offset="0.068" stop-color="#FF3399"/>
<stop offset="0.38" stop-color="#D36DFF"/>
<stop offset="0.948" stop-color="#359BFF"/>
</linearGradient>
<linearGradient id="paint9_linear_2212_59114" x1="12.0001" y1="110.764" x2="183.078" y2="-10.8545" gradientUnits="userSpaceOnUse">
<stop offset="0.068" stop-color="#FF3399"/>
<stop offset="0.38" stop-color="#D36DFF"/>
<stop offset="0.948" stop-color="#359BFF"/>
</linearGradient>
<linearGradient id="paint10_linear_2212_59114" x1="11.9998" y1="110.764" x2="183.078" y2="-10.8546" gradientUnits="userSpaceOnUse">
<stop offset="0.068" stop-color="#FF3399"/>
<stop offset="0.38" stop-color="#D36DFF"/>
<stop offset="0.948" stop-color="#359BFF"/>
</linearGradient>
<linearGradient id="paint11_linear_2212_59114" x1="11.9999" y1="110.764" x2="183.078" y2="-10.8545" gradientUnits="userSpaceOnUse">
<stop offset="0.068" stop-color="#FF3399"/>
<stop offset="0.38" stop-color="#D36DFF"/>
<stop offset="0.948" stop-color="#359BFF"/>
</linearGradient>
<linearGradient id="paint12_linear_2212_59114" x1="12" y1="110.764" x2="183.078" y2="-10.8545" gradientUnits="userSpaceOnUse">
<stop offset="0.068" stop-color="#FF3399"/>
<stop offset="0.38" stop-color="#D36DFF"/>
<stop offset="0.948" stop-color="#359BFF"/>
</linearGradient>
<linearGradient id="paint13_linear_2212_59114" x1="12" y1="110.764" x2="183.078" y2="-10.8545" gradientUnits="userSpaceOnUse">
<stop offset="0.068" stop-color="#FF3399"/>
<stop offset="0.38" stop-color="#D36DFF"/>
<stop offset="0.948" stop-color="#359BFF"/>
</linearGradient>
<linearGradient id="paint14_linear_2212_59114" x1="11.9999" y1="110.764" x2="183.078" y2="-10.8547" gradientUnits="userSpaceOnUse">
<stop offset="0.068" stop-color="#FF3399"/>
<stop offset="0.38" stop-color="#D36DFF"/>
<stop offset="0.948" stop-color="#359BFF"/>
</linearGradient>
<linearGradient id="paint15_linear_2212_59114" x1="12.0003" y1="110.764" x2="183.078" y2="-10.8544" gradientUnits="userSpaceOnUse">
<stop offset="0.068" stop-color="#FF3399"/>
<stop offset="0.38" stop-color="#D36DFF"/>
<stop offset="0.948" stop-color="#359BFF"/>
</linearGradient>
<linearGradient id="paint16_linear_2212_59114" x1="12.0004" y1="110.764" x2="183.078" y2="-10.8544" gradientUnits="userSpaceOnUse">
<stop offset="0.068" stop-color="#FF3399"/>
<stop offset="0.38" stop-color="#D36DFF"/>
<stop offset="0.948" stop-color="#359BFF"/>
</linearGradient>
<clipPath id="clip0_2212_59114">
<rect width="320" height="160" fill="white"/>
</clipPath>
</defs>
</svg>
