<svg width="328" height="258" viewBox="0 0 328 258" fill="none" xmlns="http://www.w3.org/2000/svg"><g clip-path="url(#a)"><path d="M32-75h40V41H32V-75Z" fill="#FDE" fill-opacity=".56"/><path d="m52 41 7-7.06M51.75-75 52 41l-.25-116ZM52 41l-7-7.06L52 41Z" stroke="#F6C"/><path d="M237 210h58v116h-58V210Z" fill="#FDE" fill-opacity=".28"/><path d="M140 228h40v116h-40V228Z" fill="#CEF"/><path d="m180 239-5 5m-35-5h40-40Zm0 0 5-5-5 5Zm0 0 5 5-5-5Zm40 0-5-5 5 5Z" stroke="#39F"/><path d="M189 228h40v20h-40v-20Z" fill="#FDE" fill-opacity=".56"/><path d="M81.184-92h99.379V33.014H81.184V-92ZM189.096 27.491H295v31.63H189.096v-31.63ZM33 211.986h99.379V337H33V211.986Z" stroke="#F6C" stroke-dasharray="2 2"/><path d="M189-18h106v37H189v-37Z" fill="#CEF"/><path d="m195 53 25-26m-25 13.883V53 40.883ZM195 53h11.65H195Z" stroke="#F6C" stroke-dasharray="2 2"/></g><defs><clipPath id="a"><path fill="#fff" d="M0 0h328v258H0z"/></clipPath></defs></svg>
