<svg width="640" height="320" fill="none" xmlns="http://www.w3.org/2000/svg"><g clip-path="url(#a)"><path fill="#fff" d="M0 0h640v320H0z"/><g clip-path="url(#b)"><path fill="#FDE" fill-opacity=".56" d="M130-176h80V54h-80z"/><path d="m169.5-176 .5 230m0 0-14-14m14 14 14-14" stroke="#F6C"/><path fill="#FDE" fill-opacity=".28" d="M537 230h116v230H537z"/><path fill="#CEF" d="M345 266h80v230h-80z"/><path d="M345 287h80m-80 0 10-10m-10 10 10 10m70-10-10-10m10 10-10 10" stroke="#39F"/><path fill="#FDE" fill-opacity=".56" d="M441 266h80v40h-80z"/><path stroke="#F6C" stroke-dasharray="2 2" d="M226.5-211.5h198v249h-198zM130.5 266.5h198v249h-198zM441.5 26.5h211v63h-211z"/><path fill="#CEF" d="M441-64h212v74H441z"/><path d="M453 54v24m0 0h24m-24 0 51.5-51.5" stroke="#F6C" stroke-dasharray="2 2"/></g><path d="M24 110h6.12v33.279h16.776v5.847H24V110ZM63.76 150c-2.66 0-5.064-.619-7.213-1.858-2.113-1.239-3.771-2.951-4.973-5.137-1.202-2.222-1.803-4.699-1.803-7.431 0-2.623.564-5.028 1.694-7.213 1.165-2.223 2.786-3.971 4.863-5.246 2.076-1.312 4.444-1.967 7.104-1.967 2.732 0 5.1.601 7.104 1.803 2.04 1.202 3.588 2.878 4.644 5.027 1.057 2.113 1.585 4.554 1.585 7.323 0 .327-.018.655-.055.983-.036.328-.054.51-.054.547H55.78c.183 2.477 1.075 4.389 2.678 5.737 1.603 1.348 3.424 2.022 5.465 2.022 3.133 0 5.537-1.457 7.213-4.371l5.136 2.459a14.196 14.196 0 0 1-5.027 5.355C69.133 149.344 66.638 150 63.76 150Zm6.885-17.76c-.073-.874-.364-1.766-.874-2.677s-1.312-1.676-2.405-2.295c-1.056-.656-2.386-.984-3.989-.984-1.785 0-3.333.547-4.645 1.639-1.275 1.093-2.149 2.532-2.623 4.317h14.536ZM90.886 150c-1.931 0-3.68-.383-5.246-1.148-1.53-.801-2.75-1.894-3.661-3.278-.875-1.421-1.312-3.024-1.312-4.809 0-2.842 1.057-5.082 3.17-6.721 2.149-1.64 4.863-2.459 8.142-2.459 2.877 0 5.337.492 7.377 1.475v-1.147c0-1.64-.656-2.988-1.968-4.044-1.275-1.093-2.823-1.639-4.644-1.639-2.77 0-4.991 1.129-6.667 3.387l-4.59-3.169a12.722 12.722 0 0 1 4.754-3.934c1.93-.911 4.098-1.366 6.503-1.366 3.97 0 7.03 1.001 9.18 3.005 2.186 1.967 3.279 4.754 3.279 8.361v16.612h-5.847v-3.334h-.328a10.735 10.735 0 0 1-3.334 3.06c-1.347.765-2.95 1.148-4.808 1.148Zm.983-4.973a7.275 7.275 0 0 0 3.716-.983c1.166-.692 2.077-1.585 2.732-2.678.693-1.129 1.039-2.331 1.039-3.606a12.664 12.664 0 0 0-6.175-1.585c-2.004 0-3.57.437-4.7 1.311-1.129.875-1.694 1.986-1.694 3.334 0 1.238.492 2.258 1.476 3.06 1.02.765 2.222 1.147 3.606 1.147ZM111.549 122.022h5.683v4.044h.328c.582-1.385 1.639-2.532 3.169-3.443 1.53-.947 3.097-1.421 4.699-1.421 1.312 0 2.387.182 3.224.547v6.284c-1.238-.62-2.622-.929-4.153-.929-1.967 0-3.624.765-4.972 2.295-1.312 1.494-1.967 3.333-1.967 5.519v14.208h-6.011v-27.104ZM133.054 122.022h5.683v3.606h.328c.802-1.311 1.968-2.386 3.498-3.224 1.53-.838 3.187-1.256 4.972-1.256 3.352 0 5.884.983 7.596 2.95 1.749 1.968 2.623 4.682 2.623 8.142v16.886h-6.011V133.06c0-4.262-1.986-6.393-5.956-6.393-2.004 0-3.625.801-4.864 2.404-1.238 1.603-1.858 3.497-1.858 5.683v14.372h-6.011v-27.104Z" fill="#3C4043"/><path d="M24 209v-38.664h13.554c2.376 0 4.5.504 6.372 1.512 1.872 1.008 3.348 2.412 4.428 4.212 1.116 1.764 1.674 3.798 1.674 6.102 0 2.52-.792 4.806-2.376 6.858-1.548 2.016-3.744 3.42-6.588 4.212l10.746 15.444V209h-6.858l-10.314-15.174H29.94V209H24Zm13.608-33.102H29.94v12.474h7.452c1.836 0 3.402-.576 4.698-1.728 1.296-1.188 1.944-2.7 1.944-4.536a6.175 6.175 0 0 0-.756-2.97 5.721 5.721 0 0 0-2.214-2.322c-.936-.612-2.088-.918-3.456-.918Z" fill="url(#c)"/><path d="M68.042 209.864c-2.7 0-5.112-.63-7.236-1.89-2.124-1.26-3.798-2.988-5.022-5.184-1.188-2.196-1.782-4.698-1.782-7.506 0-2.628.576-5.058 1.728-7.29 1.152-2.232 2.754-4.014 4.806-5.346 2.088-1.368 4.482-2.052 7.182-2.052 2.844 0 5.256.612 7.236 1.836a11.896 11.896 0 0 1 4.59 5.022c1.044 2.124 1.566 4.518 1.566 7.182 0 .396-.018.756-.054 1.08 0 .324-.018.576-.054.756H59.726c.288 2.736 1.242 4.788 2.862 6.156 1.656 1.368 3.528 2.052 5.616 2.052 1.872 0 3.42-.414 4.644-1.242a9.848 9.848 0 0 0 2.916-3.186l4.806 2.322a14.902 14.902 0 0 1-4.86 5.292c-2.052 1.332-4.608 1.998-7.668 1.998Zm-.27-24.3c-1.944 0-3.6.594-4.968 1.782-1.368 1.188-2.286 2.772-2.754 4.752h15.282c-.072-.936-.378-1.908-.918-2.916s-1.368-1.854-2.484-2.538c-1.08-.72-2.466-1.08-4.158-1.08Z" fill="url(#d)"/><path d="M96.828 209.864c-3.312 0-5.958-.72-7.938-2.16-1.98-1.476-3.348-3.222-4.104-5.238l5.238-2.268c.648 1.476 1.584 2.61 2.808 3.402 1.224.756 2.61 1.134 4.158 1.134 1.44 0 2.682-.252 3.726-.756 1.044-.54 1.566-1.404 1.566-2.592 0-1.152-.522-1.998-1.566-2.538-1.044-.54-2.34-1.008-3.888-1.404l-3.294-.756a13.507 13.507 0 0 1-3.726-1.512A8.599 8.599 0 0 1 87 192.53c-.72-1.116-1.08-2.412-1.08-3.888 0-1.62.486-3.024 1.458-4.212.972-1.224 2.25-2.16 3.834-2.808 1.62-.684 3.366-1.026 5.238-1.026 2.556 0 4.788.504 6.696 1.512 1.944.972 3.366 2.448 4.266 4.428l-5.022 2.268c-.648-1.224-1.494-2.07-2.538-2.538-1.008-.504-2.124-.756-3.348-.756-1.368 0-2.52.288-3.456.864-.9.576-1.35 1.296-1.35 2.16 0 .936.396 1.674 1.188 2.214.828.54 1.836.972 3.024 1.296l3.996.972c2.736.684 4.788 1.728 6.156 3.132 1.368 1.368 2.052 3.042 2.052 5.022 0 1.764-.504 3.312-1.512 4.644-1.008 1.296-2.376 2.304-4.104 3.024-1.692.684-3.582 1.026-5.67 1.026Z" fill="url(#e)"/><path d="M112.886 220.664V181.46h5.454v3.726h.324c.72-1.188 1.836-2.25 3.348-3.186 1.548-.936 3.384-1.404 5.508-1.404 2.52 0 4.77.63 6.75 1.89 1.98 1.26 3.546 2.988 4.698 5.184 1.188 2.196 1.782 4.716 1.782 7.56 0 2.844-.594 5.382-1.782 7.614-1.152 2.196-2.718 3.924-4.698 5.184-1.98 1.224-4.23 1.836-6.75 1.836-2.124 0-3.96-.45-5.508-1.35-1.512-.936-2.628-1.998-3.348-3.186h-.324l.324 3.834v11.502h-5.778Zm13.77-16.146c1.44 0 2.79-.378 4.05-1.134 1.26-.756 2.286-1.818 3.078-3.186.792-1.404 1.188-3.06 1.188-4.968s-.396-3.546-1.188-4.914c-.792-1.404-1.818-2.484-3.078-3.24a7.738 7.738 0 0 0-4.05-1.134c-1.44 0-2.79.378-4.05 1.134-1.26.756-2.286 1.836-3.078 3.24-.792 1.368-1.188 3.006-1.188 4.914s.396 3.564 1.188 4.968c.792 1.368 1.818 2.43 3.078 3.186a7.738 7.738 0 0 0 4.05 1.134Z" fill="url(#f)"/><path d="M159.07 209.864c-2.844 0-5.346-.648-7.506-1.944a13.901 13.901 0 0 1-5.076-5.238c-1.224-2.196-1.836-4.68-1.836-7.452 0-2.736.612-5.202 1.836-7.398 1.224-2.232 2.916-3.996 5.076-5.292 2.16-1.296 4.662-1.944 7.506-1.944 2.808 0 5.292.648 7.452 1.944 2.16 1.296 3.852 3.06 5.076 5.292 1.224 2.196 1.836 4.662 1.836 7.398 0 2.772-.612 5.256-1.836 7.452a13.901 13.901 0 0 1-5.076 5.238c-2.16 1.296-4.644 1.944-7.452 1.944Zm0-5.346c1.512 0 2.916-.36 4.212-1.08 1.296-.756 2.34-1.818 3.132-3.186.828-1.404 1.242-3.078 1.242-5.022 0-1.944-.414-3.6-1.242-4.968-.792-1.404-1.836-2.466-3.132-3.186a8.215 8.215 0 0 0-4.212-1.134 8.506 8.506 0 0 0-4.266 1.134c-1.296.72-2.358 1.782-3.186 3.186-.792 1.368-1.188 3.024-1.188 4.968s.396 3.618 1.188 5.022c.828 1.368 1.89 2.43 3.186 3.186a8.837 8.837 0 0 0 4.266 1.08Z" fill="url(#g)"/><path d="M178.278 209v-27.54h5.508v3.78h.324c.792-1.332 1.962-2.43 3.51-3.294 1.584-.9 3.312-1.35 5.184-1.35 3.384 0 5.922 1.008 7.614 3.024 1.692 2.016 2.538 4.68 2.538 7.992V209h-5.778v-16.632c0-2.232-.558-3.852-1.674-4.86-1.116-1.044-2.574-1.566-4.374-1.566-1.404 0-2.628.396-3.672 1.188-1.044.756-1.872 1.764-2.484 3.024a9.625 9.625 0 0 0-.864 4.05V209h-5.832Z" fill="url(#h)"/><path d="M219.383 209.864c-3.312 0-5.958-.72-7.938-2.16-1.98-1.476-3.348-3.222-4.104-5.238l5.238-2.268c.648 1.476 1.584 2.61 2.808 3.402 1.224.756 2.61 1.134 4.158 1.134 1.44 0 2.682-.252 3.726-.756 1.044-.54 1.566-1.404 1.566-2.592 0-1.152-.522-1.998-1.566-2.538-1.044-.54-2.34-1.008-3.888-1.404l-3.294-.756a13.507 13.507 0 0 1-3.726-1.512 8.599 8.599 0 0 1-2.808-2.646c-.72-1.116-1.08-2.412-1.08-3.888 0-1.62.486-3.024 1.458-4.212.972-1.224 2.25-2.16 3.834-2.808 1.62-.684 3.366-1.026 5.238-1.026 2.556 0 4.788.504 6.696 1.512 1.944.972 3.366 2.448 4.266 4.428l-5.022 2.268c-.648-1.224-1.494-2.07-2.538-2.538-1.008-.504-2.124-.756-3.348-.756-1.368 0-2.52.288-3.456.864-.9.576-1.35 1.296-1.35 2.16 0 .936.396 1.674 1.188 2.214.828.54 1.836.972 3.024 1.296l3.996.972c2.736.684 4.788 1.728 6.156 3.132 1.368 1.368 2.052 3.042 2.052 5.022 0 1.764-.504 3.312-1.512 4.644-1.008 1.296-2.376 2.304-4.104 3.024-1.692.684-3.582 1.026-5.67 1.026Z" fill="url(#i)"/><path d="M238.843 177.41c-1.08 0-2.016-.378-2.808-1.134-.756-.792-1.134-1.728-1.134-2.808 0-1.08.378-1.998 1.134-2.754.792-.756 1.728-1.134 2.808-1.134 1.08 0 1.998.378 2.754 1.134.792.756 1.188 1.674 1.188 2.754s-.396 2.016-1.188 2.808c-.756.756-1.674 1.134-2.754 1.134ZM235.927 209v-27.54h5.832V209h-5.832Z" fill="url(#j)"/><path d="m257.365 209-11.394-27.54h6.48l7.722 20.034h.27l7.884-20.034h6.372L263.197 209h-5.832Z" fill="url(#k)"/><path d="M290.264 209.864c-2.7 0-5.112-.63-7.236-1.89-2.124-1.26-3.798-2.988-5.022-5.184-1.188-2.196-1.782-4.698-1.782-7.506 0-2.628.576-5.058 1.728-7.29 1.152-2.232 2.754-4.014 4.806-5.346 2.088-1.368 4.482-2.052 7.182-2.052 2.844 0 5.256.612 7.236 1.836a11.896 11.896 0 0 1 4.59 5.022c1.044 2.124 1.566 4.518 1.566 7.182 0 .396-.018.756-.054 1.08 0 .324-.018.576-.054.756h-21.276c.288 2.736 1.242 4.788 2.862 6.156 1.656 1.368 3.528 2.052 5.616 2.052 1.872 0 3.42-.414 4.644-1.242a9.848 9.848 0 0 0 2.916-3.186l4.806 2.322a14.902 14.902 0 0 1-4.86 5.292c-2.052 1.332-4.608 1.998-7.668 1.998Zm-.27-24.3c-1.944 0-3.6.594-4.968 1.782-1.368 1.188-2.286 2.772-2.754 4.752h15.282c-.072-.936-.378-1.908-.918-2.916s-1.368-1.854-2.484-2.538c-1.08-.72-2.466-1.08-4.158-1.08Z" fill="url(#l)"/><path d="M322.318 209v-38.664h12.366c4.068 0 7.56.828 10.476 2.484 2.952 1.62 5.22 3.888 6.804 6.804 1.62 2.916 2.43 6.264 2.43 10.044 0 3.816-.81 7.182-2.43 10.098-1.584 2.88-3.852 5.148-6.804 6.804-2.916 1.62-6.408 2.43-10.476 2.43h-12.366Zm5.94-5.616h6.264c4.392 0 7.794-1.224 10.206-3.672 2.448-2.448 3.672-5.796 3.672-10.044s-1.224-7.596-3.672-10.044c-2.412-2.448-5.814-3.672-10.206-3.672h-6.264v27.432Z" fill="url(#m)"/><path d="M372.003 209.864c-2.7 0-5.112-.63-7.236-1.89-2.124-1.26-3.798-2.988-5.022-5.184-1.188-2.196-1.782-4.698-1.782-7.506 0-2.628.576-5.058 1.728-7.29 1.152-2.232 2.754-4.014 4.806-5.346 2.088-1.368 4.482-2.052 7.182-2.052 2.844 0 5.256.612 7.236 1.836a11.896 11.896 0 0 1 4.59 5.022c1.044 2.124 1.566 4.518 1.566 7.182 0 .396-.018.756-.054 1.08 0 .324-.018.576-.054.756h-21.276c.288 2.736 1.242 4.788 2.862 6.156 1.656 1.368 3.528 2.052 5.616 2.052 1.872 0 3.42-.414 4.644-1.242a9.848 9.848 0 0 0 2.916-3.186l4.806 2.322a14.902 14.902 0 0 1-4.86 5.292c-2.052 1.332-4.608 1.998-7.668 1.998Zm-.27-24.3c-1.944 0-3.6.594-4.968 1.782-1.368 1.188-2.286 2.772-2.754 4.752h15.282c-.072-.936-.378-1.908-.918-2.916s-1.368-1.854-2.484-2.538c-1.08-.72-2.466-1.08-4.158-1.08Z" fill="url(#n)"/><path d="M400.789 209.864c-3.312 0-5.958-.72-7.938-2.16-1.98-1.476-3.348-3.222-4.104-5.238l5.238-2.268c.648 1.476 1.584 2.61 2.808 3.402 1.224.756 2.61 1.134 4.158 1.134 1.44 0 2.682-.252 3.726-.756 1.044-.54 1.566-1.404 1.566-2.592 0-1.152-.522-1.998-1.566-2.538-1.044-.54-2.34-1.008-3.888-1.404l-3.294-.756a13.507 13.507 0 0 1-3.726-1.512 8.599 8.599 0 0 1-2.808-2.646c-.72-1.116-1.08-2.412-1.08-3.888 0-1.62.486-3.024 1.458-4.212.972-1.224 2.25-2.16 3.834-2.808 1.62-.684 3.366-1.026 5.238-1.026 2.556 0 4.788.504 6.696 1.512 1.944.972 3.366 2.448 4.266 4.428l-5.022 2.268c-.648-1.224-1.494-2.07-2.538-2.538-1.008-.504-2.124-.756-3.348-.756-1.368 0-2.52.288-3.456.864-.9.576-1.35 1.296-1.35 2.16 0 .936.396 1.674 1.188 2.214.828.54 1.836.972 3.024 1.296l3.996.972c2.736.684 4.788 1.728 6.156 3.132 1.368 1.368 2.052 3.042 2.052 5.022 0 1.764-.504 3.312-1.512 4.644-1.008 1.296-2.376 2.304-4.104 3.024-1.692.684-3.582 1.026-5.67 1.026Z" fill="url(#o)"/><path d="M420.249 177.41c-1.08 0-2.016-.378-2.808-1.134-.756-.792-1.134-1.728-1.134-2.808 0-1.08.378-1.998 1.134-2.754.792-.756 1.728-1.134 2.808-1.134 1.08 0 1.998.378 2.754 1.134.792.756 1.188 1.674 1.188 2.754s-.396 2.016-1.188 2.808c-.756.756-1.674 1.134-2.754 1.134ZM417.333 209v-27.54h5.832V209h-5.832Z" fill="url(#p)"/><path d="M442.557 221.528c-2.412 0-4.5-.396-6.264-1.188-1.728-.756-3.132-1.746-4.212-2.97-1.08-1.188-1.854-2.412-2.322-3.672l5.4-2.268a7.777 7.777 0 0 0 2.754 3.51c1.296.936 2.844 1.404 4.644 1.404 2.52 0 4.5-.756 5.94-2.268 1.476-1.512 2.214-3.654 2.214-6.426v-2.646h-.324c-.864 1.296-2.07 2.34-3.618 3.132-1.512.756-3.24 1.134-5.184 1.134-2.34 0-4.482-.594-6.426-1.782-1.944-1.188-3.51-2.844-4.698-4.968-1.188-2.16-1.782-4.68-1.782-7.56 0-2.916.594-5.436 1.782-7.56 1.188-2.16 2.754-3.834 4.698-5.022 1.944-1.188 4.086-1.782 6.426-1.782 1.944 0 3.672.396 5.184 1.188 1.548.792 2.754 1.836 3.618 3.132h.324v-3.456h5.562v26.082c0 2.988-.594 5.526-1.782 7.614-1.152 2.088-2.754 3.672-4.806 4.752-2.052 1.08-4.428 1.62-7.128 1.62Zm.054-17.55c1.44 0 2.772-.342 3.996-1.026 1.224-.72 2.214-1.746 2.97-3.078.756-1.368 1.134-3.006 1.134-4.914 0-1.98-.378-3.636-1.134-4.968-.756-1.368-1.746-2.394-2.97-3.078a8.055 8.055 0 0 0-3.996-1.026c-1.44 0-2.79.36-4.05 1.08-1.224.684-2.214 1.692-2.97 3.024-.756 1.332-1.134 2.988-1.134 4.968 0 1.944.378 3.6 1.134 4.968.756 1.332 1.746 2.34 2.97 3.024a8.36 8.36 0 0 0 4.05 1.026Z" fill="url(#q)"/><path d="M463.096 209v-27.54h5.508v3.78h.324c.792-1.332 1.962-2.43 3.51-3.294 1.584-.9 3.312-1.35 5.184-1.35 3.384 0 5.922 1.008 7.614 3.024 1.692 2.016 2.538 4.68 2.538 7.992V209h-5.778v-16.632c0-2.232-.558-3.852-1.674-4.86-1.116-1.044-2.574-1.566-4.374-1.566-1.404 0-2.628.396-3.672 1.188-1.044.756-1.872 1.764-2.484 3.024a9.625 9.625 0 0 0-.864 4.05V209h-5.832Z" fill="url(#r)"/><path d="m495.717 196.688-.54-14.202v-12.15h5.832v12.15l-.594 14.202h-4.698Zm2.376 12.636c-1.152 0-2.124-.396-2.916-1.188-.792-.792-1.188-1.746-1.188-2.862s.396-2.07 1.188-2.862c.792-.792 1.764-1.188 2.916-1.188 1.116 0 2.07.396 2.862 1.188.792.792 1.188 1.746 1.188 2.862s-.396 2.07-1.188 2.862c-.792.792-1.746 1.188-2.862 1.188Z" fill="url(#s)"/></g><defs><linearGradient id="c" x1="24" y1="221.528" x2="366.156" y2="-21.709" gradientUnits="userSpaceOnUse"><stop offset=".068" stop-color="#F39"/><stop offset=".38" stop-color="#93F"/><stop offset=".948" stop-color="#06F"/></linearGradient><linearGradient id="d" x1="24" y1="221.528" x2="366.156" y2="-21.709" gradientUnits="userSpaceOnUse"><stop offset=".068" stop-color="#F39"/><stop offset=".38" stop-color="#93F"/><stop offset=".948" stop-color="#06F"/></linearGradient><linearGradient id="e" x1="24" y1="221.528" x2="366.156" y2="-21.709" gradientUnits="userSpaceOnUse"><stop offset=".068" stop-color="#F39"/><stop offset=".38" stop-color="#93F"/><stop offset=".948" stop-color="#06F"/></linearGradient><linearGradient id="f" x1="24" y1="221.528" x2="366.156" y2="-21.709" gradientUnits="userSpaceOnUse"><stop offset=".068" stop-color="#F39"/><stop offset=".38" stop-color="#93F"/><stop offset=".948" stop-color="#06F"/></linearGradient><linearGradient id="g" x1="24" y1="221.528" x2="366.156" y2="-21.709" gradientUnits="userSpaceOnUse"><stop offset=".068" stop-color="#F39"/><stop offset=".38" stop-color="#93F"/><stop offset=".948" stop-color="#06F"/></linearGradient><linearGradient id="h" x1="24" y1="221.528" x2="366.156" y2="-21.709" gradientUnits="userSpaceOnUse"><stop offset=".068" stop-color="#F39"/><stop offset=".38" stop-color="#93F"/><stop offset=".948" stop-color="#06F"/></linearGradient><linearGradient id="i" x1="24" y1="221.528" x2="366.156" y2="-21.709" gradientUnits="userSpaceOnUse"><stop offset=".068" stop-color="#F39"/><stop offset=".38" stop-color="#93F"/><stop offset=".948" stop-color="#06F"/></linearGradient><linearGradient id="j" x1="24" y1="221.528" x2="366.156" y2="-21.709" gradientUnits="userSpaceOnUse"><stop offset=".068" stop-color="#F39"/><stop offset=".38" stop-color="#93F"/><stop offset=".948" stop-color="#06F"/></linearGradient><linearGradient id="k" x1="24" y1="221.528" x2="366.156" y2="-21.709" gradientUnits="userSpaceOnUse"><stop offset=".068" stop-color="#F39"/><stop offset=".38" stop-color="#93F"/><stop offset=".948" stop-color="#06F"/></linearGradient><linearGradient id="l" x1="24" y1="221.528" x2="366.156" y2="-21.709" gradientUnits="userSpaceOnUse"><stop offset=".068" stop-color="#F39"/><stop offset=".38" stop-color="#93F"/><stop offset=".948" stop-color="#06F"/></linearGradient><linearGradient id="m" x1="24" y1="221.528" x2="366.156" y2="-21.709" gradientUnits="userSpaceOnUse"><stop offset=".068" stop-color="#F39"/><stop offset=".38" stop-color="#93F"/><stop offset=".948" stop-color="#06F"/></linearGradient><linearGradient id="n" x1="24" y1="221.528" x2="366.156" y2="-21.709" gradientUnits="userSpaceOnUse"><stop offset=".068" stop-color="#F39"/><stop offset=".38" stop-color="#93F"/><stop offset=".948" stop-color="#06F"/></linearGradient><linearGradient id="o" x1="24" y1="221.528" x2="366.156" y2="-21.709" gradientUnits="userSpaceOnUse"><stop offset=".068" stop-color="#F39"/><stop offset=".38" stop-color="#93F"/><stop offset=".948" stop-color="#06F"/></linearGradient><linearGradient id="p" x1="24" y1="221.528" x2="366.156" y2="-21.709" gradientUnits="userSpaceOnUse"><stop offset=".068" stop-color="#F39"/><stop offset=".38" stop-color="#93F"/><stop offset=".948" stop-color="#06F"/></linearGradient><linearGradient id="q" x1="24" y1="221.528" x2="366.156" y2="-21.709" gradientUnits="userSpaceOnUse"><stop offset=".068" stop-color="#F39"/><stop offset=".38" stop-color="#93F"/><stop offset=".948" stop-color="#06F"/></linearGradient><linearGradient id="r" x1="24" y1="221.528" x2="366.156" y2="-21.709" gradientUnits="userSpaceOnUse"><stop offset=".068" stop-color="#F39"/><stop offset=".38" stop-color="#93F"/><stop offset=".948" stop-color="#06F"/></linearGradient><linearGradient id="s" x1="24" y1="221.528" x2="366.156" y2="-21.709" gradientUnits="userSpaceOnUse"><stop offset=".068" stop-color="#F39"/><stop offset=".38" stop-color="#93F"/><stop offset=".948" stop-color="#06F"/></linearGradient><clipPath id="a"><path fill="#fff" d="M0 0h640v320H0z"/></clipPath><clipPath id="b"><path fill="#fff" transform="translate(0 -160)" d="M0 0h640v640H0z"/></clipPath></defs></svg>