<svg viewBox="0 0 240 70" width="240" height="70" preserveAspectRatio="xMinYMid meet" fill="none" xmlns="http://www.w3.org/2000/svg"><path d="M0 10h3.06v16.64h8.388v2.923H0V10ZM19.88 30c-1.33 0-2.532-.31-3.607-.929a6.61 6.61 0 0 1-2.486-2.568c-.601-1.111-.902-2.35-.902-3.716 0-1.312.283-2.514.847-3.607a6.624 6.624 0 0 1 2.432-2.623c1.038-.655 2.222-.983 3.552-.983 1.366 0 2.55.3 3.552.901a5.847 5.847 0 0 1 2.322 2.514c.528 1.056.793 2.277.793 3.661 0 .164-.01.328-.028.492a5.822 5.822 0 0 0-.027.273H15.89c.09 1.239.537 2.195 1.339 2.87.801.673 1.712 1.01 2.732 1.01 1.566 0 2.768-.729 3.606-2.186l2.569 1.23a7.097 7.097 0 0 1-2.514 2.677c-1.056.656-2.304.984-3.743.984Zm3.442-8.88c-.036-.437-.182-.883-.437-1.339-.255-.455-.655-.837-1.202-1.147-.528-.328-1.193-.492-1.994-.492-.893 0-1.667.273-2.323.82-.637.546-1.075 1.266-1.311 2.158h7.267ZM33.443 30c-.966 0-1.84-.191-2.623-.574a4.83 4.83 0 0 1-1.83-1.64c-.438-.71-.656-1.511-.656-2.404 0-1.42.528-2.54 1.584-3.36 1.075-.82 2.432-1.23 4.071-1.23 1.44 0 2.669.246 3.689.738v-.574c0-.82-.328-1.493-.984-2.022-.637-.546-1.412-.82-2.322-.82-1.385 0-2.496.565-3.334 1.695l-2.295-1.585a6.365 6.365 0 0 1 2.377-1.967c.966-.456 2.05-.683 3.252-.683 1.985 0 3.515.5 4.59 1.502 1.093.984 1.64 2.378 1.64 4.18v8.307h-2.924v-1.667h-.164a5.372 5.372 0 0 1-1.667 1.53c-.674.383-1.475.574-2.404.574Zm.492-2.486c.674 0 1.293-.164 1.858-.492a3.853 3.853 0 0 0 1.366-1.339c.346-.565.519-1.166.519-1.803a6.334 6.334 0 0 0-3.088-.793c-1.001 0-1.785.219-2.35.656-.564.437-.846.993-.846 1.667 0 .62.246 1.13.737 1.53.51.382 1.111.574 1.804.574ZM43.774 16.01h2.842v2.023h.164c.291-.692.82-1.266 1.584-1.722.766-.473 1.549-.71 2.35-.71.656 0 1.193.091 1.612.273v3.142c-.62-.31-1.311-.464-2.076-.464-.984 0-1.813.382-2.487 1.148-.655.746-.983 1.666-.983 2.759v7.104h-3.006V16.01ZM54.527 16.01h2.842v1.804h.164c.4-.655.983-1.193 1.748-1.612a5.093 5.093 0 0 1 2.487-.628c1.675 0 2.941.492 3.797 1.475.875.984 1.312 2.34 1.312 4.071v8.443h-3.005V21.53c0-2.131-.993-3.197-2.979-3.197-1.002 0-1.812.401-2.431 1.203-.62.801-.93 1.748-.93 2.841v7.186h-3.005V16.01Z" fill="#3C4043"/><path d="M0 59.31V39.958h6.784c1.189 0 2.252.253 3.189.757a5.67 5.67 0 0 1 2.216 2.108c.559.883.838 1.901.838 3.054 0 1.262-.396 2.406-1.19 3.433-.774 1.009-1.873 1.712-3.296 2.108l5.378 7.73v.162h-3.433l-5.162-7.595H2.973v7.595H0Zm6.81-16.568H2.974v6.244h3.73c.919 0 1.702-.289 2.351-.865.649-.595.973-1.352.973-2.27a3.09 3.09 0 0 0-.378-1.487 2.863 2.863 0 0 0-1.108-1.162c-.469-.307-1.046-.46-1.73-.46Z" fill="url(#a)"/><path d="M22.043 59.742c-1.351 0-2.559-.315-3.622-.946a6.82 6.82 0 0 1-2.513-2.594c-.595-1.1-.892-2.352-.892-3.757 0-1.315.288-2.532.865-3.649a6.903 6.903 0 0 1 2.405-2.675c1.045-.685 2.243-1.027 3.595-1.027 1.423 0 2.63.306 3.621.919a5.954 5.954 0 0 1 2.298 2.513c.522 1.063.783 2.261.783 3.595 0 .198-.009.378-.027.54 0 .162-.009.288-.027.378H17.881c.144 1.37.621 2.397 1.432 3.082.829.684 1.766 1.027 2.81 1.027.938 0 1.713-.208 2.325-.622a4.927 4.927 0 0 0 1.46-1.595l2.405 1.163a7.457 7.457 0 0 1-2.432 2.648c-1.027.667-2.307 1-3.838 1Zm-.135-12.162c-.973 0-1.802.297-2.487.892-.684.595-1.144 1.387-1.378 2.378h7.649c-.037-.468-.19-.955-.46-1.46-.27-.504-.685-.927-1.243-1.27-.54-.36-1.234-.54-2.081-.54Z" fill="url(#b)"/><path d="M36.45 59.742c-1.657 0-2.982-.36-3.973-1.08-.99-.74-1.675-1.614-2.054-2.623l2.622-1.135c.324.74.793 1.307 1.405 1.703.613.379 1.307.568 2.081.568.721 0 1.343-.127 1.865-.379.523-.27.784-.702.784-1.297 0-.577-.261-1-.784-1.27-.522-.27-1.17-.505-1.946-.703l-1.648-.378a6.759 6.759 0 0 1-1.865-.757 4.304 4.304 0 0 1-1.405-1.324c-.36-.559-.541-1.208-.541-1.946 0-.811.243-1.514.73-2.108.486-.613 1.126-1.082 1.919-1.406a6.67 6.67 0 0 1 2.621-.513c1.28 0 2.397.252 3.351.756a4.483 4.483 0 0 1 2.136 2.217l-2.514 1.135c-.324-.613-.748-1.036-1.27-1.27a3.695 3.695 0 0 0-1.676-.379c-.684 0-1.261.144-1.73.433-.45.288-.675.648-.675 1.08 0 .469.198.838.594 1.109.415.27.92.486 1.514.648l2 .487c1.37.342 2.396.865 3.081 1.567.685.685 1.027 1.523 1.027 2.514 0 .883-.252 1.657-.757 2.324-.504.649-1.189 1.153-2.054 1.514-.847.342-1.793.513-2.838.513Z" fill="url(#c)"/><path d="M44.487 65.148V45.526h2.73v1.865h.162c.36-.595.92-1.126 1.676-1.595.775-.468 1.694-.702 2.757-.702 1.261 0 2.387.315 3.378.945.991.631 1.775 1.496 2.352 2.595.594 1.1.892 2.36.892 3.784 0 1.423-.298 2.694-.892 3.81-.577 1.1-1.36 1.965-2.352 2.595-.99.613-2.117.92-3.378.92-1.063 0-1.982-.226-2.757-.676-.757-.469-1.315-1-1.676-1.595h-.162l.162 1.919v5.757h-2.892Zm6.892-8.081c.721 0 1.397-.19 2.028-.568.63-.378 1.144-.91 1.54-1.595.396-.702.595-1.531.595-2.486 0-.955-.199-1.775-.595-2.46-.396-.702-.91-1.243-1.54-1.621a3.874 3.874 0 0 0-2.028-.568c-.72 0-1.396.19-2.027.568-.63.378-1.144.919-1.54 1.621-.396.685-.595 1.505-.595 2.46 0 .955.199 1.784.595 2.486.396.685.91 1.217 1.54 1.595.631.378 1.307.568 2.027.568Z" fill="url(#d)"/><path d="M67.603 59.742c-1.424 0-2.676-.324-3.757-.973a6.958 6.958 0 0 1-2.54-2.621c-.613-1.1-.92-2.343-.92-3.73 0-1.37.307-2.604.92-3.703.612-1.117 1.459-2 2.54-2.648 1.08-.65 2.333-.973 3.757-.973 1.405 0 2.648.324 3.73.973a6.903 6.903 0 0 1 2.54 2.648c.612 1.1.919 2.333.919 3.703 0 1.387-.306 2.63-.92 3.73a6.958 6.958 0 0 1-2.54 2.621c-1.08.649-2.324.973-3.73.973Zm0-2.675c.756 0 1.46-.18 2.108-.541a4.296 4.296 0 0 0 1.567-1.595c.415-.702.622-1.54.622-2.513 0-.973-.207-1.802-.622-2.487-.396-.702-.919-1.234-1.567-1.594a4.112 4.112 0 0 0-2.108-.568c-.757 0-1.469.19-2.135.568-.65.36-1.18.892-1.595 1.594-.396.685-.595 1.514-.595 2.487 0 .973.199 1.81.595 2.513a4.505 4.505 0 0 0 1.595 1.595c.666.36 1.378.54 2.135.54Z" fill="url(#e)"/><path d="M77.216 59.31V45.526h2.757v1.892h.162c.396-.667.982-1.216 1.757-1.649a5.162 5.162 0 0 1 2.595-.675c1.693 0 2.964.504 3.81 1.513.847 1.01 1.27 2.342 1.27 4v8.703h-2.891v-8.325c0-1.117-.28-1.927-.838-2.432-.559-.522-1.288-.784-2.19-.784-.702 0-1.315.199-1.837.595a3.967 3.967 0 0 0-1.243 1.513 4.817 4.817 0 0 0-.433 2.027v7.406h-2.919Z" fill="url(#f)"/><path d="M97.79 59.742c-1.659 0-2.983-.36-3.974-1.08-.99-.74-1.676-1.614-2.054-2.623l2.622-1.135c.324.74.793 1.307 1.405 1.703.613.379 1.306.568 2.081.568.72 0 1.343-.127 1.865-.379.523-.27.784-.702.784-1.297 0-.577-.261-1-.784-1.27-.522-.27-1.171-.505-1.946-.703l-1.649-.378a6.759 6.759 0 0 1-1.864-.757 4.305 4.305 0 0 1-1.406-1.324c-.36-.559-.54-1.208-.54-1.946 0-.811.243-1.514.73-2.108.486-.613 1.126-1.082 1.918-1.406a6.67 6.67 0 0 1 2.622-.513c1.28 0 2.396.252 3.351.756a4.48 4.48 0 0 1 2.135 2.217l-2.513 1.135c-.324-.613-.748-1.036-1.27-1.27a3.695 3.695 0 0 0-1.676-.379c-.685 0-1.261.144-1.73.433-.45.288-.675.648-.675 1.08 0 .469.198.838.594 1.109.415.27.919.486 1.514.648l2 .487c1.369.342 2.396.865 3.081 1.567.684.685 1.027 1.523 1.027 2.514 0 .883-.253 1.657-.757 2.324-.505.649-1.189 1.153-2.054 1.514-.847.342-1.793.513-2.838.513Z" fill="url(#g)"/><path d="M107.529 43.499c-.541 0-1.009-.19-1.405-.568a1.965 1.965 0 0 1-.568-1.405c0-.54.189-1 .568-1.378a1.965 1.965 0 0 1 1.405-.568c.54 0 1 .19 1.378.568.397.378.595.837.595 1.378a1.92 1.92 0 0 1-.595 1.405 1.876 1.876 0 0 1-1.378.568Zm-1.46 15.81V45.527h2.919V59.31h-2.919Z" fill="url(#h)"/><path d="m116.799 59.31-5.702-13.784h3.243l3.865 10.027h.135l3.946-10.027h3.189l-5.757 13.784h-2.919Z" fill="url(#i)"/><path d="M133.265 59.742c-1.351 0-2.558-.315-3.621-.946a6.823 6.823 0 0 1-2.514-2.594c-.594-1.1-.892-2.352-.892-3.757 0-1.315.289-2.532.865-3.649a6.908 6.908 0 0 1 2.406-2.675c1.045-.685 2.243-1.027 3.594-1.027 1.424 0 2.631.306 3.622.919a5.95 5.95 0 0 1 2.297 2.513c.523 1.063.784 2.261.784 3.595 0 .198-.009.378-.027.54 0 .162-.009.288-.027.378h-10.649c.144 1.37.622 2.397 1.433 3.082.829.684 1.765 1.027 2.81 1.027.937 0 1.712-.208 2.325-.622a4.929 4.929 0 0 0 1.459-1.595l2.406 1.163a7.463 7.463 0 0 1-2.433 2.648c-1.027.667-2.306 1-3.838 1Zm-.135-12.162c-.973 0-1.802.297-2.486.892-.685.595-1.144 1.387-1.379 2.378h7.649c-.036-.468-.189-.955-.459-1.46-.271-.504-.685-.927-1.244-1.27-.54-.36-1.234-.54-2.081-.54Z" fill="url(#j)"/><path d="M149.308 59.31V39.958h6.19c2.036 0 3.783.415 5.243 1.244 1.477.81 2.613 1.946 3.405 3.405.811 1.46 1.217 3.135 1.217 5.027 0 1.91-.406 3.595-1.217 5.054-.792 1.442-1.928 2.577-3.405 3.406-1.46.81-3.207 1.216-5.243 1.216h-6.19Zm2.973-2.811h3.136c2.198 0 3.901-.613 5.108-1.838 1.225-1.225 1.838-2.9 1.838-5.027 0-2.126-.613-3.802-1.838-5.027-1.207-1.225-2.91-1.838-5.108-1.838h-3.136V56.5Z" fill="url(#k)"/><path d="M174.175 59.742c-1.351 0-2.558-.315-3.621-.946a6.823 6.823 0 0 1-2.514-2.594c-.594-1.1-.892-2.352-.892-3.757 0-1.315.289-2.532.865-3.649a6.908 6.908 0 0 1 2.406-2.675c1.045-.685 2.243-1.027 3.594-1.027 1.424 0 2.631.306 3.622.919a5.95 5.95 0 0 1 2.297 2.513c.523 1.063.784 2.261.784 3.595 0 .198-.009.378-.027.54 0 .162-.009.288-.027.378h-10.649c.144 1.37.622 2.397 1.433 3.082.829.684 1.766 1.027 2.811 1.027.936 0 1.711-.208 2.324-.622a4.929 4.929 0 0 0 1.459-1.595l2.406 1.163a7.463 7.463 0 0 1-2.433 2.648c-1.027.667-2.306 1-3.838 1Zm-.135-12.162c-.973 0-1.801.297-2.486.892-.685.595-1.144 1.387-1.379 2.378h7.649c-.036-.468-.189-.955-.459-1.46-.271-.504-.685-.927-1.244-1.27-.54-.36-1.234-.54-2.081-.54Z" fill="url(#l)"/><path d="M188.583 59.742c-1.658 0-2.982-.36-3.973-1.08-.991-.74-1.676-1.614-2.054-2.623l2.622-1.135c.324.74.792 1.307 1.405 1.703.613.379 1.306.568 2.081.568.721 0 1.342-.127 1.865-.379.522-.27.784-.702.784-1.297 0-.577-.262-1-.784-1.27-.523-.27-1.171-.505-1.946-.703l-1.649-.378a6.774 6.774 0 0 1-1.865-.757 4.305 4.305 0 0 1-1.405-1.324c-.36-.559-.54-1.208-.54-1.946 0-.811.243-1.514.729-2.108.487-.613 1.126-1.082 1.919-1.406a6.673 6.673 0 0 1 2.622-.513c1.279 0 2.396.252 3.351.756a4.48 4.48 0 0 1 2.135 2.217l-2.513 1.135c-.325-.613-.748-1.036-1.271-1.27a3.692 3.692 0 0 0-1.675-.379c-.685 0-1.261.144-1.73.433-.45.288-.676.648-.676 1.08 0 .469.199.838.595 1.109.414.27.919.486 1.514.648l2 .487c1.369.342 2.396.865 3.081 1.567.684.685 1.027 1.523 1.027 2.514 0 .883-.253 1.657-.757 2.324-.505.649-1.189 1.153-2.054 1.514-.847.342-1.793.513-2.838.513Z" fill="url(#m)"/><path d="M198.323 43.499c-.541 0-1.009-.19-1.406-.568a1.968 1.968 0 0 1-.567-1.405c0-.54.189-1 .567-1.378a1.97 1.97 0 0 1 1.406-.568c.54 0 1 .19 1.378.568.397.378.595.837.595 1.378a1.92 1.92 0 0 1-.595 1.405 1.876 1.876 0 0 1-1.378.568Zm-1.46 15.81V45.527h2.919V59.31h-2.919Z" fill="url(#n)"/><path d="M209.488 65.58c-1.207 0-2.252-.198-3.135-.594-.865-.379-1.568-.874-2.108-1.487-.541-.595-.928-1.207-1.162-1.838l2.702-1.135c.289.72.748 1.306 1.379 1.757.649.468 1.423.703 2.324.703 1.261 0 2.252-.379 2.973-1.136.739-.756 1.108-1.828 1.108-3.216V57.31h-.162c-.432.648-1.036 1.171-1.811 1.567-.756.379-1.621.568-2.594.568a6.053 6.053 0 0 1-3.217-.892c-.972-.594-1.756-1.423-2.351-2.486-.594-1.081-.892-2.343-.892-3.784 0-1.46.298-2.72.892-3.784.595-1.081 1.379-1.919 2.351-2.514a6.052 6.052 0 0 1 3.217-.891c.973 0 1.838.198 2.594.594.775.397 1.379.92 1.811 1.568h.162v-1.73h2.784V58.58c0 1.496-.297 2.766-.892 3.81a5.77 5.77 0 0 1-2.405 2.38c-1.027.54-2.216.81-3.568.81Zm.027-8.784a4.03 4.03 0 0 0 2-.513c.613-.36 1.108-.874 1.487-1.54.378-.685.567-1.505.567-2.46 0-.991-.189-1.82-.567-2.487-.379-.684-.874-1.198-1.487-1.54a4.029 4.029 0 0 0-2-.514 4.02 4.02 0 0 0-2.027.54c-.612.343-1.108.848-1.486 1.514-.379.667-.568 1.496-.568 2.487 0 .973.189 1.802.568 2.486.378.667.874 1.171 1.486 1.514a4.184 4.184 0 0 0 2.027.513Z" fill="url(#o)"/><path d="M219.768 59.31V45.526h2.757v1.892h.162c.396-.667.982-1.216 1.757-1.649a5.157 5.157 0 0 1 2.594-.675c1.694 0 2.964.504 3.811 1.513.847 1.01 1.27 2.342 1.27 4v8.703h-2.892v-8.325c0-1.117-.279-1.927-.837-2.432-.559-.522-1.289-.784-2.19-.784-.702 0-1.315.199-1.837.595a3.97 3.97 0 0 0-1.244 1.513 4.821 4.821 0 0 0-.432 2.027v7.406h-2.919Z" fill="url(#p)"/><path d="m236.094 53.148-.27-7.109v-6.08h2.919v6.08l-.297 7.109h-2.352Zm1.19 6.324a1.986 1.986 0 0 1-1.46-.595 1.954 1.954 0 0 1-.594-1.432c0-.559.198-1.036.594-1.432a1.986 1.986 0 0 1 1.46-.595c.558 0 1.036.198 1.432.595.396.396.595.873.595 1.432 0 .559-.199 1.036-.595 1.432a1.952 1.952 0 0 1-1.432.595Z" fill="url(#q)"/><defs><linearGradient id="a" x1="0" y1="65.58" x2="171.249" y2="-56.16" gradientUnits="userSpaceOnUse"><stop offset=".068" stop-color="#F39"/><stop offset=".38" stop-color="#93F"/><stop offset=".948" stop-color="#06F"/></linearGradient><linearGradient id="b" x1="0" y1="65.58" x2="171.249" y2="-56.16" gradientUnits="userSpaceOnUse"><stop offset=".068" stop-color="#F39"/><stop offset=".38" stop-color="#93F"/><stop offset=".948" stop-color="#06F"/></linearGradient><linearGradient id="c" x1="0" y1="65.58" x2="171.249" y2="-56.16" gradientUnits="userSpaceOnUse"><stop offset=".068" stop-color="#F39"/><stop offset=".38" stop-color="#93F"/><stop offset=".948" stop-color="#06F"/></linearGradient><linearGradient id="d" x1="0" y1="65.58" x2="171.249" y2="-56.16" gradientUnits="userSpaceOnUse"><stop offset=".068" stop-color="#F39"/><stop offset=".38" stop-color="#93F"/><stop offset=".948" stop-color="#06F"/></linearGradient><linearGradient id="e" x1="0" y1="65.58" x2="171.249" y2="-56.16" gradientUnits="userSpaceOnUse"><stop offset=".068" stop-color="#F39"/><stop offset=".38" stop-color="#93F"/><stop offset=".948" stop-color="#06F"/></linearGradient><linearGradient id="f" x1="0" y1="65.58" x2="171.249" y2="-56.16" gradientUnits="userSpaceOnUse"><stop offset=".068" stop-color="#F39"/><stop offset=".38" stop-color="#93F"/><stop offset=".948" stop-color="#06F"/></linearGradient><linearGradient id="g" x1="0" y1="65.58" x2="171.249" y2="-56.16" gradientUnits="userSpaceOnUse"><stop offset=".068" stop-color="#F39"/><stop offset=".38" stop-color="#93F"/><stop offset=".948" stop-color="#06F"/></linearGradient><linearGradient id="h" x1="0" y1="65.58" x2="171.249" y2="-56.16" gradientUnits="userSpaceOnUse"><stop offset=".068" stop-color="#F39"/><stop offset=".38" stop-color="#93F"/><stop offset=".948" stop-color="#06F"/></linearGradient><linearGradient id="i" x1="0" y1="65.58" x2="171.249" y2="-56.16" gradientUnits="userSpaceOnUse"><stop offset=".068" stop-color="#F39"/><stop offset=".38" stop-color="#93F"/><stop offset=".948" stop-color="#06F"/></linearGradient><linearGradient id="j" x1="0" y1="65.58" x2="171.249" y2="-56.16" gradientUnits="userSpaceOnUse"><stop offset=".068" stop-color="#F39"/><stop offset=".38" stop-color="#93F"/><stop offset=".948" stop-color="#06F"/></linearGradient><linearGradient id="k" x1="0" y1="65.58" x2="171.249" y2="-56.16" gradientUnits="userSpaceOnUse"><stop offset=".068" stop-color="#F39"/><stop offset=".38" stop-color="#93F"/><stop offset=".948" stop-color="#06F"/></linearGradient><linearGradient id="l" x1="0" y1="65.58" x2="171.249" y2="-56.16" gradientUnits="userSpaceOnUse"><stop offset=".068" stop-color="#F39"/><stop offset=".38" stop-color="#93F"/><stop offset=".948" stop-color="#06F"/></linearGradient><linearGradient id="m" x1="0" y1="65.58" x2="171.249" y2="-56.16" gradientUnits="userSpaceOnUse"><stop offset=".068" stop-color="#F39"/><stop offset=".38" stop-color="#93F"/><stop offset=".948" stop-color="#06F"/></linearGradient><linearGradient id="n" x1="0" y1="65.58" x2="171.249" y2="-56.16" gradientUnits="userSpaceOnUse"><stop offset=".068" stop-color="#F39"/><stop offset=".38" stop-color="#93F"/><stop offset=".948" stop-color="#06F"/></linearGradient><linearGradient id="o" x1="0" y1="65.58" x2="171.249" y2="-56.16" gradientUnits="userSpaceOnUse"><stop offset=".068" stop-color="#F39"/><stop offset=".38" stop-color="#93F"/><stop offset=".948" stop-color="#06F"/></linearGradient><linearGradient id="p" x1="0" y1="65.58" x2="171.249" y2="-56.16" gradientUnits="userSpaceOnUse"><stop offset=".068" stop-color="#F39"/><stop offset=".38" stop-color="#93F"/><stop offset=".948" stop-color="#06F"/></linearGradient><linearGradient id="q" x1="0" y1="65.58" x2="171.249" y2="-56.16" gradientUnits="userSpaceOnUse"><stop offset=".068" stop-color="#F39"/><stop offset=".38" stop-color="#93F"/><stop offset=".948" stop-color="#06F"/></linearGradient></defs></svg>