<?xml version="1.0" encoding="utf-8"?>
<!-- Generator: Adobe Illustrator 26.3.1, SVG Export Plug-In . SVG Version: 6.00 Build 0)  -->
<svg version="1.1" id="Backgrounds_complex" xmlns="http://www.w3.org/2000/svg" xmlns:xlink="http://www.w3.org/1999/xlink"
	 x="0px" y="0px" viewBox="0 0 720 504" style="enable-background:new 0 0 720 504;" xml:space="preserve">
<style type="text/css">
	.st0{fill:#597059;}
	.st1{fill:#C4AC8C;}
	.st2{fill:#9B977C;}
	.st3{opacity:0.9;}
	.st4{clip-path:url(#SVGID_00000132066222489165052670000015125266306548061840_);}
	.st5{fill:#AF8171;}
	.st6{fill:#966D51;}
	.st7{fill:#456045;}
	.st8{fill:#9E8C3F;}
	.st9{fill:#C4B253;}
	.st10{fill:#7074B8;}
	.st11{fill:#D4D2AC;}
	.st12{fill:#99A4BD;}
	.st13{fill:#595D66;}
	.st14{fill:#66805E;}
	.st15{fill:#80655D;}
	.st16{fill:#C44D4D;}
	.st17{fill:#997D30;}
	.st18{fill:#BC6D5B;}
	.st19{fill:#53586D;}
</style>
<rect x="-0.9" y="-0.8" class="st0" width="723.2" height="342.5"/>
<rect x="0.2" y="343" class="st1" width="719.8" height="161.2"/>
<g>
	<rect x="-0.2" y="340.9" class="st2" width="44.9" height="40.7"/>
	<rect x="45.2" y="381.3" class="st2" width="44.9" height="40.7"/>
	<rect x="90.1" y="340.9" class="st2" width="44.9" height="40.7"/>
	<rect x="135.4" y="381.3" class="st2" width="44.9" height="40.7"/>
	<rect x="-0.2" y="422.4" class="st2" width="44.9" height="40.7"/>
	<rect x="45.2" y="462.8" class="st2" width="44.9" height="40.7"/>
	<rect x="90.1" y="422.4" class="st2" width="44.9" height="40.7"/>
	<rect x="135.4" y="462.8" class="st2" width="44.9" height="40.7"/>
	<rect x="179.9" y="340.9" class="st2" width="44.9" height="40.7"/>
	<rect x="225.2" y="381.3" class="st2" width="44.9" height="40.7"/>
	<rect x="270.1" y="340.9" class="st2" width="44.9" height="40.7"/>
	<rect x="315.5" y="381.3" class="st2" width="44.9" height="40.7"/>
	<rect x="179.9" y="422.4" class="st2" width="44.9" height="40.7"/>
	<rect x="225.2" y="462.8" class="st2" width="44.9" height="40.7"/>
	<rect x="270.1" y="422.4" class="st2" width="44.9" height="40.7"/>
	<rect x="315.5" y="462.8" class="st2" width="44.9" height="40.7"/>
	<rect x="360.4" y="340.9" class="st2" width="44.9" height="40.7"/>
	<rect x="405.7" y="381.3" class="st2" width="44.9" height="40.7"/>
	<rect x="450.6" y="340.9" class="st2" width="44.9" height="40.7"/>
	<rect x="496" y="381.3" class="st2" width="44.9" height="40.7"/>
	<rect x="360.4" y="422.4" class="st2" width="44.9" height="40.7"/>
	<rect x="405.7" y="462.8" class="st2" width="44.9" height="40.7"/>
	<rect x="450.6" y="422.4" class="st2" width="44.9" height="40.7"/>
	<rect x="496" y="462.8" class="st2" width="44.9" height="40.7"/>
	<rect x="540.5" y="340.9" class="st2" width="44.9" height="40.7"/>
	<rect x="585.8" y="381.3" class="st2" width="44.9" height="40.7"/>
	<rect x="630.7" y="340.9" class="st2" width="44.9" height="40.7"/>
	<rect x="676" y="381.3" class="st2" width="44.9" height="40.7"/>
	<rect x="540.5" y="422.4" class="st2" width="44.9" height="40.7"/>
	<rect x="585.8" y="462.8" class="st2" width="44.9" height="40.7"/>
	<rect x="630.7" y="422.4" class="st2" width="44.9" height="40.7"/>
	<rect x="676" y="462.8" class="st2" width="44.9" height="40.7"/>
	<rect x="-0.2" y="340.9" class="st2" width="44.9" height="40.7"/>
	<rect x="45.2" y="381.3" class="st2" width="44.9" height="40.7"/>
	<rect x="90.1" y="340.9" class="st2" width="44.9" height="40.7"/>
	<rect x="135.4" y="381.3" class="st2" width="44.9" height="40.7"/>
	<rect x="-0.2" y="422.4" class="st2" width="44.9" height="40.7"/>
	<rect x="45.2" y="462.8" class="st2" width="44.9" height="40.7"/>
	<rect x="90.1" y="422.4" class="st2" width="44.9" height="40.7"/>
	<rect x="135.4" y="462.8" class="st2" width="44.9" height="40.7"/>
	<rect x="179.9" y="340.9" class="st2" width="44.9" height="40.7"/>
	<rect x="225.2" y="381.3" class="st2" width="44.9" height="40.7"/>
	<rect x="270.1" y="340.9" class="st2" width="44.9" height="40.7"/>
	<rect x="315.5" y="381.3" class="st2" width="44.9" height="40.7"/>
	<rect x="179.9" y="422.4" class="st2" width="44.9" height="40.7"/>
	<rect x="225.2" y="462.8" class="st2" width="44.9" height="40.7"/>
	<rect x="270.1" y="422.4" class="st2" width="44.9" height="40.7"/>
	<rect x="315.5" y="462.8" class="st2" width="44.9" height="40.7"/>
	<rect x="360.4" y="340.9" class="st2" width="44.9" height="40.7"/>
	<rect x="405.7" y="381.3" class="st2" width="44.9" height="40.7"/>
	<rect x="450.6" y="340.9" class="st2" width="44.9" height="40.7"/>
	<rect x="496" y="381.3" class="st2" width="44.9" height="40.7"/>
	<rect x="360.4" y="422.4" class="st2" width="44.9" height="40.7"/>
	<rect x="405.7" y="462.8" class="st2" width="44.9" height="40.7"/>
	<rect x="450.6" y="422.4" class="st2" width="44.9" height="40.7"/>
	<rect x="496" y="462.8" class="st2" width="44.9" height="40.7"/>
	<rect x="540.5" y="340.9" class="st2" width="44.9" height="40.7"/>
	<rect x="585.8" y="381.3" class="st2" width="44.9" height="40.7"/>
	<rect x="630.7" y="340.9" class="st2" width="44.9" height="40.7"/>
	<rect x="676" y="381.3" class="st2" width="44.9" height="40.7"/>
	<rect x="540.5" y="422.4" class="st2" width="44.9" height="40.7"/>
	<rect x="585.8" y="462.8" class="st2" width="44.9" height="40.7"/>
	<rect x="630.7" y="422.4" class="st2" width="44.9" height="40.7"/>
	<rect x="676" y="462.8" class="st2" width="44.9" height="40.7"/>
</g>
<g class="st3">
	<g>
		<defs>
			<path id="SVGID_1_" d="M721.4,206.9c-71.4-22.1-74-71.8-117.6-104C557.1,68.4,558,0.6,558,0.6l163.4-0.9V206.9z"/>
		</defs>
		<clipPath id="SVGID_00000111173458783991640460000004086181342235884451_">
			<use xlink:href="#SVGID_1_"  style="overflow:visible;"/>
		</clipPath>
		<g style="clip-path:url(#SVGID_00000111173458783991640460000004086181342235884451_);">
			<rect x="544.3" y="-4.4" class="st5" width="203.4" height="305.9"/>
			<path class="st6" d="M556.9,0.9h33c3.1,0,5.5,2.5,5.5,5.6v9.4c0,3.1-2.5,5.6-5.5,5.6h-33c-3.1,0-5.5-2.5-5.5-5.6V6.5
				C551.4,3.4,553.8,0.9,556.9,0.9z"/>
			<path class="st6" d="M605.2,0.9h33c3.1,0,5.5,2.5,5.5,5.6v9.4c0,3.1-2.5,5.6-5.5,5.6h-33c-3.1,0-5.5-2.5-5.5-5.6V6.5
				C599.7,3.4,602.2,0.9,605.2,0.9z"/>
			<path class="st6" d="M653.6,0.9h33c3.1,0,5.5,2.5,5.5,5.6v9.4c0,3.1-2.5,5.6-5.5,5.6h-33c-3.1,0-5.5-2.5-5.5-5.6V6.5
				C648,3.4,650.5,0.9,653.6,0.9z"/>
			<path class="st6" d="M701.9,0.9h33c3.1,0,5.5,2.5,5.5,5.6v9.4c0,3.1-2.5,5.6-5.5,5.6h-33c-3.1,0-5.5-2.5-5.5-5.6V6.5
				C696.3,3.4,698.8,0.9,701.9,0.9z"/>
			<path class="st6" d="M556.9,51.1h33c3.1,0,5.5,2.5,5.5,5.5v9.5c0,3.1-2.5,5.6-5.5,5.6h-33c-3.1,0-5.5-2.5-5.5-5.6v-9.5
				C551.4,53.6,553.8,51.1,556.9,51.1z"/>
			<path class="st6" d="M605.2,51.1h33c3.1,0,5.5,2.5,5.5,5.5v9.5c0,3.1-2.5,5.6-5.5,5.6h-33c-3.1,0-5.5-2.5-5.5-5.6v-9.5
				C599.7,53.6,602.2,51.1,605.2,51.1z"/>
			<path class="st6" d="M653.6,51.1h33c3.1,0,5.5,2.5,5.5,5.5v9.5c0,3.1-2.5,5.6-5.5,5.6h-33c-3.1,0-5.5-2.5-5.5-5.6v-9.5
				C648,53.6,650.5,51.1,653.6,51.1z"/>
			<path class="st6" d="M701.9,51.1h33c3.1,0,5.5,2.5,5.5,5.5v9.5c0,3.1-2.5,5.6-5.5,5.6h-33c-3.1,0-5.5-2.5-5.5-5.6v-9.5
				C696.3,53.6,698.8,51.1,701.9,51.1z"/>
			<path class="st6" d="M530.8,26h33c3.1,0,5.5,2.5,5.5,5.6V41c0,3.1-2.5,5.5-5.5,5.5h-33c-3.1,0-5.5-2.5-5.5-5.5v-9.4
				C525.2,28.5,527.7,26,530.8,26z"/>
			<path class="st6" d="M724.6,26h33c3.1,0,5.5,2.5,5.5,5.6V41c0,3.1-2.5,5.5-5.5,5.5h-33c-3.1,0-5.5-2.5-5.5-5.5v-9.4
				C719,28.5,721.5,26,724.6,26z"/>
			<path class="st6" d="M579.1,26h33c3.1,0,5.5,2.5,5.5,5.6V41c0,3.1-2.5,5.5-5.5,5.5h-33c-3.1,0-5.5-2.5-5.5-5.5v-9.4
				C573.5,28.5,576,26,579.1,26z"/>
			<path class="st6" d="M627.4,26h33c3.1,0,5.5,2.5,5.5,5.6V41c0,3.1-2.5,5.5-5.5,5.5h-33c-3.1,0-5.5-2.5-5.5-5.5v-9.4
				C621.8,28.5,624.3,26,627.4,26z"/>
			<path class="st6" d="M675.7,26h33c3.1,0,5.5,2.5,5.5,5.6V41c0,3.1-2.5,5.5-5.5,5.5h-33c-3.1,0-5.5-2.5-5.5-5.5v-9.4
				C670.2,28.5,672.7,26,675.7,26z"/>
			<path class="st6" d="M530.8,75.6h33c3.1,0,5.5,2.5,5.5,5.6v9.4c0,3.1-2.5,5.6-5.5,5.6h-33c-3.1,0-5.5-2.5-5.5-5.6v-9.4
				C525.2,78,527.7,75.6,530.8,75.6z"/>
			<path class="st6" d="M724.6,75.6h33c3.1,0,5.5,2.5,5.5,5.6v9.4c0,3.1-2.5,5.6-5.5,5.6h-33c-3.1,0-5.5-2.5-5.5-5.6v-9.4
				C719,78,721.5,75.6,724.6,75.6z"/>
			<path class="st6" d="M579.1,75.6h33c3.1,0,5.5,2.5,5.5,5.6v9.4c0,3.1-2.5,5.6-5.5,5.6h-33c-3.1,0-5.5-2.5-5.5-5.6v-9.4
				C573.5,78,576,75.6,579.1,75.6z"/>
			<path class="st6" d="M627.4,75.6h33c3.1,0,5.5,2.5,5.5,5.6v9.4c0,3.1-2.5,5.6-5.5,5.6h-33c-3.1,0-5.5-2.5-5.5-5.6v-9.4
				C621.8,78,624.3,75.6,627.4,75.6z"/>
			<path class="st6" d="M675.7,75.6h33c3.1,0,5.5,2.5,5.5,5.6v9.4c0,3.1-2.5,5.6-5.5,5.6h-33c-3.1,0-5.5-2.5-5.5-5.6v-9.4
				C670.2,78,672.7,75.6,675.7,75.6z"/>
			<path class="st6" d="M556.9,101.2h33c3.1,0,5.5,2.5,5.5,5.6v9.4c0,3.1-2.5,5.6-5.5,5.6h-33c-3.1,0-5.5-2.5-5.5-5.6v-9.4
				C551.4,103.7,553.8,101.2,556.9,101.2z"/>
			<path class="st6" d="M605.2,101.2h33c3.1,0,5.5,2.5,5.5,5.6v9.4c0,3.1-2.5,5.6-5.5,5.6h-33c-3.1,0-5.5-2.5-5.5-5.6v-9.4
				C599.7,103.7,602.2,101.2,605.2,101.2z"/>
			<path class="st6" d="M653.6,101.2h33c3.1,0,5.5,2.5,5.5,5.6v9.4c0,3.1-2.5,5.6-5.5,5.6h-33c-3.1,0-5.5-2.5-5.5-5.6v-9.4
				C648,103.7,650.5,101.2,653.6,101.2z"/>
			<path class="st6" d="M701.9,101.2h33c3.1,0,5.5,2.5,5.5,5.6v9.4c0,3.1-2.5,5.6-5.5,5.6h-33c-3.1,0-5.5-2.5-5.5-5.6v-9.4
				C696.3,103.7,698.8,101.2,701.9,101.2z"/>
			<path class="st6" d="M556.9,151.4h33c3.1,0,5.5,2.5,5.5,5.6v9.4c0,3.1-2.5,5.6-5.5,5.6h-33c-3.1,0-5.5-2.5-5.5-5.6v-9.4
				C551.4,153.9,553.8,151.4,556.9,151.4z"/>
			<path class="st6" d="M605.2,151.4h33c3.1,0,5.5,2.5,5.5,5.6v9.4c0,3.1-2.5,5.6-5.5,5.6h-33c-3.1,0-5.5-2.5-5.5-5.6v-9.4
				C599.7,153.9,602.2,151.4,605.2,151.4z"/>
			<path class="st6" d="M653.6,151.4h33c3.1,0,5.5,2.5,5.5,5.6v9.4c0,3.1-2.5,5.6-5.5,5.6h-33c-3.1,0-5.5-2.5-5.5-5.6v-9.4
				C648,153.9,650.5,151.4,653.6,151.4z"/>
			<path class="st6" d="M701.9,151.4h33c3.1,0,5.5,2.5,5.5,5.6v9.4c0,3.1-2.5,5.6-5.5,5.6h-33c-3.1,0-5.5-2.5-5.5-5.6v-9.4
				C696.3,153.9,698.8,151.4,701.9,151.4z"/>
			<path class="st6" d="M530.8,126.3h33c3.1,0,5.5,2.5,5.5,5.6v9.4c0,3.1-2.5,5.6-5.5,5.6h-33c-3.1,0-5.5-2.5-5.5-5.6v-9.4
				C525.2,128.8,527.7,126.3,530.8,126.3z"/>
			<path class="st6" d="M724.6,126.3h33c3.1,0,5.5,2.5,5.5,5.6v9.4c0,3.1-2.5,5.6-5.5,5.6h-33c-3.1,0-5.5-2.5-5.5-5.6v-9.4
				C719,128.8,721.5,126.3,724.6,126.3z"/>
			<path class="st6" d="M579.1,126.3h33c3.1,0,5.5,2.5,5.5,5.6v9.4c0,3.1-2.5,5.6-5.5,5.6h-33c-3.1,0-5.5-2.5-5.5-5.6v-9.4
				C573.5,128.8,576,126.3,579.1,126.3z"/>
			<path class="st6" d="M627.4,126.3h33c3.1,0,5.5,2.5,5.5,5.6v9.4c0,3.1-2.5,5.6-5.5,5.6h-33c-3.1,0-5.5-2.5-5.5-5.6v-9.4
				C621.8,128.8,624.3,126.3,627.4,126.3z"/>
			<path class="st6" d="M675.7,126.3h33c3.1,0,5.5,2.5,5.5,5.6v9.4c0,3.1-2.5,5.6-5.5,5.6h-33c-3.1,0-5.5-2.5-5.5-5.6v-9.4
				C670.2,128.8,672.7,126.3,675.7,126.3z"/>
			<path class="st6" d="M530.8,175.9h33c3.1,0,5.5,2.5,5.5,5.6v9.4c0,3.1-2.5,5.6-5.5,5.6h-33c-3.1,0-5.5-2.5-5.5-5.6v-9.4
				C525.2,178.3,527.7,175.9,530.8,175.9z"/>
			<path class="st6" d="M724.6,175.9h33c3.1,0,5.5,2.5,5.5,5.6v9.4c0,3.1-2.5,5.6-5.5,5.6h-33c-3.1,0-5.5-2.5-5.5-5.6v-9.4
				C719,178.3,721.5,175.9,724.6,175.9z"/>
			<path class="st6" d="M579.1,175.9h33c3.1,0,5.5,2.5,5.5,5.6v9.4c0,3.1-2.5,5.6-5.5,5.6h-33c-3.1,0-5.5-2.5-5.5-5.6v-9.4
				C573.5,178.3,576,175.9,579.1,175.9z"/>
			<path class="st6" d="M627.4,175.9h33c3.1,0,5.5,2.5,5.5,5.6v9.4c0,3.1-2.5,5.6-5.5,5.6h-33c-3.1,0-5.5-2.5-5.5-5.6v-9.4
				C621.8,178.3,624.3,175.9,627.4,175.9z"/>
			<path class="st6" d="M675.7,175.9h33c3.1,0,5.5,2.5,5.5,5.6v9.4c0,3.1-2.5,5.6-5.5,5.6h-33c-3.1,0-5.5-2.5-5.5-5.6v-9.4
				C670.2,178.3,672.7,175.9,675.7,175.9z"/>
			<path class="st6" d="M556.9,200.3h33c3.1,0,5.5,2.5,5.5,5.6v9.4c0,3.1-2.5,5.6-5.5,5.6h-33c-3.1,0-5.5-2.5-5.5-5.6v-9.4
				C551.4,202.8,553.8,200.3,556.9,200.3z"/>
			<path class="st6" d="M605.2,200.3h33c3.1,0,5.5,2.5,5.5,5.6v9.4c0,3.1-2.5,5.6-5.5,5.6h-33c-3.1,0-5.5-2.5-5.5-5.6v-9.4
				C599.7,202.8,602.2,200.3,605.2,200.3z"/>
			<path class="st6" d="M653.6,200.3h33c3.1,0,5.5,2.5,5.5,5.6v9.4c0,3.1-2.5,5.6-5.5,5.6h-33c-3.1,0-5.5-2.5-5.5-5.6v-9.4
				C648,202.8,650.5,200.3,653.6,200.3z"/>
			<path class="st6" d="M701.9,200.3h33c3.1,0,5.5,2.5,5.5,5.6v9.4c0,3.1-2.5,5.6-5.5,5.6h-33c-3.1,0-5.5-2.5-5.5-5.6v-9.4
				C696.3,202.8,698.8,200.3,701.9,200.3z"/>
			<path class="st6" d="M556.9,250.4h33c3.1,0,5.5,2.5,5.5,5.6v9.4c0,3.1-2.5,5.5-5.5,5.5h-33c-3.1,0-5.5-2.5-5.5-5.5V256
				C551.4,252.9,553.8,250.4,556.9,250.4z"/>
			<path class="st6" d="M605.2,250.4h33c3.1,0,5.5,2.5,5.5,5.6v9.4c0,3.1-2.5,5.5-5.5,5.5h-33c-3.1,0-5.5-2.5-5.5-5.5V256
				C599.7,252.9,602.2,250.4,605.2,250.4z"/>
			<path class="st6" d="M653.6,250.4h33c3.1,0,5.5,2.5,5.5,5.6v9.4c0,3.1-2.5,5.5-5.5,5.5h-33c-3.1,0-5.5-2.5-5.5-5.5V256
				C648,252.9,650.5,250.4,653.6,250.4z"/>
			<path class="st6" d="M701.9,250.4h33c3.1,0,5.5,2.5,5.5,5.6v9.4c0,3.1-2.5,5.5-5.5,5.5h-33c-3.1,0-5.5-2.5-5.5-5.5V256
				C696.3,252.9,698.8,250.4,701.9,250.4z"/>
			<path class="st6" d="M530.8,225.4h33c3.1,0,5.5,2.5,5.5,5.6v9.4c0,3.1-2.5,5.6-5.5,5.6h-33c-3.1,0-5.5-2.5-5.5-5.6v-9.4
				C525.2,227.8,527.7,225.4,530.8,225.4z"/>
			<path class="st6" d="M724.6,225.4h33c3.1,0,5.5,2.5,5.5,5.6v9.4c0,3.1-2.5,5.6-5.5,5.6h-33c-3.1,0-5.5-2.5-5.5-5.6v-9.4
				C719,227.8,721.5,225.4,724.6,225.4z"/>
			<path class="st6" d="M579.1,225.4h33c3.1,0,5.5,2.5,5.5,5.6v9.4c0,3.1-2.5,5.6-5.5,5.6h-33c-3.1,0-5.5-2.5-5.5-5.6v-9.4
				C573.5,227.8,576,225.4,579.1,225.4z"/>
			<path class="st6" d="M627.4,225.4h33c3.1,0,5.5,2.5,5.5,5.6v9.4c0,3.1-2.5,5.6-5.5,5.6h-33c-3.1,0-5.5-2.5-5.5-5.6v-9.4
				C621.8,227.8,624.3,225.4,627.4,225.4z"/>
			<path class="st6" d="M675.7,225.4h33c3.1,0,5.5,2.5,5.5,5.6v9.4c0,3.1-2.5,5.6-5.5,5.6h-33c-3.1,0-5.5-2.5-5.5-5.6v-9.4
				C670.2,227.8,672.7,225.4,675.7,225.4z"/>
			<path class="st6" d="M530.8,274.9h33c3.1,0,5.5,2.5,5.5,5.5v9.5c0,3.1-2.5,5.5-5.5,5.5h-33c-3.1,0-5.5-2.5-5.5-5.5v-9.5
				C525.2,277.4,527.7,274.9,530.8,274.9z"/>
			<path class="st6" d="M724.6,274.9h33c3.1,0,5.5,2.5,5.5,5.5v9.5c0,3.1-2.5,5.5-5.5,5.5h-33c-3.1,0-5.5-2.5-5.5-5.5v-9.5
				C719,277.4,721.5,274.9,724.6,274.9z"/>
			<path class="st6" d="M579.1,274.9h33c3.1,0,5.5,2.5,5.5,5.5v9.5c0,3.1-2.5,5.5-5.5,5.5h-33c-3.1,0-5.5-2.5-5.5-5.5v-9.5
				C573.5,277.4,576,274.9,579.1,274.9z"/>
			<path class="st6" d="M627.4,274.9h33c3.1,0,5.5,2.5,5.5,5.5v9.5c0,3.1-2.5,5.5-5.5,5.5h-33c-3.1,0-5.5-2.5-5.5-5.5v-9.5
				C621.8,277.4,624.3,274.9,627.4,274.9z"/>
			<path class="st6" d="M675.7,274.9h33c3.1,0,5.5,2.5,5.5,5.5v9.5c0,3.1-2.5,5.5-5.5,5.5h-33c-3.1,0-5.5-2.5-5.5-5.5v-9.5
				C670.2,277.4,672.7,274.9,675.7,274.9z"/>
		</g>
	</g>
</g>
<rect x="-0.9" y="312.9" class="st7" width="723.2" height="31.1"/>
<g>
	<path d="M370.3,344.3h11.1v27.9c0,3.1-2.5,5.6-5.6,5.6l0,0c-3.1,0-5.6-2.5-5.6-5.6V344.3L370.3,344.3z"/>
	<path d="M331,346.7h11.1v25.5c0,3.1-2.5,5.6-5.6,5.6l0,0c-3.1,0-5.6-2.5-5.6-5.6V346.7L331,346.7z"/>
	<path d="M428.9,346.7H440v25.5c0,3.1-2.5,5.6-5.6,5.6l0,0c-3.1,0-5.6-2.5-5.6-5.6V346.7L428.9,346.7z"/>
	<path d="M469.6,344.3h11.1v27.9c0,3.1-2.5,5.6-5.6,5.6l0,0c-3.1,0-5.6-2.5-5.6-5.6V344.3L469.6,344.3z"/>
	<g>
		<path class="st8" d="M342.1,123.7h94.7c12.8,0,23.1,10.3,23.1,23.1v190.2c0,12.8-10.3,23.1-23.1,23.1h-94.7
			c-12.8,0-23.1-10.3-23.1-23.1V146.8C319,134.1,329.3,123.7,342.1,123.7z"/>
		<path class="st9" d="M468.5,360.2h-94.7c-12.8,0-23.1-10.3-23.1-23.1V146.8c0-12.8,10.3-23.1,23.1-23.1h94.7
			c12.8,0,23.1,10.3,23.1,23.1v190.2C491.6,349.9,481.3,360.2,468.5,360.2z"/>
	</g>
	<path d="M491.8,237.7H350.1c-0.7,0-1.2-0.5-1.2-1.2s0.5-1.2,1.2-1.2h141.7c0.7,0,1.2,0.5,1.2,1.2S492.5,237.7,491.8,237.7z"/>
	<path d="M473.6,261.4L473.6,261.4c2.5,0,4.4,2,4.4,4.5v17.8c0,2.5-2,4.5-4.4,4.5l0,0c-2.5,0-4.4-2-4.4-4.5v-17.8
		C469.1,263.4,471.1,261.4,473.6,261.4z"/>
	<path class="st10" d="M437.3,224c-0.3,0.1-0.6,0.2-0.9,0.3s-0.7,0.2-1.1,0.3c-0.4,0.1-0.8,0.2-1.2,0.2c-0.4,0.1-0.8,0.1-1.1,0.1
		c-1,0-1.6-0.4-1.9-1.2l-3.8-10.8c-0.1-0.3-0.1-0.6,0-0.8c0.1-0.2,0.3-0.5,0.6-0.7c0.5-0.4,1.1-0.7,1.8-1.1c0.8-0.4,1.5-0.7,2.4-1
		c2-0.7,3.6-0.9,4.9-0.6c1.3,0.3,2.2,1.1,2.7,2.5c0.2,0.7,0.2,1.4,0,2c-0.2,0.6-0.6,1.2-1.2,1.7c0.8-0.1,1.6,0.1,2.3,0.5
		s1.2,1,1.5,1.9c0.5,1.5,0.4,2.8-0.5,4C440.9,222.3,439.4,223.3,437.3,224L437.3,224z M432.7,215.7l1.7-0.6c0.7-0.2,1.1-0.5,1.3-0.9
		c0.2-0.4,0.2-0.8,0.1-1.2c-0.1-0.4-0.4-0.7-0.9-0.8s-1-0.1-1.7,0.2c-0.2,0.1-0.5,0.2-0.8,0.3s-0.5,0.2-0.7,0.3L432.7,215.7
		L432.7,215.7z M434.6,221.3c0.2,0,0.5-0.1,0.9-0.2c0.4-0.1,0.7-0.2,1-0.3c0.6-0.2,1.1-0.5,1.4-0.9c0.3-0.4,0.4-0.9,0.2-1.4
		c-0.2-0.5-0.5-0.8-0.9-0.9s-1,0-1.6,0.2l-1.9,0.7L434.6,221.3L434.6,221.3z"/>
	<g>
		<path class="st11" d="M366.3,192.1l26.1-4c2-0.3,3.9,1.1,4.2,3.1l4.1,26.8c0.3,2-1.1,3.9-3.1,4.2l-26.1,4c-2,0.3-3.9-1.1-4.2-3.1
			l-4.1-26.8C362.9,194.3,364.3,192.4,366.3,192.1z"/>
		<path class="st12" d="M368.1,193.4l23-3.5c1.8-0.3,3.4,0.9,3.7,2.7l3.4,22.1c0.3,1.8-0.9,3.4-2.7,3.7l-23,3.5
			c-1.8,0.3-3.4-0.9-3.7-2.7l-3.4-22.1C365.1,195.4,366.3,193.7,368.1,193.4z"/>
		<path class="st13" d="M396.4,203.1l-6.9-8.2c-0.7-0.9-2.1-0.6-2.5,0.5l-3.8,9.6l-6.6-7.6c-0.6-0.8-1.9-0.7-2.4,0.2l-4,7l-2.7-3.3
			c-0.5-0.6-1.6-0.2-1.5,0.7l2.6,16.7l29.6-4.6L396.4,203.1L396.4,203.1z"/>
		<path class="st14" d="M395.1,213.7l-4.9-10.5c-0.4-0.8-1.5-0.6-1.7,0.2l-1.8,8.3l-4-9.5c-0.3-0.8-1.5-0.7-1.7,0.2l-1.3,6.3
			l-3.5-5.4c-0.5-0.8-1.7-0.4-1.6,0.5l0.5,11.3l-2.9-4.1c-0.5-0.6-1.5-0.4-1.6,0.4l-0.5,2.9l-0.6-1c-0.5-0.9-1.8-0.4-1.7,0.6
			l0.9,5.4c0,0,0.9,3.1,3.7,2.7l23-3.5c0,0,3.2-0.6,2.7-3.7l-0.7-4.3c-0.1-1-1.6-1-1.8,0L395.1,213.7L395.1,213.7z"/>
		<path class="st15" d="M368.8,219.4c0.1,0.4,1.1,3.1,3.7,2.7l23-3.5c0,0,3.2-0.6,2.7-3.7L368.8,219.4L368.8,219.4z"/>
		<path class="st16" d="M372.4,186.9c0.2-0.2,0.5-0.4,0.9-0.7s0.8-0.5,1.3-0.6c0.6-0.2,1.2-0.3,1.8-0.3s1,0.2,1.3,0.6
			c0.5,0.6,1,1.3,1.6,2.1s1.2,1.6,1.8,2.5c0.6,0.9,1.2,1.7,1.8,2.5s1.1,1.6,1.5,2.2c-0.1,0.2-0.3,0.5-0.5,0.7
			c-0.3,0.2-0.6,0.4-1,0.6c-0.3,0.1-0.6,0.2-0.8,0.2c-0.2,0-0.4,0-0.6-0.1c-0.2-0.1-0.3-0.1-0.5-0.3s-0.3-0.3-0.4-0.5l-0.8-1.2
			l-3.5,1.2c0,0.4,0.1,0.9,0.1,1.3c0,0.4,0.1,0.9,0.1,1.3c-0.2,0.1-0.3,0.2-0.5,0.4c-0.2,0.1-0.4,0.2-0.7,0.3
			c-0.6,0.2-1.2,0.3-1.6,0.2s-0.7-0.4-0.8-0.8c-0.1-0.2-0.1-0.4-0.1-0.6c0-0.2,0-0.4,0-0.7c0-0.4-0.1-0.9-0.1-1.4c0-0.6,0-1.2,0-1.9
			c0-0.7,0-1.4,0-2.1c0-0.7,0-1.4,0-2c0-0.6,0-1.2,0-1.7S372.3,187.2,372.4,186.9L372.4,186.9z M375.5,188.6c0,0.6,0,1.3,0,2
			c0,0.7,0,1.5,0.1,2.2l2.4-0.8c-0.4-0.6-0.8-1.2-1.3-1.8c-0.4-0.6-0.8-1.1-1.1-1.6L375.5,188.6L375.5,188.6z"/>
	</g>
	<g>
		<g>
			<path class="st11" d="M390.4,139.8l-1.1,1.3l-1.6-0.7c-0.5-0.2-1-0.1-1.3,0.3l-1.1,1.3l-1.6-0.7c-0.5-0.2-1-0.1-1.3,0.3l-1.1,1.3
				l-1.6-0.7c-0.5-0.2-1-0.1-1.3,0.3l-1.1,1.3l-0.6-0.2c-0.2-0.1-0.5,0.1-0.4,0.4l7.2,31.9l0.6,0.3c0.4,0.2,0.8,0.1,1-0.2l1.2-1.5
				l1.8,0.8c0.3,0.2,0.7,0.1,1-0.2l1.2-1.5l1.8,0.8c0.3,0.2,0.7,0.1,1-0.2l1.2-1.5l1.8,0.8c0.3,0.2,0.7,0.1,1-0.2l1.2-1.5l0,0
				c0.6,0.2,1.2-0.3,1.1-1l-7-30.9l-0.7-0.4C391.3,139.3,390.7,139.4,390.4,139.8L390.4,139.8z"/>
			
				<ellipse transform="matrix(0.9756 -0.2193 0.2193 0.9756 -25.1259 88.9061)" class="st12" cx="387.8" cy="157.6" rx="5.8" ry="12.1"/>
		</g>
		<path class="st17" d="M399.9,143.7c-1.4-0.2-2.5,0.1-3.4,0.9c-0.9,0.8-1.4,1.9-1.6,3.5c-0.2,1.6,0,2.9,0.8,3.8s1.8,1.6,3.2,1.7
			c0.8,0.1,1.4,0.1,2-0.1c0.5-0.1,1.1-0.3,1.6-0.5c0.3,0.3,0.5,0.6,0.6,1c0.1,0.4,0.2,0.8,0.1,1.3c-0.1,0.8-0.6,1.3-1.5,1.7
			s-2.2,0.5-3.9,0.3c-1.2-0.2-2.4-0.5-3.4-1s-1.9-1.1-2.6-2s-1.2-1.8-1.5-3c-0.3-1.2-0.4-2.5-0.2-4.1c0.2-1.4,0.6-2.7,1.2-3.7
			s1.3-1.9,2.2-2.5c0.9-0.6,1.9-1.1,3-1.4c1.1-0.2,2.2-0.3,3.4-0.1c1.7,0.2,3,0.7,3.8,1.3c0.9,0.7,1.2,1.4,1.1,2.3
			c-0.1,0.5-0.2,0.9-0.5,1.2s-0.6,0.6-0.9,0.7c-0.4-0.4-0.9-0.7-1.4-1C401.2,143.9,400.6,143.7,399.9,143.7L399.9,143.7z"/>
	</g>
</g>
<path class="st18" d="M416,448.7h-28.5c1.5-1.3,2.5-3.2,2.5-5.4l0,0c0-4-3.2-7.2-7.2-7.2h-76.1c-0.1,0-0.2,0-0.3,0
	c-0.1,0-0.2,0-0.3,0h-92.8c-4.4,0-7.9,3.5-7.9,7.9l0,0c0,2.4,1,4.5,2.7,5.9h-11.7c-4.4,0-8,3.6-7.9,8.1c0.1,4.4,3.8,7.8,8.2,7.8
	h28.5c-1.5,1.3-2.5,3.2-2.5,5.4l0,0c0,4,3.2,7.2,7.2,7.2H306c0.1,0,0.2,0,0.3,0c0.1,0,0.2,0,0.3,0h92.8c4.4,0,7.9-3.5,7.9-7.9l0,0
	c0-2.4-1-4.5-2.7-5.9h11.7c4.4,0,8-3.6,7.9-8.1C424.1,452.1,420.3,448.7,416,448.7z"/>
<path class="st19" d="M421.6,447.9l-66.8,1.2l-9.5-23.8c-0.9-2.2-3-3.7-5.4-3.7h-68.2c-2.5,0-4.7,1.5-5.5,3.9l-7.6,21.4
	c-1.4,3.8,1.5,7.8,5.5,7.8h90.3l67.1,1.6c2.4,0.1,4.4-1.8,4.4-4.2S423.9,447.8,421.6,447.9L421.6,447.9z"/>
</svg>
