<?xml version="1.0" encoding="UTF-8"?><svg id="Backgrounds_complex" xmlns="http://www.w3.org/2000/svg" xmlns:xlink="http://www.w3.org/1999/xlink" viewBox="0 0 360 504"><defs><style>.cls-1{fill:none;}.cls-2{clip-path:url(#clippath);}.cls-3{fill:#7eab98;}.cls-4,.cls-5,.cls-6,.cls-7,.cls-8{fill:#d0984f;}.cls-9{fill:#645665;}.cls-10{fill:#47394f;}.cls-5{letter-spacing:-.02em;}.cls-5,.cls-6,.cls-7,.cls-8{font-family:GermaniaOne-Regular, 'Germania One';}.cls-5,.cls-8{font-size:20.36px;}.cls-6{font-size:15.19px;letter-spacing:-.02em;}.cls-7{font-size:43.99px;letter-spacing:.06em;}.cls-8{letter-spacing:-.02em;}</style><clipPath id="clippath"><rect class="cls-1" x="748.43" y="547.3" width="559.27" height="509.05" transform="translate(2056.13 1603.65) rotate(-180)"/></clipPath><clipPath id="clippath-1"><rect class="cls-1" x="266.07" y="545.97" width="446.76" height="502.08"/></clipPath></defs><g class="cls-2"><path class="cls-3" d="M385.51,393.96l-.59-.56,2.56,.02c2.49-.65,5.05-1.19,7.66-1.58,10.38-1.56,20.58-.83,30.08,1.83l810.18,5.33c5.55-1.23,11.42-1.87,17.5-1.83,33.56,.25,60.61,21.29,60.42,46.98-.19,25.07-26.24,45.31-58.67,46.04,1.46,4.59,2.58,9.35,3.32,14.26,7.46,49.57-26.19,95.74-75.15,103.1-11.96,1.8-23.73,1.11-34.8-1.67,.69,2.44,1.24,4.94,1.64,7.5,5.52,34.87-17.93,67.56-52.38,73-12.16,1.92-24.05,.19-34.61-4.38-7.76,18.85-30.78,32.52-57.97,32.52-26.84,0-49.61-13.32-57.66-31.79-10.7,18.74-31.22,31.42-54.78,31.42-25.06,0-46.68-14.34-56.7-35.06-9.56,10.33-23.4,16.83-38.8,16.83-10.21,0-19.73-2.86-27.77-7.79-5.91,20.95-30.26,36.65-59.39,36.65-33.56,0-60.77-20.83-60.77-46.53,0-.72,.02-1.44,.07-2.16-25.72,15.85-54.89,15.6-67.45-1.49-3.55-4.83-5.41-10.52-5.76-16.65-9.11,5.52-19.84,8.71-31.31,8.71-33.12,0-59.97-26.52-59.97-59.23,0-9.77,2.39-18.98,6.63-27.1-3.84,.61-7.78,.92-11.8,.89-30.7-.23-56.66-19.84-66.09-46.98-38,3.92-72.72-22.63-78.45-60.72-5.4-35.92,16.86-69.63,50.84-79.58Z"/></g><rect class="cls-10" x="-.9" y="-.78" width="362.8" height="505.61"/><path class="cls-9" d="M306.28,105.63c-8.17-3.06-24.97-9.15-24.96-9.62,1.12-18.65-17.4-33.76-41.64-33.76-.5,0-1,0-1.5,.02-8.35,.22-15.94-3.26-19.53-9.04-6.82-11.04-21.73-18.63-39.13-18.63-17.94,0-33.21,8.05-39.74,19.64-3.31,5.84-10.77,9.51-19.07,9.42-.21,0-.42,0-.63,0-24.05,0-42.49,14.91-41.65,33.39-8.94,2.51-17.71,5.37-26.27,8.57-6.34,2.37-10.12,7.54-9.75,13.21,5.8,90.48,5.86,170.13,.16,260.61-.36,5.67,3.42,10.84,9.76,13.21,8.56,3.21,17.32,6.07,26.26,8.58-.02,.25-.05,.5-.06,.75-1.09,18.65,17.43,33.76,41.62,33.76,.06,0,.11,0,.17,0,8.31-.02,15.82,3.68,18.83,9.64,6.13,12.24,21.82,20.86,40.38,20.86,18.53,0,34.2-8.59,40.35-20.8,3.03-5.96,10.47-9.84,18.8-9.71,.3,0,.6,0,.89,0,24.19,0,42.69-15.11,41.6-33.76-.02-.37-.06-.73-.09-1.1,8.51-2.43,16.87-5.17,25.04-8.23,6.33-2.37,10.1-7.54,9.74-13.2-5.7-90.48-5.64-170.14,.16-260.61,.37-5.66-3.4-10.83-9.74-13.2Z"/><path class="cls-4" d="M11.59,29.01l.39,445.56c0,6.63,5.38,12,12,12l311.38,.19c6.64,0,12.02-5.38,12.02-12.01V28.62c0-6.64-5.39-12.02-12.03-12.01l-311.77,.38c-6.63,0-12,5.39-12,12.02Zm265.42-5.6c0,10.13,7.42,13.66,12.67,13.34l28.54-2.61-5.1,7.6c-2.06,2.88-4.82,9.21,.64,13.65,5.46,4.43,11.66,.97,14.09-1.56l2.48-2.39-2.99,24.48c-.43,5.3,3.2,12.8,13.33,12.8,.44,0,.85-.03,1.26-.06V415.17c-.22,0-.42-.03-.65-.03-10.13,0-13.66,7.42-13.34,12.67l2.61,28.54-7.6-5.1c-2.88-2.06-9.21-4.82-13.65,.64-4.43,5.46-.97,11.66,1.56,14.09l2.39,2.48-24.48-2.99c-5.3-.43-12.8,3.2-12.8,13.33,0,.44-193.52,1.54-193.52,1.54-.08-10.01-7.44-13.5-12.66-13.19l-28.54,2.61,5.1-7.6c2.06-2.88,4.82-9.21-.64-13.65-5.46-4.43-11.66-.97-14.09,1.56l-2.48,2.39,2.99-24.48c.43-5.3-3.2-12.8-13.33-12.8-.44,0-1.36-327.75-1.36-327.75,.17,0,.33,.02,.5,.02,10.13,0,13.66-7.42,13.34-12.67l-2.61-28.54,7.6,5.1c2.88,2.06,9.21,4.82,13.65-.64,4.43-5.46,.97-11.66-1.56-14.09l-2.39-2.48,24.48,2.99c5.3,.43,12.8-3.2,12.8-13.33,0-.44,193.76-.41,193.76-.41Z"/><g><path class="cls-4" d="M81.89,139.02c-.48-1.98-.95-3.96-1.43-5.94-.29-1.22-.38-2.03-.25-2.43,.12-.4,.45-.97,1-1.73,.54-.76,.98-1.17,1.31-1.25,.46-.11,1.07-.06,1.83,.13,.76,.19,1.35,.47,1.78,.84-.49,.51-.98,1.03-1.47,1.54-.71-.42-1.24-.6-1.59-.51-.13,.03-.27,.15-.41,.35-.14,.21-.25,.41-.32,.63-.08,.21-.03,.69,.15,1.44,.03,.11,.05,.23,.08,.34,.92-.22,1.85-.43,2.77-.64,.14,.6,.27,1.2,.41,1.81-.92,.21-1.84,.42-2.76,.64,.34,1.43,.67,2.86,1.01,4.29-.7,.16-1.4,.33-2.1,.5Z"/><path class="cls-4" d="M86.6,129.46c.69-.15,1.37-.3,2.06-.45,.4,1.85,.81,3.71,1.21,5.56,.04,.17,.16,.33,.36,.48,.2,.15,.38,.21,.52,.18,.14-.03,.4-.3,.76-.81-.41-1.92-.82-3.84-1.24-5.76,.69-.15,1.37-.29,2.06-.44,.56,2.69,1.13,5.39,1.69,8.08-.52,.11-1.04,.22-1.56,.33-.12-.28-.25-.56-.37-.84-.61,.87-1.07,1.34-1.38,1.41-.31,.07-.82-.11-1.55-.53-.73-.42-1.16-.9-1.28-1.43-.43-1.92-.86-3.85-1.29-5.77Z"/><path class="cls-4" d="M97.58,135.57c-.67,.14-1.35,.27-2.02,.41-.35-1.72-.71-3.45-1.06-5.17-.1-.51-.25-.89-.43-1.15-.18-.25-.43-.46-.74-.61,.49-.5,.98-1.01,1.48-1.51,.45,.22,.8,.51,1.07,.86,.63-.85,1.1-1.31,1.42-1.38,.32-.06,.85,.12,1.6,.55,.75,.43,1.17,.92,1.28,1.46,.18,.97,.37,1.94,.55,2.9,.1,.51,.24,.9,.41,1.15,.18,.26,.42,.47,.73,.63-.49,.49-.98,.99-1.47,1.48-.85-.43-1.38-1.17-1.58-2.22-.22-1.11-.44-2.22-.65-3.34-.03-.17-.16-.33-.38-.48-.22-.15-.42-.21-.58-.18-.16,.03-.42,.3-.77,.81,.38,1.92,.77,3.84,1.15,5.77Z"/><path class="cls-4" d="M110.47,124.83c.34,2.06,.68,4.13,1.02,6.19,.12,.34,.41,.61,.88,.82-.4,.46-.8,.93-1.2,1.39-.15-.07-.34-.2-.57-.4-.23-.2-.44-.41-.61-.63-.72,.96-1.24,1.47-1.58,1.53-.25,.04-.69-.15-1.33-.59-.64-.44-1.06-.81-1.26-1.11-.19-.31-.39-1.01-.59-2.11-.2-1.1-.26-1.83-.18-2.18,.08-.36,.34-.85,.81-1.48,.46-.63,.82-.97,1.08-1.01,.37-.06,1.02,.2,1.96,.78,.01-.31,.02-.63,.04-.94,.51-.09,1.03-.17,1.54-.26Zm-1.79,2.67c-.09-.11-.27-.22-.51-.32-.25-.1-.43-.14-.54-.12-.11,.02-.23,.11-.33,.26-.11,.15-.17,.29-.19,.41-.1,.2-.07,.82,.11,1.84,.18,1.02,.35,1.61,.52,1.77,.06,.09,.16,.2,.32,.31,.15,.11,.29,.16,.4,.14,.11-.02,.27-.12,.47-.29,.2-.17,.32-.32,.37-.44,.05-.12-.01-.72-.18-1.79-.18-1.07-.32-1.66-.41-1.77Z"/><path class="cls-4" d="M115.5,132.38c-.68,.11-1.36,.21-2.03,.32-.28-1.74-.56-3.48-.84-5.22-.08-.51-.21-.9-.38-1.16-.17-.26-.41-.48-.72-.64,.51-.48,1.02-.96,1.54-1.44,.44,.24,.78,.54,1.03,.91,.66-.83,1.16-1.26,1.48-1.31,.32-.05,.85,.16,1.57,.62,.73,.46,1.13,.97,1.21,1.52,.14,.97,.29,1.95,.43,2.92,.08,.51,.2,.9,.36,1.17,.17,.26,.4,.48,.7,.66-.51,.47-1.02,.94-1.53,1.42-.83-.46-1.32-1.23-1.48-2.29-.17-1.12-.34-2.24-.51-3.36-.03-.17-.15-.34-.36-.49-.22-.16-.41-.22-.57-.2-.16,.02-.43,.28-.8,.78,.3,1.94,.6,3.87,.91,5.81Z"/><path class="cls-4" d="M120.44,123.94c.49-.62,.88-.95,1.15-.99,.27-.04,.78,.17,1.51,.63-.03-.25-.07-.5-.1-.74-.07-.52-.19-.9-.35-1.16-.16-.26-.4-.48-.7-.66,.53-.47,1.06-.94,1.59-1.4,.84,.48,1.32,1.24,1.46,2.29,.39,2.98,.77,5.96,1.16,8.94-.53,.07-1.05,.14-1.58,.21-.1-.29-.2-.58-.31-.87-.66,.82-1.17,1.26-1.54,1.31-.25,.03-.69-.18-1.33-.64-.64-.46-1.02-.81-1.14-1.05-.15-.24-.32-.98-.5-2.24-.18-1.26-.23-2.02-.15-2.29,.05-.26,.32-.71,.81-1.33Zm2.78,1.33c-.09-.12-.26-.23-.5-.33-.24-.11-.42-.15-.54-.13-.11,.02-.23,.1-.34,.25-.11,.15-.19,.3-.23,.45-.04,.15,0,.74,.15,1.78,.14,1.04,.26,1.62,.34,1.75,.08,.13,.2,.25,.34,.37,.15,.12,.28,.17,.38,.16,.11-.01,.26-.11,.47-.27,.2-.17,.34-.31,.39-.42,.04-.15,.03-.56-.04-1.25-.03-.19-.05-.37-.08-.56-.14-1.07-.26-1.67-.35-1.78Z"/><path class="cls-4" d="M129.39,124.36c-.05-.38-.09-.76-.14-1.14,.26-.09,.51-.18,.77-.28-.13-1.14-.16-1.84-.07-2.1,.09-.27,.44-.71,1.07-1.33,.63-.62,1.1-.94,1.43-.98,.32-.04,.75,.06,1.26,.3,.52,.24,.92,.53,1.2,.88-.48,.39-.96,.78-1.44,1.17-.35-.42-.62-.62-.84-.6-.11,.01-.22,.09-.34,.24-.12,.15-.21,.3-.27,.45-.06,.15-.04,.64,.05,1.46,.75-.08,1.49-.17,2.24-.25,.06,.53,.12,1.07,.17,1.6-.74,.08-1.49,.16-2.23,.25,.23,2,.46,4.01,.68,6.01-.68,.08-1.36,.16-2.04,.24-.24-2-.47-4-.71-6.01-.26,.03-.52,.06-.79,.09Z"/><path class="cls-4" d="M138.01,129.49c-.68,.07-1.36,.14-2.05,.21-.19-1.75-.37-3.5-.56-5.25-.05-.52-.16-.91-.33-1.19-.16-.28-.39-.51-.67-.69,.54-.45,1.07-.91,1.61-1.36,.41,.27,.74,.59,.98,.98,.71-.79,1.22-1.2,1.54-1.23,.21-.02,.55,.14,1.02,.47,.47,.33,.76,.72,.87,1.16-.53,.44-1.05,.89-1.57,1.34-.03-.24-.12-.48-.25-.7-.13-.22-.24-.33-.33-.32-.18,.02-.47,.26-.86,.73,.2,1.95,.4,3.9,.59,5.85Z"/><path class="cls-4" d="M141.23,117.67c.11-.01,.38,.13,.82,.43,.43,.29,.65,.5,.66,.62,.01,.12-.17,.36-.55,.73-.38,.37-.62,.56-.73,.57-.11,.01-.38-.13-.81-.42-.43-.29-.65-.5-.67-.61-.01-.12,.17-.36,.55-.74,.38-.37,.62-.56,.73-.57Zm-.79,3.29c.7-.07,1.39-.13,2.09-.19,.16,1.76,.31,3.52,.47,5.28,.05,.52,.14,.91,.29,1.19,.15,.27,.37,.5,.66,.7-.54,.44-1.07,.88-1.6,1.33-.8-.51-1.25-1.3-1.35-2.37-.19-1.98-.37-3.95-.56-5.93Z"/><path class="cls-4" d="M149.37,120.21c.19,2.58,.37,5.15,.56,7.73,.09,1.3,.09,2.08,0,2.34-.1,.26-.49,.68-1.15,1.28-.67,.59-1.18,.91-1.53,.93-.35,.03-.81-.11-1.37-.42-.56-.31-1-.68-1.31-1.11,.5-.41,1-.81,1.5-1.22,.06,.06,.11,.12,.17,.19,.42,.45,.71,.66,.85,.65,.15-.01,.31-.09,.49-.24,.18-.15,.3-.3,.35-.45,.06-.15,.04-.78-.04-1.88,0-.2,0-.4,0-.6-.67,.55-1.13,.84-1.38,.86-.25,.02-.68-.22-1.27-.71-.6-.49-.96-.87-1.1-1.12-.14-.25-.25-.91-.34-1.95-.09-1.05-.09-1.71,0-1.99,.09-.28,.39-.71,.91-1.3,.51-.59,.92-.89,1.21-.91,.3-.02,.89,.26,1.77,.84,.04-.27,.09-.54,.13-.81,.52-.04,1.03-.08,1.55-.12Zm-2,2.47c-.09-.12-.25-.23-.48-.35-.23-.11-.4-.17-.52-.16-.12,0-.23,.09-.35,.23-.12,.14-.2,.27-.23,.39-.07,.17-.07,.68,0,1.54,.07,.85,.15,1.35,.25,1.5,.05,.1,.15,.21,.29,.34,.14,.13,.27,.19,.38,.18,.11,0,.28-.09,.49-.25,.21-.15,.35-.29,.42-.42,.06-.12,.06-.62,0-1.5-.07-.88-.15-1.38-.23-1.49Z"/><path class="cls-4" d="M153.26,128.22c-.68,.04-1.37,.09-2.05,.14-.19-2.78-.39-5.56-.58-8.34-.04-.52-.13-.91-.27-1.18-.15-.27-.37-.5-.66-.71,.56-.43,1.11-.87,1.67-1.3,.81,.53,1.24,1.32,1.31,2.38,.03,.47,.06,.95,.09,1.42,.62-.6,1.08-.91,1.37-.93,.3-.02,.79,.24,1.47,.76,.68,.53,1.04,1.07,1.07,1.62,.06,.98,.11,1.97,.17,2.95,.03,.52,.11,.92,.25,1.2,.14,.28,.35,.52,.63,.72-.55,.42-1.1,.85-1.65,1.27-.78-.54-1.2-1.34-1.27-2.41-.07-1.13-.14-2.26-.21-3.39-.01-.17-.12-.35-.32-.53-.2-.18-.38-.26-.55-.25-.16,0-.45,.24-.87,.7,.13,1.96,.25,3.91,.38,5.87Z"/><path class="cls-4" d="M160.46,121.16c.05,1.13,.11,2.25,.16,3.38,.02,.48,.21,.91,.56,1.29,.35,.38,.82,.68,1.42,.89-.55,.42-1.11,.84-1.66,1.25-.63-.26-1.18-.63-1.63-1.11-.45-.48-.69-1-.72-1.57-.07-1.35-.14-2.69-.21-4.04-.26,.01-.53,.03-.79,.04-.02-.38-.04-.76-.06-1.15,.26-.08,.52-.15,.78-.23-.05-.5-.13-.89-.25-1.18-.12-.28-.34-.56-.65-.82,.56-.42,1.13-.85,1.69-1.27,.79,.54,1.22,1.35,1.27,2.42,0,.15,.01,.31,.02,.46,.59-.03,1.18-.05,1.78-.08,.02,.54,.05,1.07,.07,1.61-.59,.03-1.18,.05-1.77,.08Z"/><path class="cls-4" d="M168.88,123.34c0,.18,.01,.37,.02,.55-1.27,.04-2.53,.08-3.8,.12,.02,.61,.12,1.09,.29,1.45,.06,.12,.15,.24,.29,.36,.14,.12,.28,.18,.43,.18,.15,0,.32-.13,.53-.39,.21-.25,.37-.55,.49-.9,.55,.36,1.1,.71,1.64,1.07-.27,.52-.68,.97-1.25,1.37-.56,.4-1.02,.6-1.37,.61-.35,.01-.87-.24-1.56-.76-.69-.51-1.12-.92-1.27-1.21-.16-.29-.26-1.04-.31-2.22-.05-1.19,0-1.94,.13-2.24,.14-.31,.53-.74,1.19-1.31,.66-.57,1.15-.85,1.47-.87,.32-.01,.83,.24,1.52,.76,.7,.52,1.12,.93,1.28,1.23,.16,.3,.25,1.03,.28,2.21Zm-2.24-1.86c-.08-.13-.21-.27-.38-.39-.17-.13-.32-.19-.46-.18-.14,0-.3,.15-.47,.42-.17,.28-.26,.69-.29,1.23,.6-.02,1.2-.04,1.79-.06-.05-.54-.12-.88-.2-1.01Z"/><path class="cls-4" d="M172.37,127.41c-.68,.01-1.37,.03-2.05,.05-.04-1.76-.09-3.52-.13-5.28-.01-.52-.09-.92-.22-1.2-.13-.28-.34-.53-.62-.73,.57-.41,1.14-.82,1.71-1.22,.4,.3,.7,.64,.89,1.04,.77-.73,1.31-1.1,1.64-1.1,.32,0,.81,.27,1.47,.83,.66,.56,.99,1.11,.99,1.66,.01,.99,.02,1.97,.03,2.96,0,.52,.07,.92,.2,1.21,.13,.28,.33,.53,.6,.74-.57,.4-1.14,.8-1.7,1.2-.75-.57-1.14-1.39-1.16-2.46-.02-1.13-.04-2.27-.05-3.4,0-.17-.1-.35-.29-.54-.19-.19-.37-.28-.53-.27-.16,0-.46,.22-.9,.66,.04,1.96,.08,3.92,.12,5.88Z"/><path class="cls-4" d="M178.45,115.88c.11,0,.37,.16,.78,.49,.41,.33,.61,.56,.61,.67,0,.12-.2,.34-.61,.68-.41,.34-.67,.51-.78,.51-.11,0-.37-.16-.77-.49-.41-.33-.61-.55-.61-.67,0-.12,.2-.35,.61-.69,.41-.34,.67-.51,.78-.51Zm-1.07,3.21c.7,0,1.4,0,2.09-.01,0,1.77,.01,3.53,.02,5.3,0,.52,.07,.92,.19,1.21,.13,.29,.32,.53,.59,.75-.57,.39-1.14,.79-1.71,1.18-.75-.58-1.13-1.4-1.14-2.47-.02-1.99-.03-3.97-.05-5.96Z"/><path class="cls-4" d="M183.03,127.33c-.68,0-1.37,0-2.05,0,0-1.76,0-3.52,0-5.28,0-.52-.06-.92-.19-1.21-.13-.29-.33-.54-.6-.75,.58-.39,1.16-.79,1.74-1.18,.39,.31,.68,.66,.87,1.06,.78-.71,1.34-1.06,1.66-1.06,.32,0,.81,.29,1.45,.87,.64,.57,.96,1.14,.95,1.69-.01,.99-.03,1.97-.04,2.96,0,.52,.05,.92,.17,1.21,.12,.29,.31,.54,.58,.76-.58,.38-1.15,.77-1.73,1.15-.74-.59-1.11-1.42-1.1-2.49,.01-1.13,.02-2.27,.03-3.4,0-.17-.09-.36-.28-.55-.19-.19-.36-.29-.53-.29-.16,0-.47,.21-.91,.64-.01,1.96-.02,3.92-.03,5.88Z"/><path class="cls-4" d="M194,119.28c-.08,2.58-.16,5.16-.24,7.74-.04,1.31-.12,2.08-.25,2.33-.13,.25-.55,.63-1.28,1.15-.72,.52-1.26,.78-1.62,.77-.35,0-.79-.19-1.32-.56-.53-.36-.92-.78-1.18-1.24,.54-.35,1.08-.7,1.62-1.06,.05,.07,.1,.13,.15,.2,.37,.49,.63,.73,.78,.74,.15,0,.32-.06,.52-.19,.19-.13,.33-.26,.4-.41,.07-.15,.12-.77,.15-1.87,.02-.2,.04-.4,.06-.6-.72,.48-1.21,.72-1.46,.71-.25,0-.65-.29-1.19-.84-.54-.55-.87-.96-.98-1.23-.11-.27-.16-.93-.14-1.98,.02-1.05,.09-1.71,.21-1.98,.12-.27,.46-.67,1.03-1.2,.57-.53,1.01-.79,1.3-.78,.3,0,.86,.35,1.67,1.02,.07-.26,.14-.53,.21-.79,.52,.01,1.04,.03,1.55,.05Zm-2.24,2.25c-.08-.12-.22-.26-.44-.39-.22-.14-.38-.21-.5-.21-.12,0-.24,.06-.38,.19-.14,.13-.22,.25-.27,.36-.09,.16-.14,.67-.16,1.53-.02,.86,.01,1.36,.09,1.52,.04,.1,.12,.22,.25,.37,.13,.14,.25,.21,.36,.22,.11,0,.29-.06,.51-.19,.23-.13,.38-.26,.46-.37,.08-.12,.13-.61,.15-1.5,.02-.88,0-1.39-.08-1.51Z"/><path class="cls-4" d="M200.93,121.16c-.05,1.13-.11,2.25-.16,3.38-.02,.48,.12,.93,.44,1.34,.31,.41,.76,.75,1.33,1.02-.59,.36-1.18,.73-1.77,1.09-.61-.31-1.11-.73-1.52-1.26-.4-.52-.6-1.07-.57-1.63,.06-1.35,.11-2.69,.17-4.04-.26-.01-.53-.02-.79-.03,.02-.38,.03-.76,.05-1.15,.27-.05,.53-.1,.8-.15,0-.5-.05-.9-.14-1.19-.09-.29-.28-.59-.57-.87,.6-.37,1.2-.74,1.8-1.1,.74,.62,1.08,1.46,1.03,2.53,0,.15-.01,.31-.02,.46,.59,.03,1.18,.06,1.78,.09-.03,.54-.05,1.07-.08,1.61-.59-.03-1.18-.06-1.77-.09Z"/><path class="cls-4" d="M204.89,116.55c.11,0,.36,.19,.75,.54,.38,.35,.57,.59,.57,.71,0,.12-.22,.33-.65,.64-.43,.31-.7,.47-.81,.46-.11,0-.36-.19-.74-.54-.38-.35-.57-.59-.57-.7,0-.12,.22-.33,.65-.65,.43-.31,.7-.47,.81-.46Zm-1.26,3.14c.7,.04,1.39,.08,2.09,.12-.1,1.76-.2,3.53-.31,5.29-.03,.52,0,.93,.12,1.22,.11,.29,.29,.55,.55,.78-.59,.36-1.19,.72-1.78,1.08-.71-.62-1.04-1.47-.99-2.54,.11-1.98,.21-3.97,.32-5.95Z"/><path class="cls-4" d="M212.56,126.58c-.16,.33-.54,.74-1.13,1.24-.59,.5-1.03,.74-1.31,.72-.28-.02-.72-.33-1.31-.92-.03,.44-.06,.89-.09,1.33-.03,.52,0,.93,.11,1.22,.1,.29,.28,.56,.54,.79-.59,.35-1.18,.71-1.77,1.06-.7-.63-1.02-1.48-.96-2.55,.13-2.17,.27-4.33,.4-6.5,.06-.97-.16-1.68-.66-2.14,.6-.36,1.21-.71,1.81-1.07,.28,.25,.53,.64,.75,1.15,.87-.68,1.48-1,1.83-.98,.25,.02,.64,.32,1.17,.9,.52,.58,.84,1.04,.95,1.39,.11,.35,.12,1.08,.04,2.19-.08,1.11-.21,1.83-.37,2.16Zm-3.53-.64c.06,.13,.2,.27,.42,.43,.21,.15,.4,.23,.55,.24,.15,.01,.35-.16,.61-.53,.15-.22,.26-.83,.33-1.81,.07-.98,.04-1.6-.08-1.84-.06-.12-.14-.24-.25-.39-.11-.14-.22-.22-.33-.22-.11,0-.29,.05-.53,.17-.24,.12-.4,.24-.48,.36-.08,.12-.16,.71-.23,1.78-.07,1.07-.07,1.67,0,1.8Z"/><path class="cls-4" d="M219,126.57c-.03,.32-.48,.8-1.34,1.46-.86,.66-1.48,.97-1.87,.94-.39-.03-.85-.26-1.4-.68-.54-.42-.94-.9-1.18-1.43,.56-.32,1.13-.64,1.69-.96,.46,.75,.81,1.14,1.05,1.16,.18,.01,.4-.05,.68-.2,.27-.15,.42-.3,.43-.45,0-.04-.11-.14-.35-.3-.24-.16-.53-.36-.87-.6-.34-.24-.68-.5-1.02-.79-.33-.29-.61-.63-.83-1.03-.22-.4-.32-.79-.29-1.17,.03-.39,.42-.85,1.19-1.38,.76-.53,1.34-.78,1.72-.75,.38,.03,.85,.26,1.41,.69,.55,.43,.95,.91,1.18,1.44-.57,.31-1.15,.63-1.72,.94-.46-.76-.82-1.15-1.06-1.17-.13-.01-.29,.05-.48,.17-.2,.12-.3,.24-.31,.35,0,.11,.17,.3,.53,.57,.36,.27,.76,.54,1.2,.83,.43,.29,.82,.65,1.17,1.09,.34,.44,.5,.86,.46,1.28Z"/><path class="cls-4" d="M229.63,121.86c-.24,2.08-.47,4.16-.71,6.24,.02,.36,.23,.7,.62,1.03-.51,.34-1.02,.67-1.53,1.01-.12-.11-.27-.29-.44-.54-.17-.25-.31-.51-.42-.77-.95,.73-1.59,1.07-1.93,1.04-.25-.03-.62-.34-1.12-.93-.5-.59-.8-1.07-.9-1.42-.1-.35-.1-1.08,.02-2.19,.11-1.11,.25-1.83,.42-2.15,.17-.32,.56-.72,1.18-1.2,.62-.48,1.06-.71,1.31-.68,.37,.04,.93,.47,1.66,1.29,.1-.3,.19-.59,.29-.89,.52,.06,1.03,.12,1.55,.17Zm-2.45,2.08c-.06-.14-.19-.28-.4-.44-.21-.16-.37-.25-.49-.26-.12-.01-.25,.04-.39,.16-.14,.12-.24,.23-.3,.34-.16,.17-.29,.77-.39,1.8-.11,1.03-.1,1.64,.01,1.84,.03,.11,.1,.23,.22,.39,.12,.15,.23,.23,.34,.24,.11,.01,.29-.04,.53-.15,.24-.11,.4-.22,.48-.33,.08-.1,.18-.69,.31-1.77,.12-1.08,.15-1.68,.09-1.82Z"/><path class="cls-4" d="M232.39,130.49c-.68-.08-1.36-.17-2.04-.25,.21-1.75,.41-3.5,.62-5.25,.06-.52,.05-.92-.05-1.22-.09-.3-.26-.57-.51-.82,.62-.32,1.25-.65,1.87-.97,.35,.35,.6,.74,.74,1.15,.86-.61,1.46-.9,1.78-.86,.32,.04,.77,.38,1.34,1.03,.57,.65,.82,1.24,.75,1.79-.13,.98-.26,1.95-.39,2.93-.07,.52-.06,.92,.03,1.22,.09,.3,.25,.57,.49,.82-.62,.31-1.24,.63-1.86,.94-.67-.67-.94-1.54-.8-2.6,.14-1.12,.29-2.25,.43-3.37,.02-.17-.05-.36-.21-.58-.16-.21-.33-.33-.49-.35-.16-.02-.49,.15-.98,.53-.24,1.95-.48,3.89-.72,5.84Z"/><path class="cls-4" d="M239.45,123.73c.65-.46,1.11-.67,1.38-.63,.27,.04,.7,.38,1.28,1.02,.04-.25,.07-.5,.11-.74,.07-.52,.07-.92-.02-1.21-.09-.29-.25-.57-.49-.83,.64-.31,1.27-.61,1.91-.92,.68,.69,.93,1.56,.78,2.61-.44,2.97-.89,5.95-1.33,8.92-.52-.08-1.05-.16-1.57-.23-.02-.31-.04-.61-.06-.92-.86,.61-1.47,.89-1.84,.84-.25-.03-.61-.36-1.1-.98-.49-.62-.76-1.06-.81-1.32-.08-.27-.03-1.03,.14-2.29,.17-1.26,.33-2.01,.48-2.25,.12-.24,.5-.59,1.14-1.06Zm2.31,2.04c-.05-.14-.18-.29-.39-.46-.21-.17-.37-.26-.48-.28-.11-.02-.25,.03-.4,.15-.15,.11-.26,.24-.35,.37-.08,.13-.2,.72-.34,1.75-.14,1.04-.2,1.63-.15,1.77,.04,.15,.12,.3,.23,.45,.11,.15,.22,.24,.33,.25,.11,.02,.28-.03,.53-.13,.24-.1,.41-.2,.49-.29,.08-.13,.18-.54,.3-1.21,.03-.19,.05-.37,.08-.56,.15-1.07,.2-1.67,.15-1.81Z"/><path class="cls-4" d="M250.89,126.45c-.18,1.11-.37,2.23-.55,3.34-.08,.47,.02,.93,.28,1.38,.26,.45,.67,.84,1.2,1.17-.63,.29-1.26,.58-1.89,.88-.57-.38-1.02-.86-1.37-1.43-.34-.57-.47-1.13-.38-1.68,.21-1.33,.43-2.66,.64-3.99-.26-.04-.52-.08-.78-.12,.06-.38,.12-.76,.18-1.13,.27-.02,.54-.04,.81-.06,.06-.5,.06-.9,0-1.2-.06-.3-.21-.62-.47-.93,.64-.3,1.28-.59,1.92-.88,.67,.7,.91,1.58,.73,2.63-.03,.15-.05,.3-.08,.45,.59,.1,1.17,.2,1.76,.29-.09,.53-.18,1.06-.27,1.59-.58-.1-1.17-.2-1.75-.29Z"/><path class="cls-4" d="M254.76,133.86c-.68-.12-1.35-.24-2.03-.36,.3-1.74,.6-3.47,.9-5.21,.09-.51,.09-.92,.01-1.23-.08-.31-.23-.59-.46-.85,.64-.29,1.28-.58,1.92-.86,.32,.37,.55,.77,.68,1.21,.9-.57,1.5-.82,1.82-.76,.21,.04,.49,.28,.85,.73,.36,.45,.53,.9,.53,1.36-.63,.28-1.25,.57-1.88,.85,.03-.24,.02-.49-.05-.74-.07-.25-.14-.38-.23-.4-.18-.03-.52,.12-1.03,.47-.34,1.93-.69,3.86-1.03,5.79Z"/><path class="cls-4" d="M261.1,123.37c.11,.02,.33,.23,.67,.63,.34,.4,.49,.66,.47,.78-.02,.12-.27,.3-.73,.55-.47,.25-.75,.37-.86,.35-.11-.02-.33-.23-.67-.63-.34-.4-.5-.66-.47-.77,.02-.12,.26-.3,.73-.56,.47-.26,.75-.37,.87-.35Zm-1.66,2.94c.69,.13,1.38,.26,2.07,.39-.33,1.73-.66,3.47-.99,5.2-.1,.51-.11,.92-.04,1.22,.07,.3,.22,.59,.44,.85-.64,.28-1.28,.56-1.91,.84-.63-.71-.85-1.59-.65-2.65,.36-1.95,.72-3.9,1.09-5.86Z"/><path class="cls-4" d="M261.52,133.4c-.15-.37-.11-1.19,.14-2.45,.24-1.26,.51-2.04,.79-2.34,.2-.22,.66-.51,1.37-.88,.71-.37,1.24-.51,1.57-.45,.34,.07,.76,.35,1.26,.86,.5,.5,.84,1.03,1.03,1.58-.61,.24-1.21,.49-1.82,.74-.09-.27-.22-.57-.39-.91-.17-.34-.32-.52-.43-.54-.21-.04-.49,.12-.84,.49-.19,.23-.38,.84-.57,1.83-.2,.99-.25,1.62-.17,1.91,.06,.15,.14,.31,.24,.48,.1,.17,.22,.27,.36,.3,.13,.03,.33-.05,.59-.24,.26-.19,.5-.45,.7-.78,.46,.47,.91,.94,1.37,1.4-.38,.44-.89,.79-1.54,1.05-.64,.26-1.13,.36-1.47,.29-.34-.07-.76-.4-1.27-1.01-.51-.6-.82-1.05-.92-1.33Z"/><path class="cls-4" d="M269.24,136.69c-.67-.14-1.35-.29-2.02-.43,.57-2.73,1.14-5.46,1.71-8.18,.11-.51,.13-.91,.06-1.21-.07-.3-.22-.58-.44-.86,.65-.27,1.31-.53,1.97-.79,.63,.73,.84,1.61,.62,2.65-.12,.57-.24,1.14-.37,1.71,.97-.59,1.6-.85,1.87-.79,.27,.06,.69,.45,1.25,1.17,.56,.72,.81,1.24,.76,1.57-.05,.23-.3,.58-.75,1.06-.45,.48-.85,.83-1.21,1.05,.55,1.06,.84,2,.87,2.81-.74,.29-1.48,.59-2.22,.89-.06-.86-.16-1.58-.3-2.17-.14-.59-.39-1.17-.75-1.74,.04-.17,.07-.35,.11-.52,.37-.15,.78-.4,1.23-.75,.45-.35,.73-.63,.83-.84-.21-.44-.41-.69-.62-.73-.11-.02-.33,.04-.64,.2-.31,.16-.57,.31-.79,.47-.39,1.82-.78,3.63-1.17,5.45Z"/><path class="cls-4" d="M280.1,136.61c-.07,.31-.59,.72-1.54,1.25-.95,.52-1.62,.74-2,.66-.38-.09-.81-.38-1.29-.88-.48-.5-.8-1.03-.97-1.59,.61-.23,1.21-.47,1.82-.7,.35,.81,.64,1.25,.88,1.3,.17,.04,.41,0,.7-.1,.3-.11,.46-.24,.5-.39,0-.04-.09-.16-.31-.35-.21-.19-.47-.43-.78-.72-.31-.29-.61-.6-.9-.93-.29-.33-.52-.71-.68-1.14-.16-.42-.2-.83-.12-1.2,.09-.38,.54-.78,1.38-1.19,.84-.42,1.45-.58,1.82-.49,.38,.09,.81,.38,1.3,.89,.49,.5,.81,1.04,.97,1.6-.62,.23-1.23,.45-1.84,.68-.35-.82-.65-1.25-.88-1.31-.12-.03-.29,0-.5,.1-.21,.09-.33,.19-.36,.3-.03,.11,.12,.32,.45,.64,.32,.32,.68,.65,1.07,1,.39,.35,.72,.76,1.01,1.25,.28,.48,.37,.93,.27,1.33Z"/></g><text class="cls-6" transform="translate(107.79 379.28)"><tspan x="0" y="0" xml:space="preserve">brought to you by web.dev  </tspan></text><path class="cls-4" d="M197.45,63.1s-.38,7.28-6.79,8.92c1.32-2.2-.03-5.36-.03-5.36l-3.03-8.48c-.38-.78-1.53-.67-1.81,.17l-2.01,6.68c-.1-.06-.21-.11-.32-.16-.17-.08-.34-.14-.51-.2-1.19-1.27-2.67-1.8-3.49-1.16-.37,.29-.55,.76-.54,1.34-.67-.43-1.41-.6-2.07-.48l-1.09-6.55c-.17-.85-1.31-1.03-1.78-.27l-4.12,8.26s-1.07,1.86-1.06,3.76c-.03-.02-.06-.03-.09-.05,.03,.09,.07,.18,.1,.28,0,.03,0,.06,0,.09,.01,.16,.04,.31,.08,.46,.03,.84,.21,1.72,.73,2.47-6.5-1.23-7.34-8.47-7.34-8.47-5.41,1.2-15.75,11.06-11.61,27.41,0,0,6.64-8.76,16.53-3.91,0,0,1.83-4.3,6.01-4.06,5.44,.1,6.46,6.79,6.46,6.79,.47,.66,1.74,.88,1.97,.1,1.25-4.26,3.77-7.31,6.12-7.47,4.15-.5,6.25,3.67,6.25,3.67,9.57-5.47,16.75,2.85,16.75,2.85,3.1-16.58-7.85-25.77-13.32-26.62Z"/><path class="cls-4" d="M163.59,440.05s.38-7.28,6.79-8.92c-1.32,2.2,.03,5.36,.03,5.36l3.03,8.48c.38,.78,1.53,.67,1.81-.17l2.01-6.68c.1,.06,.21,.11,.32,.16,.17,.08,.34,.14,.51,.2,1.19,1.27,2.67,1.8,3.49,1.16,.37-.29,.55-.76,.54-1.34,.67,.43,1.41,.6,2.07,.48l1.09,6.55c.17,.85,1.31,1.03,1.78,.27l4.12-8.26s1.07-1.86,1.06-3.76c.03,.02,.06,.03,.09,.05-.03-.09-.07-.18-.1-.28,0-.03,0-.06,0-.09-.01-.16-.04-.31-.08-.46-.03-.84-.21-1.72-.73-2.47,6.5,1.23,7.34,8.47,7.34,8.47,5.41-1.2,15.75-11.06,11.61-27.41,0,0-6.64,8.76-16.53,3.91,0,0-1.83,4.3-6.01,4.06-5.44-.1-6.46-6.79-6.46-6.79-.47-.66-1.74-.88-1.97-.1-1.25,4.26-3.77,7.31-6.12,7.47-4.15,.5-6.25-3.67-6.25-3.67-9.57,5.47-16.75-2.85-16.75-2.85-3.1,16.58,7.85,25.77,13.32,26.62Z"/><g><g><path class="cls-4" d="M106.91,179.67c-2,.52-3.99,1.05-5.98,1.61-2.16-7.69-4.32-15.39-6.48-23.08-.4-1.44-.91-2.48-1.52-3.13-.61-.65-1.43-1.16-2.47-1.53,1.51-1.61,3.04-3.21,4.59-4.79,2.85,.96,4.64,2.94,5.4,5.89,.34,1.32,.68,2.64,1.02,3.95,1.61-2.08,2.9-3.22,3.82-3.45,.92-.22,2.58,.21,4.96,1.34,2.37,1.13,3.7,2.48,4.04,4.02,.6,2.76,1.2,5.52,1.81,8.28,.32,1.46,.75,2.55,1.3,3.27,.55,.72,1.28,1.3,2.21,1.73-1.46,1.46-2.91,2.93-4.33,4.41-2.56-1.13-4.22-3.16-4.94-6.15-.76-3.16-1.52-6.32-2.27-9.48-.12-.48-.53-.92-1.23-1.31-.71-.39-1.31-.52-1.81-.39-.5,.12-1.28,.95-2.32,2.49,1.41,5.44,2.81,10.88,4.22,16.33Z"/><path class="cls-4" d="M129,174.86c-2.02,.36-4.05,.74-6.06,1.15-.99-4.95-1.98-9.9-2.97-14.85-.29-1.46-.72-2.56-1.29-3.3-.57-.74-1.33-1.32-2.27-1.75,1.57-1.48,3.16-2.94,4.77-4.4,1.36,.64,2.45,1.48,3.28,2.52,2.07-2.46,3.63-3.76,4.63-3.92,.66-.11,1.77,.26,3.29,1.12,1.52,.86,2.48,1.92,2.9,3.16-1.59,1.37-3.16,2.76-4.7,4.15-.15-.69-.44-1.34-.9-1.94-.45-.61-.81-.89-1.07-.84-.55,.09-1.42,.86-2.56,2.32,.99,5.53,1.98,11.07,2.97,16.6Z"/><path class="cls-4" d="M150.71,170.16c-1.76,1.62-3.07,2.5-3.97,2.6-.9,.11-2.37-.44-4.46-1.61-2.09-1.17-3.43-2.06-3.97-2.69-.81-.98-1.48-3.25-2.01-6.81-.52-3.56-.52-5.92,.01-7.06,.36-.76,1.44-2,3.29-3.69,1.85-1.69,3.28-2.58,4.25-2.7,.97-.11,2.57,.43,4.75,1.64,2.19,1.22,3.53,2.17,4.05,2.83,.79,.99,1.33,3.28,1.65,6.86,.31,3.59,.19,5.95-.38,7.09-.38,.74-1.47,1.91-3.23,3.53Zm-5.79-2.93c.54,.38,.95,.55,1.23,.52,.28-.03,.64-.3,1.08-.79,.44-.49,.75-.92,.93-1.3,.34-.68,.35-2.51,.03-5.48-.32-2.97-.73-4.76-1.23-5.39-.27-.32-.68-.68-1.24-1.05-.56-.38-.99-.55-1.28-.52-.3,.03-.67,.3-1.13,.8-.46,.5-.77,.94-.96,1.31-.35,.69-.33,2.52,.05,5.48,.38,2.96,.81,4.75,1.31,5.37,.26,.32,.67,.67,1.21,1.05Z"/><path class="cls-4" d="M175.25,170.28c-2.05,.04-4.1,.11-6.14,.19-.22-5.44-.45-10.88-.67-16.32-.02-.5-.34-1-.95-1.52-.62-.51-1.13-.76-1.54-.74-.41,.02-1.06,.4-1.94,1.16,.32,5.88,.65,11.75,.97,17.62-2.05,.11-4.09,.25-6.14,.4-.38-5.04-.76-10.07-1.15-15.11-.11-1.49-.4-2.63-.85-3.41-.46-.79-1.14-1.45-2.05-1.99,1.73-1.28,3.47-2.54,5.24-3.78,1.16,.74,2.03,1.53,2.61,2.34,2.06-1.82,3.54-2.74,4.38-2.78,.5-.02,1.34,.26,2.5,.86,1.16,.6,2.22,1.34,3.17,2.23,2.56-2.27,4.4-3.38,5.42-3.4,1.02-.01,2.58,.79,4.62,2.42,2.04,1.63,3.03,3.26,3.01,4.84-.04,2.82-.08,5.65-.12,8.47-.02,1.49,.15,2.65,.52,3.48,.37,.83,.95,1.55,1.75,2.18-1.75,1.09-3.48,2.19-5.18,3.31-2.22-1.68-3.37-4.03-3.4-7.11-.02-3.25-.04-6.5-.07-9.75,0-.5-.3-1.01-.9-1.55-.6-.54-1.09-.8-1.47-.79-.38,0-1.08,.38-2.08,1.13,.07,.29,.11,.51,.11,.66,.12,5.65,.23,11.3,.35,16.95Z"/><path class="cls-4" d="M207.37,159.4c-.04,.53-.09,1.05-.13,1.58-3.88-.33-7.75-.58-11.64-.76-.08,1.75,.1,3.15,.52,4.2,.14,.36,.41,.73,.8,1.12,.39,.39,.81,.59,1.25,.62,.44,.02,1.01-.29,1.72-.96,.71-.66,1.28-1.47,1.73-2.44,1.57,1.17,3.12,2.36,4.65,3.56-.97,1.39-2.36,2.56-4.16,3.52-1.8,.96-3.21,1.42-4.27,1.36-1.05-.06-2.53-.91-4.48-2.54-1.95-1.63-3.16-2.87-3.57-3.75-.42-.88-.59-3.02-.5-6.43,.09-3.41,.37-5.54,.85-6.39,.49-.85,1.81-2.02,4.02-3.49,2.21-1.46,3.84-2.16,4.85-2.1,1,.06,2.55,.92,4.59,2.62,2.04,1.7,3.23,3.01,3.62,3.91,.39,.9,.44,3.03,.16,6.38Zm-6.35-5.99c-.22-.41-.58-.82-1.06-1.23-.49-.41-.96-.63-1.4-.65-.45-.02-.97,.34-1.57,1.08-.6,.75-1,1.89-1.2,3.44,1.85,.09,3.71,.19,5.56,.31,0-1.55-.11-2.54-.33-2.95Z"/><path class="cls-4" d="M217.69,153.24c-.37,3.21-.74,6.43-1.11,9.64-.16,1.37,.21,2.68,1.08,3.93,.87,1.25,2.13,2.33,3.79,3.23-1.86,.89-3.71,1.79-5.53,2.71-1.75-1.03-3.2-2.32-4.33-3.89-1.13-1.57-1.64-3.15-1.49-4.76,.36-3.85,.73-7.69,1.09-11.54-.82-.08-1.65-.15-2.47-.22,.09-1.09,.19-2.19,.28-3.28,.85-.1,1.69-.2,2.54-.3,.07-1.43-.03-2.58-.29-3.44-.26-.86-.83-1.73-1.71-2.6,1.96-.96,3.94-1.91,5.94-2.83,2.29,1.92,3.24,4.42,2.88,7.47-.05,.44-.1,.87-.15,1.31,1.87,.22,3.73,.45,5.6,.69-.2,1.52-.41,3.05-.61,4.57-1.84-.24-3.68-.47-5.52-.68Z"/><path class="cls-4" d="M234.84,173.39c-2.15,1.07-3.65,1.54-4.54,1.39-.89-.15-2.16-1.08-3.84-2.79-1.69-1.71-2.72-2.93-3.06-3.69-.51-1.16-.52-3.53-.03-7.1,.49-3.57,1.14-5.83,1.98-6.77,.56-.63,1.94-1.52,4.19-2.63,2.25-1.11,3.87-1.57,4.84-1.41,.96,.16,2.35,1.12,4.12,2.9,1.77,1.78,2.79,3.07,3.12,3.84,.48,1.17,.37,3.52-.32,7.05-.7,3.53-1.48,5.77-2.34,6.7-.57,.61-1.95,1.43-4.1,2.49Zm-4.75-4.43c.41,.51,.76,.79,1.04,.84,.28,.05,.7-.11,1.26-.46,.56-.35,.98-.68,1.26-.99,.52-.56,1.04-2.31,1.56-5.26,.52-2.94,.63-4.78,.32-5.52-.17-.39-.47-.84-.9-1.36-.43-.52-.8-.8-1.09-.85-.29-.05-.73,.1-1.31,.45-.58,.35-1.01,.68-1.29,.99-.52,.57-1.02,2.33-1.48,5.28-.46,2.95-.54,4.79-.24,5.52,.16,.38,.45,.83,.87,1.34Z"/><path class="cls-4" d="M241.51,176.34c1.61-7.83,3.22-15.65,4.84-23.48,.3-1.46,.33-2.62,.09-3.48-.24-.86-.74-1.69-1.49-2.49,2.07-.74,4.15-1.46,6.25-2.16,2.09,2.16,2.76,4.74,2.09,7.7-.3,1.3-.59,2.6-.89,3.9,2.31-1.07,3.91-1.48,4.78-1.27,.87,.21,2.02,1.3,3.4,3.27,1.38,1.97,2.09,3.35,2.16,4.13,.17,.8-.23,2.96-1.17,6.48-.94,3.52-1.68,5.59-2.21,6.21-.43,.64-1.69,1.49-3.74,2.59-2.05,1.09-3.42,1.57-4.15,1.39-1.06-.26-2.5-1.7-4.4-4.32-.36,.83-.73,1.67-1.09,2.5-1.49-.33-2.99-.65-4.49-.96Zm7.76-5.17c.14,.41,.49,.88,1.07,1.42,.58,.54,1.03,.85,1.37,.93,.34,.08,.75-.02,1.22-.29,.48-.28,.86-.59,1.14-.94,.28-.35,.79-1.98,1.5-4.9,.72-2.91,1.03-4.59,.93-5.02-.1-.43-.3-.89-.61-1.37-.31-.48-.64-.76-.97-.84-.34-.08-.9-.01-1.69,.21-.78,.22-1.32,.45-1.61,.69-.37,.43-.89,2.12-1.56,5.07-.67,2.95-.94,4.64-.8,5.04Z"/><path class="cls-4" d="M280.97,174.75c-.17,.5-.34,1-.51,1.5-3.73-1.27-7.47-2.46-11.24-3.58-.5,1.68-.66,3.09-.5,4.2,.05,.38,.22,.81,.52,1.28,.29,.47,.65,.77,1.07,.9,.43,.13,1.06-.04,1.91-.51,.85-.47,1.61-1.12,2.28-1.95,1.26,1.52,2.5,3.05,3.71,4.59-1.29,1.11-2.93,1.9-4.93,2.4-2,.49-3.49,.59-4.51,.28-1.02-.31-2.26-1.5-3.78-3.56-1.52-2.06-2.4-3.55-2.6-4.5-.2-.95,.15-3.07,1.05-6.36,.9-3.29,1.69-5.29,2.37-6,.68-.71,2.26-1.52,4.78-2.41,2.52-.88,4.28-1.16,5.25-.86,.97,.3,2.28,1.51,3.87,3.66,1.59,2.15,2.45,3.71,2.62,4.68,.17,.97-.29,3.05-1.37,6.23Zm-4.8-7.37c-.12-.45-.37-.94-.75-1.45-.38-.52-.79-.84-1.22-.97-.43-.13-1.03,.09-1.8,.67-.77,.58-1.43,1.6-2,3.05,1.8,.53,3.59,1.08,5.38,1.65,.38-1.51,.5-2.49,.38-2.94Z"/><path class="cls-4" d="M286.8,189.47c-1.95-.74-3.9-1.45-5.86-2.15,1.69-4.76,3.37-9.52,5.06-14.28,.5-1.41,.69-2.57,.57-3.5-.12-.93-.47-1.82-1.07-2.67,2.12-.46,4.25-.9,6.4-1.32,.85,1.25,1.37,2.53,1.56,3.85,3.06-1.04,5.1-1.34,6.05-.97,.63,.25,1.41,1.14,2.29,2.67,.89,1.53,1.18,2.94,.91,4.21-2.09,.35-4.18,.73-6.24,1.12,.23-.67,.3-1.38,.22-2.13-.08-.75-.25-1.18-.5-1.28-.53-.21-1.68,0-3.42,.66-1.99,5.26-3.98,10.51-5.96,15.77Z"/></g><path class="cls-4" d="M63.23,182.89c-.84-2.04-1.69-4.08-2.53-6.12-2.25-5.42-3.18-9.11-2.77-11.05,.41-1.94,1.78-4.91,4.23-8.87,2.46-3.96,4.63-6.24,6.35-6.85,2.97-1.05,6.88-.81,11.6,.81,4.72,1.63,8.04,4.07,10.04,7.2-2.4,2.59-4.73,5.21-7.01,7.85-1.6-2.15-3.65-3.94-6.16-5.34-2.51-1.4-4.16-1.96-4.89-1.7-1.31,.46-2.42,2.09-3.28,4.86-.36,1.09,.38,4.09,2.22,9.02,.77,2.07,1.55,4.14,2.32,6.2,1.89,5.06,3.28,7.83,4.16,8.3,2.32,1.59,4.05,2.2,5.24,1.78,.66-.23,1.51-1.52,2.59-3.84,1.08-2.33,1.68-4.68,1.77-7.08,3.29,.86,6.54,1.77,9.75,2.73,0,3.38-1.32,6.86-3.82,10.49-2.5,3.64-4.94,5.89-7.46,6.79-1.47,.52-4.16,0-8.19-1.49-4.03-1.47-6.87-2.72-8.43-3.86-1.56-1.14-3.47-4.41-5.72-9.84Z"/></g><text class="cls-8" transform="translate(118.06 259.13)"><tspan x="0" y="0">Spooky UI treats</tspan></text><text class="cls-5" transform="translate(72.45 281.71)"><tspan x="0" y="0">to celebrate responsive web!</tspan></text><g><text class="cls-7" transform="translate(134.42 217.07)"><tspan x="0" y="0">2022</tspan></text><path class="cls-4" d="M250.81,214.18l.58-3.85c.09-.63,.46-1.15,.96-1.38l3.14-1.47c1.32-.62,1.3-2.82-.02-3.42l-3.16-1.43c-.5-.23-.87-.75-.97-1.37l-.62-3.85c-.22-1.37-1.6-1.96-2.52-1.08l-3.39,3.28c-.33,.32-.76,.47-1.19,.4l-4.36-.67c-1.33-.2-2.24,1.53-1.49,2.84l1.16,2.03,.36,.63c.35,.61,.35,1.41,.01,2.03l-.04,.08-1.45,2.6c-.73,1.32,.2,3.04,1.52,2.82l4.35-.72c.43-.07,.86,.07,1.19,.39l3.43,3.25c.92,.87,2.3,.26,2.51-1.11Z"/><path class="cls-4" d="M110.23,214.18l-.58-3.85c-.09-.63-.46-1.15-.96-1.38l-3.14-1.47c-1.32-.62-1.3-2.82,.02-3.42l3.16-1.43c.5-.23,.87-.75,.97-1.37l.62-3.85c.22-1.37,1.6-1.96,2.52-1.08l3.39,3.28c.33,.32,.76,.47,1.19,.4l4.36-.67c1.33-.2,2.24,1.53,1.49,2.84l-1.16,2.03-.36,.63c-.35,.61-.35,1.41-.01,2.03l.04,.08,1.45,2.6c.73,1.32-.2,3.04-1.52,2.82l-4.35-.72c-.43-.07-.86,.07-1.19,.39l-3.43,3.25c-.92,.87-2.3,.26-2.51-1.11Z"/></g><path class="cls-4" d="M106.05,109.39c-3.74,0-6.77-1.05-8.98-3.12-2.45-2.29-3.74-5.77-3.74-10.06,0-8.53,6.05-17.63,19.56-18.73,8.37-.68,17.32,6,25.98,12.46,8.33,6.22,16.94,12.65,24.69,12.38,14.95-.53,16.14-11.6,16.19-12.07,.07-.8,.78-1.39,1.58-1.32,.8,.07,1.39,.77,1.32,1.57-.41,4.88-4.9,14.23-18.98,14.73-8.77,.31-17.8-6.44-26.53-12.96-8.22-6.14-16.73-12.49-24-11.9-12.47,1.02-16.89,9.16-16.89,15.83,0,3.46,.98,6.21,2.82,7.93,1.88,1.76,4.66,2.52,8.28,2.29,4.85-.16,7.27-3.6,7.19-6.92-.07-2.77-2.02-5.99-7.26-5.88-.78,0-1.46-.63-1.48-1.43-.01-.8,.63-1.46,1.43-1.48,.08,0,.16,0,.25,0,6.7,0,9.87,4.49,9.97,8.72,.11,4.63-3.34,9.67-9.96,9.89-.49,.03-.96,.05-1.43,.05Z"/><path class="cls-4" d="M256.87,108.75c-.51,0-1.04-.02-1.59-.05-6.64-.22-10.13-5.14-10.02-9.65,.14-5.82,5.36-8.4,10.11-8.31,.8,.01,1.44,.67,1.43,1.48-.01,.8-.68,1.45-1.48,1.43-5.15-.09-7.09,2.9-7.16,5.48-.08,3.2,2.39,6.51,7.25,6.67,3.8,.25,6.61-.47,8.4-2.14,1.68-1.58,2.54-4.08,2.54-7.44,0-6.67-4.42-14.81-16.89-15.83-7.27-.6-15.78,5.76-24,11.9-8.74,6.52-17.75,13.28-26.53,12.96-14.08-.5-18.57-9.85-18.98-14.73-.07-.8,.53-1.5,1.33-1.57,.81-.07,1.5,.52,1.57,1.32,.04,.47,1.23,11.54,16.19,12.07,7.77,.29,16.36-6.16,24.69-12.38,8.66-6.46,17.61-13.14,25.98-12.46,13.51,1.1,19.56,10.2,19.56,18.73,0,4.2-1.16,7.41-3.46,9.56-2.11,1.98-5.11,2.97-8.94,2.97Z"/><path class="cls-4" d="M244.84,425.46c-7.59,0-15.62-6-23.4-11.8-7.84-5.85-15.95-11.91-23.21-11.65-14.01,.49-15.13,10.85-15.17,11.3-.07,.8-.77,1.39-1.58,1.32-.8-.07-1.39-.77-1.32-1.57,.01-.13,1.31-13.37,17.96-13.95,8.28-.29,16.81,6.07,25.05,12.23,7.74,5.78,15.73,11.74,22.56,11.19,11.69-.95,15.84-8.59,15.84-14.83,0-2.64-.91-4.88-2.62-6.48-2.12-1.98-5.45-2.93-9.37-2.67-4.38,.15-6.58,2.82-6.52,5.39,.06,2.47,2.23,4.92,6.93,4.84,.79-.02,1.46,.63,1.48,1.43,.01,.8-.63,1.46-1.43,1.48-6.71,.09-9.79-3.91-9.88-7.68-.1-4,3.06-8.16,9.28-8.37,4.69-.31,8.78,.92,11.5,3.46,2.32,2.17,3.54,5.14,3.54,8.61,0,8.07-5.72,16.69-18.51,17.73-.38,.03-.75,.05-1.13,.05Z"/><path class="cls-4" d="M118.19,425.46c-.38,0-.76-.01-1.13-.05-12.78-1.04-18.51-9.66-18.51-17.73,0-3.46,1.22-6.44,3.54-8.61,2.71-2.54,6.81-3.77,11.54-3.45,6.25,.21,9.55,4.56,9.45,8.56-.09,3.68-3.12,7.61-9.67,7.49-.8-.01-1.44-.67-1.43-1.48,.01-.8,.68-1.42,1.48-1.43,4.83,.07,6.66-2.46,6.72-4.65,.07-2.66-2.21-5.43-6.69-5.58-3.97-.26-7.29,.69-9.41,2.67-1.71,1.6-2.62,3.85-2.62,6.48,0,6.25,4.15,13.88,15.84,14.83,6.83,.55,14.82-5.42,22.56-11.19,8.24-6.16,16.8-12.54,25.05-12.23,16.65,.59,17.95,13.82,17.96,13.95,.07,.8-.53,1.5-1.33,1.57-.8,.08-1.5-.52-1.57-1.32-.04-.45-1.16-10.8-15.17-11.29-7.28-.26-15.37,5.8-23.21,11.65-7.78,5.81-15.81,11.8-23.4,11.8Z"/><path class="cls-4" d="M276.88,296.48c0-1.1-1.3-1.16-1.3-1.16,0,0-189.15-.49-189.29-.52-.79-.14-1.88,.54-2.02,1.33-.14,.79,.72,1.92,1.51,2.06,.29,.05,28.68,5.32,34.51,18.78,1.9,4.39,1.12,9.31-2.32,14.62,0,.01,0,.03-.02,.04l-.52,.3c-.67,.39-1.02,1.22-.7,1.92,.25,.55,.78,.85,1.33,.85,.25,0,.5-.06,.73-.2l1.39-.81h.01c4.69-.7,31.03-3.62,40.04,16.09,.01,.03,.03,.05,.05,.08,.03,.05,.05,.1,.08,.14,.02,.03,.05,.07,.08,.1,.03,.04,.07,.08,.11,.12,.03,.03,.06,.06,.1,.08,.04,.03,.08,.07,.13,.1,.04,.02,.08,.04,.12,.06,.03,.02,.06,.04,.09,.05,.02,0,.04,.01,.06,.02,.02,0,.03,.02,.05,.02,.01,0,.03,0,.05,0,.14,.04,.28,.07,.42,.07,.01,0,.02,0,.03,0,.12,0,.24-.02,.35-.05,.04-.01,.08-.03,.12-.05,.06-.02,.12-.04,.18-.07,.24-.13,24.08-12.52,47.31-1.18,0,0,.01,0,.02,.02l.63,1.2c.26,.5,.77,.78,1.29,.78,.23,0,.46-.05,.67-.17,.71-.37,.99-1.25,.62-1.96l-.09-.18c.97-1.96,10.95-20.22,43.88-16.49,.02,0,.04,0,.06,0,.03,0,.07,.01,.1,.01s.07-.01,.1-.01c.07,0,.15-.01,.22-.03,.06-.01,.11-.03,.16-.05,.07-.02,.13-.05,.19-.09,.05-.03,.11-.06,.16-.09,.06-.04,.11-.08,.16-.13,.05-.04,.09-.09,.13-.14,.01-.02,.03-.03,.05-.05,.03-.04,.05-.09,.07-.13,.02-.04,.05-.07,.07-.11,0-.02,.01-.04,.02-.06,.01-.03,.02-.06,.03-.08,.03-.09,.05-.17,.06-.26,0-.03,0-.05,.01-.08,.02-.23-.02-.47-.1-.68,0-.01,0-.02-.01-.04-.04-.09-3.89-9.05-.07-17.95,2.71-6.32,8.61-11.16,17.52-14.38,.76-.27,1.39-.54,1.39-1.64Zm-42.97,22.23l-18.8-8.84s-.01,0-.01-.01c-1.02-1.53-2.92-4.91-2.12-7.74,.49-1.74,2.02-3.08,4.55-3.99,.36-.13,.64-.39,.8-.71,0-.01,.02-.02,.03-.02h22.66s.05,.04,.02,.06c-3.73,2.17-6.24,5.03-7.48,8.55-1.62,4.59-.73,9.31,.42,12.66,0,.03-.02,.05-.05,.04Zm-84.42,.82c-2,.08-3.93,.28-5.72,.53-.04,0-.05-.04-.02-.06l16.65-9.68s.02,0,.02,0c3,.66,9.52,2.72,12.45,8.44,0,0,0,.02,0,.03l-3.26,7.69s-.04,.03-.06,0c-3.88-4.93-10.72-7.33-20.07-6.96Zm-11.42-9.64c-2.16-6.06-8.22-10.14-12.73-12.43-.03-.02-.02-.06,.02-.06h17.33s.02,0,.03,.02c.22,.44,.66,.75,1.18,.79,4.78,.35,12.98,2.14,14.63,5.45,.57,1.15,.33,2.5-.73,4.14-.15,.24-.22,.51-.22,.78,0,.01,0,.02-.02,.03l-19.7,11.45s-.06-.01-.05-.04c1.32-3.5,1.42-6.9,.27-10.13Zm45.91-9.67l8.47,16.25s-.01,.06-.04,.05c-5.87-1.76-11.8-.95-15.3-.13-.03,0-.05-.02-.04-.05l6.84-16.12s.05-.03,.06,0Zm11.75,16.26l-8.59-16.49s.02-.06,.05-.05l21.5,10.11s.02,.06-.01,.06c-6.75,.75-10.85,4.11-12.88,6.37-.02,.02-.04,.01-.05,0Zm14.97-8.69l-21.96-10.33s-.02-.07,.01-.07h24.01s.04,.04,.02,.06c-1.29,1.07-2.17,2.36-2.6,3.88-.62,2.2-.17,4.49,.57,6.42,.01,.03-.02,.05-.05,.04Zm-36.46,7.64c-2.81-3.94-6.99-6.05-10.25-7.15-.03,0-.03-.05,0-.06l17.66-10.26s.06,.01,.05,.04l-7.4,17.42s-.04,.03-.06,0Zm1.37,4.38c2.45-.76,11.41-3.08,18.91,.65,0,0,.01,0,.02,.02l4.87,9.34s-.01,.06-.04,.05c-12.07-5.14-22.5-3.23-27.18-1.86-.03,0-.05-.02-.04-.05l3.45-8.12s.01-.02,.02-.02Zm21.61-.47s0-.03,0-.04c1.53-2.03,6.66-7.46,17.16-6.27,.18,.02,.36,0,.53-.05l16.21,7.62s.02,.06-.02,.06c-15.59-.2-24.68,5.86-28.41,9.09-.02,.01-.04,0-.05-.01l-5.43-10.41Zm-35.57-13.12s-.05,0-.05-.04c.27-1.35,.12-2.63-.48-3.83-1.14-2.28-3.75-3.84-6.6-4.9-.04-.01-.03-.06,.01-.06h22.17s.05,.05,.02,.06l-15.07,8.76Zm-38.7,9.58c-4.28-9.88-18.49-15.57-27.92-18.34-.04-.01-.03-.07,.01-.07h23.31s.02,0,.03,.01c.17,.25,.42,.45,.74,.55,.13,.04,13.18,4.36,16.22,12.91,1.3,3.65,.56,7.66-2.19,11.92,0,0,0,0-.01,.01l-10.35,6.01s-.06-.01-.05-.04c1.89-4.57,1.98-8.91,.22-12.97Zm13.71,14.97c-3.85-.56-7.46-.64-10.41-.53-.04,0-.05-.05-.02-.06l9.32-5.42h0c4.33-1.24,25.89-6.66,32.67,4.93,0,0,0,.02,0,.03l-6.8,16.01s-.05,.03-.06,0c-4.85-8.16-13.32-13.31-24.71-14.96Zm27.76,15.5s-.05-.02-.04-.05l6.2-14.59c.05-.02,.11-.03,.16-.05,.14-.06,14.26-6.05,30.42,2.35,.14,.07,.29,.11,.45,.14l5.73,11s-.01,.06-.04,.05c-18.16-7.22-35.58-1.83-42.88,1.16Zm46.62-.4l-6.98-13.38s0-.03,0-.04c1.25-1.15,3.57-2.99,7.02-4.69,5.07-2.5,13.7-5.18,26.01-3.79,.29,.04,.57-.02,.81-.15,0,0,.02,0,.03,0l11.04,5.19s.02,.06-.02,.06c-24.37-.33-34.68,11.84-37.87,16.8-.01,.02-.05,.02-.06,0Zm44.23-34.48c-2.82,6.6-1.98,13.04-1.02,16.83,0,.03-.02,.05-.05,.04l-16.31-7.67s-.01,0-.02-.02c-1.19-2.45-3.49-8.28-1.61-13.61,1.39-3.92,4.83-6.89,10.22-8.84,.36-.13,.64-.39,.8-.71,0-.01,.02-.02,.03-.02h22.24s.05,.05,.01,.06c-7.01,3.43-11.81,8.09-14.3,13.93Z"/></svg>