<svg class="feature pumpkin--one" viewBox="0 0 72 50" fill="none" xmlns="http://www.w3.org/2000/svg">
  <path d="m46.9 16.5-11.29.81 2.87-14.83A2.274 2.274 0 0 1 40.72.64h3.22c1.21 0 2.21.95 2.27 2.16l.7 13.7h-.01Z" fill="#778D77"/>
  <path d="m52.72 13.23-35.35 2.56C8.54 16.83 1.65 23.73 1 33.06c-.64 9.33 5.19 16.26 14.04 16.51l34.13.28c.34.02 21.11 2.87 22.53-17.72.7-10.13-7.8-18.59-18.99-18.91l.01.01Z" fill="#D66A3A"/>
  <path d="m60.95 31.16-5.32 3.48c-.78.51-1.92.41-2.54-.24l-4.57-4.71c-.54-.56-1.49-.72-2.26-.39l-9.04 3.91c-.44.19-.95.22-1.42.09l-14.08-3.93c-.86-.24-1.8.08-2.2.75-.5.82-1.77 1.08-2.68.54l-3.01-1.79c-1.04-.62-2.51-.17-2.82.85L7.95 39.81c-.42 1.37 1.5 2.41 2.86 1.54l4.06-2.58c.81-.51 1.98-.38 2.58.31l4.98 5.68c.61.69 1.79.82 2.6.29l6.68-4.4c.82-.54 2.02-.4 2.62.31l3.53 4.17c.78.92 2.47.83 3.1-.17l2.61-4.18c.52-.83 1.82-1.07 2.71-.5l8.31 5.26c.94.59 2.3.3 2.77-.6l1.5-2.88c.46-.88 1.8-1.18 2.74-.61l.21.13c1.25.76 3.01-.05 2.88-1.32l-.79-8.07c-.12-1.19-1.8-1.79-2.93-1.05l-.02.02Z" fill="#000"/>
  <path d="M45.442 29.008c4.272-1.484 6.828-5.301 5.708-8.525s-5.492-4.635-9.765-3.15c-4.273 1.485-6.828 5.302-5.708 8.526s5.492 4.634 9.765 3.15Z" fill="#000"/>
  <path d="M32.38 25.866c1.497-2.681.244-6.232-2.799-7.93-3.043-1.7-6.723-.904-8.22 1.777-1.497 2.681-.244 6.232 2.799 7.93 3.042 1.7 6.722.904 8.22-1.777Z" fill="#000"/>
</svg>