<svg class="feature pumpkin--two" viewBox="0 0 74 54" fill="none" xmlns="http://www.w3.org/2000/svg">
  <path d="m47.77 18.29-13.7-1.66L38.54 2.4c.3-1.16 1.52-1.95 2.9-1.91l3.18.41c1.54.05 2.76 1.13 2.79 2.45l.35 14.94h.01Z" fill="#778D77"/>
  <path d="M61.73 16.03s-38.7-4.5-39.06-4.51C10.8 11.1.84 20.26.42 31.99 0 43.72 9.28 53.57 21.15 54c.36.01 37.72-.8 38.18-.78 7.66.27 14.17-7.85 14.54-18.15.35-9.81-5.01-18.05-12.14-19.04Z" fill="#D66A3A"/>
  <path d="M60.1 36.32c-.68.89-1.98 2.02-4.41 2.98 0 2.62-2.28 5.09-5.52 5.76-2.56.54-5.03-.2-6.46-1.72-.7 1.9-2.55 3.48-4.95 3.98-3.43.72-6.7-1.04-7.35-3.92-1.35 1.17-3.32 1.71-5.33 1.28-2.01-.43-3.59-1.73-4.34-3.35-1.17.96-2.7 1.4-4.24 1.07-2.77-.59-4.51-3.44-3.88-6.37.2-.93.61-1.75 1.17-2.42-3.83-4.82-10.24.7-7.36 4.85.22.31.45.62.69.93 5.2 6.53 15.35 10.11 30.18 10.63 14.62.52 24.36-2.36 28.94-8.58.27-.37.51-.73.74-1.1 2.85-4.69-3.98-8.88-7.87-4.03l-.01.01Z" fill="#000"/>
  <path d="M27.819 32.55c5.157-1.587 8.365-6.032 7.166-9.928-1.199-3.895-6.352-5.766-11.509-4.179-5.157 1.588-8.365 6.033-7.166 9.928 1.2 3.896 6.352 5.767 11.509 4.18Z" fill="#000"/>
  <path d="M56.806 32.22c2.144-3.538.195-8.64-4.353-11.398-4.549-2.756-9.974-2.123-12.118 1.414-2.144 3.538-.195 8.64 4.353 11.397 4.548 2.757 9.973 2.124 12.118-1.414Z" fill="#000"/>
</svg>