<svg class="feature pumpkin--three" viewBox="0 0 73 66" fill="none" xmlns="http://www.w3.org/2000/svg">
  <path d="m41.75 18.47-12.36.48 3.65-16.09A2.497 2.497 0 0 1 35.55.92l3.51.11c1.32.04 2.38 1.12 2.41 2.44l.28 14.98v.02Z" fill="#778D77"/>
  <path d="m50.93 9.95-35.55 4.21C6.51 15.82.89 26.26.43 40.36c-.45 14.1 4.39 24.58 13.31 24.86l34.38.1c.34.03 23.37 4.37 24.37-26.76.49-15.31-10.29-28.25-21.56-28.61Z" fill="#D66A3A"/>
  <path d="M16.12 57.91c-3.3 1.59-7.3-.89-6.6-4.1 2.13-9.71 8.39-24.93 26.58-24.05 18.22.88 24.49 15.73 26.64 25.01.72 3.13-3.03 5.58-6.35 4.15L36.17 50.2c-1.33-.57-2.89-.54-4.17.07l-15.88 7.65v-.01Z" fill="#000"/>
  <path d="M21.018 31.5c4.039-1.926 6.054-6.126 4.502-9.381-1.552-3.256-6.084-4.334-10.122-2.409-4.038 1.926-6.053 6.125-4.501 9.38 1.552 3.256 6.083 4.334 10.121 2.41Z" fill="#000"/>
  <path d="M59.875 30.66c2.3-3.245.776-8.275-3.4-11.235-4.178-2.96-9.428-2.73-11.727.515-2.3 3.245-.776 8.274 3.4 11.234 4.178 2.96 9.428 2.73 11.727-.515Z" fill="#000"/>
</svg>