<svg width="360" height="144" viewBox="0 0 360 144" fill="none" xmlns="http://www.w3.org/2000/svg"><g clip-path="url(#a)"><g clip-path="url(#b)"><circle cx="180.842" cy="19.625" fill="#CEF" r="33.75"/><circle cx="243.274" cy="76.149" fill="#DED" r="8.712"/><path d="m83.893 46.264 20.765 17.423-25.472 9.271 4.707-26.694z" fill="#FDE"/><path d="M314.455 17.065v33.28l-28.821-16.64 28.821-16.64z" fill="#FED"/><path fill="#FDF" d="m327.079 108.38 26.927-7.215 7.215 26.927-26.927 7.215z"/><circle cx="185.342" cy="24.125" r="33.25" stroke="#6CF"/><path d="M255.986 80.65a8.212 8.212 0 1 1-16.424-.002 8.212 8.212 0 0 1 16.424.001z" stroke="#9D3"/><path d="m84.33 76.692 4.405-24.988 19.438 16.31-23.844 8.678z" stroke="#F6C"/><path d="m291.134 38.205 27.321-15.774v31.547l-27.321-15.773z" stroke="#FC6"/><path stroke="#C6F" d="m332.191 113.233 25.961-6.956 6.956 25.96-25.96 6.957z"/></g></g><defs><clipPath id="a"><path fill="#fff" d="M0 0h360v144H0z"/></clipPath><clipPath id="b"><path fill="#fff" transform="translate(0 -76)" d="M0 0h360v360H0z"/></clipPath></defs></svg>
