<svg width="360" height="144" viewBox="0 0 360 144" fill="none" xmlns="http://www.w3.org/2000/svg">
<g clip-path="url(#clip0)">
<g clip-path="url(#clip1)">
<ellipse cx="180.842" cy="19.625" rx="33.75" ry="33.75" fill="#CCEEFF"/>
<ellipse cx="243.274" cy="76.1491" rx="8.71156" ry="8.71156" fill="#DDEEDD"/>
<path d="M83.8934 46.2638L104.658 63.6872L79.1865 72.958L83.8934 46.2638Z" fill="#FFDDEE"/>
<path d="M314.455 17.065L314.455 50.3442L285.634 33.7046L314.455 17.065Z" fill="#FFEEDD"/>
<rect x="327.079" y="108.38" width="27.877" height="27.877" transform="rotate(-15 327.079 108.38)" fill="#FFDDFF"/>
<circle cx="185.342" cy="24.125" r="33.25" stroke="#66CCFF"/>
<path d="M255.986 80.6491C255.986 85.1842 252.309 88.8606 247.774 88.8606C243.239 88.8606 239.563 85.1842 239.563 80.6491C239.563 76.1139 243.239 72.4375 247.774 72.4375C252.309 72.4375 255.986 76.1139 255.986 80.6491Z" stroke="#99DD33"/>
<path d="M84.3292 76.6919L88.7354 51.7035L108.173 68.0135L84.3292 76.6919Z" stroke="#FF66CC"/>
<path d="M291.134 38.2046L318.455 22.4311L318.455 53.9782L291.134 38.2046Z" stroke="#FFCC66"/>
<rect x="332.191" y="113.233" width="26.877" height="26.877" transform="rotate(-15 332.191 113.233)" stroke="#CC66FF"/>
</g>
</g>
<defs>
<clipPath id="clip0">
<rect width="360" height="144" fill="white"/>
</clipPath>
<clipPath id="clip1">
<rect width="360" height="360" fill="white" transform="translate(0 -76)"/>
</clipPath>
</defs>
</svg>
