<svg width="347" height="240" viewBox="0 0 347 240" fill="none" xmlns="http://www.w3.org/2000/svg"><circle cx="127.083" cy="18.167" fill="#FEDFC8" r="43.333"/><circle cx="290.667" cy="164.417" r="10.833" fill="#CEEAD6"/><path d="m19.149 35.94 25.822 21.667-31.675 11.529 5.853-33.196z" fill="#CEEAD6"/><path d="M291.876 6.625V48.01l-35.84-20.693 35.84-20.692z" fill="#D2E3FC"/><path d="M208.758 103.75v22.517l-19.5-11.259 19.5-11.258z" fill="#FDCFE8"/><path fill="#E9D2FD" d="m307.575 99.195 33.486-8.972 8.972 33.485-33.485 8.973z"/><path fill="#CEEAD6" d="M154.053 183.836h86.667v65h-86.667z"/><mask id="a" fill="#fff"><path fill-rule="evenodd" clip-rule="evenodd" d="M175.833 23.583c0 23.933-19.401 43.334-43.333 43.334S89.167 47.516 89.167 23.583c0-23.932 19.401-43.333 43.333-43.333s43.333 19.401 43.333 43.333zm-151.61 17.47 26.413 22.163-32.4 11.793 5.988-33.955zm237.61-7.938 35.84 20.692V12.423l-35.84 20.692zm-47.277 98.949-19.5-11.258 19.5-11.258v22.516zM346.858 96.02l-33.486 8.973 8.973 33.485 33.485-8.972-8.972-33.486zm-187.007 93.614h86.667v65h-86.667v-65zM295 179.583c5.983 0 10.833-4.85 10.833-10.833 0-5.983-4.85-10.833-10.833-10.833-5.983 0-10.833 4.85-10.833 10.833 0 5.983 4.85 10.833 10.833 10.833z"/></mask><path d="m50.636 63.216.342.94 1.628-.592-1.327-1.114-.643.766zM24.224 41.054l.642-.766-1.326-1.114-.301 1.706.985.174zm-5.988 33.955-.984-.174-.301 1.706 1.627-.593-.341-.94zm279.437-21.202-.5.866 1.5.866v-1.732h-1zm-35.84-20.692-.5-.866-1.5.866 1.5.866.5-.866zm35.84-20.692h1V10.69l-1.5.865.5.867zM195.056 120.806l-.5-.866-1.5.866 1.5.866.5-.866zm19.5 11.258-.5.866 1.5.866v-1.732h-1zm0-22.516h1v-1.732l-1.5.866.5.866zm98.816-4.555-.258-.966-.966.258.258.966.966-.258zm33.486-8.973.966-.259-.259-.966-.966.26.259.965zm-24.513 42.458-.966.259.259.966.966-.259-.259-.966zm33.485-8.972.259.966.966-.259-.259-.966-.966.259zm-109.312 60.128h1v-1h-1v1zm-86.667 0v-1h-1v1h1zm86.667 65v1h1v-1h-1zm-86.667 0h-1v1h1v-1zM132.5 67.917c24.485 0 44.333-19.849 44.333-44.334h-2c0 23.38-18.953 42.334-42.333 42.334v2zM88.167 23.583c0 24.485 19.848 44.334 44.333 44.334v-2c-23.38 0-42.333-18.954-42.333-42.334h-2zM132.5-20.75c-24.485 0-44.333 19.849-44.333 44.333h2c0-23.38 18.953-42.333 42.333-42.333v-2zm44.333 44.333c0-24.484-19.848-44.333-44.333-44.333v2c23.38 0 42.333 18.953 42.333 42.333h2zM51.279 62.45 24.866 40.288l-1.285 1.532 26.412 22.162 1.286-1.532zm-32.7 13.498 32.399-11.792-.684-1.88-32.4 11.793.684 1.88zm4.66-35.068-5.987 33.955 1.97.347 5.986-33.955-1.97-.347zm274.934 12.061-35.84-20.692-1 1.732 35.84 20.692 1-1.732zm-1.5-40.518v41.384h2V12.423h-2zm-34.34 21.558 35.84-20.692-1-1.732-35.84 20.692 1 1.732zm-67.777 87.691 19.5 11.258 1-1.732-19.5-11.258-1 1.732zm19.5-12.99-19.5 11.258 1 1.732 19.5-11.258-1-1.732zm1.5 23.382v-22.516h-2v22.516h2zm98.075-26.106 33.486-8.972-.518-1.932-33.485 8.973.517 1.931zm9.68 32.261-8.973-33.485-1.932.517 8.973 33.486 1.932-.518zm32.26-9.679-33.485 8.972.518 1.932 33.485-8.972-.518-1.932zm-9.679-32.261 8.972 33.485 1.932-.517-8.972-33.486-1.932.518zm-99.374 92.355h-86.667v2h86.667v-2zm1 66v-65h-2v65h2zm-87.667 1h86.667v-2h-86.667v2zm-1-66v65h2v-65h-2zm145.982-20.884c0 5.431-4.402 9.833-9.833 9.833v2c6.535 0 11.833-5.298 11.833-11.833h-2zM295 158.917c5.431 0 9.833 4.402 9.833 9.833h2c0-6.535-5.298-11.833-11.833-11.833v2zm-9.833 9.833c0-5.431 4.402-9.833 9.833-9.833v-2c-6.535 0-11.833 5.298-11.833 11.833h2zm9.833 9.833c-5.431 0-9.833-4.402-9.833-9.833h-2c0 6.535 5.298 11.833 11.833 11.833v-2z" fill="#80868B" mask="url(#a)"/></svg>
