<svg width="640" height="320" viewBox="0 0 640 320" fill="none" xmlns="http://www.w3.org/2000/svg"><g clip-path="url(#a)"><g clip-path="url(#b)"><circle cx="321.496" cy="10" r="60" fill="#CEF"/><circle cx="432.488" cy="110.487" r="15.487" fill="#DED"/><circle cx="274.487" cy="248.487" r="15.487" fill="#FDF"/><path d="m149.144 57.358 36.914 30.975-45.282 16.481 8.368-47.456z" fill="#FDE"/><path d="M559.031 5.449v59.163L507.794 35.03 559.031 5.45z" fill="#FED"/><path fill="#FDF" d="m581.474 167.786 47.87-12.827 12.827 47.87-47.87 12.827z"/><path fill="#DED" d="M402.002 248.788h120v120h-120z"/><circle cx="329.496" cy="18" r="59.5" stroke="#6CF"/><circle cx="440.488" cy="118.487" r="14.987" stroke="#9D3"/><circle cx="282.487" cy="256.487" r="14.987" stroke="#C6F"/><path d="m149.419 112.048 8.067-45.75 35.587 29.861-43.654 15.889z" stroke="#F6C"/><path d="m516.794 43.03 49.737-28.715v57.43L516.794 43.03z" stroke="#FC6"/><path stroke="#C6F" d="m590.086 176.14 46.904-12.568 12.568 46.904-46.904 12.568z"/><path stroke="#9D3" d="M410.502 257.288h119v119h-119z"/></g><path d="M24 140h6.12v33.279h16.776v5.847H24V140zM63.76 180c-2.66 0-5.064-.619-7.213-1.858-2.113-1.239-3.771-2.951-4.973-5.137-1.202-2.222-1.803-4.699-1.803-7.431 0-2.623.564-5.028 1.694-7.213 1.165-2.223 2.786-3.971 4.863-5.246 2.076-1.312 4.444-1.967 7.104-1.967 2.732 0 5.1.601 7.104 1.803 2.04 1.202 3.588 2.878 4.644 5.027 1.057 2.113 1.585 4.554 1.585 7.323 0 .327-.018.655-.055.983-.036.328-.054.51-.054.547H55.78c.183 2.477 1.075 4.389 2.678 5.737 1.603 1.348 3.424 2.022 5.465 2.022 3.133 0 5.537-1.457 7.213-4.371l5.136 2.459a14.196 14.196 0 0 1-5.027 5.355C69.133 179.344 66.638 180 63.76 180zm6.885-17.76c-.073-.874-.364-1.766-.874-2.677s-1.312-1.676-2.405-2.295c-1.056-.656-2.386-.984-3.989-.984-1.785 0-3.333.547-4.645 1.639-1.275 1.093-2.149 2.532-2.623 4.317h14.536zM90.886 180c-1.931 0-3.68-.383-5.246-1.148-1.53-.801-2.75-1.894-3.661-3.278-.875-1.421-1.312-3.024-1.312-4.809 0-2.842 1.057-5.082 3.17-6.721 2.149-1.64 4.863-2.459 8.142-2.459 2.877 0 5.337.492 7.377 1.475v-1.147c0-1.64-.656-2.988-1.968-4.044-1.275-1.093-2.823-1.639-4.644-1.639-2.77 0-4.991 1.129-6.667 3.387l-4.59-3.169a12.722 12.722 0 0 1 4.754-3.934c1.93-.911 4.098-1.366 6.503-1.366 3.97 0 7.03 1.001 9.18 3.005 2.186 1.967 3.279 4.754 3.279 8.361v16.612h-5.847v-3.334h-.328a10.735 10.735 0 0 1-3.334 3.06c-1.347.765-2.95 1.148-4.808 1.148zm.983-4.973a7.275 7.275 0 0 0 3.716-.983c1.166-.692 2.077-1.585 2.732-2.678.693-1.129 1.039-2.331 1.039-3.606a12.664 12.664 0 0 0-6.175-1.585c-2.004 0-3.57.437-4.7 1.311-1.129.875-1.694 1.986-1.694 3.334 0 1.238.492 2.258 1.476 3.06 1.02.765 2.222 1.147 3.606 1.147zM111.549 152.022h5.683v4.044h.328c.582-1.385 1.639-2.532 3.169-3.443 1.53-.947 3.097-1.421 4.699-1.421 1.312 0 2.387.182 3.224.547v6.284c-1.238-.62-2.622-.929-4.153-.929-1.967 0-3.624.765-4.972 2.295-1.312 1.494-1.967 3.333-1.967 5.519v14.208h-6.011v-27.104zM133.054 152.022h5.683v3.606h.328c.802-1.311 1.968-2.386 3.498-3.224 1.53-.838 3.187-1.256 4.972-1.256 3.352 0 5.884.983 7.596 2.95 1.749 1.968 2.623 4.682 2.623 8.142v16.886h-6.011V163.06c0-4.262-1.986-6.393-5.956-6.393-2.004 0-3.625.801-4.864 2.404-1.238 1.603-1.858 3.497-1.858 5.683v14.372h-6.011v-27.104z" fill="#3C4043"/><path d="M189.7 180c-3.707 0-7.094-.873-10.16-2.62a19.208 19.208 0 0 1-7.166-7.166c-1.747-3.066-2.62-6.471-2.62-10.214 0-3.743.873-7.13 2.62-10.16 1.747-3.066 4.136-5.473 7.166-7.22 3.066-1.747 6.453-2.62 10.16-2.62 5.74 0 10.464 2.086 14.171 6.257l-4.224 4.117c-1.319-1.568-2.799-2.727-4.439-3.476-1.604-.784-3.44-1.176-5.508-1.176-2.566 0-4.919.588-7.058 1.765-2.104 1.176-3.779 2.852-5.027 5.026-1.212 2.139-1.818 4.635-1.818 7.487 0 2.852.606 5.365 1.818 7.54 1.248 2.139 2.923 3.797 5.027 4.973 2.139 1.177 4.492 1.765 7.058 1.765 4.278 0 7.915-1.782 10.909-5.348l4.332 4.172c-1.818 2.174-4.046 3.868-6.684 5.08-2.603 1.212-5.455 1.818-8.557 1.818z" fill="url(#c)"/><path d="M222.49 180c-3.173 0-6.025-.927-8.556-2.781-2.531-1.854-4.278-4.456-5.241-7.807l5.669-2.3c.57 2.104 1.568 3.833 2.994 5.187 1.462 1.32 3.209 1.979 5.241 1.979 1.889 0 3.494-.481 4.813-1.444 1.319-.998 1.978-2.353 1.978-4.064 0-1.569-.588-2.852-1.764-3.85-1.141-1.034-3.156-2.068-6.043-3.102l-2.407-.855c-2.566-.892-4.723-2.175-6.47-3.851-1.747-1.675-2.621-3.886-2.621-6.631 0-1.889.517-3.636 1.551-5.24 1.034-1.605 2.46-2.87 4.278-3.797 1.854-.963 3.94-1.444 6.257-1.444 3.351 0 6.025.82 8.021 2.46 1.997 1.604 3.334 3.422 4.011 5.454l-5.401 2.3c-.392-1.212-1.141-2.282-2.246-3.209s-2.531-1.39-4.278-1.39c-1.747 0-3.226.446-4.439 1.337-1.176.891-1.764 2.032-1.764 3.422 0 1.319.535 2.407 1.604 3.262 1.07.856 2.745 1.676 5.027 2.46l2.406.802c3.28 1.141 5.811 2.639 7.594 4.492 1.818 1.819 2.727 4.261 2.727 7.327 0 2.495-.642 4.599-1.925 6.31-1.283 1.675-2.923 2.923-4.92 3.743a15.652 15.652 0 0 1-6.096 1.23z" fill="url(#d)"/><path d="M253.145 180c-3.173 0-6.025-.927-8.557-2.781-2.531-1.854-4.278-4.456-5.24-7.807l5.668-2.3c.571 2.104 1.569 3.833 2.995 5.187 1.462 1.32 3.208 1.979 5.241 1.979 1.889 0 3.493-.481 4.812-1.444 1.319-.998 1.979-2.353 1.979-4.064 0-1.569-.588-2.852-1.765-3.85-1.141-1.034-3.155-2.068-6.043-3.102l-2.406-.855c-2.567-.892-4.724-2.175-6.471-3.851-1.746-1.675-2.62-3.886-2.62-6.631 0-1.889.517-3.636 1.551-5.24 1.034-1.605 2.46-2.87 4.278-3.797 1.854-.963 3.939-1.444 6.257-1.444 3.351 0 6.025.82 8.021 2.46 1.997 1.604 3.333 3.422 4.011 5.454l-5.401 2.3c-.392-1.212-1.141-2.282-2.246-3.209s-2.531-1.39-4.278-1.39c-1.747 0-3.227.446-4.439 1.337-1.176.891-1.765 2.032-1.765 3.422 0 1.319.535 2.407 1.605 3.262 1.069.856 2.745 1.676 5.026 2.46l2.407.802c3.28 1.141 5.811 2.639 7.593 4.492 1.819 1.819 2.728 4.261 2.728 7.327 0 2.495-.642 4.599-1.925 6.31-1.284 1.675-2.924 2.923-4.92 3.743a15.652 15.652 0 0 1-6.096 1.23z" fill="url(#e)"/><path d="M272.462 152.46v-11.604h5.99v11.604l-.642 14.224h-4.759l-.589-14.224zm2.995 27.005c-1.141 0-2.121-.392-2.941-1.176-.785-.82-1.177-1.801-1.177-2.941 0-1.141.392-2.104 1.177-2.888.82-.784 1.8-1.177 2.941-1.177 1.141 0 2.103.393 2.888 1.177.784.784 1.176 1.747 1.176 2.888 0 1.14-.392 2.121-1.176 2.941-.785.784-1.747 1.176-2.888 1.176z" fill="url(#f)"/></g><defs><linearGradient id="c" x1="169.754" y1="180" x2="282.916" y2="156.016" gradientUnits="userSpaceOnUse"><stop offset=".068" stop-color="#93F"/><stop offset=".344" stop-color="#06F"/><stop offset=".62" stop-color="#39F"/><stop offset=".911" stop-color="#3C0"/></linearGradient><linearGradient id="d" x1="169.754" y1="180" x2="282.916" y2="156.016" gradientUnits="userSpaceOnUse"><stop offset=".068" stop-color="#93F"/><stop offset=".344" stop-color="#06F"/><stop offset=".62" stop-color="#39F"/><stop offset=".911" stop-color="#3C0"/></linearGradient><linearGradient id="e" x1="169.754" y1="180" x2="282.916" y2="156.016" gradientUnits="userSpaceOnUse"><stop offset=".068" stop-color="#93F"/><stop offset=".344" stop-color="#06F"/><stop offset=".62" stop-color="#39F"/><stop offset=".911" stop-color="#3C0"/></linearGradient><linearGradient id="f" x1="169.754" y1="180" x2="282.916" y2="156.016" gradientUnits="userSpaceOnUse"><stop offset=".068" stop-color="#93F"/><stop offset=".344" stop-color="#06F"/><stop offset=".62" stop-color="#39F"/><stop offset=".911" stop-color="#3C0"/></linearGradient><clipPath id="a"><path fill="#fff" d="M0 0h640v320H0z"/></clipPath><clipPath id="b"><path fill="#fff" transform="translate(0 -160)" d="M0 0h640v640H0z"/></clipPath></defs></svg>
