<svg width="346" height="314" viewBox="0 0 346 314" fill="none" xmlns="http://www.w3.org/2000/svg">
<circle cx="129.463" cy="75.5499" r="36.5499" fill="#FEDFC8"/>
<circle cx="267.438" cy="198.906" r="9.13746" fill="#CEEAD6"/>
<path d="M38.4248 90.5411L60.2044 108.816L33.4878 118.54L38.4248 90.5411Z" fill="#CEEAD6"/>
<path d="M268.458 65.8148L268.458 100.721L238.229 83.2679L268.458 65.8148Z" fill="#D2E3FC"/>
<path d="M198.352 147.736L198.352 166.728L181.905 157.232L198.352 147.736Z" fill="#FDCFE8"/>
<rect width="29.2399" height="29.2399" transform="matrix(0.965926 -0.258818 0.25882 0.965926 281.7 143.894)" fill="#E9D2FD"/>
<rect x="152.211" y="215.285" width="73.0997" height="54.8248" fill="#CEEAD6"/>
<mask id="path-8-inside-1_1123:677" fill="white">
<path fill-rule="evenodd" clip-rule="evenodd" d="M170.581 80.1186C170.581 100.305 154.217 116.668 134.032 116.668C113.846 116.668 97.4817 100.305 97.4817 80.1186C97.4817 59.9327 113.846 43.5687 134.032 43.5687C154.217 43.5687 170.581 59.9327 170.581 80.1186ZM42.705 94.8541L64.9827 113.547L37.655 123.494L42.705 94.8541ZM273.348 105.611L273.348 70.7048L243.119 88.1579L273.348 105.611ZM203.242 171.618L186.795 162.122L203.242 152.626V171.618ZM314.834 141.216L286.59 148.784L294.158 177.027L322.401 169.46L314.834 141.216ZM157.101 220.175H230.201V275H157.101V220.175ZM271.094 211.698C276.14 211.698 280.231 207.607 280.231 202.561C280.231 197.514 276.14 193.423 271.094 193.423C266.047 193.423 261.956 197.514 261.956 202.561C261.956 207.607 266.047 211.698 271.094 211.698Z"/>
</mask>
<path d="M64.9827 113.547L65.3247 114.487L66.9523 113.895L65.6255 112.781L64.9827 113.547ZM42.705 94.8541L43.3478 94.088L42.0209 92.9747L41.7202 94.6804L42.705 94.8541ZM37.655 123.494L36.6702 123.32L36.3695 125.026L37.997 124.433L37.655 123.494ZM273.348 70.7048L274.348 70.7048V68.9728L272.848 69.8388L273.348 70.7048ZM273.348 105.611L272.848 106.477L274.348 107.343V105.611H273.348ZM243.119 88.1579L242.619 87.2919L241.119 88.1579L242.619 89.0239L243.119 88.1579ZM186.795 162.122L186.295 161.256L184.795 162.122L186.295 162.988L186.795 162.122ZM203.242 171.618L202.742 172.484L204.242 173.35V171.618H203.242ZM203.242 152.626H204.242V150.894L202.742 151.76L203.242 152.626ZM286.59 148.784L286.331 147.818L285.365 148.077L285.624 149.043L286.59 148.784ZM314.834 141.216L315.799 140.957L315.541 139.991L314.575 140.25L314.834 141.216ZM294.158 177.027L293.192 177.286L293.451 178.252L294.417 177.993L294.158 177.027ZM322.401 169.46L322.66 170.425L323.626 170.167L323.367 169.201L322.401 169.46ZM230.201 220.175H231.201V219.175H230.201V220.175ZM157.101 220.175V219.175H156.101V220.175H157.101ZM230.201 275V276H231.201V275H230.201ZM157.101 275H156.101V276H157.101V275ZM134.032 117.668C154.77 117.668 171.581 100.857 171.581 80.1186H169.581C169.581 99.7522 153.665 115.668 134.032 115.668V117.668ZM96.4817 80.1186C96.4817 100.857 113.293 117.668 134.032 117.668V115.668C114.398 115.668 98.4817 99.7522 98.4817 80.1186H96.4817ZM134.032 42.5687C113.293 42.5687 96.4817 59.3804 96.4817 80.1186H98.4817C98.4817 60.4849 114.398 44.5687 134.032 44.5687V42.5687ZM171.581 80.1186C171.581 59.3804 154.77 42.5687 134.032 42.5687V44.5687C153.665 44.5687 169.581 60.4849 169.581 80.1186H171.581ZM65.6255 112.781L43.3478 94.088L42.0622 95.6201L64.3399 114.313L65.6255 112.781ZM37.997 124.433L65.3247 114.487L64.6406 112.608L37.313 122.554L37.997 124.433ZM41.7202 94.6804L36.6702 123.32L38.6398 123.667L43.6898 95.0277L41.7202 94.6804ZM272.348 70.7048L272.348 105.611H274.348L274.348 70.7048L272.348 70.7048ZM243.619 89.0239L273.848 71.5709L272.848 69.8388L242.619 87.2919L243.619 89.0239ZM273.848 104.745L243.619 87.2919L242.619 89.0239L272.848 106.477L273.848 104.745ZM186.295 162.988L202.742 172.484L203.742 170.752L187.295 161.256L186.295 162.988ZM202.742 151.76L186.295 161.256L187.295 162.988L203.742 153.492L202.742 151.76ZM204.242 171.618V152.626H202.242V171.618H204.242ZM286.849 149.75L315.092 142.182L314.575 140.25L286.331 147.818L286.849 149.75ZM295.124 176.769L287.556 148.525L285.624 149.043L293.192 177.286L295.124 176.769ZM322.143 168.494L293.899 176.062L294.417 177.993L322.66 170.425L322.143 168.494ZM313.868 141.475L321.435 169.718L323.367 169.201L315.799 140.957L313.868 141.475ZM230.201 219.175H157.101V221.175H230.201V219.175ZM231.201 275V220.175H229.201V275H231.201ZM157.101 276H230.201V274H157.101V276ZM156.101 220.175V275H158.101V220.175H156.101ZM279.231 202.561C279.231 207.055 275.588 210.698 271.094 210.698V212.698C276.693 212.698 281.231 208.159 281.231 202.561H279.231ZM271.094 194.423C275.588 194.423 279.231 198.066 279.231 202.561H281.231C281.231 196.962 276.693 192.423 271.094 192.423V194.423ZM262.956 202.561C262.956 198.066 266.6 194.423 271.094 194.423V192.423C265.495 192.423 260.956 196.962 260.956 202.561H262.956ZM271.094 210.698C266.6 210.698 262.956 207.055 262.956 202.561H260.956C260.956 208.159 265.495 212.698 271.094 212.698V210.698Z" fill="#80868B" mask="url(#path-8-inside-1_1123:677)"/>
</svg>
