<svg width="320" height="160" viewBox="0 0 320 160" fill="none" xmlns="http://www.w3.org/2000/svg">
<g clip-path="url(#clip0_2212_59230)">
<g clip-path="url(#clip1_2212_59230)">
<mask id="mask0_2212_59230" style="mask-type:luminance" maskUnits="userSpaceOnUse" x="0" y="0" width="320" height="160">
<path d="M0 0H320V160H0V0Z" fill="white"/>
</mask>
<g mask="url(#mask0_2212_59230)">
<path d="M0 0H320V160H0V0Z" fill="#303136"/>
<path d="M160.748 35C177.317 35 190.748 21.5685 190.748 5C190.748 -11.5685 177.317 -25 160.748 -25C144.18 -25 130.748 -11.5685 130.748 5C130.748 21.5685 144.18 35 160.748 35Z" fill="#CCEEFF"/>
<path d="M216.244 62.987C220.52 62.987 223.987 59.52 223.987 55.2435C223.987 50.967 220.52 47.5 216.244 47.5C211.967 47.5 208.5 50.967 208.5 55.2435C208.5 59.52 211.967 62.987 216.244 62.987Z" fill="#DDEEDD"/>
<path d="M137.243 131.987C141.52 131.987 144.987 128.52 144.987 124.243C144.987 119.967 141.52 116.5 137.243 116.5C132.967 116.5 129.5 119.967 129.5 124.243C129.5 128.52 132.967 131.987 137.243 131.987Z" fill="#FFDDFF"/>
<path d="M74.5719 28.679L93.0289 44.1665L70.3879 52.407L74.5719 28.679Z" fill="#FFDDEE"/>
<path d="M279.515 2.72461V32.3061L253.897 17.5151L279.515 2.72461Z" fill="#FFEEDD"/>
<path d="M290.737 83.893L314.672 77.4795L321.086 101.414L297.151 107.828L290.737 83.893Z" fill="#FFDDFF"/>
<path d="M201.001 124.394H261.001V184.394H201.001V124.394Z" fill="#DDEEDD"/>
<path d="M164.748 38.75C181.179 38.75 194.498 25.43 194.498 9C194.498 -7.43 181.179 -20.75 164.748 -20.75C148.318 -20.75 134.998 -7.43 134.998 9C134.998 25.43 148.318 38.75 164.748 38.75Z" stroke="#66CCFF"/>
<path d="M220.244 66.737C224.382 66.737 227.737 63.382 227.737 59.2435C227.737 55.105 224.382 51.75 220.244 51.75C216.105 51.75 212.75 55.105 212.75 59.2435C212.75 63.382 216.105 66.737 220.244 66.737Z" stroke="#99DD33"/>
<path d="M141.243 135.737C145.382 135.737 148.737 132.382 148.737 128.243C148.737 124.105 145.382 120.75 141.243 120.75C137.105 120.75 133.75 124.105 133.75 128.243C133.75 132.382 137.105 135.737 141.243 135.737Z" stroke="#CC66FF"/>
<path d="M74.7095 56.0239L78.743 33.1489L96.5365 48.0794L74.7095 56.0239Z" stroke="#FF66CC"/>
<path d="M258.397 21.515L283.265 7.15747V35.8725L258.397 21.515Z" stroke="#FFCC66"/>
<path d="M295.043 88.0699L318.495 81.7859L324.779 105.238L301.327 111.522L295.043 88.0699Z" stroke="#CC66FF"/>
<path d="M205.251 128.644H264.751V188.144H205.251V128.644Z" stroke="#99DD33"/>
<path d="M12 70H15.06V86.6395H23.448V89.563H12V70ZM31.88 90C30.55 90 29.348 89.6905 28.2735 89.071C27.217 88.4515 26.388 87.5955 25.787 86.5025C25.186 85.3915 24.8855 84.153 24.8855 82.787C24.8855 81.4755 25.1675 80.273 25.7325 79.1805C26.315 78.069 27.1255 77.195 28.164 76.5575C29.202 75.9015 30.386 75.574 31.716 75.574C33.082 75.574 34.266 75.8745 35.268 76.4755C36.288 77.0765 37.062 77.9145 37.59 78.989C38.1185 80.0455 38.3825 81.266 38.3825 82.6505C38.3825 82.814 38.3735 82.978 38.355 83.142C38.337 83.306 38.328 83.397 38.328 83.4155H27.89C27.9815 84.654 28.4275 85.61 29.229 86.284C30.0305 86.958 30.941 87.295 31.9615 87.295C33.528 87.295 34.73 86.5665 35.568 85.1095L38.136 86.339C37.5476 87.4365 36.6807 88.36 35.6225 89.0165C34.5665 89.672 33.319 90 31.88 90ZM35.3225 81.12C35.286 80.683 35.1405 80.237 34.8855 79.7815C34.6305 79.326 34.2295 78.9435 33.683 78.634C33.155 78.306 32.49 78.142 31.6885 78.142C30.796 78.142 30.022 78.4155 29.366 78.9615C28.7285 79.508 28.2915 80.2275 28.0545 81.12H35.3225ZM45.443 90C44.4775 90 43.603 89.8085 42.82 89.426C42.055 89.0255 41.445 88.479 40.9895 87.787C40.552 87.0765 40.3335 86.275 40.3335 85.3825C40.3335 83.9615 40.862 82.8415 41.9185 82.022C42.993 81.202 44.35 80.7925 45.9895 80.7925C47.428 80.7925 48.658 81.0385 49.678 81.53V80.9565C49.678 80.1365 49.35 79.4625 48.694 78.9345C48.0565 78.388 47.2825 78.115 46.372 78.115C44.987 78.115 43.8765 78.6795 43.0385 79.8085L40.7435 78.224C41.3623 77.3831 42.1787 76.7075 43.1205 76.257C44.0855 75.8015 45.1695 75.574 46.372 75.574C48.357 75.574 49.887 76.0745 50.962 77.0765C52.055 78.06 52.6015 79.4535 52.6015 81.257V89.563H49.678V87.896H49.514C49.0732 88.5186 48.505 89.0401 47.847 89.426C47.1735 89.8085 46.372 90 45.443 90ZM45.9345 87.5135C46.5867 87.5191 47.2284 87.3494 47.7925 87.022C48.3755 86.676 48.831 86.2295 49.1585 85.683C49.505 85.1185 49.678 84.5175 49.678 83.88C48.7332 83.3569 47.6704 83.0841 46.5905 83.0875C45.5885 83.0875 44.8055 83.306 44.2405 83.743C43.676 84.1805 43.3935 84.736 43.3935 85.41C43.3935 86.029 43.6395 86.539 44.1315 86.94C44.6415 87.3225 45.2425 87.5135 45.9345 87.5135ZM55.7745 76.011H58.616V78.033H58.78C59.071 77.3405 59.5995 76.767 60.3645 76.3115C61.1295 75.838 61.913 75.601 62.714 75.601C63.37 75.601 63.9075 75.692 64.326 75.8745V79.0165C63.707 78.7065 63.015 78.552 62.2495 78.552C61.266 78.552 60.4375 78.9345 59.7635 79.6995C59.1075 80.4465 58.78 81.366 58.78 82.459V89.563H55.7745V76.011ZM66.527 76.011H69.3685V77.814H69.5325C69.9335 77.1585 70.5165 76.621 71.2815 76.202C72.0465 75.783 72.875 75.574 73.7675 75.574C75.4435 75.574 76.7095 76.0655 77.5655 77.049C78.44 78.033 78.877 79.39 78.877 81.12V89.563H75.8715V81.53C75.8715 79.399 74.8785 78.3335 72.8935 78.3335C71.8915 78.3335 71.081 78.734 70.4615 79.5355C69.8425 80.337 69.5325 81.284 69.5325 82.377V89.563H66.527V76.011Z" fill="white"/>
<path d="M94.85 90C92.9965 90 91.303 89.5635 89.77 88.69C88.2764 87.838 87.039 86.6005 86.187 85.107C85.3135 83.574 84.877 81.8715 84.877 80C84.877 78.1285 85.3135 76.435 86.187 74.92C87.0605 73.387 88.255 72.1835 89.77 71.31C91.303 70.4365 92.9965 70 94.85 70C97.72 70 100.082 71.043 101.935 73.1285L99.8235 75.187C99.164 74.403 98.424 73.8235 97.604 73.449C96.802 73.057 95.884 72.861 94.85 72.861C93.567 72.861 92.3905 73.155 91.321 73.7435C90.269 74.3315 89.4315 75.1695 88.8075 76.2565C88.2015 77.326 87.8985 78.574 87.8985 80C87.8985 81.426 88.2015 82.6825 88.8075 83.77C89.4315 84.8395 90.269 85.6685 91.321 86.2565C92.3905 86.845 93.567 87.139 94.85 87.139C96.989 87.139 98.8075 86.248 100.304 84.465L102.47 86.551C101.561 87.638 100.447 88.485 99.1285 89.091C97.827 89.697 96.401 90 94.85 90Z" fill="url(#paint0_linear_2212_59230)"/>
<path d="M111.245 90C109.658 90 108.232 89.5365 106.967 88.6095C105.701 87.6825 104.828 86.3815 104.346 84.706L107.181 83.556C107.466 84.608 107.965 85.4725 108.678 86.1495C109.409 86.8095 110.282 87.139 111.298 87.139C112.243 87.139 113.045 86.8985 113.705 86.417C114.364 85.918 114.694 85.2405 114.694 84.385C114.694 83.6005 114.4 82.959 113.812 82.46C113.241 81.943 112.234 81.426 110.79 80.909L109.587 80.4815C108.304 80.0355 107.225 79.394 106.352 78.556C105.478 77.7185 105.041 76.613 105.041 75.2405C105.041 74.296 105.3 73.4225 105.817 72.6205C106.334 71.818 107.047 71.1855 107.956 70.722C108.883 70.2405 109.926 70 111.084 70C112.76 70 114.097 70.41 115.095 71.23C116.093 72.032 116.762 72.941 117.1 73.957L114.4 75.107C114.204 74.501 113.829 73.966 113.277 73.5025C112.724 73.039 112.011 72.8075 111.138 72.8075C110.264 72.8075 109.525 73.0305 108.918 73.476C108.33 73.9215 108.036 74.492 108.036 75.187C108.036 75.8465 108.304 76.3905 108.838 76.818C109.373 77.246 110.211 77.656 111.352 78.048L112.555 78.449C114.195 79.0195 115.46 79.7685 116.352 80.695C117.261 81.6045 117.715 82.8255 117.715 84.3585C117.715 85.606 117.394 86.658 116.753 87.5135C116.111 88.351 115.291 88.975 114.293 89.385C113.328 89.792 112.292 90.0011 111.245 90Z" fill="url(#paint1_linear_2212_59230)"/>
<path d="M126.573 90C124.986 90 123.56 89.5365 122.294 88.6095C121.029 87.6825 120.155 86.3815 119.674 84.706L122.508 83.556C122.794 84.608 123.293 85.4725 124.006 86.1495C124.737 86.8095 125.61 87.139 126.626 87.139C127.571 87.139 128.373 86.8985 129.032 86.417C129.692 85.918 130.022 85.2405 130.022 84.385C130.022 83.6005 129.728 82.959 129.139 82.46C128.569 81.943 127.562 81.426 126.118 80.909L124.915 80.4815C123.631 80.0355 122.553 79.394 121.679 78.556C120.806 77.7185 120.369 76.613 120.369 75.2405C120.369 74.296 120.628 73.4225 121.145 72.6205C121.662 71.818 122.375 71.1855 123.284 70.722C124.211 70.2405 125.253 70 126.412 70C128.088 70 129.425 70.41 130.423 71.23C131.421 72.032 132.089 72.941 132.428 73.957L129.728 75.107C129.532 74.501 129.157 73.966 128.605 73.5025C128.052 73.039 127.339 72.8075 126.466 72.8075C125.592 72.8075 124.852 73.0305 124.246 73.476C123.658 73.9215 123.364 74.492 123.364 75.187C123.364 75.8465 123.631 76.3905 124.166 76.818C124.701 77.246 125.539 77.656 126.679 78.048L127.883 78.449C129.523 79.0195 130.788 79.7685 131.679 80.695C132.589 81.6045 133.043 82.8255 133.043 84.3585C133.043 85.606 132.722 86.658 132.081 87.5135C131.439 88.351 130.619 88.975 129.621 89.385C128.656 89.792 127.619 90.0011 126.573 90Z" fill="url(#paint2_linear_2212_59230)"/>
<path d="M136.231 76.23V70.428H139.226V76.23L138.905 83.342H136.525L136.231 76.23ZM137.728 89.7325C137.158 89.7325 136.668 89.5365 136.258 89.1445C135.865 88.7345 135.669 88.244 135.669 87.674C135.669 87.1035 135.865 86.622 136.258 86.23C136.668 85.838 137.158 85.6415 137.728 85.6415C138.299 85.6415 138.78 85.838 139.172 86.23C139.564 86.622 139.76 87.1035 139.76 87.674C139.76 88.244 139.564 88.7345 139.172 89.1445C138.78 89.5365 138.299 89.7325 137.728 89.7325Z" fill="url(#paint3_linear_2212_59230)"/>
</g>
</g>
</g>
<defs>
<linearGradient id="paint0_linear_2212_59230" x1="84.877" y1="90" x2="141.458" y2="78.008" gradientUnits="userSpaceOnUse">
<stop offset="0.068" stop-color="#D36DFF"/>
<stop offset="0.344" stop-color="#359BFF"/>
<stop offset="0.62" stop-color="#359BFF"/>
<stop offset="0.911" stop-color="#33CC00"/>
</linearGradient>
<linearGradient id="paint1_linear_2212_59230" x1="84.8769" y1="90" x2="141.458" y2="78.008" gradientUnits="userSpaceOnUse">
<stop offset="0.068" stop-color="#D36DFF"/>
<stop offset="0.344" stop-color="#359BFF"/>
<stop offset="0.62" stop-color="#359BFF"/>
<stop offset="0.911" stop-color="#33CC00"/>
</linearGradient>
<linearGradient id="paint2_linear_2212_59230" x1="84.8771" y1="90" x2="141.458" y2="78.008" gradientUnits="userSpaceOnUse">
<stop offset="0.068" stop-color="#D36DFF"/>
<stop offset="0.344" stop-color="#359BFF"/>
<stop offset="0.62" stop-color="#359BFF"/>
<stop offset="0.911" stop-color="#33CC00"/>
</linearGradient>
<linearGradient id="paint3_linear_2212_59230" x1="84.8769" y1="90" x2="141.458" y2="78.008" gradientUnits="userSpaceOnUse">
<stop offset="0.068" stop-color="#D36DFF"/>
<stop offset="0.344" stop-color="#359BFF"/>
<stop offset="0.62" stop-color="#359BFF"/>
<stop offset="0.911" stop-color="#33CC00"/>
</linearGradient>
<clipPath id="clip0_2212_59230">
<rect width="320" height="160" fill="white"/>
</clipPath>
<clipPath id="clip1_2212_59230">
<rect width="320" height="160" fill="white"/>
</clipPath>
</defs>
</svg>
