<svg width="596" height="240" viewBox="0 0 596 240" fill="none" xmlns="http://www.w3.org/2000/svg">
<g clip-path="url(#clip0)">
<rect x="0.5" y="0.5" width="595" height="239" fill="white"/>
<g clip-path="url(#clip1)">
<ellipse cx="376.083" cy="18.1666" rx="43.3333" ry="43.3333" fill="#FEDFC8"/>
<circle cx="539.667" cy="164.417" r="10.8333" fill="#CEEAD6"/>
<path d="M268.149 35.9402L293.971 57.6072L262.296 69.136L268.149 35.9402Z" fill="#CEEAD6"/>
<path d="M540.876 6.62492L540.876 48.0095L505.036 27.3172L540.876 6.62492Z" fill="#D2E3FC"/>
<path d="M457.758 103.75L457.758 126.267L438.258 115.008L457.758 103.75Z" fill="#FDCFE8"/>
<rect x="556.575" y="99.1949" width="34.6667" height="34.6667" transform="rotate(-15 556.575 99.1949)" fill="#E9D2FD"/>
<rect x="403.053" y="183.836" width="86.6667" height="65" fill="#CEEAD6"/>
<mask id="path-9-inside-1" fill="white">
<path fill-rule="evenodd" clip-rule="evenodd" d="M424.833 23.5833C424.833 47.5157 405.432 66.9167 381.5 66.9167C357.568 66.9167 338.167 47.5157 338.167 23.5833C338.167 -0.349005 357.568 -19.75 381.5 -19.75C405.432 -19.75 424.833 -0.349005 424.833 23.5833ZM273.224 41.0537L299.636 63.2163L267.236 75.0087L273.224 41.0537ZM510.833 33.1148L546.673 53.8071V12.4226L510.833 33.1148ZM463.556 132.064L444.056 120.806L463.556 109.548V132.064ZM595.858 96.0202L562.372 104.993L571.345 138.478L604.83 129.506L595.858 96.0202ZM408.851 189.634H495.518V254.634H408.851V189.634ZM544 179.583C549.983 179.583 554.833 174.733 554.833 168.75C554.833 162.767 549.983 157.917 544 157.917C538.017 157.917 533.167 162.767 533.167 168.75C533.167 174.733 538.017 179.583 544 179.583Z"/>
</mask>
<path d="M299.636 63.2163L299.978 64.1559L301.606 63.5636L300.279 62.4502L299.636 63.2163ZM273.224 41.0537L273.866 40.2876L272.54 39.1743L272.239 40.88L273.224 41.0537ZM267.236 75.0087L266.252 74.8351L265.951 76.5408L267.578 75.9484L267.236 75.0087ZM546.673 53.8071L546.173 54.6731L547.673 55.5391V53.8071H546.673ZM510.833 33.1148L510.333 32.2488L508.833 33.1148L510.333 33.9808L510.833 33.1148ZM546.673 12.4226H547.673V10.6905L546.173 11.5565L546.673 12.4226ZM444.056 120.806L443.556 119.94L442.056 120.806L443.556 121.672L444.056 120.806ZM463.556 132.064L463.056 132.93L464.556 133.796V132.064H463.556ZM463.556 109.548H464.556V107.816L463.056 108.682L463.556 109.548ZM562.372 104.993L562.114 104.027L561.148 104.285L561.406 105.251L562.372 104.993ZM595.858 96.0202L596.824 95.7613L596.565 94.7954L595.599 95.0542L595.858 96.0202ZM571.345 138.478L570.379 138.737L570.638 139.703L571.604 139.444L571.345 138.478ZM604.83 129.506L605.089 130.472L606.055 130.213L605.796 129.247L604.83 129.506ZM495.518 189.634H496.518V188.634H495.518V189.634ZM408.851 189.634V188.634H407.851V189.634H408.851ZM495.518 254.634V255.634H496.518V254.634H495.518ZM408.851 254.634H407.851V255.634H408.851V254.634ZM381.5 67.9167C405.985 67.9167 425.833 48.068 425.833 23.5833H423.833C423.833 46.9634 404.88 65.9167 381.5 65.9167V67.9167ZM337.167 23.5833C337.167 48.068 357.015 67.9167 381.5 67.9167V65.9167C358.12 65.9167 339.167 46.9634 339.167 23.5833H337.167ZM381.5 -20.75C357.015 -20.75 337.167 -0.901289 337.167 23.5833H339.167C339.167 0.203279 358.12 -18.75 381.5 -18.75V-20.75ZM425.833 23.5833C425.833 -0.901289 405.985 -20.75 381.5 -20.75V-18.75C404.88 -18.75 423.833 0.203279 423.833 23.5833H425.833ZM300.279 62.4502L273.866 40.2876L272.581 41.8197L298.993 63.9823L300.279 62.4502ZM267.578 75.9484L299.978 64.1559L299.294 62.2766L266.894 74.069L267.578 75.9484ZM272.239 40.88L266.252 74.8351L268.221 75.1824L274.208 41.2273L272.239 40.88ZM547.173 52.9411L511.333 32.2488L510.333 33.9808L546.173 54.6731L547.173 52.9411ZM545.673 12.4226V53.8071H547.673V12.4226H545.673ZM511.333 33.9808L547.173 13.2886L546.173 11.5565L510.333 32.2488L511.333 33.9808ZM443.556 121.672L463.056 132.93L464.056 131.198L444.556 119.94L443.556 121.672ZM463.056 108.682L443.556 119.94L444.556 121.672L464.056 110.414L463.056 108.682ZM464.556 132.064V109.548H462.556V132.064H464.556ZM562.631 105.958L596.117 96.9861L595.599 95.0542L562.114 104.027L562.631 105.958ZM572.311 138.219L563.338 104.734L561.406 105.251L570.379 138.737L572.311 138.219ZM604.571 128.54L571.086 137.512L571.604 139.444L605.089 130.472L604.571 128.54ZM594.892 96.279L603.864 129.764L605.796 129.247L596.824 95.7613L594.892 96.279ZM495.518 188.634H408.851V190.634H495.518V188.634ZM496.518 254.634V189.634H494.518V254.634H496.518ZM408.851 255.634H495.518V253.634H408.851V255.634ZM407.851 189.634V254.634H409.851V189.634H407.851ZM553.833 168.75C553.833 174.181 549.431 178.583 544 178.583V180.583C550.535 180.583 555.833 175.285 555.833 168.75H553.833ZM544 158.917C549.431 158.917 553.833 163.319 553.833 168.75H555.833C555.833 162.215 550.535 156.917 544 156.917V158.917ZM534.167 168.75C534.167 163.319 538.569 158.917 544 158.917V156.917C537.465 156.917 532.167 162.215 532.167 168.75H534.167ZM544 178.583C538.569 178.583 534.167 174.181 534.167 168.75H532.167C532.167 175.285 537.465 180.583 544 180.583V178.583Z" fill="#80868B" mask="url(#path-9-inside-1)"/>
</g>
</g>
<rect x="0.5" y="0.5" width="595" height="239" stroke="#DADCE0"/>
<path d="M27.476 103.496H32.404V130.292H45.912V135H27.476V103.496ZM59.4905 135.704C57.3491 135.704 55.4131 135.205 53.6825 134.208C51.9811 133.211 50.6465 131.832 49.6785 130.072C48.7105 128.283 48.2265 126.288 48.2265 124.088C48.2265 121.976 48.6811 120.04 49.5905 118.28C50.5291 116.491 51.8345 115.083 53.5065 114.056C55.1785 113 57.0851 112.472 59.2265 112.472C61.4265 112.472 63.3331 112.956 64.9465 113.924C66.5891 114.892 67.8358 116.241 68.6865 117.972C69.5371 119.673 69.9625 121.639 69.9625 123.868C69.9625 124.132 69.9478 124.396 69.9185 124.66C69.8891 124.924 69.8745 125.071 69.8745 125.1H53.0665C53.2131 127.095 53.9318 128.635 55.2225 129.72C56.5131 130.805 57.9798 131.348 59.6225 131.348C62.1451 131.348 64.0811 130.175 65.4305 127.828L69.5665 129.808C68.5985 131.597 67.2491 133.035 65.5185 134.12C63.8171 135.176 61.8078 135.704 59.4905 135.704ZM65.0345 121.404C64.9758 120.7 64.7411 119.981 64.3305 119.248C63.9198 118.515 63.2745 117.899 62.3945 117.4C61.5438 116.872 60.4731 116.608 59.1825 116.608C57.7451 116.608 56.4985 117.048 55.4425 117.928C54.4158 118.808 53.7118 119.967 53.3305 121.404H65.0345ZM81.3323 135.704C79.7777 135.704 78.3697 135.396 77.1083 134.78C75.8763 134.135 74.8937 133.255 74.1603 132.14C73.4563 130.996 73.1043 129.705 73.1043 128.268C73.1043 125.98 73.955 124.176 75.6563 122.856C77.387 121.536 79.5723 120.876 82.2123 120.876C84.5297 120.876 86.5097 121.272 88.1523 122.064V121.14C88.1523 119.82 87.6243 118.735 86.5683 117.884C85.5417 117.004 84.295 116.564 82.8283 116.564C80.599 116.564 78.8097 117.473 77.4603 119.292L73.7643 116.74C74.791 115.361 76.067 114.305 77.5923 113.572C79.147 112.839 80.8923 112.472 82.8283 112.472C86.0257 112.472 88.4897 113.279 90.2203 114.892C91.9803 116.476 92.8603 118.72 92.8603 121.624V135H88.1523V132.316H87.8883C87.1843 133.313 86.2897 134.135 85.2043 134.78C84.119 135.396 82.8283 135.704 81.3323 135.704ZM82.1243 131.7C83.2097 131.7 84.207 131.436 85.1163 130.908C86.055 130.351 86.7883 129.632 87.3163 128.752C87.8737 127.843 88.1523 126.875 88.1523 125.848C86.5977 124.997 84.9403 124.572 83.1803 124.572C81.567 124.572 80.3057 124.924 79.3963 125.628C78.487 126.332 78.0323 127.227 78.0323 128.312C78.0323 129.309 78.4283 130.131 79.2203 130.776C80.0417 131.392 81.0097 131.7 82.1243 131.7ZM97.9702 113.176H102.546V116.432H102.81C103.28 115.317 104.13 114.393 105.362 113.66C106.594 112.897 107.856 112.516 109.146 112.516C110.202 112.516 111.068 112.663 111.742 112.956V118.016C110.745 117.517 109.63 117.268 108.398 117.268C106.814 117.268 105.48 117.884 104.394 119.116C103.338 120.319 102.81 121.8 102.81 123.56V135H97.9702V113.176ZM115.287 113.176H119.863V116.08H120.127C120.772 115.024 121.711 114.159 122.943 113.484C124.175 112.809 125.509 112.472 126.947 112.472C129.645 112.472 131.684 113.264 133.063 114.848C134.471 116.432 135.175 118.617 135.175 121.404V135H130.335V122.064C130.335 118.632 128.736 116.916 125.539 116.916C123.925 116.916 122.62 117.561 121.623 118.852C120.625 120.143 120.127 121.668 120.127 123.428V135H115.287V113.176Z" fill="#3C4043"/>
<path d="M164.348 135.704C161.297 135.704 158.511 134.985 155.988 133.548C153.495 132.111 151.529 130.145 150.092 127.652C148.655 125.129 147.936 122.328 147.936 119.248C147.936 116.168 148.655 113.381 150.092 110.888C151.529 108.365 153.495 106.385 155.988 104.948C158.511 103.511 161.297 102.792 164.348 102.792C169.071 102.792 172.957 104.508 176.008 107.94L172.532 111.328C171.447 110.037 170.229 109.084 168.88 108.468C167.56 107.823 166.049 107.5 164.348 107.5C162.236 107.5 160.3 107.984 158.54 108.952C156.809 109.92 155.431 111.299 154.404 113.088C153.407 114.848 152.908 116.901 152.908 119.248C152.908 121.595 153.407 123.663 154.404 125.452C155.431 127.212 156.809 128.576 158.54 129.544C160.3 130.512 162.236 130.996 164.348 130.996C167.868 130.996 170.86 129.529 173.324 126.596L176.888 130.028C175.392 131.817 173.559 133.211 171.388 134.208C169.247 135.205 166.9 135.704 164.348 135.704ZM191.327 135.704C188.717 135.704 186.37 134.941 184.287 133.416C182.205 131.891 180.767 129.749 179.975 126.992L184.639 125.1C185.109 126.831 185.93 128.253 187.103 129.368C188.306 130.453 189.743 130.996 191.415 130.996C192.97 130.996 194.29 130.6 195.375 129.808C196.461 128.987 197.003 127.872 197.003 126.464C197.003 125.173 196.519 124.117 195.551 123.296C194.613 122.445 192.955 121.595 190.579 120.744L188.599 120.04C186.487 119.307 184.713 118.251 183.275 116.872C181.838 115.493 181.119 113.675 181.119 111.416C181.119 109.861 181.545 108.424 182.395 107.104C183.246 105.784 184.419 104.743 185.915 103.98C187.441 103.188 189.157 102.792 191.063 102.792C193.821 102.792 196.021 103.467 197.663 104.816C199.306 106.136 200.406 107.632 200.963 109.304L196.519 111.196C196.197 110.199 195.581 109.319 194.671 108.556C193.762 107.793 192.589 107.412 191.151 107.412C189.714 107.412 188.497 107.779 187.499 108.512C186.531 109.245 186.047 110.184 186.047 111.328C186.047 112.413 186.487 113.308 187.367 114.012C188.247 114.716 189.626 115.391 191.503 116.036L193.483 116.696C196.182 117.635 198.265 118.867 199.731 120.392C201.227 121.888 201.975 123.897 201.975 126.42C201.975 128.473 201.447 130.204 200.391 131.612C199.335 132.991 197.986 134.017 196.343 134.692C194.73 135.367 193.058 135.704 191.327 135.704ZM216.55 135.704C213.939 135.704 211.593 134.941 209.51 133.416C207.427 131.891 205.99 129.749 205.198 126.992L209.862 125.1C210.331 126.831 211.153 128.253 212.326 129.368C213.529 130.453 214.966 130.996 216.638 130.996C218.193 130.996 219.513 130.6 220.598 129.808C221.683 128.987 222.226 127.872 222.226 126.464C222.226 125.173 221.742 124.117 220.774 123.296C219.835 122.445 218.178 121.595 215.802 120.744L213.822 120.04C211.71 119.307 209.935 118.251 208.498 116.872C207.061 115.493 206.342 113.675 206.342 111.416C206.342 109.861 206.767 108.424 207.618 107.104C208.469 105.784 209.642 104.743 211.138 103.98C212.663 103.188 214.379 102.792 216.286 102.792C219.043 102.792 221.243 103.467 222.886 104.816C224.529 106.136 225.629 107.632 226.186 109.304L221.742 111.196C221.419 110.199 220.803 109.319 219.894 108.556C218.985 107.793 217.811 107.412 216.374 107.412C214.937 107.412 213.719 107.779 212.722 108.512C211.754 109.245 211.27 110.184 211.27 111.328C211.27 112.413 211.71 113.308 212.59 114.012C213.47 114.716 214.849 115.391 216.726 116.036L218.706 116.696C221.405 117.635 223.487 118.867 224.954 120.392C226.45 121.888 227.198 123.897 227.198 126.42C227.198 128.473 226.67 130.204 225.614 131.612C224.558 132.991 223.209 134.017 221.566 134.692C219.953 135.367 218.281 135.704 216.55 135.704ZM232.445 113.044V103.496H237.373V113.044L236.845 124.748H232.929L232.445 113.044ZM234.909 135.264C233.97 135.264 233.163 134.941 232.489 134.296C231.843 133.621 231.521 132.815 231.521 131.876C231.521 130.937 231.843 130.145 232.489 129.5C233.163 128.855 233.97 128.532 234.909 128.532C235.847 128.532 236.639 128.855 237.285 129.5C237.93 130.145 238.253 130.937 238.253 131.876C238.253 132.815 237.93 133.621 237.285 134.296C236.639 134.941 235.847 135.264 234.909 135.264Z" fill="url(#paint0_linear)"/>
<defs>
<linearGradient id="paint0_linear" x1="146" y1="120.914" x2="241.08" y2="136.893" gradientUnits="userSpaceOnUse">
<stop stop-color="#B323F4"/>
<stop offset="0.302083" stop-color="#2BA1FF"/>
<stop offset="0.6875" stop-color="#02E895"/>
<stop offset="0.927083" stop-color="#6DDB00"/>
</linearGradient>
<clipPath id="clip0">
</clipPath>
<clipPath id="clip1">
<rect width="520" height="520" fill="white" transform="translate(76 -140)"/>
</clipPath>
</defs>
</svg>
