<svg width="130" height="40" viewBox="0 0 130 40" fill="none" xmlns="http://www.w3.org/2000/svg">
<path d="M0 10H3.06011V26.6393H11.4481V29.5628H0L0 10Z" fill="#3C4043"/>
<path d="M19.8798 30C18.5501 30 17.3479 29.6903 16.2733 29.071C15.2168 28.4517 14.388 27.5956 13.7869 26.5027C13.1858 25.3916 12.8853 24.153 12.8853 22.7869C12.8853 21.4754 13.1676 20.2732 13.7323 19.1803C14.3152 18.0692 15.1257 17.1949 16.164 16.5574C17.2022 15.9016 18.3862 15.5738 19.7159 15.5738C21.082 15.5738 22.266 15.8743 23.2678 16.4754C24.2878 17.0765 25.062 17.9144 25.5902 18.9891C26.1184 20.0455 26.3826 21.2659 26.3826 22.6503C26.3826 22.8142 26.3734 22.9781 26.3552 23.1421C26.337 23.306 26.3279 23.3971 26.3279 23.4153H15.8908C15.9818 24.6539 16.4281 25.6102 17.2295 26.2842C18.031 26.9581 18.9418 27.2951 19.9618 27.2951C21.5283 27.2951 22.7305 26.5665 23.5683 25.1093L26.1367 26.3388C25.5356 27.4499 24.6977 28.3424 23.623 29.0164C22.5665 29.6721 21.3188 30 19.8798 30ZM23.3224 21.1202C23.286 20.6831 23.1403 20.2368 22.8853 19.7814C22.6303 19.326 22.2295 18.9435 21.6831 18.6339C21.1549 18.306 20.49 18.1421 19.6886 18.1421C18.796 18.1421 18.0219 18.4153 17.3662 18.9617C16.7286 19.5082 16.2915 20.2277 16.0547 21.1202H23.3224Z" fill="#3C4043"/>
<path d="M33.4428 30C32.4774 30 31.6031 29.8087 30.8199 29.4262C30.0549 29.0255 29.4447 28.4791 28.9893 27.7869C28.5521 27.0765 28.3335 26.275 28.3335 25.3825C28.3335 23.9617 28.8618 22.8415 29.9182 22.0219C30.9929 21.2022 32.3499 20.7924 33.9893 20.7924C35.4283 20.7924 36.6578 21.0383 37.6778 21.5301V20.9563C37.6778 20.1366 37.3499 19.4627 36.6942 18.9344C36.0567 18.388 35.2825 18.1148 34.3718 18.1148C32.9875 18.1148 31.8763 18.6794 31.0385 19.8087L28.7434 18.224C29.3809 17.3679 30.1733 16.7122 31.1204 16.2568C32.0858 15.8015 33.1696 15.5738 34.3718 15.5738C36.3572 15.5738 37.8873 16.0747 38.962 17.0765C40.0549 18.0601 40.6013 19.4536 40.6013 21.2568V29.5628H37.6778V27.8962H37.5139C37.0767 28.5155 36.5212 29.0255 35.8472 29.4262C35.1733 29.8087 34.3718 30 33.4428 30ZM33.9346 27.5137C34.6086 27.5137 35.2279 27.3497 35.7926 27.0219C36.3754 26.6758 36.8308 26.2295 37.1587 25.6831C37.5048 25.1184 37.6778 24.5173 37.6778 23.8798C36.7124 23.3515 35.6833 23.0874 34.5904 23.0874C33.5886 23.0874 32.8053 23.306 32.2406 23.7432C31.676 24.1803 31.3937 24.7359 31.3937 25.4098C31.3937 26.0291 31.6396 26.5392 32.1314 26.9399C32.6414 27.3224 33.2425 27.5137 33.9346 27.5137Z" fill="#3C4043"/>
<path d="M43.7743 16.0109H46.6159V18.0328H46.7798C47.0712 17.3406 47.5995 16.7668 48.3645 16.3115C49.1295 15.8379 49.9128 15.6011 50.7142 15.6011C51.37 15.6011 51.9073 15.6922 52.3262 15.8743V19.0164C51.7069 18.7067 51.0148 18.5519 50.2497 18.5519C49.2661 18.5519 48.4374 18.9344 47.7634 19.6995C47.1077 20.4463 46.7798 21.3661 46.7798 22.459V29.5628H43.7743V16.0109Z" fill="#3C4043"/>
<path d="M54.5272 16.0109H57.3687V17.8142H57.5327C57.9334 17.1585 58.5163 16.6211 59.2813 16.2022C60.0463 15.7832 60.8751 15.5738 61.7676 15.5738C63.4434 15.5738 64.7093 16.0656 65.5654 17.0492C66.4398 18.0328 66.8769 19.3898 66.8769 21.1202V29.5628H63.8715V21.5301C63.8715 19.3989 62.8787 18.3333 60.8933 18.3333C59.8915 18.3333 59.0809 18.7341 58.4616 19.5355C57.8423 20.337 57.5327 21.2842 57.5327 22.3771V29.5628H54.5272V16.0109Z" fill="#3C4043"/>
<path d="M84.8502 30C82.9964 30 81.303 29.5633 79.77 28.6898C78.2548 27.8164 77.0606 26.6221 76.1871 25.107C75.3137 23.574 74.877 21.8717 74.877 20C74.877 18.1283 75.3137 16.4349 76.1871 14.9198C77.0606 13.3868 78.2548 12.1836 79.77 11.3102C81.303 10.4367 82.9964 10 84.8502 10C87.7201 10 90.0819 11.0428 91.9358 13.1283L89.8235 15.1872C89.1639 14.4029 88.4242 13.8235 87.6042 13.4492C86.8021 13.057 85.8841 12.861 84.8502 12.861C83.5668 12.861 82.3903 13.1551 81.3208 13.7433C80.2691 14.3316 79.4313 15.1693 78.8074 16.2567C78.2014 17.3262 77.8983 18.574 77.8983 20C77.8983 21.426 78.2014 22.6827 78.8074 23.7701C79.4313 24.8396 80.2691 25.6684 81.3208 26.2567C82.3903 26.8449 83.5668 27.139 84.8502 27.139C86.9893 27.139 88.8074 26.2478 90.3048 24.4652L92.4705 26.5508C91.5614 27.6381 90.4474 28.4848 89.1283 29.0909C87.827 29.697 86.401 30 84.8502 30Z" fill="url(#paint0_linear)"/>
<path d="M101.245 30C99.6585 30 98.2325 29.5365 96.9669 28.6096C95.7013 27.6827 94.8279 26.3815 94.3466 24.7059L97.1808 23.5561C97.466 24.6078 97.9651 25.4724 98.6781 26.1497C99.409 26.8093 100.282 27.139 101.298 27.139C102.243 27.139 103.045 26.8984 103.705 26.4171C104.364 25.918 104.694 25.2406 104.694 24.385C104.694 23.6007 104.4 22.959 103.812 22.4599C103.241 21.943 102.234 21.426 100.79 20.9091L99.5872 20.4813C98.3038 20.0357 97.2254 19.3939 96.3519 18.5561C95.4785 17.7184 95.0418 16.6132 95.0418 15.2406C95.0418 14.2959 95.3002 13.4225 95.8172 12.6203C96.3341 11.8182 97.0471 11.1854 97.9562 10.7219C98.8831 10.2406 99.9259 10 101.085 10C102.76 10 104.097 10.41 105.095 11.2299C106.093 12.0321 106.762 12.9412 107.101 13.9572L104.4 15.107C104.204 14.5009 103.83 13.9661 103.277 13.5027C102.724 13.0392 102.011 12.8075 101.138 12.8075C100.265 12.8075 99.5248 13.0303 98.9188 13.4759C98.3305 13.9216 98.0364 14.492 98.0364 15.1872C98.0364 15.8467 98.3038 16.3904 98.8386 16.8182C99.3733 17.246 100.211 17.656 101.352 18.0481L102.555 18.4492C104.195 19.0196 105.461 19.7683 106.352 20.6952C107.261 21.6043 107.716 22.8253 107.716 24.3583C107.716 25.6061 107.395 26.6578 106.753 27.5134C106.111 28.3512 105.291 28.975 104.293 29.385C103.313 29.795 102.297 30 101.245 30Z" fill="url(#paint1_linear)"/>
<path d="M116.572 30C114.986 30 113.56 29.5365 112.294 28.6096C111.029 27.6827 110.155 26.3815 109.674 24.7059L112.508 23.5561C112.793 24.6078 113.292 25.4724 114.005 26.1497C114.736 26.8093 115.61 27.139 116.626 27.139C117.571 27.139 118.373 26.8984 119.032 26.4171C119.692 25.918 120.022 25.2406 120.022 24.385C120.022 23.6007 119.727 22.959 119.139 22.4599C118.569 21.943 117.562 21.426 116.118 20.9091L114.915 20.4813C113.631 20.0357 112.553 19.3939 111.679 18.5561C110.806 17.7184 110.369 16.6132 110.369 15.2406C110.369 14.2959 110.628 13.4225 111.144 12.6203C111.661 11.8182 112.374 11.1854 113.284 10.7219C114.21 10.2406 115.253 10 116.412 10C118.087 10 119.424 10.41 120.423 11.2299C121.421 12.0321 122.089 12.9412 122.428 13.9572L119.727 15.107C119.531 14.5009 119.157 13.9661 118.604 13.5027C118.052 13.0392 117.339 12.8075 116.465 12.8075C115.592 12.8075 114.852 13.0303 114.246 13.4759C113.658 13.9216 113.364 14.492 113.364 15.1872C113.364 15.8467 113.631 16.3904 114.166 16.8182C114.701 17.246 115.538 17.656 116.679 18.0481L117.882 18.4492C119.522 19.0196 120.788 19.7683 121.679 20.6952C122.588 21.6043 123.043 22.8253 123.043 24.3583C123.043 25.6061 122.722 26.6578 122.08 27.5134C121.439 28.3512 120.619 28.975 119.62 29.385C118.64 29.795 117.624 30 116.572 30Z" fill="url(#paint2_linear)"/>
<path d="M126.231 16.2299V10.4278H129.226V16.2299L128.905 23.3422H126.525L126.231 16.2299ZM127.729 29.7326C127.158 29.7326 126.668 29.5365 126.258 29.1444C125.866 28.7344 125.67 28.2442 125.67 27.6738C125.67 27.1034 125.866 26.6221 126.258 26.2299C126.668 25.8378 127.158 25.6417 127.729 25.6417C128.299 25.6417 128.78 25.8378 129.172 26.2299C129.565 26.6221 129.761 27.1034 129.761 27.6738C129.761 28.2442 129.565 28.7344 129.172 29.1444C128.78 29.5365 128.299 29.7326 127.729 29.7326Z" fill="url(#paint3_linear)"/>
<defs>
<linearGradient id="paint0_linear" x1="74.877" y1="30" x2="131.458" y2="18.0078" gradientUnits="userSpaceOnUse">
<stop offset="0.0677083" stop-color="#9933FF"/>
<stop offset="0.34375" stop-color="#0066FF"/>
<stop offset="0.619792" stop-color="#3399FF"/>
<stop offset="0.911458" stop-color="#33CC00"/>
</linearGradient>
<linearGradient id="paint1_linear" x1="74.877" y1="30" x2="131.458" y2="18.0078" gradientUnits="userSpaceOnUse">
<stop offset="0.0677083" stop-color="#9933FF"/>
<stop offset="0.34375" stop-color="#0066FF"/>
<stop offset="0.619792" stop-color="#3399FF"/>
<stop offset="0.911458" stop-color="#33CC00"/>
</linearGradient>
<linearGradient id="paint2_linear" x1="74.877" y1="30" x2="131.458" y2="18.0078" gradientUnits="userSpaceOnUse">
<stop offset="0.0677083" stop-color="#9933FF"/>
<stop offset="0.34375" stop-color="#0066FF"/>
<stop offset="0.619792" stop-color="#3399FF"/>
<stop offset="0.911458" stop-color="#33CC00"/>
</linearGradient>
<linearGradient id="paint3_linear" x1="74.877" y1="30" x2="131.458" y2="18.0078" gradientUnits="userSpaceOnUse">
<stop offset="0.0677083" stop-color="#9933FF"/>
<stop offset="0.34375" stop-color="#0066FF"/>
<stop offset="0.619792" stop-color="#3399FF"/>
<stop offset="0.911458" stop-color="#33CC00"/>
</linearGradient>
</defs>
</svg>
