<svg width="140" height="40" viewBox="0 0 140 40" fill="none" xmlns="http://www.w3.org/2000/svg"><path d="M2.296 8.952h3.136v17.052h8.596V29H2.296V8.952zm20.622 20.496c-1.4 0-2.66-.327-3.78-.98a7.063 7.063 0 0 1-2.604-2.688c-.616-1.157-.924-2.455-.924-3.892 0-1.363.298-2.623.896-3.78a7.237 7.237 0 0 1 2.548-2.8c1.082-.69 2.314-1.036 3.696-1.036 1.437 0 2.678.317 3.724.952a6.117 6.117 0 0 1 2.408 2.604c.56 1.101.84 2.343.84 3.724 0 .261-.028.588-.084.98H18.69c.112 1.325.578 2.352 1.4 3.08a4.38 4.38 0 0 0 2.912 1.064c.877 0 1.633-.196 2.268-.588a4.595 4.595 0 0 0 1.568-1.652l2.604 1.232c-.672 1.176-1.55 2.1-2.632 2.772-1.083.672-2.38 1.008-3.892 1.008zm3.668-9.268a3.462 3.462 0 0 0-.476-1.484c-.28-.504-.71-.924-1.288-1.26-.56-.336-1.251-.504-2.072-.504-.99 0-1.83.299-2.52.896-.672.579-1.14 1.363-1.4 2.352h7.756zm10.557 9.268c-1.027 0-1.941-.196-2.744-.588-.803-.41-1.428-.98-1.876-1.708-.448-.747-.672-1.587-.672-2.52 0-1.475.55-2.641 1.652-3.5 1.12-.859 2.53-1.288 4.228-1.288.84 0 1.596.084 2.268.252.672.15 1.204.317 1.596.504v-.728c0-.877-.327-1.587-.98-2.128-.653-.56-1.493-.84-2.52-.84-.728 0-1.419.159-2.072.476a4.061 4.061 0 0 0-1.54 1.316l-2.156-1.652A6.427 6.427 0 0 1 34.791 15c1.008-.485 2.128-.728 3.36-.728 2.072 0 3.668.513 4.788 1.54 1.12 1.008 1.68 2.436 1.68 4.284V29h-3.024v-1.708h-.14c-.41.616-.99 1.13-1.736 1.54-.747.41-1.605.616-2.576.616zm.532-2.548c.747 0 1.419-.177 2.016-.532a3.807 3.807 0 0 0 1.4-1.428 3.876 3.876 0 0 0 .504-1.932 6.225 6.225 0 0 0-1.512-.588 6.82 6.82 0 0 0-1.764-.224c-1.157 0-2.007.233-2.548.7-.541.448-.812 1.036-.812 1.764 0 .653.252 1.195.756 1.624.504.41 1.157.616 1.96.616zm10.3-12.18h2.94v2.1h.14c.318-.728.869-1.325 1.653-1.792.784-.485 1.614-.728 2.492-.728.69 0 1.269.093 1.736.28v3.192c-.822-.299-1.56-.448-2.212-.448-.71 0-1.344.187-1.904.56a3.93 3.93 0 0 0-1.288 1.512 4.397 4.397 0 0 0-.476 2.044V29h-3.08V14.72zm11.32 0h2.94v1.876h.14c.412-.672 1.018-1.223 1.82-1.652a5.36 5.36 0 0 1 2.605-.672c1.736 0 3.052.513 3.948 1.54.915 1.008 1.372 2.39 1.372 4.144V29h-3.08v-8.624c0-1.12-.28-1.941-.84-2.464-.541-.523-1.297-.784-2.268-.784-.69 0-1.307.196-1.848.588a3.716 3.716 0 0 0-1.26 1.512 4.74 4.74 0 0 0-.448 2.044V29h-3.08V14.72z" fill="#3C4043"/><path d="M89.788 29.448c-1.941 0-3.715-.457-5.32-1.372a10.416 10.416 0 0 1-3.808-3.78c-.915-1.605-1.372-3.379-1.372-5.32 0-1.941.457-3.705 1.372-5.292a10.14 10.14 0 0 1 3.808-3.78c1.605-.933 3.379-1.4 5.32-1.4 3.024 0 5.525 1.092 7.504 3.276l-2.66 2.576c-1.288-1.512-2.893-2.268-4.816-2.268-1.25 0-2.39.29-3.416.868a6.165 6.165 0 0 0-2.436 2.408c-.579 1.045-.868 2.25-.868 3.612 0 1.363.29 2.567.868 3.612a6.363 6.363 0 0 0 2.436 2.436c1.027.56 2.165.84 3.416.84 2.11 0 3.873-.877 5.292-2.632l2.688 2.548a10.045 10.045 0 0 1-3.528 2.744c-1.344.616-2.837.924-4.48.924zm17.556 0c-1.755 0-3.304-.495-4.648-1.484-1.344-.99-2.287-2.39-2.828-4.2l3.556-1.4c.28 1.064.756 1.913 1.428 2.548.672.635 1.512.952 2.52.952.84 0 1.559-.205 2.156-.616.597-.43.896-1.017.896-1.764 0-.747-.289-1.353-.868-1.82-.56-.485-1.568-.999-3.024-1.54l-1.232-.448c-1.288-.448-2.389-1.13-3.304-2.044-.915-.933-1.372-2.1-1.372-3.5a5.25 5.25 0 0 1 .812-2.856c.541-.859 1.307-1.53 2.296-2.016.989-.504 2.109-.756 3.36-.756 1.811 0 3.239.43 4.284 1.288 1.045.84 1.764 1.83 2.156 2.968l-3.332 1.4a3.212 3.212 0 0 0-1.092-1.54c-.504-.43-1.157-.644-1.96-.644-.821 0-1.503.196-2.044.588-.523.373-.784.868-.784 1.484 0 .597.252 1.11.756 1.54.504.41 1.335.812 2.492 1.204l1.26.42c1.736.597 3.061 1.39 3.976 2.38.933.97 1.4 2.25 1.4 3.836 0 1.307-.336 2.417-1.008 3.332a6.195 6.195 0 0 1-2.604 2.016 8.164 8.164 0 0 1-3.248.672zm16.488 0c-1.754 0-3.304-.495-4.648-1.484-1.344-.99-2.286-2.39-2.828-4.2l3.556-1.4c.28 1.064.756 1.913 1.428 2.548.672.635 1.512.952 2.52.952.84 0 1.559-.205 2.156-.616.598-.43.896-1.017.896-1.764 0-.747-.289-1.353-.868-1.82-.56-.485-1.568-.999-3.024-1.54l-1.232-.448c-1.288-.448-2.389-1.13-3.304-2.044-.914-.933-1.372-2.1-1.372-3.5a5.25 5.25 0 0 1 .812-2.856c.542-.859 1.307-1.53 2.296-2.016.99-.504 2.11-.756 3.36-.756 1.811 0 3.239.43 4.284 1.288 1.046.84 1.764 1.83 2.156 2.968l-3.332 1.4a3.212 3.212 0 0 0-1.092-1.54c-.504-.43-1.157-.644-1.96-.644-.821 0-1.502.196-2.044.588-.522.373-.784.868-.784 1.484 0 .597.252 1.11.756 1.54.504.41 1.335.812 2.492 1.204l1.26.42c1.736.597 3.062 1.39 3.976 2.38.934.97 1.4 2.25 1.4 3.836 0 1.307-.336 2.417-1.008 3.332a6.195 6.195 0 0 1-2.604 2.016 8.164 8.164 0 0 1-3.248.672zm10.273-14.728V8.952h3.752v5.768l-.336 7.392h-3.08l-.336-7.392zm1.876 14.448a2.417 2.417 0 0 1-1.736-.7 2.416 2.416 0 0 1-.7-1.736c0-.672.233-1.241.7-1.708a2.417 2.417 0 0 1 1.736-.7c.672 0 1.241.233 1.708.7a2.28 2.28 0 0 1 .728 1.708c0 .672-.243 1.25-.728 1.736-.467.467-1.036.7-1.708.7z" fill="url(#a)"/><defs><linearGradient id="a" x1="78" y1="20.571" x2="139.899" y2="31.433" gradientUnits="userSpaceOnUse"><stop stop-color="#B323F4"/><stop offset=".302" stop-color="#2BA1FF"/><stop offset=".688" stop-color="#02E895"/><stop offset=".927" stop-color="#6DDB00"/></linearGradient></defs></svg>
