<svg width="480" height="480" fill="none" xmlns="http://www.w3.org/2000/svg"><g clip-path="url(#a)"><circle cx="277" cy="146" r="40" fill="#FEDFC8"/><circle cx="428" cy="281" r="10" fill="#CEEAD6"/><path d="m177.368 162.406 23.836 20.001-29.239 10.642 5.403-30.643z" fill="#CEEAD6"/><path d="M429.116 135.346v38.201l-33.083-19.1 33.083-19.101z" fill="#D2E3FC"/><path d="M352.392 225v20.785l-18-10.393 18-10.392z" fill="#FDCFE8"/><path fill="#E9D2FD" d="m443.607 220.795 30.91-8.282 8.282 30.91-30.91 8.282z"/><path fill="#CEEAD6" d="M301.896 298.926h80v60h-80z"/><mask id="b" fill="#fff"><path fill-rule="evenodd" clip-rule="evenodd" d="M322 151c0 22.091-17.909 40-40 40s-40-17.909-40-40 17.909-40 40-40 40 17.909 40 40zm-139.947 16.126 24.38 20.458-29.907 10.886 5.527-31.344zm252.415 11.773v-38.201l-33.084 19.1 33.084 19.101zm-76.724 72.237-18-10.392 18-10.392v20.784zm122.125-33.271-30.91 8.282 8.282 30.91 30.91-8.283-8.282-30.909zm-172.622 86.412h80v60h-80v-60zM432 295c5.523 0 10-4.477 10-10s-4.477-10-10-10-10 4.477-10 10 4.477 10 10 10z"/></mask><path d="m206.433 187.584.342.94 1.628-.592-1.327-1.114-.643.766zm-24.38-20.458.642-.766-1.327-1.113-.3 1.706.985.173zm-5.527 31.344-.985-.174-.301 1.706 1.628-.593-.342-.939zm257.942-57.772h1v-1.732l-1.5.866.5.866zm0 38.201-.5.866 1.5.866v-1.732h-1zm-33.084-19.101-.5-.866-1.5.866 1.5.866.5-.866zm-61.64 80.946-.5-.866-1.5.866 1.5.866.5-.866zm18 10.392-.5.866 1.5.866v-1.732h-1zm0-20.784h1v-1.732l-1.5.866.5.866zm91.215-4.205-.259-.966-.966.259.259.966.966-.259zm30.91-8.282.966-.259-.259-.966-.966.259.259.966zm-22.628 39.192-.966.258.259.966.966-.258-.259-.966zm30.91-8.283.259.966.966-.258-.259-.966-.966.258zm-100.904 55.503h1v-1h-1v1zm-80 0v-1h-1v1h1zm80 60v1h1v-1h-1zm-80 0h-1v1h1v-1zM282 192c22.644 0 41-18.356 41-41h-2c0 21.539-17.461 39-39 39v2zm-41-41c0 22.644 18.356 41 41 41v-2c-21.539 0-39-17.461-39-39h-2zm41-41c-22.644 0-41 18.356-41 41h2c0-21.539 17.461-39 39-39v-2zm41 41c0-22.644-18.356-41-41-41v2c21.539 0 39 17.461 39 39h2zm-115.924 35.818-24.381-20.458-1.285 1.533 24.38 20.457 1.286-1.532zm-30.208 12.591 29.907-10.885-.684-1.879-29.907 10.885.684 1.879zm4.2-32.456-5.527 31.343 1.97.347 5.526-31.343-1.969-.347zm252.4-26.255v38.201h2v-38.201h-2zm-31.584 19.966 33.084-19.1-1-1.732-33.084 19.1 1 1.732zm33.084 17.369-33.084-19.101-1 1.732 33.084 19.101 1-1.732zm-95.724 63.577 18 10.392 1-1.732-18-10.392-1 1.732zm18-12.124-18 10.392 1 1.732 18-10.392-1-1.732zm1.5 21.65v-20.784h-2v20.784h2zm90.474-24.023 30.91-8.282-.518-1.932-30.91 8.282.518 1.932zm8.989 29.685-8.282-30.91-1.932.518 8.282 30.909 1.932-.517zm29.685-8.99-30.91 8.283.518 1.932 30.91-8.283-.518-1.932zm-8.989-29.684 8.282 30.909 1.932-.517-8.282-30.91-1.932.518zm-91.656 85.153h-80v2h80v-2zm1 61v-60h-2v60h2zm-81 1h80v-2h-80v2zm-1-61v60h2v-60h-2zM441 285a9 9 0 0 1-9 9v2c6.075 0 11-4.925 11-11h-2zm-9-9a9 9 0 0 1 9 9h2c0-6.075-4.925-11-11-11v2zm-9 9a9 9 0 0 1 9-9v-2c-6.075 0-11 4.925-11 11h2zm9 9a9 9 0 0 1-9-9h-2c0 6.075 4.925 11 11 11v-2z" fill="#80868B" mask="url(#b)"/><path d="M24 225h4.59v24.959h12.582v4.385H24V225zM53.82 255c-1.995 0-3.798-.464-5.41-1.393-1.585-.929-2.828-2.214-3.73-3.853-.901-1.667-1.352-3.524-1.352-5.574 0-1.967.423-3.77 1.27-5.41.875-1.666 2.09-2.978 3.648-3.934 1.557-.984 3.333-1.475 5.328-1.475 2.049 0 3.825.45 5.328 1.352a8.774 8.774 0 0 1 3.483 3.771c.793 1.584 1.189 3.415 1.189 5.491 0 .246-.014.492-.041.738-.028.246-.041.383-.041.41H47.836c.137 1.858.806 3.292 2.008 4.303 1.203 1.011 2.569 1.517 4.099 1.517 2.35 0 4.153-1.093 5.41-3.279l3.852 1.844a10.646 10.646 0 0 1-3.77 4.017c-1.585.983-3.457 1.475-5.615 1.475zm5.164-13.32c-.055-.655-.274-1.325-.656-2.008-.383-.683-.984-1.257-1.803-1.721-.793-.492-1.79-.738-2.992-.738-1.339 0-2.5.41-3.484 1.23-.956.819-1.612 1.899-1.967 3.237h10.902zM74.164 255c-1.448 0-2.76-.287-3.934-.861-1.148-.601-2.063-1.42-2.746-2.459-.656-1.065-.984-2.267-.984-3.606 0-2.131.793-3.812 2.377-5.041 1.612-1.23 3.648-1.844 6.107-1.844 2.158 0 4.003.368 5.533 1.106v-.861c0-1.229-.492-2.24-1.476-3.032-.956-.82-2.117-1.23-3.483-1.23-2.077 0-3.744.847-5 2.541l-3.443-2.377a9.549 9.549 0 0 1 3.566-2.951c1.448-.683 3.073-1.024 4.877-1.024 2.978 0 5.273.751 6.885 2.254 1.64 1.475 2.459 3.565 2.459 6.27v12.459h-4.385v-2.5h-.246a8.057 8.057 0 0 1-2.5 2.295c-1.011.574-2.213.861-3.607.861zm.738-3.73c1.01 0 1.94-.245 2.787-.737.874-.519 1.557-1.189 2.049-2.008.52-.847.779-1.749.779-2.705a9.496 9.496 0 0 0-4.631-1.189c-1.503 0-2.678.328-3.525.984-.847.655-1.27 1.489-1.27 2.5 0 .929.368 1.694 1.106 2.295.765.574 1.667.86 2.705.86zM89.662 234.016h4.262v3.033h.246c.437-1.038 1.23-1.899 2.377-2.582 1.147-.71 2.322-1.065 3.524-1.065.984 0 1.79.136 2.418.409v4.714c-.929-.465-1.967-.697-3.114-.697-1.476 0-2.719.574-3.73 1.721-.983 1.12-1.475 2.5-1.475 4.14v10.655h-4.508v-20.328zM105.791 234.016h4.262v2.705h.246c.601-.983 1.475-1.789 2.623-2.418a7.643 7.643 0 0 1 3.729-.942c2.514 0 4.413.737 5.697 2.213 1.312 1.475 1.967 3.511 1.967 6.106v12.664h-4.508v-12.049c0-3.197-1.489-4.795-4.467-4.795-1.503 0-2.719.601-3.648 1.803-.929 1.202-1.393 2.623-1.393 4.263v10.778h-4.508v-20.328z" fill="#3C4043"/><path d="M147.275 255c-2.78 0-5.321-.655-7.62-1.965a14.395 14.395 0 0 1-5.374-5.375c-1.311-2.299-1.966-4.853-1.966-7.66 0-2.807.655-5.348 1.966-7.62 1.31-2.3 3.101-4.105 5.374-5.415 2.299-1.31 4.84-1.965 7.62-1.965 4.305 0 7.848 1.564 10.629 4.693l-3.169 3.088c-.989-1.177-2.099-2.046-3.329-2.607-1.203-.588-2.58-.883-4.131-.883-1.925 0-3.69.442-5.294 1.324-1.577.882-2.834 2.139-3.77 3.77-.909 1.604-1.364 3.476-1.364 5.615 0 2.139.455 4.024 1.364 5.655.936 1.604 2.193 2.848 3.77 3.73 1.604.882 3.369 1.324 5.294 1.324 3.209 0 5.936-1.337 8.182-4.011l3.249 3.128a14.136 14.136 0 0 1-5.014 3.81c-1.952.909-4.091 1.364-6.417 1.364z" fill="url(#c)"/><path d="M171.867 255c-2.379 0-4.518-.695-6.417-2.086-1.898-1.39-3.208-3.342-3.93-5.855l4.251-1.725c.428 1.578 1.177 2.875 2.246 3.891 1.096.989 2.407 1.484 3.931 1.484 1.417 0 2.62-.361 3.609-1.083.99-.749 1.484-1.765 1.484-3.048 0-1.177-.441-2.139-1.323-2.888-.856-.776-2.367-1.551-4.532-2.326l-1.805-.642c-1.925-.669-3.543-1.631-4.853-2.888-1.31-1.256-1.965-2.914-1.965-4.973 0-1.417.387-2.727 1.163-3.931.775-1.203 1.845-2.152 3.208-2.847 1.391-.722 2.955-1.083 4.693-1.083 2.513 0 4.518.615 6.016 1.845 1.497 1.203 2.5 2.567 3.008 4.091l-4.051 1.724c-.294-.909-.856-1.711-1.684-2.406-.829-.695-1.899-1.043-3.209-1.043s-2.42.334-3.329 1.003c-.882.668-1.323 1.524-1.323 2.567 0 .989.401 1.805 1.203 2.446.802.642 2.059 1.257 3.77 1.845l1.805.602c2.46.855 4.358 1.978 5.695 3.369 1.363 1.363 2.045 3.195 2.045 5.494 0 1.872-.481 3.45-1.444 4.733a8.738 8.738 0 0 1-3.689 2.808 11.742 11.742 0 0 1-4.573.922z" fill="url(#d)"/><path d="M194.858 255c-2.379 0-4.518-.695-6.417-2.086-1.898-1.39-3.208-3.342-3.93-5.855l4.251-1.725c.428 1.578 1.177 2.875 2.246 3.891 1.096.989 2.407 1.484 3.931 1.484 1.417 0 2.62-.361 3.609-1.083.99-.749 1.484-1.765 1.484-3.048 0-1.177-.441-2.139-1.323-2.888-.856-.776-2.367-1.551-4.532-2.326l-1.805-.642c-1.925-.669-3.543-1.631-4.853-2.888-1.31-1.256-1.965-2.914-1.965-4.973 0-1.417.387-2.727 1.163-3.931.775-1.203 1.845-2.152 3.208-2.847 1.391-.722 2.955-1.083 4.693-1.083 2.513 0 4.518.615 6.016 1.845 1.497 1.203 2.5 2.567 3.008 4.091l-4.051 1.724c-.294-.909-.856-1.711-1.684-2.406-.829-.695-1.899-1.043-3.209-1.043s-2.42.334-3.329 1.003c-.882.668-1.323 1.524-1.323 2.567 0 .989.401 1.805 1.203 2.446.802.642 2.059 1.257 3.77 1.845l1.805.602c2.46.855 4.358 1.978 5.695 3.369 1.363 1.363 2.045 3.195 2.045 5.494 0 1.872-.481 3.45-1.444 4.733a8.738 8.738 0 0 1-3.689 2.808 11.742 11.742 0 0 1-4.573.922z" fill="url(#e)"/><path d="M209.347 234.345v-8.703h4.492v8.703l-.482 10.668h-3.569l-.441-10.668zm2.246 20.254a3.08 3.08 0 0 1-2.206-.882 3.083 3.083 0 0 1-.883-2.206c0-.856.295-1.578.883-2.166a3.08 3.08 0 0 1 2.206-.882c.855 0 1.577.294 2.165.882.589.588.883 1.31.883 2.166 0 .855-.294 1.591-.883 2.206-.588.588-1.31.882-2.165.882z" fill="url(#f)"/></g><defs><linearGradient id="c" x1="132.315" y1="240.429" x2="209.58" y2="264.433" gradientUnits="userSpaceOnUse"><stop stop-color="#B323F4"/><stop offset=".302" stop-color="#2BA1FF"/><stop offset=".688" stop-color="#02E895"/><stop offset=".927" stop-color="#6DDB00"/></linearGradient><linearGradient id="d" x1="132.315" y1="240.429" x2="209.58" y2="264.433" gradientUnits="userSpaceOnUse"><stop stop-color="#B323F4"/><stop offset=".302" stop-color="#2BA1FF"/><stop offset=".688" stop-color="#02E895"/><stop offset=".927" stop-color="#6DDB00"/></linearGradient><linearGradient id="e" x1="132.315" y1="240.429" x2="209.58" y2="264.433" gradientUnits="userSpaceOnUse"><stop stop-color="#B323F4"/><stop offset=".302" stop-color="#2BA1FF"/><stop offset=".688" stop-color="#02E895"/><stop offset=".927" stop-color="#6DDB00"/></linearGradient><linearGradient id="f" x1="132.315" y1="240.429" x2="209.58" y2="264.433" gradientUnits="userSpaceOnUse"><stop stop-color="#B323F4"/><stop offset=".302" stop-color="#2BA1FF"/><stop offset=".688" stop-color="#02E895"/><stop offset=".927" stop-color="#6DDB00"/></linearGradient><clipPath id="a"><path fill="#fff" d="M0 0h480v480H0z"/></clipPath></defs></svg>