<svg xmlns="http://www.w3.org/2000/svg" width="700" height="320" viewBox="0 110 700 350" aria-label="Pie chart with data from HTTP Archive showing the proportion of page weight for each resource type"><path fill="#fff" d="M0 0H700V300H0z"/><path fill="none" d="M542 174H740V326H542z"/><g stroke-width="0"><path fill="none" d="M542 174H740V188H542z"/><text x="561" y="185.9" font-family="Google Sans" font-size="14" fill="#222">Images</text><circle cx="549" cy="181" r="7" fill="#36c"/></g><g stroke-width="0"><path fill="none" d="M542 197H740V211H542z"/><text x="561" y="208.9" font-family="Google Sans" font-size="14" fill="#222">JavaScript</text><circle cx="549" cy="204" r="7" fill="#dc3912"/></g><g stroke-width="0"><path fill="none" d="M542 220H740V234H542z"/><text x="561" y="231.9" font-family="Google Sans" font-size="14" fill="#222">Fonts</text><circle cx="549" cy="227" r="7" fill="#f90"/></g><g stroke-width="0"><path fill="none" d="M542 243H740V257H542z"/><text x="561" y="254.9" font-family="Google Sans" font-size="14" fill="#222">CSS</text><circle cx="549" cy="250" r="7" fill="#109618"/></g><g stroke-width="0"><path fill="none" d="M542 266H740V280H542z"/><text x="561" y="277.9" font-family="Google Sans" font-size="14" fill="#222">Video</text><circle cx="549" cy="273" r="7" fill="#909"/></g><g stroke-width="0"><path fill="none" d="M542 289H740V303H542z"/><text x="561" y="300.9" font-family="Google Sans" font-size="14" fill="#222">HTML</text><circle cx="549" cy="296" r="7" fill="#0099c6"/></g><g stroke-width="0"><path fill="none" d="M542 312H740V326H542z"/><text x="561" y="323.9" font-family="Google Sans" font-size="14" fill="#222">Other</text><circle cx="549" cy="319" r="7" fill="#d47"/></g><g><path d="M340 235.6v30.8l-1.851-123.191v-30.8" stroke="#a63359" fill="#a63359"/><path d="M340 235.6l-1.851-123.191A154 123.2 0 0 1 340 112.4v123.2" stroke="#d47" fill="#d47"/></g><g><path d="M340 235.6v30.8l-18.47-122.31v-30.8" stroke="#007395" fill="#007395"/><path d="M340 235.6l-18.47-122.31a154 123.2 0 0 1 16.619-.881L340 235.6" stroke="#0099c6" fill="#0099c6"/></g><g><path d="M340 235.6v30.8l-39.187-119.145v-30.8" stroke="#730073" fill="#730073"/><path d="M340 235.6l-39.187-119.145a154 123.2 0 0 1 20.716-3.166L340 235.6" stroke="#909" fill="#909"/></g><g><path d="M340 235.6v30.8l-75.472-107.39v-30.8" stroke="#0c7112" fill="#0c7112"/><path d="M340 235.6l-75.472-107.39a154 123.2 0 0 1 36.285-11.755L340 235.6" stroke="#109618" fill="#109618"/></g><g><path d="M340 235.6v30.8l-109.515-86.617v-30.8" stroke="#bf7300" fill="#bf7300"/><path d="M340 235.6l-109.515-86.617a154 123.2 0 0 1 34.043-20.774L340 235.6" stroke="#f90" fill="#f90"/></g><g><path d="M195.489 278.177v30.8A154 123.2 0 0 1 186 266.4v-30.8a154 123.2 0 0 0 9.489 42.577M340 235.6v30.8l-144.511 42.577v-30.8" stroke="#a52b0e" fill="#a52b0e"/><path d="M340 235.6l-144.511 42.577a154 123.2 0 0 1 34.996-129.194L340 235.6" stroke="#dc3912" fill="#dc3912"/></g><g><path d="M494 235.6v30.8a154 123.2 0 0 1-298.511 42.577v-30.8A154 123.2 0 0 0 494 235.6" stroke="#264d99" fill="#264d99"/><path d="M340 235.6V112.4a154 123.2 0 1 1-144.511 165.777L340 235.6" stroke="#36c" fill="#36c"/><text x="377.427" y="247.864" font-family="Google Sans" font-size="20" stroke-width="0" fill="#fff">1,813 KB</text></g></svg>