<svg width="330" height="220" xmlns="http://www.w3.org/2000/svg" xmlns:xlink="http://www.w3.org/1999/xlink"><defs><rect id="a" x="168.985" y="71.728" width="60.658" height="25.111" rx="12.556"/><mask id="b" x="0" y="0" width="60.658" height="25.111" fill="#fff"><use xlink:href="#a"/></mask><path id="c" d="M.279 0h35.372v36.9H.279z"/></defs><g fill="none" fill-rule="evenodd"><rect stroke="#212121" fill="#EA80FC" x="175.362" y="76.998" width="47.936" height="14.571" rx="7.285"/><use stroke="#212121" mask="url(#b)" stroke-width="2" stroke-dasharray="2.7" xlink:href="#a"/><g transform="translate(218.173 124.507)"><mask id="d" fill="#fff"><use xlink:href="#c"/></mask><path stroke="#212121" d="M.779.5h34.372v35.9H.779z"/><g stroke="#212121" stroke-width=".9" mask="url(#d)"><path d="M-123.37 14.409H70.096M-39.497-27.255v131.173M35.868-27.255v131.173M-31.123-27.255v131.173M44.242-27.255v131.173M-22.75-27.255v131.173M52.616-27.255v131.173M-14.375-27.255v131.173M60.99-27.255v131.173M-6.001-27.255v131.173M69.364-27.255v131.173M2.372-27.255v131.173M-47.871-27.255v131.173M27.494-27.255v131.173M-56.245-27.255v131.173M19.12-27.255v131.173M-64.619-27.255v131.173M10.746-27.255v131.173M-72.993-27.555V103.62M-81.367-27.555V103.62M-89.74-27.555V103.62M-98.114-27.555V103.62M-106.488-27.555V103.62M-114.862-27.555V103.62M-123.236-27.555V103.62M-123.37 6.05H70.096M-123.37-2.307H70.096M-123.37-10.665H70.096M-123.37-19.023H70.096M-123.37-27.38H70.096M-123.37 22.766H70.096M-123.37 31.124H70.096M-123.37 39.482H70.096M-123.37 47.84H70.096M-123.37 56.198H70.096M-123.37 64.556H70.096M-123.37 72.913H70.096M-123.37 81.271H70.096M-123.37 89.629H70.096M-123.37 97.987H70.096"/></g></g><path d="M195.316 132.806c-1.218-6.166-2.534-10.197-3.947-12.094-1.236-1.658-3.732-5.205-7.488-10.638a3.04 3.04 0 0 1 .717-4.19 3.142 3.142 0 0 1 4.28.56l4.792 5.885v-24.6a3.697 3.697 0 0 1 7.393 0v19.898-7.367a3.857 3.857 0 0 1 7.713 0l.001 7.367v-6.08a3.704 3.704 0 1 1 7.409 0v6.872-4.166a3.506 3.506 0 0 1 3.505-3.506 3.555 3.555 0 0 1 3.555 3.555c.001 6.477-.524 11.596-1.575 15.357a85.589 85.589 0 0 1-4.891 13.147h-21.464z" fill="#FFF" stroke="#212121" stroke-linecap="round" stroke-linejoin="round"/><path stroke="#212121" fill="#F5F5F5" d="M77.791 125.007h153.152v35.9H77.791z"/><path d="M99.696 143.02l1.26 1.3c10.602 10.958 27.786 10.958 38.389 0l1.26-1.3-1.26-1.302c-10.603-10.957-27.787-10.957-38.39 0l-1.26 1.301z" stroke="#212121" fill="#FFF"/><circle stroke="#212121" fill="#6600ED" cx="120" cy="143" r="9"/><g stroke="#212121"><path d="M156.407 136.981h53.06M156.407 148.256h53.06"/></g><path stroke="#212121" fill="#6600ED" d="M85.702 102.602h23.568v22.306H85.702z"/><path stroke="#212121" fill="#A249FF" d="M109.38 102.602h23.568v22.306H109.38z"/><path stroke="#212121" fill="#EA80FC" d="M133.058 102.602h23.568v22.306h-23.568z"/><circle stroke="#212121" fill="#A249FF" cx="245.691" cy="138.907" r="2.7"/><circle stroke="#212121" fill="#A249FF" cx="237.073" cy="147.007" r="2.7"/><g fill-rule="nonzero" stroke="#212121"><path d="M93.537 100.231l13.77-37.068h.67l13.774 37.068M97.705 88.49h19.623"/><g><path d="M125.23 79.692c.363-4.805 4.876-7.268 9.036-7.268 4.16 0 9.797 1.613 9.797 7.268v16.645c0 1.039.454 3.301.628 3.633"/><path d="M144.085 85.319c-9.806.07-13.79-.017-16.957 2.592-3.168 2.608-3.622 7.192-.818 9.925 2.804 2.734 9.036 3.072 12.834.497 2.532-1.718 4.199-3.796 5-6.237"/></g></g></g></svg>