<svg width="256" height="256" fill="none" xmlns="http://www.w3.org/2000/svg"><path d="M56 200.5v-145M55.5 200h145" stroke="#212121" stroke-dasharray="2 3"/><path d="M56 200c63.5 0 82.5-144 144-144M139 56h61" stroke="#212121"/><circle cx="139" cy="56" r="4.5" fill="#FF1776" stroke="#212121"/><circle cx="200" cy="56" r="4.5" fill="#fff" stroke="#212121"/><path d="M56 200h63" stroke="#212121"/><circle cx="119" cy="200" r="4.5" fill="#FF1776" stroke="#212121"/><circle cx="56" cy="200" r="4.5" fill="#fff" stroke="#212121"/><circle cx="128" cy="128" r="28" fill="#FF80C3"/><circle cx="172" cy="128" r="28" fill="#FF1776"/><circle cx="190" cy="128" r="28" fill="#C50F62"/><circle cx="56" cy="128" r="27.5" stroke="#212121"/><circle cx="66" cy="128" r="27.5" stroke="#212121"/><circle cx="84" cy="128" r="27.5" stroke="#212121"/><circle cx="128" cy="128" r="27.5" stroke="#212121"/><circle cx="172" cy="128" r="27.5" stroke="#212121"/><circle cx="190" cy="128" r="27.5" stroke="#212121"/><circle cx="200" cy="128" r="27.5" fill="#fff" stroke="#212121"/><mask id="a" maskUnits="userSpaceOnUse" x="172" y="100" width="56" height="56"><circle cx="200" cy="128" r="28" fill="#fff"/></mask><g mask="url(#a)" stroke="#212121"><path d="M200 100v56M212 100v56M224 100v56M188 100v56M176 100v56M172 128h56M172 116h56M172 104h56M172 140h56M172 152h56"/><path d="M212 119a3 3 0 100-6 3 3 0 000 6z" fill="#FF80C3"/><path d="M188 143a3 3 0 100-6 3 3 0 000 6z" fill="#FF1776"/></g><path d="M192 94h-92M168 128H56M192 162h-56" stroke="#212121" stroke-dasharray="2 3"/></svg>