<svg width="330" height="220" fill="none" xmlns="http://www.w3.org/2000/svg"><path stroke="#000" stroke-dasharray="2 3" d="M81 26h168v168H81z"/><path d="M249 110H81M249 152H81M249 68H81M165 26v168M207 26v168M123 26v168" stroke="#212121" stroke-dasharray="2 3"/><path d="M81 194c74.083 0 96.25-168 168-168M180.73 26h67.823" stroke="#212121"/><circle cx="181" cy="26" r="5" fill="#FF1776" stroke="#212121"/><circle cx="249.105" cy="26" r="5" fill="#fff" stroke="#212121"/><path d="M80.447 194h70.046" stroke="#212121"/><circle cx="150" cy="194" r="5" fill="#FF1776" stroke="#212121"/><circle cx="81" cy="194" r="5" fill="#fff" stroke="#212121"/><circle cx="165" cy="110" r="28" fill="#FF80C3"/><circle cx="221" cy="110" r="28" fill="#FF1776"/><circle cx="243" cy="110" r="28" fill="#C50F62"/><circle cx="77" cy="110" r="28" stroke="#212121"/><circle cx="87" cy="110" r="28" stroke="#212121"/><circle cx="109" cy="110" r="28" stroke="#212121"/><circle cx="165" cy="110" r="28" stroke="#212121"/><circle cx="221" cy="110" r="28" stroke="#212121"/><circle cx="243" cy="110" r="28" stroke="#212121"/><circle cx="253" cy="110" r="28" fill="#fff" stroke="#212121"/><path d="M220 110h-43M223 98h-34M223 122h-30" stroke="#212121"/><path d="M177 110h-28M189 98h-28M193 122h-28" stroke="#212121" stroke-dasharray="2 3"/><mask id="a" maskUnits="userSpaceOnUse" x="225" y="82" width="56" height="56"><circle cx="253" cy="110" r="28" fill="#fff"/></mask><g mask="url(#a)" stroke="#212121"><path d="M253 82v56M265 82v56M277 82v56M241 82v56M229 82v56M225 110h56M225 98h56M225 86h56M225 122h56M225 134h56"/><path d="M265 101a3 3 0 100-6 3 3 0 000 6z" fill="#FF80C3"/><path d="M241 125a3 3 0 100-6 3 3 0 000 6z" fill="#FF1776"/></g></svg>