
<svg fill="none" xmlns="http://www.w3.org/2000/svg" viewBox="0 0 256 256">
  <path d="M72 222v-46h112v46m-88 0h64" stroke="#212121"/>
  <path d="M128 184c-15.464 0-28 12.536-28 28 0 3.523.651 6.894 1.839 10h52.322A27.933 27.933 0 00156 212c0-15.464-12.536-28-28-28z" fill="#fff" stroke="#212121"/>
  <path d="M100.5 212h55M128 184.5V222M113.051 222c-.679-3.106-1.051-6.477-1.051-10 0-15.464 7.163-28 16-28s16 12.536 16 28c0 3.523-.372 6.894-1.051 10M103.5 198.5h49" stroke="#212121"/>
  <path d="M114.099 201.697a3.098 3.098 0 100-6.196 3.098 3.098 0 000 6.196z" fill="#FFEE43" stroke="#212121"/>
  <path d="M144.099 215.197a3.098 3.098 0 100-6.196 3.098 3.098 0 000 6.196z" fill="#FF8100" stroke="#212121"/>
  <path d="M128 130v32M92 81.5v39l24 23.5v18M164 81v39l-24 23.5v18M56 106l48 45.5V162M200 106l-48 45.5V162" stroke="#212121" stroke-dasharray="3 3"/>
  <path d="M72 167a5 5 0 015-5h102a5 5 0 015 5v9H72v-9z" fill="#fff" stroke="#212121"/>
  <path d="M81.5 171.5a2.5 2.5 0 100-5 2.5 2.5 0 000 5z" fill="#FF8100" stroke="#212121"/>
  <path d="M91.5 171.5a2.5 2.5 0 100-5 2.5 2.5 0 000 5z" fill="#FFC836" stroke="#212121"/>
  <path d="M101.5 171.5a2.5 2.5 0 100-5 2.5 2.5 0 000 5z" fill="#FFEE43" stroke="#212121"/>
  <circle cx="56" cy="106" r="23.5" fill="#FFC836" stroke="#212121"/>
  <circle cx="49" cy="103.5" r="2.5" fill="#212121"/>
  <circle cx="56" cy="118" r="3" fill="#212121"/>
  <path fill="#212121" d="M60.5 98h4v4h-4zM55.984 91l2.985 5H53l2.984-5z"/>
  <path d="M56 94v15.5m0 9V113m6.5-12.5v3.452c0 .656-.322 1.271-.862 1.644L56 109.5m0 0v3.5m-7-9v3.839a2 2 0 001.008 1.737L56 113" stroke="#212121"/>
  <circle cx="92" cy="58" r="23.5" fill="#FFEE43" stroke="#212121"/>
  <path d="M81.316 61.949l-2.439-7.316A2 2 0 0180.775 52h22.45a2 2 0 011.898 2.633l-2.439 7.316A3 3 0 0199.838 64H84.162a3 3 0 01-2.846-2.051z" fill="#fff" stroke="#212121"/>
  <circle cx="84" cy="56" r="1" fill="#212121"/>
  <circle cx="88" cy="56" r="1" fill="#212121"/>
  <circle cx="92" cy="56" r="1" fill="#212121"/>
  <circle cx="96" cy="56" r="1" fill="#212121"/>
  <circle cx="100" cy="56" r="1" fill="#212121"/>
  <circle cx="86" cy="60" r="1" fill="#212121"/>
  <circle cx="90" cy="60" r="1" fill="#212121"/>
  <circle cx="94" cy="60" r="1" fill="#212121"/>
  <circle cx="98" cy="60" r="1" fill="#212121"/>
  <circle cx="164" cy="58" r="23.5" fill="#FFC836" stroke="#212121"/>
  <path d="M164 58v12l6-6-6-6zm0 0l6-6-6-6v12zm0 0l-6-6m6 6l-6 6" stroke="#212121" stroke-linecap="round" stroke-linejoin="round"/>
  <circle cx="128" cy="106" r="23.5" fill="#FFEE43" stroke="#212121"/>
  <path d="M119 101a7.474 7.474 0 012 5.099 7.474 7.474 0 01-2 5.099M123.304 99c1.704 1.967 2.696 4.321 2.696 6.85 0 2.532-.994 4.889-2.702 6.857M127.901 97c2.287 2.605 3.599 5.644 3.599 8.889 0 3.247-1.314 6.288-3.604 8.895M132.395 116.402c2.682-3.182 4.205-6.827 4.205-10.701 0-3.874-1.523-7.519-4.204-10.701" stroke="#212121" stroke-linecap="round"/>
  <circle cx="200" cy="106" r="23.5" fill="#FF8100" stroke="#212121"/>
  <mask id="a" fill="#fff">
    <path fill-rule="evenodd" clip-rule="evenodd" d="M197.93 110A8 8 0 11191 98h18a8 8 0 11-6.93 12h-4.14z"/>
  </mask>
  <path fill-rule="evenodd" clip-rule="evenodd" d="M197.93 110A8 8 0 11191 98h18a8 8 0 11-6.93 12h-4.14z" fill="#fff"/>
  <path d="M197.93 110v-1h-.577l-.289.499.866.501zm4.14 0l.866-.501-.289-.499h-.577v1zM191 115a8.996 8.996 0 007.795-4.499l-1.731-1.002A6.997 6.997 0 01191 113v2zm-9-9a9 9 0 009 9v-2a7 7 0 01-7-7h-2zm9-9a9 9 0 00-9 9h2a7 7 0 017-7v-2zm0 2h18v-2h-18v2zm27 7a9 9 0 00-9-9v2a7 7 0 017 7h2zm-9 9a9 9 0 009-9h-2a7 7 0 01-7 7v2zm-7.795-4.499A8.996 8.996 0 00209 115v-2a6.997 6.997 0 01-6.064-3.501l-1.731 1.002zm.865-1.501h-4.14v2h4.14v-2z" fill="#212121" mask="url(#a)"/>
  <circle cx="209" cy="103" r="1.5" fill="#212121"/>
  <circle cx="209" cy="109" r="1.5" fill="#212121"/>
  <circle cx="212" cy="106" r="1.5" fill="#212121"/>
  <circle cx="206" cy="106" r="1.5" fill="#212121"/>
  <path d="M191 102.5v7m-3.5-3.5h7" stroke="#212121"/>
</svg>
