<svg width="330" height="220" xmlns="http://www.w3.org/2000/svg" xmlns:xlink="http://www.w3.org/1999/xlink"><defs><path id="a" d="M.504.197h154.763v97.768H.504z"/><path d="M.573 4.367l29.114 49.641a7.99 7.99 0 0 0 5.179 3.763l70.873 15.56L104.69.888.573 4.367z" id="c"/></defs><g fill="none" fill-rule="evenodd"><path stroke="#212121" stroke-width=".879" fill="#FFF" d="M94.014 59.457h153.808v97.907H94.014z"/><g transform="translate(93.033 58.766)"><mask id="b" fill="#fff"><use xlink:href="#a"/></mask><path stroke="#212121" stroke-width=".879" d="M.943.636h153.884v96.889H.943z"/><g mask="url(#b)"><g transform="translate(59.825 -8.49)"><mask id="d" fill="#fff"><use xlink:href="#c"/></mask><use stroke="#212121" fill="#FFF" xlink:href="#c"/><g stroke="#212121" stroke-width=".879" mask="url(#d)"><path d="M-21.56 29.851h245.766M85.021-23.143v166.634M180.547-23.143v166.634M95.635-23.143v166.634M191.16-23.143v166.634M106.25-23.143v166.634M201.774-23.143v166.634M116.863-23.143v166.634M212.388-23.143v166.634M127.477-23.143v166.634M223.002-23.143v166.634M138.091-23.143v166.634M74.407-23.143v166.634M169.933-23.143v166.634M63.794-23.143v166.634M159.319-23.143v166.634M53.18-23.143v166.634M148.705-23.143v166.634M42.566-23.523V143.11M31.952-23.523V143.11M21.338-23.523V143.11M10.724-23.523V143.11M.11-23.523V143.11M-10.504-23.523V143.11M-21.118-23.523V143.11M-21.56 19.258h245.766M-21.56 8.664h245.766M-21.56-1.93h245.766M-21.56-12.523h245.766M-21.56-23.116h245.766M-21.56 40.445h245.766M-21.56 51.038h245.766M-21.56 61.632h245.766M-21.56 72.225h245.766M-21.56 82.819h245.766M-21.56 93.412h245.766M-21.56 104.006h245.766M-21.56 114.6h245.766M-21.56 125.193h245.766M-21.56 135.787h245.766"/></g></g></g><path stroke="#212121" mask="url(#b)" d="M1.004.697h153.763v96.768H1.004z"/></g><path stroke="#212121" fill="#FFF" d="M196.906 156.206h50.855v5.392h-50.855z"/><path stroke="#212121" fill="#FFF" d="M64.7 156.206h150.737v5.392H64.7z"/><path d="M115.263 102.208h39.974M115.263 110.775h39.974" stroke="#212121"/><path stroke="#212121" fill="#FF80C3" d="M115.763 119.045h24.705v7.325h-24.705z"/><circle stroke="#212121" fill="#C50F62" cx="184.853" cy="79.873" r="2.397"/><circle stroke="#212121" fill="#FF80C3" cx="226.849" cy="69.114" r="2.397"/><circle stroke="#212121" fill="#FF1776" cx="205.914" cy="79.873" r="2.397"/><circle stroke="#212121" fill="#C50F62" cx="226.849" cy="91.636" r="2.397"/><g stroke="#212121"><path d="M201.99 101.158a10.363 10.363 0 0 0-2.41-.282c-5.704 0-10.328 4.624-10.328 10.33 0 5.704 4.624 10.328 10.329 10.328.821 0 1.628-.096 2.409-.282-5.324-.26-9.562-4.658-9.562-10.047s4.238-9.788 9.562-10.047z" stroke-width=".791" fill="#212121"/><path d="M223.009 125.996l-8.093-6.79.172-.352a17.228 17.228 0 0 0 1.748-7.588c0-9.555-7.746-17.3-17.301-17.3-9.555 0-17.301 7.745-17.301 17.3s7.746 17.301 17.3 17.301a17.22 17.22 0 0 0 10.532-3.573l.319-.245 8.022 6.731c.126.106.315.09.421-.037l4.218-5.026a.299.299 0 0 0-.037-.421zm-23.474-4.515c-5.642 0-10.215-4.573-10.215-10.215 0-5.642 4.573-10.215 10.215-10.215 5.641 0 10.215 4.573 10.215 10.215 0 5.642-4.574 10.215-10.215 10.215z" fill="#FF1776"/></g><circle stroke="#212121" fill="#FF1744" cx="101.56" cy="66.55" r="1.734"/><circle stroke="#212121" fill="#C51062" cx="108.795" cy="66.55" r="1.734"/><circle stroke="#212121" fill="#FF80AB" cx="116.029" cy="66.55" r="1.734"/></g></svg>