<svg xmlns="http://www.w3.org/2000/svg" xmlns:xlink="http://www.w3.org/1999/xlink" width="96" height="96" version="1.1" viewBox="0 0 96 96"><title>24 E-commerce on the web</title><desc>Created with Sketch.</desc><defs><polygon id="path-1" points="0 0 49.333 0 41.111 24.667 8.222 24.667"/></defs><g id="24-E-commerce-on-the-web" fill="none" fill-rule="evenodd" stroke="none" stroke-width="1"><g id="Group-2"><g id="Group-2-Copy" transform="translate(14.000000, 11.000000)"><g id="ic_shopping_cart_black_48dp" transform="translate(0.000000, 8.222222)"><polygon id="Path" points="1.644 0 67.422 0 67.422 65.778 1.644 65.778"/><path id="Path-2" stroke="#212324" stroke-width="3" d="M25.7777507,23.8444444 L16.9390464,39.9709601 C16.1427141,41.4238953 16.674996,43.247287 18.1279313,44.0436192 C18.5699134,44.2858631 19.0658043,44.4128472 19.5698184,44.4128472 L54.4111979,44.4128472"/><path id="Rectangle" fill="#F8F9FA" stroke="#212324" d="M10.5603796,12.0111111 L18.4492685,35.6777778 L50.6173982,35.6777778 L58.5062871,12.0111111 L10.5603796,12.0111111 Z"/><g id="Group" transform="translate(9.866667, 11.511111)"><mask id="mask-2" fill="#fff"><use xlink:href="#path-1"/></mask><use id="Rectangle" fill="#FFF" fill-opacity="0" xlink:href="#path-1"/><path id="Line" stroke="#212324" stroke-linecap="square" d="M-2.87777778,8.63333333 L54.7797526,8.63333333" mask="url(#mask-2)"/><path id="Line" stroke="#212324" stroke-linecap="square" d="M-2.87777778,16.0333333 L54.7797526,16.0333333" mask="url(#mask-2)"/><path id="Line-2" stroke="#212324" stroke-linecap="square" d="M13.5666667,-6.16666667 L13.5666667,30.119911" mask="url(#mask-2)"/><path id="Line-2" stroke="#212324" stroke-linecap="square" d="M21.7888889,-6.16666667 L21.7888889,30.119911" mask="url(#mask-2)"/><path id="Line-2" stroke="#212324" stroke-linecap="square" d="M30.0111111,-6.16666667 L30.0111111,30.119911" mask="url(#mask-2)"/><path id="Line-2" stroke="#212324" stroke-linecap="square" d="M38.2333333,-6.16666667 L38.2333333,30.119911" mask="url(#mask-2)"/></g><path id="Path-3" stroke="#212324" stroke-width="3" d="M19.1577778,36.1777778 L8.30976449,3.51546668 C7.76657927,1.87998891 6.23698066,0.776253255 4.51365895,0.776253255 L0.277620044,0.776253255"/><path id="Combined-Shape" fill="#3FC4FF" stroke="#212324" d="M18.8430396,48.1888889 C14.5733813,48.1888889 11.1414245,51.6360807 11.1414245,55.9111111 C11.1414245,60.1861415 14.5733813,63.6333333 18.8430396,63.6333333 C23.1213402,63.6333333 26.5858689,60.177466 26.5858689,55.9111111 C26.5858689,51.6447563 23.1213402,48.1888889 18.8430396,48.1888889 Z M18.8512822,50.4777778 C21.8596427,50.4777778 24.2969798,52.9090215 24.2969798,55.9111111 C24.2969798,58.9132007 21.8596427,61.3444444 18.8512822,61.3444444 C15.8468643,61.3444444 13.4303131,58.9171659 13.4303131,55.9111111 C13.4303131,52.9050563 15.8468643,50.4777778 18.8512822,50.4777778 Z"/><path id="Combined-Shape" fill="#3FC4FF" stroke="#212324" d="M49.4147566,48.1888889 C45.1450984,48.1888889 41.7131415,51.6360807 41.7131415,55.9111111 C41.7131415,60.1861415 45.1450984,63.6333333 49.4147566,63.6333333 C53.6930572,63.6333333 57.1575859,60.177466 57.1575859,55.9111111 C57.1575859,51.6447563 53.6930572,48.1888889 49.4147566,48.1888889 Z M49.4229994,50.4777778 C52.4313599,50.4777778 54.868697,52.9090215 54.868697,55.9111111 C54.868697,58.9132007 52.4313599,61.3444444 49.4229994,61.3444444 C46.4185815,61.3444444 44.0020303,58.9171659 44.0020303,55.9111111 C44.0020303,52.9050563 46.4185815,50.4777778 49.4229994,50.4777778 Z"/></g><g id="ic_loyalty_black_48dp" transform="translate(35.355556, 0.000000)"><polygon id="Path" points="0 0 39.467 0 39.467 39.467 0 39.467"/><path id="Shape" fill="#FFF" stroke="#212324" d="M34.8540022,19.3962201 L20.0622244,4.60444228 C19.5438084,4.08602626 18.8413169,3.78888889 18.0888889,3.78888889 L6.57777778,3.78888889 C5.03680904,3.78888889 3.78888889,5.03680904 3.78888889,6.57777778 L3.78888889,18.0888889 C3.78888889,18.843033 4.08717706,19.5439187 4.6126645,20.0622244 L19.4126645,34.8622244 C19.9304418,35.3800017 20.6326052,35.6777778 21.3777778,35.6777778 C22.1302058,35.6777778 22.8326973,35.3806404 23.3511133,34.8622244 L34.8597946,23.3535599 C35.3803031,22.8258221 35.6777778,22.1225332 35.6777778,21.3777778 C35.6777778,20.6240393 35.3797727,19.9219906 34.8540022,19.3962201 Z M9.04444444,12.0111111 C7.40341318,12.0111111 6.07777778,10.6854757 6.07777778,9.04444444 C6.07777778,7.40341318 7.40341318,6.07777778 9.04444444,6.07777778 C10.6854757,6.07777778 12.0111111,7.40341318 12.0111111,9.04444444 C12.0111111,10.6854757 10.6854757,12.0111111 9.04444444,12.0111111 Z"/><path id="Path" fill="#3740FF" fill-rule="nonzero" d="M28.3995556,25.1106667 L21.3777778,32.1324444 L14.356,25.1106667 C13.616,24.3624444 13.1555556,23.3346667 13.1555556,22.2 C13.1555556,19.9306667 14.9973333,18.0888889 17.2666667,18.0888889 C18.4013333,18.0888889 19.4373333,18.5493333 20.1773333,19.2975556 L21.3777778,20.498 L22.5782222,19.2975556 C23.3264444,18.5493333 24.3542222,18.0888889 25.4888889,18.0888889 C27.7582222,18.0888889 29.6,19.9306667 29.6,22.2 C29.6,23.3346667 29.1395556,24.3624444 28.3995556,25.1106667 Z"/></g></g><rect id="Rectangle" width="96" height="96" x="0" y="0"/></g></g></svg>