<svg xmlns="http://www.w3.org/2000/svg" xmlns:xlink="http://www.w3.org/1999/xlink" viewBox="0 0 330 220"><style>.st0{fill-rule:evenodd;clip-rule:evenodd;fill:#fff}.st1{fill:none;stroke:#212121;stroke-linejoin:round}.st2{fill-rule:evenodd;clip-rule:evenodd;fill:#2175ff}.st3{fill:none;stroke:#212121}.st4{fill-rule:evenodd;clip-rule:evenodd}.st4,.st6{fill:#35c2ff}.st7{fill:#212121}.st9{clip-path:url(#SVGID_2_)}.st10{fill:#eb7bff}.st11{fill:#a23eff}.st12{fill:#fff}.st13{fill:none;stroke:#000;stroke-linecap:round;stroke-linejoin:round;stroke-miterlimit:10}</style><path class="st0" d="M186.9 77.6h42.4v46.1h-42.4z"/><path class="st1" d="M186.9 77.6h42.4v46.1h-42.4z"/><path class="st2" d="M220.9 112.1l-11.4-19.9-7.5 12.2-4.7-5.5-8.4 13.2z"/><path class="st3" d="M220.9 112.1l-11.4-19.9-7.5 12.2-4.7-5.5-8.4 13.2z"/><path class="st3" d="M195.4 68.7h25.5c4.7 0 8.5 3.8 8.5 8.5V161c0 4.7-3.8 8.5-8.5 8.5h-25.5c-4.7 0-8.5-3.8-8.5-8.5V77.2c0-4.7 3.8-8.5 8.5-8.5z"/><path class="st4" d="M186.9 156.5v4.9c0 4.4 3.6 8 8 8h26.4c4.4 0 8-3.6 8-8v-38.6h-42.4v33.7zm0-79.8c0-4.4 3.6-8 8-8h26.4c4.4 0 8 3.6 8 8V80h-42.4v-3.3z"/><path class="st3" d="M186.9 156.5v4.9c0 4.4 3.6 8 8 8h26.4c4.4 0 8-3.6 8-8v-38.6h-42.4v33.7zm0-79.8c0-4.4 3.6-8 8-8h26.4c4.4 0 8 3.6 8 8V80h-42.4v-3.3z"/><path class="st0" d="M189.6 131.3h8.4v5.1h-8.4z"/><path class="st1" d="M189.6 131.3h8.4v5.1h-8.4z"/><path class="st0" d="M202.5 131.3h8.4v5.1h-8.4z"/><path class="st1" d="M202.5 131.3h8.4v5.1h-8.4z"/><path class="st0" d="M215.4 131.3h8.4v5.1h-8.4z"/><path class="st1" d="M215.4 131.3h8.4v5.1h-8.4z"/><path class="st0" d="M189.6 143.1h8.4v5.1h-8.4z"/><path class="st1" d="M189.6 143.1h8.4v5.1h-8.4z"/><path class="st0" d="M202.5 143.1h8.4v5.1h-8.4z"/><path class="st1" d="M202.5 143.1h8.4v5.1h-8.4z"/><path class="st0" d="M215.4 143.1h8.4v5.1h-8.4z"/><path class="st1" d="M215.4 143.1h8.4v5.1h-8.4z"/><path class="st0" d="M189.6 154.9h8.4v5.1h-8.4z"/><path class="st1" d="M189.6 154.9h8.4v5.1h-8.4z"/><path class="st0" d="M202.5 154.9h8.4v5.1h-8.4z"/><path class="st1" d="M202.5 154.9h8.4v5.1h-8.4z"/><path class="st0" d="M215.4 154.9h8.4v5.1h-8.4z"/><path class="st1" d="M215.4 154.9h8.4v5.1h-8.4z"/><path class="st0" d="M143.1 123.7h-42.4V77.6h42.4v46.1"/><path class="st1" d="M100.7 77.6h42.4v46.1h-42.4z"/><path d="M100.7 156.5v4.9c0 4.4 3.6 8 8 8h26.4c4.4 0 8-3.6 8-8v-38.6h-42.4v33.7zm0-79.8c0-4.4 3.6-8 8-8h26.4c4.4 0 8 3.6 8 8V80h-42.4v-3.3z" fill-rule="evenodd" clip-rule="evenodd" fill="#eb7bff"/><path class="st3" d="M100.7 156.5v4.9c0 4.4 3.6 8 8 8h26.4c4.4 0 8-3.6 8-8v-38.6h-42.4v33.7zm0-79.8c0-4.4 3.6-8 8-8h26.4c4.4 0 8 3.6 8 8V80h-42.4v-3.3z"/><path class="st0" d="M106.2 131.3h8.4v5.1h-8.4z"/><path class="st1" d="M106.2 131.3h8.4v5.1h-8.4z"/><path class="st0" d="M119.2 131.3h8.4v5.1h-8.4z"/><path class="st1" d="M119.2 131.3h8.4v5.1h-8.4z"/><path class="st0" d="M132.1 131.3h8.4v5.1h-8.4z"/><path class="st1" d="M132.1 131.3h8.4v5.1h-8.4z"/><path class="st0" d="M106.2 143.1h8.4v5.1h-8.4z"/><path class="st1" d="M106.2 143.1h8.4v5.1h-8.4z"/><path class="st0" d="M119.2 143.1h8.4v5.1h-8.4z"/><path class="st1" d="M119.2 143.1h8.4v5.1h-8.4z"/><path class="st0" d="M132.1 143.1h8.4v5.1h-8.4z"/><path class="st1" d="M132.1 143.1h8.4v5.1h-8.4z"/><path class="st0" d="M106.2 154.9h8.4v5.1h-8.4z"/><path class="st1" d="M106.2 154.9h8.4v5.1h-8.4z"/><path class="st0" d="M119.2 154.9h8.4v5.1h-8.4z"/><path class="st1" d="M119.2 154.9h8.4v5.1h-8.4z"/><path class="st0" d="M132.1 154.9h8.4v5.1h-8.4z"/><path class="st1" d="M132.1 154.9h8.4v5.1h-8.4z"/><path class="st6" d="M108.4 87.2c-1.3 0-2.3 1-2.3 2.3 0 1.3 1 2.3 2.3 2.3 1.3 0 2.3-1 2.3-2.3 0-1.3-1-2.3-2.3-2.3"/><path class="st7" d="M108.4 91.7c-1.3 0-2.3-1-2.3-2.3 0-1.3 1-2.3 2.3-2.3 1.3 0 2.3 1 2.3 2.3 0 1.3-1 2.3-2.3 2.3m.1-5.5c-1.8 0-3.3 1.5-3.3 3.3 0 1.8 1.5 3.3 3.3 3.3 1.8 0 3.3-1.5 3.3-3.3-.1-1.8-1.5-3.3-3.3-3.3"/><path class="st4" d="M114.6 89.5H132"/><path class="st3" d="M114.6 89.5H132"/><path class="st6" d="M108.4 99.4c-1.3 0-2.3 1-2.3 2.3 0 1.3 1 2.3 2.3 2.3 1.3 0 2.3-1 2.3-2.3 0-1.3-1-2.3-2.3-2.3"/><path class="st7" d="M108.4 103.9c-1.3 0-2.3-1-2.3-2.3 0-1.3 1-2.3 2.3-2.3 1.3 0 2.3 1 2.3 2.3 0 1.3-1 2.3-2.3 2.3m.1-5.5c-1.9 0-3.3 1.5-3.3 3.3 0 1.8 1.4 3.3 3.2 3.3h.1c1.8 0 3.2-1.5 3.2-3.3 0-1.8-1.4-3.3-3.2-3.3"/><path class="st4" d="M114.6 101.7H132"/><path class="st3" d="M114.6 101.7H132"/><path class="st6" d="M108.4 111.6c-1.3 0-2.3 1-2.3 2.3 0 1.3 1 2.3 2.3 2.3 1.3 0 2.3-1 2.3-2.3 0-1.3-1-2.3-2.3-2.3"/><path class="st7" d="M108.4 116.1c-1.3 0-2.3-1-2.3-2.3 0-1.3 1-2.3 2.3-2.3 1.3 0 2.3 1 2.3 2.3 0 1.3-1 2.3-2.3 2.3m0-5.5c-1.8 0-3.3 1.5-3.3 3.3 0 1.8 1.4 3.3 3.2 3.3h.1c1.8 0 3.2-1.5 3.2-3.3.1-1.9-1.4-3.3-3.2-3.3"/><path class="st4" d="M114.6 113.8H132"/><path class="st3" d="M114.6 113.8H132"/><path class="st0" d="M192.7 116h-55.4V55.8h55.4V116"/><path class="st1" d="M137.3 55.8h55.4V116h-55.4z"/><defs><path id="SVGID_1_" d="M192.7 121.4h-55.4V59h55.4v62.4"/></defs><clipPath id="SVGID_2_"><use xlink:href="#SVGID_1_" overflow="visible"/></clipPath><path d="M137.3 73.9h55.4v-.8h-55.4v.8m13.3-18.1v65.6h.9V55.8h-.9m13.9 0v65.6h.8V55.8h-.8m13.9 0v65.6h.8V55.8h-.8m-41.1 32h55.4V87h-55.4v.8m0 13.8h55.4v-.8h-55.4v.8" clip-path="url(#SVGID_2_)" fill="#212121"/><g class="st9"><path class="st10" d="M178.4 73.9h-2.7c.2 1.4 1.3 2.5 2.7 2.7v-2.7m3.5 0h-2.7v2.7c1.4-.2 2.5-1.3 2.7-2.7m-2.7-3.5v2.7h2.7c-.2-1.4-1.3-2.5-2.7-2.7m-.8 0c-1.4.2-2.5 1.3-2.7 2.7h2.7v-2.7"/><path class="st10" d="M178.8 70.4h-.4v2.7h-2.7v.8h2.7v2.7h.8v-2.7h2.7v-.8h-2.7v-2.7h-.4"/><path class="st7" d="M175.7 73.9h-1c.2 1.9 1.7 3.5 3.7 3.7v-1c-1.4-.2-2.5-1.3-2.7-2.7m7.2 0h-1c-.2 1.4-1.3 2.5-2.7 2.7v1c2-.2 3.5-1.7 3.7-3.7m-3.7-4.5v1c1.4.2 2.5 1.3 2.7 2.7h1c-.2-1.9-1.7-3.5-3.7-3.7m-.8 0c-1.9.2-3.5 1.7-3.7 3.7h1c.2-1.4 1.3-2.5 2.7-2.7v-1"/><path class="st7" d="M179.2 76.6h-.8v1h.8v-1m-3.5-3.5h-1v.9h1v-.9m7.2 0h-1v.8h1v-.8m-4.1-3.7h-.4v1h.8v-1h-.4"/></g><g class="st9"><path class="st6" d="M150.6 87.8H148c.2 1.4 1.3 2.5 2.7 2.7v-2.7m3.4 0h-2.7v2.7c1.5-.2 2.6-1.3 2.7-2.7m-2.6-3.5V87h2.7c-.2-1.4-1.3-2.5-2.7-2.7m-.9 0c-1.4.2-2.5 1.3-2.7 2.7h2.7v-2.7"/><path class="st6" d="M151.1 84.2h-.4v2.7H148v.8h2.7v2.7h.8v-2.7h2.7v-.8h-2.7v-2.7c-.2.1-.3 0-.4 0"/><path class="st7" d="M148 87.8h-1c.2 1.9 1.7 3.5 3.7 3.7v-1c-1.5-.2-2.5-1.3-2.7-2.7m7.2 0h-1c-.2 1.4-1.3 2.5-2.7 2.7v1c1.9-.2 3.5-1.8 3.7-3.7m-3.7-4.5v1c1.4.2 2.5 1.3 2.7 2.7h1c-.2-2-1.8-3.5-3.7-3.7m-.9 0c-1.9.2-3.5 1.7-3.7 3.7h1c.2-1.4 1.3-2.5 2.7-2.7v-1"/><path class="st7" d="M151.5 90.5h-.8v1h.8v-1m-3.5-3.6h-1v.8h1v-.4c-.1-.1-.1-.2 0-.4m7.2 0h-1v.8h1v-.8m-4.1-3.7h-.5v1h.8v-1h-.3"/></g><g class="st9"><path class="st11" d="M164.5 101.6h-2.7c.2 1.4 1.3 2.5 2.7 2.7v-2.7m3.5 0h-2.7v2.7c1.4-.2 2.5-1.3 2.7-2.7m-3.5-3.5c-1.4.2-2.5 1.3-2.7 2.7h2.7v-2.7m.9 0v2.7h2.7c-.3-1.4-1.4-2.5-2.7-2.7"/><path class="st11" d="M164.9 98.1h-.4v2.7h-2.7v.8h2.7v2.7h.8v-2.7h2.7v-.8h-2.7v-2.7h-.4"/><path class="st7" d="M161.8 101.6h-1c.2 1.9 1.7 3.5 3.7 3.7v-1c-1.4-.2-2.5-1.3-2.7-2.7m7.2 0h-1c-.2 1.4-1.3 2.5-2.7 2.7v1c2-.2 3.5-1.7 3.7-3.7m-4.5-4.5c-1.9.2-3.5 1.7-3.7 3.7h1c.2-1.4 1.3-2.5 2.7-2.7v-1m.9 0v1c1.4.2 2.5 1.3 2.7 2.7h1c-.3-2-1.8-3.5-3.7-3.7"/><path class="st7" d="M164.5 104.3v1h.8v-1h-.8m-2.7-3.5h-1v.9h1v-.9m7.2 0h-1v.8h1v-.8m-4.1-3.7h-.4v1h.8v-1h-.4"/></g><path class="st2" d="M137.3 158.9v6.5c0 5.8 4.7 10.5 10.5 10.5h34.4c5.8 0 10.5-4.7 10.5-10.5v-50.5h-55.4v44zm0-104.2c0-5.8 4.7-10.5 10.5-10.5h34.4c5.8 0 10.5 4.7 10.5 10.5V59h-55.4v-4.3z"/><path class="st3" d="M137.3 158.9v6.5c0 5.8 4.7 10.5 10.5 10.5h34.4c5.8 0 10.5-4.7 10.5-10.5v-50.5h-55.4v44zm0-104.2c0-5.8 4.7-10.5 10.5-10.5h34.4c5.8 0 10.5 4.7 10.5 10.5V59h-55.4v-4.3z"/><path class="st12" d="M144.1 122.7h15.4v5.4h-15.4z"/><path class="st13" d="M144.1 122.7h15.4v5.4h-15.4z"/><path class="st12" d="M170.2 128.1v-5.4h15.4v5.4z"/><path class="st13" d="M170.2 128.1v-5.4h15.4v5.4z"/><path class="st0" d="M144.1 135.2h11v5.4h-11z"/><path class="st1" d="M144.1 135.2h11v5.4h-11z"/><path class="st0" d="M159.4 135.2h11v5.4h-11z"/><path class="st1" d="M159.4 135.2h11v5.4h-11z"/><path class="st0" d="M174.6 135.2h11v5.4h-11z"/><path class="st1" d="M174.6 135.2h11v5.4h-11z"/><path class="st0" d="M144.1 147.8h11v5.4h-11z"/><path class="st1" d="M144.1 147.8h11v5.4h-11z"/><path class="st0" d="M159.4 147.8h11v5.4h-11z"/><path class="st1" d="M159.4 147.8h11v5.4h-11z"/><path class="st0" d="M174.6 147.8h11v5.4h-11z"/><path class="st1" d="M174.6 147.8h11v5.4h-11z"/><path class="st0" d="M144.1 160.4h11v5.4h-11z"/><path class="st1" d="M144.1 160.4h11v5.4h-11z"/><path class="st0" d="M159.4 160.4h11v5.4h-11z"/><path class="st1" d="M159.4 160.4h11v5.4h-11z"/><path class="st0" d="M174.6 160.4h11v5.4h-11z"/><path class="st1" d="M174.6 160.4h11v5.4h-11z"/></svg>