<svg xmlns="http://www.w3.org/2000/svg" xmlns:xlink="http://www.w3.org/1999/xlink" width="192" height="192" version="1.1" viewBox="0 0 192 192"><title>30 Get Started: build your first interactive web application</title><desc>Created with Sketch.</desc><g id="30-Get-Started:-build-your-first-interactive-web-application" fill="none" fill-rule="evenodd" stroke="none" stroke-width="1"><rect width="192" height="192" x="0" y="0" fill="#FFF"/><g id="Group" stroke="#212121" transform="translate(16.000000, 13.000000)"><ellipse id="Oval-Copy" cx="80" cy="83" rx="80" ry="26"/><ellipse id="Oval-Copy" cx="80" cy="83" rx="80" ry="26" transform="translate(80.000000, 83.000000) rotate(120.000000) translate(-80.000000, -83.000000)"/><ellipse id="Oval-Copy" cx="80" cy="83" rx="80" ry="26" transform="translate(80.000000, 83.000000) rotate(60.000000) translate(-80.000000, -83.000000)"/></g><g id="Group-8" transform="translate(22.000000, 70.000000)"><path id="Rectangle" fill="#FFEE43" stroke="#212121" d="M10,0.5 C4.75329488,0.5 0.5,4.75329488 0.5,10 C0.5,15.2467051 4.75329488,19.5 10,19.5 C15.2467051,19.5 19.5,15.2467051 19.5,10 C19.5,4.75329488 15.2467051,0.5 10,0.5 Z"/><path id="Line-4" stroke="#000" stroke-linecap="square" d="M10,6 L10,14"/><path id="Line-4-Copy" stroke="#000" stroke-linecap="square" d="M10,6 L10,14" transform="translate(10.000000, 10.000000) rotate(-90.000000) translate(-10.000000, -10.000000)"/></g><g id="Group-9" transform="translate(40.000000, 132.000000)"><path id="Rectangle" fill="#FFB63D" stroke="#212121" d="M10,0.5 C4.75329488,0.5 0.5,4.75329488 0.5,10 C0.5,15.2467051 4.75329488,19.5 10,19.5 C15.2467051,19.5 19.5,15.2467051 19.5,10 C19.5,4.75329488 15.2467051,0.5 10,0.5 Z"/><g id="ic_create_black_24dp" transform="translate(4.000000, 4.000000)"><path id="Shape" fill-rule="nonzero" stroke="#000" d="M2,8.83210678 L2,10 L3.16789322,10 L8.19789322,4.97 L7.03,3.80210678 L2,8.83210678 Z M10.0003932,3.1675 L8.8325,1.99960678 L8.27210678,2.56 L9.44,3.72789322 L10.0003932,3.1675 Z"/><polygon id="Path" points="0 0 12 0 12 12 0 12"/></g></g><g id="Group-2" transform="translate(132.000000, 32.000000)"><path id="Rectangle" fill="#FFB63D" stroke="#212121" d="M10,0.5 C4.75329488,0.5 0.5,4.75329488 0.5,10 C0.5,15.2467051 4.75329488,19.5 10,19.5 C15.2467051,19.5 19.5,15.2467051 19.5,10 C19.5,4.75329488 15.2467051,0.5 10,0.5 Z"/><g id="ic_play_arrow_black_24dp-(1)" transform="translate(4.000000, 4.000000)"><polygon id="Path" fill-rule="nonzero" stroke="#000" points="4 2.5 4 9.5 9.5 6"/><polygon id="Path" points="0 0 12 0 12 12 0 12"/></g></g><g id="Group-5" transform="translate(152.000000, 101.000000)"><g id="Group-2-Copy" fill="#FFEE43" stroke="#212121" transform="translate(-0.000000, 0.000000)"><path id="Rectangle" d="M10,0.5 C4.75329488,0.5 0.5,4.75329488 0.5,10 C0.5,15.2467051 4.75329488,19.5 10,19.5 C15.2467051,19.5 19.5,15.2467051 19.5,10 C19.5,4.75329488 15.2467051,0.5 10,0.5 Z"/></g><g id="ic_sms_black_24dp" transform="translate(4.000000, 5.000000)"><path id="Path" fill-rule="nonzero" stroke="#000" d="M9.2,1 L2.8,1 C2.36,1 2.004,1.36 2.004,1.8 L2,9 L3.6,7.4 L9.2,7.4 C9.64,7.4 10,7.04 10,6.6 L10,1.8 C10,1.36 9.64,1 9.2,1 Z"/><polygon id="Path" points="0 0 12 0 12 12 0 12"/></g></g><g id="Group-6" stroke="#212121" transform="translate(66.000000, 38.000000)"><g id="Group-4-Copy-3" fill="#FFF" fill-rule="nonzero" transform="translate(0.000000, 15.000000)"><polygon id="Rectangle-12" points="0 0 60 0 60 86 0 86"/></g><path id="Path" fill="#FF5915" fill-rule="nonzero" d="M0,101 L0,106.716783 C1.50114662e-14,111.843762 4.185507,116 9.34859155,116 L50.6514085,116 C55.814493,116 60,111.843762 60,106.716783 L60,101 L0,101 Z"/><path id="Path" fill="#FF5915" fill-rule="nonzero" d="M0,15 L0,9.28321678 C1.50114662e-14,4.15623772 4.185507,0 9.34859155,0 L50.6514085,0 C55.814493,0 60,4.15623772 60,9.28321678 L60,15 L0,15 Z"/><path id="Path" d="M24,8.01968504 L36.3685039,8.01968504"/></g><g id="Group-10" transform="translate(72.000000, 80.000000)"><g id="Group-7"><rect id="Rectangle" width="48" height="52" x="0" y="0" fill="#F5F5F5"/><g id="Group-3" fill-rule="nonzero" transform="translate(6.000000, 8.000000)"><g id="Group-4"><circle id="Oval-7" cx="12" cy="12" r="12" fill="#FFB63D"/><circle id="Oval-7" cx="24" cy="24" r="11.5" stroke="#212121"/></g></g></g></g><circle id="Oval" cx="96.5" cy="64.5" r="4" fill="#FFB63D" stroke="#212121"/><path id="Path" stroke="#212121" d="M89,71.5 L105,71.5"/><path id="stars" fill="#FFEE43" d="M29,32 C27.3431458,32 26,30.6568542 26,29 C26,27.3431458 27.3431458,26 29,26 C30.6568542,26 32,27.3431458 32,29 C32,30.6568542 30.6568542,32 29,32 Z M171,156 C169.895431,156 169,155.104569 169,154 C169,152.895431 169.895431,152 171,152 C172.104569,152 173,152.895431 173,154 C173,155.104569 172.104569,156 171,156 Z M19,152 C17.8954305,152 17,151.104569 17,150 C17,148.895431 17.8954305,148 19,148 C20.1045695,148 21,148.895431 21,150 C21,151.104569 20.1045695,152 19,152 Z M79,184 C77.3431458,184 76,182.656854 76,181 C76,179.343146 77.3431458,178 79,178 C80.6568542,178 82,179.343146 82,181 C82,182.656854 80.6568542,184 79,184 Z M152,176 C150.895431,176 150,175.104569 150,174 C150,172.895431 150.895431,172 152,172 C153.104569,172 154,172.895431 154,174 C154,175.104569 153.104569,176 152,176 Z M90,13 C88.8954305,13 88,12.1045695 88,11 C88,9.8954305 88.8954305,9 90,9 C91.1045695,9 92,9.8954305 92,11 C92,12.1045695 91.1045695,13 90,13 Z M179,65 C177.343146,65 176,63.6568542 176,62 C176,60.3431458 177.343146,59 179,59 C180.656854,59 182,60.3431458 182,62 C182,63.6568542 180.656854,65 179,65 Z M171,28 C169.895431,28 169,27.1045695 169,26 C169,24.8954305 169.895431,24 171,24 C172.104569,24 173,24.8954305 173,26 C173,27.1045695 172.104569,28 171,28 Z"/></g></svg>