<svg xmlns="http://www.w3.org/2000/svg" xmlns:xlink="http://www.w3.org/1999/xlink" id="Layer_1" x="0" y="0" version="1.1" viewBox="0 0 330 220" xml:space="preserve" style="enable-background:new 0 0 330 220"><g><path d="M165,170.3c-0.5,0-1-0.1-1.5-0.4l-13.9-8.3H92c-1.6,0-2.9-1.3-2.9-2.9V41.9c0-1.6,1.3-2.9,2.9-2.9h58.4 c9.7,0,17.5,7.9,17.5,17.5v110.9c0,1.1-0.6,2-1.5,2.5C166,170.2,165.5,170.3,165,170.3z M95,155.7h55.4c0.5,0,1,0.1,1.5,0.4 l10.2,6.1V56.5c0-6.4-5.2-11.7-11.7-11.7H95V155.7z"/><path d="M165,182c-0.5,0-1-0.1-1.5-0.4l-13.9-8.3H80.4c-1.6,0-2.9-1.3-2.9-2.9V53.6c0-1.6,1.3-2.9,2.9-2.9H92 c1.6,0,2.9,1.3,2.9,2.9v102.1h55.4c0.5,0,1,0.1,1.5,0.4L165,164l13.1-7.9c0.5-0.3,1-0.4,1.5-0.4H235V53.6c0-1.6,1.3-2.9,2.9-2.9 h11.7c1.6,0,2.9,1.3,2.9,2.9v116.7c0,1.6-1.3,2.9-2.9,2.9h-69.2l-13.9,8.3C166,181.9,165.5,182,165,182z M83.3,167.4h67.1 c0.5,0,1,0.1,1.5,0.4l13.1,7.9l13.1-7.9c0.5-0.3,1-0.4,1.5-0.4h67.1V56.5h-5.8v102.1c0,1.6-1.3,2.9-2.9,2.9h-57.6l-13.9,8.3 c-0.9,0.6-2.1,0.6-3,0l-13.9-8.3H92c-1.6,0-2.9-1.3-2.9-2.9V56.5h-5.8V167.4z"/><path d="M165,170.3c-0.5,0-1-0.1-1.4-0.4c-0.9-0.5-1.5-1.5-1.5-2.5V56.5c0-9.7,7.9-17.5,17.5-17.5H238c1.6,0,2.9,1.3,2.9,2.9v116.7 c0,1.6-1.3,2.9-2.9,2.9h-57.6l-13.9,8.3C166,170.2,165.5,170.3,165,170.3z M179.6,44.8c-6.4,0-11.7,5.2-11.7,11.7v105.7l10.2-6.1 c0.5-0.3,1-0.4,1.5-0.4H235V44.8H179.6z"/><path d="M153.3,138.2h-5.8c-1.6,0-2.9-1.3-2.9-2.9s1.3-2.9,2.9-2.9h5.8c1.6,0,2.9,1.3,2.9,2.9S154.9,138.2,153.3,138.2z"/><path d="M135.8,138.2h-32.1c-1.6,0-2.9-1.3-2.9-2.9s1.3-2.9,2.9-2.9h32.1c1.6,0,2.9,1.3,2.9,2.9S137.4,138.2,135.8,138.2z"/><path d="M109.6,149.9h-5.8c-1.6,0-2.9-1.3-2.9-2.9c0-1.6,1.3-2.9,2.9-2.9h5.8c1.6,0,2.9,1.3,2.9,2.9 C112.5,148.6,111.2,149.9,109.6,149.9z"/><path d="M153.3,149.9h-32.1c-1.6,0-2.9-1.3-2.9-2.9c0-1.6,1.3-2.9,2.9-2.9h32.1c1.6,0,2.9,1.3,2.9,2.9 C156.2,148.6,154.9,149.9,153.3,149.9z"/><path d="M127.1,103.2c-14.5,0-26.3-11.8-26.3-26.3s11.8-26.3,26.3-26.3s26.3,11.8,26.3,26.3S141.5,103.2,127.1,103.2z M127.1,56.5 c-11.3,0-20.4,9.2-20.4,20.4s9.2,20.4,20.4,20.4s20.4-9.2,20.4-20.4S138.3,56.5,127.1,56.5z"/><path d="M153.3,126.6h-49.6c-1.6,0-2.9-1.3-2.9-2.9V112c0-1.6,1.3-2.9,2.9-2.9h49.6c1.6,0,2.9,1.3,2.9,2.9v11.7 C156.2,125.2,154.9,126.6,153.3,126.6z M106.6,120.7h43.8v-5.8h-43.8V120.7z"/><path d="M182.5,71.1h-5.8c-1.6,0-2.9-1.3-2.9-2.9s1.3-2.9,2.9-2.9h5.8c1.6,0,2.9,1.3,2.9,2.9S184.1,71.1,182.5,71.1z"/><path d="M226.3,71.1h-32.1c-1.6,0-2.9-1.3-2.9-2.9s1.3-2.9,2.9-2.9h32.1c1.6,0,2.9,1.3,2.9,2.9S227.9,71.1,226.3,71.1z"/><path d="M226.3,59.4h-5.8c-1.6,0-2.9-1.3-2.9-2.9s1.3-2.9,2.9-2.9h5.8c1.6,0,2.9,1.3,2.9,2.9S227.9,59.4,226.3,59.4z"/><path d="M208.8,59.4h-32.1c-1.6,0-2.9-1.3-2.9-2.9s1.3-2.9,2.9-2.9h32.1c1.6,0,2.9,1.3,2.9,2.9S210.4,59.4,208.8,59.4z"/><path d="M226.3,94.4h-49.6c-1.6,0-2.9-1.3-2.9-2.9V79.9c0-1.6,1.3-2.9,2.9-2.9h49.6c1.6,0,2.9,1.3,2.9,2.9v11.7 C229.2,93.1,227.9,94.4,226.3,94.4z M179.6,88.6h43.8v-5.8h-43.8V88.6z"/><path d="M127.1,103.2c-7.7,0-11.7-13.2-11.7-26.3s4-26.3,11.7-26.3s11.7,13.2,11.7,26.3S134.7,103.2,127.1,103.2z M127.1,56.5 c-1.7,0-5.8,7.2-5.8,20.4s4.1,20.4,5.8,20.4c1.7,0,5.8-7.2,5.8-20.4S128.8,56.5,127.1,56.5z"/><path d="M150.4,79.9h-46.7c-1.6,0-2.9-1.3-2.9-2.9s1.3-2.9,2.9-2.9h46.7c1.6,0,2.9,1.3,2.9,2.9S152,79.9,150.4,79.9z"/><path d="M188.3,141.1c-0.6,0-1.2,0-1.8-0.1c-4.8-0.5-9-3.3-11.2-7.5c-2.1-4.1-2.1-8.9,0.1-12.8l10.4-18.9c1-1.9,4.1-1.9,5.1,0 l10.4,18.9c2.2,4,2.2,8.8,0.1,12.8c-2.2,4.2-6.4,7-11.2,7.5C189.6,141.1,189,141.1,188.3,141.1z M188.3,109.3l-7.8,14.2 c-1.3,2.3-1.3,5,0,7.3c1.3,2.5,3.7,4.1,6.7,4.4c0.8,0.1,1.6,0.1,2.4,0c2.9-0.3,5.4-1.9,6.7-4.4c1.2-2.4,1.2-5,0-7.3L188.3,109.3z"/><path d="M188.3,149.9c-1.6,0-2.9-1.3-2.9-2.9v-17.5c0-1.6,1.3-2.9,2.9-2.9s2.9,1.3,2.9,2.9V147C191.3,148.6,190,149.9,188.3,149.9z"/><path d="M226.3,120.7h-11.7c-1.6,0-2.9-1.3-2.9-2.9v-11.7c0-1.6,1.3-2.9,2.9-2.9h11.7c1.6,0,2.9,1.3,2.9,2.9v11.7 C229.2,119.4,227.9,120.7,226.3,120.7z M217.5,114.9h5.8V109h-5.8V114.9z"/><path d="M226.3,147h-11.7c-1.6,0-2.9-1.3-2.9-2.9v-11.7c0-1.6,1.3-2.9,2.9-2.9h11.7c1.6,0,2.9,1.3,2.9,2.9v11.7 C229.2,145.7,227.9,147,226.3,147z M217.5,141.1h5.8v-5.8h-5.8V141.1z"/></g></svg>