<svg width="330" height="220" fill="none" xmlns="http://www.w3.org/2000/svg"><path d="M45 160.5h240" stroke="#212121" stroke-dasharray="3 3"/><path fill="#fff" stroke="#212121" d="M71 66h188v112H71z"/><path d="M79.5 77a2.5 2.5 0 100-5 2.5 2.5 0 000 5z" fill="#006776" stroke="#212121"/><path d="M89.5 77a2.5 2.5 0 100-5 2.5 2.5 0 000 5z" fill="#00BFA5" stroke="#212121"/><path d="M99.5 77a2.5 2.5 0 100-5 2.5 2.5 0 000 5z" fill="#00E676" stroke="#212121"/><mask id="a" maskUnits="userSpaceOnUse" x="141" y="66" width="118" height="112"><path d="M206.056 178L141.392 66H259v112h-52.944z" fill="#C4C4C4"/></mask><g mask="url(#a)" stroke="#212121"><path d="M122 83h200M122 103h200M122 123h200M122 143h200M122 163h200M142 23v200M162 23v200M182 23v200M202 23v200M222 23v200M242 23v200"/></g><path d="M206.056 178L141.392 66H259v112h-52.944z" stroke="#212121"/><circle cx="202" cy="83" r="4" fill="#006776" stroke="#212121"/><circle cx="202" cy="143" r="4" fill="#00E676" stroke="#212121"/><circle cx="242" cy="163" r="4" fill="#00BFA5" stroke="#212121"/><path fill="#fff" stroke="#212121" d="M45 178h240v8H45zM155 111h80v24h-80z"/><path d="M166.5 123v-5m0 5l4.5-1.5m-4.5 1.5l3 4m-3-4l-3 4m3-4l-4.5-1.5M179.5 123v-5m0 5l4.5-1.5m-4.5 1.5l3 4m-3-4l-3 4m3-4l-4.5-1.5M192.5 123v-5m0 5l4.5-1.5m-4.5 1.5l3 4m-3-4l-3 4m3-4l-4.5-1.5M205.5 123v-5m0 5l4.5-1.5m-4.5 1.5l3 4m-3-4l-3 4m3-4l-4.5-1.5" stroke="#212121"/><path fill-rule="evenodd" clip-rule="evenodd" d="M94.77 136.999a13.476 13.476 0 01-.103-1.666C94.667 127.97 100.636 122 108 122s13.333 5.97 13.333 13.333c0 .564-.035 1.12-.103 1.666A19.924 19.924 0 01108 142a19.926 19.926 0 01-13.23-5.001zM114.667 112a6.667 6.667 0 11-13.334 0 6.667 6.667 0 0113.334 0z" fill="#006776"/><path d="M94.77 136.999l-.496.062.023.188.142.125.33-.375zm26.46 0l.331.375.142-.125.023-.188-.496-.062zm-27.063-1.666c0 .585.036 1.162.106 1.728l.993-.124c-.066-.525-.1-1.06-.1-1.604h-1zM108 121.5c-7.64 0-13.833 6.193-13.833 13.833h1c0-7.087 5.745-12.833 12.833-12.833v-1zm13.833 13.833c0-7.64-6.193-13.833-13.833-13.833v1c7.088 0 12.833 5.746 12.833 12.833h1zm-.107 1.728c.071-.566.107-1.143.107-1.728h-1c0 .544-.033 1.079-.099 1.604l.992.124zm-.827-.437A19.423 19.423 0 01108 141.5v1c5.199 0 9.948-1.936 13.561-5.126l-.662-.75zM108 141.5a19.424 19.424 0 01-12.9-4.876l-.661.75A20.425 20.425 0 00108 142.5v-1zm0-22.333a7.167 7.167 0 007.167-7.167h-1a6.167 6.167 0 01-6.167 6.167v1zM100.833 112a7.167 7.167 0 007.167 7.167v-1a6.167 6.167 0 01-6.167-6.167h-1zm7.167-7.167a7.167 7.167 0 00-7.167 7.167h1a6.167 6.167 0 016.167-6.167v-1zm7.167 7.167a7.167 7.167 0 00-7.167-7.167v1a6.167 6.167 0 016.167 6.167h1z" fill="#212121"/><circle cx="108" cy="122" r="20" stroke="#212121"/><circle cx="128" cy="142" r="16.5" fill="#00BFA5" stroke="#212121"/><path fill-rule="evenodd" clip-rule="evenodd" d="M137.828 137.828l-12.414 12.415-7.414-7.415 2.828-2.828 4.586 4.586L135 135l2.828 2.828z" fill="#fff" stroke="#212121"/><path d="M225 40l-63 63M259 126l-37 37M225 80l-23 23" stroke="#212121" stroke-dasharray="2 2"/><rect x="232" y="21" width="48" height="103" rx="6" fill="#fff" stroke="#212121"/><path fill="#fff" stroke="#212121" d="M232 33h48v78h-48z"/><path d="M250 27.5h12" stroke="#212121"/><path fill-rule="evenodd" clip-rule="evenodd" d="M263.747 61.96a.62.62 0 01-.307-.08c-2.56-1.32-4.773-1.88-7.427-1.88-2.64 0-5.146.627-7.426 1.88a.679.679 0 01-.907-.267.675.675 0 01.267-.906c2.48-1.347 5.2-2.04 8.066-2.04 2.84 0 5.32.626 8.04 2.026a.652.652 0 01.28.894.653.653 0 01-.586.373zm-19.08 7a.665.665 0 01-.547-1.053c1.32-1.867 3-3.334 5-4.36 4.187-2.16 9.547-2.174 13.747-.014 2 1.027 3.68 2.48 5 4.334a.668.668 0 01-.16.933.666.666 0 01-.934-.16c-1.2-1.68-2.72-3-4.52-3.92-3.826-1.96-8.72-1.96-12.533.013-1.813.934-3.333 2.267-4.533 3.947a.582.582 0 01-.52.28zm7.866 15.893c.12.134.294.2.467.2a.73.73 0 00.493-.2.683.683 0 000-.946c-1.026-1.04-1.613-1.694-2.466-3.227-.814-1.44-1.24-3.213-1.24-5.133 0-3.227 2.786-5.854 6.213-5.854s6.213 2.627 6.213 5.854a.66.66 0 00.667.666.66.66 0 00.667-.666c0-3.96-3.387-7.187-7.547-7.187s-7.547 3.227-7.547 7.187c0 2.146.48 4.146 1.4 5.786.894 1.614 1.52 2.36 2.68 3.52zm10.027-2.266c-1.587 0-2.987-.4-4.133-1.187-1.987-1.347-3.174-3.533-3.174-5.853a.66.66 0 01.667-.667.66.66 0 01.667.667c0 1.88.96 3.653 2.586 4.746.947.64 2.054.947 3.387.947.32 0 .853-.04 1.387-.133a.665.665 0 01.773.546.664.664 0 01-.547.774c-.76.146-1.426.16-1.613.16zm-2.853 2.72c.053.013.12.026.173.026.28 0 .56-.2.627-.506a.662.662 0 00-.467-.814c-1.88-.52-3.093-1.213-4.36-2.466a8.398 8.398 0 01-2.493-6.014c0-1.426 1.24-2.586 2.773-2.586 1.533 0 2.773 1.16 2.773 2.586 0 2.16 1.84 3.92 4.107 3.92 2.267 0 4.107-1.76 4.107-3.92 0-5.76-4.934-10.44-11-10.44-4.307 0-8.24 2.414-10.014 6.134-.6 1.266-.906 2.72-.906 4.32 0 1.8.32 3.533.973 5.28.12.333.507.52.853.386a.65.65 0 00.387-.853c-.8-2.133-.893-3.773-.893-4.813 0-1.387.266-2.654.786-3.734 1.56-3.266 5.027-5.373 8.814-5.373 5.333 0 9.666 4.08 9.666 9.107 0 1.426-1.24 2.586-2.773 2.586-1.533 0-2.773-1.16-2.773-2.586 0-2.16-1.84-3.92-4.107-3.92-2.267 0-4.107 1.76-4.107 3.92a9.728 9.728 0 002.894 6.96c1.453 1.426 2.84 2.213 4.96 2.8z" fill="#212121"/></svg> 
