<svg xmlns="http://www.w3.org/2000/svg" width="320" height="220" fill="none" viewBox="-32 13 320 220"><path fill-rule="evenodd" clip-rule="evenodd" d="M32 72a4 4 0 014-4h184a4 4 0 014 4v10H32V72z" fill="#fff" stroke="#000"/><circle cx="40" cy="75" r="2.5" fill="#3740FF" stroke="#000"/><circle cx="50" cy="75" r="2.5" fill="#2979FF" stroke="#000"/><circle cx="60" cy="75" r="2.5" fill="#3FC4FF" stroke="#000"/><path d="M224 188V82H32v106" stroke="#000"/><mask id="a" fill="#fff"><path fill-rule="evenodd" clip-rule="evenodd" d="M134 93h50v30h-50V93zm-62 20h50v31H72v-31zm112 20h-50v30h50v-30z"/></mask><path d="M184 93h1v-1h-1v1zm-50 0v-1h-1v1h1zm50 30v1h1v-1h-1zm-50 0h-1v1h1v-1zm-12-10h1v-1h-1v1zm-50 0v-1h-1v1h1zm50 31v1h1v-1h-1zm-50 0h-1v1h1v-1zm62-11v-1h-1v1h1zm50 0h1v-1h-1v1zm-50 30h-1v1h1v-1zm50 0v1h1v-1h-1zm0-71h-50v2h50v-2zm1 31V93h-2v30h2zm-51 1h50v-2h-50v2zm-1-31v30h2V93h-2zm-11 19H72v2h50v-2zm1 32v-31h-2v31h2zm-51 1h50v-2H72v2zm-1-32v31h2v-31h-2zm63 21h50v-2h-50v2zm1 29v-30h-2v30h2zm49-1h-50v2h50v-2zm-1-29v30h2v-30h-2z" fill="#000" mask="url(#a)"/><mask id="b" maskUnits="userSpaceOnUse" x="72" y="93" width="112" height="70"><path fill-rule="evenodd" clip-rule="evenodd" d="M134 93h50v30h-50V93zm-62 20h50v31H72v-31zm112 20h-50v30h50v-30z" fill="#C4C4C4"/></mask><g mask="url(#b)" stroke="#000"><path d="M80 87.5V168M92 87.5V168M104 87.5V168M116 87.5V168M128 87.5V168M140 87.5V168M152 87.5V168M164 87.5V168M176 87.5V168M68 104.5h120.5M68 116.5h120.5M68 128.5h120.5M68 140.5h120.5M68 152.5h120.5"/></g><path d="M9.5 128.5l63-15M134.5 93.5l17-45m32 74l63-15m-142 80l17-44m13 19l17 45M183.5 133.5l63 15" stroke="#000" stroke-dasharray="2 2"/><circle cx="116" cy="128.5" r="3" fill="#3FC4FF" stroke="#000"/><circle cx="152" cy="116.5" r="3" fill="#2979FF" stroke="#000"/><circle cx="140" cy="152.5" r="3" fill="#3740FF" stroke="#000"/><circle cx="176" cy="140.5" r="3" fill="#3740FF" stroke="#000"/><path fill="#fff" stroke="#000" d="M9.5 128.5h95v59h-95z"/><path fill-rule="evenodd" clip-rule="evenodd" d="M57 178c11.046 0 20-8.954 20-20s-8.954-20-20-20-20 8.954-20 20 8.954 20 20 20zm-5-11.34L67 158l-15-8.66v17.32z" fill="#3FC4FF"/><path d="M67 158l.25.433L68 158l-.75-.433L67 158zm-15 8.66h-.5v.866l.75-.433-.25-.433zm0-17.32l.25-.433-.75-.433v.866h.5zM76.5 158c0 10.77-8.73 19.5-19.5 19.5v1c11.322 0 20.5-9.178 20.5-20.5h-1zM57 138.5c10.77 0 19.5 8.73 19.5 19.5h1c0-11.322-9.178-20.5-20.5-20.5v1zM37.5 158c0-10.77 8.73-19.5 19.5-19.5v-1c-11.322 0-20.5 9.178-20.5 20.5h1zM57 177.5c-10.77 0-19.5-8.73-19.5-19.5h-1c0 11.322 9.178 20.5 20.5 20.5v-1zm9.75-19.933l-15 8.66.5.866 15-8.66-.5-.866zm-15-7.794l15 8.66.5-.866-15-8.66-.5.866zm.75 16.887v-17.32h-1v17.32h1z" fill="#000"/><path fill="#fff" stroke="#000" d="M151.5 48.5h95v59h-95z"/><circle cx="183" cy="91" r="5.5" fill="#2979FF" stroke="#000"/><circle cx="207" cy="85" r="5.5" fill="#2979FF" stroke="#000"/><path d="M188.5 71.366v-5.972l24-5.76v5.972l-24 5.76z" fill="#2979FF" stroke="#000"/><path d="M188.5 67v24M212.5 61v24" stroke="#000"/><path fill="#fff" stroke="#000" d="M151.5 148.5h95v59h-95z"/><path d="M192.072 174L199 162l6.928 12h-13.856z" fill="#3FC4FF" stroke="#000"/><circle cx="189" cy="186" r="7.5" fill="#2979FF" stroke="#000"/><path fill="#3740FF" stroke="#000" d="M202.5 179h14v14h-14z"/></svg>
