<svg xmlns="http://www.w3.org/2000/svg" width="330" height="220" fill="none"><path stroke="#212121" d="M65 56h192v120H65V56z" clip-rule="evenodd"/><mask id="a" width="117" height="116" x="141" y="61" maskUnits="userSpaceOnUse"><path fill="#fff" fill-rule="evenodd" d="M143 176h105.832a8 8 0 008-8V64c0-.569-.06-1.124-.173-1.66L143 176z" clip-rule="evenodd"/><path fill="#000" d="M143 176l-.354-.354-.853.854H143v-.5zM256.659 62.34l.49-.103-.191-.902-.652.652.353.354zm-7.827 113.16H143v1h105.832v-1zm7.5-7.5a7.5 7.5 0 01-7.5 7.5v1a8.5 8.5 0 008.5-8.5h-1zm0-104v104h1V64h-1zm-.162-1.556a7.52 7.52 0 01.162 1.556h1c0-.604-.063-1.194-.183-1.763l-.979.207zm-112.816 113.91l113.659-113.66-.707-.707-113.66 113.659.708.708z"/></mask><g stroke="#000" mask="url(#a)"><path d="M152.6 37.5v152m15.2-152v152m15.2-152v152m15.201-152v152m15.199-152v152m15.2-152v152m15.199-152v152M144.5 166.201h152M144.5 151h152m-152-15.201h152m-152-15.2h152m-152-15.198h152m-152-15.2h152M144.5 75h152"/></g><path fill="#fff" fill-rule="evenodd" d="M257 62v-6H65v120h78L257 62z" clip-rule="evenodd"/><path fill="#212121" d="M257 56h.5v-.5h-.5v.5zm0 6l.354.354.146-.147V62h-.5zM65 56v-.5h-.5v.5h.5zm0 120h-.5v.5h.5v-.5zm78 0v.5h.207l.147-.146L143 176zM256.5 56v6h1v-6h-1zM65 56.5h192v-1H65v1zm.5 119.5V56h-1v120h1zm77.5-.5H65v1h78v-1zm.354.854l114-114-.708-.708-114 114 .708.708z"/><path fill="#EA80FC" stroke="#000" d="M74.394 67.015a2.165 2.165 0 100-4.33 2.165 2.165 0 000 4.33zm9.034 0a2.165 2.165 0 100-4.33 2.165 2.165 0 000 4.33zm9.032 0a2.165 2.165 0 100-4.33 2.165 2.165 0 000 4.33z"/><path stroke="#000" stroke-dasharray="3 7" stroke-width=".5" d="M228.527 165.5C212.035 184.203 187.895 196 161 196c-30.354 0-57.199-15.027-73.5-38.047M244 106.5c0-46.116-37.384-83.5-83.5-83.5-26.684 0-50.445 12.517-65.731 32"/><rect width="64" height="125.296" x="161" y="33" stroke="#212121" rx="13.35"/><path fill="#fff" fill-rule="evenodd" d="M174.35 33C166.977 33 161 38.977 161 46.35v98.596a13.31 13.31 0 003.763 9.291L225 94V46.35c0-7.373-5.977-13.35-13.35-13.35h-37.3z" clip-rule="evenodd"/><path fill="#212121" d="M164.763 154.237l-.359.348.354.364.359-.359-.354-.353zM225 94l.353.354.147-.147V94h-.5zm-63.5-47.65c0-7.097 5.753-12.85 12.85-12.85v-1c-7.649 0-13.85 6.2-13.85 13.85h1zm0 98.596V46.35h-1v98.596h1zm3.622 8.943a12.81 12.81 0 01-3.622-8.943h-1c0 3.746 1.488 7.146 3.904 9.639l.718-.696zm-.005.701l60.236-60.236-.707-.707-60.236 60.236.707.707zM224.5 46.35V94h1V46.35h-1zM211.65 33.5c7.097 0 12.85 5.753 12.85 12.85h1c0-7.65-6.201-13.85-13.85-13.85v1zm-37.3 0h37.3v-1h-37.3v1z"/><path fill="#EA80FC" stroke="#000" d="M161 45.113v-2.141c0-5.508 4.465-9.972 9.972-9.972h44.056c5.507 0 9.972 4.465 9.972 9.972v2.14h-64z"/><path fill="#fff" stroke="#000" d="M161 146.183v2.141c0 5.507 4.465 9.972 9.972 9.972h44.056c5.507 0 9.972-4.465 9.972-9.972v-2.141h-64z"/><path stroke="#000" d="M186.296 39.056h13.408"/><path stroke="#000" stroke-dasharray="3 7" stroke-width=".5" d="M214.61 136.5c4.711-8.611 7.39-18.492 7.39-29 0-15.576-5.886-29.777-15.555-40.5M161 167c1.854 0 3.689-.084 5.5-.249 20.084-1.825 37.31-13.548 46.759-30.251"/><path fill="#A249FF" stroke="#212121" d="M167.963 169.106a3.491 3.491 0 100-6.982 3.491 3.491 0 000 6.982zm60 0a3.491 3.491 0 100-6.982 3.491 3.491 0 000 6.982zm16-60a3.491 3.491 0 100-6.982 3.491 3.491 0 000 6.982z"/><path fill="#EA80FC" stroke="#212121" d="M213.963 139.106a3.491 3.491 0 100-6.982 3.491 3.491 0 000 6.982z"/><text x="106.353" y="97.471" fill="#000" font-family="sans-serif" font-size="21.333" font-weight="400" style="line-height:1.25"><tspan x="106.353" y="97.471"><tspan font-weight="700">Mini</tspan> Apps</tspan></text></svg>