<svg width="330" height="220" fill="none" xmlns="http://www.w3.org/2000/svg"><path d="M83 47l30-9v69l-30 9V47z" fill="#fff" stroke="#212121"/><path d="M83 47l30-9v70l-30 9V47z" fill="#fff" stroke="#212121"/><path d="M83 47v70M93 44v70M103 41v70M83 57l30-9M83 67l30-9M83 77l30-9M83 87l30-9M83 97l30-9M83 107l30-9" stroke="#212121"/><path d="M93 57a3 3 0 100-6 3 3 0 000 6z" fill="#A249FF" stroke="#212121"/><path d="M103 74a3 3 0 100-6 3 3 0 000 6z" fill="#EA80FC" stroke="#212121"/><path d="M217 38l30 9v70l-30-9V38z" fill="#fff" stroke="#212121"/><path d="M237 44v70M227 41v70M217 48l30 9M217 58l30 9M217 68l30 9M217 78l30 9M217 88l30 9M217 98l30 9" stroke="#212121"/><path d="M227 64a3 3 0 100-6 3 3 0 000 6z" fill="#6600ED" stroke="#212121"/><path d="M237 87a3 3 0 100-6 3 3 0 000 6z" fill="#A249FF" stroke="#212121"/><rect x="129" y="29" width="72" height="160" rx="10" fill="#fff" stroke="#212121"/><path fill="#fff" stroke="#212121" d="M129 45h72v128h-72z"/><path d="M156 37.5h18" stroke="#212121"/><path d="M136 62v-9l4 9 4-9v9m3-6v6m0-9v1m3 8v-5.5h2a2 2 0 012 2V62m3-6v6m0-9v1m4.5 8l1.2-3m5.8 3l-1.2-3m0 0l-2.3-6-2.3 6m4.6 0h-4.6m8.3 5v-2.5m0 0v-5h2a2 2 0 012 2v1a2 2 0 01-2 2h-2zm7 0v-5h2a2 2 0 012 2v1a2 2 0 01-2 2h-2zm0 0V64m6.5-2.5h2.3c.6 0 1.2-.6 1.2-1.3v0c0-.6-.6-1.2-1.3-1.2h-.4c-.7 0-1.3-.6-1.3-1.3v0c0-.6.6-1.2 1.3-1.2h2.2" stroke="#212121" stroke-linejoin="bevel"/><rect x="137" y="93" width="12" height="12" rx="6" fill="#6600ED" stroke="#212121"/><path fill="#A249FF" stroke="#212121" d="M136 121l7-7 7.2 7-7.1 7.2zM159 93h12v12h-12z"/><path d="M187 92l8 13.9h-16l8-13.9zM165 114l7 5-2.7 8.3h-8.6l-2.7-8.2 7-5.1z" fill="#EA80FC" stroke="#212121"/><path d="M119.4 63l-6 1m97.2-1l6 1M75 75.8C56.3 84 45 95.2 45 107.4c0 26.5 53.7 48 120 48s120-21.5 120-48c0-12.2-11.3-23.3-30-31.7" stroke="#212121" stroke-dasharray="4 4"/><path d="M227 111l40-18v80l-40 18v-80z" fill="#212121"/><path d="M226 110l40-18v80l-40 18v-80z" fill="#212121"/><path d="M227 111l40-18m-40 18v80m0-80l-1-1m41-17v80m0-80l-1-1m1 81l-40 18m40-18l-1-1m-39 19l-1-1m0-80l40-18m-40 18v80m40-98v80m0 0l-40 18" stroke="#212121"/><path d="M227 111l40-18v80l-40 18v-80z" fill="#fff" stroke="#212121" stroke-linejoin="bevel"/><path d="M231 115l6 4m0-6.4l-6 8.8" stroke="#212121"/><path d="M247 129l10 15-20 10 10-25z" fill="#EA80FC" stroke="#212121"/><path d="M63 93l40 18v80l-40-18V93z" fill="#212121"/><path d="M64 92l40 18v80l-40-18V92z" fill="#212121"/><path d="M63 93l40 18M63 93v80l40 18M63 93l1-1m39 19v80m0-80l1-1m-1 81l1-1M64 92l40 18M64 92v80l40 18m0-80v80" stroke="#212121"/><path d="M63 93l40 18v80l-40-18V93z" fill="#fff" stroke="#212121" stroke-linejoin="bevel"/><path d="M67 100l6 9m0-6.4l-6 3.8" stroke="#212121"/><ellipse cx="83" cy="144" rx="8" ry="10" transform="rotate(-30 83 144)" fill="#6600ED" stroke="#212121"/><path d="M45 109a3 3 0 100-6 3 3 0 000 6z" fill="#A249FF" stroke="#212121"/><path d="M285 109a3 3 0 100-6 3 3 0 000 6z" fill="#EA80FC" stroke="#212121"/></svg>