<svg fill="none" height="256" viewBox="0 0 256 256" width="256" xmlns="http://www.w3.org/2000/svg"><mask id="a" height="44" maskUnits="userSpaceOnUse" width="44" x="100" y="33"><circle cx="122" cy="55" fill="#fff" r="22"/></mask><path clip-rule="evenodd" d="M33 124a4 4 0 014-4h184a4 4 0 014 4v10H33z" fill="#fff" fill-rule="evenodd" stroke="#000"/><circle cx="41" cy="127" fill="#00e676" r="2.5" stroke="#000"/><circle cx="51" cy="127" fill="#006776" r="2.5" stroke="#000"/><circle cx="61" cy="127" fill="#00bfa5" r="2.5" stroke="#000"/><path d="M225 216v-82H33v82" stroke="#000"/><rect height="63" rx="31.5" stroke="#000" stroke-dasharray="2 4" width="155" x="51.5" y="148.5"/><rect fill="#46dec9" height="47" rx="23.5" stroke="#000" width="139" x="59.5" y="156.5"/><path d="M130 179.3V170h6.85a4.65 4.65 0 110 9.3zm0 0v10.32h7.34a5.16 5.16 0 000-10.32h-1.09zM150 170v13.87a5.75 5.75 0 0011.5 0V170M168.5 170l6.5 9.43m0 0l6-9.43m-6 9.43V190M96 173l1.25-5H101m-5 5h-6.5m6.5 0l-1.5 6m-12-6H76l1.5 6m5-6l1 12m-1-12h7m-6 12H79l-1.5-6m6 6h5.25m.75-12l-.75 12m0 0H93l1.5-6m-17 0h17" stroke="#000"/><circle cx="79.5" cy="189.5" r="2" stroke="#000"/><circle cx="92.5" cy="189.5" r="2" stroke="#000"/><path d="M120.8 223c-1.2-6.08-2.5-10.05-3.89-11.92a462.06 462.06 0 01-7.38-10.48 3 3 0 01.7-4.13 3.1 3.1 0 014.22.55l4.73 5.8v-24.24a3.64 3.64 0 017.28 0v19.61-7.26a3.8 3.8 0 017.6 0v7.26-6a3.65 3.65 0 117.3 0v6.78-4.1a3.45 3.45 0 015.93-2.43 3.5 3.5 0 011.03 2.47c0 6.39-.52 11.43-1.55 15.14a84.32 84.32 0 01-4.82 12.95h-10.58z" fill="#fff"/><path d="M120.8 223c-1.2-6.08-2.5-10.05-3.89-11.92a462.06 462.06 0 01-7.38-10.48 3 3 0 01.7-4.13 3.1 3.1 0 014.22.55l4.73 5.8v-24.24a3.64 3.64 0 017.28 0v19.61-7.26a3.8 3.8 0 017.6 0v7.26-6a3.65 3.65 0 117.3 0v6.78-4.1a3.45 3.45 0 015.93-2.43 3.5 3.5 0 011.03 2.47c0 6.39-.52 11.43-1.55 15.14a84.32 84.32 0 01-4.82 12.95" stroke="#212121" stroke-linecap="round" stroke-linejoin="round"/><path d="M129 106.5v50m0-50l-6 6m6-6l6 6" stroke="#000" stroke-linecap="round"/><path d="M96 89v18M107 100v13M150 102v11M163 96v14" stroke="#000" stroke-dasharray="2 2"/><circle cx="134" cy="67" fill="#f1af00" r="26.5" stroke="#000"/><circle cx="131" cy="64" fill="#f1af00" r="26.5" stroke="#000"/><circle cx="128" cy="61" fill="#f1af00" r="26.5" stroke="#000"/><circle cx="125" cy="58" fill="#f1af00" r="26.5" stroke="#000"/><circle cx="122" cy="55" fill="#ffee43" r="27"/><g mask="url(#a)"><circle cx="122" cy="55" fill="#ffc836" r="27"/><path clip-rule="evenodd" d="M141.34 36.16l-38.18 38.18a27 27 0 1138.18-38.18z" fill="#ffee43" fill-rule="evenodd"/><g stroke="#000"><path d="M112 32v46M102 32v46M122 32v46M132 32v46M142 32v46M98 45h46M98 35h46M98 55h46M98 65h46M98 75h46"/><circle cx="111.89" cy="45.89" fill="#ffc836" r="1.89"/><circle cx="131.89" cy="54.89" fill="#ff8100" r="1.89"/></g></g><g stroke="#000"><path d="M122.27 76.64a21.82 21.82 0 110-43.64" stroke-linecap="round"/><circle cx="122" cy="55" r="26.5"/><path d="M136.5 78.5L148 90M130.5 80.5L142 92M125.5 82.5L137 94M120.5 82.5L132 94M115.5 81.5L127 93M145.5 69.5L157 81M147.5 64.5L159 76M148.5 60.5L160 72M149.5 56.5L161 68M149.5 53.5L161 65M148.5 49.5L160 61M147.5 45.5L159 57M141.5 74.5L153 86" stroke-dasharray="2 2" stroke-linecap="round"/><path d="M94.5 22v12M89 28h11M141.5 30v12m-5.5-6h11M90.5 69v12M85 75h11" stroke-linecap="round"/></g></svg>