<svg fill="none" height="256" viewBox="0 0 256 256" width="256" xmlns="http://www.w3.org/2000/svg" xmlns:xlink="http://www.w3.org/1999/xlink"><mask id="a" height="44" maskUnits="userSpaceOnUse" width="44" x="100" y="33"><circle cx="122" cy="55" fill="#fff" r="22"/></mask><path clip-rule="evenodd" d="m33 124c0-2.209 1.7909-4 4-4h184c2.209 0 4 1.791 4 4v10h-192z" fill="#fff" fill-rule="evenodd" stroke="#000"/><circle cx="41" cy="127" fill="#00e676" r="2.5" stroke="#000"/><circle cx="51" cy="127" fill="#006776" r="2.5" stroke="#000"/><circle cx="61" cy="127" fill="#00bfa5" r="2.5" stroke="#000"/><path d="m225 216v-82h-192v82" stroke="#000"/><rect height="63" rx="31.5" stroke="#000" stroke-dasharray="2 4" width="155" x="51.5" y="148.5"/><rect fill="#46dec9" height="47" rx="23.5" stroke="#000" width="139" x="59.5" y="156.5"/><path d="m130 179.302v-9.302h6.849c2.569 0 4.651 2.082 4.651 4.651 0 2.569-2.082 4.651-4.651 4.651zm0 0v10.321h7.34c2.85 0 5.16-2.311 5.16-5.161 0-2.85-2.31-5.16-5.16-5.16h-1.09z" stroke="#000"/><path d="m150 170v13.873c0 3.175 2.574 5.75 5.75 5.75 3.176 0 5.75-2.575 5.75-5.75v-13.873" stroke="#000"/><path d="m168.5 170 6.5 9.434m0 0 6-9.434m-6 9.434v10.566" stroke="#000"/><path d="m96 173 1.25-5h3.75m-5 5h-6.5m6.5 0-1.5 6m-12-6h-6.5l1.5 6m5-6 1 12m-1-12h7m-6 12h-4.5l-1.5-6m6 6h5.25m.75-12-.75 12m0 0h4.25l1.5-6m-17 0h17" stroke="#000"/><circle cx="79.5" cy="189.5" r="2" stroke="#000"/><circle cx="92.5" cy="189.5" r="2" stroke="#000"/><path d="m120.799 223c-1.2-6.076-2.497-10.048-3.889-11.917-1.218-1.634-3.678-5.129-7.379-10.482-.925-1.34-.611-3.173.707-4.129 1.33-.963 3.18-.721 4.217.552l4.722 5.799v-24.24c.033-1.988 1.654-3.583 3.643-3.583 1.988 0 3.609 1.595 3.642 3.583v19.607-7.26c.033-2.074 1.725-3.739 3.8-3.739s3.767 1.665 3.8 3.739l.001 7.26v-5.991c0-2.016 1.634-3.651 3.65-3.651s3.651 1.635 3.651 3.651v6.771-4.105c0-1.908 1.546-3.454 3.453-3.455.929 0 1.82.369 2.477 1.026s1.026 1.548 1.026 2.477c.001 6.382-.516 11.427-1.552 15.132-1.249 4.443-2.861 8.776-4.819 12.955h-10.575z" fill="#fff"/><path d="m120.799 223c-1.2-6.076-2.497-10.048-3.889-11.917-1.218-1.634-3.678-5.129-7.379-10.482-.925-1.34-.611-3.173.707-4.129 1.33-.963 3.18-.721 4.217.552l4.722 5.799v-24.24c.033-1.988 1.654-3.583 3.643-3.583 1.988 0 3.609 1.595 3.642 3.583v19.607-7.26c.033-2.074 1.725-3.739 3.8-3.739s3.767 1.665 3.8 3.739l.001 7.26v-5.991c0-2.016 1.634-3.651 3.65-3.651s3.651 1.635 3.651 3.651v6.771-4.105c0-1.908 1.546-3.454 3.453-3.455.929 0 1.82.369 2.477 1.026s1.026 1.548 1.026 2.477c.001 6.382-.516 11.427-1.552 15.132-1.249 4.443-2.861 8.776-4.819 12.955" stroke="#212121" stroke-linecap="round" stroke-linejoin="round"/><path d="m129 106.5v50m0-50-6 6m6-6 6 6" stroke="#000" stroke-linecap="round"/><path d="m96 89v18" stroke="#000" stroke-dasharray="2 2"/><path d="m107 100v13" stroke="#000" stroke-dasharray="2 2"/><path d="m150 102v11" stroke="#000" stroke-dasharray="2 2"/><path d="m163 96v14" stroke="#000" stroke-dasharray="2 2"/><circle cx="134" cy="67" fill="#f1af00" r="26.5" stroke="#000"/><circle cx="131" cy="64" fill="#f1af00" r="26.5" stroke="#000"/><circle cx="128" cy="61" fill="#f1af00" r="26.5" stroke="#000"/><circle cx="125" cy="58" fill="#f1af00" r="26.5" stroke="#000"/><circle cx="122" cy="55" fill="#ffee43" r="27"/><g mask="url(#a)"><circle cx="122" cy="55" fill="#ffc836" r="27"/><path clip-rule="evenodd" d="m141.341 36.1603-38.181 38.1805c-5.0337-4.9044-8.16-11.7575-8.16-19.3408 0-14.9117 12.088-27 27-27 7.583 0 14.436 3.1263 19.341 8.1603z" fill="#ffee43" fill-rule="evenodd"/><g stroke="#000"><path d="m112 32v46"/><path d="m102 32v46"/><path d="m122 32v46"/><path d="m132 32v46"/><path d="m142 32v46"/><path d="m98 45h46"/><path d="m98 35h46"/><path d="m98 55h46"/><path d="m98 65h46"/><path d="m98 75h46"/><circle cx="111.886" cy="45.8864" fill="#ffc836" r="1.88636"/><circle cx="131.886" cy="54.8864" fill="#ff8100" r="1.88636"/></g></g><g stroke="#000"><path d="m122.273 76.6364c-12.05 0-21.818-9.7684-21.818-21.8182 0-12.0499 9.768-21.8182 21.818-21.8182" stroke-linecap="round"/><circle cx="122" cy="55" r="26.5"/><path d="m136.5 78.5 11.5 11.5" stroke-dasharray="2 2" stroke-linecap="round"/><path d="m130.5 80.5 11.5 11.5" stroke-dasharray="2 2" stroke-linecap="round"/><path d="m125.5 82.5 11.5 11.5" stroke-dasharray="2 2" stroke-linecap="round"/><path d="m120.5 82.5 11.5 11.5" stroke-dasharray="2 2" stroke-linecap="round"/><path d="m115.5 81.5 11.5 11.5" stroke-dasharray="2 2" stroke-linecap="round"/><path d="m145.5 69.5 11.5 11.5" stroke-dasharray="2 2" stroke-linecap="round"/><path d="m147.5 64.5 11.5 11.5" stroke-dasharray="2 2" stroke-linecap="round"/><path d="m148.5 60.5 11.5 11.5" stroke-dasharray="2 2" stroke-linecap="round"/><path d="m149.5 56.5 11.5 11.5" stroke-dasharray="2 2" stroke-linecap="round"/><path d="m149.5 53.5 11.5 11.5" stroke-dasharray="2 2" stroke-linecap="round"/><path d="m148.5 49.5 11.5 11.5" stroke-dasharray="2 2" stroke-linecap="round"/><path d="m147.5 45.5 11.5 11.5" stroke-dasharray="2 2" stroke-linecap="round"/><path d="m141.5 74.5 11.5 11.5" stroke-dasharray="2 2" stroke-linecap="round"/><path d="m94.5 22v12m-5.5-6h11" stroke-linecap="round"/><path d="m141.5 30v12m-5.5-6h11" stroke-linecap="round"/><path d="m90.5 69v12m-5.5-6h11" stroke-linecap="round"/></g></svg>