<svg width="330" height="220" fill="none" xmlns="http://www.w3.org/2000/svg"><path clip-rule="evenodd" d="M65 56h192v120H65V56z" stroke="#212121"/><mask id="a" maskUnits="userSpaceOnUse" x="141" y="61" width="117" height="116"><path fill-rule="evenodd" clip-rule="evenodd" d="M143 176h105.832a8 8 0 008-8V64c0-.569-.06-1.124-.173-1.66L143 176z" fill="#fff"/><path d="M143 176l-.354-.354-.853.854H143v-.5zM256.659 62.34l.49-.103-.191-.902-.652.652.353.354zm-7.827 113.16H143v1h105.832v-1zm7.5-7.5a7.5 7.5 0 01-7.5 7.5v1a8.5 8.5 0 008.5-8.5h-1zm0-104v104h1V64h-1zm-.162-1.556a7.52 7.52 0 01.162 1.556h1c0-.604-.063-1.194-.183-1.763l-.979.207zm-112.816 113.91l113.659-113.66-.707-.707-113.66 113.659.708.708z" fill="#000"/></mask><g mask="url(#a)" stroke="#000"><path d="M152.6 37.5v152M167.8 37.5v152M183 37.5v152M198.201 37.5v152M213.4 37.5v152M228.6 37.5v152M243.799 37.5v152M144.5 166.201h152M144.5 151h152M144.5 135.799h152M144.5 120.599h152M144.5 105.401h152M144.5 90.201h152M144.5 75h152"/></g><path fill-rule="evenodd" clip-rule="evenodd" d="M257 62v-6H65v120h78L257 62z" fill="#fff"/><path d="M257 56h.5v-.5h-.5v.5zm0 6l.354.354.146-.147V62h-.5zM65 56v-.5h-.5v.5h.5zm0 120h-.5v.5h.5v-.5zm78 0v.5h.207l.147-.146L143 176zM256.5 56v6h1v-6h-1zM65 56.5h192v-1H65v1zm.5 119.5V56h-1v120h1zm77.5-.5H65v1h78v-1zm.354.854l114-114-.708-.708-114 114 .708.708z" fill="#212121"/><path d="M74.394 67.015a2.165 2.165 0 100-4.33 2.165 2.165 0 000 4.33zM83.428 67.015a2.165 2.165 0 100-4.33 2.165 2.165 0 000 4.33zM92.46 67.015a2.165 2.165 0 100-4.33 2.165 2.165 0 000 4.33z" fill="#EA80FC" stroke="#000"/><path d="M228.527 165.5C212.035 184.203 187.895 196 161 196c-30.354 0-57.199-15.027-73.5-38.047M244 106.5c0-46.116-37.384-83.5-83.5-83.5-26.684 0-50.445 12.517-65.731 32" stroke="#000" stroke-width=".5" stroke-dasharray="3 7"/><rect x="161" y="33" width="64" height="125.296" rx="13.35" stroke="#212121"/><path fill-rule="evenodd" clip-rule="evenodd" d="M174.35 33C166.977 33 161 38.977 161 46.35v98.596a13.31 13.31 0 003.763 9.291L225 94V46.35c0-7.373-5.977-13.35-13.35-13.35h-37.3z" fill="#fff"/><path d="M164.763 154.237l-.359.348.354.364.359-.359-.354-.353zM225 94l.353.354.147-.147V94h-.5zm-63.5-47.65c0-7.097 5.753-12.85 12.85-12.85v-1c-7.649 0-13.85 6.2-13.85 13.85h1zm0 98.596V46.35h-1v98.596h1zm3.622 8.943a12.81 12.81 0 01-3.622-8.943h-1c0 3.746 1.488 7.146 3.904 9.639l.718-.696zm-.005.701l60.236-60.236-.707-.707-60.236 60.236.707.707zM224.5 46.35V94h1V46.35h-1zM211.65 33.5c7.097 0 12.85 5.753 12.85 12.85h1c0-7.65-6.201-13.85-13.85-13.85v1zm-37.3 0h37.3v-1h-37.3v1z" fill="#212121"/><path d="M161 45.113v-2.141c0-5.508 4.465-9.972 9.972-9.972h44.056c5.507 0 9.972 4.465 9.972 9.972v2.14h-64z" fill="#EA80FC" stroke="#000"/><path d="M161 146.183v2.141c0 5.507 4.465 9.972 9.972 9.972h44.056c5.507 0 9.972-4.465 9.972-9.972v-2.141h-64z" fill="#fff" stroke="#000"/><path d="M186.296 39.056h13.408" stroke="#000"/><path d="M214.61 136.5c4.711-8.611 7.39-18.492 7.39-29 0-15.576-5.886-29.777-15.555-40.5M161 167c1.854 0 3.689-.084 5.5-.249 20.084-1.825 37.31-13.548 46.759-30.251" stroke="#000" stroke-width=".5" stroke-dasharray="3 7"/><path d="M167.963 169.106a3.491 3.491 0 100-6.982 3.491 3.491 0 000 6.982zM227.963 169.106a3.491 3.491 0 100-6.982 3.491 3.491 0 000 6.982zM243.963 109.106a3.491 3.491 0 100-6.982 3.491 3.491 0 000 6.982z" fill="#A249FF" stroke="#212121"/><path d="M213.963 139.106a3.491 3.491 0 100-6.982 3.491 3.491 0 000 6.982z" fill="#EA80FC" stroke="#212121"/><g clip-path="url(#clip0)" stroke="#000"><path d="M194.905 110.49l-3.737-10.462 4.208-10.64 12.901 34.256h-8.965l-2.207-6.142-.119-.331H184.389l2.378-6.013H195.144l-.239-.668z" fill="#000"/><path d="M142.638 102.024l4.82 9.559.546 1.082.376-1.153 7.499-23.012h6.693l6.981 23.003.399 1.314.539-1.263 9.84-23.054h8.59l-14.17 35.144h-8.828l-6.448-20.595-.466-1.488-.486 1.481-6.766 20.602h-8.858l-4.675-8.023 4.414-13.597z" fill="#6600ED"/><path d="M122.171 111.237h-.5v12.407H113.5V88.5h14.462c4.156 0 7.234 1.191 9.322 3.502l.001.001c.348.383.663.786.944 1.21l-4.228 13.024-1.456 4.485c-1.294.341-2.766.515-4.423.515h-5.951zm-.5-6.513v.5h3.939c2.271 0 3.991-.481 4.97-1.604.859-.974 1.262-2.266 1.262-3.819 0-1.56-.466-2.859-1.439-3.838-1.004-1.01-2.643-1.45-4.768-1.45h-3.964v10.211z" fill="#000"/></g><defs><clipPath id="clip0"><path fill="#fff" transform="translate(113 88)" d="M0 0h96v36.144H0z"/></clipPath></defs></svg>