<svg width="330" height="220" xmlns="http://www.w3.org/2000/svg" xmlns:xlink="http://www.w3.org/1999/xlink"><defs><rect id="a" x=".071" width="57.8" height="112.2" rx="9.35"/></defs><g fill="none" fill-rule="evenodd"><path d="M99.184 114.053v-1.048h7.994v1.048h1.045v4.38h-5v1.056h3.037v.83h-4.16v2.032h2.097v1.995h-1.077v-.89h-1.095v3.38h-1.12v1.505H99.86v1.029h-.831v3.977h.937v.884H97.99v-2.89h-.983v-1.061h-1.232v1.06h-.9v1.071h-1.018v.936h1.018v.884h-2.074v-3.951h-.759v-1.07h-.953v-1.024h-1.173v-1.071h-.915v-.923h-1.178v-5.872h.911v2.261h.962v1.037h1.017v.927h2.22v-.927h1.136v-1.037h1.59v-1.046h1.48v-.896h1.018v-6.586h1.027zm.662.404v1.086h1.423v-1.086h-1.423z" fill="#212121"/><path d="M102.584 130.009H229.73M76.213 140.168H218.63" stroke="#212121" stroke-width=".85" stroke-dasharray="2.55"/><g transform="translate(141.801 47.226)"><mask id="b" fill="#fff"><use xlink:href="#a"/></mask><rect stroke="#212121" x=".571" y=".5" width="56.8" height="111.2" rx="9.35"/><g stroke="#212121" stroke-width=".85" mask="url(#b)"><path d="M-99.297 28.72h226.453M-1.075-20.14V133.4M86.85-20.14V133.4M8.694-20.14V133.4M96.62-20.14V133.4M18.464-20.14V133.4M106.39-20.14V133.4M28.233-20.14V133.4M116.16-20.14V133.4M38.003-20.14V133.4M125.929-20.14V133.4M47.772-20.14V133.4M-10.845-20.14V133.4M77.081-20.14V133.4M-20.615-20.14V133.4M67.312-20.14V133.4M-30.384-20.14V133.4M57.542-20.14V133.4M-40.154-20.49v153.54M-49.923-20.49v153.54M-59.693-20.49v153.54M-69.462-20.49v153.54M-79.232-20.49v153.54M-89.001-20.49v153.54M-98.771-20.49v153.54M-99.297 18.969h226.453M-99.297 9.218h226.453M-99.297-.533h226.453M-99.297-10.284h226.453M-99.297-20.035h226.453M-99.297 38.47h226.453M-99.297 48.22h226.453M-99.297 57.972h226.453M-99.297 67.723h226.453M-99.297 77.473h226.453M-99.297 87.224h226.453M-99.297 96.975h226.453M-99.297 106.726h226.453M-99.297 116.477h226.453M-99.297 126.227h226.453"/></g><circle stroke="#212121" fill="#FFA900" mask="url(#b)" cx="38.328" cy="8.98" r="2.55"/><circle stroke="#212121" fill="#FF1800" mask="url(#b)" cx="17.97" cy="8.98" r="2.55"/><circle stroke="#212121" fill="#FF5915" mask="url(#b)" cx="48.412" cy="19.327" r="2.55"/><circle stroke="#212121" fill="#FF3D00" mask="url(#b)" cx="48.412" cy="97.973" r="2.55"/><circle stroke="#212121" fill="#FF1800" mask="url(#b)" cx="48.412" cy="58.65" r="2.55"/></g><rect stroke="#212121" fill="#FFF" x="119.522" y="62.238" width="56.8" height="111.2" rx="9.35"/><path d="M119.522 159.138v5.45a8.85 8.85 0 0 0 8.85 8.85h39.1a8.85 8.85 0 0 0 8.85-8.85v-5.45h-56.8zM119.522 76.538v-5.45a8.85 8.85 0 0 1 8.85-8.85h39.1a8.85 8.85 0 0 1 8.85 8.85v5.45h-56.8z" stroke="#212121" fill="#FF5915"/><path d="M141.972 69.388h11.9M151.735 101.013h17M126.978 130.657h17M151.735 106.366h17M126.978 136.01h17" stroke="#212121"/><g fill-rule="nonzero" stroke="#212121"><path d="M146.46 97.013c-.383-.29-4.19-3.4-9.894-3.4-5.712 0-9.512 3.11-9.894 3.4l9.894 12.325 9.894-12.325z"/><path d="M131.636 103.192l4.93 6.146 4.929-6.146c-.25-.192-2.13-1.717-4.93-1.717-2.799 0-4.678 1.525-4.929 1.717z" fill="#FFA900"/></g><g fill-rule="nonzero" stroke="#212121"><path d="M150.906 143.108h17v-17z"/><path fill="#FFA900" d="M159.406 134.608l-8.5 8.5h8.5z"/></g></g></svg>