<svg width="330" height="220" xmlns="http://www.w3.org/2000/svg" xmlns:xlink="http://www.w3.org/1999/xlink"><defs><path id="a" d="M.776.789H108.04v14.647H.776z"/><circle id="c" cx="49.411" cy="49.189" r="49.031"/></defs><g fill="none" fill-rule="evenodd"><path d="M182.15 123.873l42.876 21.24" stroke="#212121" stroke-dasharray="2.7"/><g transform="translate(222 137)"><mask id="b" fill="#fff"><use xlink:href="#a"/></mask><use fill="#FFF" xlink:href="#a"/><path stroke="#212121" fill="#FFF" mask="url(#b)" d="M1.276 1.289h109.109v13.647H1.276z"/></g><circle stroke="#212121" fill="#00BFA5" cx="242.169" cy="145.112" r="2.25"/><circle stroke="#212121" fill="#006776" cx="231.77" cy="145.112" r="2.25"/><circle stroke="#212121" fill="#00E676" cx="252.567" cy="145.112" r="2.25"/><g transform="translate(85.792 60.067)"><mask id="d" fill="#fff"><use xlink:href="#c"/></mask><use stroke="#212121" fill="#FFF" xlink:href="#c"/><g stroke="#212121" stroke-width=".81" mask="url(#d)"><path d="M-171.27 14.713H314.9M39.53-90.047v329.632M228.726-90.047v329.632M60.551-90.047v329.632M249.747-90.047v329.632M81.573-90.047v329.632M270.77-90.047v329.632M102.595-90.047v329.632M291.791-90.047v329.632M123.616-90.047v329.632M312.813-90.047v329.632M144.638-90.047v329.632M18.507-90.047v329.632M207.704-90.047v329.632M-2.514-90.047v329.632M186.682-90.047v329.632M-23.536-90.047v329.632M165.66-90.047v329.632M-44.558-90.8v329.633M-65.58-90.8v329.633M-86.602-90.8v329.633M-107.624-90.8v329.633M-128.645-90.8v329.633M-149.667-90.8v329.633M-170.689-90.8v329.633M-171.27-6.269H314.9M-171.27-27.25H314.9M-171.27-48.232H314.9M-171.27-69.213H314.9M-171.27-90.195H314.9M-171.27 35.694H314.9M-171.27 56.675H314.9M-171.27 77.657H314.9M-171.27 98.638H314.9M-171.27 119.62H314.9M-171.27 140.601H314.9M-171.27 161.583H314.9M-171.27 182.564H314.9M-171.27 203.546H314.9M-171.27 224.527H314.9"/></g></g><path d="M122.659 105.728h26.609V92.423c0-7.348-5.957-13.304-13.305-13.304s-13.304 5.956-13.304 13.304v13.305zm4.674-4.721v-8.63a8.63 8.63 0 1 1 17.26 0v8.63h-17.26z" stroke="#212121" fill="#00BFA5"/><path stroke="#212121" fill="#00BFA5" d="M118.189 99.654h35.55v35.55h-35.55z"/><circle stroke="#212121" fill="#FFF" cx="135.963" cy="117.428" r="7.612"/><path d="M223.226 151.023v68.805M329.593 138.323v81.66" stroke="#212121" stroke-width=".9"/><g stroke="#212121"><path d="M309.89 184.717h-21.544M309.89 192.772h-21.544M309.89 200.826h-21.544"/></g><circle stroke="#212121" fill="#006776" cx="104.386" cy="96.178" r="3.159"/><circle stroke="#212121" fill="#006776" cx="167.453" cy="117.038" r="3.159"/><circle stroke="#212121" fill="#00E676" cx="146.278" cy="75.392" r="3.159"/><circle stroke="#212121" fill="#00E676" cx="104.386" cy="138.122" r="3.159"/><path d="M134.284 110.418a7.21 7.21 0 0 0 0 14.021 7.62 7.62 0 0 1 0-14.021z" stroke="#212121" stroke-width=".81" fill="#212121"/><path stroke="#212121" d="M233.972 220.323v-50h43.283v50"/></g></svg>