<svg version="1.1" viewBox="0.0 0.0 957.7165354330708 565.5538057742782" fill="none" stroke="none" stroke-linecap="square" stroke-miterlimit="10" xmlns:xlink="http://www.w3.org/1999/xlink" xmlns="http://www.w3.org/2000/svg"><clipPath id="p.0"><path d="m0 0l957.71655 0l0 565.55383l-957.71655 0l0 -565.55383z" clip-rule="nonzero"/></clipPath><g clip-path="url(#p.0)"><path fill="#000000" fill-opacity="0.0" d="m0 0l957.71655 0l0 565.55383l-957.71655 0z" fill-rule="evenodd"/><path fill="#efefef" d="m542.61945 23.593178l217.92126 0l0 515.9055l-217.92126 0z" fill-rule="evenodd"/><path fill="#000000" fill-opacity="0.0" d="m542.61847 45.672253l217.914 0l0 25.127743l-217.914 0z" fill-rule="evenodd"/><path fill="#666666" d="m585.0881 64.73788l1.1875 -0.109375q-0.015625 0.25 -0.015625 0.3125q0 0.421875 0.21875 0.859375q0.21875 0.4375 0.59375 0.671875q0.375 0.21875 0.796875 0.21875q0.546875 0 1.109375 -0.375q0.5625 -0.375 0.90625 -1.09375q0.359375 -0.71875 0.359375 -1.4375q0 -0.796875 -0.46875 -1.28125q-0.46875 -0.484375 -1.234375 -0.484375q-0.515625 0 -0.984375 0.25q-0.453125 0.25 -0.84375 0.75l-1.03125 -0.078125l1.4375 -4.875l4.65625 0l-0.21875 1.078125l-3.625 0l-0.71875 2.421875q0.40625 -0.296875 0.828125 -0.4375q0.421875 -0.140625 0.875 -0.140625q1.09375 0 1.796875 0.71875q0.703125 0.71875 0.703125 1.984375q0 1.09375 -0.484375 2.03125q-0.484375 0.921875 -1.328125 1.421875q-0.84375 0.484375 -1.8125 0.484375q-0.828125 0 -1.453125 -0.359375q-0.625 -0.375 -0.953125 -1.015625q-0.3125 -0.65625 -0.3125 -1.3125q0 -0.0625 0.015625 -0.203125zm10.7248535 0.375l1.1875 -0.078125q0 0.515625 0.15625 0.875q0.15625 0.359375 0.578125 0.59375q0.421875 0.21875 0.96875 0.21875q0.78125 0 1.171875 -0.3125q0.390625 -0.3125 0.390625 -0.734375q0 -0.3125 -0.234375 -0.578125q-0.234375 -0.28125 -1.171875 -0.671875q-0.9375 -0.40625 -1.1875 -0.578125q-0.4375 -0.265625 -0.671875 -0.625q-0.21875 -0.359375 -0.21875 -0.828125q0 -0.8125 0.65625 -1.390625q0.65625 -0.59375 1.828125 -0.59375q1.296875 0 1.96875 0.609375q0.6875 0.59375 0.71875 1.578125l-1.15625 0.078125q-0.03125 -0.625 -0.453125 -0.984375q-0.40625 -0.375 -1.171875 -0.375q-0.609375 0 -0.953125 0.28125q-0.328125 0.28125 -0.328125 0.609375q0 0.3125 0.296875 0.5625q0.1875 0.171875 1.0 0.53125q1.359375 0.578125 1.703125 0.921875q0.5625 0.53125 0.5625 1.3125q0 0.515625 -0.3125 1.015625q-0.3125 0.484375 -0.96875 0.78125q-0.640625 0.296875 -1.515625 0.296875q-1.203125 0 -2.046875 -0.59375q-0.84375 -0.59375 -0.796875 -1.921875zm11.6328125 0.015625l1.15625 0.109375q-0.25 0.859375 -1.140625 1.625q-0.890625 0.765625 -2.125 0.765625q-0.765625 0 -1.40625 -0.34375q-0.640625 -0.359375 -0.984375 -1.03125q-0.328125 -0.6875 -0.328125 -1.546875q0 -1.140625 0.515625 -2.203125q0.53125 -1.0625 1.359375 -1.578125q0.84375 -0.515625 1.8125 -0.515625q1.234375 0 1.96875 0.765625q0.75 0.765625 0.75 2.09375q0 0.5 -0.09375 1.046875l-5.09375 0q-0.03125 0.1875 -0.03125 0.359375q0 0.96875 0.4375 1.484375q0.453125 0.5 1.109375 0.5q0.59375 0 1.171875 -0.390625q0.59375 -0.390625 0.921875 -1.140625zm-3.421875 -1.71875l3.875 0q0.015625 -0.1875 0.015625 -0.265625q0 -0.875 -0.453125 -1.34375q-0.4375 -0.484375 -1.125 -0.484375q-0.765625 0 -1.390625 0.53125q-0.609375 0.515625 -0.921875 1.5625zm10.537476 1.546875l1.171875 0.125q-0.4375 1.296875 -1.265625 1.921875q-0.8125 0.625 -1.84375 0.625q-1.140625 0 -1.84375 -0.71875q-0.6875 -0.734375 -0.6875 -2.046875q0 -1.125 0.4375 -2.21875q0.453125 -1.09375 1.28125 -1.65625q0.84375 -0.578125 1.921875 -0.578125q1.109375 0 1.765625 0.625q0.65625 0.625 0.65625 1.65625l-1.15625 0.078125q-0.015625 -0.65625 -0.390625 -1.015625q-0.375 -0.375 -0.984375 -0.375q-0.703125 0 -1.234375 0.453125q-0.515625 0.4375 -0.8125 1.359375q-0.296875 0.90625 -0.296875 1.75q0 0.890625 0.390625 1.34375q0.390625 0.4375 0.96875 0.4375q0.5625 0 1.078125 -0.4375q0.53125 -0.4375 0.84375 -1.328125zm2.1015625 -0.109375q0 -2.015625 1.1875 -3.34375q0.984375 -1.09375 2.578125 -1.09375q1.25 0 2.015625 0.78125q0.765625 0.78125 0.765625 2.109375q0 1.1875 -0.484375 2.21875q-0.484375 1.015625 -1.375 1.5625q-0.890625 0.546875 -1.875 0.546875q-0.796875 0 -1.46875 -0.34375q-0.65625 -0.34375 -1.0 -0.96875q-0.34375 -0.640625 -0.34375 -1.46875zm1.171875 -0.109375q0 0.96875 0.46875 1.484375q0.46875 0.5 1.1875 0.5q0.375 0 0.75 -0.15625q0.375 -0.15625 0.6875 -0.46875q0.328125 -0.3125 0.546875 -0.703125q0.21875 -0.40625 0.359375 -0.875q0.203125 -0.640625 0.203125 -1.234375q0 -0.9375 -0.46875 -1.453125q-0.46875 -0.515625 -1.1875 -0.515625q-0.5625 0 -1.015625 0.265625q-0.453125 0.265625 -0.828125 0.78125q-0.359375 0.5 -0.53125 1.171875q-0.171875 0.671875 -0.171875 1.203125zm6.0218506 2.734375l1.453125 -6.90625l1.0625 0l-0.25 1.203125q0.6875 -0.71875 1.296875 -1.03125q0.609375 -0.328125 1.234375 -0.328125q0.84375 0 1.3125 0.453125q0.484375 0.453125 0.484375 1.21875q0 0.375 -0.171875 1.203125l-0.875 4.1875l-1.171875 0l0.921875 -4.375q0.125 -0.640625 0.125 -0.953125q0 -0.34375 -0.234375 -0.546875q-0.234375 -0.21875 -0.6875 -0.21875q-0.90625 0 -1.609375 0.65625q-0.703125 0.640625 -1.03125 2.21875l-0.671875 3.21875l-1.1875 0zm12.084351 -1.0q-1.015625 1.15625 -2.109375 1.15625q-0.984375 0 -1.640625 -0.71875q-0.65625 -0.734375 -0.65625 -2.109375q0 -1.265625 0.515625 -2.3125q0.515625 -1.046875 1.296875 -1.5625q0.78125 -0.515625 1.5625 -0.515625q1.28125 0 1.9375 1.234375l0.78125 -3.71875l1.171875 0l-1.984375 9.546875l-1.09375 0l0.21875 -1.0zm-3.234375 -1.890625q0 0.71875 0.140625 1.140625q0.140625 0.40625 0.484375 0.6875q0.34375 0.28125 0.828125 0.28125q0.796875 0 1.453125 -0.84375q0.875 -1.109375 0.875 -2.734375q0 -0.8125 -0.4375 -1.265625q-0.421875 -0.46875 -1.078125 -0.46875q-0.421875 0 -0.765625 0.1875q-0.34375 0.1875 -0.6875 0.640625q-0.34375 0.453125 -0.578125 1.15625q-0.234375 0.6875 -0.234375 1.21875zm14.1467285 2.109375q-1.015625 0.9375 -1.9375 0.9375q-0.953125 0 -1.625 -0.734375q-0.65625 -0.734375 -0.65625 -2.078125q0 -1.28125 0.5 -2.328125q0.5 -1.046875 1.28125 -1.5625q0.796875 -0.515625 1.625 -0.515625q0.625 0 1.140625 0.359375q0.53125 0.34375 0.84375 1.0625l0.265625 -1.265625l1.015625 0l-1.984375 9.5625l-1.1875 0l0.71875 -3.4375zm-3.0625 -2.03125q0 1.015625 0.421875 1.515625q0.421875 0.484375 1.0625 0.484375q0.53125 0 1.078125 -0.4375q0.546875 -0.4375 0.890625 -1.328125q0.34375 -0.890625 0.34375 -1.703125q0 -0.859375 -0.4375 -1.328125q-0.4375 -0.484375 -1.0625 -0.484375q-0.625 0 -1.078125 0.40625q-0.609375 0.515625 -0.953125 1.5q-0.265625 0.75 -0.265625 1.375zm10.724976 1.5625q-1.234375 1.40625 -2.546875 1.40625q-0.796875 0 -1.296875 -0.453125q-0.484375 -0.46875 -0.484375 -1.125q0 -0.4375 0.21875 -1.5l0.84375 -3.984375l1.171875 0l-0.921875 4.40625q-0.109375 0.5625 -0.109375 0.859375q0 0.390625 0.234375 0.609375q0.234375 0.21875 0.703125 0.21875q0.484375 0 0.953125 -0.234375q0.484375 -0.234375 0.8125 -0.640625q0.34375 -0.421875 0.5625 -0.984375q0.140625 -0.359375 0.328125 -1.25l0.625 -2.984375l1.1875 0l-1.453125 6.90625l-1.078125 0l0.25 -1.25zm4.3656006 -6.953125l0.28125 -1.34375l1.171875 0l-0.28125 1.34375l-1.171875 0zm-1.71875 8.203125l1.453125 -6.90625l1.171875 0l-1.4375 6.90625l-1.1875 0zm8.08606 -2.34375l1.15625 0.109375q-0.25 0.859375 -1.140625 1.625q-0.890625 0.765625 -2.125 0.765625q-0.765625 0 -1.40625 -0.34375q-0.640625 -0.359375 -0.984375 -1.03125q-0.328125 -0.6875 -0.328125 -1.546875q0 -1.140625 0.515625 -2.203125q0.53125 -1.0625 1.359375 -1.578125q0.84375 -0.515625 1.8125 -0.515625q1.234375 0 1.96875 0.765625q0.75 0.765625 0.75 2.09375q0 0.5 -0.09375 1.046875l-5.09375 0q-0.03125 0.1875 -0.03125 0.359375q0 0.96875 0.4375 1.484375q0.453125 0.5 1.109375 0.5q0.59375 0 1.171875 -0.390625q0.59375 -0.390625 0.921875 -1.140625zm-3.421875 -1.71875l3.875 0q0.015625 -0.1875 0.015625 -0.265625q0 -0.875 -0.453125 -1.34375q-0.4375 -0.484375 -1.125 -0.484375q-0.765625 0 -1.390625 0.53125q-0.609375 0.515625 -0.921875 1.5625zm8.521851 3.109375l-0.203125 0.953125q-0.421875 0.109375 -0.8125 0.109375q-0.703125 0 -1.125 -0.34375q-0.3125 -0.25 -0.3125 -0.703125q0 -0.234375 0.171875 -1.046875l0.828125 -4.015625l-0.921875 0l0.1875 -0.90625l0.9375 0l0.34375 -1.703125l1.359375 -0.8125l-0.53125 2.515625l1.15625 0l-0.1875 0.90625l-1.15625 0l-0.796875 3.8125q-0.15625 0.734375 -0.15625 0.875q0 0.21875 0.109375 0.328125q0.125 0.109375 0.40625 0.109375q0.390625 0 0.703125 -0.078125zm5.952881 0.953125l-0.71875 -6.90625l1.140625 0l0.3125 3.09375l0.125 1.75q0 0.1875 0.03125 0.78125q0.203125 -0.65625 0.328125 -1.015625q0.140625 -0.359375 0.4375 -1.015625l1.65625 -3.59375l1.28125 0l0.21875 3.453125q0.0625 0.78125 0.0625 2.09375q0.328125 -0.859375 1.0625 -2.421875l1.484375 -3.125l1.1875 0l-3.390625 6.90625l-1.21875 0l-0.25 -4.046875q-0.03125 -0.390625 -0.046875 -1.484375q-0.265625 0.703125 -0.625 1.515625l-1.828125 4.015625l-1.25 0zm9.984497 -8.203125l0.28125 -1.34375l1.171875 0l-0.28125 1.34375l-1.171875 0zm-1.71875 8.203125l1.453125 -6.90625l1.171875 0l-1.4375 6.90625l-1.1875 0zm3.0079956 0l1.453125 -6.90625l1.0625 0l-0.25 1.203125q0.6875 -0.71875 1.296875 -1.03125q0.609375 -0.328125 1.234375 -0.328125q0.84375 0 1.3125 0.453125q0.484375 0.453125 0.484375 1.21875q0 0.375 -0.171875 1.203125l-0.875 4.1875l-1.171875 0l0.921875 -4.375q0.125 -0.640625 0.125 -0.953125q0 -0.34375 -0.234375 -0.546875q-0.234375 -0.21875 -0.6875 -0.21875q-0.90625 0 -1.609375 0.65625q-0.703125 0.640625 -1.03125 2.21875l-0.671875 3.21875l-1.1875 0zm12.084351 -1.0q-1.015625 1.15625 -2.109375 1.15625q-0.984375 0 -1.640625 -0.71875q-0.65625 -0.734375 -0.65625 -2.109375q0 -1.265625 0.515625 -2.3125q0.515625 -1.046875 1.296875 -1.5625q0.78125 -0.515625 1.5625 -0.515625q1.28125 0 1.9375 1.234375l0.78125 -3.71875l1.171875 0l-1.984375 9.546875l-1.09375 0l0.21875 -1.0zm-3.234375 -1.890625q0 0.71875 0.140625 1.140625q0.140625 0.40625 0.484375 0.6875q0.34375 0.28125 0.828125 0.28125q0.796875 0 1.453125 -0.84375q0.875 -1.109375 0.875 -2.734375q0 -0.8125 -0.4375 -1.265625q-0.421875 -0.46875 -1.078125 -0.46875q-0.421875 0 -0.765625 0.1875q-0.34375 0.1875 -0.6875 0.640625q-0.34375 0.453125 -0.578125 1.15625q-0.234375 0.6875 -0.234375 1.21875zm6.1937256 0.265625q0 -2.015625 1.1875 -3.34375q0.984375 -1.09375 2.578125 -1.09375q1.25 0 2.015625 0.78125q0.765625 0.78125 0.765625 2.109375q0 1.1875 -0.484375 2.21875q-0.484375 1.015625 -1.375 1.5625q-0.890625 0.546875 -1.875 0.546875q-0.796875 0 -1.46875 -0.34375q-0.65625 -0.34375 -1.0 -0.96875q-0.34375 -0.640625 -0.34375 -1.46875zm1.171875 -0.109375q0 0.96875 0.46875 1.484375q0.46875 0.5 1.1875 0.5q0.375 0 0.75 -0.15625q0.375 -0.15625 0.6875 -0.46875q0.328125 -0.3125 0.546875 -0.703125q0.21875 -0.40625 0.359375 -0.875q0.203125 -0.640625 0.203125 -1.234375q0 -0.9375 -0.46875 -1.453125q-0.46875 -0.515625 -1.1875 -0.515625q-0.5625 0 -1.015625 0.265625q-0.453125 0.265625 -0.828125 0.78125q-0.359375 0.5 -0.53125 1.171875q-0.171875 0.671875 -0.171875 1.203125zm7.3343506 2.734375l-0.71875 -6.90625l1.140625 0l0.3125 3.09375l0.125 1.75q0 0.1875 0.03125 0.78125q0.203125 -0.65625 0.328125 -1.015625q0.140625 -0.359375 0.4375 -1.015625l1.65625 -3.59375l1.28125 0l0.21875 3.453125q0.0625 0.78125 0.0625 2.09375q0.328125 -0.859375 1.0625 -2.421875l1.484375 -3.125l1.1875 0l-3.390625 6.90625l-1.21875 0l-0.25 -4.046875q-0.03125 -0.390625 -0.046875 -1.484375q-0.265625 0.703125 -0.625 1.515625l-1.828125 4.015625l-1.25 0z" fill-rule="nonzero"/><path fill="#000000" fill-opacity="0.0" d="m260.07837 247.61757l280.063 0" fill-rule="evenodd"/><path stroke="#434343" stroke-width="1.0" stroke-linejoin="round" stroke-linecap="butt" d="m260.07837 247.61758l274.063 0" fill-rule="evenodd"/><path fill="#434343" stroke="#434343" stroke-width="1.0" stroke-linecap="butt" d="m534.14136 249.2693l4.538086 -1.6517181l-4.538086 -1.6517334z" fill-rule="evenodd"/><path fill="#000000" fill-opacity="0.0" d="m223.67769 279.30475l0 62.813538" fill-rule="evenodd"/><path stroke="#000000" stroke-width="1.0" stroke-linejoin="round" stroke-linecap="butt" d="m223.67769 279.30475l0 62.813538" fill-rule="evenodd"/><path fill="#000000" fill-opacity="0.0" d="m187.27684 228.42422l72.80153 0l0 38.38669l-72.80153 0z" fill-rule="evenodd"/><path fill="#000000" d="m216.75964 248.82132l-4.5 0l0 4.65625l-2.34375 0l0 -11.375l7.40625 0l0 1.890625l-5.0625 0l0 2.9375l4.5 0l0 1.890625zm10.859375 0.859375q-0.140625 1.84375 -1.359375 2.90625q-1.21875 1.046875 -3.21875 1.046875q-2.1875 0 -3.453125 -1.46875q-1.25 -1.484375 -1.25 -4.046875l0 -0.703125q0 -1.640625 0.578125 -2.890625q0.578125 -1.25 1.65625 -1.90625q1.078125 -0.671875 2.5 -0.671875q1.96875 0 3.171875 1.0625q1.203125 1.046875 1.390625 2.953125l-2.34375 0q-0.09375 -1.109375 -0.625 -1.59375q-0.515625 -0.5 -1.59375 -0.5q-1.171875 0 -1.765625 0.84375q-0.578125 0.828125 -0.59375 2.59375l0 0.859375q0 1.84375 0.5625 2.703125q0.5625 0.84375 1.765625 0.84375q1.078125 0 1.609375 -0.484375q0.546875 -0.5 0.625 -1.546875l2.34375 0zm3.875 -0.21875l0 4.015625l-2.34375 0l0 -11.375l4.4375 0q1.28125 0 2.25 0.46875q0.984375 0.46875 1.5 1.328125q0.53125 0.859375 0.53125 1.96875q0 1.671875 -1.15625 2.640625q-1.140625 0.953125 -3.15625 0.953125l-2.0625 0zm0 -1.890625l2.09375 0q0.9375 0 1.421875 -0.4375q0.484375 -0.4375 0.484375 -1.25q0 -0.84375 -0.5 -1.359375q-0.484375 -0.515625 -1.34375 -0.53125l-2.15625 0l0 3.578125z" fill-rule="nonzero"/><path fill="#d9d2e9" d="m52.567112 108.525665l122.87012 0l0 5.291893l-122.87012 0z" fill-rule="evenodd"/><path stroke="#000000" stroke-width="1.0" stroke-linejoin="round" stroke-linecap="butt" d="m52.567112 108.525665l122.87012 0l0 5.291893l-122.87012 0z" fill-rule="evenodd"/><path fill="#d9d2e9" d="m175.67357 122.527596l230.23836 0l0 5.291893l-230.23836 0z" fill-rule="evenodd"/><path stroke="#000000" stroke-width="1.0" stroke-linejoin="round" stroke-linecap="butt" d="m175.67357 122.527596l230.23836 0l0 5.291893l-230.23836 0z" fill-rule="evenodd"/><path fill="#d9d2e9" d="m175.6741 135.00787l48.0 0l0 5.291336l-48.0 0z" fill-rule="evenodd"/><path stroke="#000000" stroke-width="1.0" stroke-linejoin="round" stroke-linecap="butt" d="m175.6741 135.00787l48.0 0l0 5.291336l-48.0 0z" fill-rule="evenodd"/><path fill="#d9d2e9" d="m243.76549 159.22606l298.8578 0l0 5.2919006l-298.8578 0z" fill-rule="evenodd"/><path stroke="#000000" stroke-width="1.0" stroke-linejoin="round" stroke-linecap="butt" d="m243.76549 159.22606l298.8578 0l0 5.2919006l-298.8578 0z" fill-rule="evenodd"/><path fill="#d9d2e9" d="m262.6805 172.10535l388.76163 0l0 5.2919006l-388.76163 0z" fill-rule="evenodd"/><path stroke="#000000" stroke-width="1.0" stroke-linejoin="round" stroke-linecap="butt" d="m262.6805 172.10535l388.76163 0l0 5.2919006l-388.76163 0z" fill-rule="evenodd"/><path fill="#d9d2e9" d="m242.27985 147.78159l230.23837 0l0 5.2919006l-230.23837 0z" fill-rule="evenodd"/><path stroke="#000000" stroke-width="1.0" stroke-linejoin="round" stroke-linecap="butt" d="m242.27985 147.78159l230.23837 0l0 5.2919006l-230.23837 0z" fill-rule="evenodd"/><path fill="#d9d2e9" d="m401.00867 184.98463l454.79932 0l0 5.2918854l-454.79932 0z" fill-rule="evenodd"/><path stroke="#000000" stroke-width="1.0" stroke-linejoin="round" stroke-linecap="butt" d="m401.00867 184.98463l454.79932 0l0 5.2918854l-454.79932 0z" fill-rule="evenodd"/><path fill="#000000" fill-opacity="0.0" d="m921.3911 109.29568l0 82.26386l-38.386658 0l0 -82.26386z" fill-rule="evenodd"/><path fill="#666666" d="m896.33777 130.11511l0 -1.421875l8.828125 -4.0625l-8.828125 -1.53125l0 -1.46875l11.375 1.96875l0 1.421875l-8.859375 4.078125l8.859375 1.53125l0 1.46875l-11.375 -1.984375zm-0.15625 6.09375q0.03125 -1.578125 1.15625 -2.46875q1.140625 -0.890625 2.90625 -0.75l0.34375 0.03125q1.25 0.140625 2.28125 0.75q1.046875 0.609375 1.578125 1.484375q0.53125 0.890625 0.5 1.921875q-0.03125 1.296875 -0.875 2.03125q-0.828125 0.75 -2.25 0.828125q-0.515625 0.015625 -1.015625 -0.03125l-0.65625 -0.09375l0 -5.515625q-1.140625 -0.140625 -1.953125 0.375q-0.796875 0.515625 -0.828125 1.546875q-0.03125 1.25 1.125 2.3125l-0.6875 0.8125q-0.765625 -0.53125 -1.203125 -1.375q-0.4375 -0.828125 -0.421875 -1.859375zm7.59375 0.890625q0.015625 -0.875 -0.609375 -1.53125q-0.609375 -0.640625 -1.828125 -1.03125l0 4.109375l0.125 0.03125q0.984375 0.125 1.625 -0.3125q0.65625 -0.4375 0.6875 -1.265625zm3.0625 7.484375l-2.046875 -0.359375l0 1.53125l-1.109375 -0.1875l0 -1.53125l-5.265625 -0.890625q-0.203125 -0.015625 -0.375 0q-0.609375 0.046875 -0.609375 0.65625q0 0.265625 0.078125 0.6875l-1.1875 -0.109375q-0.140625 -0.5 -0.140625 -1.03125q0.015625 -0.84375 0.625 -1.265625q0.609375 -0.421875 1.640625 -0.328125l5.234375 0.859375l0 -1.484375l1.109375 0.1875l0 1.5l2.046875 0.359375l0 1.40625zm-8.5 8.9921875l6.453125 2.703125l0 1.453125l-8.453125 -3.84375l0 -1.15625l6.390625 -0.875l-6.390625 -3.046875l0 -1.140625l8.453125 -0.921875l0 1.359375l-6.296875 0.515625l6.296875 3.0l0 1.140625l-6.453125 0.8125zm6.609375 8.8515625q-0.015625 1.0625 -0.578125 1.8125q-0.5625 0.765625 -1.546875 1.125q-0.984375 0.375 -2.15625 0.25l-0.171875 -0.015625q-1.234375 -0.140625 -2.234375 -0.734375q-1.0 -0.578125 -1.5625 -1.515625q-0.546875 -0.921875 -0.515625 -2.03125q0.015625 -1.0625 0.578125 -1.828125q0.5625 -0.75 1.53125 -1.109375q0.96875 -0.34375 2.140625 -0.25q1.3125 0.125 2.359375 0.71875q1.046875 0.59375 1.609375 1.515625q0.578125 0.9375 0.546875 2.0625zm-4.53125 -2.875q-0.484375 -0.046875 -1.015625 0q-0.921875 0.078125 -1.46875 0.546875q-0.546875 0.484375 -0.578125 1.265625q-0.015625 0.703125 0.34375 1.296875q0.375 0.59375 1.125 1.0q0.75 0.40625 1.671875 0.53125q0.71875 0.0625 1.203125 0.015625q0.953125 -0.09375 1.5 -0.578125q0.546875 -0.46875 0.578125 -1.25q0.015625 -1.09375 -0.875 -1.859375q-0.875 -0.765625 -2.296875 -0.953125l-0.1875 -0.015625zm3.09375 12.3671875l0.0625 -0.65625q0 -1.359375 -1.21875 -2.140625l-6.015625 -1.046875l0 -1.40625l8.453125 1.46875l0.015625 1.359375l-0.984375 -0.203125q1.171875 0.890625 1.140625 2.109375q0 0.265625 -0.109375 0.671875l-1.34375 -0.15625zm-3.265625 3.109375l-1.0 -1.109375l-2.90625 -0.5l0 -1.421875l12.0 2.09375l0 1.40625l-7.171875 -1.25l0.875 0.875l2.75 3.0l0 1.828125l-3.59375 -3.875l-4.859375 2.671875l0 -1.546875l3.90625 -2.171875z" fill-rule="nonzero"/><path fill="#000000" fill-opacity="0.0" d="m921.35693 266.80344l0 87.811035l-38.393677 0l0 -87.811035z" fill-rule="evenodd"/><path fill="#666666" d="m917.1751 297.68942l-9.265625 1.984375l9.265625 5.21875l0 1.9375l-11.375 -1.984375l0 -1.453125l4.5 0.78125l4.578125 0.921875l-9.078125 -5.15625l0 -1.125l9.265625 -2.03125l-4.90625 -0.703125l-4.359375 -0.75l0 -1.46875l11.375 1.96875l0 1.859375zm-11.375 14.75q0.234375 -0.0625 0.453125 -0.0625l0.4375 0.03125q-1.078125 -1.171875 -1.046875 -2.46875q0.015625 -1.125 0.703125 -1.828125q0.703125 -0.6875 1.734375 -0.625q1.34375 0.078125 2.09375 1.171875q0.765625 1.09375 0.765625 2.890625l-0.015625 1.46875l0.671875 0.09375q0.765625 0.078125 1.203125 -0.296875q0.4375 -0.359375 0.453125 -1.109375q0.015625 -0.71875 -0.359375 -1.28125q-0.359375 -0.5625 -0.96875 -0.6875l-0.015625 -1.421875q0.75 0.078125 1.3125 0.578125q0.578125 0.515625 0.890625 1.3125q0.328125 0.796875 0.3125 1.640625q-0.03125 1.328125 -0.8125 2.0625q-0.765625 0.734375 -2.03125 0.609375l-4.1875 -0.6875l-0.609375 -0.03125q-0.421875 -0.015625 -0.84375 0.09375l-0.140625 -0.015625l0 -1.4375zm1.09375 -2.21875q-0.015625 0.671875 0.328125 1.28125q0.34375 0.609375 0.9375 1.046875l1.75 0.296875l0 -1.0625q0 -1.34375 -0.421875 -2.0625q-0.421875 -0.703125 -1.1875 -0.796875q-0.59375 -0.0625 -1.0 0.28125q-0.390625 0.34375 -0.40625 1.015625zm-1.09375 7.1015625l0 -1.40625l8.453125 1.46875l0 1.40625l-8.453125 -1.46875zm11.546875 1.15625q0.015625 0.359375 -0.21875 0.59375q-0.234375 0.25 -0.609375 0.25q-0.359375 -0.015625 -0.59375 -0.25q-0.234375 -0.21875 -0.25 -0.59375q-0.015625 -0.359375 0.203125 -0.59375q0.234375 -0.234375 0.59375 -0.234375q0.375 0.015625 0.609375 0.234375q0.25 0.234375 0.265625 0.59375zm-3.078125 3.953125l-1.078125 -0.203125q1.25 1.140625 1.21875 2.59375q-0.03125 1.203125 -0.828125 1.765625q-0.796875 0.578125 -2.234375 0.421875l-5.546875 -0.921875l0 -1.40625l5.5625 0.921875q0.390625 0.046875 0.71875 0.015625q1.09375 -0.140625 1.109375 -1.296875q0.03125 -1.265625 -1.359375 -2.234375l-6.03125 -1.046875l0 -1.40625l8.453125 1.46875l0.015625 1.328125z" fill-rule="nonzero"/><path fill="#666666" d="m896.94073 296.1738l0 -3.546875l-10.140625 -1.75l0 -1.46875l10.140625 1.765625l0 -3.546875l1.234375 0.21875l0 8.546875l-1.234375 -0.21875zm-2.71875 2.3671875q1.21875 1.109375 1.1875 2.546875q-0.015625 1.1875 -0.828125 1.765625q-0.796875 0.578125 -2.234375 0.421875l-5.546875 -0.921875l0 -1.40625l5.5625 0.921875q0.390625 0.046875 0.71875 0.015625q1.09375 -0.140625 1.109375 -1.296875q0.03125 -1.296875 -1.359375 -2.234375l-6.03125 -1.046875l0 -1.40625l12.0 2.078125l0 1.421875l-4.578125 -0.859375zm-0.25 11.234375l0.0625 -0.65625q0 -1.359375 -1.21875 -2.140625l-6.015625 -1.046875l0 -1.40625l8.453125 1.46875l0.015625 1.359375l-0.984375 -0.203125q1.171875 0.890625 1.140625 2.109375q0 0.265625 -0.109375 0.671875l-1.34375 -0.15625zm-7.328125 3.5859375q0.03125 -1.578125 1.15625 -2.46875q1.140625 -0.890625 2.90625 -0.75l0.34375 0.03125q1.25 0.140625 2.28125 0.75q1.046875 0.609375 1.578125 1.484375q0.53125 0.890625 0.5 1.921875q-0.03125 1.296875 -0.875 2.03125q-0.828125 0.75 -2.25 0.828125q-0.515625 0.015625 -1.015625 -0.03125l-0.65625 -0.09375l0 -5.515625q-1.140625 -0.140625 -1.953125 0.375q-0.796875 0.515625 -0.828125 1.546875q-0.03125 1.25 1.125 2.3125l-0.6875 0.8125q-0.765625 -0.53125 -1.203125 -1.375q-0.4375 -0.828125 -0.421875 -1.859375zm7.59375 0.890625q0.015625 -0.875 -0.609375 -1.53125q-0.609375 -0.640625 -1.828125 -1.03125l0 4.109375l0.125 0.03125q0.984375 0.125 1.625 -0.3125q0.65625 -0.4375 0.6875 -1.265625zm-7.4375 8.921875q0.234375 -0.0625 0.453125 -0.0625l0.4375 0.03125q-1.078125 -1.171875 -1.046875 -2.46875q0.015625 -1.125 0.703125 -1.828125q0.703125 -0.6875 1.734375 -0.625q1.34375 0.078125 2.09375 1.171875q0.765625 1.09375 0.765625 2.890625l-0.015625 1.46875l0.671875 0.09375q0.765625 0.078125 1.203125 -0.296875q0.4375 -0.359375 0.453125 -1.109375q0.015625 -0.71875 -0.359375 -1.28125q-0.359375 -0.5625 -0.96875 -0.6875l-0.015625 -1.421875q0.75 0.078125 1.3125 0.578125q0.578125 0.515625 0.890625 1.3125q0.328125 0.796875 0.3125 1.640625q-0.03125 1.328125 -0.8125 2.0625q-0.765625 0.734375 -2.03125 0.609375l-4.1875 -0.6875l-0.609375 -0.03125q-0.421875 -0.015625 -0.84375 0.09375l-0.140625 -0.015625l0 -1.4375zm1.09375 -2.21875q-0.015625 0.671875 0.328125 1.28125q0.34375 0.609375 0.9375 1.046875l1.75 0.296875l0 -1.0625q0 -1.34375 -0.421875 -2.0625q-0.421875 -0.703125 -1.1875 -0.796875q-0.59375 -0.0625 -1.0 0.28125q-0.390625 0.34375 -0.40625 1.015625zm3.15625 5.9765625q1.28125 0.15625 2.3125 0.703125q1.046875 0.5625 1.5625 1.375q0.515625 0.8125 0.5 1.78125q-0.03125 1.421875 -1.03125 2.171875l4.40625 0.8125l0 1.421875l-12.0 -2.078125l0 -1.296875l0.90625 0.15625q-1.09375 -1.0 -1.0625 -2.46875q0.03125 -1.171875 0.921875 -1.875q0.890625 -0.6875 2.375 -0.75q0.46875 -0.015625 1.109375 0.046875zm-0.8125 1.359375q-1.125 -0.03125 -1.75 0.390625q-0.609375 0.421875 -0.625 1.234375q-0.046875 1.234375 1.234375 2.1875l3.90625 0.671875q1.15625 -0.46875 1.1875 -1.703125q0.03125 -0.84375 -0.5 -1.484375q-0.53125 -0.625 -1.484375 -0.96875q-0.9375 -0.328125 -1.96875 -0.328125z" fill-rule="nonzero"/><path fill="#000000" fill-opacity="0.0" d="m50.860584 310.7107l804.9523 0" fill-rule="evenodd"/><path stroke="#000000" stroke-width="1.0" stroke-linejoin="round" stroke-linecap="butt" d="m50.860584 310.7107l798.95233 0" fill-rule="evenodd"/><path fill="#000000" stroke="#000000" stroke-width="1.0" stroke-linecap="butt" d="m849.8129 312.36243l4.538086 -1.6517334l-4.538086 -1.6517334z" fill-rule="evenodd"/><path fill="#000000" fill-opacity="0.0" d="m51.657166 279.29974l0 62.813507" fill-rule="evenodd"/><path stroke="#000000" stroke-width="1.0" stroke-linejoin="round" stroke-linecap="butt" d="m51.657166 279.29974l0 62.813507" fill-rule="evenodd"/><path fill="#000000" fill-opacity="0.0" d="m38.608204 354.6003l115.755844 0l0 38.38669l-115.755844 0z" fill-rule="evenodd"/><path fill="#000000" d="m57.87383 370.15366l-2.34375 0l-4.5625 -7.484375l0 7.484375l-2.34375 0l0 -11.375l2.34375 0l4.578125 7.5l0 -7.5l2.328125 0l0 11.375zm6.796871 0q-0.15625 -0.3125 -0.21875 -0.765625q-0.8281212 0.921875 -2.1406212 0.921875q-1.234375 0 -2.0625 -0.71875q-0.8125 -0.71875 -0.8125 -1.8125q0 -1.34375 1.0 -2.0625q1.0 -0.71875 2.875 -0.734375l1.0468712 0l0 -0.484375q0 -0.578125 -0.3125 -0.921875q-0.2968712 -0.359375 -0.9374962 -0.359375q-0.578125 0 -0.90625 0.28125q-0.3125 0.265625 -0.3125 0.734375l-2.265625 0q0 -0.734375 0.453125 -1.359375q0.453125 -0.625 1.28125 -0.96875q0.828125 -0.359375 1.859375 -0.359375q1.5624962 0 2.4843712 0.78125q0.921875 0.78125 0.921875 2.203125l0 3.671875q0 1.203125 0.328125 1.8125l0 0.140625l-2.28125 0zm-1.8593712 -1.578125q0.5 0 0.921875 -0.21875q0.4218712 -0.21875 0.6249962 -0.59375l0 -1.453125l-0.8437462 0q-1.703125 0 -1.8125 1.171875l0 0.125q0 0.421875 0.296875 0.703125q0.296875 0.265625 0.8125 0.265625zm8.585934 -1.1875l1.578125 -5.6875l2.359375 0l-2.859375 8.453125l-2.15625 0l-2.84375 -8.453125l2.359375 0l1.5625 5.6875zm7.3046875 2.765625l-2.265625 0l0 -8.453125l2.265625 0l0 8.453125zm-2.390625 -10.640625q0 -0.515625 0.328125 -0.84375q0.34375 -0.328125 0.9375 -0.328125q0.578125 0 0.921875 0.328125q0.34375 0.328125 0.34375 0.84375q0 0.515625 -0.359375 0.84375q-0.34375 0.328125 -0.921875 0.328125q-0.5625 0 -0.90625 -0.328125q-0.34375 -0.328125 -0.34375 -0.84375zm3.9296875 6.34375q0 -1.9375 0.921875 -3.125q0.921875 -1.1875 2.5 -1.1875q1.390625 0 2.15625 0.953125l0.09375 -0.796875l2.046875 0l0 8.171875q0 1.109375 -0.5 1.921875q-0.5 0.828125 -1.421875 1.25q-0.90625 0.4375 -2.140625 0.4375q-0.921875 0 -1.8125 -0.375q-0.875 -0.359375 -1.328125 -0.953125l1.0 -1.375q0.84375 0.953125 2.046875 0.953125q0.890625 0 1.390625 -0.484375q0.5 -0.484375 0.5 -1.375l0 -0.453125q-0.78125 0.890625 -2.046875 0.890625q-1.53125 0 -2.46875 -1.1875q-0.9375 -1.203125 -0.9375 -3.171875l0 -0.09375zm2.25 0.171875q0 1.140625 0.453125 1.796875q0.46875 0.65625 1.28125 0.65625q1.03125 0 1.46875 -0.78125l0 -3.546875q-0.453125 -0.78125 -1.453125 -0.78125q-0.8125 0 -1.28125 0.671875q-0.46875 0.65625 -0.46875 1.984375zm12.1015625 4.125q-0.15625 -0.3125 -0.21875 -0.765625q-0.828125 0.921875 -2.140625 0.921875q-1.234375 0 -2.0625 -0.71875q-0.8125 -0.71875 -0.8125 -1.8125q0 -1.34375 1.0 -2.0625q1.0 -0.71875 2.875 -0.734375l1.046875 0l0 -0.484375q0 -0.578125 -0.3125 -0.921875q-0.296875 -0.359375 -0.9375 -0.359375q-0.578125 0 -0.90625 0.28125q-0.3125 0.265625 -0.3125 0.734375l-2.265625 0q0 -0.734375 0.453125 -1.359375q0.453125 -0.625 1.28125 -0.96875q0.828125 -0.359375 1.859375 -0.359375q1.5625 0 2.484375 0.78125q0.921875 0.78125 0.921875 2.203125l0 3.671875q0 1.203125 0.328125 1.8125l0 0.140625l-2.28125 0zm-1.859375 -1.578125q0.5 0 0.921875 -0.21875q0.421875 -0.21875 0.625 -0.59375l0 -1.453125l-0.84375 0q-1.703125 0 -1.8125 1.171875l0 0.125q0 0.421875 0.296875 0.703125q0.296875 0.265625 0.8125 0.265625zm8.25 -8.953125l0 2.078125l1.4375 0l0 1.65625l-1.4375 0l0 4.21875q0 0.46875 0.171875 0.671875q0.1875 0.203125 0.6875 0.203125q0.375 0 0.671875 -0.0625l0 1.71875q-0.671875 0.203125 -1.375 0.203125q-2.375 0 -2.421875 -2.40625l0 -4.546875l-1.234375 0l0 -1.65625l1.234375 0l0 -2.078125l2.265625 0zm5.078125 10.53125l-2.265625 0l0 -8.453125l2.265625 0l0 8.453125zm-2.390625 -10.640625q0 -0.515625 0.328125 -0.84375q0.34375 -0.328125 0.9375 -0.328125q0.578125 0 0.921875 0.328125q0.34375 0.328125 0.34375 0.84375q0 0.515625 -0.359375 0.84375q-0.34375 0.328125 -0.921875 0.328125q-0.5625 0 -0.90625 -0.328125q-0.34375 -0.328125 -0.34375 -0.84375zm3.8984375 6.328125q0 -1.25 0.484375 -2.234375q0.484375 -0.984375 1.390625 -1.515625q0.921875 -0.546875 2.125 -0.546875q1.703125 0 2.78125 1.046875q1.09375 1.046875 1.21875 2.84375l0.015625 0.578125q0 1.9375 -1.09375 3.125q-1.078125 1.171875 -2.90625 1.171875q-1.828125 0 -2.921875 -1.171875q-1.09375 -1.171875 -1.09375 -3.1875l0 -0.109375zm2.265625 0.171875q0 1.203125 0.453125 1.84375q0.453125 0.625 1.296875 0.625q0.8125 0 1.265625 -0.625q0.46875 -0.625 0.46875 -2.015625q0 -1.171875 -0.46875 -1.8125q-0.453125 -0.65625 -1.28125 -0.65625q-0.828125 0 -1.28125 0.640625q-0.453125 0.640625 -0.453125 2.0zm9.21875 -4.3125l0.0625 0.96875q0.90625 -1.125 2.4375 -1.125q1.34375 0 2.0 0.796875q0.65625 0.78125 0.671875 2.34375l0 5.46875l-2.265625 0l0 -5.40625q0 -0.71875 -0.3125 -1.046875q-0.3125 -0.328125 -1.03125 -0.328125q-0.953125 0 -1.4375 0.8125l0 5.96875l-2.25 0l0 -8.453125l2.125 0z" fill-rule="nonzero"/><path fill="#000000" d="m54.53008 386.16928q0 -0.671875 -0.46875 -1.015625q-0.46875 -0.359375 -1.6875 -0.75q-1.21875 -0.40625 -1.9375 -0.78125q-1.9375 -1.046875 -1.9375 -2.828125q0 -0.921875 0.515625 -1.640625q0.53125 -0.71875 1.5 -1.125q0.96875 -0.40625 2.1875 -0.40625q1.21875 0 2.171875 0.4375q0.953125 0.4375 1.46875 1.25q0.53125 0.796875 0.53125 1.828125l-2.34375 0q0 -0.78125 -0.5 -1.21875q-0.484375 -0.4375 -1.375 -0.4375q-0.859375 0 -1.34375 0.375q-0.46875 0.359375 -0.46875 0.953125q0 0.546875 0.5625 0.921875q0.5625 0.375 1.640625 0.703125q2.0 0.609375 2.90625 1.5q0.921875 0.890625 0.921875 2.21875q0 1.46875 -1.125 2.3125q-1.109375 0.84375 -3.0 0.84375q-1.3125 0 -2.390625 -0.484375q-1.078125 -0.484375 -1.640625 -1.3125q-0.5625 -0.84375 -0.5625 -1.9375l2.34375 0q0 1.875 2.25 1.875q0.84375 0 1.3125 -0.328125q0.46875 -0.34375 0.46875 -0.953125zm6.4921875 -7.546875l0 2.078125l1.4375 0l0 1.65625l-1.4375 0l0 4.21875q0 0.46875 0.171875 0.671875q0.1875 0.203125 0.6875 0.203125q0.375 0 0.671875 -0.0625l0 1.71875q-0.671875 0.203125 -1.375 0.203125q-2.375 0 -2.421875 -2.40625l0 -4.546875l-1.234375 0l0 -1.65625l1.234375 0l0 -2.078125l2.265625 0zm7.593746 10.53125q-0.15625 -0.3125 -0.21875 -0.765625q-0.828125 0.921875 -2.140625 0.921875q-1.234375 0 -2.0625 -0.71875q-0.8124962 -0.71875 -0.8124962 -1.8125q0 -1.34375 0.9999962 -2.0625q1.0 -0.71875 2.875 -0.734375l1.046875 0l0 -0.484375q0 -0.578125 -0.3125 -0.921875q-0.296875 -0.359375 -0.9375 -0.359375q-0.578125 0 -0.90625 0.28125q-0.3125 0.265625 -0.3125 0.734375l-2.2656212 0q0 -0.734375 0.4531212 -1.359375q0.453125 -0.625 1.28125 -0.96875q0.828125 -0.359375 1.859375 -0.359375q1.5625 0 2.484375 0.78125q0.921875 0.78125 0.921875 2.203125l0 3.671875q0 1.203125 0.328125 1.8125l0 0.140625l-2.28125 0zm-1.859375 -1.578125q0.5 0 0.921875 -0.21875q0.421875 -0.21875 0.625 -0.59375l0 -1.453125l-0.84375 0q-1.703125 0 -1.8125 1.171875l0 0.125q0 0.421875 0.296875 0.703125q0.296875 0.265625 0.8125 0.265625zm10.296875 -4.765625q-0.46875 -0.0625 -0.8125 -0.0625q-1.28125 0 -1.6875 0.875l0 5.53125l-2.25 0l0 -8.453125l2.125 0l0.0625 1.0q0.6875 -1.15625 1.890625 -1.15625q0.375 0 0.703125 0.09375l-0.03125 2.171875zm4.1796875 -4.1875l0 2.078125l1.4375 0l0 1.65625l-1.4375 0l0 4.21875q0 0.46875 0.171875 0.671875q0.1875 0.203125 0.6875 0.203125q0.375 0 0.671875 -0.0625l0 1.71875q-0.671875 0.203125 -1.375 0.203125q-2.375 0 -2.421875 -2.40625l0 -4.546875l-1.234375 0l0 -1.65625l1.234375 0l0 -2.078125l2.265625 0z" fill-rule="nonzero"/><path fill="#d9ead3" d="m559.6531 294.09167l15.361694 0l0 29.695374l-15.361694 0z" fill-rule="evenodd"/><path stroke="#000000" stroke-width="1.0" stroke-linejoin="round" stroke-linecap="butt" stroke-dasharray="4.0,3.0" d="m559.6531 294.09167l15.361694 0l0 29.695374l-15.361694 0z" fill-rule="evenodd"/><path fill="#d9ead3" d="m586.6276 294.09167l15.361694 0l0 29.695374l-15.361694 0z" fill-rule="evenodd"/><path stroke="#000000" stroke-width="1.0" stroke-linejoin="round" stroke-linecap="butt" stroke-dasharray="4.0,3.0" d="m586.6276 294.09167l15.361694 0l0 29.695374l-15.361694 0z" fill-rule="evenodd"/><path fill="#ff9900" d="m260.72144 294.0925l62.825195 0l0 29.695374l-62.825195 0z" fill-rule="evenodd"/><path stroke="#000000" stroke-width="1.0" stroke-linejoin="round" stroke-linecap="butt" d="m260.72144 294.0925l62.825195 0l0 29.695374l-62.825195 0z" fill-rule="evenodd"/><path fill="#d9ead3" d="m118.22767 295.86404l15.361687 0l0 29.695374l-15.361687 0z" fill-rule="evenodd"/><path stroke="#000000" stroke-width="1.0" stroke-linejoin="round" stroke-linecap="butt" stroke-dasharray="4.0,3.0" d="m118.22767 295.86404l15.361687 0l0 29.695374l-15.361687 0z" fill-rule="evenodd"/><path fill="#ff9900" d="m372.9741 294.09055l72.801544 0l0 29.695374l-72.801544 0z" fill-rule="evenodd"/><path stroke="#000000" stroke-width="1.0" stroke-linejoin="round" stroke-linecap="butt" d="m372.9741 294.09055l72.801544 0l0 29.695374l-72.801544 0z" fill-rule="evenodd"/><path fill="#d9ead3" d="m340.5816 294.0925l15.361664 0l0 29.695374l-15.361664 0z" fill-rule="evenodd"/><path stroke="#000000" stroke-width="1.0" stroke-linejoin="round" stroke-linecap="butt" stroke-dasharray="4.0,3.0" d="m340.5816 294.0925l15.361664 0l0 29.695374l-15.361664 0z" fill-rule="evenodd"/><path fill="#d9ead3" d="m146.744 295.86404l39.41469 0l0 29.695374l-39.41469 0z" fill-rule="evenodd"/><path stroke="#000000" stroke-width="1.0" stroke-linejoin="round" stroke-linecap="butt" stroke-dasharray="4.0,3.0" d="m146.744 295.86404l39.41469 0l0 29.695374l-39.41469 0z" fill-rule="evenodd"/><path fill="#ff9900" d="m50.860413 458.48575l35.267624 0l0 16.401367l-35.267624 0z" fill-rule="evenodd"/><path stroke="#000000" stroke-width="1.0" stroke-linejoin="round" stroke-linecap="butt" d="m50.860413 458.48575l35.267624 0l0 16.401367l-35.267624 0z" fill-rule="evenodd"/><path fill="#000000" fill-opacity="0.0" d="m98.55425 447.49518l317.1516 0l0 38.38669l-317.1516 0z" fill-rule="evenodd"/><path fill="#000000" d="m109.91363 470.4729l4.484375 0l0 1.015625l-5.75 0l0 -9.46875l1.265625 0l0 8.453125zm5.4060516 -2.5625q0 -1.046875 0.40625 -1.875q0.40625 -0.828125 1.125 -1.265625q0.734375 -0.453125 1.65625 -0.453125q1.4375 0 2.328125 1.0q0.890625 0.984375 0.890625 2.640625l0 0.09375q0 1.015625 -0.390625 1.84375q-0.390625 0.8125 -1.125 1.265625q-0.734375 0.453125 -1.6875 0.453125q-1.421875 0 -2.3125 -0.984375q-0.890625 -1.0 -0.890625 -2.640625l0 -0.078125zm1.203125 0.140625q0 1.171875 0.546875 1.875q0.546875 0.703125 1.453125 0.703125q0.921875 0 1.453125 -0.71875q0.546875 -0.71875 0.546875 -2.0q0 -1.171875 -0.546875 -1.890625q-0.546875 -0.71875 -1.46875 -0.71875q-0.890625 0 -1.4375 0.71875q-0.546875 0.703125 -0.546875 2.03125zm7.8511963 -3.609375l0.046875 0.890625q0.796875 -1.015625 2.109375 -1.015625q2.2343674 0 2.2499924 2.515625l0 4.65625l-1.2031174 0l0 -4.65625q-0.015625 -0.765625 -0.359375 -1.125q-0.328125 -0.375 -1.0625 -0.375q-0.578125 0 -1.03125 0.3125q-0.4375 0.3125 -0.6875 0.828125l0 5.015625l-1.203125 0l0 -7.046875l1.140625 0zm5.9320145 3.46875q0 -1.640625 0.75 -2.609375q0.765625 -0.984375 2.03125 -0.984375q1.28125 0 2.015625 0.90625l0.046875 -0.78125l1.109375 0l0 6.875q0 1.375 -0.8125 2.15625q-0.8125 0.78125 -2.1875 0.78125q-0.75 0 -1.484375 -0.328125q-0.734375 -0.3125 -1.109375 -0.875l0.625 -0.734375q0.765625 0.96875 1.890625 0.96875q0.875 0 1.359375 -0.5q0.5 -0.5 0.5 -1.390625l0 -0.609375q-0.71875 0.828125 -1.96875 0.828125q-1.234375 0 -2.0 -0.984375q-0.765625 -1.0 -0.765625 -2.71875zm1.203125 0.140625q0 1.1875 0.484375 1.875q0.5 0.671875 1.375 0.671875q1.140625 0 1.671875 -1.03125l0 -3.21875q-0.546875 -1.015625 -1.65625 -1.015625q-0.875 0 -1.375 0.6875q-0.5 0.6875 -0.5 2.03125zm11.495804 -5.3125l0 1.703125l1.3125 0l0 0.9375l-1.3125 0l0 4.359375q0 0.421875 0.171875 0.640625q0.171875 0.21875 0.59375 0.21875q0.21875 0 0.578125 -0.078125l0 0.96875q-0.46875 0.125 -0.921875 0.125q-0.8125 0 -1.21875 -0.484375q-0.40625 -0.484375 -0.40625 -1.390625l0 -4.359375l-1.28125 0l0 -0.9375l1.28125 0l0 -1.703125l1.203125 0zm7.072525 8.75q-0.109375 -0.203125 -0.171875 -0.734375q-0.84375 0.859375 -2.015625 0.859375q-1.03125 0 -1.703125 -0.578125q-0.671875 -0.59375 -0.671875 -1.5q0 -1.09375 0.828125 -1.703125q0.84375 -0.609375 2.359375 -0.609375l1.171875 0l0 -0.5625q0 -0.625 -0.375 -1.0q-0.375 -0.375 -1.109375 -0.375q-0.640625 0 -1.078125 0.328125q-0.4375 0.328125 -0.4375 0.78125l-1.203125 0q0 -0.515625 0.359375 -1.0q0.375 -0.5 1.015625 -0.78125q0.65625 -0.296875 1.421875 -0.296875q1.21875 0 1.90625 0.609375q0.6875 0.609375 0.71875 1.671875l0 3.25q0 0.96875 0.234375 1.53125l0 0.109375l-1.25 0zm-2.0 -0.921875q0.5625 0 1.0625 -0.28125q0.515625 -0.296875 0.734375 -0.765625l0 -1.453125l-0.9375 0q-2.21875 0 -2.21875 1.296875q0 0.5625 0.375 0.890625q0.390625 0.3125 0.984375 0.3125zm8.999771 -0.953125q0 -0.484375 -0.375 -0.75q-0.359375 -0.265625 -1.28125 -0.453125q-0.90625 -0.203125 -1.453125 -0.46875q-0.53125 -0.28125 -0.796875 -0.65625q-0.25 -0.390625 -0.25 -0.90625q0 -0.859375 0.734375 -1.453125q0.734375 -0.609375 1.875 -0.609375q1.1875 0 1.9375 0.625q0.75 0.609375 0.75 1.578125l-1.21875 0q0 -0.5 -0.421875 -0.859375q-0.421875 -0.359375 -1.046875 -0.359375q-0.65625 0 -1.03125 0.296875q-0.375 0.28125 -0.375 0.75q0 0.421875 0.34375 0.65625q0.34375 0.21875 1.25 0.421875q0.90625 0.203125 1.453125 0.484375q0.5625 0.265625 0.828125 0.671875q0.28125 0.390625 0.28125 0.953125q0 0.9375 -0.765625 1.515625q-0.75 0.5625 -1.953125 0.5625q-0.84375 0 -1.5 -0.296875q-0.640625 -0.296875 -1.015625 -0.828125q-0.359375 -0.546875 -0.359375 -1.171875l1.203125 0q0.03125 0.609375 0.484375 0.96875q0.453125 0.34375 1.1875 0.34375q0.6875 0 1.09375 -0.265625q0.421875 -0.28125 0.421875 -0.75zm4.7316895 -1.390625l-0.75 0.796875l0 2.46875l-1.203125 0l0 -10.0l1.203125 0l0 6.046875l0.640625 -0.765625l2.1875 -2.328125l1.46875 0l-2.734375 2.953125l3.046875 4.09375l-1.40625 0l-2.453125 -3.265625zm8.039047 -0.578125q0 -1.46875 0.390625 -2.828125q0.40625 -1.359375 1.1875 -2.453125q0.78125 -1.109375 1.609375 -1.5625l0.25 0.78125q-0.953125 0.734375 -1.5625 2.234375q-0.59375 1.5 -0.65625 3.34375l-0.015625 0.5625q0 2.515625 0.921875 4.359375q0.5625 1.109375 1.3125 1.734375l-0.25 0.734375q-0.859375 -0.484375 -1.640625 -1.625q-1.546875 -2.203125 -1.546875 -5.28125zm6.2430115 -4.90625l0 1.703125l1.3125 0l0 0.9375l-1.3125 0l0 4.359375q0 0.421875 0.171875 0.640625q0.171875 0.21875 0.59375 0.21875q0.21875 0 0.578125 -0.078125l0 0.96875q-0.46875 0.125 -0.921875 0.125q-0.8125 0 -1.21875 -0.484375q-0.40625 -0.484375 -0.40625 -1.390625l0 -4.359375l-1.28125 0l0 -0.9375l1.28125 0l0 -1.703125l1.203125 0zm7.072525 8.75q-0.109375 -0.203125 -0.171875 -0.734375q-0.84375 0.859375 -2.015625 0.859375q-1.03125 0 -1.703125 -0.578125q-0.671875 -0.59375 -0.671875 -1.5q0 -1.09375 0.828125 -1.703125q0.84375 -0.609375 2.359375 -0.609375l1.171875 0l0 -0.5625q0 -0.625 -0.375 -1.0q-0.375 -0.375 -1.109375 -0.375q-0.640625 0 -1.078125 0.328125q-0.4375 0.328125 -0.4375 0.78125l-1.203125 0q0 -0.515625 0.359375 -1.0q0.375 -0.5 1.015625 -0.78125q0.65625 -0.296875 1.421875 -0.296875q1.21875 0 1.90625 0.609375q0.6875 0.609375 0.71875 1.671875l0 3.25q0 0.96875 0.234375 1.53125l0 0.109375l-1.25 0zm-2.0 -0.921875q0.5625 0 1.0625 -0.28125q0.515625 -0.296875 0.734375 -0.765625l0 -1.453125l-0.9375 0q-2.21875 0 -2.21875 1.296875q0 0.5625 0.375 0.890625q0.390625 0.3125 0.984375 0.3125zm8.999771 -0.953125q0 -0.484375 -0.375 -0.75q-0.359375 -0.265625 -1.28125 -0.453125q-0.90625 -0.203125 -1.453125 -0.46875q-0.53125 -0.28125 -0.796875 -0.65625q-0.25 -0.390625 -0.25 -0.90625q0 -0.859375 0.734375 -1.453125q0.734375 -0.609375 1.875 -0.609375q1.1875 0 1.9375 0.625q0.75 0.609375 0.75 1.578125l-1.21875 0q0 -0.5 -0.421875 -0.859375q-0.421875 -0.359375 -1.046875 -0.359375q-0.65625 0 -1.03125 0.296875q-0.375 0.28125 -0.375 0.75q0 0.421875 0.34375 0.65625q0.34375 0.21875 1.25 0.421875q0.90625 0.203125 1.453125 0.484375q0.5625 0.265625 0.828125 0.671875q0.28125 0.390625 0.28125 0.953125q0 0.9375 -0.765625 1.515625q-0.75 0.5625 -1.953125 0.5625q-0.84375 0 -1.5 -0.296875q-0.640625 -0.296875 -1.015625 -0.828125q-0.359375 -0.546875 -0.359375 -1.171875l1.203125 0q0.03125 0.609375 0.484375 0.96875q0.453125 0.34375 1.1875 0.34375q0.6875 0 1.09375 -0.265625q0.421875 -0.28125 0.421875 -0.75zm4.7316895 -1.390625l-0.75 0.796875l0 2.46875l-1.203125 0l0 -10.0l1.203125 0l0 6.046875l0.640625 -0.765625l2.1875 -2.328125l1.46875 0l-2.734375 2.953125l3.046875 4.09375l-1.40625 0l-2.453125 -3.265625zm9.398422 3.265625l-1.203125 0l0 -10.0l1.203125 0l0 10.0zm1.6094208 -3.578125q0 -1.046875 0.40625 -1.875q0.40625 -0.828125 1.125 -1.265625q0.734375 -0.453125 1.65625 -0.453125q1.4375 0 2.328125 1.0q0.890625 0.984375 0.890625 2.640625l0 0.09375q0 1.015625 -0.390625 1.84375q-0.390625 0.8125 -1.125 1.265625q-0.734375 0.453125 -1.6875 0.453125q-1.421875 0 -2.3125 -0.984375q-0.890625 -1.0 -0.890625 -2.640625l0 -0.078125zm1.203125 0.140625q0 1.171875 0.546875 1.875q0.546875 0.703125 1.453125 0.703125q0.921875 0 1.453125 -0.71875q0.546875 -0.71875 0.546875 -2.0q0 -1.171875 -0.546875 -1.890625q-0.546875 -0.71875 -1.46875 -0.71875q-0.890625 0 -1.4375 0.71875q-0.546875 0.703125 -0.546875 2.03125zm7.8511963 -3.609375l0.046875 0.890625q0.796875 -1.015625 2.109375 -1.015625q2.234375 0 2.25 2.515625l0 4.65625l-1.203125 0l0 -4.65625q-0.015625 -0.765625 -0.359375 -1.125q-0.328125 -0.375 -1.0625 -0.375q-0.578125 0 -1.03125 0.3125q-0.4375 0.3125 -0.6875 0.828125l0 5.015625l-1.203125 0l0 -7.046875l1.140625 0zm5.932022 3.46875q0 -1.640625 0.75 -2.609375q0.765625 -0.984375 2.03125 -0.984375q1.28125 0 2.015625 0.90625l0.046875 -0.78125l1.109375 0l0 6.875q0 1.375 -0.8125 2.15625q-0.8125 0.78125 -2.1875 0.78125q-0.75 0 -1.484375 -0.328125q-0.734375 -0.3125 -1.109375 -0.875l0.625 -0.734375q0.765625 0.96875 1.890625 0.96875q0.875 0 1.359375 -0.5q0.5 -0.5 0.5 -1.390625l0 -0.609375q-0.71875 0.828125 -1.96875 0.828125q-1.234375 0 -2.0 -0.984375q-0.765625 -1.0 -0.765625 -2.71875zm1.203125 0.140625q0 1.1875 0.484375 1.875q0.5 0.671875 1.375 0.671875q1.140625 0 1.671875 -1.03125l0 -3.21875q-0.546875 -1.015625 -1.65625 -1.015625q-0.875 0 -1.375 0.6875q-0.5 0.6875 -0.5 2.03125zm9.477554 3.5625q-1.421875 0 -2.328125 -0.9375q-0.890625 -0.9375 -0.890625 -2.515625l0 -0.21875q0 -1.046875 0.390625 -1.859375q0.40625 -0.828125 1.125 -1.296875q0.71875 -0.46875 1.5625 -0.46875q1.375 0 2.125 0.90625q0.765625 0.90625 0.765625 2.59375l0 0.5l-4.765625 0q0.015625 1.03125 0.59375 1.671875q0.59375 0.640625 1.484375 0.640625q0.640625 0 1.078125 -0.25q0.453125 -0.265625 0.78125 -0.6875l0.734375 0.5625q-0.875 1.359375 -2.65625 1.359375zm-0.140625 -6.3125q-0.734375 0 -1.234375 0.53125q-0.484375 0.53125 -0.609375 1.484375l3.53125 0l0 -0.078125q-0.046875 -0.921875 -0.5 -1.421875q-0.4375 -0.515625 -1.1875 -0.515625zm7.6860504 0.21875q-0.265625 -0.03125 -0.59375 -0.03125q-1.1875 0 -1.609375 1.0l0 5.0l-1.203125 0l0 -7.046875l1.171875 0l0.03125 0.8125q0.578125 -0.9375 1.671875 -0.9375q0.34375 0 0.53125 0.09375l0 1.109375zm6.0438385 -2.78125l0 1.703125l1.3125 0l0 0.9375l-1.3125 0l0 4.359375q0 0.421875 0.171875 0.640625q0.171875 0.21875 0.59375 0.21875q0.21875 0 0.578125 -0.078125l0 0.96875q-0.46875 0.125 -0.921875 0.125q-0.8125 0 -1.21875 -0.484375q-0.40625 -0.484375 -0.40625 -1.390625l0 -4.359375l-1.28125 0l0 -0.9375l1.28125 0l0 -1.703125l1.203125 0zm3.916275 2.5625q0.8125 -0.984375 2.09375 -0.984375q2.234375 0 2.25 2.515625l0 4.65625l-1.203125 0l0 -4.65625q-0.015625 -0.765625 -0.359375 -1.125q-0.328125 -0.375 -1.0625 -0.375q-0.578125 0 -1.03125 0.3125q-0.4375 0.3125 -0.6875 0.828125l0 5.015625l-1.203125 0l0 -10.0l1.203125 0l0 3.8125zm10.497131 6.1875q-0.109375 -0.203125 -0.171875 -0.734375q-0.84375 0.859375 -2.015625 0.859375q-1.03125 0 -1.703125 -0.578125q-0.671875 -0.59375 -0.671875 -1.5q0 -1.09375 0.828125 -1.703125q0.84375 -0.609375 2.359375 -0.609375l1.171875 0l0 -0.5625q0 -0.625 -0.375 -1.0q-0.375 -0.375 -1.109375 -0.375q-0.640625 0 -1.078125 0.328125q-0.4375 0.328125 -0.4375 0.78125l-1.203125 0q0 -0.515625 0.359375 -1.0q0.375 -0.5 1.015625 -0.78125q0.65625 -0.296875 1.421875 -0.296875q1.21875 0 1.90625 0.609375q0.6875 0.609375 0.71875 1.671875l0 3.25q0 0.96875 0.234375 1.53125l0 0.109375l-1.25 0zm-2.0 -0.921875q0.5625 0 1.0625 -0.28125q0.515625 -0.296875 0.734375 -0.765625l0 -1.453125l-0.9375 0q-2.21875 0 -2.21875 1.296875q0 0.5625 0.375 0.890625q0.390625 0.3125 0.984375 0.3125zm6.0310364 -6.125l0.046875 0.890625q0.796875 -1.015625 2.109375 -1.015625q2.234375 0 2.25 2.515625l0 4.65625l-1.203125 0l0 -4.65625q-0.015625 -0.765625 -0.359375 -1.125q-0.328125 -0.375 -1.0625 -0.375q-0.578125 0 -1.03125 0.3125q-0.4375 0.3125 -0.6875 0.828125l0 5.015625l-1.203125 0l0 -7.046875l1.140625 0zm9.950256 2.296875l0.484375 -4.71875l4.84375 0l0 1.109375l-3.828125 0l-0.28125 2.578125q0.6875 -0.40625 1.578125 -0.40625q1.296875 0 2.046875 0.859375q0.765625 0.84375 0.765625 2.3125q0 1.453125 -0.796875 2.296875q-0.78125 0.84375 -2.203125 0.84375q-1.25 0 -2.046875 -0.6875q-0.796875 -0.703125 -0.90625 -1.9375l1.140625 0q0.109375 0.828125 0.578125 1.234375q0.46875 0.40625 1.234375 0.40625q0.84375 0 1.3125 -0.5625q0.484375 -0.578125 0.484375 -1.578125q0 -0.953125 -0.515625 -1.53125q-0.515625 -0.578125 -1.375 -0.578125q-0.78125 0 -1.234375 0.34375l-0.328125 0.265625l-0.953125 -0.25zm12.874695 0.703125q0 2.125 -0.734375 3.15625q-0.71875 1.015625 -2.25 1.015625q-1.515625 0 -2.25 -1.0q-0.71875 -1.0 -0.75 -3.0l0 -1.609375q0 -2.09375 0.71875 -3.109375q0.71875 -1.015625 2.265625 -1.015625q1.53125 0 2.25 0.984375q0.71875 0.984375 0.75 3.015625l0 1.5625zm-1.203125 -1.640625q0 -1.53125 -0.4375 -2.21875q-0.421875 -0.703125 -1.359375 -0.703125q-0.921875 0 -1.34375 0.703125q-0.421875 0.6875 -0.4375 2.125l0 1.921875q0 1.546875 0.4375 2.28125q0.453125 0.71875 1.359375 0.71875q0.890625 0 1.3125 -0.6875q0.4375 -0.6875 0.46875 -2.171875l0 -1.96875zm7.299164 -1.359375l0.03125 0.78125q0.765625 -0.90625 2.09375 -0.90625q1.46875 0 2.0 1.125q0.359375 -0.5 0.921875 -0.8125q0.5625 -0.3125 1.328125 -0.3125q2.3125 0 2.359375 2.453125l0 4.71875l-1.203125 0l0 -4.640625q0 -0.765625 -0.34375 -1.140625q-0.34375 -0.375 -1.171875 -0.375q-0.65625 0 -1.109375 0.40625q-0.4375 0.40625 -0.515625 1.078125l0 4.671875l-1.203125 0l0 -4.609375q0 -1.546875 -1.5 -1.546875q-1.1875 0 -1.625 1.015625l0 5.140625l-1.203125 0l0 -7.046875l1.140625 0zm14.650391 5.171875q0 -0.484375 -0.375 -0.75q-0.359375 -0.265625 -1.28125 -0.453125q-0.90625 -0.203125 -1.453125 -0.46875q-0.53125 -0.28125 -0.796875 -0.65625q-0.25 -0.390625 -0.25 -0.90625q0 -0.859375 0.734375 -1.453125q0.734375 -0.609375 1.875 -0.609375q1.1875 0 1.9375 0.625q0.75 0.609375 0.75 1.578125l-1.21875 0q0 -0.5 -0.421875 -0.859375q-0.421875 -0.359375 -1.046875 -0.359375q-0.65625 0 -1.03125 0.296875q-0.375 0.28125 -0.375 0.75q0 0.421875 0.34375 0.65625q0.34375 0.21875 1.25 0.421875q0.90625 0.203125 1.453125 0.484375q0.5625 0.265625 0.828125 0.671875q0.28125 0.390625 0.28125 0.953125q0 0.9375 -0.765625 1.515625q-0.75 0.5625 -1.953125 0.5625q-0.84375 0 -1.5 -0.296875q-0.640625 -0.296875 -1.015625 -0.828125q-0.359375 -0.546875 -0.359375 -1.171875l1.203125 0q0.03125 0.609375 0.484375 0.96875q0.453125 0.34375 1.1875 0.34375q0.6875 0 1.09375 -0.265625q0.421875 -0.28125 0.421875 -0.75zm5.5441895 -1.90625q0 1.453125 -0.390625 2.78125q-0.375 1.328125 -1.15625 2.453125q-0.78125 1.125 -1.640625 1.609375l-0.25 -0.734375q1.0 -0.765625 1.609375 -2.375q0.609375 -1.625 0.625 -3.609375l0 -0.203125q0 -1.359375 -0.296875 -2.53125q-0.28125 -1.1875 -0.796875 -2.109375q-0.5 -0.9375 -1.140625 -1.453125l0.25 -0.734375q0.859375 0.46875 1.640625 1.59375q0.78125 1.109375 1.15625 2.453125q0.390625 1.328125 0.390625 2.859375z" fill-rule="nonzero"/><path fill="#d9ead3" d="m50.860416 493.40756l35.267628 0l0 16.401367l-35.267628 0z" fill-rule="evenodd"/><path stroke="#000000" stroke-width="1.0" stroke-linejoin="round" stroke-linecap="butt" stroke-dasharray="4.0,3.0" d="m50.860416 493.40756l35.267628 0l0 16.401367l-35.267628 0z" fill-rule="evenodd"/><path fill="#000000" fill-opacity="0.0" d="m97.59492 481.59384l317.15164 0l0 38.38669l-317.15164 0z" fill-rule="evenodd"/><path fill="#000000" d="m114.23554 497.13406l-3.046875 0l0 8.453125l-1.234375 0l0 -8.453125l-3.046875 0l0 -1.015625l7.328125 0l0 1.015625zm4.8419495 8.453125q-0.109375 -0.203125 -0.171875 -0.734375q-0.84375 0.859375 -2.015625 0.859375q-1.03125 0 -1.703125 -0.578125q-0.671875 -0.59375 -0.671875 -1.5q0 -1.09375 0.828125 -1.703125q0.84375 -0.609375 2.359375 -0.609375l1.171875 0l0 -0.5625q0 -0.625 -0.375 -1.0q-0.375 -0.375 -1.109375 -0.375q-0.640625 0 -1.078125 0.328125q-0.4375 0.328125 -0.4375 0.78125l-1.203125 0q0 -0.515625 0.359375 -1.0q0.375 -0.5 1.015625 -0.78125q0.65625 -0.296875 1.421875 -0.296875q1.21875 0 1.90625 0.609375q0.6875 0.609375 0.71875 1.671875l0 3.25q0 0.96875 0.234375 1.53125l0 0.109375l-1.25 0zm-2.0 -0.921875q0.5625 0 1.0625 -0.28125q0.515625 -0.296875 0.734375 -0.765625l0 -1.453125l-0.9375 0q-2.21875 0 -2.21875 1.296875q0 0.5625 0.375 0.890625q0.390625 0.3125 0.984375 0.3125zm8.999771 -0.953125q0 -0.484375 -0.375 -0.75q-0.359375 -0.265625 -1.28125 -0.453125q-0.90625 -0.203125 -1.453125 -0.46875q-0.53125 -0.28125 -0.796875 -0.65625q-0.25 -0.390625 -0.25 -0.90625q0 -0.859375 0.734375 -1.453125q0.734375 -0.609375 1.875 -0.609375q1.1875 0 1.9375 0.625q0.75 0.609375 0.75 1.578125l-1.21875 0q0 -0.5 -0.421875 -0.859375q-0.421875 -0.359375 -1.046875 -0.359375q-0.65625 0 -1.03125 0.296875q-0.375 0.28125 -0.375 0.75q0 0.421875 0.34375 0.65625q0.34375 0.21875 1.25 0.421875q0.90625 0.203125 1.453125 0.484375q0.5625 0.265625 0.828125 0.671875q0.28125 0.390625 0.28125 0.953125q0 0.9375 -0.765625 1.515625q-0.75 0.5625 -1.953125 0.5625q-0.84375 0 -1.5 -0.296875q-0.640625 -0.296875 -1.015625 -0.828125q-0.359375 -0.546875 -0.359375 -1.171875l1.203125 0q0.03125 0.609375 0.484375 0.96875q0.453125 0.34375 1.1875 0.34375q0.6875 0 1.09375 -0.265625q0.421875 -0.28125 0.421875 -0.75zm4.731682 -1.390625l-0.75 0.796875l0 2.46875l-1.203125 0l0 -10.0l1.203125 0l0 6.046875l0.640625 -0.765625l2.1875 -2.328125l1.46875 0l-2.734375 2.953125l3.046875 4.09375l-1.40625 0l-2.453125 -3.265625zm12.195297 1.390625q0 -0.484375 -0.375 -0.75q-0.359375 -0.265625 -1.28125 -0.453125q-0.90625 -0.203125 -1.453125 -0.46875q-0.53125 -0.28125 -0.796875 -0.65625q-0.25 -0.390625 -0.25 -0.90625q0 -0.859375 0.734375 -1.453125q0.734375 -0.609375 1.875 -0.609375q1.1875 0 1.9375 0.625q0.75 0.609375 0.75 1.578125l-1.21875 0q0 -0.5 -0.421875 -0.859375q-0.421875 -0.359375 -1.046875 -0.359375q-0.65625 0 -1.03125 0.296875q-0.375 0.28125 -0.375 0.75q0 0.421875 0.34375 0.65625q0.34375 0.21875 1.25 0.421875q0.90625 0.203125 1.453125 0.484375q0.5625 0.265625 0.828125 0.671875q0.28125 0.390625 0.28125 0.953125q0 0.9375 -0.765625 1.515625q-0.75 0.5625 -1.953125 0.5625q-0.84375 0 -1.5 -0.296875q-0.640625 -0.296875 -1.015625 -0.828125q-0.359375 -0.546875 -0.359375 -1.171875l1.203125 0q0.03125 0.609375 0.484375 0.96875q0.453125 0.34375 1.1875 0.34375q0.6875 0 1.09375 -0.265625q0.421875 -0.28125 0.421875 -0.75zm3.9660645 -4.3125q0.8125 -0.984375 2.09375 -0.984375q2.234375 0 2.25 2.515625l0 4.65625l-1.203125 0l0 -4.65625q-0.015625 -0.765625 -0.359375 -1.125q-0.328125 -0.375 -1.0625 -0.375q-0.578125 0 -1.03125 0.3125q-0.4375 0.3125 -0.6875 0.828125l0 5.015625l-1.203125 0l0 -10.0l1.203125 0l0 3.8125zm5.8252563 2.609375q0 -1.046875 0.40625 -1.875q0.40625 -0.828125 1.125 -1.265625q0.734375 -0.453125 1.65625 -0.453125q1.4375 0 2.328125 1.0q0.890625 0.984375 0.890625 2.640625l0 0.09375q0 1.015625 -0.390625 1.84375q-0.390625 0.8125 -1.125 1.265625q-0.734375 0.453125 -1.6875 0.453125q-1.421875 0 -2.3125 -0.984375q-0.890625 -1.0 -0.890625 -2.640625l0 -0.078125zm1.203125 0.140625q0 1.171875 0.546875 1.875q0.546875 0.703125 1.453125 0.703125q0.921875 0 1.453125 -0.71875q0.546875 -0.71875 0.546875 -2.0q0 -1.171875 -0.546875 -1.890625q-0.546875 -0.71875 -1.46875 -0.71875q-0.890625 0 -1.4375 0.71875q-0.546875 0.703125 -0.546875 2.03125zm10.116821 -2.53125q-0.265625 -0.03125 -0.59375 -0.03125q-1.1875 0 -1.609375 1.0l0 5.0l-1.203125 0l0 -7.046875l1.171875 0l0.03125 0.8125q0.578125 -0.9375 1.671875 -0.9375q0.34375 0 0.53125 0.09375l0 1.109375zm3.0698547 -2.78125l0 1.703125l1.3125 0l0 0.9375l-1.3125 0l0 4.359375q0 0.421875 0.171875 0.640625q0.171875 0.21875 0.59375 0.21875q0.21875 0 0.578125 -0.078125l0 0.96875q-0.46875 0.125 -0.921875 0.125q-0.8125 0 -1.21875 -0.484375q-0.40625 -0.484375 -0.40625 -1.390625l0 -4.359375l-1.28125 0l0 -0.9375l1.28125 0l0 -1.703125l1.203125 0zm5.635025 8.875q-1.421875 0 -2.328125 -0.9375q-0.890625 -0.9375 -0.890625 -2.515625l0 -0.21875q0 -1.046875 0.390625 -1.859375q0.40625 -0.828125 1.125 -1.296875q0.71875 -0.46875 1.5625 -0.46875q1.375 0 2.125 0.90625q0.765625 0.90625 0.765625 2.59375l0 0.5l-4.765625 0q0.015625 1.03125 0.59375 1.671875q0.59375 0.640625 1.484375 0.640625q0.640625 0 1.078125 -0.25q0.453125 -0.265625 0.78125 -0.6875l0.734375 0.5625q-0.875 1.359375 -2.65625 1.359375zm-0.140625 -6.3125q-0.734375 0 -1.234375 0.53125q-0.484375 0.53125 -0.609375 1.484375l3.53125 0l0 -0.078125q-0.046875 -0.921875 -0.5 -1.421875q-0.4375 -0.515625 -1.1875 -0.515625zm7.6860504 0.21875q-0.265625 -0.03125 -0.59375 -0.03125q-1.1875 0 -1.609375 1.0l0 5.0l-1.203125 0l0 -7.046875l1.171875 0l0.03125 0.8125q0.578125 -0.9375 1.671875 -0.9375q0.34375 0 0.53125 0.09375l0 1.109375zm6.0438385 -2.78125l0 1.703125l1.3125 0l0 0.9375l-1.3125 0l0 4.359375q0 0.421875 0.171875 0.640625q0.171875 0.21875 0.59375 0.21875q0.21875 0 0.578125 -0.078125l0 0.96875q-0.46875 0.125 -0.921875 0.125q-0.8125 0 -1.21875 -0.484375q-0.40625 -0.484375 -0.40625 -1.390625l0 -4.359375l-1.28125 0l0 -0.9375l1.28125 0l0 -1.703125l1.203125 0zm3.916275 2.5625q0.8125 -0.984375 2.09375 -0.984375q2.234375 0 2.25 2.515625l0 4.65625l-1.203125 0l0 -4.65625q-0.015625 -0.765625 -0.359375 -1.125q-0.328125 -0.375 -1.0625 -0.375q-0.578125 0 -1.03125 0.3125q-0.4375 0.3125 -0.6875 0.828125l0 5.015625l-1.203125 0l0 -10.0l1.203125 0l0 3.8125zm10.497131 6.1875q-0.109375 -0.203125 -0.171875 -0.734375q-0.84375 0.859375 -2.015625 0.859375q-1.03125 0 -1.703125 -0.578125q-0.671875 -0.59375 -0.671875 -1.5q0 -1.09375 0.828125 -1.703125q0.84375 -0.609375 2.359375 -0.609375l1.171875 0l0 -0.5625q0 -0.625 -0.375 -1.0q-0.375 -0.375 -1.109375 -0.375q-0.640625 0 -1.078125 0.328125q-0.4375 0.328125 -0.4375 0.78125l-1.203125 0q0 -0.515625 0.359375 -1.0q0.375 -0.5 1.015625 -0.78125q0.65625 -0.296875 1.421875 -0.296875q1.21875 0 1.90625 0.609375q0.6875 0.609375 0.71875 1.671875l0 3.25q0 0.96875 0.234375 1.53125l0 0.109375l-1.25 0zm-2.0 -0.921875q0.5625 0 1.0625 -0.28125q0.515625 -0.296875 0.734375 -0.765625l0 -1.453125l-0.9375 0q-2.21875 0 -2.21875 1.296875q0 0.5625 0.375 0.890625q0.390625 0.3125 0.984375 0.3125zm6.031021 -6.125l0.046875 0.890625q0.796875 -1.015625 2.109375 -1.015625q2.234375 0 2.25 2.515625l0 4.65625l-1.203125 0l0 -4.65625q-0.015625 -0.765625 -0.359375 -1.125q-0.328125 -0.375 -1.0625 -0.375q-0.578125 0 -1.03125 0.3125q-0.4375 0.3125 -0.6875 0.828125l0 5.015625l-1.203125 0l0 -7.046875l1.140625 0zm9.950272 2.296875l0.484375 -4.71875l4.84375 0l0 1.109375l-3.828125 0l-0.28125 2.578125q0.6875 -0.40625 1.578125 -0.40625q1.296875 0 2.046875 0.859375q0.765625 0.84375 0.765625 2.3125q0 1.453125 -0.796875 2.296875q-0.78125 0.84375 -2.203125 0.84375q-1.25 0 -2.046875 -0.6875q-0.796875 -0.703125 -0.90625 -1.9375l1.140625 0q0.109375 0.828125 0.578125 1.234375q0.46875 0.40625 1.234375 0.40625q0.84375 0 1.3125 -0.5625q0.484375 -0.578125 0.484375 -1.578125q0 -0.953125 -0.515625 -1.53125q-0.515625 -0.578125 -1.375 -0.578125q-0.78125 0 -1.234375 0.34375l-0.328125 0.265625l-0.953125 -0.25zm12.87468 0.703125q0 2.125 -0.734375 3.15625q-0.71875 1.015625 -2.25 1.015625q-1.515625 0 -2.25 -1.0q-0.71875 -1.0 -0.75 -3.0l0 -1.609375q0 -2.09375 0.71875 -3.109375q0.71875 -1.015625 2.265625 -1.015625q1.53125 0 2.25 0.984375q0.71875 0.984375 0.75 3.015625l0 1.5625zm-1.203125 -1.640625q0 -1.53125 -0.4375 -2.21875q-0.421875 -0.703125 -1.359375 -0.703125q-0.921875 0 -1.34375 0.703125q-0.421875 0.6875 -0.4375 2.125l0 1.921875q0 1.546875 0.4375 2.28125q0.453125 0.71875 1.359375 0.71875q0.890625 0 1.3125 -0.6875q0.4375 -0.6875 0.46875 -2.171875l0 -1.96875zm3.9996796 -1.359375l0.03125 0.78125q0.765625 -0.90625 2.09375 -0.90625q1.46875 0 2.0 1.125q0.359375 -0.5 0.921875 -0.8125q0.5625 -0.3125 1.328125 -0.3125q2.3125 0 2.359375 2.453125l0 4.71875l-1.203125 0l0 -4.640625q0 -0.765625 -0.34375 -1.140625q-0.34375 -0.375 -1.171875 -0.375q-0.65625 0 -1.109375 0.40625q-0.4375 0.40625 -0.515625 1.078125l0 4.671875l-1.203125 0l0 -4.609375q0 -1.546875 -1.5 -1.546875q-1.1875 0 -1.625 1.015625l0 5.140625l-1.203125 0l0 -7.046875l1.140625 0zm14.650391 5.171875q0 -0.484375 -0.375 -0.75q-0.359375 -0.265625 -1.28125 -0.453125q-0.90625 -0.203125 -1.453125 -0.46875q-0.53125 -0.28125 -0.796875 -0.65625q-0.25 -0.390625 -0.25 -0.90625q0 -0.859375 0.734375 -1.453125q0.734375 -0.609375 1.875 -0.609375q1.1875 0 1.9375 0.625q0.75 0.609375 0.75 1.578125l-1.21875 0q0 -0.5 -0.421875 -0.859375q-0.421875 -0.359375 -1.046875 -0.359375q-0.65625 0 -1.03125 0.296875q-0.375 0.28125 -0.375 0.75q0 0.421875 0.34375 0.65625q0.34375 0.21875 1.25 0.421875q0.90625 0.203125 1.453125 0.484375q0.5625 0.265625 0.828125 0.671875q0.28125 0.390625 0.28125 0.953125q0 0.9375 -0.765625 1.515625q-0.75 0.5625 -1.953125 0.5625q-0.84375 0 -1.5 -0.296875q-0.640625 -0.296875 -1.015625 -0.828125q-0.359375 -0.546875 -0.359375 -1.171875l1.203125 0q0.03125 0.609375 0.484375 0.96875q0.453125 0.34375 1.1875 0.34375q0.6875 0 1.09375 -0.265625q0.421875 -0.28125 0.421875 -0.75z" fill-rule="nonzero"/><path fill="#d9ead3" d="m671.1441 294.0907l15.361694 0l0 29.695374l-15.361694 0z" fill-rule="evenodd"/><path stroke="#000000" stroke-width="1.0" stroke-linejoin="round" stroke-linecap="butt" stroke-dasharray="4.0,3.0" d="m671.1441 294.0907l15.361694 0l0 29.695374l-15.361694 0z" fill-rule="evenodd"/><path fill="#d9ead3" d="m472.84604 294.09036l15.361664 0l0 29.695343l-15.361664 0z" fill-rule="evenodd"/><path stroke="#000000" stroke-width="1.0" stroke-linejoin="round" stroke-linecap="butt" stroke-dasharray="4.0,3.0" d="m472.84604 294.09036l15.361664 0l0 29.695343l-15.361664 0z" fill-rule="evenodd"/><path fill="#000000" fill-opacity="0.0" d="m446.2209 23.580053l-0.12597656 451.3071" fill-rule="evenodd"/><path stroke="#ff0000" stroke-width="1.0" stroke-linejoin="round" stroke-linecap="butt" stroke-dasharray="4.0,3.0" d="m446.2209 23.580053l-0.12597656 451.3071" fill-rule="evenodd"/><path fill="#000000" fill-opacity="0.0" d="m542.1074 382.05032l-82.98816 0" fill-rule="evenodd"/><path stroke="#434343" stroke-width="1.0" stroke-linejoin="round" stroke-linecap="butt" d="m542.1074 382.05032l-76.98816 0" fill-rule="evenodd"/><path fill="#434343" stroke="#434343" stroke-width="1.0" stroke-linecap="butt" d="m465.11926 380.3986l-4.5381165 1.6517334l4.5381165 1.6517334z" fill-rule="evenodd"/><path fill="#000000" fill-opacity="0.0" d="m414.67758 474.88715l62.834625 0l0 41.95276l-62.834625 0z" fill-rule="evenodd"/><path fill="#000000" d="m443.38004 492.23914l-3.484375 0l0 9.484375l-2.34375 0l0 -9.484375l-3.4375 0l0 -1.890625l9.265625 0l0 1.890625zm10.0234375 0l-3.484375 0l0 9.484375l-2.34375 0l0 -9.484375l-3.4375 0l0 -1.890625l9.265625 0l0 1.890625zm3.8359375 9.484375l-2.34375 0l0 -11.375l2.34375 0l0 11.375z" fill-rule="nonzero"/><path fill="#000000" fill-opacity="0.0" d="m206.03937 210.65486l35.27559 0l0 29.700775l-35.27559 0z" fill-rule="evenodd"/><path fill="#000000" d="m228.83342 220.10088q2.109375 2.109375 2.109375 5.09375q0 2.984375 -2.109375 5.09375q-2.109375 2.109375 -5.09375 2.109375q-2.984375 0 -5.09375 -2.109375q-2.109375 -2.109375 -2.109375 -5.09375q0 -2.984375 2.109375 -5.09375q2.109375 -2.109375 5.09375 -2.109375q2.984375 0 5.09375 2.109375zm-0.40625 9.78125q1.9375 -1.9375 1.9375 -4.6875q0 -2.75 -1.9375 -4.6875q-1.9375 -1.9375 -4.6875 -1.9375q-2.75 0 -4.6875 1.9375q-1.9375 1.9375 -1.9375 4.6875q0 2.75 1.9375 4.6875q1.9375 1.9375 4.6875 1.9375q2.75 0 4.6875 -1.9375zm-3.8125 -9.78125l0 10.015625l-1.34375 0l0 -7.859375l-2.28125 0l0 -0.9375q2.15625 0.125 2.75 -1.21875l0.875 0z" fill-rule="nonzero"/><path fill="#000000" fill-opacity="0.0" d="m501.2047 217.91602l35.275574 0l0 29.700775l-35.275574 0z" fill-rule="evenodd"/><path fill="#000000" d="m521.9519 230.17453q0 1.171875 -0.828125 2.109375q-0.703125 0.640625 -1.8125 1.453125q-1.984375 1.46875 -2.28125 2.34375l5.21875 0l0 1.296875l-6.75 0l0 -1.171875q0.59375 -1.40625 2.109375 -2.640625q1.640625 -1.28125 2.296875 -1.9375q0.640625 -0.578125 0.640625 -1.453125q0 -0.765625 -0.53125 -1.296875q-0.34375 -0.34375 -1.171875 -0.34375q-0.8125 0 -1.171875 0.34375q-0.53125 0.53125 -0.40625 1.46875l-1.46875 0q-0.0625 -1.40625 0.765625 -2.234375q0.875 -0.875 2.28125 -0.875q1.40625 0 2.234375 0.828125q0.875 0.875 0.875 2.109375zm2.046875 -2.8125q2.109375 2.109375 2.109375 5.09375q0 2.984375 -2.109375 5.09375q-2.109375 2.109375 -5.09375 2.109375q-2.984375 0 -5.09375 -2.109375q-2.109375 -2.109375 -2.109375 -5.09375q0 -2.984375 2.109375 -5.09375q2.109375 -2.109375 5.09375 -2.109375q2.984375 0 5.09375 2.109375zm-0.40625 9.78125q1.9375 -1.9375 1.9375 -4.6875q0 -2.75 -1.9375 -4.6875q-1.9375 -1.9375 -4.6875 -1.9375q-2.75 0 -4.6875 1.9375q-1.9375 1.9375 -1.9375 4.6875q0 2.75 1.9375 4.6875q1.9375 1.9375 4.6875 1.9375q2.75 0 4.6875 -1.9375z" fill-rule="nonzero"/><path fill="#000000" fill-opacity="0.0" d="m459.1181 352.3491l35.275604 0l0 29.700775l-35.275604 0z" fill-rule="evenodd"/><path fill="#000000" d="m481.91214 361.7951q2.109375 2.109375 2.109375 5.09375q0 2.984375 -2.109375 5.09375q-2.109375 2.109375 -5.09375 2.109375q-2.9843445 0 -5.0937195 -2.109375q-2.109375 -2.109375 -2.109375 -5.09375q0 -2.984375 2.109375 -5.09375q2.109375 -2.109375 5.0937195 -2.109375q2.984375 0 5.09375 2.109375zm-0.40625 9.78125q1.9375 -1.9375 1.9375 -4.6875q0 -2.75 -1.9375 -4.6875q-1.9375 -1.9375 -4.6875 -1.9375q-2.7499695 0 -4.6874695 1.9375q-1.9375 1.9375 -1.9375 4.6875q0 2.75 1.9375 4.6875q1.9375 1.9375 4.6874695 1.9375q2.75 0 4.6875 -1.9375zm-5.6875 -5.6875q1.578125 0.0625 2.046875 -0.40625q0.421875 -0.40625 0.421875 -1.109375q0 -0.703125 -0.46875 -1.171875q-0.359375 -0.359375 -1.125 -0.359375q-0.8125 0 -1.28125 0.46875q-0.40621948 0.40625 -0.5312195 0.875l-1.515625 0q0.234375 -0.9375 0.875 -1.578125q0.9374695 -0.9375 2.5155945 -0.9375q1.40625 0 2.234375 0.828125q0.703125 0.703125 0.703125 1.6875q0 1.0625 -0.53125 1.59375q-0.640625 0.640625 -1.40625 0.75q1.046875 0.234375 1.515625 0.703125q0.703125 0.703125 0.703125 1.703125q0 1.296875 -0.8125 2.109375q-0.9375 0.9375 -2.578125 0.9375q-1.5780945 0 -2.4062195 -0.8125q-0.703125 -0.703125 -0.8125 -1.875l1.453125 0q0.0625 0.640625 0.42184448 0.984375q0.46875 0.46875 1.34375 0.46875q0.9375 0 1.46875 -0.515625q0.46875 -0.46875 0.46875 -1.234375q0 -0.828125 -0.46875 -1.296875q-0.59375 -0.578125 -2.234375 -0.578125l0 -1.234375z" fill-rule="nonzero"/><path fill="#000000" fill-opacity="0.0" d="m428.51968 501.8084l35.275604 0l0 29.700806l-35.275604 0z" fill-rule="evenodd"/><path fill="#000000" d="m451.31372 511.25443q2.109375 2.1093445 2.109375 5.0937195q0 2.984375 -2.109375 5.09375q-2.109375 2.109375 -5.09375 2.109375q-2.984375 0 -5.09375 -2.109375q-2.109375 -2.109375 -2.109375 -5.09375q0 -2.984375 2.109375 -5.0937195q2.109375 -2.109375 5.09375 -2.109375q2.984375 0 5.09375 2.109375zm-0.40625 9.7812195q1.9375 -1.9375 1.9375 -4.6875q0 -2.75 -1.9375 -4.6874695q-1.9375 -1.9375 -4.6875 -1.9375q-2.75 0 -4.6875 1.9375q-1.9375 1.9374695 -1.9375 4.6874695q0 2.75 1.9375 4.6875q1.9375 1.9375 4.6875 1.9375q2.75 0 4.6875 -1.9375zm-2.8125 -1.875l0 2.109375l-1.34375 0l0 -2.109375l-4.578125 0l0 -1.296875l4.390625 -6.6093445l1.53125 0l0 6.6093445l1.28125 0l0 1.296875l-1.28125 0zm-1.34375 -1.296875l0 -4.734375l-3.171875 4.734375l3.171875 0z" fill-rule="nonzero"/></g></svg>