<svg xmlns="http://www.w3.org/2000/svg" xmlns:xlink="http://www.w3.org/1999/xlink" xmlns:lucid="lucid" width="1340" height="480"><g transform="translate(0 0)" lucid:page-tab-id="0_0"><path d="M128 200c17.67 0 32 17.9 32 40s-14.33 40-32 40H32c-17.67 0-32-17.9-32-40s14.33-40 32-40z" stroke="#666" fill="#83bbe5"/><use xlink:href="#a" transform="matrix(1,0,0,1,5,205) translate(32.980000000000004 42.0625)"/><use xlink:href="#b" transform="matrix(1,0,0,1,5,205) translate(79.7 42.0625)"/><path d="M220 188c0-4.42 3.58-8 8-8h144c4.42 0 8 3.58 8 8v104c0 4.42-3.58 8-8 8H228c-4.42 0-8-3.58-8-8z" stroke="#666" fill="#0c7cba"/><use xlink:href="#c" transform="matrix(1,0,0,1,225,185) translate(41.21 38.625)"/><use xlink:href="#d" transform="matrix(1,0,0,1,225,185) translate(19.57 62.144999999999996)"/><use xlink:href="#e" transform="matrix(1,0,0,1,225,185) translate(42.11 85.66499999999999)"/><path d="M480 188c0-4.42 3.58-8 8-8h144c4.42 0 8 3.58 8 8v104c0 4.42-3.58 8-8 8H488c-4.42 0-8-3.58-8-8z" stroke="#666" fill="#0c7cba"/><use xlink:href="#f" transform="matrix(1,0,0,1,485,185) translate(0.6899999999999977 62.6875)"/><use xlink:href="#g" transform="matrix(1,0,0,1,485,185) translate(84.31 62.6875)"/><use xlink:href="#h" transform="matrix(1,0,0,1,485,185) translate(136.65 62.6875)"/><path d="M700 188c0-4.42 3.58-8 8-8h144c4.42 0 8 3.58 8 8v104c0 4.42-3.58 8-8 8H708c-4.42 0-8-3.58-8-8z" stroke="#666" fill="#0c7cba"/><use xlink:href="#i" transform="matrix(1,0,0,1,705,185) translate(9.609999999999985 48.9375)"/><use xlink:href="#j" transform="matrix(1,0,0,1,705,185) translate(75.72999999999999 48.9375)"/><use xlink:href="#k" transform="matrix(1,0,0,1,705,185) translate(42.78 72.4575)"/><use xlink:href="#l" transform="matrix(1,0,0,1,705,185) translate(95.12 72.4575)"/><path d="M1088 200c17.67 0 32 17.9 32 40s-14.33 40-32 40h-96c-17.67 0-32-17.9-32-40s14.33-40 32-40z" stroke="#666" fill="#83bbe5"/><use xlink:href="#m" transform="matrix(1,0,0,1,965,205) translate(28.96 42.0625)"/><use xlink:href="#n" transform="matrix(1,0,0,1,965,205) translate(56.9 42.0625)"/><path d="M161 240h42.12" stroke="#666" fill="none"/><path d="M161 240.5h-.53l.03-.5-.02-.5h.53z" fill="#666"/><path d="M217.88 240l-14.26 4.64v-9.28z" stroke="#666" fill="#666"/><path d="M381 240h82.12" stroke="#666" fill="none"/><path d="M381 240.5h-.5v-1h.5z" fill="#666"/><path d="M477.88 240l-14.26 4.64v-9.28z" stroke="#666" fill="#666"/><path d="M641 240h42.12" stroke="#666" fill="none"/><path d="M641 240.5h-.5v-1h.5z" fill="#666"/><path d="M697.88 240l-14.26 4.64v-9.28z" stroke="#666" fill="#666"/><path d="M580 8c0-4.42 3.58-8 8-8h144c4.42 0 8 3.58 8 8v104c0 4.42-3.58 8-8 8H588c-4.42 0-8-3.58-8-8z" stroke="#666" fill="#0c7cba"/><use xlink:href="#f" transform="matrix(1,0,0,1,585,5) translate(1.0999999999999943 62.6875)"/><use xlink:href="#g" transform="matrix(1,0,0,1,585,5) translate(84.72 62.6875)"/><use xlink:href="#o" transform="matrix(1,0,0,1,585,5) translate(137.06 62.6875)"/><path d="M580 368c0-4.42 3.58-8 8-8h144c4.42 0 8 3.58 8 8v104c0 4.42-3.58 8-8 8H588c-4.42 0-8-3.58-8-8z" stroke="#666" fill="#0c7cba"/><use xlink:href="#i" transform="matrix(1,0,0,1,585,365) translate(9.609999999999985 48.9375)"/><use xlink:href="#j" transform="matrix(1,0,0,1,585,365) translate(75.72999999999999 48.9375)"/><use xlink:href="#k" transform="matrix(1,0,0,1,585,365) translate(42.92 72.4575)"/><use xlink:href="#p" transform="matrix(1,0,0,1,585,365) translate(95.26 72.4575)"/><path d="M381 240l2.88-.07 3.25-.2 3.12-.33 3.03-.45 2.95-.56 2.88-.7 2.84-.78 2.8-.9 2.76-1.03 2.75-1.17 2.76-1.3 2.77-1.45 2.8-1.6 2.84-1.8 2.9-2.03 2.98-2.26 3.1-2.56 3.2-2.9 3.4-3.32 3.6-3.86 3.94-4.55 4.34-5.48 5-6.88 6.1-9.22 8.97-14.88 31.1-54.36 6.12-9.22 5-6.88 4.33-5.5 3.93-4.54 3.62-3.86 3.4-3.32 3.2-2.9 3.1-2.55 2.98-2.25 2.9-2.02 2.83-1.8 2.8-1.6 2.76-1.46 2.75-1.3L552.5 65l2.77-1 2.8-.92 2.82-.8 2.34-.54" stroke="#666" fill="none"/><path d="M381.03 240.5h-.53v-1h.5z" fill="#666"/><path d="M577.9 60.17l-13.7 6.13-1-9.22z" stroke="#666" fill="#666"/><path d="M741 60l3.6.1 3.9.23 3.74.4 3.6.53 3.52.67 3.42.8 3.34.93 3.3 1.07 3.25 1.2 3.23 1.37 3.22 1.52 3.24 1.7 3.27 1.88 3.3 2.1 3.4 2.35 3.48 2.65 3.62 3 3.78 3.4 4 3.93 4.34 4.6 4.76 5.53 5.44 6.87 6.62 9.13 9.62 14.56 33.66 53.52 6.62 9.13 5.44 6.87 4.76 5.52 4.33 4.6 4 3.94 3.78 3.4 3.6 3 3.5 2.65 3.38 2.35 3.3 2.1 3.28 1.9 3.24 1.68 3.22 1.52 3.23 1.36 3.26 1.2 3.28 1.08 3.34.93 3.42.8 2.56.5" stroke="#666" fill="none"/><path d="M741.03 59.5l-.02 1h-.5v-1z" fill="#666"/><path d="M957.9 239.86l-14.63 3.36.8-9.23z" stroke="#666" fill="#666"/><path d="M741 420l3.6-.1 3.9-.23 3.74-.4 3.6-.53 3.52-.67 3.42-.8 3.34-.93 3.3-1.07 3.25-1.2 3.23-1.37 3.22-1.52 3.24-1.7 3.27-1.88 3.3-2.1 3.4-2.35 3.48-2.65 3.62-3 3.78-3.4 4-3.93 4.34-4.6 4.76-5.53 5.44-6.87 6.62-9.13 9.62-14.56 33.66-53.52 6.62-9.13 5.44-6.87 4.76-5.52 4.33-4.6 4-3.94 3.78-3.4 3.6-3 3.5-2.65 3.38-2.35 3.3-2.1 3.28-1.9 3.24-1.68 3.22-1.52 3.23-1.36 3.26-1.2 3.28-1.08 3.34-.93 3.42-.8 2.56-.5" stroke="#666" fill="none"/><path d="M741.03 420.5h-.53v-1h.5z" fill="#666"/><path d="M957.9 240.14L944.07 246l-.8-9.22z" stroke="#666" fill="#666"/><path d="M861 240h82.12" stroke="#666" fill="none"/><path d="M861 240.5h-.5v-1h.5z" fill="#666"/><path d="M957.88 240l-14.26 4.64v-9.28z" stroke="#666" fill="#666"/><path d="M381 240l2.88.07 3.25.2 3.12.33 3.03.45 2.95.56 2.88.7 2.84.78 2.8.9 2.76 1.03 2.75 1.17 2.76 1.3 2.77 1.45 2.8 1.6 2.84 1.8 2.9 2.03 2.98 2.26 3.1 2.56 3.2 2.9 3.4 3.32 3.6 3.86 3.94 4.55 4.34 5.48 5 6.88 6.1 9.22 8.97 14.88 31.1 54.36 6.12 9.22 5 6.88 4.33 5.5 3.93 4.54 3.62 3.86 3.4 3.32 3.2 2.9 3.1 2.55 2.98 2.25 2.9 2.02 2.83 1.8 2.8 1.6 2.76 1.46 2.75 1.3 2.75 1.16 2.77 1 2.8.92 2.82.8 2.34.54" stroke="#666" fill="none"/><path d="M381.03 239.5l-.02 1h-.5v-1z" fill="#666"/><path d="M577.9 419.83l-14.7 3.1 1-9.23z" stroke="#666" fill="#666"/><path d="M1212 180h112c8.84 0 16 26.86 16 60s-7.16 60-16 60h-112l-32-60z" stroke="#666" fill="#0c7cba"/><g><use xlink:href="#q" transform="matrix(1,0,0,1,1185,185) translate(35.45499999999999 48.9375)"/><use xlink:href="#r" transform="matrix(1,0,0,1,1185,185) translate(32.834999999999994 72.4575)"/></g><path d="M1121.5 240h39.43" stroke="#000" stroke-width="2" fill="none"/><path d="M1121.53 241h-1.1l.07-1-.03-1h1.06z"/><path d="M1176.2 240l-14.27 4.64v-9.28z" stroke="#000" stroke-width="2"/><defs><path fill="#fff" d="M547-478c0 191-151 258-350 237V0H60v-693c55-11 127-17 193-17 172 0 294 58 294 232zm-144-2c0-106-104-123-206-107v227c108 15 206-7 206-120" id="s"/><path fill="#fff" d="M306-378c-38-49-172-17-221 4l-31-97c53-24 132-39 210-39 122 0 181 55 180 175-1 112-20 242 11 336H349l-21-69h-5c-28 41-74 78-147 76C81 5 23-45 23-138c0-142 140-164 291-160 5-37 4-65-8-80zM157-158c-3 37 24 59 62 59 49 0 79-27 96-55v-65c-71-4-153-3-158 61" id="t"/><path fill="#fff" d="M283-512c75-1 146 12 197 30V0c1 145-82 211-224 212-78 1-132-10-176-31l27-103c36 13 74 27 129 27 98 0 121-48 117-144h-4C326-8 284 8 225 8 81 8 33-84 33-240c-1-172 82-272 250-272zM167-245c0 83 22 149 93 149 55 0 75-25 90-68v-225c-21-9-46-13-77-13-80 0-107 63-106 157" id="u"/><path fill="#fff" d="M291-90c49 0 97-19 123-38l43 85c-40 32-117 57-191 57C103 14 34-89 33-250c-2-167 81-264 240-264 129 0 199 68 200 202 0 33-4 65-10 95H163c5 84 39 127 128 127zm61-208c5-67-19-112-81-112-71-1-98 47-105 112h186" id="v"/><g id="a"><use transform="matrix(0.02,0,0,0.02,0,0)" xlink:href="#s"/><use transform="matrix(0.02,0,0,0.02,10.86,0)" xlink:href="#t"/><use transform="matrix(0.02,0,0,0.02,20.78,0)" xlink:href="#u"/><use transform="matrix(0.02,0,0,0.02,31.5,0)" xlink:href="#v"/></g><path fill="#fff" d="M178 14C100 13 61-20 61-100v-600h130v532c1 39 5 67 38 67 22 0 33-3 52-11l14 102c-24 12-77 25-117 24" id="w"/><path fill="#fff" d="M269 14C107 14 36-88 33-250c-2-161 81-264 236-264 162 0 233 102 235 264 2 161-80 264-235 264zm0-418c-78 0-104 61-102 154 1 82 21 154 102 154 80 0 101-62 101-154 0-83-21-154-101-154" id="x"/><path fill="#fff" d="M261-512c41 0 62 4 91 15v-203h130v524c0 66 0 116 10 177h-93l-18-65h-4c-25 45-77 80-146 78C90 11 33-84 33-242c0-161 72-270 228-270zm-94 274c0 76 22 141 94 142 54 0 79-28 91-72v-212c-20-15-39-23-75-22-89 3-110 60-110 164" id="y"/><g id="b"><use transform="matrix(0.02,0,0,0.02,0,0)" xlink:href="#w"/><use transform="matrix(0.02,0,0,0.02,5.88,0)" xlink:href="#x"/><use transform="matrix(0.02,0,0,0.02,16.62,0)" xlink:href="#t"/><use transform="matrix(0.02,0,0,0.02,26.54,0)" xlink:href="#y"/></g><path fill="#fff" d="M376-109c57 1 96-12 130-32l28 112C494 1 420 14 351 14 136 14 41-127 38-350c-3-258 153-398 418-356 28 4 50 12 68 19l-27 116c-35-16-76-21-131-21-127 0-187 96-184 242 2 141 56 237 194 241" id="z"/><path fill="#fff" d="M338-514c121 0 155 79 155 203V0H363v-284c-1-72-12-113-77-115-52-1-86 36-99 75V0H57v-500h103l15 66h4c32-43 81-80 159-80" id="A"/><path fill="#fff" d="M200-90c53 9 88-53 47-80-80-53-213-55-211-192 2-102 65-152 171-152 67 0 135 17 175 39l-29 94c-31-11-84-29-129-29-54 0-78 51-41 74 81 50 213 53 211 187-2 110-75 163-194 163C133 14 65-7 25-31l36-97c31 17 89 40 139 38" id="B"/><path fill="#fff" d="M208 14C110 12 74-35 74-138v-252H5v-110h69v-94l130-37v131h122v110H204v192c2 58 2 97 50 97 30 0 44-6 67-16l23 100c-34 16-86 31-136 31" id="C"/><g id="c"><use transform="matrix(0.02,0,0,0.02,0,0)" xlink:href="#z"/><use transform="matrix(0.02,0,0,0.02,10.459999999999997,0)" xlink:href="#x"/><use transform="matrix(0.02,0,0,0.02,21.2,0)" xlink:href="#A"/><use transform="matrix(0.02,0,0,0.02,32.1,0)" xlink:href="#B"/><use transform="matrix(0.02,0,0,0.02,40.54,0)" xlink:href="#v"/><use transform="matrix(0.02,0,0,0.02,50.7,0)" xlink:href="#A"/><use transform="matrix(0.02,0,0,0.02,61.6,0)" xlink:href="#C"/></g><path fill="#fff" d="M557-399c-51 0-73 31-86 71V0H341v-272c-3-78 0-124-67-127-48-2-73 31-87 66V0H57v-500h101l15 66h4c32-41 75-82 150-80 72 1 105 28 126 85 29-48 73-83 146-85 130-3 157 84 156 214V0H625v-281c-3-70-2-118-68-118" id="D"/><g id="d"><use transform="matrix(0.02,0,0,0.02,0,0)" xlink:href="#D"/><use transform="matrix(0.02,0,0,0.02,16.1,0)" xlink:href="#t"/><use transform="matrix(0.02,0,0,0.02,26.020000000000007,0)" xlink:href="#A"/><use transform="matrix(0.02,0,0,0.02,36.92,0)" xlink:href="#t"/><use transform="matrix(0.02,0,0,0.02,46.84,0)" xlink:href="#u"/><use transform="matrix(0.02,0,0,0.02,57.56,0)" xlink:href="#v"/><use transform="matrix(0.02,0,0,0.02,67.72,0)" xlink:href="#D"/><use transform="matrix(0.02,0,0,0.02,83.82000000000001,0)" xlink:href="#v"/><use transform="matrix(0.02,0,0,0.02,93.97999999999999,0)" xlink:href="#A"/><use transform="matrix(0.02,0,0,0.02,104.88,0)" xlink:href="#C"/></g><path fill="#fff" d="M278 14c-42 0-63-5-91-19v205H57v-700h95l15 60h4c33-47 73-74 148-74 142 0 188 93 188 251 0 164-68 277-229 277zm95-280c0-79-20-138-93-138-57 0-77 30-93 76v208c20 15 38 25 74 24 90-3 112-66 112-170" id="E"/><path fill="#fff" d="M344-585c-48-18-132-27-132 43 0 12-2 26-2 42h110v110H210V0H80v-390H11v-110h69c-6-133 36-207 156-208 53 0 98 6 133 19" id="F"/><path fill="#fff" d="M177-434c23-61 95-96 173-66l-17 122c-64-28-134-1-146 55V0H57v-500h101l15 66h4" id="G"/><g id="e"><use transform="matrix(0.02,0,0,0.02,0,0)" xlink:href="#E"/><use transform="matrix(0.02,0,0,0.02,10.8,0)" xlink:href="#w"/><use transform="matrix(0.02,0,0,0.02,16.68,0)" xlink:href="#t"/><use transform="matrix(0.02,0,0,0.02,26.6,0)" xlink:href="#F"/><use transform="matrix(0.02,0,0,0.02,32.92,0)" xlink:href="#x"/><use transform="matrix(0.02,0,0,0.02,43.660000000000004,0)" xlink:href="#G"/><use transform="matrix(0.02,0,0,0.02,50.68000000000001,0)" xlink:href="#D"/></g><path fill="#fff" d="M405-155H190L137 0H0l252-705h101L605 0H461zM225-265h150c-28-85-59-167-73-266h-5c-14 99-44 182-72 266" id="H"/><path fill="#fff" d="M211 14C88 14 52-63 52-189v-311h130v284c2 72 6 113 71 115 52 1 83-37 98-76v-323h130c6 167-14 358 16 500h-98l-23-74h-4c-29 48-84 88-161 88" id="I"/><path fill="#fff" d="M68-500h130V0H68v-500zm62-73c-46 0-81-26-81-68s35-70 81-70c45 0 85 29 85 70 0 42-40 68-85 68" id="J"/><path fill="#fff" d="M284-101c43 1 72-13 97-29l30 99c-37 28-97 45-160 45C91 14 37-90 33-250c-5-193 117-299 311-255 22 6 43 14 61 23l-31 106c-30-14-55-23-97-23-82 0-111 56-110 149 1 86 32 146 117 149" id="K"/><g id="f"><use transform="matrix(0.02,0,0,0.02,0,0)" xlink:href="#H"/><use transform="matrix(0.02,0,0,0.02,12.1,0)" xlink:href="#I"/><use transform="matrix(0.02,0,0,0.02,22.86,0)" xlink:href="#y"/><use transform="matrix(0.02,0,0,0.02,33.64,0)" xlink:href="#J"/><use transform="matrix(0.02,0,0,0.02,39.02,0)" xlink:href="#v"/><use transform="matrix(0.02,0,0,0.02,49.18000000000001,0)" xlink:href="#A"/><use transform="matrix(0.02,0,0,0.02,60.08,0)" xlink:href="#K"/><use transform="matrix(0.02,0,0,0.02,68.4,0)" xlink:href="#v"/></g><g id="g"><use transform="matrix(0.02,0,0,0.02,0,0)" xlink:href="#B"/><use transform="matrix(0.02,0,0,0.02,8.44,0)" xlink:href="#K"/><use transform="matrix(0.02,0,0,0.02,17.1,0)" xlink:href="#G"/><use transform="matrix(0.02,0,0,0.02,24.12,0)" xlink:href="#J"/><use transform="matrix(0.02,0,0,0.02,29.5,0)" xlink:href="#E"/><use transform="matrix(0.02,0,0,0.02,40.3,0)" xlink:href="#C"/></g><path fill="#fff" d="M225-356L30-700h165c44 91 102 168 132 273l23-71 113-202h149L410-363 622 0H459L336-216l-27-74-26 74L159 0H10" id="L"/><use transform="matrix(0.02,0,0,0.02,0,0)" xlink:href="#L" id="h"/><path fill="#fff" d="M453-293H197V0H60v-700h137v285h256v-285h137V0H453v-293" id="M"/><g id="i"><use transform="matrix(0.02,0,0,0.02,0,0)" xlink:href="#M"/><use transform="matrix(0.02,0,0,0.02,13.02,0)" xlink:href="#v"/><use transform="matrix(0.02,0,0,0.02,23.18,0)" xlink:href="#t"/><use transform="matrix(0.02,0,0,0.02,33.1,0)" xlink:href="#y"/><use transform="matrix(0.02,0,0,0.02,43.88,0)" xlink:href="#v"/><use transform="matrix(0.02,0,0,0.02,54.04000000000001,0)" xlink:href="#G"/></g><path fill="#fff" d="M254 12C182 13 102-2 57-22v-678h130v240h4c26-30 72-53 127-52 135 3 185 99 185 249 0 170-87 274-249 275zm7-110c84 0 108-64 108-161 0-95-30-143-89-143-53 1-78 30-93 72v218c20 10 44 14 74 14" id="N"/><g id="j"><use transform="matrix(0.02,0,0,0.02,0,0)" xlink:href="#N"/><use transform="matrix(0.02,0,0,0.02,10.72,0)" xlink:href="#J"/><use transform="matrix(0.02,0,0,0.02,16.1,0)" xlink:href="#y"/><use transform="matrix(0.02,0,0,0.02,26.88,0)" xlink:href="#y"/><use transform="matrix(0.02,0,0,0.02,37.660000000000004,0)" xlink:href="#J"/><use transform="matrix(0.02,0,0,0.02,43.04000000000001,0)" xlink:href="#A"/><use transform="matrix(0.02,0,0,0.02,53.94,0)" xlink:href="#u"/></g><g id="k"><use transform="matrix(0.02,0,0,0.02,0,0)" xlink:href="#B"/><use transform="matrix(0.02,0,0,0.02,8.44,0)" xlink:href="#K"/><use transform="matrix(0.02,0,0,0.02,17.1,0)" xlink:href="#G"/><use transform="matrix(0.02,0,0,0.02,24.12,0)" xlink:href="#J"/><use transform="matrix(0.02,0,0,0.02,29.5,0)" xlink:href="#E"/><use transform="matrix(0.02,0,0,0.02,40.3,0)" xlink:href="#C"/></g><use transform="matrix(0.02,0,0,0.02,0,0)" xlink:href="#H" id="l"/><g id="m"><use transform="matrix(0.02,0,0,0.02,0,0)" xlink:href="#H"/><use transform="matrix(0.02,0,0,0.02,12.1,0)" xlink:href="#y"/></g><path fill="#fff" d="M294-512c70 0 134 13 186 30v682H350V-43h-4c-24 35-61 58-121 57C86 11 33-87 33-240c0-174 90-272 261-272zM167-245c0 83 22 149 93 149 55 0 75-25 90-68v-225c-20-11-45-13-77-13-81 0-106 67-106 157" id="O"/><g id="n"><use transform="matrix(0.02,0,0,0.02,0,0)" xlink:href="#G"/><use transform="matrix(0.02,0,0,0.02,7.0200000000000005,0)" xlink:href="#v"/><use transform="matrix(0.02,0,0,0.02,17.080000000000002,0)" xlink:href="#O"/><use transform="matrix(0.02,0,0,0.02,27.800000000000004,0)" xlink:href="#I"/><use transform="matrix(0.02,0,0,0.02,38.56,0)" xlink:href="#v"/><use transform="matrix(0.02,0,0,0.02,48.72,0)" xlink:href="#B"/><use transform="matrix(0.02,0,0,0.02,57.15999999999999,0)" xlink:href="#C"/></g><path fill="#fff" d="M228-260L-2-700h163l128 263 14 74h5l15-76 124-261h147L365-261V0H228v-260" id="P"/><use transform="matrix(0.02,0,0,0.02,0,0)" xlink:href="#P" id="o"/><path fill="#fff" d="M60-695c185-21 473-52 471 158-1 92-49 143-125 162v6c89 16 147 67 147 172C553-34 410 14 236 10 176 9 111 6 60-5v-690zm132 586c98 16 219 8 219-95 1-107-113-99-219-98v193zm200-400c5-96-111-93-200-84v187c105 7 195-13 200-103" id="Q"/><use transform="matrix(0.02,0,0,0.02,0,0)" xlink:href="#Q" id="p"/><path fill="#fff" d="M524-513c0 116-60 187-147 215l49 31L586 0H428L269-274l-72-13V0H60v-693c195-32 464-42 464 180zm-144 21c0-92-93-108-183-91v203c104 6 183-11 183-112" id="R"/><g id="q"><use transform="matrix(0.02,0,0,0.02,0,0)" xlink:href="#R"/><use transform="matrix(0.02,0,0,0.02,11.080000000000002,0)" xlink:href="#v"/><use transform="matrix(0.02,0,0,0.02,21.240000000000002,0)" xlink:href="#A"/><use transform="matrix(0.02,0,0,0.02,32.14,0)" xlink:href="#y"/><use transform="matrix(0.02,0,0,0.02,42.92,0)" xlink:href="#v"/><use transform="matrix(0.02,0,0,0.02,53.08,0)" xlink:href="#G"/><use transform="matrix(0.02,0,0,0.02,60.1,0)" xlink:href="#J"/><use transform="matrix(0.02,0,0,0.02,65.48,0)" xlink:href="#A"/><use transform="matrix(0.02,0,0,0.02,76.38000000000001,0)" xlink:href="#u"/></g><path fill="#fff" d="M419-500c36 113 86 213 109 339h4c18-121 52-226 78-339h119L575 5h-96L378-275l-13-63h-5l-12 64L252 5h-99L-8-500h141c29 113 73 211 85 340h5c19-127 66-227 100-340h96" id="S"/><path fill="#fff" d="M222-207h-35V0H57v-700h130v413l30-14 114-199h143L354-310l-51 38 55 39L493 0H344" id="T"/><g id="r"><use transform="matrix(0.02,0,0,0.02,0,0)" xlink:href="#F"/><use transform="matrix(0.02,0,0,0.02,6.42,0)" xlink:href="#G"/><use transform="matrix(0.02,0,0,0.02,13.44,0)" xlink:href="#t"/><use transform="matrix(0.02,0,0,0.02,23.36,0)" xlink:href="#D"/><use transform="matrix(0.02,0,0,0.02,39.46,0)" xlink:href="#v"/><use transform="matrix(0.02,0,0,0.02,49.51999999999999,0)" xlink:href="#S"/><use transform="matrix(0.02,0,0,0.02,63.76,0)" xlink:href="#x"/><use transform="matrix(0.02,0,0,0.02,74.5,0)" xlink:href="#G"/><use transform="matrix(0.02,0,0,0.02,81.52,0)" xlink:href="#T"/></g></defs></g></svg>