<svg width="360" height="144" viewBox="0 0 360 144" fill="none" xmlns="http://www.w3.org/2000/svg">
<g clip-path="url(#clip0_1864_2099)">
<path d="M164.934 217.984C184.749 218.628 206.128 217.145 228.152 213.262C281.489 203.857 326.457 182.517 352.119 157.354M164.934 217.984C104.986 216.036 59.3507 194.62 53.4763 161.305C45.6602 116.977 111.193 68.3704 199.848 52.7381C288.502 37.1059 366.708 60.3679 374.524 104.695C377.637 122.354 369.111 140.692 352.119 157.354M164.934 217.984C196.595 268.927 237.96 297.74 269.749 286.17C312.046 270.775 321.374 189.719 290.585 105.125C287.177 95.7624 283.421 86.7486 279.377 78.1421M164.934 217.984C159.132 208.648 153.655 198.568 148.623 187.858M148.623 187.858C144.579 179.251 140.823 170.238 137.415 160.875C106.625 76.2812 115.954 -4.77516 158.251 -20.1699C195.866 -33.8607 246.888 8.99003 279.377 78.1421M148.623 187.858C156.396 193.334 164.621 198.599 173.25 203.581C251.212 248.592 332.656 253.481 355.162 214.5C364.128 198.971 362.387 178.823 352.119 157.354M148.623 187.858C86.163 143.854 52.8231 86.1664 72.8377 51.5C95.3433 12.5191 176.788 17.4077 254.75 62.4189C263.379 67.4009 271.603 72.6655 279.377 78.1421M279.377 78.1421C313.858 102.434 339.464 130.897 352.119 157.354M377 133C377 223.022 304.022 296 214 296C123.978 296 51 223.022 51 133C51 42.9776 123.978 -30 214 -30C304.022 -30 377 42.9776 377 133ZM296.327 215.327C232.672 278.983 144.21 293.727 98.7417 248.258C53.2735 202.79 68.0172 114.328 131.673 50.6726C195.328 -12.9829 283.79 -27.7266 329.258 17.7416C374.727 63.2098 359.983 151.672 296.327 215.327Z" stroke="#AAEEFF" stroke-width="0.582143"/>
<g clip-path="url(#clip1_1864_2099)">
<path d="M258.161 116.664H259.265L264.467 128.883H263.206L261.945 125.966H255.481L254.219 128.883H252.958L258.161 116.664ZM257.373 132.312C258.266 132.312 259.015 132.614 259.619 133.219C260.224 133.823 260.526 134.572 260.526 135.465C260.526 135.938 260.427 136.392 260.23 136.825C260.033 137.259 259.751 137.633 259.383 137.949L258.2 139.052L260.684 141.535L263.167 139.092L264.073 139.959L261.59 142.442L263.797 144.649L262.93 145.516L260.723 143.309L258.634 145.398C258.292 145.74 257.918 146.003 257.511 146.187C257.103 146.37 256.65 146.462 256.151 146.462C255.31 146.462 254.587 146.16 253.983 145.556C253.378 144.951 253.076 144.216 253.076 143.349C253.076 142.902 253.162 142.468 253.332 142.048C253.503 141.627 253.773 141.273 254.14 140.984L256.387 138.895L255.126 137.673C254.811 137.384 254.574 137.049 254.416 136.668C254.259 136.287 254.18 135.899 254.18 135.505C254.18 134.611 254.489 133.856 255.106 133.238C255.724 132.621 256.479 132.312 257.373 132.312ZM257.254 139.801L255.008 141.851C254.797 142.035 254.633 142.258 254.515 142.521C254.397 142.784 254.338 143.06 254.338 143.349C254.338 143.874 254.522 144.314 254.889 144.669C255.257 145.024 255.704 145.201 256.23 145.201C256.519 145.201 256.781 145.135 257.018 145.004C257.254 144.873 257.478 144.702 257.688 144.492L259.816 142.403L257.254 139.801ZM257.333 133.534C256.808 133.534 256.361 133.725 255.993 134.106C255.625 134.487 255.441 134.94 255.441 135.465C255.441 135.728 255.487 135.978 255.579 136.214C255.671 136.451 255.809 136.648 255.993 136.806L257.294 138.185L258.437 137.081C258.7 136.871 258.903 136.628 259.048 136.352C259.192 136.076 259.265 135.794 259.265 135.505C259.265 134.953 259.081 134.487 258.713 134.106C258.345 133.725 257.885 133.534 257.333 133.534ZM258.634 118.556L256.032 124.744H261.393L258.792 118.556H258.634ZM275.74 116.27C275.846 116.506 275.944 116.736 276.036 116.96C276.128 117.183 276.2 117.426 276.253 117.689L274.873 118.083L281.653 118.044V119.305H279.603C279.314 120.382 278.861 121.381 278.243 122.3C277.626 123.22 276.923 124.048 276.135 124.784C276.897 125.388 277.711 125.881 278.578 126.262C279.446 126.643 280.339 126.952 281.259 127.188L280.983 128.371C279.932 128.134 278.927 127.773 277.967 127.287C277.008 126.8 276.108 126.216 275.267 125.533C274.427 126.242 273.5 126.82 272.489 127.267C271.477 127.714 270.432 128.081 269.355 128.371L269.079 127.227C270.051 126.991 270.991 126.676 271.897 126.281C272.804 125.887 273.665 125.388 274.479 124.784C273.691 124.022 273.001 123.181 272.41 122.261C271.819 121.341 271.405 120.356 271.168 119.305H268.646V118.044L274.558 118.083C274.505 117.873 274.446 117.656 274.381 117.433C274.315 117.209 274.229 116.992 274.124 116.782L275.74 116.27ZM280.116 133.337L281.022 134.204L269.867 145.319L269 144.492L280.116 133.337ZM271.208 134.007C271.602 134.007 271.93 134.138 272.193 134.401C272.456 134.664 272.587 134.992 272.587 135.387C272.587 135.781 272.456 136.109 272.193 136.372C271.93 136.635 271.602 136.766 271.208 136.766C270.813 136.766 270.485 136.635 270.222 136.372C269.959 136.109 269.828 135.781 269.828 135.387C269.828 134.992 269.959 134.664 270.222 134.401C270.485 134.138 270.813 134.007 271.208 134.007ZM272.39 119.305C272.6 120.251 272.955 121.125 273.454 121.926C273.954 122.727 274.571 123.43 275.307 124.035C276.043 123.43 276.673 122.721 277.199 121.906C277.724 121.092 278.105 120.225 278.342 119.305H272.39ZM279.091 141.89C279.485 141.89 279.813 142.022 280.076 142.284C280.339 142.547 280.47 142.876 280.47 143.27C280.47 143.664 280.339 143.992 280.076 144.255C279.813 144.518 279.485 144.649 279.091 144.649C278.697 144.649 278.368 144.518 278.105 144.255C277.843 143.992 277.711 143.664 277.711 143.27C277.711 142.876 277.843 142.547 278.105 142.284C278.368 142.022 278.697 141.89 279.091 141.89Z" fill="#99DD33"/>
</g>
<path d="M297.231 13.2157C293.116 14.3017 288.315 14.7875 283.857 14.7875C279.399 14.7875 274.598 14.3017 270.482 13.2157L269.682 16.3593C272.597 17.1595 275.969 17.6739 279.113 17.9311V38.3643H282.256V28.9336H285.4V38.3643H288.544V17.9311C291.687 17.6739 295.059 17.1309 297.974 16.3593L297.231 13.2157ZM283.857 13.2157C285.6 13.2157 287 11.8154 287 10.0722C287 8.32891 285.6 6.92859 283.857 6.92859C282.114 6.92859 280.713 8.35749 280.713 10.0722C280.713 11.7868 282.142 13.2157 283.857 13.2157Z" stroke="#3399FF" stroke-width="0.756786"/>
<path d="M113.377 134.393C112.407 134.393 111.582 134.102 110.903 133.52C110.224 132.938 109.7 132.142 109.331 131.133C109.02 130.318 108.652 129.639 108.225 129.096C107.798 128.552 107.07 127.864 106.042 127.029C104.839 126.078 103.951 125.035 103.379 123.9C102.806 122.765 102.52 121.46 102.52 119.985C102.52 117.87 103.214 116.119 104.601 114.731C105.988 113.344 107.74 112.65 109.855 112.65C111.834 112.65 113.503 113.252 114.861 114.455C116.22 115.658 116.986 117.21 117.161 119.112H116.52C116.346 117.404 115.633 116.007 114.381 114.921C113.129 113.834 111.621 113.291 109.855 113.291C107.973 113.291 106.386 113.936 105.096 115.226C103.805 116.517 103.16 118.103 103.16 119.985C103.16 121.402 103.485 122.678 104.135 123.813C104.785 124.948 105.654 125.933 106.74 126.767C107.555 127.388 108.186 127.995 108.632 128.586C109.079 129.178 109.506 129.95 109.913 130.9C110.282 131.774 110.743 132.467 111.296 132.982C111.849 133.496 112.542 133.753 113.377 133.753C114.095 133.753 114.735 133.53 115.298 133.083C115.861 132.637 116.249 132.074 116.462 131.395H117.161C116.947 132.268 116.496 132.986 115.807 133.549C115.118 134.112 114.308 134.393 113.377 134.393ZM100.715 127.815C99.7838 126.748 99.061 125.545 98.5467 124.206C98.0325 122.867 97.7754 121.45 97.7754 119.956C97.7754 118.462 98.0325 117.031 98.5467 115.663C99.061 114.295 99.7838 113.087 100.715 112.039L101.181 112.417C100.288 113.465 99.6043 114.625 99.1289 115.896C98.6535 117.167 98.4157 118.52 98.4157 119.956C98.4157 121.353 98.6583 122.687 99.1434 123.958C99.6285 125.229 100.308 126.389 101.181 127.437L100.715 127.815ZM109.855 122.256C109.214 122.256 108.676 122.037 108.239 121.601C107.803 121.164 107.584 120.626 107.584 119.985C107.584 119.345 107.803 118.801 108.239 118.355C108.676 117.909 109.214 117.686 109.855 117.686C110.495 117.686 111.034 117.909 111.47 118.355C111.907 118.801 112.125 119.345 112.125 119.985C112.125 120.626 111.907 121.164 111.47 121.601C111.034 122.037 110.495 122.256 109.855 122.256Z" fill="#3399FF"/>
<path d="M331.593 100.691L331.098 100.225C329.177 98.4789 327.595 96.9799 326.353 95.7283C325.111 94.4767 324.127 93.3803 323.399 92.4392C322.671 91.4981 322.167 90.654 321.885 89.9069C321.604 89.1598 321.463 88.4176 321.463 87.6802C321.463 86.3218 321.924 85.1818 322.846 84.2601C323.768 83.3384 324.908 82.8775 326.266 82.8775C327.314 82.8775 328.289 83.1686 329.191 83.7507C330.094 84.3329 330.894 85.1867 331.593 86.3121C332.33 85.1673 333.14 84.3086 334.023 83.7362C334.906 83.1637 335.871 82.8775 336.919 82.8775C338.278 82.8775 339.418 83.3384 340.339 84.2601C341.261 85.1818 341.722 86.3218 341.722 87.6802C341.722 88.4176 341.581 89.1598 341.3 89.9069C341.019 90.654 340.514 91.4981 339.786 92.4392C339.059 93.3803 338.074 94.4767 336.832 95.7283C335.59 96.9799 334.009 98.4789 332.087 100.225L331.593 100.691ZM331.593 99.8179C333.475 98.0908 335.027 96.6161 336.25 95.3936C337.472 94.1711 338.443 93.1038 339.161 92.1918C339.878 91.2798 340.378 90.4696 340.66 89.7613C340.941 89.0531 341.082 88.3593 341.082 87.6802C341.082 86.4965 340.684 85.5068 339.888 84.7113C339.093 83.9157 338.103 83.5179 336.919 83.5179C335.949 83.5179 335.061 83.7992 334.256 84.362C333.451 84.9247 332.66 85.827 331.884 87.0689H331.302C330.506 85.827 329.706 84.9247 328.9 84.362C328.095 83.7992 327.217 83.5179 326.266 83.5179C325.102 83.5179 324.117 83.9157 323.312 84.7113C322.506 85.5068 322.104 86.5062 322.104 87.7093C322.104 88.3885 322.244 89.0773 322.526 89.7759C322.807 90.4745 323.302 91.2798 324.01 92.1918C324.719 93.1038 325.689 94.1711 326.921 95.3936C328.153 96.6161 329.71 98.0908 331.593 99.8179Z" fill="#FF66CC"/>
<path d="M171.503 126.796C172.571 126.796 173.483 126.413 174.239 125.647C174.996 124.88 175.375 123.973 175.375 122.925C175.375 121.858 174.991 120.946 174.225 120.189C173.458 119.432 172.551 119.054 171.503 119.054C170.436 119.054 169.524 119.437 168.767 120.203C168.01 120.97 167.632 121.877 167.632 122.925C167.632 123.992 168.015 124.904 168.782 125.661C169.548 126.418 170.455 126.796 171.503 126.796ZM171.503 126.098C170.611 126.098 169.859 125.787 169.248 125.166C168.636 124.545 168.331 123.798 168.331 122.925C168.331 122.032 168.641 121.28 169.262 120.669C169.883 120.058 170.63 119.752 171.503 119.752C172.396 119.752 173.148 120.063 173.759 120.684C174.37 121.305 174.676 122.052 174.676 122.925C174.676 123.818 174.366 124.57 173.745 125.181C173.124 125.792 172.377 126.098 171.503 126.098ZM171.503 130.144C169.097 130.144 166.895 129.489 164.896 128.179C162.897 126.869 161.374 125.118 160.326 122.925C161.374 120.732 162.897 118.981 164.896 117.671C166.895 116.361 169.097 115.706 171.503 115.706C173.91 115.706 176.112 116.361 178.111 117.671C180.109 118.981 181.633 120.732 182.68 122.925C181.633 125.118 180.109 126.869 178.111 128.179C176.112 129.489 173.91 130.144 171.503 130.144ZM171.503 129.503C173.754 129.503 175.816 128.911 177.689 127.728C179.561 126.544 180.992 124.943 181.982 122.925C180.992 120.907 179.561 119.306 177.689 118.122C175.816 116.939 173.754 116.347 171.503 116.347C169.252 116.347 167.191 116.939 165.318 118.122C163.445 119.306 162.014 120.907 161.025 122.925C162.014 124.943 163.445 126.544 165.318 127.728C167.191 128.911 169.252 129.503 171.503 129.503Z" fill="#FF66CC"/>
</g>
<defs>
<clipPath id="clip0_1864_2099">
<rect width="360" height="144" fill="white"/>
</clipPath>
<clipPath id="clip1_1864_2099">
<rect width="37.8393" height="19.7929" fill="white" transform="translate(248.347 112.446)"/>
</clipPath>
</defs>
</svg>
