<svg width="360" height="144" viewBox="0 0 360 144" fill="none" xmlns="http://www.w3.org/2000/svg">
<g clip-path="url(#clip0)">
<g clip-path="url(#clip1)">
<rect x="73.625" y="32.5" width="134" height="26" stroke="#FF66CC"/>
<path d="M198.852 40.7105L189.306 50.2564M189.306 40.7105L198.852 50.2564" stroke="#FF66CC"/>
<rect x="73.625" y="-17" width="134" height="26" stroke="#3399FF"/>
<rect x="77.625" y="-13" width="56.25" height="18" fill="#3399FF"/>
<path d="M257.125 45.5C257.125 52.6797 251.305 58.5 244.125 58.5C236.945 58.5 231.125 52.6797 231.125 45.5C231.125 38.3203 236.945 32.5 244.125 32.5C251.305 32.5 257.125 38.3203 257.125 45.5Z" stroke="#3399FF"/>
<circle cx="244.125" cy="45.5" r="8.5" stroke="#3399FF"/>
<mask id="mask0" style="mask-type:alpha" maskUnits="userSpaceOnUse" x="235" y="36" width="19" height="19">
<circle cx="244.125" cy="45.5" r="9" fill="#C4C4C4"/>
</mask>
<g mask="url(#mask0)">
<path d="M244.092 26.375L225 45.4669M246.478 28.7615L227.386 47.8534M248.865 31.148L229.773 50.2398M251.251 33.5345L232.159 52.6263M253.638 35.9209L234.546 55.0128M256.024 38.3074L236.932 57.3993M260.797 43.0804L241.705 62.1723M263.184 45.4669L244.092 64.5588M258.411 40.6939L239.319 59.7858" stroke="#3399FF"/>
</g>
<rect x="348.125" y="32.5" width="44" height="26" rx="13" stroke="#3399FF"/>
<path d="M369.625 45.5C369.625 50.1944 365.819 54 361.125 54C356.431 54 352.625 50.1944 352.625 45.5C352.625 40.8056 356.431 37 361.125 37C365.819 37 369.625 40.8056 369.625 45.5Z" stroke="#3399FF"/>
<mask id="mask1" style="mask-type:alpha" maskUnits="userSpaceOnUse" x="352" y="36" width="19" height="19">
<ellipse cx="361.125" cy="45.5" rx="9.00002" ry="9" fill="#C4C4C4"/>
</mask>
<g mask="url(#mask1)">
<path d="M361.092 26.375L342 45.4669M363.478 28.7615L344.386 47.8534M365.865 31.148L346.773 50.2398M368.251 33.5345L349.159 52.6263M370.638 35.9209L351.546 55.0128M373.024 38.3074L353.932 57.3993M377.797 43.0804L358.705 62.1723M380.184 45.4669L361.092 64.5588M375.411 40.6939L356.319 59.7858" stroke="#3399FF"/>
</g>
<rect x="280.625" y="32.5" width="44" height="26" rx="13" stroke="#3399FF"/>
<path fill-rule="evenodd" clip-rule="evenodd" d="M293.625 36.5C288.654 36.5 284.625 40.5294 284.625 45.5C284.625 50.4706 288.654 54.5 293.625 54.5H311.625C306.654 54.5 302.625 50.4706 302.625 45.5C302.625 40.5294 306.654 36.5 311.625 36.5H293.625Z" fill="#3399FF"/>
<circle cx="311.625" cy="45.5" r="8.5" stroke="#3399FF"/>
<circle cx="277.875" cy="-4" r="8.5" stroke="#3399FF"/>
<mask id="mask2" style="mask-type:alpha" maskUnits="userSpaceOnUse" x="268" y="-13" width="19" height="18">
<circle cx="277.875" cy="-4" r="9" fill="#C4C4C4"/>
</mask>
<g mask="url(#mask2)">
<path d="M277.842 -23.125L258.75 -4.03311M280.228 -20.7385L261.136 -1.64663M282.615 -18.352L263.523 0.739859M285.001 -15.9655L265.909 3.12634M287.388 -13.5791L268.296 5.51283M289.774 -11.1926L270.682 7.89932M294.547 -6.4196L275.455 12.6723M296.934 -4.03311L277.842 15.0588M292.161 -8.80608L273.069 10.2858" stroke="#3399FF"/>
</g>
</g>
</g>
<defs>
<clipPath id="clip0">
<rect width="360" height="144" fill="white"/>
</clipPath>
<clipPath id="clip1">
<rect width="360" height="360" fill="white" transform="translate(0 -76)"/>
</clipPath>
</defs>
</svg>
