<svg width="328" height="258" viewBox="0 0 328 258" fill="none" xmlns="http://www.w3.org/2000/svg"><g clip-path="url(#a)"><g clip-path="url(#b)"><path fill="#fff" fill-opacity=".01" stroke="#BB86FC" d="M227.167 166.114H375.62v32.212H227.167z"/><path d="m241.515 182.694-4.323-1.406.417-1.315 4.323 1.601-.052-4.817h1.354l-.104 4.857 4.219-1.654.429 1.315-4.336 1.497 2.904 3.828-1.107.821-2.786-3.972-2.657 3.946-1.106-.795 2.825-3.906ZM255.51 182.694l-4.323-1.406.417-1.315 4.323 1.601-.052-4.817h1.354l-.104 4.857 4.218-1.654.43 1.315-4.336 1.497 2.904 3.828-1.107.821-2.787-3.972-2.656 3.946-1.107-.795 2.826-3.906ZM269.505 182.694l-4.323-1.406.417-1.315 4.322 1.601-.052-4.817h1.355l-.105 4.857 4.219-1.654.43 1.315-4.336 1.497 2.904 3.828-1.107.821-2.787-3.972-2.656 3.946-1.107-.795 2.826-3.906ZM283.5 182.694l-4.323-1.406.416-1.315 4.323 1.601-.052-4.817h1.354l-.104 4.857 4.219-1.654.43 1.315-4.336 1.497 2.903 3.828-1.106.821-2.787-3.972-2.656 3.946-1.107-.795 2.826-3.906ZM297.494 182.694l-4.323-1.406.417-1.315 4.323 1.601-.052-4.817h1.354l-.104 4.857 4.219-1.654.429 1.315-4.336 1.497 2.904 3.828-1.107.821-2.786-3.972-2.656 3.946-1.107-.795 2.825-3.906Z" fill="#BB86FC"/><path fill-rule="evenodd" clip-rule="evenodd" d="m285 125.905 44.149-.097-.002-1-44.189.097c.026.33.039.664.042 1Zm-29.13-.936-75.037.165.002 1 74.998-.165c.001-.336.013-.67.037-1Z" fill="#BB86FC"/><rect x="259.668" y="115.237" width="21.141" height="21.141" rx="10.571" fill="#fff" fill-opacity=".01" stroke="#BB86FC"/><mask id="c" style="mask-type:alpha" maskUnits="userSpaceOnUse" x="259" y="114" width="23" height="23"><rect x="259.168" y="114.737" width="22.141" height="22.141" rx="11.071" fill="#fff"/></mask><g mask="url(#c)" stroke="#BB86FC"><path transform="rotate(135 114.457 111.649)" d="M0-.5h29.522"/><path d="m277.116 113.279-20.874 20.875M279.54 116.54l-20.875 20.875M281.964 119.802l-20.875 20.875M284.388 123.064l-20.875 20.875"/></g><path fill="#fff" fill-opacity=".01" stroke="#FF2D9F" d="M64.667 54h129v32.333h-129z"/><path d="m73.426 62.726 14.815 14.76m0-14.76-14.815 14.76" stroke="#FF2D9F"/><rect x="247.879" y="54" width="65.424" height="32.212" rx="16.106" fill="#fff" fill-opacity=".01" stroke="#BB86FC"/><rect x="286.626" y="59.535" width="21.141" height="21.141" rx="10.571" fill="#fff" fill-opacity=".01" stroke="#BB86FC"/><mask id="d" style="mask-type:alpha" maskUnits="userSpaceOnUse" x="286" y="59" width="23" height="23"><rect x="286.126" y="59.035" width="22.141" height="22.141" rx="11.071" fill="#fff"/></mask><g mask="url(#d)" stroke="#BB86FC"><path d="M301.649 54.315 280.774 75.19M304.074 57.577l-20.875 20.875"/><path transform="rotate(135 140.545 93.647)" d="M0-.5h29.522"/><path d="m308.921 64.1-20.875 20.875M311.345 67.362 290.47 88.237"/></g><rect x="204.667" y="54" width="32.212" height="32.212" rx="16.106" fill="#fff" fill-opacity=".01" stroke="#BB86FC"/><rect x="210.202" y="59.535" width="21.141" height="21.141" rx="10.571" fill="#fff" fill-opacity=".01" stroke="#BB86FC"/><mask id="e" style="mask-type:alpha" maskUnits="userSpaceOnUse" x="209" y="59" width="23" height="23"><rect x="209.702" y="59.035" width="22.141" height="22.141" rx="11.071" fill="#fff"/></mask><g mask="url(#e)" stroke="#BB86FC"><path transform="rotate(135 101.26 73.553)" d="M0-.5h29.522"/><path d="m227.65 57.577-20.875 20.875M230.073 60.838l-20.875 20.875M232.497 64.1l-20.875 20.875M234.921 67.362l-20.875 20.874"/></g></g></g><defs><clipPath id="a"><path fill="#fff" d="M0 0h328v258H0z"/></clipPath><clipPath id="b"><path fill="#fff" transform="translate(-70 -74)" d="M0 0h400v400H0z"/></clipPath></defs></svg>
