<svg width="640" height="320" viewBox="0 0 640 320" fill="none" xmlns="http://www.w3.org/2000/svg"><g clip-path="url(#a)"><path fill="#fff" d="M0 0h640v320H0z"/><path d="M177.5 240.5h-47v47h47v-47ZM265.5 240.5h-47v47h47v-47Z" stroke="#39F"/><path d="m230 263 8.69 10.5L254 255" stroke="#39F"/><path d="M369.5 32.5h-239v47h239v-47ZM336.544 47.485l16.971 16.971m0-16.97-16.971 16.97 16.971-16.97ZM753.5 240.5h-239v47h239v-47Z" stroke="#F6C"/><path d="m535.818 265.125-5.187-1.687.5-1.579 5.187 1.922-.062-5.781h1.625l-.125 5.828 5.062-1.984.516 1.578-5.203 1.797 3.484 4.593-1.328.985-3.344-4.766-3.187 4.735-1.328-.954 3.39-4.687ZM552.612 265.125l-5.187-1.687.5-1.579 5.187 1.922-.062-5.781h1.625l-.125 5.828 5.062-1.984.516 1.578-5.203 1.797 3.484 4.593-1.328.985-3.344-4.766-3.187 4.735-1.329-.954 3.391-4.687ZM569.406 265.125l-5.188-1.687.5-1.579 5.188 1.922-.063-5.781h1.625l-.125 5.828 5.063-1.984.515 1.578-5.203 1.797 3.485 4.593-1.328.985-3.344-4.766-3.188 4.735-1.328-.954 3.391-4.687ZM586.2 265.125l-5.188-1.687.5-1.579 5.188 1.922-.063-5.781h1.625l-.125 5.828 5.063-1.984.515 1.578-5.203 1.797 3.484 4.593-1.328.985-3.343-4.766-3.188 4.735-1.328-.954 3.391-4.687ZM602.993 265.125l-5.187-1.687.5-1.579 5.187 1.922-.062-5.781h1.625l-.125 5.828 5.062-1.984.516 1.578-5.203 1.797 3.484 4.593-1.328.985-3.344-4.766-3.187 4.735-1.328-.954 3.39-4.687Z" fill="#F6C"/><path d="M434 79.5c12.979 0 23.5-10.521 23.5-23.5S446.979 32.5 434 32.5 410.5 43.021 410.5 56s10.521 23.5 23.5 23.5Z" stroke="#39F"/><path d="M434 71.5c8.56 0 15.5-6.94 15.5-15.5 0-8.56-6.94-15.5-15.5-15.5-8.56 0-15.5 6.94-15.5 15.5 0 8.56 6.94 15.5 15.5 15.5Z" stroke="#39F"/><mask id="b" style="mask-type:alpha" maskUnits="userSpaceOnUse" x="418" y="40" width="32" height="32"><path d="M434 72c8.837 0 16-7.163 16-16s-7.163-16-16-16-16 7.163-16 16 7.163 16 16 16Z" fill="#C4C4C4"/></mask><g mask="url(#b)"><path d="m459.397 47.456-33.941 33.941M433.941 22 400 55.941 433.941 22Zm4.243 4.243-33.941 33.94 33.941-33.94Zm4.242 4.242-33.941 33.941 33.941-33.94Zm4.243 4.243-33.941 33.941 33.941-33.941Zm4.243 4.243-33.941 33.94 33.941-33.94Zm4.242 4.242-33.941 33.941 33.941-33.94Zm8.486 8.486-33.941 33.94L463.64 51.7Zm4.242 4.242-33.941 33.941 33.941-33.94Z" stroke="#39F"/></g><mask id="c" style="mask-type:alpha" maskUnits="userSpaceOnUse" x="626" y="40" width="32" height="32"><path d="M642 72c8.837 0 16-7.163 16-16s-7.163-16-16-16-16 7.163-16 16 7.163 16 16 16Z" fill="#C4C4C4"/></mask><g mask="url(#c)"><path d="m667.397 47.456-33.941 33.941M641.941 22 608 55.941 641.941 22Zm4.243 4.243-33.941 33.94 33.941-33.94Zm4.242 4.242-33.941 33.941 33.941-33.94Zm4.243 4.243-33.941 33.941 33.941-33.941Zm4.243 4.243-33.941 33.94 33.941-33.94Zm4.242 4.242-33.941 33.941 33.941-33.94Zm8.486 8.486-33.941 33.94L671.64 51.7Zm4.242 4.242-33.941 33.941 33.941-33.94Z" stroke="#39F"/></g><mask id="d" style="mask-type:alpha" maskUnits="userSpaceOnUse" x="374" y="248" width="32" height="32"><path d="M390 280c8.837 0 16-7.163 16-16s-7.163-16-16-16-16 7.163-16 16 7.163 16 16 16Z" fill="#C4C4C4"/></mask><g mask="url(#d)"><path d="m415.397 255.456-33.941 33.941M389.941 230 356 263.941 389.941 230Zm4.243 4.243-33.941 33.941 33.941-33.941Zm4.242 4.242-33.941 33.941 33.941-33.941Zm4.243 4.243-33.941 33.941 33.941-33.941Zm4.243 4.243-33.941 33.941 33.941-33.941Zm4.242 4.242-33.941 33.941 33.941-33.941Zm8.486 8.485-33.941 33.942 33.941-33.942Zm4.242 4.243-33.941 33.941 33.941-33.941Z" stroke="#39F"/></g><path d="M24 140h6.12v33.279h16.776v5.847H24V140ZM63.76 180c-2.66 0-5.064-.619-7.214-1.858-2.112-1.239-3.77-2.951-4.972-5.137-1.202-2.222-1.803-4.699-1.803-7.431 0-2.623.564-5.028 1.694-7.213 1.165-2.223 2.786-3.971 4.863-5.246 2.076-1.312 4.444-1.967 7.104-1.967 2.732 0 5.1.601 7.103 1.803 2.04 1.202 3.589 2.878 4.645 5.027 1.057 2.113 1.585 4.554 1.585 7.323 0 .327-.018.655-.055.983-.036.328-.054.51-.054.547H55.78c.183 2.477 1.075 4.389 2.678 5.737 1.603 1.348 3.424 2.022 5.464 2.022 3.133 0 5.538-1.457 7.214-4.371l5.136 2.459a14.196 14.196 0 0 1-5.027 5.355C69.133 179.344 66.638 180 63.76 180Zm6.885-17.76c-.073-.874-.364-1.766-.874-2.677s-1.312-1.676-2.405-2.295c-1.056-.656-2.386-.984-3.989-.984-1.785 0-3.333.547-4.645 1.639-1.275 1.093-2.15 2.532-2.623 4.317h14.536ZM90.886 180c-1.931 0-3.68-.383-5.246-1.148-1.53-.801-2.75-1.894-3.662-3.278-.874-1.421-1.311-3.024-1.311-4.809 0-2.842 1.056-5.082 3.17-6.721 2.149-1.64 4.863-2.459 8.141-2.459 2.878 0 5.337.492 7.378 1.475v-1.147c0-1.64-.656-2.988-1.968-4.044-1.275-1.093-2.823-1.639-4.645-1.639-2.768 0-4.99 1.129-6.666 3.387l-4.59-3.169a12.722 12.722 0 0 1 4.754-3.934c1.93-.911 4.098-1.366 6.502-1.366 3.971 0 7.032 1.001 9.181 3.005 2.186 1.967 3.279 4.754 3.279 8.361v16.612h-5.847v-3.334h-.328a10.735 10.735 0 0 1-3.334 3.06c-1.348.765-2.95 1.148-4.808 1.148Zm.983-4.973a7.275 7.275 0 0 0 3.716-.983c1.166-.692 2.077-1.585 2.732-2.678.692-1.129 1.039-2.331 1.039-3.606a12.664 12.664 0 0 0-6.175-1.585c-2.004 0-3.57.437-4.7 1.311-1.13.875-1.694 1.986-1.694 3.334 0 1.238.492 2.258 1.476 3.06 1.02.765 2.222 1.147 3.606 1.147ZM111.549 152.022h5.683v4.044h.328c.582-1.385 1.639-2.532 3.169-3.443 1.53-.947 3.097-1.421 4.699-1.421 1.312 0 2.387.182 3.224.547v6.284c-1.238-.62-2.622-.929-4.153-.929-1.967 0-3.624.765-4.972 2.295-1.312 1.494-1.967 3.333-1.967 5.519v14.208h-6.011v-27.104ZM133.054 152.022h5.683v3.606h.328c.802-1.311 1.968-2.386 3.498-3.224 1.53-.838 3.187-1.256 4.972-1.256 3.352 0 5.884.983 7.596 2.95 1.749 1.968 2.623 4.682 2.623 8.142v16.886h-6.011V163.06c0-4.262-1.986-6.393-5.956-6.393-2.004 0-3.625.801-4.864 2.404-1.238 1.603-1.858 3.497-1.858 5.683v14.372h-6.011v-27.104Z" fill="#3C4043"/><path d="M169.754 179.126V140h23.716v5.683h-17.705v11.475h15.956v5.684h-15.956v16.284h-6.011Z" fill="url(#e)"/><path d="M210.381 180c-2.877 0-5.409-.656-7.595-1.967a14.076 14.076 0 0 1-5.137-5.301c-1.238-2.222-1.858-4.736-1.858-7.541 0-2.768.62-5.264 1.858-7.486 1.239-2.259 2.951-4.044 5.137-5.355 2.186-1.312 4.718-1.967 7.595-1.967 2.842 0 5.356.655 7.541 1.967 2.186 1.311 3.898 3.096 5.137 5.355 1.239 2.222 1.858 4.718 1.858 7.486 0 2.805-.619 5.319-1.858 7.541a14.076 14.076 0 0 1-5.137 5.301c-2.185 1.311-4.699 1.967-7.541 1.967Zm0-5.41a8.63 8.63 0 0 0 4.263-1.093c1.311-.765 2.368-1.839 3.169-3.224.838-1.421 1.257-3.115 1.257-5.082 0-1.967-.419-3.643-1.257-5.027-.801-1.421-1.858-2.496-3.169-3.224a8.315 8.315 0 0 0-4.263-1.148c-1.53 0-2.969.383-4.316 1.148-1.312.728-2.387 1.803-3.225 3.224-.801 1.384-1.202 3.06-1.202 5.027s.401 3.661 1.202 5.082c.838 1.385 1.913 2.459 3.225 3.224a8.932 8.932 0 0 0 4.316 1.093Z" fill="url(#f)"/><path d="M229.819 179.126v-27.869h5.574v4.098h.327c.62-1.421 1.676-2.586 3.17-3.497 1.53-.947 3.169-1.421 4.918-1.421.765 0 1.402.055 1.912.164.547.109 1.039.237 1.476.383v6.12a14.676 14.676 0 0 0-2.131-.711 8.563 8.563 0 0 0-2.186-.273c-1.384 0-2.623.383-3.716 1.148-1.056.728-1.894 1.73-2.514 3.005-.619 1.239-.929 2.605-.929 4.099v14.754h-5.901Z" fill="url(#g)"/><path d="M251.751 179.126v-27.869h5.574v3.825h.328c.802-1.348 1.967-2.459 3.497-3.333 1.53-.911 3.224-1.366 5.082-1.366 2.077 0 3.844.491 5.301 1.475 1.457.984 2.495 2.222 3.115 3.716.91-1.457 2.149-2.678 3.715-3.661 1.567-1.02 3.48-1.53 5.738-1.53 3.279 0 5.72 1.001 7.323 3.005 1.602 1.967 2.404 4.59 2.404 7.869v17.869h-5.847V162.24c0-2.222-.492-3.843-1.475-4.863-.948-1.056-2.277-1.585-3.99-1.585-1.347 0-2.531.383-3.551 1.148-1.02.728-1.822 1.73-2.405 3.005-.546 1.275-.819 2.696-.819 4.263v14.918h-5.847V162.24c0-2.222-.492-3.843-1.476-4.863-.984-1.056-2.368-1.585-4.153-1.585-1.311 0-2.459.383-3.443 1.148-.983.765-1.766 1.785-2.349 3.06-.547 1.275-.82 2.696-.82 4.262v14.864h-5.902Z" fill="url(#h)"/><path d="M310.37 180c-3.352 0-6.029-.729-8.033-2.186-2.003-1.493-3.388-3.26-4.153-5.3l5.301-2.295c.655 1.493 1.603 2.641 2.841 3.442 1.239.765 2.641 1.148 4.208 1.148 1.457 0 2.714-.255 3.77-.765 1.057-.547 1.585-1.421 1.585-2.623 0-1.166-.528-2.022-1.585-2.569-1.056-.546-2.368-1.02-3.934-1.42l-3.333-.765a13.682 13.682 0 0 1-3.771-1.53 8.7 8.7 0 0 1-2.841-2.678c-.729-1.129-1.093-2.441-1.093-3.934 0-1.64.492-3.061 1.475-4.263.984-1.238 2.277-2.185 3.88-2.841 1.639-.692 3.406-1.038 5.3-1.038 2.587 0 4.846.51 6.776 1.53 1.968.983 3.407 2.477 4.317 4.48l-5.082 2.296c-.655-1.239-1.511-2.095-2.568-2.569-1.02-.51-2.149-.765-3.388-.765-1.384 0-2.55.292-3.497.875-.911.582-1.366 1.311-1.366 2.185 0 .947.4 1.694 1.202 2.241.838.546 1.858.983 3.06 1.311l4.044.984c2.768.692 4.845 1.748 6.229 3.169 1.385 1.385 2.077 3.079 2.077 5.082 0 1.785-.51 3.352-1.53 4.7-1.02 1.311-2.405 2.331-4.153 3.06-1.713.692-3.625 1.038-5.738 1.038Z" fill="url(#i)"/><path d="m328.253 166.667-.547-14.372V140h5.902v12.295l-.601 14.372h-4.754Zm2.404 12.787c-1.165 0-2.149-.401-2.951-1.203-.801-.801-1.202-1.766-1.202-2.896 0-1.129.401-2.095 1.202-2.896.802-.801 1.786-1.202 2.951-1.202 1.13 0 2.095.401 2.896 1.202.802.801 1.203 1.767 1.203 2.896 0 1.13-.401 2.095-1.203 2.896-.801.802-1.766 1.203-2.896 1.203Z" fill="url(#j)"/></g><defs><linearGradient id="e" x1="169.754" y1="180" x2="331.12" y2="128.589" gradientUnits="userSpaceOnUse"><stop offset=".068" stop-color="#39F"/><stop offset=".344" stop-color="#06F"/><stop offset=".62" stop-color="#93F"/><stop offset=".911" stop-color="#F39"/></linearGradient><linearGradient id="f" x1="169.754" y1="180" x2="331.12" y2="128.589" gradientUnits="userSpaceOnUse"><stop offset=".068" stop-color="#39F"/><stop offset=".344" stop-color="#06F"/><stop offset=".62" stop-color="#93F"/><stop offset=".911" stop-color="#F39"/></linearGradient><linearGradient id="g" x1="169.754" y1="180" x2="331.12" y2="128.589" gradientUnits="userSpaceOnUse"><stop offset=".068" stop-color="#39F"/><stop offset=".344" stop-color="#06F"/><stop offset=".62" stop-color="#93F"/><stop offset=".911" stop-color="#F39"/></linearGradient><linearGradient id="h" x1="169.754" y1="180" x2="331.12" y2="128.589" gradientUnits="userSpaceOnUse"><stop offset=".068" stop-color="#39F"/><stop offset=".344" stop-color="#06F"/><stop offset=".62" stop-color="#93F"/><stop offset=".911" stop-color="#F39"/></linearGradient><linearGradient id="i" x1="169.754" y1="180" x2="331.12" y2="128.589" gradientUnits="userSpaceOnUse"><stop offset=".068" stop-color="#39F"/><stop offset=".344" stop-color="#06F"/><stop offset=".62" stop-color="#93F"/><stop offset=".911" stop-color="#F39"/></linearGradient><linearGradient id="j" x1="169.754" y1="180" x2="331.12" y2="128.589" gradientUnits="userSpaceOnUse"><stop offset=".068" stop-color="#39F"/><stop offset=".344" stop-color="#06F"/><stop offset=".62" stop-color="#93F"/><stop offset=".911" stop-color="#F39"/></linearGradient><clipPath id="a"><path fill="#fff" d="M0 0h640v320H0z"/></clipPath></defs></svg>