<svg width="346" height="314" viewBox="0 0 346 314" fill="none" xmlns="http://www.w3.org/2000/svg">
<rect x="180" y="205.614" width="148.453" height="32.2119" fill="white" fill-opacity="0.01" stroke="#BB86FC"/>
<path d="M194.349 222.194L190.026 220.788L190.442 219.473L194.765 221.074L194.713 216.257H196.067L195.963 221.113L200.182 219.46L200.612 220.775L196.276 222.272L199.179 226.1L198.073 226.921L195.286 222.949L192.63 226.895L191.523 226.1L194.349 222.194Z" fill="#BB86FC"/>
<path d="M208.343 222.194L204.02 220.788L204.437 219.473L208.76 221.074L208.708 216.257H210.062L209.958 221.113L214.177 219.46L214.606 220.775L210.27 222.272L213.174 226.1L212.067 226.921L209.281 222.949L206.625 226.895L205.518 226.1L208.343 222.194Z" fill="#BB86FC"/>
<path d="M222.338 222.194L218.015 220.788L218.432 219.473L222.755 221.074L222.703 216.257H224.057L223.953 221.113L228.171 219.46L228.601 220.775L224.265 222.272L227.169 226.1L226.062 226.921L223.276 222.949L220.619 226.895L219.513 226.1L222.338 222.194Z" fill="#BB86FC"/>
<path d="M236.333 222.194L232.01 220.788L232.427 219.473L236.75 221.074L236.698 216.257H238.052L237.948 221.113L242.166 219.46L242.596 220.775L238.26 222.272L241.164 226.1L240.057 226.921L237.27 222.949L234.614 226.895L233.507 226.1L236.333 222.194Z" fill="#BB86FC"/>
<path d="M250.328 222.194L246.005 220.788L246.421 219.473L250.744 221.074L250.692 216.257H252.046L251.942 221.113L256.161 219.46L256.591 220.775L252.255 222.272L255.158 226.1L254.052 226.921L251.265 222.949L248.609 226.895L247.502 226.1L250.328 222.194Z" fill="#BB86FC"/>
<path fill-rule="evenodd" clip-rule="evenodd" d="M237.833 165.405L281.982 165.308L281.98 164.308L237.792 164.405C237.817 164.736 237.831 165.069 237.833 165.405ZM208.704 164.469L133.666 164.634L133.668 165.634L208.667 165.469C208.667 165.133 208.68 164.799 208.704 164.469Z" fill="#BB86FC"/>
<rect x="212.502" y="154.738" width="21.1413" height="21.1413" rx="10.5706" fill="white" fill-opacity="0.01" stroke="#BB86FC"/>
<mask id="mask0_1123:437" style="mask-type:alpha" maskUnits="userSpaceOnUse" x="212" y="154" width="23" height="23">
<rect x="212.002" y="154.238" width="22.1413" height="22.1413" rx="11.0706" fill="white"/>
</mask>
<g mask="url(#mask0_1123:437)">
<line y1="-0.5" x2="29.5217" y2="-0.5" transform="matrix(-0.707108 0.707106 -0.707107 -0.707106 227.172 149.163)" stroke="#BB86FC"/>
<line x1="229.95" y1="152.78" x2="209.075" y2="173.655" stroke="#BB86FC"/>
<line x1="232.373" y1="156.04" x2="211.498" y2="176.915" stroke="#BB86FC"/>
<line x1="234.797" y1="159.302" x2="213.922" y2="180.177" stroke="#BB86FC"/>
<line x1="237.221" y1="162.564" x2="216.346" y2="183.439" stroke="#BB86FC"/>
</g>
<rect x="17.5" y="93.5" width="129" height="32.3333" fill="white" fill-opacity="0.01" stroke="#FF2D9F"/>
<path d="M26.2593 102.226L41.0741 116.986M41.0741 102.226L26.2593 116.986" stroke="#FF2D9F"/>
<rect x="200.712" y="93.5" width="65.4238" height="32.2119" rx="16.1059" fill="white" fill-opacity="0.01" stroke="#BB86FC"/>
<rect x="239.459" y="99.0354" width="21.1412" height="21.1412" rx="10.5706" fill="white" fill-opacity="0.01" stroke="#BB86FC"/>
<mask id="mask1_1123:437" style="mask-type:alpha" maskUnits="userSpaceOnUse" x="238" y="98" width="24" height="23">
<rect x="238.959" y="98.5354" width="22.1412" height="22.1412" rx="11.0706" fill="white"/>
</mask>
<g mask="url(#mask1_1123:437)">
<line x1="254.483" y1="93.8149" x2="233.608" y2="114.69" stroke="#BB86FC"/>
<line x1="256.907" y1="97.0773" x2="236.032" y2="117.952" stroke="#BB86FC"/>
<line y1="-0.5" x2="29.5216" y2="-0.5" transform="matrix(-0.707106 0.707107 -0.707106 -0.707107 258.977 99.9846)" stroke="#BB86FC"/>
<line x1="261.755" y1="103.6" x2="240.88" y2="124.475" stroke="#BB86FC"/>
<line x1="264.179" y1="106.862" x2="243.304" y2="127.737" stroke="#BB86FC"/>
</g>
<rect x="157.5" y="93.5" width="32.2119" height="32.2119" rx="16.1059" fill="white" fill-opacity="0.01" stroke="#BB86FC"/>
<rect x="163.035" y="99.0353" width="21.1412" height="21.1413" rx="10.5706" fill="white" fill-opacity="0.01" stroke="#BB86FC"/>
<mask id="mask2_1123:437" style="mask-type:alpha" maskUnits="userSpaceOnUse" x="162" y="98" width="23" height="23">
<rect x="162.535" y="98.5353" width="22.1412" height="22.1413" rx="11.0706" fill="white"/>
</mask>
<g mask="url(#mask2_1123:437)">
<line y1="-0.5" x2="29.5217" y2="-0.5" transform="matrix(-0.707107 0.707106 -0.707107 -0.707106 177.705 93.4612)" stroke="#BB86FC"/>
<line x1="180.483" y1="97.0773" x2="159.608" y2="117.952" stroke="#BB86FC"/>
<line x1="182.907" y1="100.338" x2="162.032" y2="121.213" stroke="#BB86FC"/>
<line x1="185.331" y1="103.6" x2="164.456" y2="124.475" stroke="#BB86FC"/>
<line x1="187.755" y1="106.862" x2="166.88" y2="127.737" stroke="#BB86FC"/>
</g>
</svg>
