<svg width="320" height="160" viewBox="0 0 320 160" fill="none" xmlns="http://www.w3.org/2000/svg">
<g clip-path="url(#clip0_2212_59175)">
<g clip-path="url(#clip1_2212_59175)">
<path d="M0 0H320V160H0V0Z" fill="#303136"/>
<path d="M88.75 120.25H65.25V143.75H88.75V120.25ZM132.75 120.25H109.25V143.75H132.75V120.25Z" stroke="#3399FF"/>
<path d="M115 131.5L119.345 136.75L127 127.5" stroke="#3399FF"/>
<path d="M168.25 23.75L176.75 32.25M184.75 16.25H65.25V39.75H184.75V16.25ZM176.75 23.75L168.25 32.25L176.75 23.75ZM376.75 120.25H257.25V143.75H376.75V120.25Z" stroke="#FF66CC"/>
<path d="M267.91 132.56L265.315 131.72L265.565 130.93L268.16 131.89L268.13 129H268.94L268.88 131.915L271.41 130.915L271.665 131.705L269.065 132.605L270.805 134.9L270.145 135.4L268.47 133L266.88 135.37L266.215 134.87L267.91 132.525V132.56ZM276.305 132.56L273.71 131.72L273.96 130.93L276.555 131.89L276.525 129H277.335L277.275 131.915L279.805 130.915L280.065 131.705L277.46 132.605L279.205 134.9L278.54 135.4L276.87 133L275.275 135.37L274.61 134.87L276.305 132.525V132.56ZM284.705 132.56L282.11 131.72L282.36 130.93L284.955 131.89L284.92 129H285.735L285.67 131.915L288.205 130.915L288.46 131.705L285.86 132.605L287.6 134.9L286.94 135.4L285.265 133L283.67 135.37L283.01 134.87L284.705 132.525V132.56ZM293.1 132.56L290.5 131.72L290.75 130.93L293.345 131.89L293.315 129H294.125L294.065 131.915L296.595 130.915L296.855 131.705L294.25 132.605L295.995 134.9L295.33 135.4L293.665 133L292.07 135.37L291.405 134.87L293.1 132.525V132.56ZM301.495 132.56L298.905 131.72L299.155 130.93L301.745 131.89L301.715 129H302.53L302.465 131.915L304.995 130.915L305.255 131.705L302.655 132.605L304.395 134.9L303.73 135.4L302.06 133L300.465 135.37L299.8 134.87L301.495 132.525V132.56Z" fill="#FF66CC"/>
<path d="M217 39.75C219.324 39.75 221.596 39.0609 223.528 37.7698C225.46 36.4787 226.966 34.6436 227.856 32.4965C228.745 30.3495 228.978 27.987 228.524 25.7077C228.071 23.4284 226.952 21.3348 225.309 19.6915C223.665 18.0482 221.572 16.9292 219.292 16.4758C217.013 16.0224 214.65 16.2551 212.503 17.1444C210.356 18.0338 208.521 19.5398 207.23 21.4721C205.939 23.4043 205.25 25.6761 205.25 28C205.25 31.1163 206.488 34.105 208.691 36.3085C210.895 38.5121 213.884 39.75 217 39.75Z" stroke="#3399FF"/>
<path d="M217 35.75C218.533 35.75 220.031 35.2955 221.306 34.4439C222.58 33.5923 223.573 32.3819 224.16 30.9658C224.747 29.5497 224.9 27.9914 224.601 26.4881C224.302 24.9847 223.564 23.6038 222.48 22.5199C221.396 21.4361 220.015 20.698 218.512 20.3989C217.009 20.0999 215.45 20.2534 214.034 20.8399C212.618 21.4265 211.408 22.4199 210.556 23.6943C209.705 24.9688 209.25 26.4672 209.25 28C209.25 30.0554 210.067 32.0267 211.52 33.4801C212.973 34.9335 214.945 35.75 217 35.75V35.75Z" stroke="#3399FF"/>
<path d="M229.7 23.73L212.73 40.7M216.97 11L200 27.97L216.97 11ZM219.09 13.12L202.12 30.09L219.09 13.12ZM221.215 15.24L204.245 32.24L221.215 15.27V15.24ZM223.335 17.365L206.365 34.335L223.335 17.365ZM225.455 19.5L208.5 36.455L225.455 19.5ZM227.575 21.62L210.605 38.575L227.575 21.605V21.62ZM231.82 25.865L214.85 42.82L231.82 25.85V25.865ZM233.94 27.985L216.97 44.94L233.94 27.97V27.985Z" stroke="#3399FF"/>
<path d="M333.7 23.73L316.73 40.7M320.97 11L304 27.97L320.97 11ZM323.09 13.12L306.12 30.09L323.09 13.12ZM325.215 15.24L308.24 32.24L325.215 15.27V15.24ZM327.335 17.365L310.365 34.335L327.335 17.365ZM329.455 19.5L312.5 36.455L329.455 19.5ZM331.575 21.62L314.605 38.575L331.575 21.605V21.62ZM335.82 25.865L318.85 42.82L335.82 25.85V25.865ZM337.94 27.985L320.97 44.94L337.94 27.97V27.985Z" stroke="#3399FF"/>
<path d="M207.7 127.73L190.73 144.7M194.97 115L178 131.97L194.97 115ZM197.09 117.12L180.12 134.09L197.09 117.12V117.12ZM199.215 119.24L182.245 136.24L199.215 119.24V119.24ZM201.335 121.365L184.365 138.335L201.335 121.365ZM203.455 123.485L186.5 140.455L203.455 123.5V123.485ZM205.575 125.605L188.605 142.575L205.575 125.605V125.605ZM209.82 129.85L192.85 146.82L209.82 129.85ZM211.94 131.97L194.97 148.94L211.94 131.97Z" stroke="#3399FF"/>
<path d="M12 70H15.06V86.64H23.45V89.565H12V70ZM31.88 90C30.6169 90.0172 29.3722 89.6961 28.275 89.07C27.221 88.4598 26.3559 87.5705 25.775 86.5C25.193 85.3695 24.8848 84.118 24.8752 82.8466C24.8657 81.5751 25.155 80.3191 25.72 79.18C26.277 78.0993 27.1191 77.1915 28.155 76.555C29.217 75.8859 30.4499 75.5386 31.705 75.555C32.9485 75.5234 34.1767 75.8348 35.255 76.455C36.261 77.0391 37.0703 77.9094 37.58 78.955C38.1273 80.096 38.398 81.3499 38.37 82.615C38.3722 82.782 38.3638 82.949 38.345 83.115C38.345 83.28 38.345 83.37 38.345 83.39H27.89C27.902 83.9352 28.0274 84.4719 28.2581 84.966C28.4888 85.4601 28.8198 85.9008 29.23 86.26C29.988 86.9144 30.9586 87.27 31.96 87.26C32.7065 87.2732 33.4415 87.075 34.0803 86.6884C34.719 86.3018 35.2355 85.7425 35.57 85.075L38.135 86.305C37.5504 87.4003 36.6883 88.3228 35.635 88.98C34.5049 89.668 33.2029 90.0217 31.88 90ZM35.32 81.12C35.2735 80.6472 35.1251 80.19 34.885 79.78C34.5982 79.295 34.1829 78.8987 33.685 78.635C33.079 78.2827 32.3855 78.1094 31.685 78.135C30.8362 78.1173 30.0099 78.4087 29.36 78.955C28.712 79.5235 28.2547 80.2776 28.05 81.115L35.32 81.12ZM45.445 90C44.5373 90.0135 43.6389 89.8167 42.82 89.425C42.0817 89.045 41.4546 88.4799 41 87.785C40.5578 87.0618 40.3306 86.2276 40.345 85.38C40.3133 84.7311 40.4401 84.0842 40.7145 83.4952C40.989 82.9063 41.4027 82.3931 41.92 82C43.1057 81.1503 44.5428 80.7241 46 80.79C47.2698 80.7579 48.5307 81.0107 49.69 81.53V80.955C49.69 80.5669 49.5996 80.1841 49.4261 79.837C49.2525 79.4898 49.0005 79.1879 48.69 78.955C48.0417 78.4059 47.2143 78.1141 46.365 78.135C45.713 78.1199 45.0675 78.2668 44.4863 78.5626C43.9051 78.8585 43.4064 79.2939 43.035 79.83L40.74 78.245C41.359 77.4043 42.1744 76.728 43.115 76.275C44.1343 75.8095 45.2446 75.5772 46.365 75.595C48.365 75.595 49.895 76.095 50.955 77.095C52.015 78.095 52.5617 79.4883 52.595 81.275V89.585H49.68V87.915H49.5C49.0597 88.5391 48.4901 89.0609 47.83 89.445C47.0946 89.8448 46.2667 90.0431 45.43 90.02L45.445 90ZM45.945 87.5C46.5986 87.5034 47.2411 87.3306 47.805 87C48.364 86.6755 48.8331 86.2166 49.17 85.665C49.5016 85.1217 49.6748 84.4965 49.67 83.86C48.7243 83.3367 47.6608 83.0631 46.58 83.065C45.7449 83.016 44.9175 83.2484 44.23 83.725C43.9643 83.9129 43.7485 84.1627 43.6013 84.4528C43.454 84.743 43.3798 85.0647 43.385 85.39C43.3797 85.6847 43.4435 85.9765 43.5711 86.2421C43.6987 86.5078 43.8867 86.7399 44.12 86.92C44.644 87.3091 45.2824 87.5131 45.935 87.5H45.945ZM55.785 76H58.625V78H58.79C59.1151 77.2669 59.6719 76.6608 60.375 76.275C61.0763 75.8227 61.8906 75.5766 62.725 75.565C63.2749 75.545 63.823 75.6386 64.335 75.84V79C63.6895 78.684 62.9786 78.5247 62.26 78.535C61.7838 78.5276 61.312 78.6271 60.8794 78.8261C60.4467 79.0251 60.0642 79.3186 59.76 79.685C59.0915 80.4466 58.7345 81.432 58.76 82.445V89.55H55.76L55.785 76ZM66.535 76H69.38V77.805H69.545C69.9734 77.1217 70.5756 76.5644 71.29 76.19C72.0567 75.7728 72.9171 75.5577 73.79 75.565C75.4567 75.565 76.7217 76.0567 77.585 77.04C78.4483 78.0233 78.885 79.38 78.895 81.11V89.555H75.895V81.53C75.895 79.4 74.895 78.335 72.895 78.335C72.4225 78.3242 71.9544 78.4276 71.5304 78.6366C71.1065 78.8455 70.7393 79.1537 70.46 79.535C69.8373 80.3488 69.511 81.3506 69.535 82.375V89.565H66.535V76Z" fill="white"/>
<path d="M84.875 89.565V70H96.735V72.84H87.88V78.58H95.88V81.42H87.88V89.565H84.875Z" fill="url(#paint0_linear_2212_59175)"/>
<path d="M105.19 89.9999C103.857 90.0231 102.543 89.677 101.395 88.9999C100.317 88.3613 99.4302 87.4464 98.8249 86.3499C98.2158 85.1938 97.8975 83.9067 97.8975 82.5999C97.8975 81.2932 98.2158 80.0061 98.8249 78.8499C99.4235 77.7407 100.312 76.8145 101.395 76.1699C102.551 75.524 103.853 75.1849 105.177 75.1849C106.502 75.1849 107.804 75.524 108.96 76.1699C110.043 76.8145 110.931 77.7407 111.53 78.8499C112.139 80.0061 112.457 81.2932 112.457 82.5999C112.457 83.9067 112.139 85.1938 111.53 86.3499C110.925 87.4464 110.037 88.3613 108.96 88.9999C107.819 89.6745 106.515 90.0206 105.19 89.9999ZM105.19 87.2949C105.947 87.3083 106.694 87.114 107.349 86.7332C108.004 86.3525 108.542 85.7998 108.905 85.1349C109.342 84.3611 109.559 83.4831 109.535 82.5949C109.559 81.7196 109.341 80.8546 108.905 80.0949C108.54 79.4191 107.99 78.8608 107.32 78.4849C106.675 78.1041 105.939 77.9054 105.19 77.91C104.425 77.9115 103.674 78.1142 103.012 78.4977C102.351 78.8812 101.801 79.4321 101.42 80.0949C101.003 80.861 100.796 81.7233 100.82 82.5949C100.796 83.4794 101.003 84.3548 101.42 85.1349C101.812 85.802 102.368 86.3579 103.035 86.7499C103.695 87.1114 104.437 87.2989 105.19 87.2949Z" fill="url(#paint1_linear_2212_59175)"/>
<path d="M114.91 89.565V75.63H117.695V77.675H117.86C118.193 76.9417 118.747 76.3313 119.445 75.93C120.181 75.4643 121.034 75.218 121.905 75.22C122.225 75.2138 122.545 75.2406 122.86 75.3C123.11 75.3496 123.357 75.413 123.6 75.49V78.55C123.253 78.4078 122.898 78.2892 122.535 78.195C122.177 78.1052 121.809 78.0599 121.44 78.06C120.775 78.0508 120.124 78.252 119.58 78.635C119.039 79.018 118.606 79.5348 118.325 80.135C118.01 80.772 117.851 81.4745 117.86 82.185V89.565H114.91Z" fill="url(#paint2_linear_2212_59175)"/>
<path d="M125.875 89.565V75.63H128.665V77.54H128.825C129.253 76.8416 129.856 76.2675 130.575 75.875C131.343 75.4182 132.222 75.1813 133.115 75.19C134.053 75.1599 134.978 75.4182 135.765 75.93C136.459 76.3779 137.003 77.0243 137.325 77.785C137.798 77.0432 138.432 76.4177 139.18 75.955C140.041 75.4237 141.039 75.1576 142.05 75.19C143.69 75.19 144.91 75.69 145.71 76.69C146.563 77.8186 146.99 79.2123 146.915 80.625V89.56H144V81.12C144 80.01 143.755 79.2 143.265 78.69C143.01 78.4192 142.699 78.2076 142.353 78.0702C142.008 77.9328 141.636 77.873 141.265 77.895C140.626 77.8829 140.001 78.0853 139.49 78.47C138.963 78.8545 138.547 79.3721 138.285 79.97C138.004 80.6461 137.864 81.3728 137.875 82.105V89.565H134.95V81.12C134.95 80.01 134.705 79.2 134.215 78.69C133.705 78.2194 133.047 77.9403 132.354 77.9002C131.661 77.8601 130.976 78.0615 130.415 78.47C129.904 78.8765 129.501 79.4018 129.24 80C128.961 80.6751 128.821 81.3996 128.83 82.13V89.565H125.875Z" fill="url(#paint3_linear_2212_59175)"/>
<path d="M155.185 90C153.769 90.0693 152.368 89.6858 151.185 88.905C150.248 88.2439 149.525 87.3226 149.105 86.255L151.76 85.11C152.05 85.8128 152.545 86.4121 153.18 86.83C153.811 87.2174 154.54 87.4169 155.28 87.405C155.929 87.4214 156.574 87.2897 157.165 87.02C157.413 86.9057 157.621 86.72 157.763 86.4866C157.904 86.2532 157.973 85.9827 157.96 85.71C157.97 85.4411 157.9 85.1753 157.758 84.9464C157.617 84.7176 157.41 84.5361 157.165 84.425C156.538 84.1161 155.879 83.878 155.2 83.715L153.535 83.335C152.872 83.1748 152.237 82.917 151.65 82.57C151.081 82.2372 150.595 81.7789 150.23 81.23C149.857 80.6417 149.666 79.9565 149.68 79.26C149.664 78.4843 149.926 77.7285 150.42 77.13C150.931 76.4952 151.6 76.0055 152.36 75.71C153.201 75.3669 154.102 75.1969 155.01 75.21C156.184 75.183 157.347 75.4457 158.395 75.975C159.356 76.4443 160.121 77.2375 160.555 78.215L158.015 79.365C157.746 78.8025 157.292 78.349 156.73 78.08C156.203 77.8204 155.622 77.6885 155.035 77.695C154.424 77.6759 153.819 77.8283 153.29 78.135C153.089 78.2388 152.919 78.3946 152.798 78.5864C152.678 78.7781 152.611 78.9987 152.605 79.225C152.599 79.4484 152.652 79.6694 152.757 79.8665C152.862 80.0636 153.016 80.2302 153.205 80.35C153.679 80.6443 154.195 80.8651 154.735 81.005L156.76 81.505C157.923 81.7362 158.999 82.2848 159.87 83.09C160.208 83.4195 160.475 83.815 160.654 84.252C160.833 84.6889 160.92 85.158 160.91 85.63C160.925 86.4769 160.656 87.3044 160.145 87.98C159.599 88.6626 158.884 89.1902 158.07 89.51C157.154 89.8597 156.18 90.0295 155.2 90.01L155.185 90Z" fill="url(#paint4_linear_2212_59175)"/>
<path d="M164.125 83.335L163.855 76.145V70H166.805V76.145L166.505 83.335H164.125ZM165.33 89.725C165.052 89.7348 164.775 89.6865 164.517 89.5832C164.258 89.4799 164.025 89.3238 163.83 89.125C163.638 88.9357 163.486 88.7103 163.383 88.4619C163.279 88.2134 163.225 87.9468 163.225 87.6775C163.225 87.4082 163.279 87.1416 163.383 86.8932C163.486 86.6447 163.638 86.4193 163.83 86.23C164.025 86.0312 164.258 85.8751 164.517 85.7718C164.775 85.6685 165.052 85.6202 165.33 85.63C165.856 85.656 166.351 85.883 166.714 86.2642C167.076 86.6453 167.279 87.1513 167.279 87.6775C167.279 88.2037 167.076 88.7097 166.714 89.0908C166.351 89.472 165.856 89.699 165.33 89.725Z" fill="url(#paint5_linear_2212_59175)"/>
</g>
</g>
<defs>
<linearGradient id="paint0_linear_2212_59175" x1="82.06" y1="81.16" x2="162.745" y2="55.45" gradientUnits="userSpaceOnUse">
<stop offset="0.07" stop-color="#359BFF"/>
<stop offset="0.34" stop-color="#359BFF"/>
<stop offset="0.62" stop-color="#D36DFF"/>
<stop offset="0.91" stop-color="#FF3399"/>
</linearGradient>
<linearGradient id="paint1_linear_2212_59175" x1="84.6049" y1="89.1499" x2="165.29" y2="63.4449" gradientUnits="userSpaceOnUse">
<stop offset="0.07" stop-color="#359BFF"/>
<stop offset="0.34" stop-color="#359BFF"/>
<stop offset="0.62" stop-color="#D36DFF"/>
<stop offset="0.91" stop-color="#FF3399"/>
</linearGradient>
<linearGradient id="paint2_linear_2212_59175" x1="85.6399" y1="92.39" x2="166.32" y2="66.685" gradientUnits="userSpaceOnUse">
<stop offset="0.07" stop-color="#359BFF"/>
<stop offset="0.34" stop-color="#359BFF"/>
<stop offset="0.62" stop-color="#D36DFF"/>
<stop offset="0.91" stop-color="#FF3399"/>
</linearGradient>
<linearGradient id="paint3_linear_2212_59175" x1="87.485" y1="98.18" x2="168.165" y2="72.475" gradientUnits="userSpaceOnUse">
<stop offset="0.07" stop-color="#359BFF"/>
<stop offset="0.34" stop-color="#359BFF"/>
<stop offset="0.62" stop-color="#D36DFF"/>
<stop offset="0.91" stop-color="#FF3399"/>
</linearGradient>
<linearGradient id="paint4_linear_2212_59175" x1="89.2149" y1="103.615" x2="169.895" y2="77.91" gradientUnits="userSpaceOnUse">
<stop offset="0.07" stop-color="#359BFF"/>
<stop offset="0.34" stop-color="#359BFF"/>
<stop offset="0.62" stop-color="#D36DFF"/>
<stop offset="0.91" stop-color="#FF3399"/>
</linearGradient>
<linearGradient id="paint5_linear_2212_59175" x1="89.3049" y1="103.905" x2="169.99" y2="78.1949" gradientUnits="userSpaceOnUse">
<stop offset="0.07" stop-color="#359BFF"/>
<stop offset="0.34" stop-color="#359BFF"/>
<stop offset="0.62" stop-color="#D36DFF"/>
<stop offset="0.91" stop-color="#FF3399"/>
</linearGradient>
<clipPath id="clip0_2212_59175">
<rect width="320" height="160" fill="white"/>
</clipPath>
<clipPath id="clip1_2212_59175">
<rect width="320" height="160" fill="white"/>
</clipPath>
</defs>
</svg>
