<svg width="158" height="40" viewBox="0 0 158 40" preserveAspectRatio="xMinYMid meet" fill="none" xmlns="http://www.w3.org/2000/svg">
<path d="M0 10H3.06011V26.6393H11.4481V29.5628H0L0 10Z" fill="#3C4043"/>
<path d="M19.8798 30C18.5501 30 17.3479 29.6903 16.2733 29.071C15.2168 28.4517 14.388 27.5956 13.7869 26.5027C13.1858 25.3916 12.8853 24.153 12.8853 22.7869C12.8853 21.4754 13.1676 20.2732 13.7323 19.1803C14.3152 18.0692 15.1257 17.1949 16.164 16.5574C17.2022 15.9016 18.3862 15.5738 19.7159 15.5738C21.082 15.5738 22.266 15.8743 23.2678 16.4754C24.2878 17.0765 25.062 17.9144 25.5902 18.9891C26.1184 20.0455 26.3826 21.2659 26.3826 22.6503C26.3826 22.8142 26.3734 22.9781 26.3552 23.1421C26.337 23.306 26.3279 23.3971 26.3279 23.4153H15.8908C15.9818 24.6539 16.4281 25.6102 17.2295 26.2842C18.031 26.9581 18.9418 27.2951 19.9618 27.2951C21.5283 27.2951 22.7305 26.5665 23.5683 25.1093L26.1367 26.3388C25.5356 27.4499 24.6977 28.3424 23.623 29.0164C22.5665 29.6721 21.3188 30 19.8798 30ZM23.3224 21.1202C23.286 20.6831 23.1403 20.2368 22.8853 19.7814C22.6303 19.326 22.2295 18.9435 21.6831 18.6339C21.1549 18.306 20.49 18.1421 19.6886 18.1421C18.796 18.1421 18.0219 18.4153 17.3662 18.9617C16.7286 19.5082 16.2915 20.2277 16.0547 21.1202H23.3224Z" fill="#3C4043"/>
<path d="M33.4428 30C32.4774 30 31.6031 29.8087 30.8199 29.4262C30.0549 29.0255 29.4447 28.4791 28.9893 27.7869C28.5521 27.0765 28.3335 26.275 28.3335 25.3825C28.3335 23.9617 28.8618 22.8415 29.9182 22.0219C30.9929 21.2022 32.3499 20.7924 33.9893 20.7924C35.4283 20.7924 36.6578 21.0383 37.6778 21.5301V20.9563C37.6778 20.1366 37.3499 19.4627 36.6942 18.9344C36.0567 18.388 35.2825 18.1148 34.3718 18.1148C32.9875 18.1148 31.8763 18.6794 31.0385 19.8087L28.7434 18.224C29.3809 17.3679 30.1733 16.7122 31.1204 16.2568C32.0858 15.8015 33.1696 15.5738 34.3718 15.5738C36.3572 15.5738 37.8873 16.0747 38.962 17.0765C40.0549 18.0601 40.6013 19.4536 40.6013 21.2568V29.5628H37.6778V27.8962H37.5139C37.0767 28.5155 36.5212 29.0255 35.8472 29.4262C35.1733 29.8087 34.3718 30 33.4428 30ZM33.9346 27.5137C34.6086 27.5137 35.2279 27.3497 35.7926 27.0219C36.3754 26.6758 36.8308 26.2295 37.1587 25.6831C37.5048 25.1184 37.6778 24.5173 37.6778 23.8798C36.7124 23.3515 35.6833 23.0874 34.5904 23.0874C33.5886 23.0874 32.8053 23.306 32.2406 23.7432C31.676 24.1803 31.3937 24.7359 31.3937 25.4098C31.3937 26.0291 31.6396 26.5392 32.1314 26.9399C32.6414 27.3224 33.2425 27.5137 33.9346 27.5137Z" fill="#3C4043"/>
<path d="M43.7743 16.0109H46.6159V18.0328H46.7798C47.0712 17.3406 47.5995 16.7668 48.3645 16.3115C49.1295 15.8379 49.9128 15.6011 50.7142 15.6011C51.37 15.6011 51.9073 15.6922 52.3262 15.8743V19.0164C51.7069 18.7067 51.0148 18.5519 50.2497 18.5519C49.2661 18.5519 48.4374 18.9344 47.7634 19.6995C47.1077 20.4463 46.7798 21.3661 46.7798 22.459V29.5628H43.7743V16.0109Z" fill="#3C4043"/>
<path d="M54.5272 16.0109H57.3687V17.8142H57.5327C57.9334 17.1585 58.5163 16.6211 59.2813 16.2022C60.0463 15.7832 60.8751 15.5738 61.7676 15.5738C63.4434 15.5738 64.7093 16.0656 65.5654 17.0492C66.4398 18.0328 66.8769 19.3898 66.8769 21.1202V29.5628H63.8715V21.5301C63.8715 19.3989 62.8787 18.3333 60.8933 18.3333C59.8915 18.3333 59.0809 18.7341 58.4616 19.5355C57.8423 20.337 57.5327 21.2842 57.5327 22.3771V29.5628H54.5272V16.0109Z" fill="#3C4043"/>
<path d="M74.877 29.5628V10H86.7349V12.8415H77.8824V18.5792H85.8606V21.4208H77.8824V29.5628H74.877Z" fill="url(#paint0_linear)"/>
<path d="M95.1907 30C93.7518 30 92.4858 29.6721 91.3929 29.0164C90.3 28.3607 89.4439 27.4772 88.8246 26.3661C88.2053 25.255 87.8957 23.9982 87.8957 22.5956C87.8957 21.2113 88.2053 19.9636 88.8246 18.8525C89.4439 17.7231 90.3 16.8306 91.3929 16.1749C92.4858 15.5191 93.7518 15.1913 95.1907 15.1913C96.6115 15.1913 97.8683 15.5191 98.9612 16.1749C100.054 16.8306 100.91 17.7231 101.53 18.8525C102.149 19.9636 102.458 21.2113 102.458 22.5956C102.458 23.9982 102.149 25.255 101.53 26.3661C100.91 27.4772 100.054 28.3607 98.9612 29.0164C97.8683 29.6721 96.6115 30 95.1907 30ZM95.1907 27.2951C95.9558 27.2951 96.6661 27.1129 97.3219 26.7486C97.9776 26.3661 98.5059 25.8288 98.9066 25.1366C99.3255 24.4262 99.535 23.5792 99.535 22.5956C99.535 21.612 99.3255 20.7741 98.9066 20.082C98.5059 19.3716 97.9776 18.8342 97.3219 18.4699C96.6661 18.0874 95.9558 17.8962 95.1907 17.8962C94.4257 17.8962 93.7062 18.0874 93.0323 18.4699C92.3765 18.8342 91.8392 19.3716 91.4202 20.082C91.0195 20.7741 90.8191 21.612 90.8191 22.5956C90.8191 23.5792 91.0195 24.4262 91.4202 25.1366C91.8392 25.8288 92.3765 26.3661 93.0323 26.7486C93.7062 27.1129 94.4257 27.2951 95.1907 27.2951Z" fill="url(#paint1_linear)"/>
<path d="M104.909 29.5628V15.6284H107.696V17.6776H107.86C108.17 16.9672 108.698 16.3843 109.445 15.929C110.21 15.4554 111.03 15.2186 111.904 15.2186C112.286 15.2186 112.605 15.2459 112.86 15.3005C113.133 15.3552 113.379 15.4189 113.598 15.4918V18.5519C113.252 18.4062 112.897 18.2878 112.532 18.1967C112.186 18.1056 111.822 18.0601 111.439 18.0601C110.747 18.0601 110.128 18.2514 109.582 18.6339C109.053 18.9982 108.634 19.4991 108.325 20.1366C108.015 20.7559 107.86 21.439 107.86 22.1858V29.5628H104.909Z" fill="url(#paint2_linear)"/>
<path d="M115.876 29.5628V15.6284H118.663V17.541H118.827C119.227 16.867 119.81 16.3115 120.575 15.8743C121.34 15.4189 122.187 15.1913 123.116 15.1913C124.154 15.1913 125.038 15.4372 125.766 15.929C126.495 16.4208 127.014 17.0401 127.324 17.7869C127.779 17.0583 128.398 16.4481 129.182 15.9563C129.965 15.4463 130.921 15.1913 132.051 15.1913C133.69 15.1913 134.91 15.6922 135.712 16.694C136.513 17.6776 136.914 18.9891 136.914 20.6284V29.5628H133.99V21.1202C133.99 20.0091 133.745 19.1985 133.253 18.6885C132.779 18.1603 132.114 17.8962 131.258 17.8962C130.584 17.8962 129.992 18.0874 129.482 18.4699C128.972 18.8342 128.572 19.3352 128.28 19.9727C128.007 20.6102 127.87 21.3206 127.87 22.1038V29.5628H124.947V21.1202C124.947 20.0091 124.701 19.1985 124.209 18.6885C123.717 18.1603 123.025 17.8962 122.133 17.8962C121.477 17.8962 120.903 18.0874 120.411 18.4699C119.919 18.8525 119.528 19.3625 119.236 20C118.963 20.6375 118.827 21.3479 118.827 22.1311V29.5628H115.876Z" fill="url(#paint3_linear)"/>
<path d="M145.185 30C143.509 30 142.17 29.6357 141.169 28.9071C140.167 28.1603 139.475 27.2769 139.092 26.2568L141.742 25.1093C142.07 25.8561 142.544 26.4299 143.163 26.8306C143.782 27.2131 144.484 27.4044 145.267 27.4044C145.996 27.4044 146.624 27.2769 147.152 27.0219C147.68 26.7486 147.945 26.3115 147.945 25.7104C147.945 25.1275 147.68 24.6995 147.152 24.4262C146.624 24.153 145.968 23.9162 145.185 23.7158L143.518 23.3333C142.844 23.1694 142.216 22.9144 141.633 22.5683C141.05 22.2222 140.577 21.776 140.212 21.2295C139.848 20.6648 139.666 20.0091 139.666 19.2623C139.666 18.4426 139.912 17.7322 140.404 17.1311C140.895 16.5118 141.542 16.0383 142.343 15.7104C143.163 15.3643 144.047 15.1913 144.994 15.1913C146.287 15.1913 147.416 15.4463 148.382 15.9563C149.365 16.4481 150.085 17.1949 150.54 18.1967L147.999 19.3443C147.671 18.725 147.243 18.2969 146.715 18.0601C146.205 17.8051 145.64 17.6776 145.021 17.6776C144.329 17.6776 143.746 17.8233 143.272 18.1148C142.817 18.4062 142.589 18.7705 142.589 19.2077C142.589 19.6812 142.79 20.0546 143.19 20.3279C143.609 20.6011 144.119 20.8197 144.72 20.9836L146.742 21.4754C148.127 21.8215 149.165 22.3497 149.857 23.0601C150.549 23.7523 150.895 24.5993 150.895 25.6011C150.895 26.4936 150.64 27.2769 150.13 27.9508C149.62 28.6066 148.928 29.1166 148.054 29.4809C147.198 29.827 146.241 30 145.185 30Z" fill="url(#paint4_linear)"/>
<path d="M154.126 23.3333L153.853 16.1475V10H156.804V16.1475L156.503 23.3333H154.126ZM155.329 29.7268C154.746 29.7268 154.254 29.5264 153.853 29.1257C153.452 28.725 153.252 28.2423 153.252 27.6776C153.252 27.1129 153.452 26.6302 153.853 26.2295C154.254 25.8288 154.746 25.6284 155.329 25.6284C155.893 25.6284 156.376 25.8288 156.777 26.2295C157.177 26.6302 157.378 27.1129 157.378 27.6776C157.378 28.2423 157.177 28.725 156.777 29.1257C156.376 29.5264 155.893 29.7268 155.329 29.7268Z" fill="url(#paint5_linear)"/>
<defs>
<linearGradient id="paint0_linear" x1="74.877" y1="30" x2="155.56" y2="4.29442" gradientUnits="userSpaceOnUse">
<stop offset="0.0677083" stop-color="#3399FF"/>
<stop offset="0.34375" stop-color="#0066FF"/>
<stop offset="0.619792" stop-color="#9933FF"/>
<stop offset="0.911458" stop-color="#FF3399"/>
</linearGradient>
<linearGradient id="paint1_linear" x1="74.877" y1="30" x2="155.56" y2="4.29442" gradientUnits="userSpaceOnUse">
<stop offset="0.0677083" stop-color="#3399FF"/>
<stop offset="0.34375" stop-color="#0066FF"/>
<stop offset="0.619792" stop-color="#9933FF"/>
<stop offset="0.911458" stop-color="#FF3399"/>
</linearGradient>
<linearGradient id="paint2_linear" x1="74.877" y1="30" x2="155.56" y2="4.29442" gradientUnits="userSpaceOnUse">
<stop offset="0.0677083" stop-color="#3399FF"/>
<stop offset="0.34375" stop-color="#0066FF"/>
<stop offset="0.619792" stop-color="#9933FF"/>
<stop offset="0.911458" stop-color="#FF3399"/>
</linearGradient>
<linearGradient id="paint3_linear" x1="74.877" y1="30" x2="155.56" y2="4.29442" gradientUnits="userSpaceOnUse">
<stop offset="0.0677083" stop-color="#3399FF"/>
<stop offset="0.34375" stop-color="#0066FF"/>
<stop offset="0.619792" stop-color="#9933FF"/>
<stop offset="0.911458" stop-color="#FF3399"/>
</linearGradient>
<linearGradient id="paint4_linear" x1="74.877" y1="30" x2="155.56" y2="4.29442" gradientUnits="userSpaceOnUse">
<stop offset="0.0677083" stop-color="#3399FF"/>
<stop offset="0.34375" stop-color="#0066FF"/>
<stop offset="0.619792" stop-color="#9933FF"/>
<stop offset="0.911458" stop-color="#FF3399"/>
</linearGradient>
<linearGradient id="paint5_linear" x1="74.877" y1="30" x2="155.56" y2="4.29442" gradientUnits="userSpaceOnUse">
<stop offset="0.0677083" stop-color="#3399FF"/>
<stop offset="0.34375" stop-color="#0066FF"/>
<stop offset="0.619792" stop-color="#9933FF"/>
<stop offset="0.911458" stop-color="#FF3399"/>
</linearGradient>
</defs>
</svg>
