<svg xmlns="http://www.w3.org/2000/svg" width="1052.362" height="744.094" version="1.0"><g transform="translate(-260.342 119.386)"><path d="M512.984 72.495c-6.922 0-12.394 5.613-12.394 12.534v329.692c0 6.922 5.472 12.394 12.394 12.394h548.83c6.921 0 12.534-5.472 12.534-12.394V85.03c0-6.921-5.613-12.534-12.534-12.534h-548.83z" fill="#c8c8c8" fill-rule="evenodd" stroke="#000" stroke-width="4.507" stroke-linecap="round" stroke-linejoin="round"/><rect ry="12.077" rx="12.494" y="100.846" x="528.988" height="308.637" width="516.878" fill="#c8c8c8" fill-rule="evenodd"/><g fill="gray" fill-rule="evenodd" stroke="#000"><path d="M387.193 32.631H536.59l-11.708-19.25C517.205.76 497.25-8.607 461.892-8.607c-35.36 0-55.314 9.367-62.99 21.988l-11.709 19.25z" stroke-width="4.50669"/><path d="M387.193 65.012H536.59l-11.708-19.25c-7.677-12.62-27.632-21.987-62.99-21.987-35.36 0-55.315 9.366-62.99 21.987l-11.71 19.25z" stroke-width="4.50669"/></g><path d="M635.064 236.255c0 94.354-76.488 170.842-170.841 170.842-94.354 0-170.842-76.488-170.842-170.842 0-94.353 76.488-170.841 170.842-170.841 94.353 0 170.841 76.488 170.841 170.841z" fill="#c8c8c8" fill-rule="evenodd" stroke="#000" stroke-width="4.50621414" stroke-linecap="round" stroke-linejoin="round"/><path d="M736.391 382.384c0 59.866-48.53 108.396-108.396 108.396-59.865 0-108.396-48.53-108.396-108.396 0-59.865 48.53-108.396 108.396-108.396s108.396 48.53 108.396 108.396z" fill="#c8c8c8" fill-rule="evenodd" stroke="#000" stroke-width="4.5060575499999995" stroke-linecap="round" stroke-linejoin="round"/><path d="M701.045 382.384c0 40.344-32.706 73.05-73.05 73.05-40.344 0-73.05-32.706-73.05-73.05 0-40.344 32.706-73.05 73.05-73.05 40.344 0 73.05 32.706 73.05 73.05z" fill="#404040" fill-opacity=".519" fill-rule="evenodd" stroke="#000" stroke-width="4.50750274" stroke-linecap="round" stroke-linejoin="round"/><g fill="gray" fill-rule="evenodd" stroke="#000"><path d="M1039.57 32.631h149.397l-11.708-19.25c-7.677-12.621-27.632-21.988-62.99-21.988-35.36 0-55.315 9.367-62.99 21.988l-11.709 19.25z" stroke-width="4.50669"/><path d="M1039.57 65.012h149.397l-11.708-19.25c-7.677-12.62-27.632-21.987-62.99-21.987-35.36 0-55.315 9.366-62.99 21.987l-11.71 19.25z" stroke-width="4.50669"/></g><path d="M939.686 236.255c0 94.354 76.488 170.842 170.842 170.842 94.353 0 170.841-76.488 170.841-170.842 0-94.353-76.488-170.841-170.841-170.841-94.354 0-170.842 76.488-170.842 170.841z" fill="#c8c8c8" fill-rule="evenodd" stroke="#000" stroke-width="4.50621414" stroke-linecap="round" stroke-linejoin="round"/><path d="M1075.46 109.998c-6.921 0-12.534 5.612-12.534 12.534v66.051h-66.192c-6.922 0-12.394 5.613-12.394 12.534v70.276c0 6.922 5.472 12.535 12.394 12.535h66.192v66.05c0 6.922 5.612 12.535 12.534 12.535h70.276c6.922 0 12.393-5.613 12.394-12.534v-66.051h66.191c6.922 0 12.394-5.613 12.394-12.535v-70.276c0-6.921-5.472-12.534-12.393-12.534h-66.192v-66.051c0-6.922-5.472-12.534-12.394-12.534h-70.276z" fill="#404040" fill-rule="evenodd"/><rect width="52.431" height="30.045" x="685.432" y="241.14" rx="7.069" ry="7.069" fill="#595959" fill-rule="evenodd" stroke="#000" stroke-width="4.507" stroke-linecap="round" stroke-linejoin="round"/><path d="M819.56 170.056c0 19.75-16.01 35.76-35.76 35.76-19.749 0-35.759-16.01-35.759-35.76 0-19.75 16.01-35.759 35.76-35.759 19.749 0 35.759 16.01 35.759 35.759z" fill="#595959" fill-rule="evenodd" stroke="#000" stroke-linecap="round" stroke-linejoin="round" stroke-width="6.2172"/><path d="M1147.642 156.725c0 20.498-16.617 37.114-37.114 37.114-20.498 0-37.114-16.616-37.114-37.114 0-20.497 16.616-37.114 37.114-37.114 20.497 0 37.114 16.617 37.114 37.114zM1147.642 316.374c0 20.497-16.617 37.114-37.114 37.114-20.498 0-37.114-16.617-37.114-37.114 0-20.498 16.616-37.114 37.114-37.114 20.497 0 37.114 16.616 37.114 37.114zM1153.238 236.55c0-20.498 16.617-37.114 37.114-37.114 20.497 0 37.114 16.616 37.114 37.114 0 20.497-16.617 37.113-37.114 37.113-20.497 0-37.114-16.616-37.114-37.113zM993.59 236.55c0-20.498 16.616-37.114 37.113-37.114 20.498 0 37.114 16.616 37.114 37.114 0 20.497-16.616 37.113-37.114 37.113-20.497 0-37.113-16.616-37.113-37.113z" fill="#c8c8c8" fill-rule="evenodd" stroke="#454545" stroke-linecap="round" stroke-linejoin="round" stroke-width="4.50669"/><path d="M428.349 107.824c-6.922 0-12.535 5.613-12.535 12.535v66.05h-66.192c-6.921 0-12.393 5.613-12.393 12.535v70.276c0 6.922 5.472 12.534 12.393 12.534h66.192v66.051c0 6.922 5.613 12.535 12.535 12.535h70.276c6.921 0 12.393-5.613 12.393-12.535v-66.05h66.192c6.922 0 12.393-5.613 12.393-12.535v-70.276c0-6.922-5.471-12.534-12.393-12.534h-66.192v-66.051c0-6.922-5.472-12.535-12.393-12.535h-70.276z" fill="#404040" fill-rule="evenodd"/><path d="M1052.154 382.384c0 59.866-48.53 108.396-108.396 108.396s-108.396-48.53-108.396-108.396c0-59.865 48.53-108.396 108.396-108.396 59.865 0 108.396 48.53 108.396 108.396z" fill="#c8c8c8" fill-rule="evenodd" stroke="#000" stroke-width="4.5060575499999995" stroke-linecap="round" stroke-linejoin="round"/><path d="M1016.807 382.384c0 40.344-32.705 73.05-73.05 73.05-40.343 0-73.049-32.706-73.049-73.05 0-40.344 32.706-73.05 73.05-73.05 40.344 0 73.05 32.706 73.05 73.05z" fill="#404040" fill-opacity=".518" fill-rule="evenodd" stroke="#000" stroke-width="4.50750274" stroke-linecap="round" stroke-linejoin="round"/><g fill="#c8c8c8" fill-rule="evenodd"><path d="M463.416 121.123l-17.05 16.195h34.101l-17.05-16.195zM463.416 347.041l-17.05-16.195h34.101l-17.05 16.195zM576.375 234.082l-16.195-17.05v34.1l16.195-17.05zM350.457 234.082l16.195-17.05v34.1l-16.195-17.05z"/></g><rect width="52.431" height="30.045" x="829.041" y="241.14" rx="7.069" ry="7.069" fill="#595959" fill-rule="evenodd" stroke="#000" stroke-width="4.507" stroke-linecap="round" stroke-linejoin="round"/><text x="83.792" y="-8.083" transform="translate(260.342 473.692)" font-size="40" font-weight="400" font-family="Bitstream Vera Sans"/><text style="text-align:center;line-height:125%;-inkscape-font-specification:Arial Bold" x="1111.862" y="320.404" font-size="12" font-weight="700" text-anchor="middle" fill="#ff8080" font-family="Arial"><tspan x="1111.862" y="320.404" style="text-align:center;line-height:125%;-inkscape-font-specification:Arial Bold">buttons[0]</tspan></text><text style="text-align:center;line-height:125%;-inkscape-font-specification:Arial Bold" x="1192.415" y="239.152" font-size="12" font-weight="700" text-anchor="middle" fill="#ff8080" font-family="Arial"><tspan x="1192.415" y="239.152" style="text-align:center;line-height:125%;-inkscape-font-specification:Arial Bold">buttons[1]</tspan></text><text style="text-align:center;line-height:125%;-inkscape-font-specification:Arial Bold" x="1030.177" y="239.152" font-size="12" font-weight="700" text-anchor="middle" fill="#ff8080" font-family="Arial"><tspan x="1030.177" y="239.152" style="text-align:center;line-height:125%;-inkscape-font-specification:Arial Bold">buttons[2]</tspan></text><text style="text-align:center;line-height:125%;-inkscape-font-specification:Arial Bold" x="1108.796" y="159.826" font-size="12" font-weight="700" text-anchor="middle" fill="#ff8080" font-family="Arial"><tspan x="1108.796" y="159.826" style="text-align:center;line-height:125%;-inkscape-font-specification:Arial Bold">buttons[3]</tspan></text><text style="text-align:center;line-height:125%;-inkscape-font-specification:Arial Bold" x="463.173" y="50.317" font-size="12" font-weight="700" text-anchor="middle" fill="#ff8080" font-family="Arial"><tspan x="463.173" y="50.317" style="text-align:center;line-height:125%;-inkscape-font-specification:Arial Bold">buttons[4]</tspan></text><text style="text-align:center;line-height:125%;-inkscape-font-specification:Arial Bold" x="1113.174" y="50.317" font-size="12" font-weight="700" text-anchor="middle" fill="#ff8080" font-family="Arial"><tspan x="1113.174" y="50.317" style="text-align:center;line-height:125%;-inkscape-font-specification:Arial Bold">buttons[5]</tspan></text><text style="text-align:center;line-height:125%;-inkscape-font-specification:Arial Bold" x="462.173" y="13.317" font-size="12" font-weight="700" text-anchor="middle" fill="#ff8080" font-family="Arial"><tspan x="462.173" y="13.317" style="text-align:center;line-height:125%;-inkscape-font-specification:Arial Bold">buttons[6]</tspan></text><text style="text-align:center;line-height:125%;-inkscape-font-specification:Arial Bold" x="1114.174" y="11.317" font-size="12" font-weight="700" text-anchor="middle" fill="#ff8080" font-family="Arial"><tspan x="1114.174" y="11.317" style="text-align:center;line-height:125%;-inkscape-font-specification:Arial Bold">buttons[7]</tspan></text><text style="text-align:center;line-height:125%;-inkscape-font-specification:Arial Bold" x="714.173" y="220.817" font-size="12" font-weight="700" text-anchor="middle" fill="#ff8080" font-family="Arial"><tspan x="714.173" y="220.817" style="text-align:center;line-height:125%;-inkscape-font-specification:Arial Bold">buttons[8]</tspan><tspan x="714.173" y="235.817" style="text-align:center;line-height:125%;-inkscape-font-specification:Arial Bold">(select/back)</tspan></text><text style="text-align:center;line-height:125%;-inkscape-font-specification:Arial Bold" x="853.173" y="220.817" font-size="12" font-weight="700" text-anchor="middle" fill="#ff8080" font-family="Arial"><tspan x="853.173" y="220.817" style="text-align:center;line-height:125%;-inkscape-font-specification:Arial Bold">buttons[9]</tspan><tspan x="853.173" y="235.817" style="text-align:center;line-height:125%;-inkscape-font-specification:Arial Bold">(start/forward)</tspan></text><text style="text-align:center;line-height:125%;-inkscape-font-specification:Arial Bold" x="531.134" y="371.532" font-size="12" font-weight="700" text-anchor="middle" fill="#8080ff" font-family="Arial"><tspan x="531.134" y="371.532" style="text-align:center;line-height:125%;-inkscape-font-specification:Arial Bold">axes[0]</tspan><tspan x="531.134" y="386.532" style="text-align:center;line-height:125%;-inkscape-font-specification:Arial Bold">(negative left</tspan><tspan x="531.134" y="401.532" style="text-align:center;line-height:125%;-inkscape-font-specification:Arial Bold">positive right)</tspan></text><text style="text-align:center;-inkscape-font-specification:Droid Sans Bold" x="945.31" y="378.825" font-size="40" font-weight="700" text-anchor="middle" fill="#ff8080" font-family="Droid Sans"><tspan x="945.31" y="378.825" style="text-align:center;-inkscape-font-specification:Droid Sans Bold" font-size="12">buttons[11]</tspan><tspan x="945.31" y="393.825" style="text-align:center;-inkscape-font-specification:Droid Sans Bold" font-size="12">(pressed)</tspan></text><text style="text-align:center;line-height:125%;-inkscape-font-specification:Arial Bold" x="464.31" y="162.825" font-size="12" font-weight="700" text-anchor="middle" fill="#ff8080" font-family="Arial"><tspan x="464.31" y="162.825" style="text-align:center;line-height:125%;-inkscape-font-specification:Arial Bold">buttons[12]</tspan></text><text style="text-align:center;line-height:125%;-inkscape-font-specification:Arial Bold" x="463.81" y="314.317" font-size="12" font-weight="700" text-anchor="middle" fill="#ff8080" font-family="Arial"><tspan x="463.81" y="314.317" style="text-align:center;line-height:125%;-inkscape-font-specification:Arial Bold">buttons[13]</tspan></text><text style="text-align:center;line-height:125%;-inkscape-font-specification:Arial Bold" x="405.11" y="237.804" font-size="12" font-weight="700" text-anchor="middle" fill="#ff8080" font-family="Arial"><tspan x="405.11" y="237.804" style="text-align:center;line-height:125%;-inkscape-font-specification:Arial Bold">buttons[14]</tspan></text><text style="text-align:center;line-height:125%;-inkscape-font-specification:Arial Bold" x="525.31" y="238.317" font-size="12" font-weight="700" text-anchor="middle" fill="#ff8080" font-family="Arial"><tspan x="525.31" y="238.317" style="text-align:center;line-height:125%;-inkscape-font-specification:Arial Bold">buttons[15]</tspan></text><text style="text-align:center;line-height:125%;-inkscape-font-specification:Arial Bold" x="783.348" y="123.817" font-size="12" font-weight="700" text-anchor="middle" fill="#ff8080" font-family="Arial"><tspan x="783.348" y="123.817" style="text-align:center;line-height:125%;-inkscape-font-specification:Arial Bold">buttons[16]</tspan></text><text style="text-align:center;line-height:125%;-inkscape-font-specification:Arial Bold" x="626.501" y="377.569" font-size="12" font-weight="700" text-anchor="middle" fill="#ff8080" font-family="Arial"><tspan x="626.501" y="377.569" style="text-align:center;line-height:125%;-inkscape-font-specification:Arial Bold">buttons[10]</tspan><tspan x="626.501" y="392.569" style="text-align:center;line-height:125%;-inkscape-font-specification:Arial Bold">(pressed)</tspan></text><text style="text-align:center;line-height:125%;-inkscape-font-specification:Arial Bold" x="630.858" y="467.936" font-size="12" font-weight="700" text-anchor="middle" fill="#8080ff" font-family="Arial"><tspan x="630.858" y="467.936" style="text-align:center;line-height:125%;-inkscape-font-specification:Arial Bold">axes[1]</tspan><tspan x="630.858" y="482.936" style="text-align:center;line-height:125%;-inkscape-font-specification:Arial Bold">(negative up</tspan><tspan x="630.858" y="497.936" style="text-align:center;line-height:125%;-inkscape-font-specification:Arial Bold">positive down)</tspan></text><text style="text-align:center;line-height:125%;-inkscape-font-specification:Arial Bold" x="1027.629" y="373.64" font-size="12" font-weight="700" text-anchor="middle" fill="#8080ff" font-family="Arial"><tspan x="1027.629" y="373.64" style="text-align:center;line-height:125%;-inkscape-font-specification:Arial Bold">axes[2]</tspan><tspan x="1027.629" y="388.64" style="text-align:center;line-height:125%;-inkscape-font-specification:Arial Bold">(negative left</tspan><tspan x="1027.629" y="403.64" style="text-align:center;line-height:125%;-inkscape-font-specification:Arial Bold">positive right)</tspan></text><text style="text-align:center;line-height:125%;-inkscape-font-specification:Arial Bold" x="947.969" y="467.454" font-size="12" font-weight="700" text-anchor="middle" fill="#8080ff" font-family="Arial"><tspan x="947.969" y="467.454" style="text-align:center;line-height:125%;-inkscape-font-specification:Arial Bold">axes[3]</tspan><tspan x="947.969" y="482.454" style="text-align:center;line-height:125%;-inkscape-font-specification:Arial Bold">(negative up</tspan><tspan x="947.969" y="497.454" style="text-align:center;line-height:125%;-inkscape-font-specification:Arial Bold">positive down)</tspan></text><text style="text-align:center;line-height:125%;-inkscape-font-specification:Arial Bold" x="784.342" y="31.708" font-size="32" font-weight="700" text-anchor="middle" font-family="Arial"><tspan x="784.342" y="31.708">STANDARD GAMEPAD</tspan></text></g></svg>