<svg xmlns="http://www.w3.org/2000/svg" width="2098.969" height="1126.961" viewBox="0 0 1049.485 563.48"><defs><style>@font-face{font-family:&quot;Virgil&quot;;src:url(&quot;https://excalidraw.com/FG_Virgil.woff2&quot;)}@font-face{font-family:&quot;Cascadia&quot;;src:url(&quot;https://excalidraw.com/Cascadia.woff2&quot;)}</style></defs><g fill="none"><path stroke="#40c057" stroke-width=".5" d="M436.584 226.122s0 0 0 0m0 0s0 0 0 0m-.69 6.868c1.47-2.899 3.152-3.979 5.939-6.67m-5.45 6.21c1.714-2.153 4.045-4.55 5.13-6.39m-6.351 12.338c3.368-2.728 5.78-6.942 12.445-11.487m-11.305 11.897c4.384-5.922 7.592-9.1 10.628-12.667m-11.487 17.4c4.869-4.681 8.91-9.437 17.593-18.554m-16.363 19.7a763.122 763.122 0 0016.523-19.195m-17.645 26.125c4.165-8.658 11.66-12.312 23.696-26.854m-22.86 25.8c9.593-9.889 17.345-20.17 20.779-25.125m-18.93 30.518c5.77-6.947 10.72-15.857 26.051-28.887M436.7 257.52c9.868-10.603 17.741-22.078 25.134-31.639M437.65 262.49c7.115-7.136 11.575-15.464 30.181-35.121m-30.674 36.176c10.612-13.754 20.026-24.233 30.418-37.495m-31.03 43.168c9.94-8.8 17.527-18.035 35.052-44.068m-34.363 43.07c10.906-13.417 23.755-27.133 36.307-42.399m-35.666 50.56c9.436-13.352 19.917-27.587 42.278-48.587m-43.065 47.67c13.852-16.21 27.543-34.792 41.538-50.311m-41.684 57.142c13.129-18.527 24.305-30.626 48.295-54.554m-49.363 52.36c12.612-11.7 23.542-25.691 49.068-53.122m-47.223 61.938c13.448-20.172 26.815-35.169 52.845-62.955m-53.355 60.72c17.663-21.055 36.221-42.15 51.57-61.727m-51.782 69.033c15.638-19.487 28.627-35.466 59.143-68.55m-60.652 68.547c17.213-20.299 35.008-40.676 58.595-67.711m-58.097 74.468c22.172-25.193 46.543-54.137 63.088-74.182m-62.443 73.497c18.085-20.745 34.384-39.25 62.786-74.644m-60.199 78.679c19.562-24.701 39.852-48.297 66.673-79.49m-68.744 80.148c26.211-30.435 51.913-59.881 68.286-77.798M444.7 304.79c16.272-22.643 37.708-44.688 64.646-79.671m-65.902 78.105c26.321-28.944 51.582-57.247 68.4-77.91M450.36 305.96c16.726-23.14 33.574-45.934 66.373-80.528m-68.302 79.385c25.299-29.779 50.703-58.839 68.451-79.228m-61.53 76.822c17.493-20.42 38.44-43.256 67.349-76.397m-68.724 77.7c25.406-29.268 50.353-59.39 68.307-78.442m-63.848 79.384c17.422-21.663 37.684-40.946 67.129-76.68M459.448 303.3c16.098-18.867 31.751-37.673 67.297-76.215m-61.96 77.215c13.883-18.784 28.93-35.507 67.333-79.84m-66.447 78.435c21.517-23.364 42.575-48.419 67.22-76.17m-64.592 78.798c22.566-23.833 40.697-46.647 69.644-79.401m-68.536 77.459c19.923-24.196 40.821-47.652 67.345-77.908m-62.33 76.802c25.83-27.55 49.827-56.552 69.806-77.953m-68.91 78.415c17.98-18.634 34.951-38.683 67.412-77.992m-64.277 77.807c19.8-20.962 40.949-42.611 67.624-77.145m-65.638 79.259c13.805-15.286 27.427-31.818 66.622-78.956m-62.707 78.885c19.047-22.545 38.092-47.278 68.312-78.935m-66.526 78.474c25.61-31.557 52.89-62.135 65.998-77.548m-61.072 78.584c16.805-17.908 30.662-36.236 67.77-79.362M490.6 303.19c22.613-25.208 44.32-50.115 68.65-77.506m-64.585 80.032c24.78-29.348 49.501-55.776 68.022-79.002m-66.568 76.952c24.167-29.426 49.958-57.15 68.222-77.004m-62.385 76.59c14.393-14.888 27.802-32.327 65.785-76.508m-66.874 77.674c25.822-30 50.894-58.203 68.45-79.207m-63.25 80.065c25.973-32.692 51.08-63.508 67.174-78.844m-67.609 77.145c24.414-25.53 45.67-52.22 68.888-77.493m-63.916 79.035c15.902-15.469 29.193-33.779 70.371-80.036m-68.838 78.158c12.871-14.605 27.361-31.361 68.55-77.208m-62.726 77.587c19.25-20.879 34.764-42.77 67.624-79.17m-69.08 79.851c22.196-24.471 42.863-47.846 68.926-78.668m-63.29 78.897c22.465-25.22 46.065-51.536 67.234-78.396M522.23 304.18c26.403-29.826 51.777-60.302 68.971-78.157m-62.144 77.96c20.781-25.505 40.102-50.192 67.575-76.93m-68.987 76.597c13.564-16.33 28.28-32.995 68.11-76.928m-62.4 75.172c22.011-22.815 43.263-48.838 67.077-77.046m-67.543 79.733c17.314-18.482 32.7-37.642 67.236-78.203m-61.403 77.062c18.239-18.201 32.076-38.194 66.232-78.08m-65.574 79.397c13.192-19.015 29.523-35.052 65.712-78.172m-62.397 75.871c16.88-17.826 34.167-37.418 69.6-78.434m-67.518 79.598c12.288-17.046 26.146-32.317 66.37-76.994m-62.167 76.287c17.468-22.173 38.099-44.03 67.799-77.572m-68.32 77.748c15.152-16.025 30.031-32.728 68.506-77.797m-60.704 77.02c14.352-20.082 30.946-35.546 67.509-78.017m-69.29 79.007c18.767-20.85 35.2-40.199 66.894-77.678m-62.861 79.543c17.33-21.507 34.04-41.132 69.475-79.358m-68.935 77.63c22.588-26.747 46.551-53.214 68.768-76.703M565.813 302.4c25.315-29.808 52.475-58.397 66.506-76.246m-66.812 77.306c20.002-24.244 41.332-47.562 66.833-76.904m-63.684 78.258c16.458-21.612 34.29-37.97 69.467-80.394m-68.365 80.509c18.74-22.552 34.856-41.873 68.267-79.287m-63.261 76.856c28.783-29.74 56.572-58.84 69.293-78.575m-68.773 78.83c15.03-15.584 29.145-31.854 67.712-76.82m-61.595 76.37c26.421-25.278 48.64-54.783 66.977-74.631m-67.79 76.335c18.284-20.44 35.416-41.386 68.279-77.448m-60.683 76.673c19.306-22.81 38.714-47.542 67.576-75.457m-69.595 75.895c21.023-24.831 42.495-48.16 68.551-77.076m-61.319 75.336c22.903-28.622 53.201-60.215 66.209-77.021m-67.627 78.542c25.962-30.351 51.212-61.106 67.577-76.584m-60.754 77.204c13.69-18.856 30.488-36.35 66.056-78.347m-68.436 77.803c24.17-26.663 49.053-54.8 67.876-76.818m-62.347 79.129c22.257-27.288 44.741-52.373 68.363-79.52m-68.523 77.049c19.483-22.065 39.879-44.182 68.435-77.594M609 305.324c11.29-16.335 24.696-35.758 64.469-77.43M607.25 303.47c23.509-26.377 46.264-52.42 65.74-76.432m-61.968 76.971c13.03-14.502 28.1-27.565 61.084-71.533m-59.802 71.713c21.801-25.266 45.918-52.369 62.065-71.33m-58.207 70.047c18.063-20.85 36.509-39.277 55.612-63.369m-54.664 64.689c17.292-18.492 33.4-37.2 55.767-63.273M625.23 304.27c15.881-20.422 32.11-36.84 50.2-58.031m-52.206 57.438c11.673-13.953 23.772-28.91 50.365-58.708m-44.293 58.333c15.214-17.735 34.078-39.891 46.406-50.92m-46.347 51.702c10.581-15.341 24.28-28.28 44.19-51.292m-37.698 49.503c5.978-8.179 14.815-20.873 39.193-45.742m-40.366 47.372a14539.071 14539.071 0 0139.388-44.9m-34.963 43.09c8.5-9.761 16.347-19.35 34.21-36.288m-34.022 38.606c10.8-13.923 23.237-28.652 34.194-40.392m-30.676 39.557c9.047-7.426 16.977-17.2 30.578-32.127m-29.183 32.877c7.776-10.428 16.268-18.981 28.72-34.315m-22.343 32.995c7.484-8.566 15.729-20.738 24.728-27.928M649.79 303.73c5.658-7.591 12.76-15.93 23.8-27.222m-16.9 29.031c2.775-8.984 9.613-15.11 17.904-21.385m-18.822 18.543c6.654-6.468 12.304-14.166 17.48-20.597m-12.855 22.477c5.874-7.258 8-11.653 12.006-14.538m-12.735 13.217c6.44-4.222 9.798-9.912 13.875-15.174m-8.298 15.367c2.516-3.326 4.859-4.966 8.172-8.105m-6.952 8.539c1.478-2.22 4.11-4.756 7.313-9.408"/><path stroke="#000" d="M435.661 226.64c89.71-.694 182.243.468 237.974-.34m-237.539-.454c78.461-2.147 157.262-1.993 235.668.53m-.477-.285c2.29 30.24 2.217 58.085 1.179 75.284m-1.039-74.485c1.766 23.815 1.745 48.348.084 76.64m-1.143-.633c-86.19.773-174.495 2.37-232.698-1.319m234.485 1.406c-54.46-.586-107.589.012-235.527-.072m.172-1.923c.12-14.848-.775-32.646 1.736-74.189m-2.802 75.644c1.584-21.811.203-43.795 1.648-76.72"/></g><text x="85.5" y="18" font-family="Virgil, Segoe UI Emoji" font-size="20" text-anchor="middle" style="white-space:pre" transform="translate(468.814 251.884)">TransformStream</text><g fill="none"><path stroke="#228be6" stroke-width=".5" d="M10 229.209s0 0 0 0m0 0s0 0 0 0m.209 5.715c1.863-1.56 4.047-4.408 4.474-4.741m-5.101 5.473c1.128-1.295 2.577-2.144 5.179-6.194m-3.041 12.507c2.775-6.075 5.599-9.583 8.263-11.536m-9.177 10.604c2.527-3.772 5.976-6.312 9.302-11.954M8.701 247.564c7.956-5.537 13.532-12.703 17.083-16.337m-15.78 16.5c6.531-8.182 12.523-13.71 15.038-18.497M10.98 251.828c5.159-4.924 12.944-13.585 22.049-23.86M9.625 253.77c7.142-8.87 14.165-16.685 22.514-25.412m-21.38 29.765c4.288-6.82 10.773-12.31 24.137-28.164M9.354 259.935c7.798-8.38 14.241-14.583 27.806-30.462m-25.8 37.934c9.717-13.841 20.533-24.605 30.48-38.134M9.418 265.496c11.71-13.732 24.288-27.568 31.975-35.728m-32.29 42.473c13.528-15.017 25.54-27.861 36.52-43.574m-36.06 43.491c12.477-13.37 23.74-26.114 36.484-42.801m-37.29 47.261c14.866-13.186 28.896-30.27 43.234-49.51m-41.12 51.935c16.42-18.657 31.73-38.942 41.424-50.089M11.589 282.24c15.781-18.329 29.286-35.196 45.282-50.865m-45.743 51.748c14.038-16.555 28.952-34.492 46.668-54.49m-46.254 63.484c14.39-18.462 28.307-36.467 51.514-62.54M9.363 289.979c13.54-15.594 27.421-29.641 53.37-60.477M11.268 296.85c16.42-19.99 35.76-44.034 57.122-66.088M9.217 296.233c18.092-20.939 37.88-42.384 59.12-67.763M9.594 302.457c15.992-17.716 29.439-35.733 64.865-72.02m-63.7 72.1c20.562-24.54 42.928-49.567 62.167-72.617m-60.617 76.768c22.985-30.205 47.831-58.306 66.464-76.522M10.608 308.04c25.008-28.731 48.77-55.155 67.816-79.574m-60.236 78.84c25.478-28.64 48.076-55.363 65.274-80.203M16.31 305.826c24.172-25.476 46.114-50.227 68.102-77.19m-63.096 80.103c17.213-22.803 33.468-41.149 66.14-79.16m-65.459 78.152c22.462-25.96 45.949-51.447 66.642-78.1m-60.375 75.913c15.56-15.919 30.069-34.512 66.912-74.9m-67.263 76.3c24.808-28.707 49.01-55.92 67.152-77.942m-62.722 79.515c20.204-27.086 41.319-51.15 68.378-80.867M32.01 306.29c25.92-28.988 51.478-56.96 68.38-76.884m-64.1 78.823c27.802-30.208 52.451-63.06 68.265-80.44m-65.577 79.127c21.324-24.573 41.873-48.43 67.106-78.625m-63.62 80.332c14.337-18.47 26.889-34.864 67.229-80.94M43.781 306.05c17.25-21.278 37.553-44.646 67.138-77.4m-63.4 77.89c26.247-27.7 50.709-57.424 66.874-79.618m-65.71 78.746c17.077-21.505 35.988-42.416 68.314-76.968m-64.396 76.616c21.23-23.126 42.82-47.442 67.738-77.673m-67.561 78.625c18.785-19.859 36.832-39.01 67.512-77.625M58.039 306.31c20.233-25.121 45.172-48.494 66.636-77.477m-65.646 78.705c21.103-25.938 43.705-51.303 66.975-78.442M65.52 306.508c21.815-27.341 45.604-53.408 65.95-76.365m-67.679 75.982c26.988-29.898 54.322-59.815 68.607-76.039m-64.265 76.706c21.093-23.12 43.473-47.841 69.063-77.078m-68.003 77.339c23.645-27.184 48.256-55.601 68.406-78.039m-61.77 76.76c24.348-29.061 53.925-59.7 64.916-77.314m-64.8 79.262c23.392-30.587 50.041-58.647 66.023-77.615m-63.072 77.514c16.81-16.798 34.327-36.026 66.733-79.952m-66.478 79.216c14.901-16.001 29.158-32.811 68.488-76.719m-63.656 78.171c17.208-18.792 30.157-34.16 70.679-79.814m-68.975 78.56c25.765-29.842 51-57.578 67.862-77.832M90.296 307.36c25.291-29.68 48.711-53.883 69.85-77.653M90.734 307.4c25.005-28.866 51.602-58.546 68.233-76.964m-64.69 74.647c24.68-23.093 46.48-50.535 68.288-74.164m-66.767 76.232c24.235-29.208 48.027-55.652 68.725-78.663m-62.724 77.978c22.198-25.78 45.814-51.399 66.963-75.976m-67.506 76.14c19.97-20.525 38.467-43.716 68.491-77.003M108.85 306.55c11.335-14.893 24.86-31.096 65.789-77.66m-68.26 77.905c26.8-29.156 53.552-59.507 67.715-78.589m-60.376 77.855c25.806-30.798 48.447-58.664 65.616-75.72m-67.47 77.685c26.371-30.214 53.122-62.236 66.613-79.56m-60.791 76.47c15.389-14.777 32.33-35.171 66.229-74.6m-66.05 75.467c21.822-22.488 41.825-47.458 66.433-76.584m-63.089 76.699c22.758-25.42 47.971-53.211 68.356-76.68m-67.036 78.226c21.954-24.583 43.635-50.252 68.451-77.862m-62.367 78.488c19-24.339 41.91-47.893 67.655-80.278m-68.248 78.073c19.486-22.48 38.164-44.504 66.979-76.124m-62.727 76.705c27.907-28.462 51.453-57.58 68.73-77.652m-67.948 77.425c19.989-23.676 42.496-48.725 68.357-77.635M137.3 305.522c22.395-24.336 40.529-45.22 67.116-76.994m-65.486 79.147c15.905-20.038 33.269-38.625 67.956-79.188m-65.14 78.305c22.027-25.68 44.063-49.7 71.287-76.435m-68.967 75.715c25.458-28.89 49.987-57.43 67.18-77.107m-61.978 77.432c27.802-29.431 53.228-60.003 68.654-78.045m-67.904 77.374c12.386-14.99 26.766-31.384 66.466-76.25m-63.159 77.163c19.88-22.314 36.453-41.857 67.57-77.826m-66.87 77.289c22.818-25.533 44.699-51.278 68.277-77.005m-60.43 76.438c18.043-22.458 38.454-45.833 67.32-75.725m-70.163 77.705c28.298-31.944 54.831-63.569 68.11-78.288m-61.602 79.179c13.887-20.787 30.63-39.528 68.13-77.62m-69.451 77.105c27.221-30.252 52.542-58.63 67.493-78.553m-61.394 76.075c17.24-20.893 37.574-41.474 69.16-77.333m-68.438 78.36c22.598-25.543 44.897-52.475 66.989-76.778m-64.271 77.485c21.833-24.759 43.95-48.745 70.511-78.616m-68.515 77.892c21.334-23.359 42.263-49.19 67.185-77.48m-61.292 77.221c20.34-21.302 40.512-44.213 65.252-74.9m-65.451 75.559c21.752-24.419 42.309-47.75 65.736-75.435M188.2 308.575c9.77-15.374 24.862-31.93 60.701-71.062m-62.326 69.592c19.84-23.301 41.065-46.388 61.64-70.463m-56.12 71.691c15.846-17.81 30.849-39.656 53.738-66.933m-55.505 66.257c19.756-23.835 39.021-45.377 57.55-63.938m-51.947 63.338c11.012-11.846 23.716-25.867 52.87-58.775m-52.349 58.483c10.945-12.217 21.99-24.78 50.838-57.25m-43.581 58.342c12.818-17.856 25.385-29.747 44.883-54.03m-46.537 52.772c9.663-10.473 19.417-23.21 45.249-51.57m-40.45 52.587c10.721-12.118 18.833-22.45 40.846-45.324m-39.716 44.36c13.108-14.052 25.084-29.876 37.906-44.841m-31.48 44.78c8.815-11.577 17.544-21.911 33.39-40.241m-35.442 41.139c6.754-7.665 15.318-16.524 35.588-40.56m-28.225 41.005c8.452-10.725 19.181-23.516 27.487-35.017m-29.612 34.52c7.231-9.643 14.769-16.36 28.51-34.47m-23.485 34.328c5.572-6.458 11.124-11.305 24.302-27.865m-22.971 26.904c7.608-9.55 18.242-21.24 23.17-26.885m-19 28.897c7.912-8.36 13.875-16.293 20.686-20.895m-20.266 18.763c6.706-6.269 11.925-11.91 18.847-19.61m-14.784 21.778c4.912-7.23 9.279-10.54 13.015-17.442m-12.74 16.123c5.056-4.91 9.147-9.544 14.443-14.266m-8.46 13.403c1.73-.994 4.24-3.672 7.942-8.276m-7.097 9.269c2.538-2.934 4.556-6.142 8.11-9.015"/><path stroke="#000" d="M11.356 229.44c74.218-1.697 153.917.647 235.278-1.32M9.51 229.241c50.79 1.79 99.64 2.626 236.483-.24m1.302-.436c-2.952 14.282-1.126 32.554-1.823 78.02m-.412-77.138c-.777 25.372-.93 48.844-.596 75.829m1.424 1.609c-69.64-.906-136.457.699-236.62-1.306m236.617-.393c-69.64-.988-139.715-1.661-235.915.977m1.65-1.873c.565-15.448-2.67-34.79-.974-75.81m.29 77.75c-1.398-15.936-.607-32.366-1.437-76.845"/></g><text x="79" y="18" font-family="Virgil, Segoe UI Emoji" font-size="20" text-anchor="middle" style="white-space:pre" transform="translate(48.73 254.97)">ReadableStream</text><g fill="none"><path stroke="#fa5252" stroke-width=".5" d="M75.111 35.385s0 0 0 0m0 0s0 0 0 0m-4.094 11.68c3.465-7.397 8.47-12.57 22.065-27.765M71.903 45.66c6.605-6.954 13.044-15.192 21.952-24.096M64.69 59.61c12.725-12.478 20.908-23.85 36.186-40.911M65.798 57.666C75.694 45.2 86.274 33.613 99.685 18.248M66.877 61.09c15.631-15.591 29.296-32.707 41.596-45.5m-40.7 45.962c10.65-10.419 20.284-22.028 39.201-45.54M66.972 65.895c13.186-13.142 27.695-27.154 44.662-50.73M68.958 68.008c9.377-10.123 18.363-21.322 43.66-52.54M68.28 73.22c14.951-17.656 29.835-37.602 53.879-62.33M70.067 72.76c19.904-24.847 41.45-48.831 51.564-60.945m-49.92 65.754C85.897 62.75 97.155 47.414 127.673 11.79M71.247 75.389c18.685-20.838 36.53-41.302 56.84-63.92M71.375 82.444c21.846-25.92 43.612-48.949 59.494-69.191M72.83 80.393c21.048-25.738 43.7-49.85 59.693-67.192M74.73 84.509c13.121-13.474 25.306-29.504 59.88-69.716M73.64 85.674c23.655-27.464 46.532-53.142 62.547-72.414m-61.282 77.8c24.966-31.513 49.045-61.146 64.549-75.825M74.47 89.361c23.537-24.525 43.901-50.187 66.263-74.474M76.817 93.922c15.636-15.156 28.651-33.148 69.06-78.526M78.351 92.045c12.605-14.304 26.824-30.748 67.238-75.699M82.207 94.688c19.25-20.88 34.763-42.77 67.623-79.17m-69.08 79.85c22.197-24.471 42.864-47.846 68.927-78.667M83.762 98.617c22.688-25.472 46.504-52.039 67.89-79.152m-67.8 78.8c26.65-30.12 52.278-60.887 69.627-78.911m-65.425 81.733c21.18-25.98 40.904-51.13 68.887-78.44m-70.299 78.107c13.839-16.655 28.841-33.649 69.422-78.438m-66.336 79.7c22.406-23.291 44.065-49.784 68.389-78.554m-68.855 81.242c17.634-18.839 33.34-38.367 68.548-79.713m-64.684 80.836c18.568-18.563 32.72-38.918 67.545-79.59m-66.887 80.907c13.485-19.358 30.107-35.73 67.025-79.681m-66.334 80.4c17.183-18.185 34.783-38.138 70.913-79.945m-68.83 81.108c12.558-17.36 26.682-32.937 67.681-78.503m-64.134 78.55c17.468-22.172 38.098-44.03 67.798-77.571m-68.32 77.748c15.153-16.026 30.032-32.728 68.507-77.797m-62.017 78.53c14.038-19.706 30.315-34.805 66.197-76.508m-67.977 77.497c18.426-20.455 34.513-39.407 65.581-76.168m-62.205 78.788c16.848-20.92 33.064-39.977 67.507-77.094m-66.967 75.365c21.926-25.947 45.205-51.626 66.8-74.438m-61.353 74.908c23.274-27.42 48.389-53.657 61.257-70.208m-61.563 71.269c18.417-22.364 38.13-43.82 61.585-70.867m-59.092 72.975c14.605-19.4 30.496-33.526 61.595-71.338m-60.493 71.453c16.72-20.13 30.747-37.049 60.395-70.23m-56.045 68.554c24.029-24.292 47.15-48.024 57.484-64.991m-56.964 65.246c12.46-12.716 24.122-26.165 55.903-63.236M129.9 111.48c19.767-17.891 35.518-39.956 49.264-54.252m-50.077 55.957c13.647-14.976 25.994-30.418 50.565-57.07m-41.657 54.787c12.256-14.43 24.475-30.891 44.614-49.044m-46.633 49.48c14.09-16.406 28.415-31.513 45.59-50.66M144.52 108.09c12.373-16.147 32.033-35.502 39.31-46.078m-40.729 47.598c15.603-18.333 30.318-36.97 40.679-45.64m-32.543 44.75c5.158-8.675 13.29-16.202 29.972-36.836m-32.353 36.293c11.4-12.035 23.575-25.553 31.793-35.309m-26.92 38.375c8.446-11.975 17.574-21.696 26.376-31.219m-26.536 28.748c7.647-7.943 15.784-15.958 26.447-29.293"/><path stroke="#000" d="M121.811 10.626c8.957-.923 19.518 1.875 27.982 6.091 8.464 4.216 17.737 11.814 22.802 19.203 5.066 7.388 7.307 16.611 7.592 25.128.286 8.517-1.173 18.227-5.88 25.972-4.707 7.745-13.748 15.892-22.362 20.496-8.615 4.605-19.603 7.202-29.326 7.131-9.723-.07-20.838-3.161-29.013-7.556-8.175-4.394-15.3-11.045-20.038-18.81-4.738-7.764-8.69-18.906-8.387-27.776.304-8.87 4.788-18.175 10.21-25.441 5.422-7.267 13.029-14.09 22.322-18.16 9.292-4.069 26.498-5.552 33.434-6.257 6.937-.705 8.32 1.267 8.186 2.026m6.17 2.579c8.79 2.71 17.743 8.529 23.486 15.439 5.743 6.91 9.56 17.408 10.972 26.024 1.412 8.615 1.348 17.475-2.496 25.667-3.845 8.192-12.431 18.002-20.572 23.484-8.14 5.482-18.464 8.797-28.27 9.409-9.807.61-21.873-2.01-30.568-5.742-8.696-3.733-16.288-9.527-21.604-16.653-5.316-7.126-9.525-17.344-10.293-26.103-.768-8.758 1.175-18.249 5.684-26.448 4.508-8.198 13.268-17.733 21.37-22.744 8.101-5.012 18.51-6.807 27.24-7.323 8.729-.516 21.28 3.417 25.134 4.227 3.855.809-1.782.05-2.006.628"/></g><text x="33" y="18" font-family="Virgil, Segoe UI Emoji" font-size="20" text-anchor="middle" style="white-space:pre" transform="translate(80.371 49.775)">fetch()</text><path fill="none" stroke="#000" d="M128.607 120.553c-.317 17.703-1.089 87.503-1.25 104.989m-.328-105.85c-.445 17.928-.28 89.27-.212 107.058"/><path fill="none" stroke="#000" d="M117.07 199.879c1.633 9.948 4.974 18.364 10.576 27.692m-11.338-29.49c2.883 8.074 4.405 13.112 10.148 28.72"/><path fill="none" stroke="#000" d="M137.59 199.828c-5.255 9.927-8.803 18.36-9.944 27.743m9.183-29.541c-1.957 7.991-5.276 13.041-10.373 28.771"/><text x="71" y="18" font-family="Virgil, Segoe UI Emoji" font-size="20" text-anchor="middle" style="white-space:pre" transform="translate(137.185 149.72)">lorem-ipsum.txt</text><path fill="none" stroke="#000" d="M256.373 265.475c28.472.824 142.431 3.918 171.05 4.401m-169.348-2.062c28.378.553 140.136-.03 168.401.193"/><path fill="none" stroke="#000" d="M397.4 278.25c8.51-1.124 12.743-6.5 27.905-8.36m-26.627 8.011c6.552-1.705 14.846-5.952 28.474-9.593"/><path fill="none" stroke="#000" d="M397.416 257.728c8.325 3.78 12.553 3.309 27.89 12.163m-26.61-12.51c6.384 3.948 14.673 5.355 28.456 10.927"/><text x="70" y="18" font-family="Virgil, Segoe UI Emoji" font-size="20" text-anchor="middle" style="white-space:pre" transform="translate(255.831 222.57)">&quot;Lorem ipsum…&quot;</text><text x="82.5" y="18" font-family="Virgil, Segoe UI Emoji" font-size="20" text-anchor="middle" style="white-space:pre" transform="translate(684.237 231.565)">&quot;LOREM IPSUM…&quot;</text><path fill="none" stroke="#000" d="M677.343 264.914c27.98.678 140.205 3.561 168.142 4.184m-166.22-1.92c27.9.927 138.097 3.016 165.595 3.439"/><path fill="none" stroke="#000" d="M815.38 281.402c8.964-3.443 16.087-5.899 29.486-12.422M817.15 280.75c7.07-3.678 15.57-5.048 27.476-9.283"/><path fill="none" stroke="#000" d="M815.742 260.884c8.77 2.245 15.793 5.479 29.124 8.096m-27.354-8.75c7.073 1.89 15.474 6.086 27.113 11.236"/><g fill="none"><path stroke="#fa5252" stroke-width=".5" d="M859.525 267.99s0 0 0 0m0 0s0 0 0 0m3.416 4.492c14.815-16.14 27.07-34.857 51.547-62.914m-51.73 61.063c14.569-16.061 28.908-34.875 54.028-61.233m-53.784 65.154c17.67-17.173 30.273-32.137 53.902-61.803m-52.667 60.869c14.81-15.708 27.073-30.84 53.51-61.246m-51.816 64.847c13.45-13.026 26.714-29.226 55.45-61.739m-52.571 61.296c10.46-13.233 21.944-25.561 52.49-62.379m-52.284 66.932c21.76-22.156 38.682-44.89 53.576-64.657m-52.48 62.416c10.538-12.031 23.967-25.461 54.434-61.42m-50.981 63.342c21.835-23.685 43.507-45.824 55.254-59.191m-54.583 60.417c14.012-17.755 31.185-37.112 53.496-61.446m-51.978 63.718c19.218-18.918 37.17-41.763 54.394-61.908m-54.225 63.005c10.468-11.219 20.456-24.816 52.86-62.062m-51.473 66.175c11.19-14.467 23.175-27.047 53.848-63.313m-51.57 62.556c16.016-20.734 33.261-39.9 53.74-62.407m-52.97 66.475c18.948-21.293 36.1-40.463 54.745-61.096m-53.592 59.522c20.388-24.444 41.483-47.752 53.731-61.394m-52.42 66.557c12.897-14.904 24.335-31.577 53.78-61.902m-53.014 59.36c11.018-11.894 23.888-25.425 55.077-60.488m-50.824 64.165c14.453-14.592 25.786-32.685 53.988-63.029m-53.753 62.383c10.915-15.254 23.096-28.173 52.463-60.402m-51.937 62.933c16.73-15.754 29.104-31.038 56.595-61.753m-56.41 62.241c19.886-22.318 40.392-45.413 53.855-61.416m-49.609 66.226c14.193-21.546 29.754-39.185 53.17-62.004m-53.09 60.756c9.698-13.283 22.35-25.935 53.658-63.061m-50.124 65.985c8.05-13.474 21.81-25.617 50.187-59.91m-51.614 58.624c15.821-16.17 31.592-34.862 54.272-60.663m-53.544 64.577c16.268-19.32 32.944-36.335 55.026-61.808m-52.182 61.572c11.972-16.184 26.163-33.092 53.103-62.34m-52.061 65.627c15.244-15.791 29.083-36.801 55.412-62.68m-54.462 61.964c17.951-20.335 37.576-41.726 52.99-60.464M905.1 314.232c10.582-15.221 23.228-31.309 50.602-62.737m-51.439 63.53c18.156-21.778 35.843-43.036 52.4-61.215m-48.816 66.01c15.061-21.594 34.859-43.16 50.163-61.104m-51.843 58.216c13.207-15.07 25.954-29.67 53.205-59.293m-50.49 63.76c12.532-15.224 27.728-32.412 55.257-61.599m-54.098 60.111c15.327-17.213 29.62-35.956 52.965-60.673m-52.443 66.514c16.862-23.27 35.914-42.084 55.986-61.978m-55.314 59.855c18.512-20.962 36.204-41.73 53.27-60.873m-51.012 64.863c11.999-15.202 24.947-28.927 53.385-63.935m-51.945 62.791c17.536-20.68 36.489-41.925 52.742-61.934"/><path stroke="#000" d="M916.707 208.735c15.698 18.508 31.943 34.756 52.919 60.235m-53.73-59.816c21.21 21.4 41.546 44.95 53.886 58.621m-1.971.273c-16.12 17.263-31.68 35.561-51.935 60.519m53.412-59.91c-19.411 21.915-39.876 44.978-54.358 59.175m-1.3-.852c-11.177-16.138-27.75-30.793-53.007-58.274m54.777 57.849c-19.308-19.829-37.852-37.58-55.538-58.072m-1.091 1.683c19.874-20.065 37.147-40.056 55.232-60.77M860.16 267.85c17.11-19.21 37.274-40.642 55.493-59.632"/></g><text x="24" y="18" font-family="Virgil, Segoe UI Emoji" font-size="20" text-anchor="middle" style="white-space:pre" transform="translate(890.567 255.234)">tee()</text><g fill="none"><path stroke="#228be6" stroke-width=".5" d="M788.229 55.032s0 0 0 0m0 0s0 0 0 0m-.771 6.9c1.711-1.597 3.515-3.334 5.792-7.136m-5.585 6.77c1.994-2.87 4.485-4.98 5.652-6.331m-5.397 10.744c2.647-3.791 7.324-5.263 9.837-10.106m-8.801 10.67c1.467-1.817 3.773-3.721 10.623-11.275m-11.27 19.89c3.99-6.572 10.85-10.546 14.187-18.02m-14.219 16.46c6.552-6.137 12.464-13.403 15.373-18.033m-15.854 24.338c7.752-10.535 15.952-18.53 20.446-22.949m-20.646 21.527c7.816-7.053 12.963-12.729 21.411-24.069M789.56 87.107c5.626-9.072 7.889-13.694 25.669-31.281m-27.563 30.486c9.237-12.427 19.422-22.22 27.797-31.133m-26.868 37.35c9-10.437 14.79-20.453 30.675-38.592m-31.062 38.947c11.097-13.605 22.89-27.387 31.247-38.46M787.074 96.34c10.223-9.233 20.303-21.064 38.595-39.37m-37.802 40.55c10.917-11.28 19.029-21.27 37.882-41.797m-37.934 49.234c7.594-12.94 18.656-19.245 44.093-49.329m-42.878 47.424c8.564-9.342 15.368-19.509 41.45-48.71m-42.164 56.976c11.667-15.862 24.932-29.78 45.516-56.081m-45.636 54.019c12.8-13.97 25.375-26.93 48.48-54.255m-49.737 61.482c11.35-13.579 26.172-27.423 53.403-61.214m-52.831 61.34c14.185-16.415 30.059-34.674 53.781-62.056m-52.349 67.36c14.612-18.36 28.957-33.525 58.635-66.967m-60.437 66.78c14.344-14.965 29.324-31.636 59.6-65.986m-58.79 71.56c20.611-20.433 37.38-42.916 65.654-70.54m-65.52 70.58c15.397-16.534 29.319-32.388 63.84-73.468m-61.19 79.009c20.283-22.714 38.813-45.495 65.872-76.805m-67.306 77.708c15.57-19.014 31.19-37.509 68.466-79.197m-64.526 79.129c25.804-27.963 48.846-54.89 68.329-77.06m-66.494 76.757c14.555-16.024 28.487-31.928 67.166-78.881m-61.333 77.817c20.915-25.842 43.522-48.59 65.56-76.09m-66.777 76.17c17.897-20.325 36.535-42.329 68.216-77.315m-64.053 77.141c17.796-20.415 37.683-38.268 69.1-78.089m-67.007 78.312c23.363-26.005 44.675-52.531 66.987-77.29m-63.813 78.782c26.687-29.179 49.553-58.7 67.428-77.187m-66.79 75.159c23.913-27.523 47.497-53.688 68.883-77.13m-61.272 77.8c22.416-26.647 47.24-57.015 67.952-79.451m-69.139 78.455c17.637-19.599 35.877-40.99 68.34-77.695m-61.462 79.566c22.85-29.067 44.53-55.667 67.025-76.89m-68.127 76.868c20.739-24.564 43.332-51.15 67.823-79.371m-62.634 79.514c14.526-17.947 30.49-33.628 67.93-77.445m-67.549 76.141c12.083-14.713 27.607-31.385 66.828-77.077m-61.098 78.071c17.82-21.28 34.46-42.317 66.896-78.996m-68.577 78.257c24.418-26.098 46.842-53.073 68.884-77.263m-64.072 78.422c15.612-20.512 31.524-38.963 66.427-78.61m-65.757 76.834c18.696-21.133 34.703-40.597 67.894-76.157M843.09 132.46c26.9-27.674 51.726-58.428 68.59-78.305m-69.95 78.055c19.172-20.436 36.327-39.162 68.42-76.534m-62.662 78.156c16.166-19.224 31.353-36.292 66.455-79.51m-66.421 79.28c24.962-28.375 49.656-57.392 68.11-79.174m-60.863 78.254c18.499-20.701 34.975-43.734 64.653-76.61m-67.066 75.75c16.365-16.583 31.852-33.916 69.28-77.408M858.64 132.23c19.346-25.057 42.843-48.899 66.095-75.176m-65.779 76.967c18.59-22.182 36.34-44.667 66.61-78.343m-62.206 76.657c26.009-29.535 51.87-60.21 66.632-78.711m-66.768 78.602c16.39-18.051 33.35-37.572 68.816-76.614m-62.112 75.498c22.79-25.407 44.276-49.317 65.05-74.66m-65.21 76.662c13.985-18.017 28.03-33.835 65.647-77.393m-60.645 76.72c16.86-19.695 31.757-35.984 69.073-76.403m-68.908 76.632c17.754-20.652 34.457-39.676 66.881-77.378m-61.887 76.287c15.811-20.451 36.052-38.12 65.364-77.259m-64.95 79.645c16.627-19.877 33.117-41.758 67.328-77.802m-63.923 74.516c17.021-18.83 34.553-38.833 69.524-76.484m-67.36 77.629c16.617-21.605 34.817-41.957 65.828-77.427m-60.677 77.993c12.86-17.123 29.064-33.851 68.088-77.27m-69.754 77.465c17.914-20.738 37.363-41.627 68.252-77.546m-61.763 76.347c19.974-21.975 42.362-48.824 68.531-76.75m-69.004 78.146c15.249-16.375 29.774-33.397 68.504-76.986m-64.321 76.164c17.807-17.17 36.7-37.755 69.266-75.99m-67.89 76.931c15.558-17.85 30.574-35.57 67.52-77.102m-62.87 75.756c15.719-15.204 30.265-32.843 69.642-77.998m-68.748 78.503c16.873-18.082 35.494-38.962 68.265-76.782m-65.144 79.081c23.695-28.2 49.37-56.601 67.945-77.715m-66.14 77.122c17.552-22.487 37.327-44.18 66.734-79.445m-59.939 76.514c23.745-26.666 46.596-54.044 67.402-76.024m-68.504 77.785a3828.89 3828.89 0 0166.96-78.043m-60.957 76.762c13.922-14.386 27.392-30.069 66.173-77.743m-66.808 78.381c17.395-19.807 36.402-41.505 67.998-76.054m-62.646 77.632c25.117-27.959 47.662-56.615 67.36-77.627m-68.21 76.844c25.13-27.057 49.678-55.204 68.941-78.493m-62.05 77.956c20.01-22.594 37.116-42.381 64.997-78.37m-66.708 79.316c17.311-21.695 35.795-42.76 67.91-78.905m-60.651 76.353c14.426-11.91 25.547-28.62 66.061-76.603m-66.809 79.296c18.377-21.728 37.09-42.454 67.06-78.362m-64.206 79.15c25.463-27.92 49.41-55.241 68.464-80.893m-66.171 79.801c26.504-30.954 52.206-60.748 67.573-78.472m-60.6 79.153c12.26-17.425 25.819-35.078 67.054-77.749m-69.269 76.522c14.019-16.392 28.85-32.772 68.668-78.373m-63.683 77.562c23.817-26.81 46.519-50.915 67.618-77.61M953.161 132c26.364-27.828 50.466-55.505 68.59-77.735m-63.122 78.744c23.515-26.926 49.823-56.147 66.915-74.596m-65.6 74.407c16.864-20.519 33.663-41.442 65.65-75.492m-62.264 73.883c16.988-14.807 31.997-32.27 61.95-68.27m-60.13 69.702c13.768-14.75 24.762-29.89 60.5-70.62m-57.927 70.279c18.963-19.67 38.545-43.692 57.289-63.151m-55.893 64.07c21.162-23.592 40.406-46.578 56.45-64.649m-49.615 64.253c15.807-17.12 29.02-36.617 51.127-58.188m-51.93 57.665c17.007-19.6 34.319-39.758 50.53-58.126m-45.926 57.45c13.767-11.603 25.114-27.25 45.938-49.512m-46.376 50.495c15.473-17.184 31.667-36.062 45.14-52.376m-37.984 51.905c13.467-18.535 30.883-33.403 38.478-44.435m-39.119 44.578c10.7-12.279 20.5-24.735 39.06-44.501m-33.636 46.198c9.893-11.207 17.58-19.673 33.065-39.229m-32.731 38.878c12.608-15.147 24.367-30.033 33.724-40.153m-27.569 40.999c10.365-14.497 18.88-28.103 28.362-36.818m-29.917 35.152c7.695-10 15.726-19.086 29.005-34.232m-22.938 33.683c8.896-9.593 18.464-19.004 25.217-28.1m-27.001 28.43c7.313-7 13.705-14.963 26.055-27.206m-20.054 27.424c8.348-6.961 14.857-17.319 18.169-21.878m-18.095 21.1c6.115-6.177 14.339-15.097 19.811-20.04m-12.727 20.033c2.285-2.655 2.618-4.854 11.285-14.169m-12.588 15.375c3.248-4.974 7.278-9.32 11.83-14.508m-6.78 14.565c3.935-3.413 5.45-7.023 8.518-9.57m-8.304 9.116c2.328-3.328 5.199-6.4 7.996-9.563"/><path stroke="#000" d="M787.714 53.531c54.364-1.199 108.184 1.205 236.86 2.437m-236.79-1.715c92.355.525 183.044.86 236.635.16m-2.342 1.51c3.45 21.03 2.965 45.79-.293 76.192m2.437-77.983c-.258 30.997-.822 62.165-1.203 77.049m.82-1.233c-80.065-1.314-160.706-1.409-237.286 2.114m237.038-.65c-58.52-.829-117.332-.705-234.617.277m.354-.978c-1.542-22.798-2.772-46.809-2.37-74.346m1.245 74.445c-1.127-27.523.238-54.846-.15-76.686"/></g><text x="79" y="18" font-family="Virgil, Segoe UI Emoji" font-size="20" text-anchor="middle" style="white-space:pre" transform="translate(826.958 80.794)">ReadableStream</text><g fill="none"><path stroke="#228be6" stroke-width=".5" d="M804.026 428.264s0 0 0 0m0 0s0 0 0 0m-.377 6.015c.851-1.901 3.363-2.91 5.832-5.93m-5.915 6.56c1.378-1.826 2.883-2.767 5.275-6.027m-5.488 10.52c3.448-1.803 5.467-6.584 11.249-11.2m-9.77 11.717c2.4-4.49 6.437-8.2 10.45-12.44m-10.516 17.287c2.849-1.76 7.218-6.734 13.394-17.889m-13.895 18.872c5.341-5.17 11.266-12.559 16.355-17.26m-17.433 22.992c7.228-4.17 9.594-7.269 21.931-23.503m-20.835 23.92a2915.033 2915.033 0 0121.034-24.085m-21.793 29.258c9.761-10.745 17.66-19.495 25.333-28.764m-24.621 30.19c11.285-12.522 19.947-22.87 25.467-29.425m-26.546 35.244c13.51-11.694 25.543-26.803 33.48-37.309m-33.005 37.585c9.321-11.33 18.264-22.35 31.345-35.982m-29.773 42.237c8.795-12.953 18.474-23.982 36.57-41.692m-36.643 40.89c7.306-8.4 14.653-18.627 36.753-41.977m-39.888 48.908c16.128-18.774 33.053-34.258 46.322-49.686m-43.97 49.214c14.742-15.674 28.378-31.364 42.41-48.44M803.1 483.975c16.064-20.07 29.335-34.475 48.153-54.968m-46.025 52.834c9.005-11.385 20.431-22.875 46.813-52.897m-48.524 60.733c20.727-24.467 41.738-47.38 53.657-63.186m-52.586 62.426c17.047-19.83 34.961-41.376 51.74-60.44M803.7 494.753c14.825-15.56 28.786-34.165 56.783-66.646m-57.005 67.9c19.728-23.59 40.028-46.404 59.405-67.415m-57.85 73.947c12.112-17.796 24.934-31.37 63.033-74.607m-63.065 73.855c15.02-16.52 27.645-34.14 62.682-74.71m-63.074 80.279c17.229-23.744 37.236-42.468 66.884-78.003m-67.055 76.458c18.365-20.766 36.211-41.266 67.506-77.487m-62.685 78.463c19.65-21.328 36.684-38.404 70.437-80.196m-68.077 79.35c16.84-20.517 35.214-40.263 66.53-76.927m-64.277 75.32c26.374-27.451 54.074-56.593 69.288-76.033m-66.574 76.862c24.617-29.048 49.93-57.259 66.002-76.29m-60.016 75.997c24.722-29.451 52.653-58.57 68.038-77.77m-69.491 79.093c23.695-27.515 46.644-53.701 68.26-77.837m-62.403 76.406c15.644-17.117 28.857-33.47 66.224-77.6m-66.871 78.599c19.942-20.083 36.734-41.52 68.678-78.364m-62.13 80.006c13.222-18.514 27.084-33.927 68.32-77.656m-69.504 75.544c21.08-24.638 41.49-49.324 68.659-78.195m-61.916 77.709c18.53-22.274 41.54-48.023 65.74-76.003m-67.593 77.858c15.378-18.176 30.872-35.523 68.637-78.188m-64.357 76.657c27.8-29.468 55.682-59.23 70.83-76.648M843.3 504.877c17.398-18.91 35.179-41.197 67.08-76.73m-63.768 78.136c23.64-28.178 48.98-56.38 66.883-79.534m-64.897 79.088c22.102-24.559 44.19-49.019 67.48-76.738m-62.018 78.348c15.742-19.041 31.24-39.547 65.462-77.79m-66.799 75.353c15.24-16.19 30.774-35.052 66.714-75.91m-59.733 77.573c19.37-23.241 39.922-48.806 67.699-79.494m-68.46 78.01c20.797-22.996 42.743-47.86 67.31-77.49m-62.068 77.466c15.233-18.31 31.636-36.085 67.726-78.14m-67.99 78.905c18.11-21.72 37.21-43.484 67.885-77.728m-62.046 76.906c18.36-21.33 40.714-48.235 65.235-78.178m-66.47 78.605c25.276-27.523 49.713-54.159 68.724-76.421m-61.48 76.373c17.471-19.399 33.481-42.912 64.203-77.235m-66.325 77.782c16.112-16.422 31.182-35.177 67.476-78.146m-62.453 76.49c17.152-16.882 33.174-34.51 67.539-76.884M879.57 505.62c21.08-24.711 40.713-48.133 66.828-78.008m-62.18 78.924c23.654-25.644 45.994-53.363 67.094-76.625m-66.8 75.494c21.07-24.452 43.098-48.62 67.494-76.645m-59.841 76.169c18.945-23.983 36.643-45.887 65.657-75.906m-67.18 76.082c25.103-29.347 52.71-60.203 67.222-77.226m-61.426 76.455c18.032-21.489 38.992-45.702 66.95-76.107m-68.768 77.565c25.74-28.95 50.71-57.027 67.79-76.452m-60.582 77.522c27.728-33.236 50.818-61.478 65.636-78.544m-65.837 77.259c23.115-25.907 46.732-52.507 66.007-77.553m-63.454 79.537c25.29-26.754 50.213-56.44 69.315-78.476m-67.6 77.282c13.424-16.461 26.669-31.792 66.715-77.293m-61.532 74.863c14.265-13.607 32.495-34.877 68.523-75.095m-68.863 76.701c20.692-23.137 41.612-47.437 67.787-76.965m-60.49 78.977c19.14-25.657 38.616-46.942 66.736-77.53M917.09 506.72c12.752-17.118 27.083-33.548 67.124-77.395m-63.033 76.24c25.647-30.612 51.453-57.85 70.366-78.854m-70.025 78.72c18.86-19.812 35.855-40.533 67.66-77.939m-63.739 76.814c22.401-23.088 43.75-46.117 70.761-74.068m-69.417 75.635c15.231-17.824 30.752-33.834 68.364-77.485m-61.907 78.433c21.676-29.836 46.447-56.167 66.209-78.118m-67.608 77.893c17.429-20.586 35.712-40.107 69.231-79.45m-64.395 77.32c23.767-26.579 48.745-49.52 67.936-75.884m-66.22 76.677c13.562-15.974 26.775-31.235 66.289-76.788m-62.466 77.96c19.458-21.024 35.16-42.284 70.101-80.185m-69.412 80.063c24.062-29.036 49.025-58.06 68.6-78.977m-64.634 80.008c23.562-26.597 44.82-51.417 67.808-77.776m-65.526 76.175c24.498-27.216 48.169-54.915 67.25-77.032m-61.502 76.071c17.896-20.624 34.425-42.572 67.09-75.351m-67.753 75.339c17.727-20.826 38.878-44.181 68.368-76.495m-64.616 78.618c16.612-19.746 28.911-35.764 66.923-77.541m-65.782 77.244c15.918-18.209 32.125-37.412 68.101-78.442m-63.295 77.751c21.578-24.35 42.328-47.014 69.22-76.913m-68.461 77.095c15.39-18.337 29.118-34.734 67.636-78.481m-63.487 78.127c21.29-24.705 40.996-47.46 68.83-75.975m-67.452 76.769c16.3-19.852 30.846-38.477 66.19-77.748m-62.606 78.721c16.464-21.25 33.694-38.044 65.57-78.905M975.464 505.3c21.08-23.71 40.994-47.917 66.04-75.647m-60.408 75.484c16.06-18.877 33.994-36.95 61.512-69.33m-61.455 70.85c16.874-21.33 35.88-41.792 60.809-70.626m-55.777 71.64c15.175-16.919 28.976-32.32 56.285-65.83m-58.076 64.29c15.52-17.969 30.99-34.087 55.775-64.678m-50.934 65.587c10.826-11.385 23.533-25.611 53.144-59.418m-51.912 57.915c19.849-22.938 39.253-46.247 50.934-57.822m-44.852 60.209c15.379-16.671 26.553-33.267 45.626-52.288M995.64 506.95c16.156-18.043 29.434-34.888 44.66-51.852m-37.691 48.929c13.878-13.89 29.21-32.24 39.55-43.813m-40.613 45.922c9.529-11.304 19.377-21.972 38.698-45.337m-31.983 46.875c5.315-10.043 12.19-16.724 34.298-40.329m-35.844 38.97c8.744-9.017 16.676-19.355 34.45-40.4m-29.76 39.423c10.28-13.211 20.451-23.032 29.592-32.82M1011.6 506.84c6.322-7.994 12.523-14.34 28.763-33.406m-23.182 33.806c6.381-5.713 9.884-13.156 25.346-30.25m-24.412 29.963c7.996-11.13 18.022-21.363 22.752-29.297m-16.212 29.218c.967-6.783 7.365-11.2 17.158-21.48m-19.151 21.07c4.284-5.054 7.643-8.557 18.324-22.502m-11.976 22.64c2.186-4.572 7.845-9.596 12.161-16.594m-13.507 15.505c5.209-3.841 10.353-9.303 13.007-15.269m-7.957 15.185c3.373-2.235 4.889-4.218 7.828-8.778m-7.61 8.81c3.901-2.502 6.167-6.145 7.791-8.634"/><path stroke="#000" d="M803.38 427.02c78.536.386 153.718.46 236.199 1.877m-236.18.06c90.94-.172 180.248-.49 235.45-1.505m-.152.918c1.886 24.479-.123 51.317-.352 74.8m1.687-75.787c.144 25.733.636 51.49-.713 77.567m.734-.39c-70.194 2.174-138.636 3.427-236.335.496m236.515.327c-94.668-1.184-188.615-1.824-235.443.117m-.35-.017c-1.763-29.17-1.34-60.85-.525-78.67m1.106 77.845c-.075-27.413-1.374-54.53-.007-77.259"/></g><text x="79" y="18" font-family="Virgil, Segoe UI Emoji" font-size="20" text-anchor="middle" style="white-space:pre" transform="translate(842.755 454.026)">ReadableStream</text><path fill="none" stroke="#000" d="M916.874 205.126c-.11-10.699.153-53.92.254-64.974m1.594 64.557c-.328-11.1-2.422-55.59-2.763-66.43"/><path fill="none" stroke="#000" d="M929.34 165.335c-4.955-8.378-10.846-16.109-14.742-28.304m12.217 28.104c-4.616-9.157-9.397-21.126-10.465-27.339"/><path fill="none" stroke="#000" d="M908.836 166.16c1.618-8.528 2.304-16.523 5.762-29.129m-8.287 28.928c3.577-9.568 6.989-21.866 10.04-28.163M915.606 341.096c.058 12.498.322 61.954.478 74.08m.677-72.885c.217 12.41-.05 59.45.044 71.71"/><path fill="none" stroke="#000" d="M907.005 385.094c4.29 10.22 5.543 18.475 10.073 30.004m-9.884-28.343c1.577 7.313 4.66 14.56 9.09 27.215"/><path fill="none" stroke="#000" d="M927.527 385.083c-2.632 10.322-8.302 18.582-10.449 30.015m10.637-28.353c-4.17 7.144-6.836 14.394-11.43 27.225M487.56 53.888c29.067.256 63.592 1.854 127.162.078m-128.285 1.198c44.15.449 88.403-.84 127.802.386m-.227-2.221c1.413 31.794 1.986 62.325.11 78.992m.761-77.28c-.46 18.278-1.206 37.87-.818 77.295m.475 1.223c-47.459-1.772-93.1-2.1-128.162-2.051m127.926.22c-34.95-1.214-69.057-.8-128.726.235m-.497-.86c.593-29.568 1.068-58.77 1.047-74.473m.853 75.61c-.314-22.478-.967-44.16-.713-77.878"/><path fill="none" stroke="#000" d="M485.985 65.164c21.222-.11 105.747-.076 127.23.1m-128.296 2.073c21.542.038 108.953-.976 130.555-.922"/><path fill="#fa5252" stroke-width="0" d="M493.299 59.558c.509-.032 1.197.24 1.607.585.41.345.763.954.856 1.482a2.73 2.73 0 01-.297 1.685 2.73 2.73 0 01-1.31 1.1 2.73 2.73 0 01-1.712 0 2.73 2.73 0 01-1.31-1.1 2.73 2.73 0 01-.297-1.685 2.73 2.73 0 01.855-1.482c.41-.344 1.34-.496 1.608-.585.268-.089 0 .009 0 .05m0-.05c.509-.032 1.197.24 1.607.585.41.345.763.954.856 1.482a2.73 2.73 0 01-.297 1.685 2.73 2.73 0 01-1.31 1.1 2.73 2.73 0 01-1.712 0 2.73 2.73 0 01-1.31-1.1 2.73 2.73 0 01-.297-1.685 2.73 2.73 0 01.855-1.482c.41-.344 1.34-.496 1.608-.585.268-.089 0 .009 0 .05"/><path fill="none" stroke="#000" d="M493.299 59.558c.509-.032 1.197.24 1.607.585.41.345.763.954.856 1.482a2.73 2.73 0 01-.297 1.685 2.73 2.73 0 01-1.31 1.1 2.73 2.73 0 01-1.712 0 2.73 2.73 0 01-1.31-1.1 2.73 2.73 0 01-.297-1.685 2.73 2.73 0 01.855-1.482c.41-.344 1.34-.496 1.608-.585.268-.089 0 .009 0 .05m0-.05c.509-.032 1.197.24 1.607.585.41.345.763.954.856 1.482a2.73 2.73 0 01-.297 1.685 2.73 2.73 0 01-1.31 1.1 2.73 2.73 0 01-1.712 0 2.73 2.73 0 01-1.31-1.1 2.73 2.73 0 01-.297-1.685 2.73 2.73 0 01.855-1.482c.41-.344 1.34-.496 1.608-.585.268-.089 0 .009 0 .05"/><path fill="#fab005" stroke-width="0" d="M503.561 59.558c.51-.032 1.197.24 1.608.585.41.345.762.954.855 1.482a2.73 2.73 0 01-.297 1.685 2.73 2.73 0 01-1.31 1.1 2.73 2.73 0 01-1.711 0 2.73 2.73 0 01-1.31-1.1 2.73 2.73 0 01-.298-1.685 2.73 2.73 0 01.856-1.482c.41-.344 1.34-.496 1.607-.585.268-.089 0 .009 0 .05m0-.05c.51-.032 1.197.24 1.608.585.41.345.762.954.855 1.482a2.73 2.73 0 01-.297 1.685 2.73 2.73 0 01-1.31 1.1 2.73 2.73 0 01-1.711 0 2.73 2.73 0 01-1.31-1.1 2.73 2.73 0 01-.298-1.685 2.73 2.73 0 01.856-1.482c.41-.344 1.34-.496 1.607-.585.268-.089 0 .009 0 .05"/><path fill="none" stroke="#000" d="M503.561 59.558c.51-.032 1.197.24 1.608.585.41.345.762.954.855 1.482a2.73 2.73 0 01-.297 1.685 2.73 2.73 0 01-1.31 1.1 2.73 2.73 0 01-1.711 0 2.73 2.73 0 01-1.31-1.1 2.73 2.73 0 01-.298-1.685 2.73 2.73 0 01.856-1.482c.41-.344 1.34-.496 1.607-.585.268-.089 0 .009 0 .05m0-.05c.51-.032 1.197.24 1.608.585.41.345.762.954.855 1.482a2.73 2.73 0 01-.297 1.685 2.73 2.73 0 01-1.31 1.1 2.73 2.73 0 01-1.711 0 2.73 2.73 0 01-1.31-1.1 2.73 2.73 0 01-.298-1.685 2.73 2.73 0 01.856-1.482c.41-.344 1.34-.496 1.607-.585.268-.089 0 .009 0 .05"/><path fill="#40c057" stroke-width="0" d="M514.275 60.009c.509-.032 1.197.24 1.607.585.41.345.763.954.856 1.482a2.73 2.73 0 01-.297 1.684 2.73 2.73 0 01-1.31 1.1 2.73 2.73 0 01-1.712 0 2.73 2.73 0 01-1.31-1.1 2.73 2.73 0 01-.297-1.684 2.73 2.73 0 01.855-1.482c.41-.344 1.34-.496 1.608-.585.268-.09 0 .008 0 .05m0-.05c.509-.032 1.197.24 1.607.585.41.345.763.954.856 1.482a2.73 2.73 0 01-.297 1.684 2.73 2.73 0 01-1.31 1.1 2.73 2.73 0 01-1.712 0 2.73 2.73 0 01-1.31-1.1 2.73 2.73 0 01-.297-1.684 2.73 2.73 0 01.855-1.482c.41-.344 1.34-.496 1.608-.585.268-.09 0 .008 0 .05"/><path fill="none" stroke="#000" d="M514.275 60.009c.509-.032 1.197.24 1.607.585.41.345.763.954.856 1.482a2.73 2.73 0 01-.297 1.684 2.73 2.73 0 01-1.31 1.1 2.73 2.73 0 01-1.712 0 2.73 2.73 0 01-1.31-1.1 2.73 2.73 0 01-.297-1.684 2.73 2.73 0 01.855-1.482c.41-.344 1.34-.496 1.608-.585.268-.09 0 .008 0 .05m0-.05c.509-.032 1.197.24 1.607.585.41.345.763.954.856 1.482a2.73 2.73 0 01-.297 1.684 2.73 2.73 0 01-1.31 1.1 2.73 2.73 0 01-1.712 0 2.73 2.73 0 01-1.31-1.1 2.73 2.73 0 01-.297-1.684 2.73 2.73 0 01.855-1.482c.41-.344 1.34-.496 1.608-.585.268-.09 0 .008 0 .05"/><g fill-opacity=".9" stroke-opacity=".9"><path fill="#04aaf7" stroke-width="0" d="M551.197 75.499c4.15-.03 9.285 2.988 12.437 6.259 3.152 3.271 5.943 8.783 6.475 13.368.533 4.586-.884 10.362-3.281 14.144-2.398 3.781-6.82 7.254-11.102 8.546-4.282 1.292-10.408.972-14.59-.797-4.181-1.768-8.526-5.662-10.5-9.813-1.973-4.15-2.37-10.596-1.341-15.091 1.028-4.496 3.75-9.081 7.513-11.881 3.764-2.8 12.51-4.456 15.07-4.919 2.561-.463.395 1.665.293 2.14m.824-.695c3.877.645 8.064 4.256 10.78 7.793 2.716 3.537 5.078 9.291 5.518 13.427.44 4.136.033 7.924-2.876 11.389-2.91 3.464-9.906 8.438-14.58 9.398-4.675.959-9.923-1.199-13.469-3.642-3.546-2.444-6.393-7.123-7.809-11.022-1.416-3.899-1.916-8.046-.689-12.37 1.227-4.325 4.234-11.22 8.05-13.578 3.815-2.357 12.597-.098 14.845-.568 2.248-.47-1.425-2.152-1.358-2.253"/><path fill="none" stroke="#000" d="M551.55 76.287c4.478.208 10.314 3.167 13.505 6.602 3.191 3.434 5.408 9.564 5.64 14.004.233 4.441-1.429 9.032-4.245 12.64-2.815 3.609-8.274 7.804-12.648 9.012-4.374 1.207-9.6.411-13.596-1.767-3.995-2.177-8.311-7.073-10.376-11.299-2.064-4.225-3.302-9.829-2.011-14.053 1.29-4.225 5.023-8.923 9.755-11.294 4.732-2.372 14.893-2.713 18.638-2.937 3.744-.224 3.982 1.258 3.827 1.593m-4.166-2.071c4.466 1.094 10.548 5.532 13.066 9.753 2.518 4.22 3.266 11.278 2.042 15.572-1.224 4.294-5.807 7.188-9.385 10.195-3.578 3.006-7.708 7.424-12.084 7.845-4.375.422-10.739-2.285-14.17-5.315-3.43-3.03-5.636-8.171-6.415-12.868-.779-4.698-.314-11.469 1.742-15.316 2.055-3.847 6.44-6.25 10.593-7.767 4.152-1.517 11.849-.949 14.32-1.332 2.472-.384.654-1.058.51-.969"/></g><g fill-rule="evenodd"><path fill="#40c057" stroke-width="0" d="M554.879 92.286l-1.83-.415-5.742-5.857-2.173.176-1.613 1.748-1.254 6.721 1.343 4.367-6.155 2.146-.576 2.53.797 2.227 2.194.393 2.628-.686 3.686-3.873 5.075 8.39 2.13 1.511 1.075-1.209-3.362-13.369 2.26-1.157 2.904.704 1.776 1.52 3.05.422 3.023-.422 1.574-2.646-.008-2.586-6.58.475 1.264-6.87-1.258-.499-1.755.913-2.71 4.423.237.923"/><path fill="none" stroke="#087f5b" d="M554.879 92.286c-.305-.07-.568.63-1.83-.415-1.263-1.045-4.154-5.201-5.742-5.857-1.588-.655-2.946.483-3.786 1.924-.84 1.44-1.269 4.873-1.254 6.721.015 1.848 2.145 3.281 1.343 4.367-.802 1.085-5.166.995-6.155 2.146-.99 1.15-.62 4.013.22 4.757.841.744 3.405.4 4.823-.293 1.418-.695 2.226-4.626 3.686-3.873 1.46.753 3.695 6.942 5.075 8.39 1.38 1.449 3.23 2.48 3.205.302-.026-2.178-3.663-11.065-3.362-13.369.3-2.304 4.007-.63 5.164-.453 1.156.178.467 1.267 1.776 1.52 1.308.253 4.8.872 6.073 0 1.273-.872 2.402-4.44 1.566-5.232-.836-.793-5.695 1.54-6.58.475-.887-1.066 1.556-5.794 1.264-6.87-.291-1.076-2.06-.392-3.013.414-.954.807-2.299 3.532-2.71 4.423-.413.89.197.769.237.923m0 0c-.305-.07-.568.63-1.83-.415-1.263-1.045-4.154-5.201-5.742-5.857-1.588-.655-2.946.483-3.786 1.924-.84 1.44-1.269 4.873-1.254 6.721.015 1.848 2.145 3.281 1.343 4.367-.802 1.085-5.166.995-6.155 2.146-.99 1.15-.62 4.013.22 4.757.841.744 3.405.4 4.823-.293 1.418-.695 2.226-4.626 3.686-3.873 1.46.753 3.695 6.942 5.075 8.39 1.38 1.449 3.23 2.48 3.205.302-.026-2.178-3.663-11.065-3.362-13.369.3-2.304 4.007-.63 5.164-.453 1.156.178.467 1.267 1.776 1.52 1.308.253 4.8.872 6.073 0 1.273-.872 2.402-4.44 1.566-5.232-.836-.793-5.695 1.54-6.58.475-.887-1.066 1.556-5.794 1.264-6.87-.291-1.076-2.06-.392-3.013.414-.954.807-2.299 3.532-2.71 4.423-.413.89.197.769.237.923"/></g><path fill="none" fill-opacity=".9" stroke="#000" stroke-opacity=".9" d="M529.177 96.232c6.972-.122 35.344.124 42.315.281m-43.607 1.917c6.79.018 35.878-.672 42.94-.648M533.955 81.59c.129.38.089 1.578.773 2.276.684.698 2.037 1.4 3.33 1.91 1.295.511 2.537.947 4.433 1.157 1.897.21 4.437.21 6.945.105s5.964-.167 8.103-.736c2.14-.57 3.777-1.85 4.733-2.68.956-.828.835-1.912 1.002-2.295m-29.319.263c.129.38.089 1.578.773 2.276.684.698 2.037 1.4 3.33 1.91 1.295.511 2.537.947 4.433 1.157 1.897.21 4.437.21 6.945.105s5.964-.167 8.103-.736c2.14-.57 3.777-1.85 4.733-2.68.956-.828.835-1.912 1.002-2.295"/><path fill="none" fill-opacity=".9" stroke="#000" stroke-opacity=".9" d="M550.139 75.059c1.62-.329 3.892 1.096 5.12 4.235 1.23 3.139 1.899 9.633 2.25 14.6.353 4.967.663 11.15-.136 15.202-.798 4.052-2.76 7.55-4.653 9.109-1.893 1.559-5.06 1.836-6.703.245-1.643-1.592-2.529-5.51-3.156-9.796-.627-4.286-.99-10.987-.606-15.922.385-4.935 1.517-10.703 2.914-13.688 1.396-2.985 4.282-3.63 5.465-4.223 1.183-.592 1.565.35 1.632.671m-3.25.637c1.08-1.405 1.742-2.563 3.119-.221 1.377 2.341 4.333 9.403 5.143 14.273.81 4.87.16 10.498-.28 14.948-.441 4.45-.98 9.435-2.363 11.75-1.384 2.315-4.078 2.723-5.94 2.138-1.86-.584-3.981-2.115-5.225-5.645-1.244-3.53-2.254-10.294-2.237-15.534.018-5.24 1.329-11.905 2.34-15.908 1.012-4.003 3-6.868 3.73-8.112.73-1.243.435-.152.653.652"/><path fill="none" fill-opacity=".9" stroke="#000" stroke-opacity=".9" d="M535.471 113.327c.684-.72 2.681-3.403 4.104-4.322 1.422-.92 2.536-.977 4.432-1.195 1.896-.217 4.437-.217 6.945-.108 2.508.108 5.964.172 8.103.76 2.14.588 3.777 1.91 4.733 2.766.956.856.835 1.975 1.002 2.37m-29.319-.271c.684-.72 2.681-3.403 4.104-4.322 1.422-.92 2.536-.977 4.432-1.195 1.896-.217 4.437-.217 6.945-.108 2.508.108 5.964.172 8.103.76 2.14.588 3.777 1.91 4.733 2.766.956.856.835 1.975 1.002 2.37"/><path fill="none" stroke="#000" d="M780.769 92.06c-26.383-.051-132.9.752-159.263.725m157.947-2c-25.965-.441-129.535-.118-155.805.275"/><path fill="none" stroke="#000" d="M651.033 78.77c-4.772 4.422-13.068 5.48-29.339 14.186m29.421-11.734c-8.899 3.266-18.68 6.966-28.217 10.49"/><path fill="none" stroke="#000" d="M651.193 99.29c-4.912-.55-13.246-4.464-29.499-6.334m29.582 8.787c-9.023-3.731-18.859-7.03-28.378-10.03"/><g fill-rule="evenodd"><path fill="#228be6" stroke-width="0" d="M527.678 410.376l1.924 95.392-1.276.527 19.57 7.974 26.572-.18 27.723-.866 5.815-2.816 6.12-5.463 3.211-96.452.05 1.706-3.438-2.489-9.44-3.26-32.938-3.393-32.428.724-5.179 4.465-6.438 5.23"/><path fill="none" stroke="#0a11d3" d="M527.256 408.86c.312 14.36 2.067 70.23 2.084 86.377.018 16.148-2.436 7.916-1.979 10.507.458 2.59 1.133 3.633 4.724 5.038 3.59 1.405 9.79 2.866 16.82 3.39 7.03.525 16.877.102 25.36-.245 8.482-.347 18.702-.97 25.535-1.837 6.833-.867 12.874-2.27 15.465-3.365 2.591-1.095-.198-1.196.081-3.204.28-2.008 1.463 6.102 1.596-8.845.133-14.948-.438-66.13-.797-80.838-.358-14.708-.487-5.551-1.354-7.413-.867-1.862-1.01-2.805-3.85-3.759-2.84-.954-6.428-1.267-13.188-1.964-6.76-.696-19.182-2.036-27.374-2.215-8.192-.178-15.463.427-21.779 1.145-6.315.719-12.655 1.713-16.115 3.166-3.46 1.452-3.86 4.88-4.644 5.55-.783.667-.191-1.542-.057-1.54m1.16 2.24c.293 14.573-.264 69.45-.123 85.471.141 16.022.446 8.618.97 10.66.525 2.04-.793.283 2.179 1.587 2.971 1.304 8.45 4.985 15.651 6.236 7.202 1.25 18.832 1.42 27.558 1.269 8.726-.15 18.196-.885 24.798-2.172 6.6-1.287 11.985-3.952 14.81-5.55 2.823-1.6 1.6-1.967 2.134-4.044.535-2.076 1.153 6.289 1.073-8.417-.08-14.706-1.312-65.057-1.552-79.817-.24-14.76.911-6.635.11-8.745-.8-2.11-1.63-3.081-4.914-3.913-3.283-.832-7.913-.453-14.784-1.077-6.871-.623-18.524-2.704-26.442-2.663-7.918.042-14.576 2.07-21.065 2.911-6.488.842-14.037.753-17.865 2.138-3.829 1.385-4.83 5.56-5.106 6.174-.277.615 2.95-2.126 3.446-2.486"/></g><path fill="none" stroke="#0a11d3" d="M528.107 475.779c.406.666.42 1.258 2.652 2.204 2.232.946 6.593 2.387 10.743 3.47 4.15 1.084 8.343 2.713 14.156 3.031 5.814.318 13.429-.736 20.724-1.123 7.295-.388 16.84-.559 23.047-1.204 6.208-.645 11.18-1.26 14.199-2.666 3.019-1.405 3.196-5.027 3.913-5.766m-87.66 1.437c.258.879-2.154 2.687-.326 3.894 1.829 1.208 6.817 2.233 11.298 3.353 4.482 1.12 9.842 3.225 15.592 3.366 5.75.14 11.551-2.278 18.905-2.522 7.353-.244 18.78 1.818 25.216 1.058s10.714-3.729 13.4-5.619c2.685-1.89 2.27-4.931 2.714-5.721M528.643 441.4c.403.824-1.184 3.166.625 4.616 1.809 1.45 6.123 3.103 10.227 4.082 4.104.979 8.73 1.69 14.397 1.792 5.668.102 12.265-.764 19.612-1.18 7.347-.417 17.693-.483 24.468-1.32 6.776-.837 13.29-2.492 16.185-3.701 2.896-1.209.77-2.8 1.19-3.552m-87.734-2.038c.863.509 2.11 2.545 3.903 3.911 1.792 1.366 3.05 3.324 6.851 4.285 3.802.96 9.82 1.056 15.959 1.478 6.138.421 13.437.73 20.87 1.052 7.431.322 17.64 1.933 23.722.88 6.082-1.053 9.66-5.607 12.769-7.197 3.108-1.59 5.281-1.536 5.882-2.344"/><path fill="#fff" stroke-width="0" d="M579.702 402.06c8.9.03 19.11.492 25.046 1.965 5.935 1.472 10.872 4.658 10.567 6.871-.304 2.213-6.06 5.013-12.395 6.407-6.335 1.394-16.392 1.701-25.614 1.958-9.222.256-21.506.417-29.717-.419-8.21-.836-16.487-2.617-19.549-4.597-3.062-1.98-2.392-5.272 1.179-7.284 3.571-2.012 10.72-3.851 20.248-4.788 9.53-.936 29.663-.88 36.924-.83 7.262.049 6.736.772 6.646 1.126m-8.271-1.052c8.737.217 18.622 2.482 23.642 4.05 5.02 1.566 7.905 3.552 6.48 5.353-1.426 1.801-7.792 4.136-15.033 5.453-7.241 1.318-18.962 2.385-28.416 2.451-9.453.067-20.863-1.1-28.308-2.052-7.444-.953-14.427-1.704-16.358-3.66-1.93-1.958-.238-6.43 4.772-8.082 5.01-1.652 16.126-1.461 25.287-1.83 9.16-.37 25.01-.245 29.678-.387 4.666-.142-1.072-.58-1.678-.463"/><path fill="none" stroke="#0a11d3" d="M574.89 402.381c8.898-.16 19.581.305 26.011 1.459 6.43 1.153 11.525 3.453 12.568 5.462 1.043 2.01-.898 4.866-6.312 6.593-5.415 1.728-17.023 3.37-26.176 3.773-9.153.402-20.357-.305-28.742-1.36-8.386-1.056-17.444-3.159-21.569-4.974-4.124-1.815-5.79-4.173-3.179-5.919 2.61-1.746 10.633-3.618 18.844-4.557 8.211-.938 25-.915 30.423-1.071 5.423-.157 2.247.02 2.114.132m1.225-.657c8.924.403 17.75 2.73 23.601 4.238 5.85 1.508 11.463 2.797 11.503 4.81.04 2.013-4.978 5.923-11.266 7.27-6.287 1.346-16.87.806-26.459.807-9.589.001-23.11.134-31.073-.801-7.964-.935-13.884-3.276-16.709-4.807-2.825-1.53-3.62-2.585-.241-4.375 3.377-1.79 12.25-5.035 20.508-6.368 8.259-1.332 24.437-1.75 29.042-1.626 4.605.123-1.314 1.778-1.412 2.367"/><g><path fill="#fff" stroke-width="0" d="M603.4 426.251c1.03-.3 1.933 1.057 3.144 1.697 1.212.64 3.268.865 4.126 2.144.857 1.28 1.44 4.033 1.019 5.532-.422 1.5-2.381 2.863-3.551 3.463-1.17.6-2.265.421-3.47.138-1.207-.284-2.645-.855-3.765-1.838-1.12-.983-2.632-2.544-2.956-4.06-.324-1.516.094-3.722 1.01-5.034.917-1.312 3.498-2.597 4.488-2.839.99-.242 1.23 1.026 1.45 1.387m-3.121-.278c.917-.236 3.342.58 4.551 1.304 1.21.725 2.107 1.793 2.707 3.04.6 1.249 1.06 3.046.895 4.45-.165 1.402-.882 3.269-1.886 3.969-1.004.7-3.028.54-4.138.23-1.11-.31-1.392-1.44-2.52-2.092-1.127-.651-4.022-.683-4.247-1.816-.224-1.133 1.914-3.422 2.903-4.984.989-1.562 2.623-3.55 3.03-4.387.408-.837-.6-.751-.587-.632"/><path fill="none" stroke="#0a11d3" d="M603.512 425.718c1.015-.66 2.186-.53 3.251.343s2.41 3.541 3.14 4.892c.73 1.352 1.384 1.832 1.24 3.215-.143 1.383-.917 4.09-2.103 5.082-1.186.99-3.395 1.159-5.012.863-1.617-.295-3.603-1.737-4.69-2.636-1.088-.899-1.766-1.348-1.835-2.756-.07-1.407.407-4.21 1.417-5.687 1.01-1.477 3.77-2.655 4.645-3.175.874-.52.615-.2.6.06m-3.14.062c1.269-.761 4.054.674 5.426 1.243 1.372.568 1.837 1.077 2.806 2.17.97 1.092 3.127 3.196 3.01 4.384-.118 1.189-2.517 1.579-3.714 2.747-1.197 1.169-2.162 3.875-3.469 4.264-1.307.389-3.47-1.1-4.373-1.931-.902-.83-.586-1.65-1.042-3.052-.456-1.403-1.78-3.672-1.695-5.366.084-1.695 1.456-4.276 2.199-4.803.742-.528 1.76 1.189 2.255 1.637"/></g><g><path fill="#fff" stroke-width="0" d="M605.61 455.947c1.413.145 4.086 2.048 4.935 3.51.85 1.46.259 3.787.163 5.256-.097 1.469.077 2.434-.74 3.557-.819 1.123-2.593 2.765-4.168 3.181-1.574.417-3.98.247-5.277-.68-1.297-.927-2.144-3.231-2.506-4.883-.362-1.652-.118-3.51.332-5.026.449-1.517 1.148-3.323 2.363-4.074 1.215-.752 3.814-.603 4.925-.434 1.111.169 1.526 1.323 1.74 1.447m-.387-1.074c1.558.371 3.662 1.322 4.502 2.57.84 1.249.878 3.364.537 4.92-.34 1.556-1.435 3.432-2.582 4.417-1.147.985-2.682 1.276-4.3 1.493-1.618.216-4.097.89-5.408-.194-1.312-1.085-2.593-4.831-2.46-6.316.132-1.485 2.187-1.607 3.256-2.593 1.069-.985 2.129-2.687 3.157-3.319 1.028-.631 2.646-.495 3.013-.47.366.026-.782.682-.812.625"/><path fill="none" stroke="#0a11d3" d="M606.515 457.017c1.05.311 2.313 1.833 3.181 3.298.868 1.465 2.358 3.869 2.027 5.492-.332 1.624-2.824 3.464-4.015 4.25-1.19.788-1.86.835-3.128.473-1.269-.362-3.301-1.505-4.486-2.643-1.184-1.137-2.62-2.78-2.621-4.181-.001-1.401 1.758-3.128 2.615-4.226.858-1.098 1.324-2.054 2.528-2.362 1.205-.309 3.85.367 4.699.51.849.145.304.402.396.353m-5.068-.565c1.274-.266 4.8-.862 6.238.04 1.438.902 2.036 4.031 2.387 5.372.351 1.34.537 1.568-.279 2.671-.816 1.104-3.454 3.19-4.615 3.951-1.16.76-1.175.647-2.352.61-1.176-.036-3.806.37-4.704-.827-.899-1.196-.744-4.433-.687-6.35.058-1.915.422-4.278 1.033-5.146.611-.867 1.94-.15 2.634-.059.695.092 1.172.581 1.534.61"/></g><g><path fill="#fff" stroke-width="0" d="M604.658 491.15c1.288.102 3.741-.052 4.958.983 1.218 1.034 2.346 3.661 2.345 5.224-.001 1.562-1.467 3.209-2.353 4.15-.885.943-1.77 1.325-2.96 1.502-1.19.178-2.8.182-4.181-.437-1.381-.62-3.365-1.86-4.105-3.278-.74-1.42-.667-3.739-.332-5.236.334-1.498 1.043-3.207 2.339-3.75 1.295-.545 4.214.271 5.434.484 1.221.214 1.91.622 1.89.795m-5.132-.128c1.177-.22 2.588-.137 3.748.478 1.16.615 2.572 1.904 3.21 3.212.639 1.308.953 3.45.621 4.638-.332 1.188-1.73 1.957-2.614 2.49-.884.532-1.237.551-2.69.703-1.455.151-5.085.95-6.034.205-.95-.746.133-2.91.337-4.681.204-1.771.231-4.391.886-5.946.655-1.554 2.45-2.976 3.044-3.38.595-.404.665.905.525.956"/><path fill="none" stroke="#0a11d3" d="M605.148 489.422c1.109.398 2.786 2.75 3.815 3.883 1.029 1.132 2.142 1.49 2.357 2.913.214 1.423-.136 4.357-1.072 5.628-.935 1.272-2.952 1.91-4.544 2.004-1.592.094-3.708-.855-5.007-1.438-1.3-.582-2.37-.745-2.788-2.058-.42-1.313-.295-4.2.274-5.817.569-1.619 1.74-3.134 3.139-3.892 1.399-.759 4.232-.791 5.257-.658 1.024.133 1.075 1.317.89 1.456m-.394-.181c1.296.606 1.7 1.384 2.556 2.564.857 1.18 2.84 3.336 2.585 4.513-.255 1.176-2.819 1.485-4.114 2.548-1.296 1.064-2.339 3.593-3.66 3.832-1.32.24-3.437-1.44-4.261-2.394-.825-.954-.36-1.887-.684-3.33-.323-1.443-1.466-3.696-1.256-5.328.21-1.633.997-3.94 2.513-4.468 1.516-.529 5.414.964 6.583 1.296 1.17.331.551.496.433.694"/></g><g><path fill="none" stroke="#000" d="M797.37 472.531c-28.318-.789-143.065-3.765-171.892-4.908m171.029 3.828c-28.392-1.104-143.634-4.686-171.92-5.53"/><path fill="none" stroke="#000" d="M652.97 456.713c-5.108.634-14.895 2.9-28.077 7.62m29.166-7.99c-12.083 3.456-22.133 7.87-29.013 10.285"/><path fill="none" stroke="#000" d="M652.34 477.224c-4.922-4.075-14.565-6.512-27.447-12.891m28.536 12.522c-11.727-4.069-21.546-7.176-28.383-10.227"/></g><g><text x="39.5" y="18" font-family="Virgil, Segoe UI Emoji" font-size="20" text-anchor="middle" style="white-space:pre" transform="translate(510.696 142.733)">Browser</text></g><g><text x="107" y="18" font-family="Virgil, Segoe UI Emoji" font-size="20" text-anchor="middle" style="white-space:pre" transform="translate(465.187 528.48)">Service Worker Cache</text></g><g><path fill="#fff" stroke-width="0" d="M73.329 136.41l31.74 2.564 3.327 52.74-36.774-.66"/><path fill="none" stroke="#000" stroke-width="2" d="M70.157 136.505c14.117 2.901 29.229 3.688 35.01.82m-33.079 1.764c11.488.25 21.095-.964 35.329-1.26m-.721-1.078c.539 17.425-1.394 27.554-1.02 56.725m.72-54.327c-.477 13.152-.908 27.238.719 53.062m-1.517.41c-13.333-1.639-24.676-.192-35.89-1.3m37.325-.163c-13.307 1.621-23.88 1.98-35.776.071m-.234-.904c1.842-7.562-.536-19.549-1.376-51.147m1.365 53.532c-.77-11.982 1.123-23.357-.36-53.846"/></g><g><path fill="#fff" stroke-width="0" d="M65.676 133.188l37.896 3.327-.876 52.175-35.992-.612"/><path fill="none" stroke="#000" stroke-width="2" d="M65.77 134.68c12.701 2.278 23.24-1.18 36.153.505m-33.57.587c9.584-1.906 17.872-.492 34.074-1.363m-1.078.447c3.09 19.133-.698 41.072 3.11 52.792m-.712-53.27c-1.3 12.26-1.205 26.237-.554 54.756m.41-2.044c-15.685 1.552-28.295-.507-36.633 2.181m35.17-1.723c-12.498 1.633-25.99.897-35.262-.11m-.903 2.015c2.894-13.655 1.676-25.293 2.468-56.412m-.084 54.419c-.759-15.686-.801-34.899-.23-51.662"/></g><g><path fill="#fff" stroke-width="0" d="M61.266 131.339l38.66-.876-1.44 52.956-35.946-1.01"/><path fill="none" stroke="#000" stroke-width="2" d="M62.757 131.818c13.146 1.108 20.767-1.808 35.839-1.752m-34.746 1.468c7.25-1.485 17.561-1.611 33.97.083m.447 1.006c-1.933 8.112-1.06 23.4-.824 50.414m.346-52.362c-.59 11.567.697 23.228 1.14 54.607m-2.044-1.924c-8.746 1.567-21.297.448-33.152 2.785m33.61-1.269c-11.782.082-25.813-1.557-35.443-1.467m2.015 2.49c-2.287-20.436-2.648-39.177-2.796-54.652m.803 53.18c2.08-17.22.447-33.937 1.953-54.694"/></g><g><path fill="none" stroke="#000" d="M68.055 155.129c3.681.386 17.706 1.02 21.448.55 3.741-.47.644-2.85 1.001-3.374m-23.95 2.134c3.687.177 18.215-.09 22.609-.278 4.394-.189 3.28-.733 3.755-.853"/></g><g><path fill="none" stroke="#000" d="M70.789 139.657c1.776-.373 5.303-3.293 8.887-3.477 3.583-.183 10.475 2.115 12.615 2.377m-22.605.663c1.814-.242 6.058-2.112 9.646-1.983 3.587.128 9.673 2.535 11.879 2.755"/></g><g><path fill="none" stroke="#000" d="M71.22 173.758c2.062-.234 8.15-1.816 11.129-1.877 2.978-.06 4.859 1.409 6.742 1.511 1.883.103 3.548-.792 4.557-.894m-23.278.818c2.44-.141 11.198-.412 14.21-.212 3.012.2 2.36 1.861 3.862 1.41 1.502-.45 4.197-3.38 5.15-4.115"/></g><g><path fill="none" stroke="#000" d="M68.756 177.253c.634-.253 2.243.57 3.333.556 1.09-.014-.045-.903 3.208-.638 3.252.264 12.864 2.08 16.307 2.223 3.443.145 3.955-.888 4.35-1.357m-28.053 1.35c.974-.131 5.513-3.383 6.585-3.583 1.073-.2-3.12 2.128-.15 2.38 2.97.254 14.514-.383 17.973-.863 3.459-.481 2.338-1.684 2.778-2.02"/></g><g><path fill="none" stroke="#000" d="M67.696 145.82c1.36-.302 6.268-.47 10.234-.069 3.967.403 11.055 2.023 13.565 2.483m-22.08-.113c1.12.378 4.183-.733 7.684-1.028 3.502-.295 10.556-.655 13.327-.744"/></g><g><path fill="none" stroke="#000" d="M67.203 163.81c.42.175 2.511-.154 4.272-.087 1.762.066 2.805.183 6.294.487 3.49.303 12.533 1.355 14.643 1.334m-23.323-2.663c.13.41-.153 2.164 1.243 2.076 1.395-.089 3.918-2.368 7.13-2.607 3.212-.24 9.687.856 12.141 1.172"/></g><g><text x="107.5" y="18" font-family="Virgil, Segoe UI Emoji" font-size="20" text-anchor="middle" style="white-space:pre" transform="translate(450.814 311.743)">The UPPERCASER™</text></g></svg>