<svg width="125" height="30" xmlns="http://www.w3.org/2000/svg" xmlns:xlink="http://www.w3.org/1999/xlink"><defs><path id="a" d="M0 .079h16.145v22.265H0z"/><path id="c" d="M.1.084h4.57v6.68H.1z"/><path id="e" d="M.04.084h6.007v6.68H.039z"/></defs><g fill="none" fill-rule="evenodd"><path d="M23.987 17.262h-8.91a.636.636 0 0 0-.395.138l-6.64 5.279a.23.23 0 0 0 .145.41h15.901c1.572 0 2.985-1.41 2.875-3.108-.101-1.548-1.42-2.719-2.976-2.719" fill="#00C9DB"/><g transform="translate(.639 .717)"><mask id="b" fill="#fff"><use xlink:href="#a"/></mask><path d="M16.14 11.035l-.001-.023a2.88 2.88 0 0 0-1.104-2.1L4.698.696a2.912 2.912 0 0 0-4.078.494 2.889 2.889 0 0 0 .491 4.065l7.494 5.957L1.11 17.17a2.888 2.888 0 0 0-.491 4.064 2.912 2.912 0 0 0 4.078.495l10.337-8.218a2.88 2.88 0 0 0 1.11-2.299c0-.059-.001-.117-.005-.176" fill="#0D55FF" mask="url(#b)"/></g><path d="M27.01 20.176a2.917 2.917 0 0 1-2.922 2.914 2.917 2.917 0 0 1-2.92-2.914 2.917 2.917 0 0 1 2.92-2.914 2.917 2.917 0 0 1 2.922 2.914" fill="#7000F2"/><path d="M119.633 20.11H117.4l-4.807-11.855h2.427l3.497 9.194h.048l3.545-9.194h2.38l-4.857 11.856zm-16.817-7.355h6.823c-.122-1.645-1.409-2.855-3.448-2.855-1.675 0-2.986 1.113-3.375 2.855zm3.57 7.743c-3.497 0-6.022-2.662-6.022-6.315 0-3.605 2.452-6.315 5.876-6.315 3.52 0 5.778 2.395 5.778 6.484l-.024.242h-9.348c.073 2.323 1.773 3.871 3.836 3.871 1.433 0 2.55-.701 3.35-2.129l1.992.968c-1.069 2.008-3.035 3.194-5.439 3.194zm-14.026 0c-3.108 0-5.657-2.831-5.657-6.315 0-3.484 2.55-6.315 5.657-6.315 1.748 0 3.278.798 4.055 2.032h.097l-.097-1.645V2.787h2.233V20.11h-2.136v-1.646h-.097c-.777 1.234-2.307 2.033-4.055 2.033zm.364-2.033c2.21 0 3.788-1.742 3.788-4.282 0-2.492-1.627-4.283-3.788-4.283-2.136 0-3.787 1.79-3.787 4.283 0 2.516 1.65 4.282 3.787 4.282zm-6.854.145c0 .896-.705 1.646-1.651 1.646-.899 0-1.651-.75-1.651-1.646 0-.943.752-1.645 1.65-1.645.947 0 1.652.702 1.652 1.645zm-10.46-.145c2.136 0 3.787-1.766 3.787-4.282 0-2.492-1.651-4.283-3.788-4.283-2.16 0-3.787 1.79-3.787 4.283 0 2.516 1.627 4.282 3.787 4.282zm.364 2.033c-1.748 0-3.278-.799-4.055-2.033h-.097v1.646h-2.137V2.787h2.234v5.468L71.622 9.9h.097c.777-1.234 2.307-2.032 4.055-2.032 3.132 0 5.657 2.83 5.657 6.315 0 3.508-2.525 6.315-5.657 6.315zm-17.327-7.743h6.822C65.148 11.11 63.86 9.9 61.82 9.9c-1.675 0-2.986 1.113-3.374 2.855zm3.569 7.743c-3.497 0-6.022-2.662-6.022-6.315 0-3.605 2.453-6.315 5.876-6.315 3.52 0 5.778 2.395 5.778 6.484l-.024.242h-9.347c.072 2.323 1.772 3.871 3.836 3.871 1.432 0 2.549-.701 3.35-2.129l1.991.968c-1.068 2.008-3.035 3.194-5.438 3.194zM55.663 8.255L51.827 20.11h-2.283l-2.962-9.098-2.937 9.098h-2.258L37.55 8.255h2.331l2.647 8.952h.024l2.938-8.952h2.306l2.938 8.952h.024l2.622-8.952h2.283z" fill="#5F6368"/><g transform="translate(102.085 23.01)"><mask id="d" fill="#fff"><use xlink:href="#c"/></mask><path d="M.958 5.942h1.725c.33 0 .597-.115.802-.345.206-.23.308-.482.308-.756 0-.273-.105-.524-.317-.75-.211-.228-.488-.341-.83-.341H.958v2.192zm0-2.994h1.557c.324 0 .583-.107.78-.322.195-.215.293-.45.293-.704 0-.255-.095-.488-.284-.7-.19-.211-.44-.317-.751-.317H.958v2.043zM.099 6.763V.084h2.416c.523 0 .975.173 1.357.518.383.345.574.779.574 1.301 0 .317-.082.597-.247.84a1.559 1.559 0 0 1-.658.55v.037c.33.112.6.305.812.579.211.273.317.59.317.951 0 .547-.2 1.001-.601 1.362-.402.36-.876.541-1.423.541H.099z" fill="#5F6368" mask="url(#d)"/></g><path fill="#5F6368" d="M111.624 23.916h-3.04v2.117h2.742v.802h-2.743v2.118h3.041v.82h-3.899v-6.678h3.9zM115.057 29.774h-.858v-5.858h-1.866v-.821h4.59v.82h-1.866z"/><g transform="translate(116.613 23.01)"><mask id="f" fill="#fff"><use xlink:href="#e"/></mask><path d="M1.933 4.151h2.22L3.062 1.138h-.038L1.933 4.151zM.039 6.763L2.558.083h.97l2.519 6.68h-.952l-.644-1.81H1.644L.99 6.763H.039z" fill="#5F6368" mask="url(#f)"/></g></g></svg>