<svg xmlns="http://www.w3.org/2000/svg" width="119.79" height="22.32" viewBox="0 0 119.79 22.32">
	<path class="brand-text" d="M115.6,22.1h-2.2l-4.8-11.9H111l3.5,9.2,3.5-9.2h2.4ZM98.8,14.8h6.8a3.17,3.17,0,0,0-3.4-2.9A3.42,3.42,0,0,0,98.8,14.8Zm3.6,7.7a6,6,0,0,1-6-6.3c0-3.6,2.5-6.3,5.9-6.3s5.8,2.4,5.8,6.5v.2H98.8a3.88,3.88,0,0,0,3.8,3.9,3.56,3.56,0,0,0,3.3-2.1l2,1A6.22,6.22,0,0,1,102.4,22.5Zm-14,0c-3.1,0-5.7-2.8-5.7-6.3s2.6-6.3,5.7-6.3a5,5,0,0,1,4.1,2h.1l-.1-1.6V4.8h2.2V22.1H92.6V20.5h-.1A5.12,5.12,0,0,1,88.4,22.5Zm.3-2c2.2,0,3.8-1.7,3.8-4.3s-1.6-4.3-3.8-4.3a4,4,0,0,0-3.8,4.3A4,4,0,0,0,88.7,20.5Zm-6.8.1a1.61,1.61,0,0,1-1.7,1.6,1.74,1.74,0,0,1-1.7-1.6A1.67,1.67,0,0,1,80.2,19,1.61,1.61,0,0,1,81.9,20.6Zm-10.5-.1a4,4,0,0,0,3.8-4.3,4,4,0,0,0-3.8-4.3c-2.2,0-3.8,1.8-3.8,4.3S69.2,20.5,71.4,20.5Zm.4,2a5,5,0,0,1-4.1-2h-.1v1.6H65.5V4.8h2.2v5.5l-.1,1.6h.1a4.84,4.84,0,0,1,4.1-2c3.1,0,5.7,2.8,5.7,6.3S74.9,22.5,71.8,22.5ZM54.4,14.8h6.8a3.17,3.17,0,0,0-3.4-2.9A3.42,3.42,0,0,0,54.4,14.8ZM58,22.5a6,6,0,0,1-6-6.3c0-3.6,2.5-6.3,5.9-6.3s5.8,2.4,5.8,6.5v.2H54.4a3.88,3.88,0,0,0,3.8,3.9,3.67,3.67,0,0,0,3.3-2.1l2,1A6.22,6.22,0,0,1,58,22.5ZM51.7,10.3,47.9,22.2H45.6l-3-9.1-2.9,9.1H37.4L33.5,10.3h2.3l2.6,9,2.9-9h2.3l2.9,9,2.6-9Z" transform="translate(-0.61 -2.78)" fill="#5f6368" style="fill-rule: evenodd"/>
	<path d="M.61,22.06a3,3,0,0,1,3-3H19.88a3,3,0,0,1,0,6.09H3.65A3,3,0,0,1,.61,22.06Z" transform="translate(-0.61 -2.78)" style="fill: #6cf"/>
	<path d="M1.5,3.68a3,3,0,0,1,4.3,0l8.12,8.11a3.05,3.05,0,0,1,0,4.3L5.8,24.21a3,3,0,1,1-4.3-4.3L7.1,14.3a.51.51,0,0,0,0-.72L1.5,8A3,3,0,0,1,1.5,3.68Z" transform="translate(-0.61 -2.78)" style="fill: #06f;fill-rule: evenodd"/>
	<path d="M11,19l-5.2,5.2a3,3,0,1,1-4.3-4.3l.89-.9Z" transform="translate(-0.61 -2.78)" style="fill: #c6f"/>
	<circle cx="19.27" cy="19.27" r="3.04" style="fill: #06f"/>
</svg>
