<svg width="102" height="27" viewBox="0 0 102 27" fill="none" xmlns="http://www.w3.org/2000/svg">
<path d="M42.382 20.288C41.458 20.288 40.642 20.078 39.934 19.658C39.226 19.238 38.668 18.662 38.26 17.93C37.852 17.186 37.648 16.346 37.648 15.41C37.648 14.474 37.852 13.64 38.26 12.908C38.668 12.164 39.226 11.582 39.934 11.162C40.642 10.742 41.458 10.532 42.382 10.532C43.402 10.532 44.26 10.76 44.956 11.216C45.664 11.672 46.168 12.29 46.468 13.07L44.704 13.79C44.284 12.806 43.498 12.314 42.346 12.314C41.842 12.314 41.38 12.446 40.96 12.71C40.54 12.962 40.204 13.322 39.952 13.79C39.7 14.246 39.574 14.786 39.574 15.41C39.574 16.034 39.7 16.58 39.952 17.048C40.204 17.516 40.54 17.876 40.96 18.128C41.38 18.38 41.842 18.506 42.346 18.506C42.934 18.506 43.432 18.374 43.84 18.11C44.248 17.834 44.566 17.462 44.794 16.994L46.522 17.75C46.198 18.482 45.682 19.088 44.974 19.568C44.266 20.048 43.402 20.288 42.382 20.288ZM48.1887 20V7.112H50.1327V10.64L50.0247 12.08H50.1327C50.3847 11.636 50.7687 11.27 51.2847 10.982C51.8127 10.682 52.3947 10.532 53.0307 10.532C54.1707 10.532 55.0287 10.874 55.6047 11.558C56.1807 12.23 56.4687 13.112 56.4687 14.204V20H54.5427V14.456C54.5427 13.712 54.3447 13.172 53.9487 12.836C53.5647 12.488 53.0907 12.314 52.5267 12.314C52.0587 12.314 51.6447 12.446 51.2847 12.71C50.9247 12.974 50.6427 13.322 50.4387 13.754C50.2347 14.174 50.1327 14.624 50.1327 15.104V20H48.1887ZM58.6828 20V10.82H60.5188V12.17H60.6268C60.8308 11.702 61.1788 11.318 61.6708 11.018C62.1748 10.706 62.7148 10.55 63.2908 10.55C63.5428 10.55 63.7528 10.568 63.9208 10.604C64.1008 10.64 64.2628 10.682 64.4068 10.73V12.746C64.1788 12.65 63.9448 12.572 63.7048 12.512C63.4768 12.452 63.2368 12.422 62.9848 12.422C62.5288 12.422 62.1208 12.548 61.7608 12.8C61.4128 13.04 61.1368 13.37 60.9328 13.79C60.7288 14.198 60.6268 14.648 60.6268 15.14V20H58.6828ZM69.6825 20.288C68.7345 20.288 67.9005 20.072 67.1805 19.64C66.4605 19.208 65.8965 18.626 65.4885 17.894C65.0805 17.162 64.8765 16.334 64.8765 15.41C64.8765 14.498 65.0805 13.676 65.4885 12.944C65.8965 12.2 66.4605 11.612 67.1805 11.18C67.9005 10.748 68.7345 10.532 69.6825 10.532C70.6185 10.532 71.4465 10.748 72.1665 11.18C72.8865 11.612 73.4505 12.2 73.8585 12.944C74.2665 13.676 74.4705 14.498 74.4705 15.41C74.4705 16.334 74.2665 17.162 73.8585 17.894C73.4505 18.626 72.8865 19.208 72.1665 19.64C71.4465 20.072 70.6185 20.288 69.6825 20.288ZM69.6825 18.506C70.1865 18.506 70.6545 18.386 71.0865 18.146C71.5185 17.894 71.8665 17.54 72.1305 17.084C72.4065 16.616 72.5445 16.058 72.5445 15.41C72.5445 14.762 72.4065 14.21 72.1305 13.754C71.8665 13.286 71.5185 12.932 71.0865 12.692C70.6545 12.44 70.1865 12.314 69.6825 12.314C69.1785 12.314 68.7045 12.44 68.2605 12.692C67.8285 12.932 67.4745 13.286 67.1985 13.754C66.9345 14.21 66.8025 14.762 66.8025 15.41C66.8025 16.058 66.9345 16.616 67.1985 17.084C67.4745 17.54 67.8285 17.894 68.2605 18.146C68.7045 18.386 69.1785 18.506 69.6825 18.506ZM76.0852 20V10.82H77.9212V12.08H78.0292C78.2932 11.636 78.6772 11.27 79.1812 10.982C79.6852 10.682 80.2432 10.532 80.8552 10.532C81.5392 10.532 82.1212 10.694 82.6012 11.018C83.0812 11.342 83.4232 11.75 83.6272 12.242C83.9272 11.762 84.3352 11.36 84.8512 11.036C85.3672 10.7 85.9972 10.532 86.7412 10.532C87.8212 10.532 88.6252 10.862 89.1532 11.522C89.6812 12.17 89.9452 13.034 89.9452 14.114V20H88.0192V14.438C88.0192 13.706 87.8572 13.172 87.5332 12.836C87.2212 12.488 86.7832 12.314 86.2192 12.314C85.7752 12.314 85.3852 12.44 85.0492 12.692C84.7132 12.932 84.4492 13.262 84.2572 13.682C84.0772 14.102 83.9872 14.57 83.9872 15.086V20H82.0612V14.438C82.0612 13.706 81.8992 13.172 81.5752 12.836C81.2512 12.488 80.7952 12.314 80.2072 12.314C79.7752 12.314 79.3972 12.44 79.0732 12.692C78.7492 12.944 78.4912 13.28 78.2992 13.7C78.1192 14.12 78.0292 14.588 78.0292 15.104V20H76.0852ZM96.328 20.288C95.428 20.288 94.624 20.078 93.916 19.658C93.208 19.238 92.65 18.662 92.242 17.93C91.846 17.198 91.648 16.364 91.648 15.428C91.648 14.552 91.84 13.742 92.224 12.998C92.608 12.254 93.142 11.66 93.826 11.216C94.522 10.76 95.32 10.532 96.22 10.532C97.168 10.532 97.972 10.736 98.632 11.144C99.304 11.552 99.814 12.11 100.162 12.818C100.51 13.526 100.684 14.324 100.684 15.212C100.684 15.344 100.678 15.464 100.666 15.572C100.666 15.68 100.66 15.764 100.648 15.824H93.556C93.652 16.736 93.97 17.42 94.51 17.876C95.062 18.332 95.686 18.56 96.382 18.56C97.006 18.56 97.522 18.422 97.93 18.146C98.338 17.858 98.662 17.504 98.902 17.084L100.504 17.858C100.108 18.578 99.568 19.166 98.884 19.622C98.2 20.066 97.348 20.288 96.328 20.288ZM96.238 12.188C95.59 12.188 95.038 12.386 94.582 12.782C94.126 13.178 93.82 13.706 93.664 14.366H98.758C98.734 14.054 98.632 13.73 98.452 13.394C98.272 13.058 97.996 12.776 97.624 12.548C97.264 12.308 96.802 12.188 96.238 12.188Z" fill="#5F6368"/>
<mask id="mask0_1319:6668" style="mask-type:alpha" maskUnits="userSpaceOnUse" x="0" y="3" width="24" height="24">
<path d="M12 27C18.6274 27 24 21.6274 24 15C24 8.37258 18.6274 3 12 3C5.37258 3 0 8.37258 0 15C0 21.6274 5.37258 27 12 27Z" fill="black"/>
</mask>
<g mask="url(#mask0_1319:6668)">
<path d="M1.90918 3V17.7273H7.28191L12.0001 9.54545H24.0001V3H1.90918Z" fill="#DB4437"/>
<path d="M1.90918 3V17.7273H7.28191L12.0001 9.54545H24.0001V3H1.90918Z" fill="url(#paint0_linear_1319:6668)"/>
<path d="M0 27H11.4273L16.7455 21.6818V17.7273H7.25455L0 5.25V27Z" fill="#0F9D58"/>
<path d="M0 27H11.4273L16.7455 21.6818V17.7273H7.25455L0 5.25V27Z" fill="url(#paint1_linear_1319:6668)"/>
<path d="M12 9.54541L16.7182 17.7272L11.4546 27H24V9.54541H12Z" fill="#FFCD40"/>
<path d="M12 9.54541L16.7182 17.7272L11.4546 27H24V9.54541H12Z" fill="url(#paint2_linear_1319:6668)"/>
<path opacity="0.1" d="M7.40463 17.6863L1.90918 8.50903L7.22736 17.7545L7.40463 17.6863Z" fill="#3E2723"/>
<path opacity="0.1" d="M16.609 17.9046L16.4999 17.8501L11.4136 26.9865L16.6363 17.8501L16.609 17.9046Z" fill="#263238"/>
<path d="M12 9.54541V12.409L22.6909 9.54541H12Z" fill="url(#paint3_radial_1319:6668)"/>
<path d="M1.90918 8.52271L9.70918 16.3227L7.28191 17.7273L1.90918 8.52271Z" fill="url(#paint4_radial_1319:6668)"/>
<path d="M11.4272 27L14.2909 16.3228L16.7182 17.7273L11.4272 27Z" fill="url(#paint5_radial_1319:6668)"/>
<path d="M12 20.4545C15.0124 20.4545 17.4545 18.0124 17.4545 15C17.4545 11.9875 15.0124 9.54541 12 9.54541C8.98749 9.54541 6.54541 11.9875 6.54541 15C6.54541 18.0124 8.98749 20.4545 12 20.4545Z" fill="#F1F1F1"/>
<path d="M11.9999 19.3637C14.4098 19.3637 16.3635 17.4101 16.3635 15.0001C16.3635 12.5901 14.4098 10.6365 11.9999 10.6365C9.5899 10.6365 7.63623 12.5901 7.63623 15.0001C7.63623 17.4101 9.5899 19.3637 11.9999 19.3637Z" fill="#4285F4"/>
<path d="M12 27C18.6274 27 24 21.6274 24 15C24 8.37258 18.6274 3 12 3C5.37258 3 0 8.37258 0 15C0 21.6274 5.37258 27 12 27Z" fill="url(#paint6_radial_1319:6668)"/>
<path opacity="0.2" d="M12 9.40918C10.5547 9.4135 9.16977 9.98956 8.14778 11.0115C7.12579 12.0335 6.54973 13.4184 6.54541 14.8637V15.0001C6.54973 13.5548 7.12579 12.1699 8.14778 11.1479C9.16977 10.1259 10.5547 9.54986 12 9.54554H24V9.40918H12Z" fill="#3E2723"/>
</g>
<defs>
<linearGradient id="paint0_linear_1319:6668" x1="2.84327" y1="12.1664" x2="10.0024" y2="7.99364" gradientUnits="userSpaceOnUse">
<stop stop-color="#A52714" stop-opacity="0.6"/>
<stop offset="0.7" stop-color="#A52714" stop-opacity="0"/>
</linearGradient>
<linearGradient id="paint1_linear_1319:6668" x1="14.0905" y1="24.3764" x2="6.12682" y2="19.7127" gradientUnits="userSpaceOnUse">
<stop stop-color="#055524" stop-opacity="0.4"/>
<stop offset="0.3" stop-color="#055524" stop-opacity="0"/>
</linearGradient>
<linearGradient id="paint2_linear_1319:6668" x1="15.5755" y1="8.85814" x2="17.58" y2="17.6263" gradientUnits="userSpaceOnUse">
<stop stop-color="#EA6100" stop-opacity="0.3"/>
<stop offset="0.7" stop-color="#EA6100" stop-opacity="0"/>
</linearGradient>
<radialGradient id="paint3_radial_1319:6668" cx="0" cy="0" r="1" gradientUnits="userSpaceOnUse" gradientTransform="translate(11.4818 9.54541) scale(11.4682)">
<stop stop-color="#3E2723" stop-opacity="0.2"/>
<stop offset="1" stop-color="#3E2723" stop-opacity="0"/>
</radialGradient>
<radialGradient id="paint4_radial_1319:6668" cx="0" cy="0" r="1" gradientUnits="userSpaceOnUse" gradientTransform="translate(164.929 1338.58) scale(608.4 717.955)">
<stop stop-color="#3E2723" stop-opacity="0.2"/>
<stop offset="1" stop-color="#3E2723" stop-opacity="0"/>
</radialGradient>
<radialGradient id="paint5_radial_1319:6668" cx="0" cy="0" r="1" gradientUnits="userSpaceOnUse" gradientTransform="translate(11.9727 15.0137) scale(11.9864)">
<stop stop-color="#263238" stop-opacity="0.2"/>
<stop offset="1" stop-color="#263238" stop-opacity="0"/>
</radialGradient>
<radialGradient id="paint6_radial_1319:6668" cx="0" cy="0" r="1" gradientUnits="userSpaceOnUse" gradientTransform="translate(3.58636 6.27273) scale(24.1091)">
<stop stop-color="white" stop-opacity="0.1"/>
<stop offset="1" stop-color="white" stop-opacity="0"/>
</radialGradient>
</defs>
</svg>
