<svg width="125" height="24" viewBox="0 0 125 24" fill="currentColor" xmlns="http://www.w3.org/2000/svg">
<path d="M0.625 19.9489C0.625 18.2638 1.99102 16.8977 3.67614 16.8977H19.9489C21.634 16.8977 23 18.2638 23 19.9489C23 21.634 21.634 23 19.9489 23H3.67614C1.99102 23 0.625 21.634 0.625 19.9489Z" fill="#66CCFF"/>
<path fill-rule="evenodd" clip-rule="evenodd" d="M1.51866 1.51866C2.7102 0.327114 4.64208 0.327114 5.83361 1.51866L13.97 9.65503C15.1615 10.8466 15.1615 12.7784 13.97 13.97L5.83361 22.1063C4.64208 23.2979 2.7102 23.2979 1.51866 22.1063C0.327114 20.9148 0.327114 18.9829 1.51866 17.7914L7.13797 12.1721C7.33655 11.9735 7.33655 11.6515 7.13797 11.4529L1.51866 5.83361C0.327114 4.64208 0.327114 2.7102 1.51866 1.51866Z" fill="#0066FF"/>
<path d="M11.0422 16.8977L5.83361 22.1063C4.64208 23.2979 2.7102 23.2979 1.51866 22.1063C0.327114 20.9148 0.327114 18.9829 1.51866 17.7914L2.41233 16.8977H11.0422Z" fill="#CC66FF"/>
<path d="M19.9488 23C21.6339 23 23 21.634 23 19.9489C23 18.2638 21.6339 16.8977 19.9488 16.8977C18.2637 16.8977 16.8977 18.2638 16.8977 19.9489C16.8977 21.634 18.2637 23 19.9488 23Z" fill="#0066FF"/>
<path fill-rule="evenodd" clip-rule="evenodd" d="M116.6 20.1H114.4L109.6 8.20005H112L115.5 17.4L119 8.20005H121.4L116.6 20.1V20.1ZM99.8 12.8H106.6C106.5 11.2 105.2 9.90005 103.2 9.90005C101.5 9.90005 100.2 11 99.8 12.8V12.8ZM103.4 20.5C99.9 20.5 97.4 17.8 97.4 14.2C97.4 10.6 99.9 7.90005 103.3 7.90005C106.8 7.90005 109.1 10.3 109.1 14.4V14.6H99.8C99.9 16.9 101.6 18.5 103.6 18.5C105 18.5 106.2 17.8 106.9 16.4L108.9 17.4C107.8 19.3 105.8 20.5 103.4 20.5V20.5ZM89.4 20.5C86.3 20.5 83.7 17.7 83.7 14.2C83.7 10.7 86.3 7.90005 89.4 7.90005C91.1 7.90005 92.7 8.70005 93.5 9.90005H93.6L93.5 8.30005V2.80005H95.7V20.1H93.6V18.5H93.5C92.6 19.7 91.1 20.5 89.4 20.5V20.5ZM89.7 18.5C91.9 18.5 93.5 16.8 93.5 14.2C93.5 11.7 91.9 9.90005 89.7 9.90005C87.6 9.90005 85.9 11.7 85.9 14.2C85.9 16.7 87.6 18.5 89.7 18.5ZM82.9 18.6C82.9 19.5 82.2 20.2001 81.2 20.2001C80.3 20.2001 79.5 19.4 79.5 18.6C79.5 17.7 80.3 17 81.2 17C82.2 17 82.9 17.7 82.9 18.6ZM72.4 18.5C74.5 18.5 76.2 16.7 76.2 14.2C76.2 11.7 74.5 9.90005 72.4 9.90005C70.2 9.90005 68.6 11.7 68.6 14.2C68.6 16.7 70.2 18.5 72.4 18.5ZM72.8 20.5C71.1 20.5 69.5 19.7 68.7 18.5H68.6V20.1H66.5V2.80005H68.7V8.30005L68.6 9.90005H68.7C69.5 8.70005 71 7.90005 72.8 7.90005C75.9 7.90005 78.5 10.7 78.5 14.2C78.4 17.7 75.9 20.5 72.8 20.5V20.5ZM55.4 12.8H62.2C62.1 11.2 60.8 9.90005 58.8 9.90005C57.1 9.90005 55.8 11 55.4 12.8V12.8ZM59 20.5C55.5 20.5 53 17.8 53 14.2C53 10.6 55.5 7.90005 58.9 7.90005C62.4 7.90005 64.7 10.3 64.7 14.4V14.6H55.4C55.5 16.9 57.2 18.5 59.2 18.5C60.6 18.5 61.7 17.8 62.5 16.4L64.5 17.4C63.4 19.3 61.4 20.5 59 20.5V20.5ZM52.7 8.30005L48.9 20.2001H46.6L43.6 11.1L40.7 20.2001H38.4L34.5 8.30005H36.8L39.4 17.3L42.3 8.30005H44.6L47.5 17.3L50.1 8.30005H52.7V8.30005Z" />
</svg>
