<svg width="118" height="29" viewBox="0 0 118 29" fill="none" xmlns="http://www.w3.org/2000/svg">
<path d="M0 23.2123C0 21.5272 1.36602 20.1611 3.05114 20.1611H19.3239C21.009 20.1611 22.375 21.5272 22.375 23.2123C22.375 24.8974 21.009 26.2634 19.3239 26.2634H3.05114C1.36602 26.2634 0 24.8974 0 23.2123Z" fill="#66CCFF"/>
<path fill-rule="evenodd" clip-rule="evenodd" d="M0.893659 4.78184C2.0852 3.5903 4.01708 3.5903 5.20861 4.78184L13.345 12.9182C14.5365 14.1097 14.5365 16.0416 13.345 17.2332L5.20861 25.3695C4.01708 26.5611 2.0852 26.5611 0.893659 25.3695C-0.297886 24.178 -0.297886 22.2461 0.893659 21.0546L6.51297 15.4353C6.71155 15.2367 6.71155 14.9147 6.51297 14.7161L0.893659 9.09679C-0.297886 7.90526 -0.297886 5.97338 0.893659 4.78184Z" fill="#0066FF"/>
<path d="M10.4172 20.1611L5.20861 25.3697C4.01708 26.5613 2.0852 26.5613 0.893659 25.3697C-0.297886 24.1782 -0.297886 22.2463 0.893659 21.0548L1.78733 20.1611H10.4172Z" fill="#CC66FF"/>
<path d="M19.3239 26.2634C21.009 26.2634 22.375 24.8974 22.375 23.2123C22.375 21.5272 21.009 20.1611 19.3239 20.1611C17.6388 20.1611 16.2727 21.5272 16.2727 23.2123C16.2727 24.8974 17.6388 26.2634 19.3239 26.2634Z" fill="#0066FF"/>
<path d="M38.22 26.048C37.8333 26.048 37.4833 25.9613 37.17 25.788C36.8633 25.608 36.6333 25.3913 36.48 25.138H36.44V25.888H35.63V18.728H36.48V20.838L36.44 21.548H36.48C36.6333 21.288 36.8633 21.0713 37.17 20.898C37.4833 20.718 37.8333 20.628 38.22 20.628C38.6733 20.628 39.0866 20.7447 39.46 20.978C39.8333 21.2113 40.1266 21.5347 40.34 21.948C40.5533 22.3613 40.66 22.8247 40.66 23.338C40.66 23.858 40.5533 24.3247 40.34 24.738C40.1266 25.1447 39.8333 25.4647 39.46 25.698C39.0866 25.9313 38.6733 26.048 38.22 26.048ZM38.12 25.278C38.4133 25.278 38.69 25.198 38.95 25.038C39.21 24.878 39.4166 24.6513 39.57 24.358C39.73 24.058 39.81 23.718 39.81 23.338C39.81 22.958 39.73 22.6213 39.57 22.328C39.4166 22.028 39.21 21.798 38.95 21.638C38.69 21.478 38.4133 21.398 38.12 21.398C37.8266 21.398 37.55 21.478 37.29 21.638C37.03 21.798 36.8233 22.0247 36.67 22.318C36.5166 22.6113 36.44 22.9513 36.44 23.338C36.44 23.7247 36.5166 24.0647 36.67 24.358C36.8233 24.6513 37.03 24.878 37.29 25.038C37.55 25.198 37.8266 25.278 38.12 25.278Z"/>
<path d="M43.0103 25.568L40.9003 20.788H41.8203L43.4203 24.578H43.4403L44.9803 20.788H45.9003L42.7503 28.048H41.8703L43.0103 25.568Z"/>
<path d="M52.2654 26.048C51.5721 26.048 50.9421 25.8847 50.3754 25.558C49.8088 25.2313 49.3621 24.7847 49.0354 24.218C48.7154 23.6447 48.5554 23.008 48.5554 22.308C48.5554 21.608 48.7154 20.9747 49.0354 20.408C49.3621 19.8347 49.8088 19.3847 50.3754 19.058C50.9421 18.7313 51.5721 18.568 52.2654 18.568C52.7988 18.568 53.2854 18.6713 53.7254 18.878C54.1721 19.078 54.5588 19.3647 54.8854 19.738L54.2754 20.328C54.0021 20.0013 53.7021 19.7613 53.3754 19.608C53.0554 19.4547 52.6854 19.378 52.2654 19.378C51.7454 19.378 51.2688 19.5013 50.8354 19.748C50.4021 19.988 50.0554 20.3313 49.7954 20.778C49.5421 21.218 49.4154 21.728 49.4154 22.308C49.4154 22.888 49.5421 23.4013 49.7954 23.848C50.0554 24.288 50.4021 24.6313 50.8354 24.878C51.2688 25.118 51.7454 25.238 52.2654 25.238C53.1321 25.238 53.8688 24.8813 54.4754 24.168L55.0954 24.768C54.7621 25.1613 54.3521 25.4747 53.8654 25.708C53.3788 25.9347 52.8454 26.048 52.2654 26.048Z"/>
<path d="M56.0499 18.728H56.8999V20.838L56.8599 21.538H56.8999C57.0399 21.278 57.2599 21.0613 57.5599 20.888C57.8666 20.7147 58.1999 20.628 58.5599 20.628C59.1799 20.628 59.6532 20.8113 59.9799 21.178C60.3066 21.538 60.4699 22.018 60.4699 22.618V25.888H59.6199V22.748C59.6199 22.288 59.5032 21.948 59.2699 21.728C59.0366 21.508 58.7332 21.398 58.3599 21.398C58.0932 21.398 57.8466 21.478 57.6199 21.638C57.3999 21.798 57.2232 22.0047 57.0899 22.258C56.9632 22.5113 56.8999 22.7747 56.8999 23.048V25.888H56.0499V18.728Z"/>
<path d="M61.6944 20.788H62.5044V21.608H62.5444C62.6444 21.328 62.8378 21.098 63.1244 20.918C63.4111 20.7313 63.7111 20.638 64.0244 20.638C64.2578 20.638 64.4578 20.6713 64.6244 20.738V21.658C64.4111 21.5513 64.1711 21.498 63.9044 21.498C63.6578 21.498 63.4311 21.568 63.2244 21.708C63.0178 21.848 62.8511 22.038 62.7244 22.278C62.6044 22.5113 62.5444 22.7647 62.5444 23.038V25.888H61.6944V20.788Z"/>
<path d="M67.4917 26.048C66.9917 26.048 66.5417 25.928 66.1417 25.688C65.7417 25.448 65.4284 25.1213 65.2017 24.708C64.9817 24.2947 64.8717 23.838 64.8717 23.338C64.8717 22.838 64.9817 22.3813 65.2017 21.968C65.4284 21.5547 65.7417 21.228 66.1417 20.988C66.5417 20.748 66.9917 20.628 67.4917 20.628C67.9917 20.628 68.4417 20.748 68.8417 20.988C69.2417 21.228 69.5517 21.5547 69.7717 21.968C69.9984 22.3813 70.1117 22.838 70.1117 23.338C70.1117 23.838 69.9984 24.2947 69.7717 24.708C69.5517 25.1213 69.2417 25.448 68.8417 25.688C68.4417 25.928 67.9917 26.048 67.4917 26.048ZM67.4917 25.278C67.805 25.278 68.095 25.2013 68.3617 25.048C68.635 24.888 68.8517 24.6613 69.0117 24.368C69.1784 24.0747 69.2617 23.7313 69.2617 23.338C69.2617 22.9447 69.1784 22.6013 69.0117 22.308C68.8517 22.0147 68.635 21.7913 68.3617 21.638C68.095 21.478 67.805 21.398 67.4917 21.398C67.1784 21.398 66.885 21.478 66.6117 21.638C66.3384 21.7913 66.1184 22.0147 65.9517 22.308C65.7917 22.6013 65.7117 22.9447 65.7117 23.338C65.7117 23.7313 65.7917 24.0747 65.9517 24.368C66.1184 24.6613 66.3384 24.888 66.6117 25.048C66.885 25.2013 67.1784 25.278 67.4917 25.278Z"/>
<path d="M71.0011 20.788H71.8111V21.538H71.8511C71.9977 21.278 72.2177 21.0613 72.5111 20.888C72.8044 20.7147 73.1144 20.628 73.4411 20.628C73.8144 20.628 74.1377 20.718 74.4111 20.898C74.6911 21.078 74.8911 21.318 75.0111 21.618C75.1911 21.318 75.4277 21.078 75.7211 20.898C76.0211 20.718 76.3677 20.628 76.7611 20.628C77.3477 20.628 77.7877 20.808 78.0811 21.168C78.3811 21.5213 78.5311 22.0047 78.5311 22.618V25.888H77.6911V22.748C77.6911 22.2747 77.5944 21.9313 77.4011 21.718C77.2077 21.5047 76.9211 21.398 76.5411 21.398C76.2877 21.398 76.0577 21.4713 75.8511 21.618C75.6444 21.7647 75.4811 21.9613 75.3611 22.208C75.2477 22.4547 75.1911 22.7213 75.1911 23.008V25.888H74.3411V22.758C74.3411 22.278 74.2444 21.9313 74.0511 21.718C73.8577 21.5047 73.5744 21.398 73.2011 21.398C72.9477 21.398 72.7177 21.4747 72.5111 21.628C72.3044 21.7747 72.1411 21.9747 72.0211 22.228C71.9077 22.4747 71.8511 22.7413 71.8511 23.028V25.888H71.0011V20.788Z"/>
<path d="M82.0211 26.048C81.5344 26.048 81.0977 25.9313 80.7111 25.698C80.3244 25.4647 80.0211 25.1447 79.8011 24.738C79.5877 24.3247 79.4811 23.8613 79.4811 23.348C79.4811 22.8547 79.5811 22.4013 79.7811 21.988C79.9877 21.5747 80.2777 21.2447 80.6511 20.998C81.0244 20.7513 81.4577 20.628 81.9511 20.628C82.4511 20.628 82.8844 20.7413 83.2511 20.968C83.6177 21.188 83.8977 21.4947 84.0911 21.888C84.2911 22.2813 84.3911 22.7313 84.3911 23.238C84.3911 23.338 84.3811 23.4247 84.3611 23.498H80.3311C80.3511 23.8847 80.4444 24.2113 80.6111 24.478C80.7777 24.7447 80.9877 24.9447 81.2411 25.078C81.5011 25.2113 81.7711 25.278 82.0511 25.278C82.7044 25.278 83.2077 24.9713 83.5611 24.358L84.2811 24.708C84.0611 25.1213 83.7611 25.448 83.3811 25.688C83.0077 25.928 82.5544 26.048 82.0211 26.048ZM83.4911 22.798C83.4777 22.5847 83.4177 22.3713 83.3111 22.158C83.2044 21.9447 83.0344 21.7647 82.8011 21.618C82.5744 21.4713 82.2877 21.398 81.9411 21.398C81.5411 21.398 81.2011 21.528 80.9211 21.788C80.6477 22.0413 80.4677 22.378 80.3811 22.798H83.4911Z"/>
<path d="M87.8801 18.728H90.0401C90.7734 18.728 91.4134 18.8813 91.9601 19.188C92.5067 19.488 92.9267 19.908 93.2201 20.448C93.5134 20.988 93.6601 21.608 93.6601 22.308C93.6601 23.008 93.5134 23.628 93.2201 24.168C92.9267 24.708 92.5067 25.1313 91.9601 25.438C91.4134 25.738 90.7734 25.888 90.0401 25.888H87.8801V18.728ZM90.0401 25.078C90.8867 25.078 91.5567 24.8347 92.0501 24.348C92.5501 23.8613 92.8001 23.1813 92.8001 22.308C92.8001 21.4347 92.5501 20.7547 92.0501 20.268C91.5567 19.7813 90.8867 19.538 90.0401 19.538H88.7201V25.078H90.0401Z"/>
<path d="M96.8648 26.048C96.3782 26.048 95.9415 25.9313 95.5548 25.698C95.1682 25.4647 94.8648 25.1447 94.6448 24.738C94.4315 24.3247 94.3248 23.8613 94.3248 23.348C94.3248 22.8547 94.4248 22.4013 94.6248 21.988C94.8315 21.5747 95.1215 21.2447 95.4948 20.998C95.8682 20.7513 96.3015 20.628 96.7948 20.628C97.2948 20.628 97.7282 20.7413 98.0948 20.968C98.4615 21.188 98.7415 21.4947 98.9348 21.888C99.1348 22.2813 99.2348 22.7313 99.2348 23.238C99.2348 23.338 99.2248 23.4247 99.2048 23.498H95.1748C95.1948 23.8847 95.2882 24.2113 95.4548 24.478C95.6215 24.7447 95.8315 24.9447 96.0848 25.078C96.3448 25.2113 96.6148 25.278 96.8948 25.278C97.5482 25.278 98.0515 24.9713 98.4048 24.358L99.1248 24.708C98.9048 25.1213 98.6048 25.448 98.2248 25.688C97.8515 25.928 97.3982 26.048 96.8648 26.048ZM98.3348 22.798C98.3215 22.5847 98.2615 22.3713 98.1548 22.158C98.0482 21.9447 97.8782 21.7647 97.6448 21.618C97.4182 21.4713 97.1315 21.398 96.7848 21.398C96.3848 21.398 96.0448 21.528 95.7648 21.788C95.4915 22.0413 95.3115 22.378 95.2248 22.798H98.3348Z"/>
<path d="M99.5719 20.788H100.482L102.062 24.888H102.082L103.682 20.788H104.572L102.492 25.888H101.632L99.5719 20.788Z"/>
<path d="M105.439 18.728H107.859C108.252 18.728 108.619 18.818 108.959 18.998C109.299 19.178 109.569 19.4313 109.769 19.758C109.975 20.078 110.079 20.4413 110.079 20.848C110.079 21.1813 110.002 21.4913 109.849 21.778C109.702 22.0647 109.495 22.3047 109.229 22.498C108.969 22.6913 108.679 22.8213 108.359 22.888L108.339 22.918L110.359 25.848V25.888H109.359L107.409 22.968H106.279V25.888H105.439V18.728ZM107.809 22.178C108.055 22.178 108.285 22.1213 108.499 22.008C108.719 21.8947 108.892 21.738 109.019 21.538C109.152 21.3313 109.219 21.1013 109.219 20.848C109.219 20.628 109.162 20.418 109.049 20.218C108.935 20.018 108.775 19.8547 108.569 19.728C108.369 19.6013 108.135 19.538 107.869 19.538H106.279V22.178H107.809Z"/>
<path d="M113.3 26.048C112.814 26.048 112.377 25.9313 111.99 25.698C111.604 25.4647 111.3 25.1447 111.08 24.738C110.867 24.3247 110.76 23.8613 110.76 23.348C110.76 22.8547 110.86 22.4013 111.06 21.988C111.267 21.5747 111.557 21.2447 111.93 20.998C112.304 20.7513 112.737 20.628 113.23 20.628C113.73 20.628 114.164 20.7413 114.53 20.968C114.897 21.188 115.177 21.4947 115.37 21.888C115.57 22.2813 115.67 22.7313 115.67 23.238C115.67 23.338 115.66 23.4247 115.64 23.498H111.61C111.63 23.8847 111.724 24.2113 111.89 24.478C112.057 24.7447 112.267 24.9447 112.52 25.078C112.78 25.2113 113.05 25.278 113.33 25.278C113.984 25.278 114.487 24.9713 114.84 24.358L115.56 24.708C115.34 25.1213 115.04 25.448 114.66 25.688C114.287 25.928 113.834 26.048 113.3 26.048ZM114.77 22.798C114.757 22.5847 114.697 22.3713 114.59 22.158C114.484 21.9447 114.314 21.7647 114.08 21.618C113.854 21.4713 113.567 21.398 113.22 21.398C112.82 21.398 112.48 21.528 112.2 21.788C111.927 22.0413 111.747 22.378 111.66 22.798H114.77Z"/>
<path d="M116.665 18.728H117.515V25.888H116.665V18.728Z"/>
<path d="M35.126 3.708H36.692L38.888 10.962H38.906L41.21 3.708H42.794L45.116 10.944H45.134L47.312 3.708H48.86L45.89 12.888H44.342L41.966 5.562L39.608 12.888H38.078L35.126 3.708Z"/>
<path d="M54.0364 13.176C53.1604 13.176 52.3744 12.966 51.6784 12.546C50.9824 12.126 50.4364 11.55 50.0404 10.818C49.6564 10.074 49.4644 9.24 49.4644 8.316C49.4644 7.428 49.6444 6.612 50.0044 5.868C50.3764 5.124 50.8984 4.53 51.5704 4.086C52.2424 3.642 53.0224 3.42 53.9104 3.42C54.8104 3.42 55.5904 3.624 56.2504 4.032C56.9104 4.428 57.4144 4.98 57.7624 5.688C58.1224 6.396 58.3024 7.206 58.3024 8.118C58.3024 8.298 58.2844 8.454 58.2484 8.586H50.9944C51.0304 9.282 51.1984 9.87 51.4984 10.35C51.7984 10.83 52.1764 11.19 52.6324 11.43C53.1004 11.67 53.5864 11.79 54.0904 11.79C55.2664 11.79 56.1724 11.238 56.8084 10.134L58.1044 10.764C57.7084 11.508 57.1684 12.096 56.4844 12.528C55.8124 12.96 54.9964 13.176 54.0364 13.176ZM56.6824 7.326C56.6584 6.942 56.5504 6.558 56.3584 6.174C56.1664 5.79 55.8604 5.466 55.4404 5.202C55.0324 4.938 54.5164 4.806 53.8924 4.806C53.1724 4.806 52.5604 5.04 52.0564 5.508C51.5644 5.964 51.2404 6.57 51.0844 7.326H56.6824Z"/>
<path d="M64.755 13.176C64.059 13.176 63.429 13.02 62.865 12.708C62.313 12.384 61.899 11.994 61.623 11.538H61.551V12.888H60.093V0H61.623V3.798L61.551 5.076H61.623C61.899 4.608 62.313 4.218 62.865 3.906C63.429 3.582 64.059 3.42 64.755 3.42C65.571 3.42 66.315 3.63 66.987 4.05C67.659 4.47 68.187 5.052 68.571 5.796C68.955 6.54 69.147 7.374 69.147 8.298C69.147 9.234 68.955 10.074 68.571 10.818C68.187 11.55 67.659 12.126 66.987 12.546C66.315 12.966 65.571 13.176 64.755 13.176ZM64.575 11.79C65.103 11.79 65.601 11.646 66.069 11.358C66.537 11.07 66.909 10.662 67.185 10.134C67.473 9.594 67.617 8.982 67.617 8.298C67.617 7.614 67.473 7.008 67.185 6.48C66.909 5.94 66.537 5.526 66.069 5.238C65.601 4.95 65.103 4.806 64.575 4.806C64.047 4.806 63.549 4.95 63.081 5.238C62.613 5.526 62.241 5.934 61.965 6.462C61.689 6.99 61.551 7.602 61.551 8.298C61.551 8.994 61.689 9.606 61.965 10.134C62.241 10.662 62.613 11.07 63.081 11.358C63.549 11.646 64.047 11.79 64.575 11.79Z"/>
<path d="M71.9291 12.996C71.6051 12.996 71.3291 12.888 71.1011 12.672C70.8851 12.444 70.7771 12.168 70.7771 11.844C70.7771 11.532 70.8851 11.268 71.1011 11.052C71.3291 10.824 71.6051 10.71 71.9291 10.71C72.2411 10.71 72.5051 10.824 72.7211 11.052C72.9491 11.268 73.0631 11.532 73.0631 11.844C73.0631 12.168 72.9491 12.444 72.7211 12.672C72.5051 12.888 72.2411 12.996 71.9291 12.996Z"/>
<path d="M79.0981 13.176C78.2821 13.176 77.5382 12.966 76.8661 12.546C76.2061 12.126 75.6841 11.55 75.3001 10.818C74.9161 10.074 74.7241 9.234 74.7241 8.298C74.7241 7.374 74.9161 6.54 75.3001 5.796C75.6841 5.052 76.2061 4.47 76.8661 4.05C77.5382 3.63 78.2821 3.42 79.0981 3.42C79.8061 3.42 80.4361 3.582 80.9881 3.906C81.5401 4.218 81.9601 4.608 82.2481 5.076H82.3201L82.2481 3.798V0H83.7781V12.888H82.3201V11.538H82.2481C81.9601 11.994 81.5401 12.384 80.9881 12.708C80.4361 13.02 79.8061 13.176 79.0981 13.176ZM79.2781 11.79C79.8181 11.79 80.3161 11.646 80.7721 11.358C81.2401 11.07 81.6121 10.662 81.8881 10.134C82.1761 9.606 82.3201 8.994 82.3201 8.298C82.3201 7.602 82.1761 6.99 81.8881 6.462C81.6121 5.934 81.2401 5.526 80.7721 5.238C80.3161 4.95 79.8181 4.806 79.2781 4.806C78.7501 4.806 78.2521 4.95 77.7841 5.238C77.3161 5.526 76.9382 5.94 76.6502 6.48C76.3742 7.008 76.2361 7.614 76.2361 8.298C76.2361 8.982 76.3742 9.594 76.6502 10.134C76.9382 10.662 77.3161 11.07 77.7841 11.358C78.2521 11.646 78.7501 11.79 79.2781 11.79Z"/>
<path d="M90.0364 13.176C89.1604 13.176 88.3744 12.966 87.6784 12.546C86.9824 12.126 86.4364 11.55 86.0404 10.818C85.6564 10.074 85.4644 9.24 85.4644 8.316C85.4644 7.428 85.6444 6.612 86.0044 5.868C86.3764 5.124 86.8984 4.53 87.5704 4.086C88.2424 3.642 89.0224 3.42 89.9104 3.42C90.8104 3.42 91.5904 3.624 92.2504 4.032C92.9104 4.428 93.4144 4.98 93.7624 5.688C94.1224 6.396 94.3024 7.206 94.3024 8.118C94.3024 8.298 94.2844 8.454 94.2484 8.586H86.9944C87.0304 9.282 87.1984 9.87 87.4984 10.35C87.7984 10.83 88.1764 11.19 88.6324 11.43C89.1004 11.67 89.5864 11.79 90.0904 11.79C91.2664 11.79 92.1724 11.238 92.8084 10.134L94.1044 10.764C93.7084 11.508 93.1684 12.096 92.4844 12.528C91.8124 12.96 90.9964 13.176 90.0364 13.176ZM92.6824 7.326C92.6584 6.942 92.5504 6.558 92.3584 6.174C92.1664 5.79 91.8604 5.466 91.4404 5.202C91.0324 4.938 90.5164 4.806 89.8924 4.806C89.1724 4.806 88.5604 5.04 88.0564 5.508C87.5644 5.964 87.2404 6.57 87.0844 7.326H92.6824Z"/>
<path d="M94.9092 3.708H96.5472L99.3912 11.088H99.4272L102.307 3.708H103.909L100.165 12.888H98.6172L94.9092 3.708Z"/>
</svg>
