<svg xmlns="http://www.w3.org/2000/svg" version="1" viewBox="0 0 512 512"><path d="M122.9 112.3c-6.9 2.9-10.7 5.5-14.9 10.4-7.8 8.8-10.8 22.5-7.5 33.9 3.4 12.1 4.1 12.7 57.5 55.2 27.2 21.7 49.9 39.8 50.3 40.2.4.4-20.9 18.1-47.5 39.3-26.6 21.2-50 40.2-52 42.4-2 2.1-5 6.5-6.5 9.8-2.4 5.2-2.8 7.2-2.8 15 0 7.7.4 9.8 2.7 14.7 9.2 19.7 32.1 27.9 50.7 18.3 5-2.6 133.4-104.5 141.5-112.3 13.5-13 14.9-36.1 3.1-50-5.1-5.8-139.2-112.6-145.7-115.9-4.3-2.2-6.9-2.8-14.3-3-7.7-.3-9.8 0-14.6 2zm213.6 209.4l-56 .3-42 33.6c-23.1 18.4-42.9 34.3-43.9 35.4-1.6 1.6-1.7 2.1-.6 3.5s12 1.5 107.9 1.3l106.6-.3 6.7-3.3c24.4-12 28.9-43.5 8.7-61.6-6.6-5.9-14.3-8.8-23.9-9-4.1-.1-32.7-.1-63.5.1z"/></svg>