<svg enable-background="new 0 0 192 192" height="48" viewBox="0 0 192 192" width="48" xmlns="http://www.w3.org/2000/svg"><path d="m96 0c-52.99 0-96 43.01-96 96s43.01 96 96 96 96-43.01 96-96-43.01-96-96-96z" fill="#e0e0e0"/><path d="m96 85.09c13.28 0 24-10.72 24-24s-10.72-24-24-24-24 10.72-24 24 10.72 24 24 24z" fill="#bdbdbd"/><path d="m96 99.27c-29.33 0-52.36 14.18-52.36 27.27 11.09 17.06 30.51 28.36 52.36 28.36s41.27-11.3 52.36-28.36c0-13.09-23.03-27.27-52.36-27.27z" fill="#bdbdbd"/><path d="m0 0h192v192h-192z" fill="none"/></svg>