<svg width="360" height="144" viewBox="0 0 360 144" fill="none" xmlns="http://www.w3.org/2000/svg">
<g clip-path="url(#clip0_815:569)">
<g clip-path="url(#clip1_815:569)">
<circle cx="212.625" cy="25.25" r="22.5" fill="#FFDDFF" fill-opacity="0.16"/>
<circle cx="212.625" cy="164.75" r="22.5" fill="#FFDDFF" fill-opacity="0.24"/>
<ellipse cx="338.625" cy="164.75" rx="22.5" ry="22.5" fill="#DDEEDD" fill-opacity="0.16"/>
<circle cx="86.625" cy="25.25" r="22.5" fill="#FFDDFF" fill-opacity="0.24"/>
<path fill-rule="evenodd" clip-rule="evenodd" d="M89.4284 17.6606L89.0348 18.5568C88.2489 18.4371 87.4441 18.375 86.6248 18.375C82.2411 18.375 78.2723 20.1519 75.3995 23.0247L74.6924 22.3176C77.7462 19.2638 81.9649 17.375 86.6248 17.375C87.5879 17.375 88.5321 17.4557 89.4511 17.6106C89.4434 17.6271 89.4358 17.6437 89.4284 17.6606ZM86.6248 21.875C86.9402 21.875 87.2528 21.8868 87.5622 21.91L87.1335 22.8862C86.9648 22.8788 86.7953 22.875 86.6248 22.875C83.4837 22.875 80.6399 24.1482 78.5815 26.2067L77.8744 25.4996C80.1138 23.2601 83.2075 21.875 86.6248 21.875ZM91.8381 23.0234L91.6529 24.0438C92.775 24.5976 93.7926 25.3311 94.6681 26.2067L95.3753 25.4996C94.3564 24.4807 93.1607 23.6386 91.8381 23.0234ZM81.0563 28.6815C82.2472 27.4907 83.8176 26.6795 85.5705 26.445L85.0862 27.5478C83.8054 27.8406 82.6609 28.4912 81.7634 29.3886L81.0563 28.6815ZM90.99 27.6946L90.7926 28.7819C91.0372 28.9686 91.2689 29.1714 91.4862 29.3886L92.1933 28.6815C91.8263 28.3146 91.4233 27.9837 90.99 27.6946ZM92.6338 18.6406L92.4797 19.4896C94.5088 20.2951 96.3324 21.507 97.8501 23.0247L98.5572 22.3176C96.896 20.6564 94.8901 19.3399 92.656 18.4847C92.6508 18.5358 92.6434 18.5878 92.6338 18.6406ZM87.8202 32.928C87.6184 33.5882 86.9195 33.9597 86.2594 33.7579C85.5992 33.556 85.2276 32.8572 85.4294 32.197L85.5768 31.7152L89.8786 21.9199L87.9675 32.4461L87.8202 32.928ZM88.963 21.5178L84.6376 31.3668L84.4731 31.9047C84.1098 33.093 84.7786 34.3509 85.967 34.7142C87.1553 35.0775 88.4132 34.4087 88.7765 33.2203L88.941 32.6824L90.8625 22.0985C91.0743 20.9319 89.4398 20.4322 88.963 21.5178Z" fill="#9933FF"/>
<circle cx="86.625" cy="164.75" r="22.5" fill="#FFDDFF" fill-opacity="0.32"/>
<circle cx="149.625" cy="47.75" r="22.5" fill="#DDEEDD" fill-opacity="0.32"/>
<path d="M144.625 41C144.625 41.9614 143.836 42.75 142.875 42.75C141.914 42.75 141.125 41.9614 141.125 41C141.125 40.0386 141.914 39.25 142.875 39.25C143.836 39.25 144.625 40.0386 144.625 41ZM151.375 54.5C151.375 55.4614 150.586 56.25 149.625 56.25C148.664 56.25 147.875 55.4614 147.875 54.5C147.875 53.5386 148.664 52.75 149.625 52.75C150.586 52.75 151.375 53.5386 151.375 54.5ZM144.625 54.5C144.625 55.4614 143.836 56.25 142.875 56.25C141.914 56.25 141.125 55.4614 141.125 54.5C141.125 53.5386 141.914 52.75 142.875 52.75C143.836 52.75 144.625 53.5386 144.625 54.5ZM144.625 47.75C144.625 48.7114 143.836 49.5 142.875 49.5C141.914 49.5 141.125 48.7114 141.125 47.75C141.125 46.7886 141.914 46 142.875 46C143.836 46 144.625 46.7886 144.625 47.75ZM151.375 47.75C151.375 48.7114 150.586 49.5 149.625 49.5C148.664 49.5 147.875 48.7114 147.875 47.75C147.875 46.7886 148.664 46 149.625 46C150.586 46 151.375 46.7886 151.375 47.75ZM156.375 42.75C155.414 42.75 154.625 41.9614 154.625 41C154.625 40.0386 155.414 39.25 156.375 39.25C157.336 39.25 158.125 40.0386 158.125 41C158.125 41.9614 157.336 42.75 156.375 42.75ZM151.375 41C151.375 41.9614 150.586 42.75 149.625 42.75C148.664 42.75 147.875 41.9614 147.875 41C147.875 40.0386 148.664 39.25 149.625 39.25C150.586 39.25 151.375 40.0386 151.375 41ZM158.125 47.75C158.125 48.7114 157.336 49.5 156.375 49.5C155.414 49.5 154.625 48.7114 154.625 47.75C154.625 46.7886 155.414 46 156.375 46C157.336 46 158.125 46.7886 158.125 47.75ZM158.125 54.5C158.125 55.4614 157.336 56.25 156.375 56.25C155.414 56.25 154.625 55.4614 154.625 54.5C154.625 53.5386 155.414 52.75 156.375 52.75C157.336 52.75 158.125 53.5386 158.125 54.5Z" stroke="#33CC00"/>
<circle cx="275.625" cy="47.75" r="22.5" fill="#FFDDFF" fill-opacity="0.24"/>
<path d="M274.667 37.7162C274.667 37.0445 275.212 36.5 275.883 36.5C276.555 36.5 277.099 37.0445 277.099 37.7162" stroke="#9933FF"/>
<path d="M273.528 55.9594C273.478 56.1538 273.451 56.3576 273.451 56.5676C273.451 57.9109 274.54 59 275.884 59C277.227 59 278.316 57.9109 278.316 56.5676C278.316 56.3576 278.289 56.1538 278.239 55.9594" stroke="#9933FF"/>
<path d="M268.586 45.0135C268.586 40.9833 271.853 37.7162 275.883 37.7162V37.7162C279.914 37.7162 283.181 40.9833 283.181 45.0135V51.175C283.181 51.4374 283.273 51.6915 283.441 51.893L286.829 55.9595H264.938L268.326 51.893C268.494 51.6915 268.586 51.4374 268.586 51.175V45.0135Z" stroke="#9933FF" stroke-linecap="round" stroke-linejoin="round"/>
<ellipse cx="338.625" cy="25.25" rx="22.5" ry="22.5" fill="#DDEEDD" fill-opacity="0.32"/>
<path fill-rule="evenodd" clip-rule="evenodd" d="M333.875 13.875H343.375C343.927 13.875 344.375 14.3227 344.375 14.875V16.25H332.875V14.875C332.875 14.3227 333.323 13.875 333.875 13.875ZM332.875 17.25V33.25H344.375V17.25H332.875ZM344.375 34.25H332.875V35.625C332.875 36.1773 333.323 36.625 333.875 36.625H343.375C343.927 36.625 344.375 36.1773 344.375 35.625V34.25ZM331.875 34.25V33.25V17.25V16.25V14.875C331.875 13.7704 332.77 12.875 333.875 12.875H343.375C344.48 12.875 345.375 13.7704 345.375 14.875V16.25V17.25V33.25V34.25V35.625C345.375 36.7296 344.48 37.625 343.375 37.625H333.875C332.77 37.625 331.875 36.7296 331.875 35.625V34.25Z" fill="#33CC00"/>
<circle cx="275.625" cy="115.25" r="22.5" fill="#DDEEDD" fill-opacity="0.24"/>
<path fill-rule="evenodd" clip-rule="evenodd" d="M267.5 107.25H283.75C284.302 107.25 284.75 107.698 284.75 108.25V120C284.75 120.552 284.302 121 283.75 121H267.5C266.948 121 266.5 120.552 266.5 120V108.25C266.5 107.698 266.948 107.25 267.5 107.25ZM265.5 108.25C265.5 107.145 266.395 106.25 267.5 106.25H283.75C284.855 106.25 285.75 107.145 285.75 108.25V120C285.75 121.105 284.855 122 283.75 122H267.5C266.395 122 265.5 121.105 265.5 120V108.25ZM288 123.125H263.25V124.25H288V123.125Z" fill="#33CC00"/>
<ellipse cx="338.625" cy="92.75" rx="22.5" ry="22.5" fill="#FFDDFF" fill-opacity="0.24"/>
<g clip-path="url(#clip2_815:569)">
<path fill-rule="evenodd" clip-rule="evenodd" d="M338.625 82.625H329.5C328.948 82.625 328.5 83.0727 328.5 83.625V98.5C328.5 99.0523 328.948 99.5 329.5 99.5H333.562H338.625H343.687H347.75C348.302 99.5 348.75 99.0523 348.75 98.5V93.875H347.75V98.5H343.687H338.625H333.562H329.5V83.625H338.625V82.625Z" fill="#9933FF"/>
<path d="M334.125 98.9375L332.438 100.625V102.312H344.812V100.625L343.125 98.9375" stroke="#9933FF"/>
<path d="M343.687 82.625V93.875M343.687 93.875L348.75 88.8125M343.687 93.875L338.625 88.8125" stroke="#9933FF"/>
</g>
</g>
</g>
<defs>
<clipPath id="clip0_815:569">
<rect width="360" height="144" fill="white"/>
</clipPath>
<clipPath id="clip1_815:569">
<rect width="360" height="360" fill="white" transform="translate(0 -76)"/>
</clipPath>
<clipPath id="clip2_815:569">
<rect width="22.5" height="22.5" fill="white" transform="translate(327.375 81.5)"/>
</clipPath>
</defs>
</svg>
