<svg width="320" height="160" viewBox="0 0 320 160" fill="none" xmlns="http://www.w3.org/2000/svg">
<g clip-path="url(#clip0_2212_59198)">
<g clip-path="url(#clip1_2212_59198)">
<path d="M0 0H320V160H0V0Z" fill="#303136"/>
<path opacity="0.1" d="M188.411 27.8754C199.423 27.8754 208.349 18.949 208.349 7.93769C208.349 -3.07359 199.423 -12 188.411 -12C177.4 -12 168.474 -3.07359 168.474 7.93769C168.474 18.949 177.4 27.8754 188.411 27.8754Z" fill="#FFDDFF" fill-opacity="0.16"/>
<path opacity="0.1" d="M188.411 151.489C199.423 151.489 208.349 142.563 208.349 131.551C208.349 120.54 199.423 111.614 188.411 111.614C177.4 111.614 168.474 120.54 168.474 131.551C168.474 142.563 177.4 151.489 188.411 151.489Z" fill="#FFDDFF" fill-opacity="0.24"/>
<path opacity="0.1" d="M300.062 151.489C311.074 151.489 320 142.563 320 131.551C320 120.54 311.074 111.614 300.062 111.614C289.051 111.614 280.125 120.54 280.125 131.551C280.125 142.563 289.051 151.489 300.062 151.489Z" fill="#DDEEDD" fill-opacity="0.16"/>
<path opacity="0.1" d="M132.586 171.427C143.597 171.427 152.523 162.5 152.523 151.489C152.523 140.478 143.597 131.552 132.586 131.552C121.574 131.552 112.648 140.478 112.648 151.489C112.648 162.5 121.574 171.427 132.586 171.427Z" fill="#DDEEDD" fill-opacity="0.16"/>
<path opacity="0.1" d="M76.7602 27.8754C87.7715 27.8754 96.6979 18.949 96.6979 7.93769C96.6979 -3.07359 87.7715 -12 76.7602 -12C65.7489 -12 56.8225 -3.07359 56.8225 7.93769C56.8225 18.949 65.7489 27.8754 76.7602 27.8754Z" fill="#FFDDFF" fill-opacity="0.24"/>
<path fill-rule="evenodd" clip-rule="evenodd" d="M79.2523 1.21379L78.8585 2.11099C76.696 1.78641 74.4874 1.97307 72.41 2.65603C70.3325 3.33898 68.4441 4.49922 66.8959 6.0437L66.1931 5.3409C67.8794 3.6545 69.9447 2.3959 72.2164 1.67015C74.4882 0.944395 76.9006 0.772543 79.2523 1.16893C79.2542 1.18383 79.2542 1.1989 79.2523 1.21379ZM76.7601 4.94713C77.0392 4.94713 77.3183 4.94713 77.5925 4.97703L77.1638 5.97392C75.7877 5.91484 74.4143 6.14318 73.1313 6.64436C71.8483 7.14555 70.6838 7.90858 69.7121 8.88482L69.0043 8.17703C70.0202 7.15373 71.2284 6.34153 72.5595 5.78719C73.8906 5.23286 75.3182 4.94736 76.7601 4.94713ZM81.3807 5.94401L81.1962 6.9409C82.1639 7.42208 83.0462 8.05854 83.8081 8.82501L84.5159 8.11722C83.6043 7.21694 82.5436 6.48163 81.3807 5.94401ZM71.8255 10.9783C72.9009 9.89555 74.3016 9.19521 75.8131 8.98451L75.3146 10.0911C74.2512 10.3521 73.2792 10.8984 72.5034 11.6711L71.8255 10.9783ZM80.628 10.106L80.4286 11.1876C80.6256 11.343 80.8137 11.5094 80.9919 11.6861L81.6947 10.9833C81.3693 10.6559 81.012 10.362 80.628 10.106ZM82.0835 2.08108L81.9289 2.95336C83.6896 3.65759 85.2888 4.71238 86.6293 6.05367L87.3321 5.35087C85.8478 3.86358 84.066 2.70684 82.1034 1.95647C82.1058 2.00296 82.1058 2.04955 82.1034 2.09604L82.0835 2.08108ZM77.7121 14.7066C77.6795 14.8372 77.6207 14.9599 77.5394 15.0672C77.458 15.1745 77.3558 15.2642 77.2388 15.3309C77.1219 15.3976 76.9926 15.4399 76.8589 15.4553C76.7251 15.4706 76.5896 15.4588 76.4606 15.4204C76.3315 15.382 76.2116 15.3178 76.1081 15.2318C76.0045 15.1458 75.9194 15.0397 75.858 14.9199C75.7965 14.8001 75.76 14.6691 75.7505 14.5347C75.7411 14.4004 75.759 14.2656 75.8031 14.1384L75.9327 13.7197L79.362 5.90912L77.8367 14.3029L77.7071 14.7216L77.7121 14.7066ZM80.1595 1.61255L75.0006 13.3558L74.856 13.8543C74.7621 14.1069 74.7203 14.3759 74.7333 14.6451C74.7462 14.9143 74.8136 15.1781 74.9314 15.4205C75.0491 15.663 75.2148 15.879 75.4184 16.0556C75.622 16.2322 75.8593 16.3656 76.116 16.4479C76.3726 16.5302 76.6433 16.5596 76.9116 16.5344C77.18 16.5091 77.4404 16.4297 77.6772 16.3009C77.9139 16.1722 78.1221 15.9968 78.2892 15.7853C78.4563 15.5738 78.5787 15.3306 78.6492 15.0705C78.6514 15.0539 78.6514 15.0372 78.6492 15.0206L78.7987 14.5222L81.0866 1.90164C81.0949 1.78933 81.065 1.67748 81.0017 1.58434C80.9384 1.4912 80.8454 1.42224 80.7379 1.38871C80.6304 1.35518 80.5147 1.35906 80.4096 1.39971C80.3046 1.44035 80.2164 1.51538 80.1595 1.61255Z" fill="#9933FF"/>
<path opacity="0.1" d="M76.7602 151.489C87.7715 151.489 96.6979 142.563 96.6979 131.551C96.6979 120.54 87.7715 111.614 76.7602 111.614C65.7489 111.614 56.8225 120.54 56.8225 131.551C56.8225 142.563 65.7489 151.489 76.7602 151.489Z" fill="#FFDDFF" fill-opacity="0.32"/>
<path fill-rule="evenodd" clip-rule="evenodd" d="M84.2369 138.53C85.2715 136.98 85.7981 135.147 85.7437 133.285C85.6892 131.422 85.0563 129.623 83.9328 128.137L84.516 127.26C85.915 128.987 86.6964 131.133 86.7362 133.355C86.7759 135.578 86.0716 137.75 84.7353 139.526H68.7852C67.3226 137.58 66.6226 135.166 66.8174 132.74C67.0121 130.313 68.088 128.042 69.8421 126.354C71.5963 124.666 73.9074 123.678 76.3397 123.577C78.772 123.476 81.1572 124.268 83.0456 125.804L82.1683 126.388C80.4776 125.098 78.3839 124.451 76.2606 124.562C74.1372 124.673 72.1222 125.534 70.5748 126.992C69.0274 128.451 68.0482 130.411 67.8117 132.524C67.5752 134.637 68.0968 136.765 69.2836 138.53H84.2369ZM77.5428 134.178C77.4606 134.283 77.3583 134.37 77.2419 134.435C77.1255 134.499 76.9973 134.54 76.8649 134.554C76.7326 134.568 76.5987 134.556 76.4712 134.518C76.3438 134.479 76.2252 134.416 76.1227 134.331C76.0202 134.246 75.9357 134.141 75.8742 134.023C75.8127 133.905 75.7755 133.776 75.7648 133.643C75.7541 133.511 75.77 133.377 75.8117 133.251C75.8534 133.124 75.92 133.007 76.0076 132.907C76.0487 132.86 76.0937 132.817 76.1422 132.778L80.2892 130.031L77.5428 134.178ZM81.6998 127.903L75.554 131.97C75.1364 132.294 74.8646 132.771 74.7982 133.295C74.7319 133.819 74.8764 134.349 75.2001 134.766C75.2508 134.833 75.3057 134.896 75.3646 134.956C75.7384 135.329 76.2447 135.538 76.7727 135.538C77.3006 135.538 77.807 135.329 78.1808 134.956C78.2424 134.897 78.2991 134.834 78.3503 134.766L82.4176 128.621L83.8232 126.497L81.6998 127.903Z" fill="#9933FF"/>
<path opacity="0.1" d="M132.586 47.8131C143.597 47.8131 152.523 38.8867 152.523 27.8754C152.523 16.8642 143.597 7.93774 132.586 7.93774C121.574 7.93774 112.648 16.8642 112.648 27.8754C112.648 38.8867 121.574 47.8131 132.586 47.8131Z" fill="#DDEEDD" fill-opacity="0.32"/>
<path d="M128.1 21.894C128.1 22.1898 128.012 22.4789 127.848 22.7248C127.683 22.9707 127.45 23.1623 127.177 23.2755C126.903 23.3887 126.603 23.4183 126.313 23.3606C126.023 23.3029 125.756 23.1605 125.547 22.9514C125.338 22.7422 125.196 22.4758 125.138 22.1857C125.08 21.8957 125.11 21.595 125.223 21.3218C125.336 21.0485 125.528 20.815 125.774 20.6507C126.02 20.4864 126.309 20.3987 126.604 20.3987C127.001 20.3987 127.381 20.5562 127.662 20.8367C127.942 21.1171 128.1 21.4974 128.1 21.894V21.894ZM134.081 33.8566C134.081 34.1524 133.993 34.4415 133.829 34.6874C133.665 34.9333 133.431 35.1249 133.158 35.2381C132.885 35.3513 132.584 35.3809 132.294 35.3232C132.004 35.2655 131.738 35.1231 131.528 34.914C131.319 34.7049 131.177 34.4384 131.119 34.1484C131.061 33.8583 131.091 33.5576 131.204 33.2844C131.317 33.0112 131.509 32.7776 131.755 32.6133C132.001 32.449 132.29 32.3613 132.586 32.3613C132.982 32.3613 133.363 32.5188 133.643 32.7993C133.924 33.0797 134.081 33.46 134.081 33.8566ZM128.1 33.8566C128.1 34.1524 128.012 34.4415 127.848 34.6874C127.683 34.9333 127.45 35.1249 127.177 35.2381C126.903 35.3513 126.603 35.3809 126.313 35.3232C126.023 35.2655 125.756 35.1231 125.547 34.914C125.338 34.7049 125.196 34.4384 125.138 34.1484C125.08 33.8583 125.11 33.5576 125.223 33.2844C125.336 33.0112 125.528 32.7776 125.774 32.6133C126.02 32.449 126.309 32.3613 126.604 32.3613C127.001 32.3613 127.381 32.5188 127.662 32.7993C127.942 33.0797 128.1 33.46 128.1 33.8566V33.8566ZM128.1 27.8753C128.1 28.1711 128.012 28.4602 127.848 28.7061C127.683 28.952 127.45 29.1436 127.177 29.2568C126.903 29.37 126.603 29.3996 126.313 29.3419C126.023 29.2842 125.756 29.1418 125.547 28.9327C125.338 28.7235 125.196 28.4571 125.138 28.167C125.08 27.877 125.11 27.5763 125.223 27.3031C125.336 27.0298 125.528 26.7963 125.774 26.632C126.02 26.4677 126.309 26.38 126.604 26.38C127.001 26.38 127.381 26.5375 127.662 26.818C127.942 27.0984 128.1 27.4787 128.1 27.8753V27.8753ZM134.081 27.8753C134.081 28.1711 133.993 28.4602 133.829 28.7061C133.665 28.952 133.431 29.1436 133.158 29.2568C132.885 29.37 132.584 29.3996 132.294 29.3419C132.004 29.2842 131.738 29.1418 131.528 28.9327C131.319 28.7235 131.177 28.4571 131.119 28.167C131.061 27.877 131.091 27.5763 131.204 27.3031C131.317 27.0298 131.509 26.7963 131.755 26.632C132.001 26.4677 132.29 26.38 132.586 26.38C132.982 26.38 133.363 26.5375 133.643 26.818C133.924 27.0984 134.081 27.4787 134.081 27.8753ZM138.567 23.3893C138.271 23.3893 137.982 23.3016 137.736 23.1373C137.49 22.973 137.299 22.7395 137.186 22.4662C137.072 22.193 137.043 21.8924 137.1 21.6023C137.158 21.3122 137.301 21.0458 137.51 20.8367C137.719 20.6275 137.985 20.4851 138.275 20.4274C138.565 20.3697 138.866 20.3993 139.139 20.5125C139.413 20.6257 139.646 20.8173 139.81 21.0633C139.975 21.3092 140.062 21.5983 140.062 21.894C140.062 22.2906 139.905 22.6709 139.624 22.9514C139.344 23.2318 138.964 23.3893 138.567 23.3893ZM134.081 21.894C134.081 22.1898 133.993 22.4789 133.829 22.7248C133.665 22.9707 133.431 23.1623 133.158 23.2755C132.885 23.3887 132.584 23.4183 132.294 23.3606C132.004 23.3029 131.738 23.1605 131.528 22.9514C131.319 22.7422 131.177 22.4758 131.119 22.1857C131.061 21.8957 131.091 21.595 131.204 21.3218C131.317 21.0485 131.509 20.815 131.755 20.6507C132.001 20.4864 132.29 20.3987 132.586 20.3987C132.982 20.3987 133.363 20.5562 133.643 20.8367C133.924 21.1171 134.081 21.4974 134.081 21.894ZM140.062 27.8753C140.062 28.1711 139.975 28.4602 139.81 28.7061C139.646 28.952 139.413 29.1436 139.139 29.2568C138.866 29.37 138.565 29.3996 138.275 29.3419C137.985 29.2842 137.719 29.1418 137.51 28.9327C137.301 28.7235 137.158 28.4571 137.1 28.167C137.043 27.877 137.072 27.5763 137.186 27.3031C137.299 27.0298 137.49 26.7963 137.736 26.632C137.982 26.4677 138.271 26.38 138.567 26.38C138.964 26.38 139.344 26.5375 139.624 26.818C139.905 27.0984 140.062 27.4787 140.062 27.8753ZM140.062 33.8566C140.062 34.1524 139.975 34.4415 139.81 34.6874C139.646 34.9333 139.413 35.1249 139.139 35.2381C138.866 35.3513 138.565 35.3809 138.275 35.3232C137.985 35.2655 137.719 35.1231 137.51 34.914C137.301 34.7049 137.158 34.4384 137.1 34.1484C137.043 33.8583 137.072 33.5576 137.186 33.2844C137.299 33.0112 137.49 32.7776 137.736 32.6133C137.982 32.449 138.271 32.3613 138.567 32.3613C138.964 32.3613 139.344 32.5188 139.624 32.7993C139.905 33.0797 140.062 33.46 140.062 33.8566Z" stroke="#33CC00" stroke-width="2"/>
<path opacity="0.1" d="M244.237 47.8131C255.248 47.8131 264.174 38.8867 264.174 27.8754C264.174 16.8642 255.248 7.93774 244.237 7.93774C233.225 7.93774 224.299 16.8642 224.299 27.8754C224.299 38.8867 233.225 47.8131 244.237 47.8131Z" fill="#FFDDFF" fill-opacity="0.24"/>
<path d="M243.389 18.9831C243.389 18.6976 243.503 18.4237 243.705 18.2218C243.907 18.0199 244.181 17.9065 244.466 17.9065C244.752 17.9065 245.026 18.0199 245.227 18.2218C245.429 18.4237 245.543 18.6976 245.543 18.9831M242.378 35.1476C242.294 35.4668 242.286 35.8007 242.352 36.1239C242.418 36.447 242.557 36.7507 242.758 37.0117C242.96 37.2726 243.219 37.4839 243.515 37.6293C243.811 37.7747 244.136 37.8502 244.466 37.8502C244.796 37.8502 245.121 37.7747 245.417 37.6293C245.713 37.4839 245.972 37.2726 246.174 37.0117C246.376 36.7507 246.515 36.447 246.581 36.1239C246.647 35.8007 246.638 35.4668 246.555 35.1476" stroke="#9933FF" stroke-width="2"/>
<path d="M238.001 25.448C238.001 23.7295 238.684 22.0813 239.899 20.8661C241.114 19.6509 242.762 18.9683 244.481 18.9683C246.2 18.9683 247.848 19.6509 249.063 20.8661C250.278 22.0813 250.961 23.7295 250.961 25.448V30.9309C250.96 31.1638 251.041 31.3895 251.19 31.5689L254.181 35.1726H234.766L237.757 31.5689C237.907 31.3902 237.99 31.1644 237.991 30.9309L238.001 25.448Z" stroke="#9933FF" stroke-width="2" stroke-linecap="round" stroke-linejoin="round"/>
<path opacity="0.1" d="M244.237 171.427C255.248 171.427 264.174 162.5 264.174 151.489C264.174 140.478 255.248 131.552 244.237 131.552C233.225 131.552 224.299 140.478 224.299 151.489C224.299 162.5 233.225 171.427 244.237 171.427Z" fill="#DDEEDD" fill-opacity="0.32"/>
<path fill-rule="evenodd" clip-rule="evenodd" d="M236.262 142.517H244.237V143.514H236.262V159.464H252.212V151.489H253.209V159.464C253.209 159.729 253.104 159.982 252.917 160.169C252.73 160.356 252.476 160.461 252.212 160.461H236.262C235.997 160.461 235.744 160.356 235.557 160.169C235.37 159.982 235.265 159.729 235.265 159.464V143.514C235.265 143.25 235.37 142.996 235.557 142.809C235.744 142.622 235.997 142.517 236.262 142.517ZM252.71 142.517H246.231V143.514H251.509L240.394 154.624L241.102 155.332L252.212 144.217V149.495H253.209V142.517H252.71Z" fill="#33CC00"/>
<path opacity="0.1" d="M300.062 27.8754C311.074 27.8754 320 18.949 320 7.93769C320 -3.07359 311.074 -12 300.062 -12C289.051 -12 280.125 -3.07359 280.125 7.93769C280.125 18.949 289.051 27.8754 300.062 27.8754Z" fill="#DDEEDD" fill-opacity="0.32"/>
<path fill-rule="evenodd" clip-rule="evenodd" d="M295.078 -2.03119H305.047V-0.0374222H295.078V-2.03119ZM295.078 0.959463V14.9158H305.047V0.959463H295.078ZM305.047 15.9127H295.078V17.9065H305.047V15.9127ZM294.081 15.9127V-2.03119C294.081 -2.29558 294.186 -2.54914 294.373 -2.7361C294.56 -2.92305 294.814 -3.02808 295.078 -3.02808H305.047C305.311 -3.02808 305.565 -2.92305 305.752 -2.7361C305.939 -2.54914 306.044 -2.29558 306.044 -2.03119V17.9065C306.044 18.1709 305.939 18.4245 305.752 18.6114C305.565 18.7984 305.311 18.9034 305.047 18.9034H295.078C294.814 18.9034 294.56 18.7984 294.373 18.6114C294.186 18.4245 294.081 18.1709 294.081 17.9065V15.9127Z" fill="#33CC00"/>
<path opacity="0.1" d="M244.237 107.626C255.248 107.626 264.174 98.6997 264.174 87.6884C264.174 76.6771 255.248 67.7507 244.237 67.7507C233.225 67.7507 224.299 76.6771 224.299 87.6884C224.299 98.6997 233.225 107.626 244.237 107.626Z" fill="#DDEEDD" fill-opacity="0.24"/>
<path fill-rule="evenodd" clip-rule="evenodd" d="M236.262 80.7103H252.212V92.6729H236.262V80.7103ZM235.265 80.7103C235.265 80.4459 235.37 80.1923 235.557 80.0054C235.744 79.8184 235.997 79.7134 236.262 79.7134H252.212C252.476 79.7134 252.73 79.8184 252.917 80.0054C253.104 80.1923 253.209 80.4459 253.209 80.7103V92.6729C253.209 92.9373 253.104 93.1908 252.917 93.3778C252.73 93.5647 252.476 93.6698 252.212 93.6698H236.262C235.997 93.6698 235.744 93.5647 235.557 93.3778C235.37 93.1908 235.265 92.9373 235.265 92.6729V80.7103ZM255.202 94.6666H233.271V95.6635H255.202V94.6666Z" fill="#33CC00"/>
<path opacity="0.1" d="M300.062 87.6884C311.074 87.6884 320 78.762 320 67.7507C320 56.7394 311.074 47.813 300.062 47.813C289.051 47.813 280.125 56.7394 280.125 67.7507C280.125 78.762 289.051 87.6884 300.062 87.6884Z" fill="#FFDDFF" fill-opacity="0.24"/>
<path fill-rule="evenodd" clip-rule="evenodd" d="M300.062 58.7788H292.087C291.823 58.7788 291.569 58.8838 291.382 59.0708C291.195 59.2577 291.09 59.5113 291.09 59.7757V72.7352C291.09 72.9996 291.195 73.2531 291.382 73.4401C291.569 73.6271 291.823 73.7321 292.087 73.7321H308.037C308.302 73.7321 308.555 73.6271 308.742 73.4401C308.929 73.2531 309.034 72.9996 309.034 72.7352V68.7477H308.037V72.7352H292.087V59.7757H300.062V58.7788Z" fill="#9933FF"/>
<path d="M296.075 73.2336L294.58 74.729V76.2243H305.545V74.729L304.05 73.2336M304.548 58.7788V68.7477M304.548 68.7477L309.034 64.2617M304.548 68.7477L300.062 64.2617" stroke="#9933FF" stroke-width="2"/>
<path d="M11.9626 67.7507H15.0131V84.3389H23.377V87.2548H11.9626V67.7507ZM31.7807 87.6884C30.5215 87.7055 29.2807 87.3854 28.1869 86.7613C27.1362 86.153 26.2738 85.2665 25.6947 84.1993C25.1145 83.0723 24.8073 81.8248 24.7978 80.5573C24.7882 79.2897 25.0767 78.0377 25.6399 76.9021C26.1952 75.8248 27.0346 74.9199 28.0673 74.2853C29.126 73.6183 30.3551 73.2721 31.6063 73.2884C32.8474 73.2576 34.0732 73.5679 35.1502 74.1856C36.1515 74.7682 36.9567 75.6358 37.463 76.6778C38.0086 77.8152 38.2784 79.0652 38.2505 80.3264C38.2527 80.4929 38.2444 80.6594 38.2256 80.8249C38.2256 80.9894 38.2256 81.0791 38.2256 81.099H27.8031C27.8151 81.6425 27.9401 82.1775 28.1701 82.6701C28.4 83.1626 28.73 83.602 29.139 83.9601C29.8946 84.6125 30.8622 84.9669 31.8605 84.957C32.6047 84.9701 33.3374 84.7725 33.9741 84.3871C34.6109 84.0017 35.1257 83.4442 35.4592 82.7788L38.0162 84.0049C37.4335 85.0968 36.574 86.0164 35.524 86.6716C34.3974 87.3575 33.0995 87.7101 31.7807 87.6884ZM35.21 78.8361C35.1636 78.3647 35.0157 77.909 34.7764 77.5003C34.4905 77.0167 34.0765 76.6217 33.5801 76.3588C32.9759 76.0077 32.2847 75.8348 31.5863 75.8604C30.7402 75.8427 29.9164 76.1333 29.2686 76.6778C28.6226 77.2446 28.1667 77.9963 27.9626 78.8311L35.21 78.8361ZM45.3035 87.6884C44.3986 87.7019 43.503 87.5057 42.6866 87.1152C41.9506 86.7364 41.3255 86.1731 40.8723 85.4803C40.4315 84.7593 40.205 83.9278 40.2193 83.0828C40.1877 82.4359 40.3142 81.791 40.5877 81.2039C40.8613 80.6168 41.2738 80.1052 41.7894 79.7133C42.9714 78.8663 44.404 78.4414 45.8567 78.5071C47.1227 78.4737 48.38 78.7258 49.5352 79.2448V78.6716C49.5352 78.2847 49.4451 77.9031 49.2721 77.5571C49.0991 77.211 48.8479 76.91 48.5383 76.6778C47.8921 76.1304 47.0673 75.8395 46.2206 75.8604C45.5706 75.8453 44.9271 75.9918 44.3477 76.2867C43.7683 76.5816 43.2712 77.0157 42.901 77.5501L40.6131 75.97C41.2302 75.132 42.043 74.4577 42.9807 74.0062C43.9968 73.5421 45.1037 73.3105 46.2206 73.3283C48.2144 73.3283 49.7396 73.8267 50.7963 74.8236C51.853 75.8205 52.398 77.2095 52.4312 78.9906V87.2747H49.5253V85.6099H49.3458C48.9069 86.232 48.3391 86.7523 47.681 87.1352C46.948 87.5337 46.1226 87.7314 45.2885 87.7084L45.3035 87.6884ZM45.8019 85.1962C46.4535 85.1996 47.094 85.0274 47.6561 84.6978C48.2133 84.3743 48.681 83.9168 49.0168 83.3669C49.3474 82.8253 49.5201 82.2021 49.5153 81.5676C48.5725 81.0459 47.5124 80.7732 46.4349 80.775C45.6024 80.7262 44.7776 80.9578 44.0922 81.433C43.8274 81.6202 43.6123 81.8693 43.4655 82.1586C43.3187 82.4478 43.2447 82.7685 43.2499 83.0928C43.2446 83.3865 43.3082 83.6775 43.4354 83.9423C43.5626 84.2071 43.75 84.4385 43.9826 84.618C44.505 85.0059 45.1414 85.2093 45.7919 85.1962H45.8019ZM55.6112 73.732H58.4424V75.7258H58.6069C58.931 74.995 59.4861 74.3908 60.1869 74.0062C60.886 73.5553 61.6978 73.31 62.5296 73.2984C63.0778 73.2784 63.6242 73.3717 64.1346 73.5725V76.7227C63.4911 76.4077 62.7824 76.2489 62.0661 76.2591C61.5914 76.2518 61.1211 76.3509 60.6898 76.5493C60.2585 76.7477 59.8771 77.0403 59.5739 77.4056C58.9075 78.1647 58.5515 79.1471 58.577 80.157V87.2398H55.5863V73.732H55.6112ZM66.3278 73.732H69.1639V75.5314H69.3284C69.7555 74.8502 70.3558 74.2946 71.0679 73.9215C71.8323 73.5055 72.69 73.2911 73.5602 73.2984C75.2216 73.2984 76.4827 73.7885 77.3433 74.7688C78.204 75.7491 78.6393 77.1015 78.6492 78.8261V87.2448H75.6586V79.2448C75.6586 77.1214 74.6617 76.0598 72.6679 76.0598C72.1969 76.049 71.7302 76.1521 71.3076 76.3604C70.885 76.5687 70.5189 76.8759 70.2405 77.256C69.6198 78.0672 69.2945 79.066 69.3184 80.0872V87.2548H66.3278V73.732Z" fill="white"/>
<path d="M84.6104 87.524V67.7508H91.4041C92.5377 67.7366 93.6573 68.0019 94.6639 68.5234C95.6126 69.0132 96.4129 69.7481 96.9817 70.6517C97.5843 71.5883 97.8932 72.6835 97.8689 73.7969C97.8911 74.9194 97.5825 76.0236 96.9817 76.972C96.4129 77.8756 95.6126 78.6105 94.6639 79.1003C93.6528 79.6067 92.5349 79.8631 91.4041 79.848H87.6509V87.524H84.6104ZM91.4889 70.6218H87.6509V76.972H91.4889C92.1254 76.9928 92.7557 76.8413 93.3132 76.5333C93.7877 76.2417 94.1778 75.831 94.4446 75.3421C94.7132 74.8712 94.8557 74.339 94.8583 73.7969C94.8544 73.2707 94.7117 72.7549 94.4446 72.3016C94.1765 71.8136 93.7867 71.4032 93.3132 71.1103C92.7634 70.7784 92.1309 70.6091 91.4889 70.6218Z" fill="url(#paint0_linear_2212_59198)"/>
<path d="M104.518 87.5239L99.2148 67.7507H102.584L105.729 80.5906L106.063 82.3052H106.228L106.642 80.5906L110.629 67.7507H113.645L117.458 80.5906L117.872 82.2753H118.036L118.37 80.5906L121.525 67.7507H124.87L119.651 87.5239H116.446L112.648 74.4049L112.204 72.5557H112.04L111.571 74.4049L107.663 87.5239H104.518Z" fill="url(#paint1_linear_2212_59198)"/>
<path d="M124.536 87.5239L132.013 67.7507H135.462L142.938 87.5239H139.564L137.745 82.4398H129.7L127.875 87.5239H124.536ZM132.905 73.5676L130.722 79.6137H136.743L134.579 73.5775L133.832 71.3146H133.667L132.925 73.5775L132.905 73.5676Z" fill="url(#paint2_linear_2212_59198)"/>
<path d="M145.75 81.2087L145.475 73.9414V67.7507H148.466V73.9613L148.152 81.2087H145.75ZM146.966 87.6884C146.688 87.6948 146.412 87.6441 146.155 87.5395C145.898 87.4349 145.665 87.2786 145.47 87.0803C145.278 86.8886 145.125 86.6606 145.02 86.4096C144.916 86.1585 144.862 85.8893 144.862 85.6174C144.862 85.3455 144.916 85.0763 145.02 84.8252C145.125 84.5742 145.278 84.3462 145.47 84.1545C145.665 83.9562 145.898 83.7999 146.155 83.6953C146.412 83.5907 146.688 83.54 146.966 83.5464C147.498 83.5725 147.999 83.802 148.366 84.1876C148.733 84.5731 148.938 85.0851 148.938 85.6174C148.938 86.1497 148.733 86.6617 148.366 87.0472C147.999 87.4327 147.498 87.6623 146.966 87.6884Z" fill="url(#paint3_linear_2212_59198)"/>
</g>
</g>
<defs>
<linearGradient id="paint0_linear_2212_59198" x1="82.3375" y1="78.5819" x2="147.673" y2="62.2779" gradientUnits="userSpaceOnUse">
<stop stop-color="#33CC00"/>
<stop offset="0.13" stop-color="#359BFF"/>
<stop offset="0.39" stop-color="#359BFF"/>
<stop offset="0.7" stop-color="#D36DFF"/>
</linearGradient>
<linearGradient id="paint1_linear_2212_59198" x1="83.7083" y1="84.0548" x2="149.039" y2="67.7507" gradientUnits="userSpaceOnUse">
<stop stop-color="#33CC00"/>
<stop offset="0.13" stop-color="#359BFF"/>
<stop offset="0.39" stop-color="#359BFF"/>
<stop offset="0.7" stop-color="#D36DFF"/>
</linearGradient>
<linearGradient id="paint2_linear_2212_59198" x1="85.3484" y1="90.6442" x2="150.679" y2="74.3352" gradientUnits="userSpaceOnUse">
<stop stop-color="#33CC00"/>
<stop offset="0.13" stop-color="#359BFF"/>
<stop offset="0.39" stop-color="#359BFF"/>
<stop offset="0.7" stop-color="#D36DFF"/>
</linearGradient>
<linearGradient id="paint3_linear_2212_59198" x1="85.8917" y1="92.8124" x2="151.223" y2="76.5034" gradientUnits="userSpaceOnUse">
<stop stop-color="#33CC00"/>
<stop offset="0.13" stop-color="#359BFF"/>
<stop offset="0.39" stop-color="#359BFF"/>
<stop offset="0.7" stop-color="#D36DFF"/>
</linearGradient>
<clipPath id="clip0_2212_59198">
<rect width="320" height="160" fill="white"/>
</clipPath>
<clipPath id="clip1_2212_59198">
<rect width="320" height="160" fill="white"/>
</clipPath>
</defs>
</svg>
