<svg width="640" height="320" fill="none" xmlns="http://www.w3.org/2000/svg">
  <g clip-path="url(#a)">
    <path fill="#fff" d="M0 0h640v320H0z"/>
    <g clip-path="url(#b)">
      <circle cx="378" cy="20" r="40" fill="#FDF" fill-opacity=".16"/>
      <circle cx="378" cy="268" r="40" fill="#FDF" fill-opacity=".24"/>
      <circle cx="602" cy="268" r="40" fill="#DED" fill-opacity=".16"/>
      <circle cx="266" cy="308" r="40" fill="#DED" fill-opacity=".16"/>
      <circle cx="154" cy="20" r="40" fill="#FDF" fill-opacity=".24"/>
      <path fill-rule="evenodd" clip-rule="evenodd" d="m158.984 6.508-.793 1.804A28.217 28.217 0 0 0 154 8c-7.732 0-14.732 3.134-19.799 8.201l-1.414-1.414C138.216 9.357 145.716 6 154 6a30.2 30.2 0 0 1 5.024.419 2.55 2.55 0 0 0-.04.089ZM154 14c.56 0 1.116.021 1.666.062l-.858 1.954a19.936 19.936 0 0 0-14.95 5.842l-1.415-1.414A21.934 21.934 0 0 1 154 14Zm9.268 2.042-.371 2.041c1.951.97 3.72 2.25 5.245 3.775l1.414-1.414a22.047 22.047 0 0 0-6.288-4.402ZM144.1 26.1a13.962 13.962 0 0 1 8.025-3.976l-.973 2.216a11.978 11.978 0 0 0-5.637 3.175L144.1 26.1Zm17.66-1.754-.396 2.179c.394.307.769.637 1.121.99l1.414-1.415a14.06 14.06 0 0 0-2.139-1.754Zm2.922-16.096-.314 1.732a28.04 28.04 0 0 1 9.431 6.219l1.414-1.414a30.023 30.023 0 0 0-10.491-6.814c-.01.09-.023.183-.04.277Zm-8.77 25.335a2 2 0 1 1-3.825-1.17l.258-.844 6.883-15.672-3.057 16.842-.259.844Zm4.903-26.273-10.348 23.562-.292.957a4 4 0 1 0 7.65 2.338l.292-.956 4.597-25.32c.212-1.167-1.422-1.667-1.899-.581Z" fill="#93F"/>
      <circle cx="154" cy="268" r="40" fill="#FDF" fill-opacity=".32"/>
      <path fill-rule="evenodd" clip-rule="evenodd" d="M168.969 282A17.906 17.906 0 0 0 172 272a17.92 17.92 0 0 0-3.637-10.851l1.163-1.758A19.921 19.921 0 0 1 174 272c0 4.502-1.488 8.657-3.999 12h-32.002A19.912 19.912 0 0 1 134 272c0-11.046 8.954-20 20-20 4.78 0 9.168 1.677 12.609 4.474l-1.758 1.163A17.92 17.92 0 0 0 154 254c-9.941 0-18 8.059-18 18 0 3.703 1.116 7.14 3.031 10h29.938Zm-13.427-8.726a2 2 0 1 1-2.816-2.816l8.326-5.51-5.51 8.326Zm8.333-12.592-12.328 8.158a3.997 3.997 0 0 0-.375 5.988 3.997 3.997 0 0 0 5.988-.375l8.158-12.328 2.824-4.267-4.267 2.824Z" fill="#93F"/>
      <circle cx="266" cy="60" r="40" fill="#DED" fill-opacity=".32"/>
      <path d="M257 48c0 1.648-1.352 3-3 3s-3-1.352-3-3 1.352-3 3-3 3 1.352 3 3Zm12 24c0 1.648-1.352 3-3 3s-3-1.352-3-3 1.352-3 3-3 3 1.352 3 3Zm-12 0c0 1.648-1.352 3-3 3s-3-1.352-3-3 1.352-3 3-3 3 1.352 3 3Zm0-12c0 1.648-1.352 3-3 3s-3-1.352-3-3 1.352-3 3-3 3 1.352 3 3Zm12 0c0 1.648-1.352 3-3 3s-3-1.352-3-3 1.352-3 3-3 3 1.352 3 3Zm9-9c-1.648 0-3-1.352-3-3s1.352-3 3-3 3 1.352 3 3-1.352 3-3 3Zm-9-3c0 1.648-1.352 3-3 3s-3-1.352-3-3 1.352-3 3-3 3 1.352 3 3Zm12 12c0 1.648-1.352 3-3 3s-3-1.352-3-3 1.352-3 3-3 3 1.352 3 3Zm0 12c0 1.648-1.352 3-3 3s-3-1.352-3-3 1.352-3 3-3 3 1.352 3 3Z" stroke="#3C0" stroke-width="2"/>
      <circle cx="490" cy="60" r="40" fill="#FDF" fill-opacity=".24"/>
      <path d="M488.297 42.162a2.162 2.162 0 0 1 4.325 0m-6.351 32.433a4.324 4.324 0 1 0 8.377 0" stroke="#93F" stroke-width="2"/>
      <path d="M477.486 55.135c0-7.165 5.809-12.973 12.973-12.973v0c7.165 0 12.973 5.808 12.973 12.973V66.09c0 .466.164.918.463 1.276l6.024 7.23H471l6.024-7.23a1.99 1.99 0 0 0 .462-1.276V55.135Z" stroke="#93F" stroke-width="2" stroke-linecap="round" stroke-linejoin="round"/>
      <circle cx="490" cy="308" r="40" fill="#DED" fill-opacity=".32"/>
      <path fill-rule="evenodd" clip-rule="evenodd" d="M474 290h16v2h-16v32h32v-16h2v16a2 2 0 0 1-2 2h-32a2 2 0 0 1-2-2v-32a2 2 0 0 1 2-2Zm33 0h-13v2h10.586l-22.293 22.293 1.414 1.414L506 293.414V304h2v-14h-1Z" fill="#3C0"/>
      <circle cx="602" cy="20" r="40" fill="#DED" fill-opacity=".32"/>
      <path fill-rule="evenodd" clip-rule="evenodd" d="M592 0h20v4h-20V0Zm0 6v28h20V6h-20Zm20 30h-20v4h20v-4Zm-22 0V0a2 2 0 0 1 2-2h20a2 2 0 0 1 2 2v40a2 2 0 0 1-2 2h-20a2 2 0 0 1-2-2v-4Z" fill="#3C0"/>
      <circle cx="490" cy="180" r="40" fill="#DED" fill-opacity=".24"/>
      <path fill-rule="evenodd" clip-rule="evenodd" d="M474 166h32v24h-32v-24Zm-2 0a2 2 0 0 1 2-2h32a2 2 0 0 1 2 2v24a2 2 0 0 1-2 2h-32a2 2 0 0 1-2-2v-24Zm40 28h-44v2h44v-2Z" fill="#3C0"/>
      <circle cx="602" cy="140" r="40" fill="#FDF" fill-opacity=".24"/>
      <path fill-rule="evenodd" clip-rule="evenodd" d="M602 122h-16a2 2 0 0 0-2 2v26a2 2 0 0 0 2 2h32a2 2 0 0 0 2-2v-8h-2v8h-32v-26h16v-2Z" fill="#93F"/>
      <path d="m594 151-3 3v3h22v-3l-3-3m1-29v20m0 0 9-9m-9 9-9-9" stroke="#93F" stroke-width="2"/>
    </g>
    <path d="M24 140h6.12v33.279h16.776v5.847H24V140Zm39.76 40c-2.66 0-5.064-.619-7.213-1.858-2.113-1.239-3.771-2.951-4.973-5.137-1.202-2.222-1.803-4.699-1.803-7.431 0-2.623.564-5.028 1.694-7.213 1.165-2.223 2.786-3.971 4.863-5.246 2.076-1.312 4.444-1.967 7.104-1.967 2.732 0 5.1.601 7.104 1.803 2.04 1.202 3.588 2.878 4.644 5.027 1.057 2.113 1.585 4.554 1.585 7.323 0 .327-.018.655-.055.983-.036.328-.054.51-.054.547H55.78c.183 2.477 1.075 4.389 2.678 5.737 1.603 1.348 3.424 2.022 5.465 2.022 3.133 0 5.537-1.457 7.213-4.371l5.136 2.459a14.196 14.196 0 0 1-5.027 5.355C69.133 179.344 66.638 180 63.76 180Zm6.885-17.76c-.073-.874-.364-1.766-.874-2.677s-1.312-1.676-2.405-2.295c-1.056-.656-2.386-.984-3.989-.984-1.785 0-3.333.547-4.645 1.639-1.275 1.093-2.149 2.532-2.623 4.317h14.536ZM90.886 180c-1.931 0-3.68-.383-5.246-1.148-1.53-.801-2.75-1.894-3.661-3.278-.875-1.421-1.312-3.024-1.312-4.809 0-2.842 1.057-5.082 3.17-6.721 2.149-1.64 4.863-2.459 8.142-2.459 2.877 0 5.337.492 7.377 1.475v-1.147c0-1.64-.656-2.988-1.968-4.044-1.275-1.093-2.823-1.639-4.644-1.639-2.77 0-4.991 1.129-6.667 3.387l-4.59-3.169a12.722 12.722 0 0 1 4.754-3.934c1.93-.911 4.098-1.366 6.503-1.366 3.97 0 7.03 1.001 9.18 3.005 2.186 1.967 3.279 4.754 3.279 8.361v16.612h-5.847v-3.334h-.328a10.735 10.735 0 0 1-3.334 3.06c-1.347.765-2.95 1.148-4.808 1.148Zm.983-4.973a7.275 7.275 0 0 0 3.716-.983c1.166-.692 2.077-1.585 2.732-2.678.693-1.129 1.039-2.331 1.039-3.606a12.664 12.664 0 0 0-6.175-1.585c-2.004 0-3.57.437-4.7 1.311-1.129.875-1.694 1.986-1.694 3.334 0 1.238.492 2.258 1.476 3.06 1.02.765 2.222 1.147 3.606 1.147Zm19.68-23.005h5.683v4.044h.328c.582-1.385 1.639-2.532 3.169-3.443 1.53-.947 3.097-1.421 4.699-1.421 1.312 0 2.387.182 3.224.547v6.284c-1.238-.62-2.622-.929-4.153-.929-1.967 0-3.624.765-4.972 2.295-1.312 1.494-1.967 3.333-1.967 5.519v14.208h-6.011v-27.104Zm21.505 0h5.683v3.606h.328c.802-1.311 1.968-2.386 3.498-3.224 1.53-.838 3.187-1.256 4.972-1.256 3.352 0 5.884.983 7.596 2.95 1.749 1.968 2.623 4.682 2.623 8.142v16.886h-6.011V163.06c0-4.262-1.986-6.393-5.956-6.393-2.004 0-3.625.801-4.864 2.404-1.238 1.603-1.858 3.497-1.858 5.683v14.372h-6.011v-27.104Z" fill="#3C4043"/>
    <path d="M169.754 179.668V140h13.629c2.4 0 4.58.517 6.537 1.551 1.958 1.034 3.509 2.456 4.654 4.266 1.182 1.81 1.773 3.915 1.773 6.316s-.591 4.524-1.773 6.371c-1.145 1.81-2.696 3.232-4.654 4.266-1.957.997-4.137 1.496-6.537 1.496h-7.535v15.402h-6.094Zm13.795-33.906h-7.701v12.742h7.701c1.44 0 2.659-.295 3.656-.886.998-.628 1.755-1.422 2.272-2.383.554-.997.831-2.031.831-3.102a6.004 6.004 0 0 0-.831-3.047c-.517-.96-1.274-1.755-2.272-2.382-.997-.628-2.216-.942-3.656-.942Z" fill="url(#c)"/>
    <path d="M209.686 179.668 199.049 140h6.759l6.316 25.762.664 3.435h.333l.831-3.435L221.93 140h6.094l7.645 25.762.831 3.379h.333l.665-3.379L243.813 140h6.704l-10.471 39.668h-6.427l-7.59-26.316-.886-3.712h-.332l-.942 3.712-7.923 26.316h-6.26Z" fill="url(#d)"/>
    <path d="M249.849 179.668 264.808 140h6.925l15.014 39.668h-6.704l-3.656-10.194h-16.178l-3.656 10.194h-6.704Zm16.787-27.978-4.377 12.133h12.078l-4.377-12.133-1.496-4.543h-.332l-1.496 4.543Z" fill="url(#e)"/>
    <path d="m292.414 167.036-.554-14.571V140h5.983v12.465l-.609 14.571h-4.82ZM294.851 180c-1.182 0-2.179-.406-2.991-1.219-.813-.812-1.219-1.791-1.219-2.936s.406-2.124 1.219-2.936c.812-.813 1.809-1.219 2.991-1.219 1.145 0 2.124.406 2.937 1.219.812.812 1.218 1.791 1.218 2.936s-.406 2.124-1.218 2.936c-.813.813-1.792 1.219-2.937 1.219Z" fill="url(#f)"/>
  </g>
  <defs>
    <linearGradient id="c" x1="169.754" y1="180" x2="300.825" y2="147.288" gradientUnits="userSpaceOnUse">
      <stop stop-color="#3C0"/>
      <stop offset=".13" stop-color="#39F"/>
      <stop offset=".385" stop-color="#06F"/>
      <stop offset=".703" stop-color="#93F"/>
    </linearGradient>
    <linearGradient id="d" x1="169.754" y1="180" x2="300.825" y2="147.288" gradientUnits="userSpaceOnUse">
      <stop stop-color="#3C0"/>
      <stop offset=".13" stop-color="#39F"/>
      <stop offset=".385" stop-color="#06F"/>
      <stop offset=".703" stop-color="#93F"/>
    </linearGradient>
    <linearGradient id="e" x1="169.754" y1="180" x2="300.825" y2="147.288" gradientUnits="userSpaceOnUse">
      <stop stop-color="#3C0"/>
      <stop offset=".13" stop-color="#39F"/>
      <stop offset=".385" stop-color="#06F"/>
      <stop offset=".703" stop-color="#93F"/>
    </linearGradient>
    <linearGradient id="f" x1="169.754" y1="180" x2="300.825" y2="147.288" gradientUnits="userSpaceOnUse">
      <stop stop-color="#3C0"/>
      <stop offset=".13" stop-color="#39F"/>
      <stop offset=".385" stop-color="#06F"/>
      <stop offset=".703" stop-color="#93F"/>
    </linearGradient>
    <clipPath id="a">
      <path fill="#fff" d="M0 0h640v320H0z"/>
    </clipPath>
    <clipPath id="b">
      <path fill="#fff" transform="translate(0 -160)" d="M0 0h640v640H0z"/>
    </clipPath>
  </defs>
</svg>