<svg width="140" height="40" viewBox="0 0 140 40" preserveAspectRatio="xMinYMid meet" fill="none" xmlns="http://www.w3.org/2000/svg">
<path d="M0 10H3.06011V26.6393H11.4481V29.5628H0L0 10Z" fill="#3C4043"/>
<path d="M19.8798 30C18.5501 30 17.3479 29.6903 16.2733 29.071C15.2168 28.4517 14.388 27.5956 13.7869 26.5027C13.1858 25.3916 12.8853 24.153 12.8853 22.7869C12.8853 21.4754 13.1676 20.2732 13.7323 19.1803C14.3152 18.0692 15.1257 17.1949 16.164 16.5574C17.2022 15.9016 18.3862 15.5738 19.7159 15.5738C21.082 15.5738 22.266 15.8743 23.2678 16.4754C24.2878 17.0765 25.062 17.9144 25.5902 18.9891C26.1184 20.0455 26.3826 21.2659 26.3826 22.6503C26.3826 22.8142 26.3734 22.9781 26.3552 23.1421C26.337 23.306 26.3279 23.3971 26.3279 23.4153H15.8908C15.9818 24.6539 16.4281 25.6102 17.2295 26.2842C18.031 26.9581 18.9418 27.2951 19.9618 27.2951C21.5283 27.2951 22.7305 26.5665 23.5683 25.1093L26.1367 26.3388C25.5356 27.4499 24.6977 28.3424 23.623 29.0164C22.5665 29.6721 21.3188 30 19.8798 30ZM23.3224 21.1202C23.286 20.6831 23.1403 20.2368 22.8853 19.7814C22.6303 19.326 22.2295 18.9435 21.6831 18.6339C21.1549 18.306 20.49 18.1421 19.6886 18.1421C18.796 18.1421 18.0219 18.4153 17.3662 18.9617C16.7286 19.5082 16.2915 20.2277 16.0547 21.1202H23.3224Z" fill="#3C4043"/>
<path d="M33.4428 30C32.4774 30 31.6031 29.8087 30.8199 29.4262C30.0549 29.0255 29.4447 28.4791 28.9893 27.7869C28.5521 27.0765 28.3335 26.275 28.3335 25.3825C28.3335 23.9617 28.8618 22.8415 29.9182 22.0219C30.9929 21.2022 32.3499 20.7924 33.9893 20.7924C35.4283 20.7924 36.6578 21.0383 37.6778 21.5301V20.9563C37.6778 20.1366 37.3499 19.4627 36.6942 18.9344C36.0567 18.388 35.2825 18.1148 34.3718 18.1148C32.9875 18.1148 31.8763 18.6794 31.0385 19.8087L28.7434 18.224C29.3809 17.3679 30.1733 16.7122 31.1204 16.2568C32.0858 15.8015 33.1696 15.5738 34.3718 15.5738C36.3572 15.5738 37.8873 16.0747 38.962 17.0765C40.0549 18.0601 40.6013 19.4536 40.6013 21.2568V29.5628H37.6778V27.8962H37.5139C37.0767 28.5155 36.5212 29.0255 35.8472 29.4262C35.1733 29.8087 34.3718 30 33.4428 30ZM33.9346 27.5137C34.6086 27.5137 35.2279 27.3497 35.7926 27.0219C36.3754 26.6758 36.8308 26.2295 37.1587 25.6831C37.5048 25.1184 37.6778 24.5173 37.6778 23.8798C36.7124 23.3515 35.6833 23.0874 34.5904 23.0874C33.5886 23.0874 32.8053 23.306 32.2406 23.7432C31.676 24.1803 31.3937 24.7359 31.3937 25.4098C31.3937 26.0291 31.6396 26.5392 32.1314 26.9399C32.6414 27.3224 33.2425 27.5137 33.9346 27.5137Z" fill="#3C4043"/>
<path d="M43.7743 16.0109H46.6159V18.0328H46.7798C47.0712 17.3406 47.5995 16.7668 48.3645 16.3115C49.1295 15.8379 49.9128 15.6011 50.7142 15.6011C51.37 15.6011 51.9073 15.6922 52.3262 15.8743V19.0164C51.7069 18.7067 51.0148 18.5519 50.2497 18.5519C49.2661 18.5519 48.4374 18.9344 47.7634 19.6995C47.1077 20.4463 46.7798 21.3661 46.7798 22.459V29.5628H43.7743V16.0109Z" fill="#3C4043"/>
<path d="M54.5272 16.0109H57.3687V17.8142H57.5327C57.9334 17.1585 58.5163 16.6211 59.2813 16.2022C60.0463 15.7832 60.8751 15.5738 61.7676 15.5738C63.4434 15.5738 64.7093 16.0656 65.5654 17.0492C66.4398 18.0328 66.8769 19.3898 66.8769 21.1202V29.5628H63.8715V21.5301C63.8715 19.3989 62.8787 18.3333 60.8933 18.3333C59.8915 18.3333 59.0809 18.7341 58.4616 19.5355C57.8423 20.337 57.5327 21.2842 57.5327 22.3771V29.5628H54.5272V16.0109Z" fill="#3C4043"/>
<path d="M74.877 29.8338V10H81.6914C82.8917 10 83.9813 10.2585 84.9601 10.7756C85.9388 11.2927 86.7144 12.0037 87.2869 12.9086C87.8779 13.8135 88.1734 14.8661 88.1734 16.0665C88.1734 17.2669 87.8779 18.3287 87.2869 19.2521C86.7144 20.157 85.9388 20.868 84.9601 21.385C83.9813 21.8837 82.8917 22.133 81.6914 22.133H77.924V29.8338H74.877ZM81.7745 12.8809H77.924V19.2521H81.7745C82.4947 19.2521 83.1041 19.1043 83.6027 18.8089C84.1013 18.4949 84.4799 18.0979 84.7384 17.6177C85.0155 17.1191 85.154 16.602 85.154 16.0665C85.154 15.5309 85.0155 15.0231 84.7384 14.5429C84.4799 14.0628 84.1013 13.6657 83.6027 13.3518C83.1041 13.0379 82.4947 12.8809 81.7745 12.8809Z" fill="url(#paint0_linear_815:1044)"/>
<path d="M94.843 29.8338L89.5244 10H92.9039L96.0618 22.8809L96.3942 24.5983H96.5604L96.9759 22.8809L100.965 10H104.012L107.835 22.8809L108.25 24.5706H108.416L108.749 22.8809L111.907 10H115.258L110.023 29.8338H106.81L103.015 16.6759L102.572 14.8199H102.405L101.934 16.6759L97.9732 29.8338H94.843Z" fill="url(#paint1_linear_815:1044)"/>
<path d="M114.925 29.8338L122.404 10H125.866L133.373 29.8338H130.022L128.193 24.7368H120.105L118.276 29.8338H114.925ZM123.318 15.8449L121.13 21.9114H127.168L124.98 15.8449L124.232 13.5734H124.066L123.318 15.8449Z" fill="url(#paint2_linear_815:1044)"/>
<path d="M136.207 23.518L135.93 16.2327V10H138.921V16.2327L138.617 23.518H136.207ZM137.426 30C136.835 30 136.336 29.7969 135.93 29.3906C135.524 28.9843 135.32 28.4949 135.32 27.9224C135.32 27.35 135.524 26.8606 135.93 26.4543C136.336 26.048 136.835 25.8449 137.426 25.8449C137.998 25.8449 138.488 26.048 138.894 26.4543C139.3 26.8606 139.503 27.35 139.503 27.9224C139.503 28.4949 139.3 28.9843 138.894 29.3906C138.488 29.7969 137.998 30 137.426 30Z" fill="url(#paint3_linear_815:1044)"/>
<defs>
<linearGradient id="paint0_linear_815:1044" x1="74.877" y1="30" x2="140.413" y2="13.6441" gradientUnits="userSpaceOnUse">
<stop stop-color="#33CC00"/>
<stop offset="0.130208" stop-color="#3399FF"/>
<stop offset="0.385417" stop-color="#0066FF"/>
<stop offset="0.703125" stop-color="#9933FF"/>
</linearGradient>
<linearGradient id="paint1_linear_815:1044" x1="74.877" y1="30" x2="140.413" y2="13.6441" gradientUnits="userSpaceOnUse">
<stop stop-color="#33CC00"/>
<stop offset="0.130208" stop-color="#3399FF"/>
<stop offset="0.385417" stop-color="#0066FF"/>
<stop offset="0.703125" stop-color="#9933FF"/>
</linearGradient>
<linearGradient id="paint2_linear_815:1044" x1="74.877" y1="30" x2="140.413" y2="13.6441" gradientUnits="userSpaceOnUse">
<stop stop-color="#33CC00"/>
<stop offset="0.130208" stop-color="#3399FF"/>
<stop offset="0.385417" stop-color="#0066FF"/>
<stop offset="0.703125" stop-color="#9933FF"/>
</linearGradient>
<linearGradient id="paint3_linear_815:1044" x1="74.877" y1="30" x2="140.413" y2="13.6441" gradientUnits="userSpaceOnUse">
<stop stop-color="#33CC00"/>
<stop offset="0.130208" stop-color="#3399FF"/>
<stop offset="0.385417" stop-color="#0066FF"/>
<stop offset="0.703125" stop-color="#9933FF"/>
</linearGradient>
</defs>
</svg>
