<svg width="640" height="320" viewBox="0 0 640 320" fill="none" xmlns="http://www.w3.org/2000/svg">
<g clip-path="url(#clip0_1847_1944)">
<rect width="640" height="320" fill="white"/>
<path d="M281.715 391.985C315.753 393.092 352.478 390.544 390.311 383.873C481.933 367.718 559.178 331.06 603.259 287.835M281.715 391.985C178.736 388.639 100.345 351.85 90.2538 294.621C76.8274 218.476 189.399 134.98 341.689 108.127C493.98 81.274 628.32 121.233 641.746 197.378C647.095 227.713 632.448 259.214 603.259 287.835M281.715 391.985C336.103 479.495 407.158 528.989 461.765 509.114C534.422 482.669 550.447 343.431 497.557 198.117C491.703 182.034 485.25 166.55 478.304 151.766M281.715 391.985C271.747 375.948 262.34 358.633 253.696 340.234M253.696 340.234C246.75 325.45 240.297 309.966 234.443 293.883C181.553 148.569 197.577 9.33102 270.234 -17.1139C334.849 -40.6319 422.494 32.9767 478.304 151.766M253.696 340.234C267.049 349.642 281.177 358.686 296 367.244C429.922 444.563 569.827 452.961 608.487 386C623.888 359.325 620.898 324.714 603.259 287.835M253.696 340.234C146.403 264.645 89.1317 165.55 123.513 106C162.173 39.039 302.078 47.4366 436 124.756C450.823 133.314 464.951 142.358 478.304 151.766M478.304 151.766C537.535 193.495 581.521 242.387 603.259 287.835M646 246C646 400.64 520.64 526 366 526C211.36 526 86 400.64 86 246C86 91.3603 211.36 -34 366 -34C520.64 -34 646 91.3603 646 246ZM507.421 387.421C398.075 496.768 246.115 522.095 168.01 443.99C89.9054 365.885 115.232 213.925 224.579 104.579C333.926 -4.76816 485.885 -30.0948 563.99 48.0101C642.095 126.115 616.768 278.075 507.421 387.421Z" stroke="#AAEEFF"/>
<g clip-path="url(#clip1_1847_1944)">
<path d="M441.859 228.245H443.755L452.693 249.234H450.526L448.359 244.224H437.255L435.089 249.234H432.922L441.859 228.245ZM440.505 255.125C442.04 255.125 443.326 255.644 444.365 256.682C445.403 257.72 445.922 259.007 445.922 260.542C445.922 261.354 445.753 262.133 445.414 262.878C445.076 263.622 444.59 264.266 443.958 264.807L441.927 266.703L446.193 270.969L450.458 266.771L452.016 268.26L447.75 272.526L451.542 276.318L450.052 277.807L446.26 274.016L442.672 277.604C442.085 278.191 441.442 278.642 440.742 278.958C440.043 279.274 439.264 279.432 438.406 279.432C436.962 279.432 435.72 278.913 434.682 277.875C433.644 276.837 433.125 275.573 433.125 274.083C433.125 273.316 433.272 272.571 433.565 271.849C433.859 271.127 434.321 270.517 434.953 270.021L438.813 266.432L436.646 264.333C436.104 263.837 435.698 263.261 435.427 262.607C435.156 261.952 435.021 261.286 435.021 260.609C435.021 259.075 435.551 257.777 436.612 256.716C437.673 255.655 438.97 255.125 440.505 255.125ZM440.302 267.99L436.443 271.51C436.082 271.826 435.799 272.21 435.596 272.661C435.393 273.113 435.292 273.587 435.292 274.083C435.292 274.986 435.608 275.742 436.24 276.352C436.872 276.961 437.639 277.266 438.542 277.266C439.038 277.266 439.49 277.153 439.896 276.927C440.302 276.701 440.686 276.408 441.047 276.047L444.703 272.458L440.302 267.99ZM440.438 257.224C439.535 257.224 438.767 257.551 438.135 258.206C437.503 258.86 437.188 259.639 437.188 260.542C437.188 260.993 437.266 261.422 437.424 261.828C437.582 262.234 437.819 262.573 438.135 262.844L440.37 265.214L442.333 263.318C442.785 262.957 443.135 262.539 443.383 262.065C443.631 261.591 443.755 261.106 443.755 260.609C443.755 259.661 443.439 258.86 442.807 258.206C442.175 257.551 441.385 257.224 440.438 257.224ZM442.672 231.495L438.203 242.125H447.411L442.943 231.495H442.672ZM472.057 227.568C472.238 227.974 472.407 228.369 472.565 228.753C472.723 229.136 472.847 229.554 472.938 230.005L470.568 230.682L482.214 230.615V232.781H478.693C478.196 234.632 477.418 236.347 476.357 237.927C475.296 239.507 474.089 240.929 472.734 242.193C474.043 243.231 475.443 244.077 476.932 244.732C478.422 245.386 479.957 245.917 481.536 246.323L481.063 248.354C479.257 247.948 477.53 247.327 475.883 246.492C474.235 245.657 472.689 244.653 471.245 243.479C469.8 244.698 468.209 245.691 466.471 246.458C464.734 247.226 462.939 247.858 461.089 248.354L460.615 246.391C462.285 245.984 463.898 245.443 465.456 244.766C467.013 244.089 468.491 243.231 469.891 242.193C468.536 240.884 467.352 239.439 466.336 237.859C465.32 236.28 464.609 234.587 464.203 232.781H459.87V230.615L470.026 230.682C469.936 230.321 469.834 229.949 469.721 229.565C469.609 229.181 469.462 228.809 469.281 228.448L472.057 227.568ZM479.573 256.885L481.13 258.375L461.969 277.469L460.479 276.047L479.573 256.885ZM464.271 258.036C464.948 258.036 465.512 258.262 465.964 258.714C466.415 259.165 466.641 259.729 466.641 260.406C466.641 261.083 466.415 261.648 465.964 262.099C465.512 262.55 464.948 262.776 464.271 262.776C463.594 262.776 463.03 262.55 462.578 262.099C462.127 261.648 461.901 261.083 461.901 260.406C461.901 259.729 462.127 259.165 462.578 258.714C463.03 258.262 463.594 258.036 464.271 258.036ZM466.302 232.781C466.663 234.406 467.273 235.907 468.13 237.284C468.988 238.661 470.049 239.868 471.313 240.906C472.576 239.868 473.66 238.649 474.563 237.25C475.465 235.851 476.12 234.361 476.526 232.781H466.302ZM477.813 271.578C478.49 271.578 479.054 271.804 479.505 272.255C479.957 272.707 480.182 273.271 480.182 273.948C480.182 274.625 479.957 275.189 479.505 275.641C479.054 276.092 478.49 276.318 477.813 276.318C477.135 276.318 476.571 276.092 476.12 275.641C475.668 275.189 475.443 274.625 475.443 273.948C475.443 273.271 475.668 272.707 476.12 272.255C476.571 271.804 477.135 271.578 477.813 271.578Z" fill="#99DD33"/>
</g>
<path d="M261 39.45L251.15 29.6L252.25 28.55L261 37.3L279.7 18.55L280.85 19.65L261 39.45Z" fill="#FF66CC"/>
<path d="M508.975 36.8C501.905 38.6655 493.658 39.5 486 39.5C478.342 39.5 470.095 38.6655 463.025 36.8L461.651 42.2C466.658 43.5745 472.451 44.4582 477.851 44.9V80H483.251V63.8H488.651V80H494.051V44.9C499.451 44.4582 505.244 43.5255 510.251 42.2L508.975 36.8ZM486 36.8C488.995 36.8 491.4 34.3945 491.4 31.4C491.4 28.4055 488.995 26 486 26C483.005 26 480.6 28.4545 480.6 31.4C480.6 34.3455 483.055 36.8 486 36.8Z" stroke="#3399FF" stroke-width="1.3"/>
<path d="M193.15 258.7C191.483 258.7 190.067 258.2 188.9 257.2C187.733 256.2 186.833 254.833 186.2 253.1C185.667 251.7 185.033 250.533 184.3 249.6C183.567 248.667 182.317 247.483 180.55 246.05C178.483 244.417 176.958 242.625 175.975 240.675C174.992 238.725 174.5 236.483 174.5 233.95C174.5 230.317 175.692 227.308 178.075 224.925C180.458 222.542 183.467 221.35 187.1 221.35C190.5 221.35 193.367 222.383 195.7 224.45C198.033 226.517 199.35 229.183 199.65 232.45H198.55C198.25 229.517 197.025 227.117 194.875 225.25C192.725 223.383 190.133 222.45 187.1 222.45C183.867 222.45 181.142 223.558 178.925 225.775C176.708 227.992 175.6 230.717 175.6 233.95C175.6 236.383 176.158 238.575 177.275 240.525C178.392 242.475 179.883 244.167 181.75 245.6C183.15 246.667 184.233 247.708 185 248.725C185.767 249.742 186.5 251.067 187.2 252.7C187.833 254.2 188.625 255.392 189.575 256.275C190.525 257.158 191.717 257.6 193.15 257.6C194.383 257.6 195.483 257.217 196.45 256.45C197.417 255.683 198.083 254.717 198.45 253.55H199.65C199.283 255.05 198.508 256.283 197.325 257.25C196.142 258.217 194.75 258.7 193.15 258.7ZM171.4 247.4C169.8 245.567 168.558 243.5 167.675 241.2C166.792 238.9 166.35 236.467 166.35 233.9C166.35 231.333 166.792 228.875 167.675 226.525C168.558 224.175 169.8 222.1 171.4 220.3L172.2 220.95C170.667 222.75 169.492 224.742 168.675 226.925C167.858 229.108 167.45 231.433 167.45 233.9C167.45 236.3 167.867 238.592 168.7 240.775C169.533 242.958 170.7 244.95 172.2 246.75L171.4 247.4ZM187.1 237.85C186 237.85 185.075 237.475 184.325 236.725C183.575 235.975 183.2 235.05 183.2 233.95C183.2 232.85 183.575 231.917 184.325 231.15C185.075 230.383 186 230 187.1 230C188.2 230 189.125 230.383 189.875 231.15C190.625 231.917 191 232.85 191 233.95C191 235.05 190.625 235.975 189.875 236.725C189.125 237.475 188.2 237.85 187.1 237.85Z" fill="#3399FF"/>
<path d="M568 190.5L567.15 189.7C563.85 186.7 561.133 184.125 559 181.975C556.867 179.825 555.175 177.942 553.925 176.325C552.675 174.708 551.808 173.258 551.325 171.975C550.842 170.692 550.6 169.417 550.6 168.15C550.6 165.817 551.392 163.858 552.975 162.275C554.558 160.692 556.517 159.9 558.85 159.9C560.65 159.9 562.325 160.4 563.875 161.4C565.425 162.4 566.8 163.867 568 165.8C569.267 163.833 570.658 162.358 572.175 161.375C573.692 160.392 575.35 159.9 577.15 159.9C579.483 159.9 581.442 160.692 583.025 162.275C584.608 163.858 585.4 165.817 585.4 168.15C585.4 169.417 585.158 170.692 584.675 171.975C584.192 173.258 583.325 174.708 582.075 176.325C580.825 177.942 579.133 179.825 577 181.975C574.867 184.125 572.15 186.7 568.85 189.7L568 190.5ZM568 189C571.233 186.033 573.9 183.5 576 181.4C578.1 179.3 579.767 177.467 581 175.9C582.233 174.333 583.092 172.942 583.575 171.725C584.058 170.508 584.3 169.317 584.3 168.15C584.3 166.117 583.617 164.417 582.25 163.05C580.883 161.683 579.183 161 577.15 161C575.483 161 573.958 161.483 572.575 162.45C571.192 163.417 569.833 164.967 568.5 167.1H567.5C566.133 164.967 564.758 163.417 563.375 162.45C561.992 161.483 560.483 161 558.85 161C556.85 161 555.158 161.683 553.775 163.05C552.392 164.417 551.7 166.133 551.7 168.2C551.7 169.367 551.942 170.55 552.425 171.75C552.908 172.95 553.758 174.333 554.975 175.9C556.192 177.467 557.858 179.3 559.975 181.4C562.092 183.5 564.767 186.033 568 189Z" fill="#FF66CC"/>
<path d="M293 245.65C294.833 245.65 296.4 244.992 297.7 243.675C299 242.358 299.65 240.8 299.65 239C299.65 237.167 298.991 235.6 297.675 234.3C296.358 233 294.8 232.35 293 232.35C291.166 232.35 289.6 233.008 288.3 234.325C287 235.642 286.35 237.2 286.35 239C286.35 240.833 287.008 242.4 288.325 243.7C289.641 245 291.2 245.65 293 245.65ZM293 244.45C291.466 244.45 290.175 243.917 289.125 242.85C288.075 241.783 287.55 240.5 287.55 239C287.55 237.467 288.083 236.175 289.15 235.125C290.216 234.075 291.5 233.55 293 233.55C294.533 233.55 295.825 234.083 296.875 235.15C297.925 236.217 298.45 237.5 298.45 239C298.45 240.533 297.916 241.825 296.85 242.875C295.783 243.925 294.5 244.45 293 244.45ZM293 251.4C288.866 251.4 285.083 250.275 281.65 248.025C278.216 245.775 275.6 242.767 273.8 239C275.6 235.233 278.216 232.225 281.65 229.975C285.083 227.725 288.866 226.6 293 226.6C297.133 226.6 300.916 227.725 304.35 229.975C307.783 232.225 310.4 235.233 312.2 239C310.4 242.767 307.783 245.775 304.35 248.025C300.916 250.275 297.133 251.4 293 251.4ZM293 250.3C296.866 250.3 300.408 249.283 303.625 247.25C306.841 245.217 309.3 242.467 311 239C309.3 235.533 306.841 232.783 303.625 230.75C300.408 228.717 296.866 227.7 293 227.7C289.133 227.7 285.591 228.717 282.375 230.75C279.158 232.783 276.7 235.533 275 239C276.7 242.467 279.158 245.217 282.375 247.25C285.591 249.283 289.133 250.3 293 250.3Z" fill="#FF66CC"/>
<g style="mix-blend-mode:darken">
<path d="M180.924 139.978H187.9L202.56 179H195.857L192.314 169.026H176.564L173.021 179H166.263L180.924 139.978ZM190.243 163.358L186.101 151.75L184.575 147.226H184.248L182.722 151.75L178.58 163.358H190.243ZM218.677 179.872C215.988 179.872 213.572 179.254 211.428 178.019C209.285 176.784 207.613 175.076 206.414 172.896C205.215 170.68 204.616 168.209 204.616 165.484C204.616 162.723 205.215 160.252 206.414 158.072C207.613 155.892 209.285 154.184 211.428 152.949C213.572 151.714 215.988 151.096 218.677 151.096C221.656 151.096 224.181 151.804 226.252 153.221C228.36 154.602 229.886 156.437 230.83 158.726L225.326 161.015C224.018 158.072 221.729 156.6 218.459 156.6C217.078 156.6 215.788 156.982 214.589 157.745C213.39 158.472 212.428 159.507 211.701 160.851C210.974 162.196 210.611 163.74 210.611 165.484C210.611 167.228 210.974 168.772 211.701 170.116C212.428 171.461 213.39 172.514 214.589 173.277C215.788 174.004 217.078 174.367 218.459 174.367C220.13 174.367 221.584 173.986 222.819 173.223C224.054 172.424 224.999 171.297 225.653 169.844L231.048 172.188C229.995 174.476 228.414 176.329 226.307 177.746C224.2 179.163 221.656 179.872 218.677 179.872ZM248.436 179.872C245.747 179.872 243.331 179.254 241.187 178.019C239.043 176.784 237.372 175.076 236.173 172.896C234.974 170.68 234.375 168.209 234.375 165.484C234.375 162.723 234.974 160.252 236.173 158.072C237.372 155.892 239.043 154.184 241.187 152.949C243.331 151.714 245.747 151.096 248.436 151.096C251.415 151.096 253.94 151.804 256.011 153.221C258.118 154.602 259.644 156.437 260.589 158.726L255.085 161.015C253.777 158.072 251.488 156.6 248.218 156.6C246.837 156.6 245.547 156.982 244.348 157.745C243.149 158.472 242.186 159.507 241.46 160.851C240.733 162.196 240.37 163.74 240.37 165.484C240.37 167.228 240.733 168.772 241.46 170.116C242.186 171.461 243.149 172.514 244.348 173.277C245.547 174.004 246.837 174.367 248.218 174.367C249.889 174.367 251.342 173.986 252.578 173.223C253.813 172.424 254.758 171.297 255.412 169.844L260.807 172.188C259.753 174.476 258.173 176.329 256.066 177.746C253.958 179.163 251.415 179.872 248.436 179.872ZM278.085 179.872C275.433 179.872 273.035 179.254 270.891 178.019C268.784 176.784 267.131 175.076 265.932 172.896C264.733 170.68 264.133 168.209 264.133 165.484C264.133 162.868 264.696 160.47 265.823 158.29C266.985 156.074 268.602 154.33 270.673 153.058C272.744 151.75 275.106 151.096 277.758 151.096C280.483 151.096 282.845 151.695 284.843 152.894C286.878 154.093 288.422 155.765 289.476 157.908C290.529 160.016 291.056 162.45 291.056 165.211C291.056 165.538 291.038 165.865 291.002 166.192C290.965 166.519 290.947 166.701 290.947 166.737H270.128C270.31 169.208 271.2 171.116 272.799 172.46C274.397 173.804 276.214 174.476 278.249 174.476C281.373 174.476 283.771 173.023 285.443 170.116L290.566 172.569C289.367 174.785 287.695 176.566 285.552 177.91C283.444 179.218 280.955 179.872 278.085 179.872ZM284.952 162.159C284.879 161.287 284.589 160.397 284.08 159.489C283.571 158.581 282.772 157.818 281.682 157.2C280.628 156.546 279.302 156.219 277.704 156.219C275.923 156.219 274.379 156.764 273.071 157.854C271.799 158.944 270.927 160.379 270.455 162.159H284.952ZM306.722 179.872C303.633 179.872 301.072 179.163 299.037 177.746C297.039 176.293 295.622 174.476 294.786 172.296L300.127 170.007C300.745 171.497 301.635 172.623 302.798 173.386C303.997 174.149 305.305 174.531 306.722 174.531C308.211 174.531 309.429 174.258 310.373 173.713C311.318 173.132 311.79 172.387 311.79 171.479C311.79 170.607 311.409 169.898 310.646 169.353C309.883 168.772 308.629 168.263 306.885 167.827L303.179 166.955C301.145 166.483 299.382 165.611 297.893 164.339C296.439 163.031 295.713 161.342 295.713 159.271C295.713 156.764 296.748 154.784 298.819 153.33C300.89 151.841 303.434 151.096 306.449 151.096C308.956 151.096 311.173 151.623 313.098 152.676C315.06 153.73 316.477 155.256 317.349 157.254L312.063 159.489C311.554 158.363 310.773 157.527 309.719 156.982C308.666 156.437 307.521 156.164 306.286 156.164C305.087 156.164 304.033 156.437 303.125 156.982C302.216 157.491 301.762 158.181 301.762 159.053C301.762 159.816 302.071 160.434 302.689 160.906C303.343 161.378 304.36 161.778 305.741 162.105L309.774 163.086C312.499 163.776 314.533 164.83 315.878 166.247C317.222 167.628 317.894 169.299 317.894 171.261C317.894 172.86 317.404 174.313 316.423 175.621C315.478 176.929 314.152 177.964 312.444 178.727C310.773 179.491 308.865 179.872 306.722 179.872ZM332.968 179.872C329.879 179.872 327.318 179.163 325.283 177.746C323.285 176.293 321.868 174.476 321.032 172.296L326.373 170.007C326.991 171.497 327.881 172.623 329.044 173.386C330.243 174.149 331.551 174.531 332.968 174.531C334.457 174.531 335.674 174.258 336.619 173.713C337.564 173.132 338.036 172.387 338.036 171.479C338.036 170.607 337.655 169.898 336.892 169.353C336.129 168.772 334.875 168.263 333.131 167.827L329.425 166.955C327.39 166.483 325.628 165.611 324.139 164.339C322.685 163.031 321.959 161.342 321.959 159.271C321.959 156.764 322.994 154.784 325.065 153.33C327.136 151.841 329.679 151.096 332.695 151.096C335.202 151.096 337.418 151.623 339.344 152.676C341.306 153.73 342.723 155.256 343.595 157.254L338.309 159.489C337.8 158.363 337.019 157.527 335.965 156.982C334.911 156.437 333.767 156.164 332.532 156.164C331.333 156.164 330.279 156.437 329.371 156.982C328.462 157.491 328.008 158.181 328.008 159.053C328.008 159.816 328.317 160.434 328.935 160.906C329.589 161.378 330.606 161.778 331.987 162.105L336.02 163.086C338.745 163.776 340.779 164.83 342.124 166.247C343.468 167.628 344.14 169.299 344.14 171.261C344.14 172.86 343.65 174.313 342.669 175.621C341.724 176.929 340.398 177.964 338.69 178.727C337.019 179.491 335.111 179.872 332.968 179.872ZM352.407 147.39C351.281 147.39 350.318 147.008 349.519 146.245C348.756 145.446 348.374 144.483 348.374 143.357C348.374 142.231 348.756 141.286 349.519 140.523C350.318 139.724 351.281 139.324 352.407 139.324C353.534 139.324 354.478 139.724 355.241 140.523C356.041 141.286 356.44 142.231 356.44 143.357C356.44 144.483 356.041 145.446 355.241 146.245C354.478 147.008 353.534 147.39 352.407 147.39ZM349.41 151.968H355.405V179H349.41V151.968ZM377.534 179.872C375.572 179.872 373.81 179.454 372.247 178.618C370.721 177.783 369.577 176.729 368.814 175.457H368.487V179H362.819V139.978H368.814V151.695L368.487 155.456H368.814C369.577 154.221 370.721 153.185 372.247 152.349C373.81 151.514 375.572 151.096 377.534 151.096C379.859 151.096 382.003 151.714 383.965 152.949C385.963 154.184 387.544 155.91 388.706 158.126C389.905 160.306 390.505 162.759 390.505 165.484C390.505 168.209 389.905 170.661 388.706 172.841C387.544 175.021 385.963 176.747 383.965 178.019C382.003 179.254 379.859 179.872 377.534 179.872ZM376.498 174.367C377.915 174.367 379.223 174.004 380.422 173.277C381.658 172.551 382.639 171.515 383.365 170.171C384.128 168.79 384.51 167.228 384.51 165.484C384.51 163.74 384.128 162.196 383.365 160.851C382.639 159.471 381.658 158.417 380.422 157.69C379.223 156.964 377.915 156.6 376.498 156.6C375.081 156.6 373.755 156.964 372.52 157.69C371.321 158.417 370.34 159.453 369.577 160.797C368.85 162.141 368.487 163.704 368.487 165.484C368.487 167.264 368.85 168.827 369.577 170.171C370.34 171.515 371.321 172.551 372.52 173.277C373.755 174.004 375.081 174.367 376.498 174.367ZM399.098 147.39C397.972 147.39 397.009 147.008 396.209 146.245C395.446 145.446 395.065 144.483 395.065 143.357C395.065 142.231 395.446 141.286 396.209 140.523C397.009 139.724 397.972 139.324 399.098 139.324C400.224 139.324 401.169 139.724 401.932 140.523C402.731 141.286 403.131 142.231 403.131 143.357C403.131 144.483 402.731 145.446 401.932 146.245C401.169 147.008 400.224 147.39 399.098 147.39ZM396.1 151.968H402.095V179H396.1V151.968ZM409.509 139.978H415.504V179H409.509V139.978ZM425.936 147.39C424.81 147.39 423.847 147.008 423.048 146.245C422.285 145.446 421.903 144.483 421.903 143.357C421.903 142.231 422.285 141.286 423.048 140.523C423.847 139.724 424.81 139.324 425.936 139.324C427.063 139.324 428.007 139.724 428.77 140.523C429.57 141.286 429.969 142.231 429.969 143.357C429.969 144.483 429.57 145.446 428.77 146.245C428.007 147.008 427.063 147.39 425.936 147.39ZM422.939 151.968H428.934V179H422.939V151.968ZM447.2 179.436C446.001 179.436 444.874 179.254 443.821 178.891C442.803 178.491 441.95 177.946 441.259 177.256C439.697 175.73 438.916 173.604 438.916 170.879V157.254H434.174V151.968H438.916V143.902H444.911V151.968H451.505V157.254H444.911V169.571C444.911 171.061 445.201 172.115 445.783 172.732C446.328 173.459 447.218 173.822 448.453 173.822C449.507 173.822 450.542 173.514 451.56 172.896V178.727C450.288 179.2 448.835 179.436 447.2 179.436ZM465.768 177.474L454.487 151.968H461.19L468.711 170.116H468.984L476.232 151.968H482.881L465.986 190.772H459.664L465.768 177.474ZM487.579 151.804V139.978H493.683V151.804L493.029 166.301H488.178L487.579 151.804ZM490.631 179.327C489.468 179.327 488.469 178.927 487.633 178.128C486.834 177.292 486.434 176.293 486.434 175.13C486.434 173.968 486.834 172.987 487.633 172.188C488.469 171.388 489.468 170.989 490.631 170.989C491.793 170.989 492.774 171.388 493.574 172.188C494.373 172.987 494.773 173.968 494.773 175.13C494.773 176.293 494.373 177.292 493.574 178.128C492.774 178.927 491.793 179.327 490.631 179.327Z" fill="url(#paint0_linear_1847_1944)"/>
</g>
<path d="M24 140H30.1202V173.279H46.8962V179.126H24V140Z" fill="#3C4043"/>
<path d="M63.7596 180C61.1003 180 58.6959 179.381 56.5465 178.142C54.4336 176.903 52.776 175.191 51.5739 173.005C50.3717 170.783 49.7706 168.306 49.7706 165.574C49.7706 162.951 50.3352 160.546 51.4646 158.361C52.6303 156.138 54.2514 154.39 56.328 153.115C58.4045 151.803 60.7724 151.148 63.4318 151.148C66.164 151.148 68.532 151.749 70.5356 152.951C72.5757 154.153 74.1239 155.829 75.1804 157.978C76.2369 160.091 76.7651 162.532 76.7651 165.301C76.7651 165.628 76.7469 165.956 76.7105 166.284C76.674 166.612 76.6558 166.794 76.6558 166.831H55.7815C55.9637 169.308 56.8562 171.22 58.4591 172.568C60.062 173.916 61.8835 174.59 63.9236 174.59C67.0565 174.59 69.4609 173.133 71.1367 170.219L76.2733 172.678C75.0711 174.9 73.3953 176.685 71.246 178.033C69.1331 179.344 66.6376 180 63.7596 180ZM70.6449 162.24C70.572 161.366 70.2806 160.474 69.7706 159.563C69.2606 158.652 68.4591 157.887 67.3662 157.268C66.3097 156.612 64.98 156.284 63.3771 156.284C61.5921 156.284 60.0438 156.831 58.7323 157.923C57.4573 159.016 56.583 160.455 56.1094 162.24H70.6449Z" fill="#3C4043"/>
<path d="M90.8857 180C88.9549 180 87.2062 179.617 85.6398 178.852C84.1097 178.051 82.8893 176.958 81.9786 175.574C81.1042 174.153 80.6671 172.55 80.6671 170.765C80.6671 167.923 81.7236 165.683 83.8365 164.044C85.9859 162.404 88.6999 161.585 91.9786 161.585C94.8565 161.585 97.3155 162.077 99.3556 163.06V161.913C99.3556 160.273 98.6999 158.925 97.3884 157.869C96.1133 156.776 94.5651 156.23 92.7436 156.23C89.9749 156.23 87.7527 157.359 86.0769 159.617L81.4868 156.448C82.7618 154.736 84.3465 153.424 86.2409 152.514C88.1716 151.603 90.3392 151.148 92.7436 151.148C96.7144 151.148 99.7746 152.149 101.924 154.153C104.11 156.12 105.203 158.907 105.203 162.514V179.126H99.3556V175.792H99.0277C98.1534 177.031 97.0423 178.051 95.6944 178.852C94.3465 179.617 92.7436 180 90.8857 180ZM91.8693 175.027C93.2172 175.027 94.4558 174.699 95.5851 174.044C96.7509 173.352 97.6616 172.459 98.3174 171.366C99.0095 170.237 99.3556 169.035 99.3556 167.76C97.4248 166.703 95.3665 166.175 93.1807 166.175C91.1771 166.175 89.6106 166.612 88.4813 167.486C87.352 168.361 86.7873 169.472 86.7873 170.82C86.7873 172.058 87.2791 173.078 88.2627 173.88C89.2828 174.645 90.4849 175.027 91.8693 175.027Z" fill="#3C4043"/>
<path d="M111.549 152.022H117.232V156.066H117.56C118.142 154.681 119.199 153.534 120.729 152.623C122.259 151.676 123.826 151.202 125.428 151.202C126.74 151.202 127.815 151.384 128.652 151.749V158.033C127.414 157.413 126.03 157.104 124.499 157.104C122.532 157.104 120.875 157.869 119.527 159.399C118.215 160.893 117.56 162.732 117.56 164.918V179.126H111.549V152.022Z" fill="#3C4043"/>
<path d="M133.054 152.022H138.737V155.628H139.065C139.867 154.317 141.033 153.242 142.563 152.404C144.093 151.566 145.75 151.148 147.535 151.148C150.887 151.148 153.419 152.131 155.131 154.098C156.88 156.066 157.754 158.78 157.754 162.24V179.126H151.743V163.06C151.743 158.798 149.757 156.667 145.787 156.667C143.783 156.667 142.162 157.468 140.923 159.071C139.685 160.674 139.065 162.568 139.065 164.754V179.126H133.054V152.022Z" fill="#3C4043"/>
</g>
<defs>
<linearGradient id="paint0_linear_1847_1944" x1="166" y1="179" x2="498.307" y2="135.685" gradientUnits="userSpaceOnUse">
<stop offset="0.130208" stop-color="#33CC00"/>
<stop offset="0.385417" stop-color="#3399FF"/>
<stop offset="0.625" stop-color="#0066FF"/>
<stop offset="0.869792" stop-color="#9933FF"/>
</linearGradient>
<clipPath id="clip0_1847_1944">
<rect width="640" height="320" fill="white"/>
</clipPath>
<clipPath id="clip1_1847_1944">
<rect width="65" height="34" fill="white" transform="translate(425 221)"/>
</clipPath>
</defs>
</svg>
