<svg width="320" height="160" viewBox="0 0 320 160" fill="none" xmlns="http://www.w3.org/2000/svg">
<g clip-path="url(#clip0_2212_59095)">
<g clip-path="url(#clip1_2212_59095)">
<path d="M320 0H0V160H320V0Z" fill="#303136"/>
<path d="M140.857 195.992C157.876 196.546 176.239 195.272 195.156 191.936C240.967 183.859 279.589 165.53 301.629 143.917M140.857 195.992C89.368 194.319 50.1725 175.925 45.1269 147.311C38.4137 109.238 94.6995 67.49 170.844 54.0635C246.99 40.637 314.16 60.6165 320.873 98.689C323.547 113.857 316.224 129.607 301.629 143.917M140.857 195.992C168.051 239.747 203.579 264.495 230.883 254.557C267.211 241.335 275.224 171.715 248.779 99.0585C245.852 91.017 242.625 83.275 239.152 75.883M140.857 195.992C135.873 187.974 131.17 179.317 126.848 170.117M126.848 170.117C123.375 162.725 120.148 154.983 117.221 146.941C90.7765 74.2845 98.7885 4.66551 135.117 -8.55695C167.425 -20.3159 211.247 16.4884 239.152 75.883M126.848 170.117C133.524 174.821 140.589 179.343 148 183.622C214.961 222.281 284.913 226.48 304.243 193C311.944 179.663 310.449 162.357 301.629 143.917M126.848 170.117C73.2015 132.323 44.5658 82.775 61.7565 53C81.0865 19.5195 151.039 23.7183 218 62.378C225.411 66.657 232.475 71.179 239.152 75.883M239.152 75.883C268.767 96.7475 290.76 121.193 301.629 143.917M323 123C323 200.32 260.32 263 183 263C105.68 263 43 200.32 43 123C43 45.6802 105.68 -17 183 -17C260.32 -17 323 45.6802 323 123ZM253.71 193.71C199.037 248.384 123.057 261.047 84.005 221.995C44.9527 182.942 57.616 106.963 112.289 52.2895C166.963 -2.38408 242.942 -15.0474 281.995 24.0051C321.047 63.0575 308.384 139.037 253.71 193.71Z" stroke="#324347"/>
<path d="M220.929 114.122H221.877L226.346 124.617H225.263L224.179 122.112H218.627L217.544 124.617H216.461L220.929 114.122ZM220.252 127.562C221.02 127.562 221.663 127.822 222.182 128.341C222.701 128.86 222.961 129.503 222.961 130.271C222.961 130.677 222.876 131.066 222.707 131.439C222.538 131.811 222.295 132.133 221.979 132.403L220.963 133.351L223.096 135.484L225.229 133.385L226.008 134.13L223.875 136.263L225.771 138.159L225.026 138.903L223.13 137.008L221.336 138.802C221.042 139.095 220.721 139.321 220.371 139.479C220.021 139.637 219.632 139.716 219.203 139.716C218.481 139.716 217.86 139.456 217.341 138.937C216.822 138.418 216.562 137.786 216.562 137.041C216.562 136.658 216.636 136.285 216.782 135.924C216.929 135.563 217.16 135.258 217.476 135.01L219.406 133.216L218.323 132.166C218.052 131.918 217.849 131.63 217.713 131.303C217.578 130.976 217.51 130.643 217.51 130.304C217.51 129.537 217.775 128.888 218.306 128.358C218.836 127.827 219.485 127.562 220.252 127.562ZM220.151 133.995L218.221 135.755C218.041 135.913 217.899 136.105 217.798 136.33C217.696 136.556 217.646 136.793 217.646 137.041C217.646 137.493 217.804 137.871 218.12 138.176C218.436 138.48 218.819 138.633 219.271 138.633C219.519 138.633 219.745 138.576 219.948 138.463C220.151 138.35 220.343 138.204 220.523 138.023L222.351 136.229L220.151 133.995ZM220.219 128.612C219.767 128.612 219.383 128.775 219.067 129.103C218.751 129.43 218.594 129.819 218.594 130.271C218.594 130.496 218.633 130.711 218.712 130.914C218.791 131.117 218.909 131.286 219.067 131.422L220.185 132.607L221.166 131.659C221.392 131.478 221.567 131.269 221.691 131.032C221.815 130.795 221.877 130.553 221.877 130.304C221.877 129.83 221.719 129.43 221.403 129.103C221.087 128.775 220.692 128.612 220.219 128.612ZM221.336 115.747L219.101 121.062H223.705L221.471 115.747H221.336ZM236.028 113.784C236.119 113.987 236.203 114.184 236.282 114.376C236.361 114.568 236.423 114.777 236.469 115.002L235.284 115.341L241.107 115.307V116.39H239.346C239.098 117.316 238.709 118.173 238.178 118.963C237.648 119.753 237.044 120.464 236.367 121.096C237.021 121.615 237.721 122.038 238.466 122.366C239.211 122.693 239.978 122.958 240.768 123.161L240.531 124.177C239.628 123.974 238.765 123.663 237.941 123.246C237.117 122.828 236.344 122.326 235.622 121.739C234.9 122.349 234.104 122.845 233.235 123.229C232.367 123.613 231.469 123.929 230.544 124.177L230.307 123.195C231.142 122.992 231.949 122.721 232.728 122.383C233.506 122.044 234.245 121.615 234.945 121.096C234.268 120.442 233.676 119.719 233.168 118.929C232.66 118.14 232.304 117.293 232.101 116.39H229.935V115.307L235.013 115.341C234.968 115.16 234.917 114.974 234.86 114.782C234.804 114.59 234.731 114.404 234.64 114.224L236.028 113.784ZM239.786 128.442L240.565 129.187L230.984 138.734L230.239 138.023L239.786 128.442ZM232.135 129.018C232.474 129.018 232.756 129.131 232.982 129.357C233.207 129.582 233.32 129.864 233.32 130.203C233.32 130.541 233.207 130.824 232.982 131.049C232.756 131.275 232.474 131.388 232.135 131.388C231.797 131.388 231.515 131.275 231.289 131.049C231.063 130.824 230.95 130.541 230.95 130.203C230.95 129.864 231.063 129.582 231.289 129.357C231.515 129.131 231.797 129.018 232.135 129.018ZM233.151 116.39C233.331 117.203 233.636 117.953 234.065 118.642C234.494 119.33 235.024 119.934 235.656 120.453C236.288 119.934 236.83 119.324 237.281 118.625C237.732 117.925 238.06 117.18 238.263 116.39H233.151ZM238.906 135.789C239.245 135.789 239.527 135.902 239.752 136.127C239.978 136.353 240.091 136.635 240.091 136.974C240.091 137.312 239.978 137.594 239.752 137.82C239.527 138.046 239.245 138.159 238.906 138.159C238.567 138.159 238.285 138.046 238.06 137.82C237.834 137.594 237.721 137.312 237.721 136.974C237.721 136.635 237.834 136.353 238.06 136.127C238.285 135.902 238.567 135.789 238.906 135.789Z" fill="#99DD33"/>
<path d="M130.5 19.725L125.575 14.8L126.125 14.275L130.5 18.65L139.85 9.27502L140.425 9.82502L130.5 19.725Z" fill="#FF66CC"/>
<path d="M254.487 18.4C250.952 19.3327 246.829 19.75 243 19.75C239.171 19.75 235.047 19.3327 231.512 18.4L230.825 21.1C233.329 21.7873 236.225 22.2291 238.925 22.45V40H241.625V31.9H244.325V40H247.025V22.45C249.725 22.2291 252.622 21.7628 255.125 21.1L254.487 18.4ZM243 18.4C244.497 18.4 245.7 17.1972 245.7 15.7C245.7 14.2027 244.497 13 243 13C241.502 13 240.3 14.2272 240.3 15.7C240.3 17.1727 241.527 18.4 243 18.4Z" stroke="#3399FF" stroke-width="1.3"/>
<path d="M96.575 129.35C95.7415 129.35 95.0335 129.1 94.45 128.6C93.8665 128.1 93.4165 127.417 93.1 126.55C92.8335 125.85 92.5165 125.267 92.15 124.8C91.7835 124.334 91.1585 123.742 90.275 123.025C89.2415 122.209 88.479 121.313 87.9875 120.338C87.496 119.363 87.25 118.242 87.25 116.975C87.25 115.159 87.846 113.654 89.0375 112.463C90.229 111.271 91.7335 110.675 93.55 110.675C95.25 110.675 96.6835 111.192 97.85 112.225C99.0165 113.259 99.675 114.592 99.825 116.225H99.275C99.125 114.759 98.5125 113.559 97.4375 112.625C96.3625 111.692 95.0665 111.225 93.55 111.225C91.9335 111.225 90.571 111.779 89.4625 112.888C88.354 113.996 87.8 115.359 87.8 116.975C87.8 118.192 88.079 119.288 88.6375 120.263C89.196 121.238 89.9415 122.084 90.875 122.8C91.575 123.334 92.1165 123.854 92.5 124.363C92.8835 124.871 93.25 125.534 93.6 126.35C93.9165 127.1 94.3125 127.696 94.7875 128.138C95.2625 128.579 95.8585 128.8 96.575 128.8C97.1915 128.8 97.7415 128.609 98.225 128.225C98.7085 127.842 99.0415 127.359 99.225 126.775H99.825C99.6415 127.525 99.254 128.142 98.6625 128.625C98.071 129.109 97.375 129.35 96.575 129.35ZM85.7 123.7C84.9 122.784 84.279 121.75 83.8375 120.6C83.396 119.45 83.175 118.234 83.175 116.95C83.175 115.667 83.396 114.438 83.8375 113.263C84.279 112.088 84.9 111.05 85.7 110.15L86.1 110.475C85.3335 111.375 84.746 112.371 84.3375 113.463C83.929 114.554 83.725 115.717 83.725 116.95C83.725 118.15 83.9335 119.296 84.35 120.388C84.7665 121.479 85.35 122.475 86.1 123.375L85.7 123.7ZM93.55 118.925C93 118.925 92.5375 118.738 92.1625 118.363C91.7875 117.988 91.6 117.525 91.6 116.975C91.6 116.425 91.7875 115.959 92.1625 115.575C92.5375 115.192 93 115 93.55 115C94.1 115 94.5625 115.192 94.9375 115.575C95.3125 115.959 95.5 116.425 95.5 116.975C95.5 117.525 95.3125 117.988 94.9375 118.363C94.5625 118.738 94.1 118.925 93.55 118.925Z" fill="#3399FF"/>
<path d="M284 95.25L283.575 94.85C281.925 93.35 280.567 92.0625 279.5 90.9875C278.434 89.9125 277.588 88.971 276.963 88.1625C276.338 87.354 275.904 86.629 275.663 85.9875C275.421 85.346 275.3 84.7085 275.3 84.075C275.3 82.9085 275.696 81.929 276.488 81.1375C277.279 80.346 278.259 79.95 279.425 79.95C280.325 79.95 281.163 80.2 281.938 80.7C282.713 81.2 283.4 81.9335 284 82.9C284.634 81.9165 285.329 81.179 286.088 80.6875C286.846 80.196 287.675 79.95 288.575 79.95C289.742 79.95 290.721 80.346 291.513 81.1375C292.304 81.929 292.7 82.9085 292.7 84.075C292.7 84.7085 292.579 85.346 292.338 85.9875C292.096 86.629 291.663 87.354 291.038 88.1625C290.413 88.971 289.567 89.9125 288.5 90.9875C287.434 92.0625 286.075 93.35 284.425 94.85L284 95.25ZM284 94.5C285.617 93.0165 286.95 91.75 288 90.7C289.05 89.65 289.884 88.7335 290.5 87.95C291.117 87.1665 291.546 86.471 291.788 85.8625C292.029 85.254 292.15 84.6585 292.15 84.075C292.15 83.0585 291.809 82.2085 291.125 81.525C290.442 80.8415 289.592 80.5 288.575 80.5C287.742 80.5 286.979 80.7415 286.288 81.225C285.596 81.7085 284.917 82.4835 284.25 83.55H283.75C283.067 82.4835 282.379 81.7085 281.688 81.225C280.996 80.7415 280.242 80.5 279.425 80.5C278.425 80.5 277.579 80.8415 276.888 81.525C276.196 82.2085 275.85 83.0665 275.85 84.1C275.85 84.6835 275.971 85.275 276.213 85.875C276.454 86.475 276.879 87.1665 277.488 87.95C278.096 88.7335 278.929 89.65 279.988 90.7C281.046 91.75 282.384 93.0165 284 94.5Z" fill="#FF66CC"/>
<path d="M146.5 122.825C147.417 122.825 148.2 122.496 148.85 121.838C149.5 121.179 149.825 120.4 149.825 119.5C149.825 118.584 149.496 117.8 148.838 117.15C148.179 116.5 147.4 116.175 146.5 116.175C145.583 116.175 144.8 116.504 144.15 117.163C143.5 117.821 143.175 118.6 143.175 119.5C143.175 120.417 143.504 121.2 144.163 121.85C144.821 122.5 145.6 122.825 146.5 122.825ZM146.5 122.225C145.733 122.225 145.088 121.959 144.563 121.425C144.038 120.892 143.775 120.25 143.775 119.5C143.775 118.734 144.042 118.088 144.575 117.563C145.108 117.038 145.75 116.775 146.5 116.775C147.267 116.775 147.913 117.042 148.438 117.575C148.963 118.109 149.225 118.75 149.225 119.5C149.225 120.267 148.958 120.913 148.425 121.438C147.892 121.963 147.25 122.225 146.5 122.225ZM146.5 125.7C144.433 125.7 142.542 125.138 140.825 124.013C139.108 122.888 137.8 121.384 136.9 119.5C137.8 117.617 139.108 116.113 140.825 114.988C142.542 113.863 144.433 113.3 146.5 113.3C148.567 113.3 150.458 113.863 152.175 114.988C153.892 116.113 155.2 117.617 156.1 119.5C155.2 121.384 153.892 122.888 152.175 124.013C150.458 125.138 148.567 125.7 146.5 125.7ZM146.5 125.15C148.433 125.15 150.204 124.642 151.813 123.625C153.421 122.609 154.65 121.234 155.5 119.5C154.65 117.767 153.421 116.392 151.813 115.375C150.204 114.359 148.433 113.85 146.5 113.85C144.567 113.85 142.796 114.359 141.188 115.375C139.579 116.392 138.35 117.767 137.5 119.5C138.35 121.234 139.579 122.609 141.188 123.625C142.796 124.642 144.567 125.15 146.5 125.15Z" fill="#FF66CC"/>
<path d="M90.4604 69.9869H93.9484L101.278 89.4979H97.9269L96.1554 84.5109H88.2804L86.5089 89.4979H83.1299L90.4604 69.9869ZM95.1199 81.6769L93.0489 75.8729L92.2859 73.6109H92.1224L91.3594 75.8729L89.2884 81.6769H95.1199ZM109.337 89.9339C107.992 89.9339 106.784 89.6249 105.712 89.0074C104.641 88.3899 103.805 87.5359 103.205 86.4459C102.606 85.3379 102.306 84.1024 102.306 82.7399C102.306 81.3594 102.606 80.1239 103.205 79.0339C103.805 77.9439 104.641 77.0899 105.712 76.4724C106.784 75.8549 107.992 75.5459 109.337 75.5459C110.826 75.5459 112.089 75.8999 113.124 76.6084C114.178 77.2989 114.941 78.2164 115.413 79.3609L112.661 80.5054C112.007 79.0339 110.863 78.2979 109.228 78.2979C108.537 78.2979 107.892 78.4889 107.293 78.8704C106.693 79.2339 106.212 79.7514 105.849 80.4234C105.485 81.0959 105.304 81.8679 105.304 82.7399C105.304 83.6119 105.485 84.3839 105.849 85.0559C106.212 85.7284 106.693 86.2549 107.293 86.6364C107.892 86.9999 108.537 87.1814 109.228 87.1814C110.063 87.1814 110.79 86.9909 111.408 86.6094C112.025 86.2099 112.498 85.6464 112.825 84.9199L115.522 86.0919C114.996 87.2359 114.205 88.1624 113.152 88.8709C112.098 89.5794 110.826 89.9339 109.337 89.9339ZM124.216 89.9339C122.872 89.9339 121.664 89.6249 120.592 89.0074C119.52 88.3899 118.684 87.5359 118.085 86.4459C117.485 85.3379 117.186 84.1024 117.186 82.7399C117.186 81.3594 117.485 80.1239 118.085 79.0339C118.684 77.9439 119.52 77.0899 120.592 76.4724C121.664 75.8549 122.872 75.5459 124.216 75.5459C125.706 75.5459 126.968 75.8999 128.004 76.6084C129.057 77.2989 129.82 78.2164 130.293 79.3609L127.541 80.5054C126.887 79.0339 125.742 78.2979 124.107 78.2979C123.417 78.2979 122.772 78.4889 122.172 78.8704C121.573 79.2339 121.091 79.7514 120.728 80.4234C120.365 81.0959 120.183 81.8679 120.183 82.7399C120.183 83.6119 120.365 84.3839 120.728 85.0559C121.091 85.7284 121.573 86.2549 122.172 86.6364C122.772 86.9999 123.417 87.1814 124.107 87.1814C124.943 87.1814 125.669 86.9909 126.287 86.6094C126.905 86.2099 127.377 85.6464 127.704 84.9199L130.402 86.0919C129.875 87.2359 129.085 88.1624 128.031 88.8709C126.977 89.5794 125.706 89.9339 124.216 89.9339ZM139.041 89.9339C137.715 89.9339 136.516 89.6249 135.444 89.0074C134.39 88.3899 133.564 87.5359 132.964 86.4459C132.365 85.3379 132.065 84.1024 132.065 82.7399C132.065 81.4319 132.346 80.2329 132.91 79.1429C133.491 78.0349 134.299 77.1629 135.335 76.5269C136.37 75.8729 137.551 75.5459 138.877 75.5459C140.24 75.5459 141.421 75.8454 142.42 76.4449C143.437 77.0444 144.209 77.8804 144.736 78.9519C145.263 80.0059 145.526 81.2229 145.526 82.6034C145.526 82.7669 145.517 82.9304 145.499 83.0939C145.481 83.2574 145.472 83.3484 145.472 83.3664H135.062C135.153 84.6019 135.598 85.5559 136.398 86.2279C137.197 86.8999 138.105 87.2359 139.123 87.2359C140.685 87.2359 141.884 86.5094 142.72 85.0559L145.281 86.2824C144.682 87.3904 143.846 88.2809 142.774 88.9529C141.72 89.6069 140.476 89.9339 139.041 89.9339ZM142.474 81.0774C142.438 80.6414 142.293 80.1964 142.038 79.7424C141.784 79.2884 141.384 78.9069 140.839 78.5979C140.312 78.2709 139.649 78.1074 138.85 78.1074C137.96 78.1074 137.188 78.3799 136.534 78.9249C135.898 79.4699 135.462 80.1874 135.226 81.0774H142.474ZM153.359 89.9339C151.815 89.9339 150.534 89.5794 149.517 88.8709C148.518 88.1444 147.809 87.2359 147.391 86.1459L150.062 85.0014C150.371 85.7464 150.816 86.3094 151.397 86.6909C151.997 87.0724 152.651 87.2634 153.359 87.2634C154.104 87.2634 154.713 87.1269 155.185 86.8544C155.657 86.5639 155.893 86.1914 155.893 85.7374C155.893 85.3014 155.703 84.9469 155.321 84.6744C154.94 84.3839 154.313 84.1294 153.441 83.9114L151.588 83.4754C150.571 83.2394 149.689 82.8034 148.945 82.1674C148.218 81.5134 147.855 80.6689 147.855 79.6334C147.855 78.3799 148.372 77.3899 149.408 76.6629C150.443 75.9184 151.715 75.5459 153.223 75.5459C154.476 75.5459 155.585 75.8094 156.547 76.3359C157.528 76.8629 158.237 77.6259 158.673 78.6249L156.03 79.7424C155.775 79.1794 155.385 78.7614 154.858 78.4889C154.331 78.2164 153.759 78.0799 153.141 78.0799C152.542 78.0799 152.015 78.2164 151.561 78.4889C151.106 78.7434 150.879 79.0884 150.879 79.5244C150.879 79.9059 151.034 80.2149 151.343 80.4509C151.67 80.6869 152.178 80.8869 152.869 81.0504L154.885 81.5409C156.248 81.8859 157.265 82.4129 157.937 83.1214C158.609 83.8119 158.945 84.6474 158.945 85.6284C158.945 86.4279 158.7 87.1544 158.21 87.8084C157.737 88.4624 157.074 88.9799 156.22 89.3614C155.385 89.7434 154.431 89.9339 153.359 89.9339ZM166.482 89.9339C164.938 89.9339 163.657 89.5794 162.64 88.8709C161.641 88.1444 160.932 87.2359 160.514 86.1459L163.185 85.0014C163.494 85.7464 163.939 86.3094 164.52 86.6909C165.12 87.0724 165.774 87.2634 166.482 87.2634C167.227 87.2634 167.835 87.1269 168.308 86.8544C168.78 86.5639 169.016 86.1914 169.016 85.7374C169.016 85.3014 168.826 84.9469 168.444 84.6744C168.063 84.3839 167.436 84.1294 166.564 83.9114L164.711 83.4754C163.693 83.2394 162.812 82.8034 162.068 82.1674C161.341 81.5134 160.978 80.6689 160.978 79.6334C160.978 78.3799 161.495 77.3899 162.531 76.6629C163.566 75.9184 164.838 75.5459 166.346 75.5459C167.599 75.5459 168.707 75.8094 169.67 76.3359C170.651 76.8629 171.36 77.6259 171.796 78.6249L169.153 79.7424C168.898 79.1794 168.508 78.7614 167.981 78.4889C167.454 78.2164 166.882 78.0799 166.264 78.0799C165.665 78.0799 165.138 78.2164 164.684 78.4889C164.229 78.7434 164.002 79.0884 164.002 79.5244C164.002 79.9059 164.157 80.2149 164.466 80.4509C164.793 80.6869 165.301 80.8869 165.992 81.0504L168.008 81.5409C169.371 81.8859 170.388 82.4129 171.06 83.1214C171.732 83.8119 172.068 84.6474 172.068 85.6284C172.068 86.4279 171.823 87.1544 171.333 87.8084C170.86 88.4624 170.197 88.9799 169.343 89.3614C168.508 89.7434 167.554 89.9339 166.482 89.9339ZM176.202 73.6929C175.639 73.6929 175.157 73.5019 174.758 73.1204C174.376 72.7209 174.185 72.2394 174.185 71.6764C174.185 71.1134 174.376 70.6409 174.758 70.2594C175.157 69.8599 175.639 69.6599 176.202 69.6599C176.765 69.6599 177.237 69.8599 177.619 70.2594C178.019 70.6409 178.218 71.1134 178.218 71.6764C178.218 72.2394 178.019 72.7209 177.619 73.1204C177.237 73.5019 176.765 73.6929 176.202 73.6929ZM174.703 75.9819H177.701V89.4979H174.703V75.9819ZM188.765 89.9339C187.784 89.9339 186.903 89.7249 186.122 89.3069C185.359 88.8894 184.787 88.3624 184.405 87.7264H184.242V89.4979H181.408V69.9869H184.405V75.8454L184.242 77.7259H184.405C184.787 77.1084 185.359 76.5904 186.122 76.1724C186.903 75.7549 187.784 75.5459 188.765 75.5459C189.928 75.5459 191 75.8549 191.981 76.4724C192.98 77.0899 193.77 77.9529 194.351 79.0609C194.951 80.1509 195.251 81.3774 195.251 82.7399C195.251 84.1024 194.951 85.3284 194.351 86.4184C193.77 87.5084 192.98 88.3714 191.981 89.0074C191 89.6249 189.928 89.9339 188.765 89.9339ZM188.247 87.1814C188.956 87.1814 189.61 86.9999 190.209 86.6364C190.827 86.2734 191.318 85.7554 191.681 85.0834C192.062 84.3929 192.253 83.6119 192.253 82.7399C192.253 81.8679 192.062 81.0959 191.681 80.4234C191.318 79.7334 190.827 79.2064 190.209 78.8429C189.61 78.4799 188.956 78.2979 188.247 78.2979C187.539 78.2979 186.876 78.4799 186.258 78.8429C185.659 79.2064 185.168 79.7244 184.787 80.3964C184.423 81.0684 184.242 81.8499 184.242 82.7399C184.242 83.6299 184.423 84.4114 184.787 85.0834C185.168 85.7554 185.659 86.2734 186.258 86.6364C186.876 86.9999 187.539 87.1814 188.247 87.1814ZM199.547 73.6929C198.984 73.6929 198.503 73.5019 198.103 73.1204C197.721 72.7209 197.531 72.2394 197.531 71.6764C197.531 71.1134 197.721 70.6409 198.103 70.2594C198.503 69.8599 198.984 69.6599 199.547 69.6599C200.11 69.6599 200.583 69.8599 200.964 70.2594C201.364 70.6409 201.564 71.1134 201.564 71.6764C201.564 72.2394 201.364 72.7209 200.964 73.1204C200.583 73.5019 200.11 73.6929 199.547 73.6929ZM198.048 75.9819H201.046V89.4979H198.048V75.9819ZM204.753 69.9869H207.75V89.4979H204.753V69.9869ZM212.966 73.6929C212.403 73.6929 211.922 73.5019 211.522 73.1204C211.141 72.7209 210.95 72.2394 210.95 71.6764C210.95 71.1134 211.141 70.6409 211.522 70.2594C211.922 69.8599 212.403 69.6599 212.966 69.6599C213.53 69.6599 214.002 69.8599 214.383 70.2594C214.783 70.6409 214.983 71.1134 214.983 71.6764C214.983 72.2394 214.783 72.7209 214.383 73.1204C214.002 73.5019 213.53 73.6929 212.966 73.6929ZM211.468 75.9819H214.465V89.4979H211.468V75.9819ZM223.598 89.7159C222.999 89.7159 222.435 89.6249 221.909 89.4434C221.4 89.2434 220.973 88.9709 220.628 88.6259C219.847 87.8629 219.456 86.7999 219.456 85.4374V78.6249H217.085V75.9819H219.456V71.9489H222.454V75.9819H225.751V78.6249H222.454V84.7834C222.454 85.5284 222.599 86.0554 222.89 86.3639C223.162 86.7274 223.607 86.9089 224.225 86.9089C224.752 86.9089 225.269 86.7549 225.778 86.4459V89.3614C225.142 89.5979 224.416 89.7159 223.598 89.7159ZM232.882 88.7349L227.242 75.9819H230.593L234.354 85.0559H234.49L238.114 75.9819H241.439L232.991 95.3839H229.83L232.882 88.7349ZM243.788 75.8999V69.9869H246.84V75.8999L246.513 83.1484H244.087L243.788 75.8999ZM245.314 89.6614C244.732 89.6614 244.233 89.4614 243.815 89.0619C243.415 88.6439 243.215 88.1444 243.215 87.5629C243.215 86.9819 243.415 86.4914 243.815 86.0919C244.233 85.6919 244.732 85.4924 245.314 85.4924C245.895 85.4924 246.385 85.6919 246.785 86.0919C247.185 86.4914 247.385 86.9819 247.385 87.5629C247.385 88.1444 247.185 88.6439 246.785 89.0619C246.385 89.4614 245.895 89.6614 245.314 89.6614Z" fill="url(#paint0_linear_2212_59095)"/>
<path d="M12 70H15.0601V86.6395H23.4481V89.563H12V70Z" fill="white"/>
<path d="M31.8802 90C30.5506 90 29.3484 89.6905 28.2737 89.071C27.2172 88.4515 26.3884 87.5955 25.7874 86.5025C25.1863 85.3915 24.8857 84.153 24.8857 82.787C24.8857 81.4755 25.168 80.273 25.7327 79.1805C26.3156 78.069 27.1261 77.195 28.1644 76.5575C29.2027 75.9015 30.3866 75.574 31.7163 75.574C33.0824 75.574 34.2664 75.8745 35.2682 76.4755C36.2883 77.0765 37.0624 77.9145 37.5906 78.989C38.1189 80.0455 38.383 81.266 38.383 82.6505C38.383 82.814 38.3739 82.978 38.3557 83.142C38.3374 83.306 38.3283 83.397 38.3283 83.4155H27.8912C27.9823 84.654 28.4285 85.61 29.23 86.284C30.0314 86.958 30.9422 87.295 31.9622 87.295C33.5287 87.295 34.7309 86.5665 35.5688 85.1095L38.1371 86.339C37.536 87.45 36.6981 88.3425 35.6234 89.0165C34.567 89.672 33.3192 90 31.8802 90ZM35.3229 81.12C35.2864 80.683 35.1407 80.237 34.8857 79.7815C34.6307 79.326 34.23 78.9435 33.6835 78.634C33.1553 78.306 32.4904 78.142 31.689 78.142C30.7965 78.142 30.0223 78.4155 29.3666 78.9615C28.7291 79.508 28.2919 80.2275 28.0551 81.12H35.3229Z" fill="white"/>
<path d="M45.4433 90C44.4779 90 43.6035 89.8085 42.8203 89.426C42.0553 89.0255 41.4451 88.479 40.9897 87.787C40.5525 87.0765 40.334 86.275 40.334 85.3825C40.334 83.9615 40.8622 82.8415 41.9187 82.022C42.9934 81.202 44.3504 80.7925 45.9897 80.7925C47.4287 80.7925 48.6582 81.0385 49.6782 81.53V80.9565C49.6782 80.1365 49.3504 79.4625 48.6946 78.9345C48.0571 78.388 47.283 78.115 46.3722 78.115C44.9879 78.115 43.8768 78.6795 43.0389 79.8085L40.7438 78.224C41.3813 77.368 42.1737 76.712 43.1209 76.257C44.0862 75.8015 45.17 75.574 46.3722 75.574C48.3576 75.574 49.8877 76.0745 50.9624 77.0765C52.0554 78.06 52.6019 79.4535 52.6019 81.257V89.563H49.6782V87.896H49.5143C49.0771 88.5155 48.5216 89.0255 47.8476 89.426C47.1737 89.8085 46.3722 90 45.4433 90ZM45.9351 87.5135C46.609 87.5135 47.2283 87.3495 47.793 87.022C48.3759 86.676 48.8312 86.2295 49.1591 85.683C49.5052 85.1185 49.6782 84.5175 49.6782 83.88C48.7128 83.3515 47.6837 83.0875 46.5908 83.0875C45.589 83.0875 44.8057 83.306 44.2411 83.743C43.6764 84.1805 43.3941 84.736 43.3941 85.41C43.3941 86.029 43.64 86.539 44.1318 86.94C44.6418 87.3225 45.2429 87.5135 45.9351 87.5135Z" fill="white"/>
<path d="M55.7744 76.011H58.6159V78.033H58.7799C59.0709 77.3405 59.5994 76.767 60.3644 76.3115C61.1294 75.838 61.9129 75.601 62.7139 75.601C63.3699 75.601 63.9074 75.692 64.3259 75.8745V79.0165C63.7069 78.7065 63.0149 78.552 62.2494 78.552C61.2659 78.552 60.4374 78.9345 59.7634 79.6995C59.1074 80.4465 58.7799 81.366 58.7799 82.459V89.563H55.7744V76.011Z" fill="white"/>
<path d="M66.5273 76.011H69.3688V77.814H69.5328C69.9338 77.1585 70.5168 76.621 71.2818 76.202C72.0468 75.783 72.8753 75.574 73.7678 75.574C75.4438 75.574 76.7098 76.0655 77.5658 77.049C78.4403 78.033 78.8773 79.39 78.8773 81.12V89.563H75.8718V81.53C75.8718 79.399 74.8788 78.3335 72.8938 78.3335C71.8918 78.3335 71.0813 78.734 70.4618 79.5355C69.8428 80.337 69.5328 81.284 69.5328 82.377V89.563H66.5273V76.011Z" fill="white"/>
</g>
</g>
<defs>
<linearGradient id="paint0_linear_2212_59095" x1="82.9984" y1="89.4979" x2="249.152" y2="67.8404" gradientUnits="userSpaceOnUse">
<stop offset="0.130208" stop-color="#33CC00"/>
<stop offset="0.385417" stop-color="#359BFF"/>
<stop offset="0.625" stop-color="#359BFF"/>
<stop offset="0.869792" stop-color="#D36DFF"/>
</linearGradient>
<clipPath id="clip0_2212_59095">
<rect width="320" height="160" fill="white"/>
</clipPath>
<clipPath id="clip1_2212_59095">
<rect width="320" height="160" fill="white"/>
</clipPath>
</defs>
</svg>
