<svg width="238" height="40" viewBox="0 0 238 40" fill="none" xmlns="http://www.w3.org/2000/svg">
<g style="mix-blend-mode:darken">
<path d="M78.4618 9.48899H81.9498L89.28 29H85.9283L84.157 24.0132H76.2818L74.5105 29H71.1315L78.4618 9.48899ZM83.1215 21.1792L81.0505 15.375L80.2875 13.1132H80.124L79.361 15.375L77.29 21.1792H83.1215ZM97.3385 29.436C95.9942 29.436 94.7861 29.1272 93.7142 28.5095C92.6424 27.8918 91.8067 27.038 91.2072 25.948C90.6077 24.8398 90.308 23.6045 90.308 22.242C90.308 20.8613 90.6077 19.626 91.2072 18.536C91.8067 17.446 92.6424 16.5922 93.7142 15.9745C94.7861 15.3568 95.9942 15.048 97.3385 15.048C98.8282 15.048 100.091 15.4022 101.126 16.1107C102.18 16.8011 102.943 17.7185 103.415 18.863L100.663 20.0075C100.009 18.536 98.8645 17.8002 97.2295 17.8002C96.5392 17.8002 95.8943 17.991 95.2948 18.3725C94.6953 18.7358 94.2138 19.2536 93.8505 19.9257C93.4872 20.5979 93.3055 21.37 93.3055 22.242C93.3055 23.114 93.4872 23.8861 93.8505 24.5582C94.2138 25.2304 94.6953 25.7572 95.2948 26.1387C95.8943 26.5021 96.5392 26.6837 97.2295 26.6837C98.0652 26.6837 98.7918 26.493 99.4095 26.1115C100.027 25.7118 100.5 25.1487 100.827 24.422L103.524 25.5937C102.997 26.7382 102.207 27.6647 101.154 28.3732C100.1 29.0818 98.8282 29.436 97.3385 29.436ZM112.218 29.436C110.873 29.436 109.665 29.1272 108.594 28.5095C107.522 27.8918 106.686 27.038 106.087 25.948C105.487 24.8398 105.187 23.6045 105.187 22.242C105.187 20.8613 105.487 19.626 106.087 18.536C106.686 17.446 107.522 16.5922 108.594 15.9745C109.665 15.3568 110.873 15.048 112.218 15.048C113.707 15.048 114.97 15.4022 116.006 16.1107C117.059 16.8011 117.822 17.7185 118.295 18.863L115.542 20.0075C114.888 18.536 113.744 17.8002 112.109 17.8002C111.418 17.8002 110.774 17.991 110.174 18.3725C109.575 18.7358 109.093 19.2536 108.73 19.9257C108.366 20.5979 108.185 21.37 108.185 22.242C108.185 23.114 108.366 23.8861 108.73 24.5582C109.093 25.2304 109.575 25.7572 110.174 26.1387C110.774 26.5021 111.418 26.6837 112.109 26.6837C112.944 26.6837 113.671 26.493 114.289 26.1115C114.906 25.7118 115.379 25.1487 115.706 24.422L118.404 25.5937C117.877 26.7382 117.086 27.6647 116.033 28.3732C114.979 29.0818 113.707 29.436 112.218 29.436ZM127.043 29.436C125.716 29.436 124.517 29.1272 123.446 28.5095C122.392 27.8918 121.565 27.038 120.966 25.948C120.366 24.8398 120.067 23.6045 120.067 22.242C120.067 20.934 120.348 19.735 120.911 18.645C121.493 17.5368 122.301 16.6648 123.337 16.029C124.372 15.375 125.553 15.048 126.879 15.048C128.242 15.048 129.422 15.3477 130.422 15.9472C131.439 16.5467 132.211 17.3824 132.738 18.4542C133.265 19.5079 133.528 20.7251 133.528 22.1057C133.528 22.2692 133.519 22.4327 133.501 22.5962C133.483 22.7597 133.474 22.8506 133.474 22.8687H123.064C123.155 24.1041 123.6 25.0578 124.399 25.73C125.199 26.4022 126.107 26.7382 127.124 26.7382C128.687 26.7382 129.886 26.0116 130.721 24.5582L133.283 25.7845C132.683 26.8927 131.848 27.7828 130.776 28.455C129.722 29.109 128.478 29.436 127.043 29.436ZM130.476 20.5797C130.44 20.1437 130.294 19.6987 130.04 19.2445C129.786 18.7903 129.386 18.4088 128.841 18.1C128.314 17.773 127.651 17.6095 126.852 17.6095C125.962 17.6095 125.19 17.882 124.536 18.427C123.9 18.972 123.464 19.6896 123.228 20.5797H130.476ZM141.361 29.436C139.817 29.436 138.536 29.0818 137.519 28.3732C136.52 27.6466 135.811 26.7382 135.393 25.6482L138.064 24.5037C138.373 25.2486 138.818 25.8117 139.399 26.1932C139.998 26.5747 140.652 26.7655 141.361 26.7655C142.106 26.7655 142.714 26.6292 143.187 26.3567C143.659 26.0661 143.895 25.6937 143.895 25.2395C143.895 24.8035 143.704 24.4492 143.323 24.1767C142.941 23.8861 142.315 23.6317 141.443 23.4137L139.59 22.9777C138.572 22.7416 137.691 22.3056 136.946 21.6697C136.22 21.0157 135.856 20.171 135.856 19.1355C135.856 17.882 136.374 16.8919 137.41 16.1652C138.445 15.4204 139.717 15.048 141.225 15.048C142.478 15.048 143.586 15.3114 144.549 15.8382C145.53 16.3651 146.239 17.1281 146.675 18.1272L144.031 19.2445C143.777 18.6813 143.387 18.2635 142.86 17.991C142.333 17.7185 141.761 17.5822 141.143 17.5822C140.543 17.5822 140.017 17.7185 139.562 17.991C139.108 18.2453 138.881 18.5905 138.881 19.0265C138.881 19.408 139.036 19.7168 139.344 19.953C139.671 20.1892 140.18 20.389 140.87 20.5525L142.887 21.043C144.249 21.3882 145.267 21.915 145.939 22.6235C146.611 23.3138 146.947 24.1495 146.947 25.1305C146.947 25.9298 146.702 26.6565 146.211 27.3105C145.739 27.9645 145.076 28.4822 144.222 28.8637C143.387 29.2453 142.433 29.436 141.361 29.436ZM154.484 29.436C152.94 29.436 151.659 29.0818 150.642 28.3732C149.642 27.6466 148.934 26.7382 148.516 25.6482L151.187 24.5037C151.495 25.2486 151.941 25.8117 152.522 26.1932C153.121 26.5747 153.775 26.7655 154.484 26.7655C155.229 26.7655 155.837 26.6292 156.31 26.3567C156.782 26.0661 157.018 25.6937 157.018 25.2395C157.018 24.8035 156.827 24.4492 156.446 24.1767C156.064 23.8861 155.438 23.6317 154.566 23.4137L152.713 22.9777C151.695 22.7416 150.814 22.3056 150.069 21.6697C149.343 21.0157 148.979 20.171 148.979 19.1355C148.979 17.882 149.497 16.8919 150.533 16.1652C151.568 15.4204 152.84 15.048 154.348 15.048C155.601 15.048 156.709 15.3114 157.672 15.8382C158.653 16.3651 159.362 17.1281 159.798 18.1272L157.154 19.2445C156.9 18.6813 156.509 18.2635 155.983 17.991C155.456 17.7185 154.884 17.5822 154.266 17.5822C153.666 17.5822 153.14 17.7185 152.685 17.991C152.231 18.2453 152.004 18.5905 152.004 19.0265C152.004 19.408 152.159 19.7168 152.467 19.953C152.794 20.1892 153.303 20.389 153.993 20.5525L156.01 21.043C157.372 21.3882 158.39 21.915 159.062 22.6235C159.734 23.3138 160.07 24.1495 160.07 25.1305C160.07 25.9298 159.825 26.6565 159.334 27.3105C158.862 27.9645 158.199 28.4822 157.345 28.8637C156.509 29.2453 155.556 29.436 154.484 29.436ZM164.204 13.195C163.641 13.195 163.159 13.0042 162.76 12.6227C162.378 12.2231 162.187 11.7417 162.187 11.1785C162.187 10.6153 162.378 10.143 162.76 9.76149C163.159 9.36182 163.641 9.16199 164.204 9.16199C164.767 9.16199 165.239 9.36182 165.621 9.76149C166.02 10.143 166.22 10.6153 166.22 11.1785C166.22 11.7417 166.02 12.2231 165.621 12.6227C165.239 13.0042 164.767 13.195 164.204 13.195ZM162.705 15.484H165.703V29H162.705V15.484ZM176.767 29.436C175.786 29.436 174.905 29.2271 174.124 28.8092C173.361 28.3914 172.789 27.8646 172.407 27.2287H172.244V29H169.41V9.48899H172.407V15.3477L172.244 17.228H172.407C172.789 16.6103 173.361 16.0926 174.124 15.6747C174.905 15.2569 175.786 15.048 176.767 15.048C177.93 15.048 179.002 15.3568 179.983 15.9745C180.982 16.5922 181.772 17.4551 182.353 18.5632C182.953 19.6532 183.253 20.8795 183.253 22.242C183.253 23.6045 182.953 24.8307 182.353 25.9207C181.772 27.0107 180.982 27.8737 179.983 28.5095C179.002 29.1272 177.93 29.436 176.767 29.436ZM176.249 26.6837C176.958 26.6837 177.612 26.5021 178.211 26.1387C178.829 25.7754 179.319 25.2577 179.683 24.5855C180.064 23.8952 180.255 23.114 180.255 22.242C180.255 21.37 180.064 20.5979 179.683 19.9257C179.319 19.2354 178.829 18.7086 178.211 18.3452C177.612 17.9819 176.958 17.8002 176.249 17.8002C175.541 17.8002 174.878 17.9819 174.26 18.3452C173.661 18.7086 173.17 19.2263 172.789 19.8985C172.425 20.5707 172.244 21.3518 172.244 22.242C172.244 23.1322 172.425 23.9133 172.789 24.5855C173.17 25.2577 173.661 25.7754 174.26 26.1387C174.878 26.5021 175.541 26.6837 176.249 26.6837ZM187.549 13.195C186.986 13.195 186.504 13.0042 186.105 12.6227C185.723 12.2231 185.533 11.7417 185.533 11.1785C185.533 10.6153 185.723 10.143 186.105 9.76149C186.504 9.36182 186.986 9.16199 187.549 9.16199C188.112 9.16199 188.585 9.36182 188.966 9.76149C189.366 10.143 189.566 10.6153 189.566 11.1785C189.566 11.7417 189.366 12.2231 188.966 12.6227C188.585 13.0042 188.112 13.195 187.549 13.195ZM186.05 15.484H189.048V29H186.05V15.484ZM192.755 9.48899H195.752V29H192.755V9.48899ZM200.968 13.195C200.405 13.195 199.924 13.0042 199.524 12.6227C199.142 12.2231 198.952 11.7417 198.952 11.1785C198.952 10.6153 199.142 10.143 199.524 9.76149C199.924 9.36182 200.405 9.16199 200.968 9.16199C201.531 9.16199 202.004 9.36182 202.385 9.76149C202.785 10.143 202.985 10.6153 202.985 11.1785C202.985 11.7417 202.785 12.2231 202.385 12.6227C202.004 13.0042 201.531 13.195 200.968 13.195ZM199.469 15.484H202.467V29H199.469V15.484ZM211.6 29.218C211 29.218 210.437 29.1272 209.91 28.9455C209.402 28.7457 208.975 28.4732 208.63 28.128C207.849 27.365 207.458 26.3022 207.458 24.9397V18.1272H205.087V15.484H207.458V11.451H210.455V15.484H213.753V18.1272H210.455V24.2857C210.455 25.0306 210.601 25.5574 210.891 25.8662C211.164 26.2296 211.609 26.4112 212.227 26.4112C212.754 26.4112 213.271 26.2568 213.78 25.948V28.8637C213.144 29.0999 212.417 29.218 211.6 29.218ZM220.884 28.237L215.243 15.484H218.595L222.356 24.5582H222.492L226.116 15.484H229.441L220.993 34.886H217.832L220.884 28.237ZM231.79 15.4022V9.48899H234.842V15.4022L234.515 22.6507H232.089L231.79 15.4022ZM233.316 29.1635C232.734 29.1635 232.235 28.9637 231.817 28.564C231.417 28.1462 231.217 27.6466 231.217 27.0652C231.217 26.4839 231.417 25.9934 231.817 25.5937C232.235 25.1941 232.734 24.9942 233.316 24.9942C233.897 24.9942 234.387 25.1941 234.787 25.5937C235.187 25.9934 235.387 26.4839 235.387 27.0652C235.387 27.6466 235.187 28.1462 234.787 28.564C234.387 28.9637 233.897 29.1635 233.316 29.1635Z" fill="url(#paint0_linear_1864_2567)"/>
</g>
<path d="M0 9.5H3.06011V26.1394H11.4481V29.0629H0L0 9.5Z" fill="#3C4043"/>
<path d="M19.8798 29.5C18.5501 29.5 17.348 29.1904 16.2733 28.5711C15.2168 27.9517 14.388 27.0956 13.7869 26.0027C13.1858 24.8916 12.8853 23.653 12.8853 22.2869C12.8853 20.9754 13.1676 19.7732 13.7323 18.6803C14.3152 17.5692 15.1257 16.6949 16.164 16.0574C17.2022 15.4016 18.3862 15.0738 19.7159 15.0738C21.082 15.0738 22.266 15.3743 23.2678 15.9754C24.2879 16.5765 25.062 17.4144 25.5902 18.4891C26.1185 19.5455 26.3826 20.7659 26.3826 22.1503C26.3826 22.3142 26.3735 22.4782 26.3552 22.6421C26.337 22.806 26.3279 22.8971 26.3279 22.9153H15.8908C15.9818 24.1539 16.4281 25.1102 17.2296 25.7842C18.031 26.4581 18.9418 26.7951 19.9618 26.7951C21.5283 26.7951 22.7305 26.0665 23.5684 24.6093L26.1367 25.8388C25.5356 26.9499 24.6977 27.8425 23.623 28.5164C22.5665 29.1721 21.3188 29.5 19.8798 29.5ZM23.3225 20.6202C23.286 20.1831 23.1403 19.7368 22.8853 19.2814C22.6303 18.8261 22.2296 18.4435 21.6831 18.1339C21.1549 17.806 20.49 17.6421 19.6886 17.6421C18.796 17.6421 18.0219 17.9153 17.3662 18.4618C16.7286 19.0082 16.2915 19.7277 16.0547 20.6202H23.3225Z" fill="#3C4043"/>
<path d="M33.4429 29.5C32.4775 29.5 31.6031 29.3088 30.8199 28.9262C30.0549 28.5255 29.4447 27.9791 28.9893 27.2869C28.5521 26.5765 28.3336 25.7751 28.3336 24.8825C28.3336 23.4618 28.8618 22.3415 29.9183 21.5219C30.9929 20.7022 32.35 20.2924 33.9893 20.2924C35.4283 20.2924 36.6578 20.5383 37.6778 21.0301V20.4563C37.6778 19.6366 37.35 18.9627 36.6942 18.4344C36.0567 17.888 35.2826 17.6148 34.3718 17.6148C32.9875 17.6148 31.8764 18.1794 31.0385 19.3087L28.7434 17.724C29.3809 16.8679 30.1733 16.2122 31.1204 15.7568C32.0858 15.3015 33.1696 15.0738 34.3718 15.0738C36.3572 15.0738 37.8873 15.5747 38.962 16.5765C40.0549 17.5601 40.6013 18.9536 40.6013 20.7568V29.0629H37.6778V27.3962H37.5139C37.0767 28.0155 36.5212 28.5255 35.8472 28.9262C35.1733 29.3088 34.3718 29.5 33.4429 29.5ZM33.9347 27.0137C34.6086 27.0137 35.2279 26.8497 35.7926 26.5219C36.3755 26.1758 36.8308 25.7295 37.1587 25.1831C37.5048 24.6184 37.6778 24.0173 37.6778 23.3798C36.7124 22.8516 35.6833 22.5874 34.5904 22.5874C33.5886 22.5874 32.8053 22.806 32.2407 23.2432C31.676 23.6803 31.3937 24.2359 31.3937 24.9098C31.3937 25.5292 31.6396 26.0392 32.1314 26.4399C32.6414 26.8224 33.2425 27.0137 33.9347 27.0137Z" fill="#3C4043"/>
<path d="M43.7744 15.5109H46.6159V17.5328H46.7798C47.0713 16.8406 47.5995 16.2669 48.3645 15.8115C49.1296 15.3379 49.9128 15.1011 50.7143 15.1011C51.37 15.1011 51.9073 15.1922 52.3263 15.3743V18.5164C51.707 18.2067 51.0148 18.0519 50.2498 18.0519C49.2662 18.0519 48.4374 18.4344 47.7634 19.1995C47.1077 19.9463 46.7798 20.8661 46.7798 21.959V29.0629H43.7744V15.5109Z" fill="#3C4043"/>
<path d="M54.5272 15.5109H57.3688V17.3142H57.5327C57.9334 16.6585 58.5163 16.1211 59.2813 15.7022C60.0464 15.2832 60.8751 15.0738 61.7677 15.0738C63.4434 15.0738 64.7094 15.5656 65.5655 16.5492C66.4398 17.5328 66.877 18.8898 66.877 20.6202V29.0629H63.8715V21.0301C63.8715 18.8989 62.8788 17.8333 60.8933 17.8333C59.8915 17.8333 59.081 18.2341 58.4617 19.0355C57.8423 19.837 57.5327 20.7842 57.5327 21.8771V29.0629H54.5272V15.5109Z" fill="#3C4043"/>
<defs>
<linearGradient id="paint0_linear_1864_2567" x1="71.0008" y1="29" x2="237.637" y2="7.21421" gradientUnits="userSpaceOnUse">
<stop offset="0.130208" stop-color="#33CC00"/>
<stop offset="0.385417" stop-color="#3399FF"/>
<stop offset="0.625" stop-color="#0066FF"/>
<stop offset="0.869792" stop-color="#9933FF"/>
</linearGradient>
</defs>
</svg>
