<svg id="Layer_1" data-name="Layer 1" xmlns="http://www.w3.org/2000/svg" xmlns:xlink="http://www.w3.org/1999/xlink" viewBox="0 0 70 58"><defs><clipPath id="clip-path"><path d="M32.027 52.567a6.467 6.467 0 01.545 3.08 8.518 8.518 0 01-2.122.24 14.078 14.078 0 01-5.902-.209c-3.882-.823-5.677-4.966-5.677-4.966s.038-.037.112-.1a.883.883 0 00-.37-.033 24.798 24.798 0 01-5.723.433c-1.91 0-9.465-2.869-11.9-5.945 0 0 3.78-.923 3.78-1.703S.452 41.142.452 41.142s-.654-3.599 3.974-7.192a28.282 28.282 0 018.05-4.742c-2.404-.321-9.2-3.026-11.486-5.913 0 0 3.78-.923 3.78-1.703S.452 19.37.452 19.37s-.654-3.599 3.974-7.193 8.092-5.3 11.984-5.499 5.197-.2 5.197-.2 3.388-4.574 5.168-4.574c.89 0 13.927 2.77 15.056 4.574a4.676 4.676 0 002.256 2.105c.577.433.214.087 2.829.671 6.541 1.462 5.65 2.035 10.51 2.923 1.966.36 10.98-4.07 11.831-3.64.396.2.707 4.01-.84 6.509s1.241 4.561-.012 7.69 1.435 5.445.852 6.504-10.155-3.465-11.832-3.138c-1.5.292-5.762 2.296-14.086 3.828a8.158 8.158 0 01.748.426c.577.432.213.087 2.829.671 6.541 1.462 5.649 2.035 10.51 2.923 1.966.36 10.98-4.07 11.831-3.64.396.2.707 4.01-.841 6.508s1.242 4.562-.01 7.69 1.434 5.446.85 6.505-10.154-3.466-11.83-3.138-6.8 2.79-17.185 4.345a42.08 42.08 0 01-8.214.347z" clip-rule="evenodd" fill="none"/></clipPath><clipPath id="clip-path-2"><path class="cls-2" d="M27.245 12.044a835.386 835.386 0 014.573.248c.998.057 1.834.11 2.476.154a81.997 81.997 0 018.987 1.296 60.67 60.67 0 0113.576 4.665l1.946.866a.715.715 0 00.958-.463.862.862 0 00-.413-1.073L57.4 16.87a61.882 61.882 0 00-13.86-4.756 83.196 83.196 0 00-9.154-1.318 223.98 223.98 0 00-2.492-.155l-1.109-.063a840.811 840.811 0 00-4.617-.244l-.32-.016-.114-.005a.823.823 0 00-.687 1.207l.061.137a22.695 22.695 0 01.7 1.812 16.398 16.398 0 01.605 2.263c.048.266.085.52.11.763a12.637 12.637 0 01-.432 3.45 42.137 42.137 0 01-.423 1.702 58.225 58.225 0 01-.812 2.742l-.055.17-.02.057a.859.859 0 00.432 1.064.717.717 0 00.95-.483l.022-.065.059-.18a60.455 60.455 0 00.838-2.829 44.13 44.13 0 00.44-1.775 13.834 13.834 0 00.468-4.039q-.045-.44-.13-.908a18.153 18.153 0 00-.67-2.517 25.45 25.45 0 00-.309-.859z"/></clipPath><clipPath id="clip-path-3"><path class="cls-2" d="M.449 1.904h69.202V56.18H.449z"/></clipPath><clipPath id="clip-path-4"><path class="cls-2" d="M27.254 21.553q.146-.58.268-1.13a14.185 14.185 0 00.468-4.091q-.045-.446-.13-.92a18.577 18.577 0 00-.67-2.55c-.1-.298-.204-.59-.309-.87l.364.02a826.102 826.102 0 014.574.25c.997.059 1.833.112 2.476.157a81.018 81.018 0 018.987 1.312 60.142 60.142 0 0113.575 4.725l1.946.877a.713.713 0 00.958-.468.878.878 0 00-.413-1.087c-.033-.015-1.515-.684-1.948-.878a61.344 61.344 0 00-13.86-4.817 82.203 82.203 0 00-9.154-1.336c-.649-.045-1.49-.098-2.492-.157l-1.109-.064a831.486 831.486 0 00-4.617-.246l-.32-.017-.114-.005a.834.834 0 00-.687 1.223l.061.138a23.25 23.25 0 01.7 1.835 16.78 16.78 0 01.605 2.293c.048.27.085.527.11.773a12.957 12.957 0 01-.432 3.494c-.11.492-.235 1.007-.374 1.539z"/></clipPath><clipPath id="clip-path-5"><path class="cls-2" d="M.449 1.796h69.202v54.976H.449z"/></clipPath><clipPath id="clip-path-6"><path class="cls-2" d="M21.226 12.316c.011.019.036.06.07.121a17.257 17.257 0 01.815 1.632 11.7 11.7 0 01.739 2.231 5.612 5.612 0 01.129 1.13 9.721 9.721 0 01-.584 3.092 13.293 13.293 0 01-.54 1.327 3.256 3.256 0 01-.044.09.778.778 0 00.258 1.01.649.649 0 00.924-.282c.046-.09.122-.246.216-.46.156-.352.311-.743.456-1.165a11.25 11.25 0 00.67-3.614 7.194 7.194 0 00-.162-1.456 13.212 13.212 0 00-.836-2.538 18.817 18.817 0 00-.98-1.937.644.644 0 00-.94-.209.784.784 0 00-.191 1.028z"/></clipPath><clipPath id="clip-path-8"><path class="cls-3" d="M23.513 21.553q.077-.208.152-.427a11.55 11.55 0 00.67-3.664 7.393 7.393 0 00-.162-1.477 13.53 13.53 0 00-.835-2.574 19.118 19.118 0 00-.98-1.963.64.64 0 00-.94-.212.802.802 0 00-.192 1.04l.07.124a17.627 17.627 0 01.815 1.655 11.98 11.98 0 01.74 2.262 5.767 5.767 0 01.128 1.145 9.98 9.98 0 01-.584 3.136c-.116.343-.24.663-.364.955z"/></clipPath><clipPath id="clip-path-9"><path class="cls-2" d="M27.245 34.071a818.397 818.397 0 014.573.248c.998.058 1.834.11 2.476.154a82 82 0 018.987 1.296 60.67 60.67 0 0113.576 4.665l1.946.867a.715.715 0 00.958-.463.862.862 0 00-.413-1.074c-.033-.014-1.515-.675-1.948-.866a61.88 61.88 0 00-13.86-4.756 83.192 83.192 0 00-9.154-1.318 223.98 223.98 0 00-2.492-.156l-1.109-.062a858.696 858.696 0 00-4.617-.244l-.32-.016-.114-.006a.823.823 0 00-.687 1.208l.061.137a22.695 22.695 0 01.7 1.812 16.398 16.398 0 01.605 2.263c.048.265.085.52.11.763a12.637 12.637 0 01-.432 3.45 42.178 42.178 0 01-.423 1.702 58.225 58.225 0 01-.812 2.741l-.055.17-.02.057a.859.859 0 00.432 1.065.717.717 0 00.95-.483l.022-.065.059-.18a60.455 60.455 0 00.838-2.829 44.13 44.13 0 00.44-1.775 13.834 13.834 0 00.467-4.039q-.044-.44-.13-.908a18.154 18.154 0 00-.67-2.517 25.45 25.45 0 00-.308-.86z"/></clipPath><clipPath id="clip-path-11"><path class="cls-2" d="M27.254 43.459q.146-.572.268-1.117a13.834 13.834 0 00.468-4.038q-.045-.44-.13-.909a18.154 18.154 0 00-.67-2.516 25.45 25.45 0 00-.309-.86l.364.02a818.397 818.397 0 014.574.247c.997.058 1.833.11 2.476.154a82 82 0 018.987 1.296 60.67 60.67 0 0113.575 4.665l1.946.867a.715.715 0 00.958-.463.862.862 0 00-.413-1.073c-.033-.015-1.515-.676-1.948-.867a61.88 61.88 0 00-13.86-4.756 83.192 83.192 0 00-9.155-1.318 223.98 223.98 0 00-2.49-.155l-1.11-.063a858.696 858.696 0 00-4.617-.244l-.321-.016-.114-.006a.823.823 0 00-.687 1.208l.062.137a22.695 22.695 0 01.7 1.812 16.398 16.398 0 01.604 2.263c.05.265.086.52.11.763a12.637 12.637 0 01-.432 3.45c-.109.485-.234.994-.373 1.52z"/></clipPath><clipPath id="clip-path-13"><path class="cls-3" d="M23.513 43.459q.077-.205.152-.422a11.25 11.25 0 00.67-3.613 7.195 7.195 0 00-.162-1.457 13.213 13.213 0 00-.835-2.538 18.817 18.817 0 00-.98-1.936.644.644 0 00-.94-.21.784.784 0 00-.192 1.027c.011.02.036.06.07.122a17.257 17.257 0 01.815 1.632 11.7 11.7 0 01.74 2.23 5.612 5.612 0 01.128 1.13 9.721 9.721 0 01-.584 3.093c-.116.338-.24.654-.364.942z"/></clipPath><linearGradient id="New_Gradient_Swatch_1" x1="34.057" y1="1.904" x2="34.057" y2="21.653" gradientUnits="userSpaceOnUse"><stop offset="0" stop-color="#e559ff"/><stop offset="1" stop-color="#924dff"/></linearGradient><linearGradient id="New_Gradient_Swatch_2" x1="17.168" y1="11.682" x2="46.06" y2="30.967" gradientUnits="userSpaceOnUse"><stop offset="0" stop-color="#f1a5ff"/><stop offset="1" stop-color="#ff686c"/></linearGradient><linearGradient id="linear-gradient" x1="35.22" y1="27.024" x2="35.22" y2="43.9" gradientUnits="userSpaceOnUse"><stop offset="0" stop-color="#6f3cff"/><stop offset="1" stop-color="#3633ff"/></linearGradient><linearGradient id="New_Gradient_Swatch_2-2" x1="28.82" y1="41.374" x2="40.705" y2="55.625" xlink:href="#New_Gradient_Swatch_2"/><style>.cls-2{fill:none}.cls-3{fill:#f1a5ff}.cls-21{fill-rule:evenodd}.cls-10{clip-path:url(#clip-path-3)}.cls-11{fill:#974dff}.cls-18{fill:#373fff}.cls-21,.cls-22{fill:#fff}</style></defs><g style="isolation:isolate" clip-path="url(#clip-path)"><path fill="url(#New_Gradient_Swatch_1)" d="M-1.402 1.904h70.918v19.87H-1.402z"/><path fill="url(#New_Gradient_Swatch_2)" d="M61.469 31.062l8.111-1.112.183-2.604v-5.772l-.632-2.031H42.683v2.031H.449v5.772l5.704 1.88 21.604 1.836h4.707"/><path fill="url(#linear-gradient)" fill-rule="evenodd" d="M27.757 27.346H52.35v2.649l17.64-.047v11.475H33.354v2.036H.449V29.948l10.262-.737 17.046.132v-1.997z"/><g class="cls-10" clip-path="url(#clip-path-2)"><path class="cls-11" d="M23.856 9.536h36.806v17.131H23.856z"/></g><g clip-path="url(#clip-path-4)"><g clip-path="url(#clip-path-5)"><path class="cls-3" d="M24.195 9.355h36.467v13.057H24.195z"/></g></g><g class="cls-10" clip-path="url(#clip-path-6)"><path class="cls-11" d="M20.294 10.384h4.919v13.569h-4.919z"/></g><path class="cls-3" d="M23.513 21.553q.077-.208.152-.427a11.55 11.55 0 00.67-3.664 7.393 7.393 0 00-.162-1.477 13.53 13.53 0 00-.835-2.574 19.118 19.118 0 00-.98-1.963.64.64 0 00-.94-.212.802.802 0 00-.192 1.04l.07.124a17.627 17.627 0 01.815 1.655 11.98 11.98 0 01.74 2.262 5.767 5.767 0 01.128 1.145 9.98 9.98 0 01-.584 3.136c-.116.343-.24.663-.364.955z"/><g clip-path="url(#clip-path-8)"><path class="cls-3" d="M.449 1.775h69.202v55.034H.449z"/></g><path fill="url(#New_Gradient_Swatch_2-2)" d="M69.601 56.18H.399V43.459h32.905l-.002-2.07h36.299V56.18z"/><g class="cls-10" clip-path="url(#clip-path-9)"><path class="cls-18" d="M23.856 31.416h36.806v17.131H23.856z"/></g><g class="cls-10" clip-path="url(#clip-path-11)"><path class="cls-3" d="M24.195 31.416h36.467v12.89H24.195z"/></g><path class="cls-18" d="M21.226 34.343c.011.02.036.06.07.122a17.257 17.257 0 01.815 1.632 11.7 11.7 0 01.74 2.23 5.612 5.612 0 01.128 1.13 9.721 9.721 0 01-.584 3.093 13.293 13.293 0 01-.54 1.327 3.256 3.256 0 01-.044.09.778.778 0 00.258 1.01.649.649 0 00.924-.282c.046-.09.122-.246.216-.46.156-.352.311-.744.456-1.165a11.25 11.25 0 00.67-3.614A7.195 7.195 0 0024.174 38a13.213 13.213 0 00-.835-2.538 18.817 18.817 0 00-.98-1.937.644.644 0 00-.94-.209.784.784 0 00-.192 1.027z"/><path class="cls-3" d="M23.513 43.459q.077-.205.152-.422a11.25 11.25 0 00.67-3.613 7.195 7.195 0 00-.162-1.457 13.213 13.213 0 00-.835-2.538 18.817 18.817 0 00-.98-1.936.644.644 0 00-.94-.21.784.784 0 00-.192 1.027c.011.02.036.06.07.122a17.257 17.257 0 01.815 1.632 11.7 11.7 0 01.74 2.23 5.612 5.612 0 01.128 1.13 9.721 9.721 0 01-.584 3.093c-.116.338-.24.654-.364.942z"/><g clip-path="url(#clip-path-13)"><path class="cls-3" d="M.449 1.904h69.202V56.18H.449z"/></g></g><circle cx="12.226" cy="16.056" r="3"/><path class="cls-21" d="M9.226 15.817v-.037a3.234 3.234 0 113.232 3.328 2.985 2.985 0 01-3.186-2.766 2.359 2.359 0 002.446 2.073 2.567 2.567 0 10-2.492-2.598z"/><circle class="cls-22" cx="10.519" cy="16.743" r=".824"/><circle cx="12.226" cy="37.987" r="3"/><path class="cls-21" d="M9.226 37.748v-.037a3.234 3.234 0 113.232 3.329 2.985 2.985 0 01-3.186-2.767 2.359 2.359 0 002.445 2.074 2.567 2.567 0 10-2.491-2.599z"/><circle class="cls-22" cx="10.519" cy="38.675" r=".824"/></svg>