<svg width="65" height="65" xmlns="http://www.w3.org/2000/svg" xmlns:xlink="http://www.w3.org/1999/xlink"><defs><rect id="a" x=".758" y=".372" width="64" height="64" rx="32"/><path d="M80.97 162.182C36.25 162.182 0 125.876 0 81.09S36.251 0 80.97 0c44.718 0 80.97 36.306 80.97 81.09 0 44.786-36.252 81.092-80.97 81.092zm0-35.477c25.154 0 45.545-20.422 45.545-45.614 0-25.192-20.391-45.614-45.545-45.614-25.154 0-45.546 20.422-45.546 45.614 0 25.192 20.392 45.614 45.546 45.614z" id="c"/></defs><g fill="none" fill-rule="evenodd"><mask id="b" fill="#fff"><use xlink:href="#a"/></mask><g mask="url(#b)"><g transform="translate(-48.212 -48.552)"><mask id="d" fill="#fff"><use xlink:href="#c"/></mask><path d="M122.234 159.468L38.461 2.028" stroke="#212121" mask="url(#d)"/><path d="M122.234 159.468L38.461 2.028" stroke="#212121" mask="url(#d)" transform="matrix(-1 0 0 1 160.695 0)"/><path d="M168.292 97.152L-7.085 65.886" stroke="#212121" mask="url(#d)"/><path d="M168.292 97.152L-7.085 65.886" stroke="#212121" mask="url(#d)" transform="matrix(-1 0 0 1 161.207 0)"/><path d="M152.897 131.873L7.085 29.395" stroke="#212121" mask="url(#d)"/><path d="M152.897 131.873L7.085 29.395" stroke="#212121" mask="url(#d)" transform="matrix(-1 0 0 1 159.982 0)"/><path d="M80.97-8.11v178.4" stroke="#212121" mask="url(#d)"/><ellipse cx="80.97" cy="81.091" rx="40.485" ry="40.545"/></g><g stroke="#212121"><path d="M32.48 20.355c10.083 0 18.257 8.173 18.257 18.256v3.309H14.225v-3.31c0-10.082 8.173-18.255 18.256-18.255z"/><path d="M39.676 25.555c.618.098 1.032.67.91 1.378l-5.55 15.488.006-.018a3.002 3.002 0 01-3.273 1.897 3.012 3.012 0 01-2.501-3.447c.079-.498.287-.952.582-1.328l8.667-13.38.157-.225a1.107 1.107 0 011.002-.365z" fill="#2979FF" fill-rule="nonzero"/><path d="M20.31 39.311c.11-6.098 5.777-13.72 14.9-11.35" stroke-dasharray="2.304"/></g></g></g></svg>