<svg width="65" height="65" xmlns="http://www.w3.org/2000/svg" xmlns:xlink="http://www.w3.org/1999/xlink"><defs><rect id="a" x=".758" y=".372" width="64" height="64" rx="32"/><path d="M80.97 162.182C36.25 162.182 0 125.876 0 81.09S36.251 0 80.97 0c44.718 0 80.97 36.306 80.97 81.09 0 44.786-36.252 81.092-80.97 81.092zm0-35.477c25.154 0 45.545-20.422 45.545-45.614 0-25.192-20.391-45.614-45.545-45.614-25.154 0-45.546 20.422-45.546 45.614 0 25.192 20.392 45.614 45.546 45.614z" id="c"/></defs><g fill="none" fill-rule="evenodd"><mask id="b" fill="#fff"><use xlink:href="#a"/></mask><g mask="url(#b)"><g transform="translate(-48.212 -48.552)"><mask id="d" fill="#fff"><use xlink:href="#c"/></mask><path d="M122.234 159.468L38.461 2.028" stroke="#212121" mask="url(#d)"/><path d="M122.234 159.468L38.461 2.028" stroke="#212121" mask="url(#d)" transform="matrix(-1 0 0 1 160.695 0)"/><path d="M168.292 97.152L-7.085 65.886" stroke="#212121" mask="url(#d)"/><path d="M168.292 97.152L-7.085 65.886" stroke="#212121" mask="url(#d)" transform="matrix(-1 0 0 1 161.207 0)"/><path d="M152.897 131.873L7.085 29.395" stroke="#212121" mask="url(#d)"/><path d="M152.897 131.873L7.085 29.395" stroke="#212121" mask="url(#d)" transform="matrix(-1 0 0 1 159.982 0)"/><path d="M80.97-8.11v178.4" stroke="#212121" mask="url(#d)"/><ellipse cx="80.97" cy="81.091" rx="40.485" ry="40.545"/></g><g stroke="#212121"><path d="M22.293 46.534V16.787h20.052v29.747H22.293z"/><path d="M22.293 45.777v4.528a1.5 1.5 0 001.5 1.5h17.052a1.5 1.5 0 001.5-1.5v-4.528H22.293zm0-26.476v-4.528a1.5 1.5 0 011.5-1.5h17.052a1.5 1.5 0 011.5 1.5v4.528H22.293z" fill="#2979FF" fill-rule="nonzero"/></g></g></g></svg>