<svg xmlns="http://www.w3.org/2000/svg" width="12" height="12" fill="none" style=""><rect id="backgroundrect" width="100%" height="100%" x="0" y="0" fill="none" stroke="none"/>


<g class="currentLayer" style=""><title>Layer 1</title><path d="M6,0 C2.6899999999999995,0 0,2.6899999999999995 0,6 C0,9.31 2.6899999999999995,12 6,12 C9.309999999999999,12 12,9.31 12,6 H10 C10,8.2091 8.2091,10 6,10 C3.7909000000000006,10 2,8.2091 2,6 C2,3.7909000000000006 3.7909000000000006,2 6,2 C7.275600000000001,2 8.392600000000002,2.6012699999999995 9.125,3.5312 H11.468800000000002 C10.526599999999998,1.4496000000000002 8.430800000000001,0 6,0 z" fill="black" id="svg_1" class=""/><path d="M11.091000000000001,0.8799999999999999 V3.9718 H7.999199999999998 L11.091000000000001,0.8799999999999999 z" fill="black" stroke="black" stroke-width="1.068" id="svg_2" class=""/></g></svg>