<?xml version="1.0" encoding="UTF-8"?>
<svg width="24px" height="24px" viewBox="0 0 24 24" version="1.1" xmlns="http://www.w3.org/2000/svg" xmlns:xlink="http://www.w3.org/1999/xlink">
    <!-- Generator: Sketch 54.1 (76490) - https://sketchapp.com -->
    <title>Artboard</title>
    <desc>Created with Sketch.</desc>
    <g id="Artboard" stroke="none" stroke-width="1" fill="none" fill-rule="evenodd">
        <path d="M13,20 L4,20 C2.9,20 2,19.1 2,18 L2.01,6 C2.01,4.9 2.9,4 4,4 L20,4 C21.1,4 22,4.9 22,6 L22,13 L20,13 L20,8 L12,13 L4,8 L4,18 L13,18 L13,20 Z M12,11 L20,6 L4,6 L12,11 Z M20,18 L23,18 L23,20 L20,20 L20,23 L18,23 L18,20 L15,20 L15,18 L18,18 L18,15 L20,15 L20,18 Z" id="Combined-Shape" fill="#3740FF" fill-rule="nonzero"></path>
    </g>
</svg>