<svg width="320" height="160" viewBox="0 0 320 160" fill="none" xmlns="http://www.w3.org/2000/svg">
<g clip-path="url(#clip0_2212_59146)">
<g clip-path="url(#clip1_2212_59146)">
<path d="M320 0H0V160H320V0Z" fill="#303136"/>
<path d="M197 22.575L191.9 17.475L197.025 12.375L197.4 12.775L192.7 17.475L197.4 22.175L197 22.575ZM204.975 22.6L204.6 22.2L209.3 17.5L204.6 12.775L205 12.375L210.1 17.475L204.975 22.6Z" fill="#33CC00"/>
<path d="M383 19.5H219.5V20.5H383V19.5Z" fill="#66CCFF"/>
<path d="M257.443 37H236V40.8121H257.443V37Z" fill="#CCEEFF"/>
<path d="M268.164 44.812H242.909V48.6241H268.164V44.812Z" fill="#CCEEFF"/>
<path d="M301.5 52.5H250.5V56.5H301.5V52.5Z" fill="#CCEEFF"/>
<path d="M310 60.5H250.5V64.5H310V60.5Z" fill="#CCEEFF"/>
<path d="M372.25 90.75H305.27V130.003H372.25V90.75Z" fill="#CCEEFF" fill-opacity="0.56" stroke="#66CCFF"/>
<path d="M382.75 12.75H219.75V147.25H382.75V12.75Z" stroke="#66CCFF"/>
<path d="M372.25 31.25H230.25V70.25H372.25V31.25Z" stroke="#FF66CC" stroke-dasharray="1.34 1.34"/>
<path d="M292.659 97.5155H235.535V104.865H292.659V97.5155Z" fill="#CCEEFF"/>
<path d="M297.42 90.75H230.44V130.003H297.42V90.75Z" fill="#CCEEFF" fill-opacity="0.56" stroke="#66CCFF"/>
<path d="M280.5 110.5H235.5V112H280.5V110.5Z" fill="#CCEEFF"/>
<path d="M290 114.5H235.5V116H290V114.5Z" fill="#CCEEFF"/>
<path d="M286.5 119H235.5V120.5H286.5V119Z" fill="#CCEEFF"/>
<path d="M291.5 123H235.5V124.5H291.5V123Z" fill="#CCEEFF"/>
<path d="M225.179 18.1791C226.102 18.1791 226.849 17.4313 226.849 16.5088C226.849 15.5863 226.102 14.8385 225.179 14.8385C224.257 14.8385 223.509 15.5863 223.509 16.5088C223.509 17.4313 224.257 18.1791 225.179 18.1791Z" fill="#FFDDEE"/>
<path d="M231.192 18.1791C232.115 18.1791 232.862 17.4313 232.862 16.5088C232.862 15.5863 232.115 14.8385 231.192 14.8385C230.27 14.8385 229.522 15.5863 229.522 16.5088C229.522 17.4313 230.27 18.1791 231.192 18.1791Z" fill="#FFEEDD"/>
<path d="M237.205 18.1791C238.127 18.1791 238.875 17.4313 238.875 16.5088C238.875 15.5863 238.127 14.8385 237.205 14.8385C236.282 14.8385 235.535 15.5863 235.535 16.5088C235.535 17.4313 236.282 18.1791 237.205 18.1791Z" fill="#DDEEDD"/>
<path d="M84.9031 69.989H87.9551V78.082H97.0021V69.989H100.054V89.5H97.0021V80.9705H87.9551V89.5H84.9031V69.989ZM108.472 72.9045H103.022V69.989H116.974V72.9045H111.524V89.5H108.472V72.9045ZM119.957 69.989H124.126L129.713 84.7855H129.876L135.49 69.989H139.632V89.5H136.607V78.5725L136.77 75.0575H136.607L131.021 89.5H128.568L122.982 75.0575H122.818L122.982 78.5725V89.5H119.957V69.989ZM144.044 69.989H147.096V86.584H155.462V89.5H144.044V69.989ZM158.415 75.902V69.989H161.467V75.902L161.14 83.1505H158.715L158.415 75.902ZM159.941 89.6635C159.36 89.6635 158.86 89.4635 158.442 89.064C158.043 88.646 157.843 88.1465 157.843 87.565C157.843 86.984 158.043 86.4935 158.442 86.094C158.86 85.694 159.36 85.4945 159.941 85.4945C160.522 85.4945 161.013 85.694 161.413 86.094C161.812 86.4935 162.012 86.984 162.012 87.565C162.012 88.1465 161.812 88.646 161.413 89.064C161.013 89.4635 160.522 89.6635 159.941 89.6635Z" fill="url(#paint0_linear_2212_59146)"/>
<path d="M12 70H15.0601V86.6395H23.4481V89.563H12V70Z" fill="white"/>
<path d="M31.8798 90C30.5501 90 29.3479 89.6905 28.2732 89.071C27.2168 88.4515 26.388 87.5955 25.7869 86.5025C25.1858 85.3915 24.8853 84.153 24.8853 82.787C24.8853 81.4755 25.1676 80.273 25.7323 79.1805C26.3151 78.069 27.1257 77.195 28.164 76.5575C29.2022 75.9015 30.3862 75.574 31.7159 75.574C33.082 75.574 34.266 75.8745 35.2678 76.4755C36.2878 77.0765 37.0619 77.9145 37.5902 78.989C38.1184 80.0455 38.3825 81.266 38.3825 82.6505C38.3825 82.814 38.3734 82.978 38.3552 83.142C38.337 83.306 38.3279 83.397 38.3279 83.4155H27.8907C27.9818 84.654 28.4281 85.61 29.2295 86.284C30.031 86.958 30.9417 87.295 31.9618 87.295C33.5282 87.295 34.7304 86.5665 35.5683 85.1095L38.1366 86.339C37.5355 87.45 36.6976 88.3425 35.623 89.0165C34.5665 89.672 33.3188 90 31.8798 90ZM35.3224 81.12C35.286 80.683 35.1403 80.237 34.8853 79.7815C34.6303 79.326 34.2295 78.9435 33.6831 78.634C33.1548 78.306 32.49 78.142 31.6885 78.142C30.796 78.142 30.0219 78.4155 29.3661 78.9615C28.7286 79.508 28.2915 80.2275 28.0547 81.12H35.3224Z" fill="white"/>
<path d="M45.4428 90C44.4774 90 43.603 89.8085 42.8198 89.426C42.0548 89.0255 41.4446 88.479 40.9892 87.787C40.552 87.0765 40.3335 86.275 40.3335 85.3825C40.3335 83.9615 40.8617 82.8415 41.9182 82.022C42.9929 81.202 44.3499 80.7925 45.9892 80.7925C47.4282 80.7925 48.6577 81.0385 49.6777 81.53V80.9565C49.6777 80.1365 49.3499 79.4625 48.6941 78.9345C48.0566 78.388 47.2825 78.115 46.3717 78.115C44.9874 78.115 43.8763 78.6795 43.0384 79.8085L40.7433 78.224C41.3808 77.368 42.1732 76.712 43.1204 76.257C44.0857 75.8015 45.1695 75.574 46.3717 75.574C48.3571 75.574 49.8872 76.0745 50.9619 77.0765C52.0549 78.06 52.6014 79.4535 52.6014 81.257V89.563H49.6777V87.896H49.5138C49.0766 88.5155 48.5211 89.0255 47.8471 89.426C47.1732 89.8085 46.3717 90 45.4428 90ZM45.9346 87.5135C46.6085 87.5135 47.2278 87.3495 47.7925 87.022C48.3754 86.676 48.8307 86.2295 49.1586 85.683C49.5047 85.1185 49.6777 84.5175 49.6777 83.88C48.7123 83.3515 47.6832 83.0875 46.5903 83.0875C45.5885 83.0875 44.8052 83.306 44.2406 83.743C43.6759 84.1805 43.3936 84.736 43.3936 85.41C43.3936 86.029 43.6395 86.539 44.1313 86.94C44.6413 87.3225 45.2424 87.5135 45.9346 87.5135Z" fill="white"/>
<path d="M55.7744 76.011H58.6159V78.033H58.7799C59.0709 77.3405 59.5994 76.767 60.3644 76.3115C61.1294 75.838 61.9129 75.601 62.7139 75.601C63.3699 75.601 63.9074 75.692 64.3259 75.8745V79.0165C63.7069 78.7065 63.0149 78.552 62.2494 78.552C61.2659 78.552 60.4374 78.9345 59.7634 79.6995C59.1074 80.4465 58.7799 81.366 58.7799 82.459V89.563H55.7744V76.011Z" fill="white"/>
<path d="M66.5271 76.011H69.3686V77.814H69.5326C69.9336 77.1585 70.5166 76.621 71.2816 76.202C72.0466 75.783 72.8751 75.574 73.7676 75.574C75.4436 75.574 76.7096 76.0655 77.5656 77.049C78.4401 78.033 78.8771 79.39 78.8771 81.12V89.563H75.8716V81.53C75.8716 79.399 74.8786 78.3335 72.8936 78.3335C71.8916 78.3335 71.0811 78.734 70.4616 79.5355C69.8426 80.337 69.5326 81.284 69.5326 82.377V89.563H66.5271V76.011Z" fill="white"/>
</g>
</g>
<defs>
<linearGradient id="paint0_linear_2212_59146" x1="85.5001" y1="89.5" x2="161.565" y2="80.4585" gradientUnits="userSpaceOnUse">
<stop offset="0.0677083" stop-color="#FF3399"/>
<stop offset="0.5" stop-color="#D36DFF"/>
<stop offset="0.942708" stop-color="#359BFF"/>
</linearGradient>
<clipPath id="clip0_2212_59146">
<rect width="320" height="160" fill="white"/>
</clipPath>
<clipPath id="clip1_2212_59146">
<rect width="320" height="160" fill="white"/>
</clipPath>
</defs>
</svg>
