<svg width="640" height="320" viewBox="0 0 640 320" fill="none" xmlns="http://www.w3.org/2000/svg">
<g clip-path="url(#clip0_1847_1884)">
<rect width="640" height="320" fill="white"/>
<path d="M394 45.15L383.8 34.95L394.05 24.75L394.8 25.55L385.4 34.95L394.8 44.35L394 45.15ZM409.95 45.2L409.2 44.4L418.6 35L409.2 25.55L410 24.75L420.2 34.95L409.95 45.2Z" fill="#33CC00"/>
<mask id="path-2-inside-1_1847_1884" fill="white">
<path d="M439 25H766V40H439V25Z"/>
</mask>
<path d="M766 39H439V41H766V39Z" fill="#66CCFF" mask="url(#path-2-inside-1_1847_1884)"/>
<rect x="472" y="74" width="42.8859" height="7.62416" fill="#CCEEFF"/>
<rect x="485.819" y="89.6241" width="50.5101" height="7.62416" fill="#CCEEFF"/>
<rect x="501" y="105" width="102" height="8" fill="#CCEEFF"/>
<rect x="501" y="121" width="119" height="8" fill="#CCEEFF"/>
<rect x="610.539" y="181.5" width="133.961" height="78.5066" fill="#CCEEFF" fill-opacity="0.56" stroke="#66CCFF"/>
<rect x="439.5" y="25.5" width="326" height="269" stroke="#66CCFF"/>
<rect x="460.5" y="62.5" width="284" height="78" stroke="#FF66CC" stroke-dasharray="1.34 1.34"/>
<rect x="471.07" y="195.031" width="114.249" height="14.6987" fill="#CCEEFF"/>
<rect x="460.88" y="181.5" width="133.961" height="78.5066" fill="#CCEEFF" fill-opacity="0.56" stroke="#66CCFF"/>
<rect x="471" y="221" width="90" height="3" fill="#CCEEFF"/>
<rect x="471" y="229" width="109" height="3" fill="#CCEEFF"/>
<rect x="471" y="238" width="102" height="3" fill="#CCEEFF"/>
<rect x="471" y="246" width="112" height="3" fill="#CCEEFF"/>
<circle cx="450.358" cy="33.0175" r="3.34061" fill="#FFDDEE"/>
<circle cx="462.384" cy="33.0175" r="3.34061" fill="#FFEEDD"/>
<circle cx="474.41" cy="33.0175" r="3.34061" fill="#DDEEDD"/>
<g style="mix-blend-mode:darken">
<path d="M169.806 139.978H175.91V156.164H194.004V139.978H200.108V179H194.004V161.941H175.91V179H169.806V139.978ZM216.943 145.809H206.043V139.978H233.947V145.809H223.047V179H216.943V145.809ZM239.914 139.978H248.252L259.425 169.571H259.752L270.979 139.978H279.263V179H273.213V157.145L273.54 150.115H273.213L262.041 179H257.136L245.963 150.115H245.636L245.963 157.145V179H239.914V139.978ZM288.088 139.978H294.192V173.168H310.923V179H288.088V139.978ZM316.83 151.804V139.978H322.934V151.804L322.28 166.301H317.429L316.83 151.804ZM319.882 179.327C318.719 179.327 317.72 178.927 316.884 178.128C316.085 177.292 315.685 176.293 315.685 175.13C315.685 173.968 316.085 172.987 316.884 172.188C317.72 171.388 318.719 170.989 319.882 170.989C321.044 170.989 322.025 171.388 322.825 172.188C323.624 172.987 324.024 173.968 324.024 175.13C324.024 176.293 323.624 177.292 322.825 178.128C322.025 178.927 321.044 179.327 319.882 179.327Z" fill="url(#paint0_linear_1847_1884)"/>
</g>
<path d="M24 140H30.1202V173.279H46.8962V179.126H24V140Z" fill="#3C4043"/>
<path d="M63.7596 180C61.1003 180 58.6959 179.381 56.5465 178.142C54.4336 176.903 52.776 175.191 51.5739 173.005C50.3717 170.783 49.7706 168.306 49.7706 165.574C49.7706 162.951 50.3352 160.546 51.4646 158.361C52.6303 156.138 54.2514 154.39 56.328 153.115C58.4045 151.803 60.7724 151.148 63.4318 151.148C66.164 151.148 68.532 151.749 70.5356 152.951C72.5757 154.153 74.1239 155.829 75.1804 157.978C76.2369 160.091 76.7651 162.532 76.7651 165.301C76.7651 165.628 76.7469 165.956 76.7105 166.284C76.674 166.612 76.6558 166.794 76.6558 166.831H55.7815C55.9637 169.308 56.8562 171.22 58.4591 172.568C60.062 173.916 61.8835 174.59 63.9236 174.59C67.0565 174.59 69.4609 173.133 71.1367 170.219L76.2733 172.678C75.0711 174.9 73.3953 176.685 71.246 178.033C69.1331 179.344 66.6376 180 63.7596 180ZM70.6449 162.24C70.572 161.366 70.2806 160.474 69.7706 159.563C69.2606 158.652 68.4591 157.887 67.3662 157.268C66.3097 156.612 64.98 156.284 63.3771 156.284C61.5921 156.284 60.0438 156.831 58.7323 157.923C57.4573 159.016 56.583 160.455 56.1094 162.24H70.6449Z" fill="#3C4043"/>
<path d="M90.8857 180C88.9549 180 87.2062 179.617 85.6398 178.852C84.1097 178.051 82.8893 176.958 81.9786 175.574C81.1042 174.153 80.6671 172.55 80.6671 170.765C80.6671 167.923 81.7236 165.683 83.8365 164.044C85.9859 162.404 88.6999 161.585 91.9786 161.585C94.8565 161.585 97.3155 162.077 99.3556 163.06V161.913C99.3556 160.273 98.6999 158.925 97.3884 157.869C96.1133 156.776 94.5651 156.23 92.7436 156.23C89.9749 156.23 87.7527 157.359 86.0769 159.617L81.4868 156.448C82.7618 154.736 84.3465 153.424 86.2409 152.514C88.1716 151.603 90.3392 151.148 92.7436 151.148C96.7144 151.148 99.7746 152.149 101.924 154.153C104.11 156.12 105.203 158.907 105.203 162.514V179.126H99.3556V175.792H99.0277C98.1534 177.031 97.0423 178.051 95.6944 178.852C94.3465 179.617 92.7436 180 90.8857 180ZM91.8693 175.027C93.2172 175.027 94.4558 174.699 95.5851 174.044C96.7509 173.352 97.6616 172.459 98.3174 171.366C99.0095 170.237 99.3556 169.035 99.3556 167.76C97.4248 166.703 95.3665 166.175 93.1807 166.175C91.1771 166.175 89.6106 166.612 88.4813 167.486C87.352 168.361 86.7873 169.472 86.7873 170.82C86.7873 172.058 87.2791 173.078 88.2627 173.88C89.2828 174.645 90.4849 175.027 91.8693 175.027Z" fill="#3C4043"/>
<path d="M111.549 152.022H117.232V156.066H117.56C118.142 154.681 119.199 153.534 120.729 152.623C122.259 151.676 123.826 151.202 125.428 151.202C126.74 151.202 127.815 151.384 128.652 151.749V158.033C127.414 157.413 126.03 157.104 124.499 157.104C122.532 157.104 120.875 157.869 119.527 159.399C118.215 160.893 117.56 162.732 117.56 164.918V179.126H111.549V152.022Z" fill="#3C4043"/>
<path d="M133.054 152.022H138.737V155.628H139.065C139.867 154.317 141.033 153.242 142.563 152.404C144.093 151.566 145.75 151.148 147.535 151.148C150.887 151.148 153.419 152.131 155.131 154.098C156.88 156.066 157.754 158.78 157.754 162.24V179.126H151.743V163.06C151.743 158.798 149.757 156.667 145.787 156.667C143.783 156.667 142.162 157.468 140.923 159.071C139.685 160.674 139.065 162.568 139.065 164.754V179.126H133.054V152.022Z" fill="#3C4043"/>
</g>
<defs>
<linearGradient id="paint0_linear_1847_1884" x1="171" y1="179" x2="323.13" y2="160.917" gradientUnits="userSpaceOnUse">
<stop offset="0.0677083" stop-color="#FF3399"/>
<stop offset="0.5" stop-color="#9933FF"/>
<stop offset="0.942708" stop-color="#0066FF"/>
</linearGradient>
<clipPath id="clip0_1847_1884">
<rect width="640" height="320" fill="white"/>
</clipPath>
</defs>
</svg>
