<svg width="152" height="40" viewBox="0 0 152 40" fill="none" xmlns="http://www.w3.org/2000/svg">
<g style="mix-blend-mode:darken">
<path d="M72.9028 9.489H75.9548V17.5822H85.0018V9.489H88.0538V29H85.0018V20.4707H75.9548V29H72.9028V9.489ZM96.4714 12.4047H91.0214V9.489H104.973V12.4047H99.5234V29H96.4714V12.4047ZM107.957 9.489H112.126L117.712 24.2857H117.876L123.489 9.489H127.631V29H124.607V18.0727L124.77 14.5575H124.607L119.02 29H116.568L110.982 14.5575H110.818L110.982 18.0727V29H107.957V9.489ZM132.044 9.489H135.096V26.0842H143.462V29H132.044V9.489ZM146.415 15.4022V9.489H149.467V15.4022L149.14 22.6507H146.715L146.415 15.4022ZM147.941 29.1635C147.36 29.1635 146.86 28.9637 146.442 28.564C146.042 28.1462 145.843 27.6466 145.843 27.0652C145.843 26.4839 146.042 25.9934 146.442 25.5938C146.86 25.1941 147.36 24.9943 147.941 24.9943C148.522 24.9943 149.013 25.1941 149.412 25.5938C149.812 25.9934 150.012 26.4839 150.012 27.0652C150.012 27.6466 149.812 28.1462 149.412 28.564C149.013 28.9637 148.522 29.1635 147.941 29.1635Z" fill="url(#paint0_linear_1864_2563)"/>
</g>
<path d="M0 9.5H3.06011V26.1393H11.4481V29.0628H0L0 9.5Z" fill="#3C4043"/>
<path d="M19.8798 29.5C18.5501 29.5 17.3479 29.1903 16.2733 28.571C15.2168 27.9517 14.388 27.0956 13.7869 26.0027C13.1858 24.8916 12.8853 23.653 12.8853 22.2869C12.8853 20.9754 13.1676 19.7732 13.7323 18.6803C14.3152 17.5692 15.1257 16.6949 16.164 16.0574C17.2022 15.4016 18.3862 15.0738 19.7159 15.0738C21.082 15.0738 22.266 15.3743 23.2678 15.9754C24.2878 16.5765 25.062 17.4144 25.5902 18.4891C26.1184 19.5455 26.3826 20.7659 26.3826 22.1503C26.3826 22.3142 26.3734 22.4781 26.3552 22.6421C26.337 22.806 26.3279 22.8971 26.3279 22.9153H15.8908C15.9818 24.1539 16.4281 25.1102 17.2295 25.7842C18.031 26.4581 18.9418 26.7951 19.9618 26.7951C21.5283 26.7951 22.7305 26.0665 23.5683 24.6093L26.1367 25.8388C25.5356 26.9499 24.6977 27.8424 23.623 28.5164C22.5665 29.1721 21.3188 29.5 19.8798 29.5ZM23.3224 20.6202C23.286 20.1831 23.1403 19.7368 22.8853 19.2814C22.6303 18.826 22.2295 18.4435 21.6831 18.1339C21.1549 17.806 20.49 17.6421 19.6886 17.6421C18.796 17.6421 18.0219 17.9153 17.3662 18.4617C16.7286 19.0082 16.2915 19.7277 16.0547 20.6202H23.3224Z" fill="#3C4043"/>
<path d="M33.4428 29.5C32.4774 29.5 31.6031 29.3087 30.8199 28.9262C30.0549 28.5255 29.4447 27.9791 28.9893 27.2869C28.5521 26.5765 28.3335 25.775 28.3335 24.8825C28.3335 23.4617 28.8618 22.3415 29.9182 21.5219C30.9929 20.7022 32.3499 20.2924 33.9893 20.2924C35.4283 20.2924 36.6578 20.5383 37.6778 21.0301V20.4563C37.6778 19.6366 37.3499 18.9627 36.6942 18.4344C36.0567 17.888 35.2825 17.6148 34.3718 17.6148C32.9875 17.6148 31.8763 18.1794 31.0385 19.3087L28.7434 17.724C29.3809 16.8679 30.1733 16.2122 31.1204 15.7568C32.0858 15.3015 33.1696 15.0738 34.3718 15.0738C36.3572 15.0738 37.8873 15.5747 38.962 16.5765C40.0549 17.5601 40.6013 18.9536 40.6013 20.7568V29.0628H37.6778V27.3962H37.5139C37.0767 28.0155 36.5212 28.5255 35.8472 28.9262C35.1733 29.3087 34.3718 29.5 33.4428 29.5ZM33.9346 27.0137C34.6086 27.0137 35.2279 26.8497 35.7926 26.5219C36.3754 26.1758 36.8308 25.7295 37.1587 25.1831C37.5048 24.6184 37.6778 24.0173 37.6778 23.3798C36.7124 22.8515 35.6833 22.5874 34.5904 22.5874C33.5886 22.5874 32.8053 22.806 32.2406 23.2432C31.676 23.6803 31.3937 24.2359 31.3937 24.9098C31.3937 25.5291 31.6396 26.0392 32.1314 26.4399C32.6414 26.8224 33.2425 27.0137 33.9346 27.0137Z" fill="#3C4043"/>
<path d="M43.7743 15.5109H46.6159V17.5328H46.7798C47.0712 16.8406 47.5995 16.2668 48.3645 15.8115C49.1295 15.3379 49.9128 15.1011 50.7142 15.1011C51.37 15.1011 51.9073 15.1922 52.3262 15.3743V18.5164C51.7069 18.2067 51.0148 18.0519 50.2497 18.0519C49.2661 18.0519 48.4374 18.4344 47.7634 19.1995C47.1077 19.9463 46.7798 20.8661 46.7798 21.959V29.0628H43.7743V15.5109Z" fill="#3C4043"/>
<path d="M54.5272 15.5109H57.3687V17.3142H57.5327C57.9334 16.6585 58.5163 16.1211 59.2813 15.7022C60.0463 15.2832 60.8751 15.0738 61.7676 15.0738C63.4434 15.0738 64.7093 15.5656 65.5654 16.5492C66.4398 17.5328 66.8769 18.8898 66.8769 20.6202V29.0628H63.8715V21.0301C63.8715 18.8989 62.8787 17.8333 60.8933 17.8333C59.8915 17.8333 59.0809 18.2341 58.4616 19.0355C57.8423 19.837 57.5327 20.7842 57.5327 21.8771V29.0628H54.5272V15.5109Z" fill="#3C4043"/>
<defs>
<linearGradient id="paint0_linear_1864_2563" x1="73.5" y1="29" x2="149.565" y2="19.9587" gradientUnits="userSpaceOnUse">
<stop offset="0.0677083" stop-color="#FF3399"/>
<stop offset="0.5" stop-color="#9933FF"/>
<stop offset="0.942708" stop-color="#0066FF"/>
</linearGradient>
</defs>
</svg>
