<svg width="360" height="144" viewBox="0 0 360 144" fill="none" xmlns="http://www.w3.org/2000/svg">
<g clip-path="url(#clip0_820_4945)">
<rect width="360" height="144" fill="white"/>
<g clip-path="url(#clip1_820_4945)">
<path d="M164.652 186.117C183.799 186.739 204.456 185.306 225.737 181.554C277.275 172.466 320.725 151.846 345.521 127.532M164.652 186.117C106.726 184.234 62.6315 163.541 56.9553 131.35C49.4029 88.5179 112.724 41.5511 198.388 26.4464C284.051 11.3416 359.617 33.8187 367.17 76.6504C370.178 93.7134 361.939 111.433 345.521 127.532M164.652 186.117C195.245 235.341 235.214 263.182 265.931 252.002C306.8 237.126 315.814 158.805 286.063 77.0659C282.77 68.0189 279.141 59.3092 275.234 50.9931M164.652 186.117C159.045 177.096 153.754 167.356 148.891 157.007M148.891 157.007C144.984 148.691 141.354 139.981 138.062 130.934C108.311 49.1951 117.325 -29.1263 158.194 -44.0016C194.54 -57.2304 243.84 -15.8256 275.234 50.9931M148.891 157.007C156.403 162.299 164.35 167.386 172.687 172.199C248.018 215.692 326.715 220.416 348.461 182.75C357.124 167.745 355.443 148.277 345.521 127.532M148.891 157.007C88.539 114.488 56.3241 58.7466 75.6634 25.25C97.4096 -12.4156 176.106 -7.69193 251.437 35.8005C259.775 40.6143 267.722 45.7013 275.234 50.9931M275.234 50.9931C308.551 74.4657 333.293 101.968 345.521 127.532M369.562 104C369.562 190.985 299.047 261.5 212.062 261.5C125.078 261.5 54.5625 190.985 54.5625 104C54.5625 17.0152 125.078 -53.5 212.062 -53.5C299.047 -53.5 369.562 17.0152 369.562 104ZM291.612 183.55C230.104 245.057 144.627 259.303 100.693 215.369C56.7593 171.435 71.0055 85.9581 132.513 24.4505C194.021 -37.0571 279.498 -51.3033 323.432 -7.36932C367.366 36.5647 353.12 122.042 291.612 183.55Z" stroke="#AAEEFF" stroke-opacity="0.54"/>
<ellipse cx="212.062" cy="104" rx="157.5" ry="157.5" stroke="#66CCFF" stroke-opacity="0.54"/>
<ellipse cx="212.062" cy="104" rx="112.5" ry="157.5" transform="rotate(45 212.062 104)" stroke="#66CCFF" stroke-opacity="0.54"/>
<ellipse cx="148.5" cy="156.875" rx="15.75" ry="15.75" fill="#33CC00"/>
<rect x="43.875" y="9.5" width="63" height="31.5" rx="15.75" fill="#DDEEDD"/>
<path d="M329.771 111.785L314.021 127.535L329.771 143.285H361.271L377.021 127.535L361.271 111.785H329.771Z" fill="#DDEEDD"/>
<path d="M275.062 28.0625L257.062 34.8125V48.515C257.062 59.8775 264.735 70.475 275.062 73.0625C285.39 70.475 293.062 59.8775 293.062 48.515V34.8125L275.062 28.0625Z" fill="#33CC00"/>
</g>
</g>
<defs>
<clipPath id="clip0_820_4945">
<rect width="360" height="144" fill="white"/>
</clipPath>
<clipPath id="clip1_820_4945">
<rect width="360" height="360" fill="white" transform="translate(0 -76)"/>
</clipPath>
</defs>
</svg>
