<svg width="320" height="160" viewBox="0 0 320 160" fill="none" xmlns="http://www.w3.org/2000/svg">
<g clip-path="url(#clip0_2249_61603)">
<g clip-path="url(#clip1_2249_61603)">
<mask id="mask0_2249_61603" style="mask-type:luminance" maskUnits="userSpaceOnUse" x="0" y="0" width="320" height="160">
<path d="M320 0H0V160H320V0Z" fill="white"/>
</mask>
<g mask="url(#mask0_2249_61603)">
<path d="M320 0H0V160H320V0Z" fill="#303136"/>
<mask id="mask1_2249_61603" style="mask-type:luminance" maskUnits="userSpaceOnUse" x="0" y="-80" width="320" height="320">
<path d="M320 -80H0V240H320V-80Z" fill="white"/>
</mask>
<g mask="url(#mask1_2249_61603)">
<path d="M146.357 152.992C163.376 153.546 181.739 152.272 200.656 148.936C246.467 140.859 285.089 122.53 307.129 100.918M146.357 152.992C94.868 151.319 55.6725 132.925 50.627 104.311C43.9137 66.238 100.2 24.4899 176.344 11.0634C252.49 -2.36302 319.66 17.6166 326.373 55.689C329.047 70.8565 321.724 86.607 307.129 100.918M146.357 152.992C173.551 196.747 209.079 221.495 236.383 211.557C272.711 198.335 280.724 128.715 254.279 56.0585C251.352 48.0168 248.125 40.2748 244.652 32.8828M146.357 152.992C141.373 144.974 136.67 136.317 132.348 127.117M307.129 100.918C315.949 119.357 317.444 136.663 309.743 150C290.413 183.48 220.461 179.281 153.5 140.622C146.089 136.343 139.025 131.821 132.348 127.117M307.129 100.918C296.26 78.1935 274.267 53.7475 244.652 32.8828M244.652 32.8828C216.747 -26.5117 172.925 -63.316 140.617 -51.557C104.289 -38.3345 96.2765 31.2845 122.721 103.941C125.648 111.983 128.875 119.725 132.348 127.117M244.652 32.8828C237.975 28.1789 230.911 23.6572 223.5 19.3782C156.539 -19.2817 86.5865 -23.4805 67.2565 10C50.066 39.7748 78.7015 89.3225 132.348 127.117M328.5 80C328.5 157.32 265.82 220 188.5 220C111.18 220 48.5 157.32 48.5 80C48.5 2.68014 111.18 -60 188.5 -60C265.82 -60 328.5 2.68014 328.5 80ZM259.211 150.71C204.538 205.384 128.557 218.047 89.505 178.995C50.4525 139.942 63.116 63.9625 117.789 9.2893C172.463 -45.3841 248.442 -58.0475 287.495 -18.9949C326.547 20.0575 313.884 96.0375 259.211 150.71Z" stroke="#324347"/>
<path d="M188.5 220C265.82 220 328.5 157.32 328.5 80C328.5 2.68014 265.82 -60 188.5 -60C111.18 -60 48.5 2.68014 48.5 80C48.5 157.32 111.18 220 188.5 220Z" stroke="#324347"/>
<path d="M89.5047 178.995C128.557 218.047 204.537 205.384 259.21 150.711C313.884 96.0373 326.547 20.0575 287.495 -18.9949C248.442 -58.0473 172.462 -45.384 117.789 9.28938C63.1156 63.9628 50.4523 139.943 89.5047 178.995Z" stroke="#324347"/>
<path d="M132 141C139.732 141 146 134.732 146 127C146 119.268 139.732 113 132 113C124.268 113 118 119.268 118 127C118 134.732 124.268 141 132 141Z" fill="#33CC00"/>
<path d="M81 -4H53C45.268 -4 39 2.26801 39 10C39 17.732 45.268 24 53 24H81C88.732 24 95 17.732 95 10C95 2.26801 88.732 -4 81 -4Z" fill="#DDEEDD"/>
<path d="M293.13 86.9202L279.13 100.92L293.13 114.92H321.13L335.13 100.92L321.13 86.9202H293.13Z" fill="#DDEEDD"/>
<path d="M244.5 12.5L228.5 18.5V30.68C228.5 40.78 235.32 50.2 244.5 52.5C253.68 50.2 260.5 40.78 260.5 30.68V18.5L244.5 12.5Z" fill="#33CC00"/>
</g>
<path d="M12 70H15.0601V86.6395H23.4481V89.563H12V70Z" fill="white"/>
<path d="M31.8798 90C30.5501 90 29.3479 89.6905 28.2732 89.071C27.2168 88.4515 26.388 87.5955 25.7869 86.5025C25.1858 85.3915 24.8853 84.153 24.8853 82.787C24.8853 81.4755 25.1676 80.273 25.7323 79.1805C26.3151 78.069 27.1257 77.195 28.164 76.5575C29.2022 75.9015 30.3862 75.574 31.7159 75.574C33.082 75.574 34.266 75.8745 35.2678 76.4755C36.2878 77.0765 37.0619 77.9145 37.5902 78.989C38.1184 80.0455 38.3825 81.266 38.3825 82.6505C38.3825 82.814 38.3734 82.978 38.3552 83.142C38.337 83.306 38.3279 83.397 38.3279 83.4155H27.8907C27.9818 84.654 28.4281 85.61 29.2295 86.284C30.031 86.958 30.9417 87.295 31.9618 87.295C33.5282 87.295 34.7304 86.5665 35.5683 85.1095L38.1366 86.339C37.5355 87.45 36.6976 88.3425 35.623 89.0165C34.5665 89.672 33.3188 90 31.8798 90ZM35.3224 81.12C35.286 80.683 35.1403 80.237 34.8853 79.7815C34.6303 79.326 34.2295 78.9435 33.6831 78.634C33.1548 78.306 32.49 78.142 31.6885 78.142C30.796 78.142 30.0219 78.4155 29.3661 78.9615C28.7286 79.508 28.2915 80.2275 28.0547 81.12H35.3224Z" fill="white"/>
<path d="M45.4428 90C44.4774 90 43.603 89.8085 42.8198 89.426C42.0548 89.0255 41.4446 88.479 40.9892 87.787C40.552 87.0765 40.3335 86.275 40.3335 85.3825C40.3335 83.9615 40.8617 82.8415 41.9182 82.022C42.9929 81.202 44.3499 80.7925 45.9892 80.7925C47.4282 80.7925 48.6577 81.0385 49.6777 81.53V80.9565C49.6777 80.1365 49.3499 79.4625 48.6941 78.9345C48.0566 78.388 47.2825 78.115 46.3717 78.115C44.9874 78.115 43.8763 78.6795 43.0384 79.8085L40.7433 78.224C41.3808 77.368 42.1732 76.712 43.1204 76.257C44.0857 75.8015 45.1695 75.574 46.3717 75.574C48.3571 75.574 49.8872 76.0745 50.9619 77.0765C52.0549 78.06 52.6014 79.4535 52.6014 81.257V89.563H49.6777V87.896H49.5138C49.0766 88.5155 48.5211 89.0255 47.8471 89.426C47.1732 89.8085 46.3717 90 45.4428 90ZM45.9346 87.5135C46.6085 87.5135 47.2278 87.3495 47.7925 87.022C48.3754 86.676 48.8307 86.2295 49.1586 85.683C49.5047 85.1185 49.6777 84.5175 49.6777 83.88C48.7123 83.3515 47.6832 83.0875 46.5903 83.0875C45.5885 83.0875 44.8052 83.306 44.2406 83.743C43.6759 84.1805 43.3936 84.736 43.3936 85.41C43.3936 86.029 43.6395 86.539 44.1313 86.94C44.6413 87.3225 45.2424 87.5135 45.9346 87.5135Z" fill="white"/>
<path d="M55.7744 76.0111H58.6159V78.0331H58.7799C59.0709 77.3406 59.5994 76.7671 60.3644 76.3116C61.1294 75.8381 61.9129 75.6011 62.7139 75.6011C63.3699 75.6011 63.9074 75.6921 64.3259 75.8746V79.0166C63.7069 78.7066 63.0149 78.5521 62.2494 78.5521C61.2659 78.5521 60.4374 78.9346 59.7634 79.6996C59.1074 80.4466 58.7799 81.3661 58.7799 82.4591V89.5631H55.7744V76.0111Z" fill="white"/>
<path d="M66.5271 76.011H69.3686V77.814H69.5326C69.9336 77.1585 70.5166 76.621 71.2816 76.202C72.0466 75.783 72.8751 75.574 73.7676 75.574C75.4436 75.574 76.7096 76.0655 77.5656 77.049C78.4401 78.033 78.8771 79.39 78.8771 81.12V89.563H75.8716V81.53C75.8716 79.399 74.8786 78.3335 72.8936 78.3335C71.8916 78.3335 71.0811 78.734 70.4616 79.5355C69.8426 80.337 69.5326 81.284 69.5326 82.377V89.563H66.5271V76.011Z" fill="white"/>
<path d="M84.877 89.4839V70.1079H91.534C92.7065 70.1079 93.771 70.3604 94.7275 70.8654C95.6835 71.3704 96.441 72.0654 97.0005 72.9494C97.5775 73.8334 97.8665 74.8614 97.8665 76.0344C97.8665 77.2069 97.5775 78.2444 97.0005 79.1464C96.441 80.0304 95.6835 80.7249 94.7275 81.2299C93.771 81.7169 92.7065 81.9604 91.534 81.9604H87.8535V89.4839H84.877ZM91.615 72.9219H87.8535V79.1464H91.615C92.319 79.1464 92.914 79.0019 93.4015 78.7134C93.8885 78.4064 94.258 78.0189 94.511 77.5494C94.7815 77.0624 94.9165 76.5574 94.9165 76.0344C94.9165 75.5109 94.7815 75.0149 94.511 74.5459C94.258 74.0769 93.8885 73.6889 93.4015 73.3824C92.914 73.0754 92.319 72.9219 91.615 72.9219Z" fill="url(#paint0_linear_2249_61603)"/>
<path d="M100.431 89.4839V75.6824H103.191V77.7119H103.353C103.66 77.0084 104.183 76.4309 104.923 75.9799C105.681 75.5109 106.493 75.2764 107.359 75.2764C107.737 75.2764 108.053 75.3034 108.306 75.3579C108.576 75.4119 108.82 75.4749 109.036 75.5469V78.5779C108.694 78.4334 108.342 78.3164 107.981 78.2264C107.638 78.1359 107.277 78.0909 106.898 78.0909C106.213 78.0909 105.6 78.2804 105.058 78.6589C104.535 79.0199 104.12 79.5159 103.813 80.1474C103.507 80.7609 103.353 81.4374 103.353 82.1769V89.4839H100.431Z" fill="url(#paint1_linear_2249_61603)"/>
<path d="M112.971 73.653C112.429 73.653 111.96 73.4635 111.563 73.0845C111.185 72.6875 110.995 72.2185 110.995 71.6775C110.995 71.136 111.185 70.676 111.563 70.2975C111.96 69.9185 112.429 69.729 112.971 69.729C113.512 69.729 113.972 69.9185 114.351 70.2975C114.748 70.676 114.946 71.136 114.946 71.6775C114.946 72.2185 114.748 72.6875 114.351 73.0845C113.972 73.4635 113.512 73.653 112.971 73.653ZM111.509 89.484V75.6825H114.432V89.484H111.509Z" fill="url(#paint2_linear_2249_61603)"/>
<path d="M122.252 89.4841L116.542 75.6826H119.79L123.659 85.7221H123.795L127.746 75.6826H130.939L125.175 89.4841H122.252Z" fill="url(#paint3_linear_2249_61603)"/>
<path d="M136.896 89.9165C135.904 89.9165 135.02 89.7275 134.244 89.3485C133.469 88.9515 132.864 88.4015 132.431 87.6975C131.998 86.994 131.781 86.1915 131.781 85.2895C131.781 84.315 132.034 83.485 132.54 82.7995C133.063 82.096 133.757 81.564 134.623 81.203C135.489 80.842 136.445 80.662 137.492 80.662C138.358 80.662 139.115 80.743 139.764 80.9055C140.432 81.0675 140.937 81.239 141.28 81.4195V80.689C141.28 79.787 140.955 79.065 140.306 78.524C139.656 77.9825 138.818 77.712 137.789 77.712C137.086 77.712 136.418 77.8745 135.786 78.199C135.155 78.506 134.65 78.93 134.271 79.471L132.268 77.9285C132.864 77.0985 133.649 76.449 134.623 75.98C135.616 75.493 136.697 75.2495 137.87 75.2495C139.873 75.2495 141.416 75.7455 142.498 76.738C143.581 77.712 144.122 79.083 144.122 80.851V89.484H141.28V87.779H141.118C140.757 88.338 140.216 88.8345 139.494 89.2675C138.773 89.7005 137.906 89.9165 136.896 89.9165ZM137.411 87.5355C138.168 87.5355 138.835 87.355 139.413 86.994C139.99 86.6335 140.441 86.164 140.766 85.587C141.109 84.9915 141.28 84.351 141.28 83.6655C140.865 83.431 140.378 83.2415 139.819 83.0975C139.26 82.935 138.664 82.8535 138.033 82.8535C136.842 82.8535 135.994 83.0975 135.489 83.5845C134.984 84.0535 134.732 84.631 134.732 85.3165C134.732 85.966 134.975 86.498 135.462 86.913C135.949 87.328 136.599 87.5355 137.411 87.5355Z" fill="url(#paint4_linear_2249_61603)"/>
<path d="M153.594 89.9165C152.205 89.9165 150.978 89.601 149.913 88.9695C148.849 88.338 148.01 87.472 147.397 86.3715C146.783 85.253 146.477 83.9905 146.477 82.583C146.477 81.176 146.783 79.922 147.397 78.8215C148.01 77.703 148.849 76.828 149.913 76.1965C150.978 75.565 152.205 75.2495 153.594 75.2495C155.127 75.2495 156.417 75.5925 157.463 76.278C158.528 76.9635 159.286 77.8925 159.737 79.065L157.085 80.1475C156.453 78.6685 155.271 77.9285 153.54 77.9285C152.782 77.9285 152.087 78.127 151.456 78.524C150.824 78.903 150.319 79.444 149.94 80.1475C149.562 80.833 149.372 81.645 149.372 82.583C149.372 83.5215 149.562 84.342 149.94 85.0455C150.319 85.7495 150.824 86.2905 151.456 86.6695C152.087 87.048 152.782 87.2375 153.54 87.2375C154.424 87.2375 155.172 87.039 155.786 86.6425C156.399 86.2275 156.877 85.668 157.22 84.9645L159.818 86.101C159.331 87.2015 158.555 88.1125 157.491 88.8345C156.426 89.556 155.127 89.9165 153.594 89.9165Z" fill="url(#paint5_linear_2249_61603)"/>
<path d="M167.032 94.6526C166.978 94.7971 166.914 94.9321 166.842 95.0586C166.788 95.1846 166.752 95.2751 166.734 95.3291H163.622C163.712 95.1306 163.838 94.8421 164.001 94.4631C164.181 94.1021 164.353 93.7506 164.515 93.4076C164.677 93.0651 164.849 92.6771 165.029 92.2441C165.228 91.8111 165.426 91.3871 165.624 90.9721L166.653 88.7261L160.889 75.6826H164.136L168.087 85.1001H168.222L172.038 75.6826H175.258L168.114 92.1361C167.916 92.6051 167.699 93.0921 167.465 93.5971C167.248 94.1206 167.104 94.4721 167.032 94.6526Z" fill="url(#paint6_linear_2249_61603)"/>
<path d="M177.851 83.3139L177.581 76.1964V70.1079H180.503V76.1964L180.206 83.3139H177.851ZM179.042 89.6459C178.465 89.6459 177.978 89.4474 177.581 89.0509C177.184 88.6539 176.985 88.1759 176.985 87.6164C176.985 87.0574 177.184 86.5789 177.581 86.1824C177.978 85.7854 178.465 85.5869 179.042 85.5869C179.601 85.5869 180.079 85.7854 180.476 86.1824C180.873 86.5789 181.072 87.0574 181.072 87.6164C181.072 88.1759 180.873 88.6539 180.476 89.0509C180.079 89.4474 179.601 89.6459 179.042 89.6459Z" fill="url(#paint7_linear_2249_61603)"/>
</g>
</g>
</g>
<defs>
<linearGradient id="paint0_linear_2249_61603" x1="84.877" y1="95.3289" x2="180.451" y2="67.5914" gradientUnits="userSpaceOnUse">
<stop offset="0.0677083" stop-color="#D36DFF"/>
<stop offset="0.34375" stop-color="#359BFF"/>
<stop offset="0.619792" stop-color="#359BFF"/>
<stop offset="0.911458" stop-color="#33CC00"/>
</linearGradient>
<linearGradient id="paint1_linear_2249_61603" x1="84.8769" y1="95.3289" x2="180.451" y2="67.5914" gradientUnits="userSpaceOnUse">
<stop offset="0.0677083" stop-color="#D36DFF"/>
<stop offset="0.34375" stop-color="#359BFF"/>
<stop offset="0.619792" stop-color="#359BFF"/>
<stop offset="0.911458" stop-color="#33CC00"/>
</linearGradient>
<linearGradient id="paint2_linear_2249_61603" x1="84.8771" y1="95.329" x2="180.451" y2="67.5916" gradientUnits="userSpaceOnUse">
<stop offset="0.0677083" stop-color="#D36DFF"/>
<stop offset="0.34375" stop-color="#359BFF"/>
<stop offset="0.619792" stop-color="#3399FF"/>
<stop offset="0.911458" stop-color="#33CC00"/>
</linearGradient>
<linearGradient id="paint3_linear_2249_61603" x1="84.877" y1="95.3291" x2="180.451" y2="67.5916" gradientUnits="userSpaceOnUse">
<stop offset="0.0677083" stop-color="#D36DFF"/>
<stop offset="0.34375" stop-color="#359BFF"/>
<stop offset="0.619792" stop-color="#359BFF"/>
<stop offset="0.911458" stop-color="#33CC00"/>
</linearGradient>
<linearGradient id="paint4_linear_2249_61603" x1="84.8769" y1="95.329" x2="180.451" y2="67.5915" gradientUnits="userSpaceOnUse">
<stop offset="0.0677083" stop-color="#D36DFF"/>
<stop offset="0.34375" stop-color="#359BFF"/>
<stop offset="0.619792" stop-color="#359BFF"/>
<stop offset="0.911458" stop-color="#33CC00"/>
</linearGradient>
<linearGradient id="paint5_linear_2249_61603" x1="84.8771" y1="95.329" x2="180.451" y2="67.5915" gradientUnits="userSpaceOnUse">
<stop offset="0.0677083" stop-color="#D36DFF"/>
<stop offset="0.34375" stop-color="#359BFF"/>
<stop offset="0.619792" stop-color="#359BFF"/>
<stop offset="0.911458" stop-color="#33CC00"/>
</linearGradient>
<linearGradient id="paint6_linear_2249_61603" x1="84.877" y1="95.3291" x2="180.451" y2="67.5916" gradientUnits="userSpaceOnUse">
<stop offset="0.0677083" stop-color="#D36DFF"/>
<stop offset="0.34375" stop-color="#359BFF"/>
<stop offset="0.619792" stop-color="#359BFF"/>
<stop offset="0.911458" stop-color="#33CC00"/>
</linearGradient>
<linearGradient id="paint7_linear_2249_61603" x1="84.8771" y1="95.3289" x2="180.451" y2="67.5914" gradientUnits="userSpaceOnUse">
<stop offset="0.0677083" stop-color="#D36DFF"/>
<stop offset="0.34375" stop-color="#359BFF"/>
<stop offset="0.619792" stop-color="#359BFF"/>
<stop offset="0.911458" stop-color="#33CC00"/>
</linearGradient>
<clipPath id="clip0_2249_61603">
<rect width="320" height="160" fill="white"/>
</clipPath>
<clipPath id="clip1_2249_61603">
<rect width="320" height="160" fill="white"/>
</clipPath>
</defs>
</svg>
