<svg width="640" height="320" viewBox="0 0 640 320" fill="none" xmlns="http://www.w3.org/2000/svg">
<g clip-path="url(#clip0_820_4942)">
<rect width="640" height="320" fill="white"/>
<g clip-path="url(#clip1_820_4942)">
<path d="M292.715 305.985C326.753 307.092 363.478 304.544 401.311 297.873C492.933 281.718 570.178 245.06 614.259 201.835M292.715 305.985C189.736 302.639 111.345 265.85 101.254 208.621C87.8274 132.476 200.399 48.9798 352.689 22.1269C504.98 -4.72603 639.32 35.2333 652.746 111.378C658.095 141.713 643.448 173.214 614.259 201.835M292.715 305.985C347.103 393.495 418.158 442.989 472.765 423.114C545.422 396.669 561.447 257.431 508.557 112.117C502.703 96.0336 496.25 80.5497 489.304 65.7656M292.715 305.985C282.747 289.948 273.34 272.633 264.696 254.234M264.696 254.234C257.75 239.45 251.297 223.966 245.443 207.883C192.553 62.569 208.577 -76.669 281.234 -103.114C345.849 -126.632 433.494 -53.0233 489.304 65.7656M264.696 254.234C278.049 263.642 292.177 272.686 307 281.244C440.922 358.563 580.827 366.961 619.487 300C634.888 273.325 631.898 238.714 614.259 201.835M264.696 254.234C157.403 178.645 100.132 79.5496 134.513 20C173.173 -46.961 313.078 -38.5634 447 38.7564C461.823 47.3144 475.951 56.3579 489.304 65.7656M489.304 65.7656C548.535 107.495 592.521 156.387 614.259 201.835M657 160C657 314.64 531.64 440 377 440C222.36 440 97 314.64 97 160C97 5.36028 222.36 -120 377 -120C531.64 -120 657 5.36028 657 160ZM518.421 301.421C409.075 410.768 257.115 436.095 179.01 357.99C100.905 279.885 126.232 127.925 235.579 18.5786C344.926 -90.7682 496.885 -116.095 574.99 -37.9899C653.095 40.115 627.768 192.075 518.421 301.421Z" stroke="#AAEEFF" stroke-opacity="0.54"/>
<circle cx="377" cy="160" r="280" stroke="#66CCFF" stroke-opacity="0.54"/>
<ellipse cx="376.999" cy="160" rx="200" ry="280" transform="rotate(45 376.999 160)" stroke="#66CCFF" stroke-opacity="0.54"/>
<circle cx="264" cy="254" r="28" fill="#33CC00"/>
<rect x="78" y="-8" width="112" height="56" rx="28" fill="#DDEEDD"/>
<path d="M586.26 173.84L558.26 201.84L586.26 229.84H642.26L670.26 201.84L642.26 173.84H586.26Z" fill="#DDEEDD"/>
<path d="M489 25L457 37V61.36C457 81.56 470.64 100.4 489 105C507.36 100.4 521 81.56 521 61.36V37L489 25Z" fill="#33CC00"/>
</g>
<path d="M24 140H30.1202V173.279H46.8962V179.126H24V140Z" fill="#3C4043"/>
<path d="M63.7596 180C61.1003 180 58.6959 179.381 56.5465 178.142C54.4336 176.903 52.776 175.191 51.5739 173.005C50.3717 170.783 49.7706 168.306 49.7706 165.574C49.7706 162.951 50.3352 160.546 51.4646 158.361C52.6303 156.138 54.2514 154.39 56.328 153.115C58.4045 151.803 60.7724 151.148 63.4318 151.148C66.164 151.148 68.532 151.749 70.5356 152.951C72.5757 154.153 74.1239 155.829 75.1804 157.978C76.2369 160.091 76.7651 162.532 76.7651 165.301C76.7651 165.628 76.7469 165.956 76.7105 166.284C76.674 166.612 76.6558 166.794 76.6558 166.831H55.7815C55.9637 169.308 56.8562 171.22 58.4591 172.568C60.062 173.916 61.8835 174.59 63.9236 174.59C67.0565 174.59 69.4609 173.133 71.1367 170.219L76.2733 172.678C75.0711 174.9 73.3953 176.685 71.246 178.033C69.1331 179.344 66.6376 180 63.7596 180ZM70.6449 162.24C70.572 161.366 70.2806 160.474 69.7706 159.563C69.2606 158.652 68.4591 157.887 67.3662 157.268C66.3097 156.612 64.98 156.284 63.3771 156.284C61.5921 156.284 60.0438 156.831 58.7323 157.923C57.4573 159.016 56.583 160.455 56.1094 162.24H70.6449Z" fill="#3C4043"/>
<path d="M90.8857 180C88.9549 180 87.2062 179.617 85.6398 178.852C84.1097 178.051 82.8893 176.958 81.9786 175.574C81.1042 174.153 80.6671 172.55 80.6671 170.765C80.6671 167.923 81.7236 165.683 83.8365 164.044C85.9859 162.404 88.6999 161.585 91.9786 161.585C94.8565 161.585 97.3155 162.077 99.3556 163.06V161.913C99.3556 160.273 98.6999 158.925 97.3884 157.869C96.1133 156.776 94.5651 156.23 92.7436 156.23C89.9749 156.23 87.7527 157.359 86.0769 159.617L81.4868 156.448C82.7618 154.736 84.3465 153.424 86.2409 152.514C88.1716 151.603 90.3392 151.148 92.7436 151.148C96.7144 151.148 99.7746 152.149 101.924 154.153C104.11 156.12 105.203 158.907 105.203 162.514V179.126H99.3556V175.792H99.0277C98.1534 177.031 97.0423 178.051 95.6944 178.852C94.3465 179.617 92.7436 180 90.8857 180ZM91.8693 175.027C93.2172 175.027 94.4558 174.699 95.5851 174.044C96.7509 173.352 97.6616 172.459 98.3174 171.366C99.0095 170.237 99.3556 169.035 99.3556 167.76C97.4248 166.703 95.3665 166.175 93.1807 166.175C91.1771 166.175 89.6106 166.612 88.4813 167.486C87.352 168.361 86.7873 169.472 86.7873 170.82C86.7873 172.058 87.2791 173.078 88.2627 173.88C89.2828 174.645 90.4849 175.027 91.8693 175.027Z" fill="#3C4043"/>
<path d="M111.549 152.022H117.232V156.066H117.56C118.142 154.681 119.199 153.534 120.729 152.623C122.259 151.676 123.826 151.202 125.428 151.202C126.74 151.202 127.815 151.384 128.652 151.749V158.033C127.414 157.413 126.03 157.104 124.499 157.104C122.532 157.104 120.875 157.869 119.527 159.399C118.215 160.893 117.56 162.732 117.56 164.918V179.126H111.549V152.022Z" fill="#3C4043"/>
<path d="M133.054 152.022H138.737V155.628H139.065C139.867 154.317 141.033 153.242 142.563 152.404C144.093 151.566 145.75 151.148 147.535 151.148C150.887 151.148 153.419 152.131 155.131 154.098C156.88 156.066 157.754 158.78 157.754 162.24V179.126H151.743V163.06C151.743 158.798 149.757 156.667 145.787 156.667C143.783 156.667 142.162 157.468 140.923 159.071C139.685 160.674 139.065 162.568 139.065 164.754V179.126H133.054V152.022Z" fill="#3C4043"/>
<path d="M169.754 178.968V140.216H183.068C185.413 140.216 187.542 140.721 189.455 141.731C191.367 142.741 192.882 144.131 194.001 145.899C195.155 147.667 195.733 149.723 195.733 152.069C195.733 154.414 195.155 156.489 194.001 158.293C192.882 160.061 191.367 161.45 189.455 162.46C187.542 163.434 185.413 163.921 183.068 163.921H175.707V178.968H169.754ZM183.23 145.844H175.707V158.293H183.23C184.638 158.293 185.828 158.004 186.803 157.427C187.777 156.813 188.516 156.038 189.022 155.099C189.563 154.125 189.833 153.115 189.833 152.069C189.833 151.022 189.563 150.03 189.022 149.092C188.516 148.154 187.777 147.378 186.803 146.765C185.828 146.151 184.638 145.844 183.23 145.844Z" fill="url(#paint0_linear_820_4942)"/>
<path d="M200.862 178.968V151.365H206.383V155.424H206.707C207.321 154.017 208.367 152.862 209.847 151.96C211.362 151.022 212.986 150.553 214.718 150.553C215.475 150.553 216.107 150.607 216.612 150.716C217.153 150.824 217.64 150.95 218.073 151.094V157.156C217.388 156.867 216.684 156.633 215.962 156.453C215.277 156.272 214.555 156.182 213.797 156.182C212.426 156.182 211.2 156.561 210.117 157.318C209.071 158.04 208.241 159.032 207.627 160.295C207.014 161.522 206.707 162.875 206.707 164.354V178.968H200.862Z" fill="url(#paint1_linear_820_4942)"/>
<path d="M225.941 147.306C224.858 147.306 223.92 146.927 223.126 146.169C222.369 145.375 221.99 144.437 221.99 143.355C221.99 142.272 222.369 141.352 223.126 140.595C223.92 139.837 224.858 139.458 225.941 139.458C227.023 139.458 227.943 139.837 228.701 140.595C229.495 141.352 229.892 142.272 229.892 143.355C229.892 144.437 229.495 145.375 228.701 146.169C227.943 146.927 227.023 147.306 225.941 147.306ZM223.018 178.968V151.365H228.863V178.968H223.018Z" fill="url(#paint2_linear_820_4942)"/>
<path d="M244.505 178.968L233.085 151.365H239.58L247.319 171.444H247.59L255.492 151.365H261.878L250.35 178.968H244.505Z" fill="url(#paint3_linear_820_4942)"/>
<path d="M273.792 179.833C271.808 179.833 270.04 179.455 268.488 178.697C266.937 177.903 265.728 176.803 264.862 175.395C263.996 173.988 263.563 172.383 263.563 170.579C263.563 168.63 264.068 166.97 265.079 165.599C266.125 164.192 267.514 163.128 269.246 162.406C270.978 161.684 272.89 161.324 274.983 161.324C276.715 161.324 278.23 161.486 279.529 161.811C280.864 162.135 281.875 162.478 282.56 162.839V161.378C282.56 159.574 281.911 158.13 280.612 157.048C279.313 155.965 277.635 155.424 275.578 155.424C274.171 155.424 272.836 155.749 271.573 156.398C270.31 157.012 269.3 157.86 268.542 158.942L264.537 155.857C265.728 154.197 267.298 152.898 269.246 151.96C271.231 150.986 273.395 150.499 275.741 150.499C279.746 150.499 282.831 151.491 284.996 153.476C287.161 155.424 288.243 158.166 288.243 161.702V178.968H282.56V175.558H282.236C281.514 176.676 280.431 177.669 278.988 178.535C277.545 179.401 275.813 179.833 273.792 179.833ZM274.821 175.071C276.336 175.071 277.671 174.71 278.826 173.988C279.98 173.267 280.882 172.328 281.532 171.174C282.217 169.983 282.56 168.702 282.56 167.331C281.73 166.862 280.756 166.483 279.638 166.195C278.519 165.87 277.328 165.707 276.066 165.707C273.684 165.707 271.988 166.195 270.978 167.169C269.968 168.107 269.463 169.262 269.463 170.633C269.463 171.932 269.95 172.996 270.924 173.826C271.898 174.656 273.197 175.071 274.821 175.071Z" fill="url(#paint4_linear_820_4942)"/>
<path d="M307.187 179.833C304.409 179.833 301.955 179.202 299.826 177.939C297.697 176.676 296.02 174.944 294.793 172.743C293.566 170.506 292.953 167.981 292.953 165.166C292.953 162.352 293.566 159.844 294.793 157.643C296.02 155.406 297.697 153.656 299.826 152.393C301.955 151.13 304.409 150.499 307.187 150.499C310.254 150.499 312.834 151.185 314.926 152.556C317.055 153.927 318.571 155.785 319.473 158.13L314.169 160.295C312.906 157.337 310.542 155.857 307.079 155.857C305.563 155.857 304.174 156.254 302.911 157.048C301.648 157.806 300.638 158.888 299.88 160.295C299.123 161.666 298.744 163.29 298.744 165.166C298.744 167.043 299.123 168.684 299.88 170.091C300.638 171.499 301.648 172.581 302.911 173.339C304.174 174.096 305.563 174.475 307.079 174.475C308.847 174.475 310.344 174.078 311.571 173.285C312.798 172.455 313.754 171.336 314.439 169.929L319.635 172.202C318.661 174.403 317.109 176.225 314.981 177.669C312.852 179.112 310.254 179.833 307.187 179.833Z" fill="url(#paint5_linear_820_4942)"/>
<path d="M334.064 189.305C333.956 189.594 333.829 189.864 333.685 190.117C333.577 190.369 333.505 190.55 333.468 190.658H327.244C327.425 190.261 327.677 189.684 328.002 188.926C328.363 188.204 328.706 187.501 329.03 186.815C329.355 186.13 329.698 185.354 330.059 184.488C330.456 183.622 330.853 182.774 331.249 181.944L333.306 177.452L321.778 151.365H328.273L336.175 170.2H336.445L344.077 151.365H350.517L336.229 184.272C335.832 185.21 335.399 186.184 334.93 187.194C334.497 188.241 334.208 188.944 334.064 189.305Z" fill="url(#paint6_linear_820_4942)"/>
<path d="M355.702 166.628L355.161 152.393V140.216H361.006V152.393L360.411 166.628H355.702ZM358.084 179.292C356.929 179.292 355.955 178.895 355.161 178.102C354.367 177.308 353.97 176.352 353.97 175.233C353.97 174.115 354.367 173.158 355.161 172.365C355.955 171.571 356.929 171.174 358.084 171.174C359.202 171.174 360.158 171.571 360.952 172.365C361.746 173.158 362.143 174.115 362.143 175.233C362.143 176.352 361.746 177.308 360.952 178.102C360.158 178.895 359.202 179.292 358.084 179.292Z" fill="url(#paint7_linear_820_4942)"/>
</g>
<defs>
<linearGradient id="paint0_linear_820_4942" x1="169.754" y1="190.658" x2="360.902" y2="135.183" gradientUnits="userSpaceOnUse">
<stop offset="0.0677083" stop-color="#9933FF"/>
<stop offset="0.34375" stop-color="#0066FF"/>
<stop offset="0.619792" stop-color="#3399FF"/>
<stop offset="0.911458" stop-color="#33CC00"/>
</linearGradient>
<linearGradient id="paint1_linear_820_4942" x1="169.754" y1="190.658" x2="360.902" y2="135.183" gradientUnits="userSpaceOnUse">
<stop offset="0.0677083" stop-color="#9933FF"/>
<stop offset="0.34375" stop-color="#0066FF"/>
<stop offset="0.619792" stop-color="#3399FF"/>
<stop offset="0.911458" stop-color="#33CC00"/>
</linearGradient>
<linearGradient id="paint2_linear_820_4942" x1="169.754" y1="190.658" x2="360.902" y2="135.183" gradientUnits="userSpaceOnUse">
<stop offset="0.0677083" stop-color="#9933FF"/>
<stop offset="0.34375" stop-color="#0066FF"/>
<stop offset="0.619792" stop-color="#3399FF"/>
<stop offset="0.911458" stop-color="#33CC00"/>
</linearGradient>
<linearGradient id="paint3_linear_820_4942" x1="169.754" y1="190.658" x2="360.902" y2="135.183" gradientUnits="userSpaceOnUse">
<stop offset="0.0677083" stop-color="#9933FF"/>
<stop offset="0.34375" stop-color="#0066FF"/>
<stop offset="0.619792" stop-color="#3399FF"/>
<stop offset="0.911458" stop-color="#33CC00"/>
</linearGradient>
<linearGradient id="paint4_linear_820_4942" x1="169.754" y1="190.658" x2="360.902" y2="135.183" gradientUnits="userSpaceOnUse">
<stop offset="0.0677083" stop-color="#9933FF"/>
<stop offset="0.34375" stop-color="#0066FF"/>
<stop offset="0.619792" stop-color="#3399FF"/>
<stop offset="0.911458" stop-color="#33CC00"/>
</linearGradient>
<linearGradient id="paint5_linear_820_4942" x1="169.754" y1="190.658" x2="360.902" y2="135.183" gradientUnits="userSpaceOnUse">
<stop offset="0.0677083" stop-color="#9933FF"/>
<stop offset="0.34375" stop-color="#0066FF"/>
<stop offset="0.619792" stop-color="#3399FF"/>
<stop offset="0.911458" stop-color="#33CC00"/>
</linearGradient>
<linearGradient id="paint6_linear_820_4942" x1="169.754" y1="190.658" x2="360.902" y2="135.183" gradientUnits="userSpaceOnUse">
<stop offset="0.0677083" stop-color="#9933FF"/>
<stop offset="0.34375" stop-color="#0066FF"/>
<stop offset="0.619792" stop-color="#3399FF"/>
<stop offset="0.911458" stop-color="#33CC00"/>
</linearGradient>
<linearGradient id="paint7_linear_820_4942" x1="169.754" y1="190.658" x2="360.902" y2="135.183" gradientUnits="userSpaceOnUse">
<stop offset="0.0677083" stop-color="#9933FF"/>
<stop offset="0.34375" stop-color="#0066FF"/>
<stop offset="0.619792" stop-color="#3399FF"/>
<stop offset="0.911458" stop-color="#33CC00"/>
</linearGradient>
<clipPath id="clip0_820_4942">
<rect width="640" height="320" fill="white"/>
</clipPath>
<clipPath id="clip1_820_4942">
<rect width="640" height="640" fill="white" transform="translate(0 -160)"/>
</clipPath>
</defs>
</svg>
