<svg width="172" height="40" viewBox="0 0 172 40" fill="none" xmlns="http://www.w3.org/2000/svg">
<path d="M0 10H3.06011V26.6393H11.4481V29.5628H0L0 10Z" fill="#3C4043"/>
<path d="M19.8798 30C18.5501 30 17.3479 29.6903 16.2733 29.071C15.2168 28.4517 14.388 27.5956 13.7869 26.5027C13.1858 25.3916 12.8853 24.153 12.8853 22.7869C12.8853 21.4754 13.1676 20.2732 13.7323 19.1803C14.3152 18.0692 15.1257 17.1949 16.164 16.5574C17.2022 15.9016 18.3862 15.5738 19.7159 15.5738C21.082 15.5738 22.266 15.8743 23.2678 16.4754C24.2878 17.0765 25.062 17.9144 25.5902 18.9891C26.1184 20.0455 26.3826 21.2659 26.3826 22.6503C26.3826 22.8142 26.3734 22.9781 26.3552 23.1421C26.337 23.306 26.3279 23.3971 26.3279 23.4153H15.8908C15.9818 24.6539 16.4281 25.6102 17.2295 26.2842C18.031 26.9581 18.9418 27.2951 19.9618 27.2951C21.5283 27.2951 22.7305 26.5665 23.5683 25.1093L26.1367 26.3388C25.5356 27.4499 24.6977 28.3424 23.623 29.0164C22.5665 29.6721 21.3188 30 19.8798 30ZM23.3224 21.1202C23.286 20.6831 23.1403 20.2368 22.8853 19.7814C22.6303 19.326 22.2295 18.9435 21.6831 18.6339C21.1549 18.306 20.49 18.1421 19.6886 18.1421C18.796 18.1421 18.0219 18.4153 17.3662 18.9617C16.7286 19.5082 16.2915 20.2277 16.0547 21.1202H23.3224Z" fill="#3C4043"/>
<path d="M33.4428 30C32.4774 30 31.6031 29.8087 30.8199 29.4262C30.0549 29.0255 29.4447 28.4791 28.9893 27.7869C28.5521 27.0765 28.3335 26.275 28.3335 25.3825C28.3335 23.9617 28.8618 22.8415 29.9182 22.0219C30.9929 21.2022 32.3499 20.7924 33.9893 20.7924C35.4283 20.7924 36.6578 21.0383 37.6778 21.5301V20.9563C37.6778 20.1366 37.3499 19.4627 36.6942 18.9344C36.0567 18.388 35.2825 18.1148 34.3718 18.1148C32.9875 18.1148 31.8763 18.6794 31.0385 19.8087L28.7434 18.224C29.3809 17.3679 30.1733 16.7122 31.1204 16.2568C32.0858 15.8015 33.1696 15.5738 34.3718 15.5738C36.3572 15.5738 37.8873 16.0747 38.962 17.0765C40.0549 18.0601 40.6013 19.4536 40.6013 21.2568V29.5628H37.6778V27.8962H37.5139C37.0767 28.5155 36.5212 29.0255 35.8472 29.4262C35.1733 29.8087 34.3718 30 33.4428 30ZM33.9346 27.5137C34.6086 27.5137 35.2279 27.3497 35.7926 27.0219C36.3754 26.6758 36.8308 26.2295 37.1587 25.6831C37.5048 25.1184 37.6778 24.5173 37.6778 23.8798C36.7124 23.3515 35.6833 23.0874 34.5904 23.0874C33.5886 23.0874 32.8053 23.306 32.2406 23.7432C31.676 24.1803 31.3937 24.7359 31.3937 25.4098C31.3937 26.0291 31.6396 26.5392 32.1314 26.9399C32.6414 27.3224 33.2425 27.5137 33.9346 27.5137Z" fill="#3C4043"/>
<path d="M43.7743 16.0109H46.6159V18.0328H46.7798C47.0712 17.3406 47.5995 16.7668 48.3645 16.3115C49.1295 15.8379 49.9128 15.6011 50.7142 15.6011C51.37 15.6011 51.9073 15.6922 52.3262 15.8743V19.0164C51.7069 18.7067 51.0148 18.5519 50.2497 18.5519C49.2661 18.5519 48.4374 18.9344 47.7634 19.6995C47.1077 20.4463 46.7798 21.3661 46.7798 22.459V29.5628H43.7743V16.0109Z" fill="#3C4043"/>
<path d="M54.5272 16.0109H57.3687V17.8142H57.5327C57.9334 17.1585 58.5163 16.6211 59.2813 16.2022C60.0463 15.7832 60.8751 15.5738 61.7676 15.5738C63.4434 15.5738 64.7093 16.0656 65.5654 17.0492C66.4398 18.0328 66.8769 19.3898 66.8769 21.1202V29.5628H63.8715V21.5301C63.8715 19.3989 62.8787 18.3333 60.8933 18.3333C59.8915 18.3333 59.0809 18.7341 58.4616 19.5355C57.8423 20.337 57.5327 21.2842 57.5327 22.3771V29.5628H54.5272V16.0109Z" fill="#3C4043"/>
<path d="M74.8769 29.7548V10.3789H81.534C82.7066 10.3789 83.771 10.6314 84.7272 11.1366C85.6834 11.6417 86.4411 12.3363 87.0004 13.2203C87.5777 14.1043 87.8663 15.1326 87.8663 16.3053C87.8663 17.4779 87.5777 18.5153 87.0004 19.4173C86.4411 20.3013 85.6834 20.9959 84.7272 21.5011C83.771 21.9882 82.7066 22.2317 81.534 22.2317H77.8536V29.7548H74.8769ZM81.6152 13.1932H77.8536V19.4173H81.6152C82.3188 19.4173 82.9141 19.273 83.4012 18.9844C83.8883 18.6777 84.2581 18.2898 84.5107 17.8207C84.7813 17.3336 84.9166 16.8285 84.9166 16.3053C84.9166 15.7821 84.7813 15.286 84.5107 14.8169C84.2581 14.3479 83.8883 13.96 83.4012 13.6533C82.9141 13.3466 82.3188 13.1932 81.6152 13.1932Z" fill="url(#paint0_linear_820_5287)"/>
<path d="M90.431 29.7548V15.9535H93.1913V17.9831H93.3536C93.6603 17.2795 94.1835 16.7022 94.9232 16.2512C95.6809 15.7821 96.4928 15.5476 97.3587 15.5476C97.7376 15.5476 98.0533 15.5746 98.3059 15.6288C98.5765 15.6829 98.82 15.746 99.0365 15.8182V18.849C98.6937 18.7047 98.3419 18.5875 97.9811 18.4973C97.6383 18.407 97.2775 18.3619 96.8987 18.3619C96.2131 18.3619 95.5997 18.5514 95.0585 18.9302C94.5353 19.291 94.1204 19.7872 93.8137 20.4186C93.507 21.032 93.3536 21.7085 93.3536 22.4482V29.7548H90.431Z" fill="url(#paint1_linear_820_5287)"/>
<path d="M102.97 13.9239C102.429 13.9239 101.96 13.7345 101.563 13.3556C101.184 12.9587 100.995 12.4896 100.995 11.9484C100.995 11.4072 101.184 10.9471 101.563 10.5683C101.96 10.1894 102.429 10 102.97 10C103.512 10 103.972 10.1894 104.35 10.5683C104.747 10.9471 104.946 11.4072 104.946 11.9484C104.946 12.4896 104.747 12.9587 104.35 13.3556C103.972 13.7345 103.512 13.9239 102.97 13.9239ZM101.509 29.7548V15.9535H104.432V29.7548H101.509Z" fill="url(#paint2_linear_820_5287)"/>
<path d="M112.252 29.7548L106.542 15.9535H109.79L113.66 25.9932H113.795L117.746 15.9535H120.939L115.175 29.7548H112.252Z" fill="url(#paint3_linear_820_5287)"/>
<path d="M126.896 30.1877C125.904 30.1877 125.02 29.9983 124.244 29.6194C123.468 29.2226 122.864 28.6723 122.431 27.9687C121.998 27.2651 121.782 26.4623 121.782 25.5603C121.782 24.586 122.034 23.7562 122.539 23.0706C123.062 22.367 123.757 21.8348 124.623 21.474C125.489 21.1132 126.445 20.9328 127.491 20.9328C128.357 20.9328 129.115 21.014 129.765 21.1763C130.432 21.3387 130.937 21.5101 131.28 21.6905V20.9598C131.28 20.0578 130.955 19.3362 130.306 18.7949C129.656 18.2537 128.817 17.9831 127.789 17.9831C127.086 17.9831 126.418 18.1455 125.787 18.4702C125.155 18.7769 124.65 19.2008 124.271 19.7421L122.269 18.1996C122.864 17.3697 123.649 16.7202 124.623 16.2512C125.615 15.7641 126.698 15.5205 127.87 15.5205C129.873 15.5205 131.415 16.0166 132.498 17.0089C133.58 17.9831 134.121 19.3542 134.121 21.1222V29.7548H131.28V28.0499H131.118C130.757 28.6092 130.216 29.1053 129.494 29.5383C128.772 29.9712 127.906 30.1877 126.896 30.1877ZM127.41 27.8063C128.168 27.8063 128.836 27.6259 129.413 27.2651C129.99 26.9043 130.441 26.4352 130.766 25.8579C131.109 25.2626 131.28 24.6221 131.28 23.9366C130.865 23.702 130.378 23.5126 129.819 23.3683C129.259 23.2059 128.664 23.1247 128.033 23.1247C126.842 23.1247 125.994 23.3683 125.489 23.8554C124.984 24.3245 124.731 24.9018 124.731 25.5873C124.731 26.2368 124.975 26.769 125.462 27.1839C125.949 27.5989 126.598 27.8063 127.41 27.8063Z" fill="url(#paint4_linear_820_5287)"/>
<path d="M143.593 30.1877C142.204 30.1877 140.977 29.872 139.913 29.2406C138.849 28.6092 138.01 27.7432 137.396 26.6427C136.783 25.5242 136.476 24.2613 136.476 22.8541C136.476 21.4469 136.783 20.1931 137.396 19.0926C138.01 17.9741 138.849 17.0991 139.913 16.4677C140.977 15.8362 142.204 15.5205 143.593 15.5205C145.127 15.5205 146.417 15.8633 147.463 16.5488C148.528 17.2344 149.285 18.1635 149.736 19.3362L147.084 20.4186C146.453 18.9393 145.271 18.1996 143.539 18.1996C142.782 18.1996 142.087 18.398 141.456 18.7949C140.824 19.1738 140.319 19.715 139.94 20.4186C139.561 21.1042 139.372 21.916 139.372 22.8541C139.372 23.7922 139.561 24.6131 139.94 25.3167C140.319 26.0203 140.824 26.5615 141.456 26.9404C142.087 27.3192 142.782 27.5087 143.539 27.5087C144.423 27.5087 145.172 27.3102 145.785 26.9133C146.399 26.4984 146.877 25.9391 147.22 25.2355L149.817 26.3721C149.33 27.4726 148.555 28.3836 147.49 29.1053C146.426 29.8269 145.127 30.1877 143.593 30.1877Z" fill="url(#paint5_linear_820_5287)"/>
<path d="M157.032 34.9235C156.978 35.0678 156.915 35.2031 156.842 35.3294C156.788 35.4557 156.752 35.5459 156.734 35.6H153.622C153.712 35.4016 153.839 35.1129 154.001 34.734C154.181 34.3732 154.353 34.0214 154.515 33.6786C154.678 33.3359 154.849 32.948 155.029 32.515C155.228 32.082 155.426 31.6581 155.625 31.2431L156.653 28.997L150.889 15.9535H154.136L158.087 25.3708H158.223L162.038 15.9535H165.258L158.114 32.4068C157.916 32.8758 157.699 33.3629 157.465 33.8681C157.248 34.3913 157.104 34.7431 157.032 34.9235Z" fill="url(#paint6_linear_820_5287)"/>
<path d="M167.851 23.5848L167.58 16.4677V10.3789H170.503V16.4677L170.205 23.5848H167.851ZM169.042 29.9171C168.464 29.9171 167.977 29.7187 167.58 29.3218C167.184 28.9249 166.985 28.4468 166.985 27.8875C166.985 27.3283 167.184 26.8502 167.58 26.4533C167.977 26.0564 168.464 25.8579 169.042 25.8579C169.601 25.8579 170.079 26.0564 170.476 26.4533C170.873 26.8502 171.071 27.3283 171.071 27.8875C171.071 28.4468 170.873 28.9249 170.476 29.3218C170.079 29.7187 169.601 29.9171 169.042 29.9171Z" fill="url(#paint7_linear_820_5287)"/>
<defs>
<linearGradient id="paint0_linear_820_5287" x1="74.8769" y1="35.6" x2="170.451" y2="7.86249" gradientUnits="userSpaceOnUse">
<stop offset="0.0677083" stop-color="#9933FF"/>
<stop offset="0.34375" stop-color="#0066FF"/>
<stop offset="0.619792" stop-color="#3399FF"/>
<stop offset="0.911458" stop-color="#33CC00"/>
</linearGradient>
<linearGradient id="paint1_linear_820_5287" x1="74.8769" y1="35.6" x2="170.451" y2="7.86249" gradientUnits="userSpaceOnUse">
<stop offset="0.0677083" stop-color="#9933FF"/>
<stop offset="0.34375" stop-color="#0066FF"/>
<stop offset="0.619792" stop-color="#3399FF"/>
<stop offset="0.911458" stop-color="#33CC00"/>
</linearGradient>
<linearGradient id="paint2_linear_820_5287" x1="74.8769" y1="35.6" x2="170.451" y2="7.86249" gradientUnits="userSpaceOnUse">
<stop offset="0.0677083" stop-color="#9933FF"/>
<stop offset="0.34375" stop-color="#0066FF"/>
<stop offset="0.619792" stop-color="#3399FF"/>
<stop offset="0.911458" stop-color="#33CC00"/>
</linearGradient>
<linearGradient id="paint3_linear_820_5287" x1="74.8769" y1="35.6" x2="170.451" y2="7.86249" gradientUnits="userSpaceOnUse">
<stop offset="0.0677083" stop-color="#9933FF"/>
<stop offset="0.34375" stop-color="#0066FF"/>
<stop offset="0.619792" stop-color="#3399FF"/>
<stop offset="0.911458" stop-color="#33CC00"/>
</linearGradient>
<linearGradient id="paint4_linear_820_5287" x1="74.8769" y1="35.6" x2="170.451" y2="7.86249" gradientUnits="userSpaceOnUse">
<stop offset="0.0677083" stop-color="#9933FF"/>
<stop offset="0.34375" stop-color="#0066FF"/>
<stop offset="0.619792" stop-color="#3399FF"/>
<stop offset="0.911458" stop-color="#33CC00"/>
</linearGradient>
<linearGradient id="paint5_linear_820_5287" x1="74.8769" y1="35.6" x2="170.451" y2="7.86249" gradientUnits="userSpaceOnUse">
<stop offset="0.0677083" stop-color="#9933FF"/>
<stop offset="0.34375" stop-color="#0066FF"/>
<stop offset="0.619792" stop-color="#3399FF"/>
<stop offset="0.911458" stop-color="#33CC00"/>
</linearGradient>
<linearGradient id="paint6_linear_820_5287" x1="74.8769" y1="35.6" x2="170.451" y2="7.86249" gradientUnits="userSpaceOnUse">
<stop offset="0.0677083" stop-color="#9933FF"/>
<stop offset="0.34375" stop-color="#0066FF"/>
<stop offset="0.619792" stop-color="#3399FF"/>
<stop offset="0.911458" stop-color="#33CC00"/>
</linearGradient>
<linearGradient id="paint7_linear_820_5287" x1="74.8769" y1="35.6" x2="170.451" y2="7.86249" gradientUnits="userSpaceOnUse">
<stop offset="0.0677083" stop-color="#9933FF"/>
<stop offset="0.34375" stop-color="#0066FF"/>
<stop offset="0.619792" stop-color="#3399FF"/>
<stop offset="0.911458" stop-color="#33CC00"/>
</linearGradient>
</defs>
</svg>
