<?xml version="1.0" encoding="utf-8"?>
<!-- Generator: Adobe Illustrator 23.0.6, SVG Export Plug-In . SVG Version: 6.00 Build 0)  -->
<svg version="1.1" id="Layer_1" xmlns="http://www.w3.org/2000/svg" xmlns:xlink="http://www.w3.org/1999/xlink" x="0px" y="0px"
	 viewBox="0 0 370 367" style="enable-background:new 0 0 370 367;" xml:space="preserve">
<style type="text/css">
	.st0{fill:none;stroke:#9AA0A6;stroke-width:3;stroke-miterlimit:10;}
	.st1{fill:#9AA0A6;}
	.st2{font-family:'Roboto-Medium';}
	.st3{font-size:24px;}
	.st4{fill:none;stroke:#FBBC04;stroke-width:12;stroke-miterlimit:10;}
	.st5{fill:#FBBC04;}
	.st6{fill:#34A853;}
	.st7{fill:none;stroke:#34A853;stroke-width:12;stroke-miterlimit:10;}
	.st8{fill:none;stroke:#4285F4;stroke-width:12;stroke-miterlimit:10;}
	.st9{fill:#4285F4;}
</style>
<path class="st0" d="M35.7,335.3V9"/>
<path class="st1" d="M41.7,10.7l-6-10.4l-6,10.4C29.7,10.7,41.7,10.7,41.7,10.7z"/>
<path class="st0" d="M35.2,335.3h326.4"/>
<path class="st1" d="M359.8,341.3l10.4-6l-10.4-6V341.3z"/>
<circle class="st1" cx="35.2" cy="334.8" r="4.5"/>
<text transform="matrix(1 0 0 1 166.9633 367.2246)" class="st1 st2 st3">Reach</text>
<text transform="matrix(6.123234e-17 -1 1 6.123234e-17 17.6633 233.1846)" class="st1 st2 st3">Capabilities</text>
<g>
	<circle class="st4" cx="108.4" cy="79.3" r="49"/>
	<path class="st5" d="M82.3,65.5h13.3V52.2H82.3V65.5z M102.3,105.5h13.3V92.2h-13.3V105.5z M82.3,105.5h13.3V92.2H82.3V105.5z
		 M82.3,85.5h13.3V72.2H82.3V85.5z M102.3,85.5h13.3V72.2h-13.3V85.5z M122.3,52.1v13.3h13.3V52.2L122.3,52.1z M102.3,65.5h13.3
		V52.2h-13.3V65.5z M122.3,85.5h13.3V72.2h-13.3L122.3,85.5z M122.3,105.5h13.3V92.2h-13.3L122.3,105.5z"/>
</g>
<g>
	<path d="M308,87.4l1.9-4.9h5.6l-2.6-7.4l3.3-8.3l9.5,25.1h-7l-1.6-4.5L308,87.4z"/>
	<path class="st6" d="M302,91.9l10.1-25.1h-6.7L298.5,83l-4.9-16.2h-5.2L283.2,83l-3.7-7.4L276.1,86l3.4,5.9h6.6l4.8-14.5l4.5,14.6
		L302,91.9z"/>
	<path d="M265.3,83.3h4.1c1.1,0,2.3-0.1,3.4-0.4l1.1-3.3l3-9.2c-0.2-0.4-0.5-0.7-0.8-1c-1.5-1.7-3.8-2.5-6.7-2.5h-10.4v25.1h6.4
		L265.3,83.3z M270.8,72.6c0.6,0.6,0.9,1.5,0.9,2.4c0,0.9-0.2,1.7-0.8,2.4c-0.9,0.8-2,1.1-3.2,1h-2.4v-6.8h2.4
		C268.8,71.6,269.9,71.9,270.8,72.6L270.8,72.6z"/>
	<circle class="st7" cx="292.3" cy="79.3" r="49"/>
</g>
<g>
	<path d="M60.8,144.2h1.9l6.5,10.3h0.1l-0.1-2.5v-7.8h1.5v12.9h-1.6l-6.8-10.7h-0.1l0.1,2.5v8.3h-1.5V144.2z"/>
	<path d="M74.1,157c-0.5-0.3-0.9-0.6-1.2-1.1s-0.4-1-0.4-1.6c0-1,0.4-1.7,1.1-2.3s1.7-0.8,2.8-0.8c0.6,0,1.1,0.1,1.5,0.2
		c0.5,0.1,0.8,0.3,1.1,0.4v-0.6c0-0.7-0.2-1.2-0.7-1.6c-0.5-0.4-1.1-0.6-1.8-0.6c-0.5,0-1,0.1-1.4,0.3c-0.4,0.2-0.8,0.5-1,0.9
		l-1.2-0.9c0.4-0.6,0.9-1,1.5-1.3s1.3-0.5,2.1-0.5c1.2,0,2.2,0.3,2.9,1c0.7,0.7,1.1,1.5,1.1,2.7v5.8h-1.5v-1.3h-0.1
		c-0.3,0.4-0.7,0.8-1.2,1.1c-0.5,0.3-1.1,0.5-1.8,0.5C75.2,157.4,74.6,157.3,74.1,157z M77.5,155.7c0.4-0.3,0.8-0.6,1.1-1.1
		c0.3-0.4,0.4-0.9,0.4-1.5c-0.3-0.2-0.6-0.3-1.1-0.5s-0.9-0.2-1.3-0.2c-0.8,0-1.5,0.2-1.9,0.5s-0.6,0.8-0.6,1.4
		c0,0.5,0.2,0.9,0.6,1.2c0.4,0.3,0.9,0.5,1.5,0.5C76.6,156.1,77,155.9,77.5,155.7z"/>
	<path d="M84.8,157.2c-0.3-0.1-0.6-0.3-0.8-0.5c-0.2-0.2-0.4-0.5-0.5-0.8c-0.1-0.3-0.2-0.7-0.2-1.1v-5.5h-1.6V148h1.6v-2.6h1.5v2.6
		h2.2v1.4h-2.2v5.1c0,0.5,0.1,0.9,0.3,1.1c0.2,0.3,0.6,0.4,1,0.4c0.3,0,0.7-0.1,1-0.3v1.5c-0.2,0.1-0.4,0.1-0.5,0.2
		c-0.2,0-0.4,0.1-0.7,0.1C85.5,157.4,85.2,157.4,84.8,157.2z"/>
	<path d="M89.1,146c-0.2-0.2-0.3-0.5-0.3-0.8c0-0.3,0.1-0.6,0.3-0.8c0.2-0.2,0.5-0.3,0.8-0.3c0.3,0,0.6,0.1,0.8,0.3
		c0.2,0.2,0.3,0.5,0.3,0.8c0,0.3-0.1,0.6-0.3,0.8c-0.2,0.2-0.5,0.3-0.8,0.3C89.6,146.3,89.4,146.2,89.1,146z M89.2,148h1.5v9.2h-1.5
		V148z"/>
	<path d="M92.1,148h1.6l2.8,7.4h0l2.9-7.4h1.6l-3.7,9.2h-1.5L92.1,148z"/>
	<path d="M103.8,156.8c-0.7-0.4-1.2-1-1.6-1.7c-0.4-0.7-0.6-1.6-0.6-2.5c0-0.9,0.2-1.7,0.5-2.4c0.4-0.7,0.9-1.3,1.6-1.8
		s1.5-0.7,2.3-0.7c0.9,0,1.7,0.2,2.3,0.6c0.7,0.4,1.2,1,1.5,1.7c0.4,0.7,0.5,1.5,0.5,2.4c0,0.2,0,0.3-0.1,0.5h-7.3
		c0,0.7,0.2,1.3,0.5,1.8c0.3,0.5,0.7,0.8,1.1,1.1c0.5,0.2,0.9,0.4,1.4,0.4c1.2,0,2.1-0.6,2.7-1.7l1.3,0.6c-0.4,0.7-0.9,1.3-1.6,1.8
		c-0.7,0.4-1.5,0.6-2.5,0.6C105.3,157.4,104.5,157.2,103.8,156.8z M108.8,151.6c0-0.4-0.1-0.8-0.3-1.2s-0.5-0.7-0.9-1
		c-0.4-0.3-0.9-0.4-1.6-0.4c-0.7,0-1.3,0.2-1.8,0.7c-0.5,0.5-0.8,1.1-1,1.8H108.8z"/>
	<path d="M119.9,144.2h1.7l4.9,12.9h-1.7l-1.3-3.5h-5.6l-1.3,3.5H115L119.9,144.2z M123,152.2l-1.7-4.6l-0.5-1.4h-0.1l-0.5,1.4
		l-1.7,4.6H123z"/>
	<path d="M127.9,148h1.5v1.4h0.1c0.3-0.5,0.7-0.9,1.3-1.2c0.6-0.3,1.2-0.5,1.9-0.5c0.8,0,1.6,0.2,2.2,0.6c0.7,0.4,1.2,1,1.6,1.7
		c0.4,0.7,0.6,1.6,0.6,2.5c0,0.9-0.2,1.8-0.6,2.5c-0.4,0.7-0.9,1.3-1.6,1.7c-0.7,0.4-1.4,0.6-2.2,0.6c-0.7,0-1.3-0.2-1.9-0.5
		c-0.6-0.3-1-0.7-1.3-1.2h-0.1l0.1,1.3v4h-1.5V148z M133.9,155.6c0.5-0.3,0.8-0.7,1.1-1.2c0.3-0.5,0.4-1.1,0.4-1.8s-0.1-1.3-0.4-1.8
		c-0.3-0.5-0.7-0.9-1.1-1.2c-0.5-0.3-1-0.4-1.5-0.4c-0.5,0-1,0.1-1.5,0.4c-0.5,0.3-0.8,0.7-1.1,1.2c-0.3,0.5-0.4,1.1-0.4,1.8
		s0.1,1.3,0.4,1.8c0.3,0.5,0.6,0.9,1.1,1.2c0.5,0.3,1,0.4,1.5,0.4C132.9,156,133.4,155.9,133.9,155.6z"/>
	<path d="M138.5,148h1.5v1.4h0.1c0.3-0.5,0.7-0.9,1.3-1.2c0.6-0.3,1.2-0.5,1.9-0.5c0.8,0,1.6,0.2,2.2,0.6c0.7,0.4,1.2,1,1.6,1.7
		c0.4,0.7,0.6,1.6,0.6,2.5c0,0.9-0.2,1.8-0.6,2.5c-0.4,0.7-0.9,1.3-1.6,1.7c-0.7,0.4-1.4,0.6-2.2,0.6c-0.7,0-1.3-0.2-1.9-0.5
		c-0.6-0.3-1-0.7-1.3-1.2h-0.1l0.1,1.3v4h-1.5V148z M144.5,155.6c0.5-0.3,0.8-0.7,1.1-1.2c0.3-0.5,0.4-1.1,0.4-1.8s-0.1-1.3-0.4-1.8
		c-0.3-0.5-0.7-0.9-1.1-1.2c-0.5-0.3-1-0.4-1.5-0.4c-0.5,0-1,0.1-1.5,0.4c-0.5,0.3-0.8,0.7-1.1,1.2c-0.3,0.5-0.4,1.1-0.4,1.8
		s0.1,1.3,0.4,1.8c0.3,0.5,0.6,0.9,1.1,1.2c0.5,0.3,1,0.4,1.5,0.4C143.5,156,144,155.9,144.5,155.6z"/>
	<path d="M150,156.7c-0.7-0.5-1.1-1.1-1.4-1.8l1.4-0.6c0.2,0.6,0.6,1,1,1.3c0.5,0.3,0.9,0.5,1.5,0.5c0.6,0,1.1-0.1,1.5-0.4
		c0.4-0.2,0.6-0.6,0.6-1c0-0.4-0.2-0.7-0.5-0.9c-0.3-0.2-0.8-0.4-1.5-0.6l-1.1-0.3c-0.7-0.2-1.3-0.5-1.8-0.9c-0.5-0.4-0.7-1-0.7-1.7
		c0-0.5,0.2-1,0.5-1.4c0.3-0.4,0.7-0.7,1.3-0.9c0.5-0.2,1.1-0.3,1.7-0.3c0.8,0,1.5,0.2,2.2,0.5s1.1,0.8,1.3,1.5l-1.3,0.6
		c-0.4-0.8-1.1-1.2-2.2-1.2c-0.5,0-0.9,0.1-1.3,0.4c-0.4,0.2-0.6,0.5-0.6,0.9c0,0.3,0.1,0.6,0.4,0.8s0.7,0.4,1.2,0.5l1.3,0.3
		c0.9,0.2,1.6,0.6,2,1s0.7,1,0.7,1.6c0,0.6-0.2,1.1-0.5,1.5c-0.3,0.4-0.8,0.8-1.3,1c-0.6,0.2-1.2,0.3-1.8,0.3
		C151.5,157.4,150.6,157.2,150,156.7z"/>
</g>
<g>
	<g>
		<circle class="st8" cx="292.3" cy="242.3" r="49"/>
		<path class="st9" d="M292.2,209c-18.4,0-33.3,15-33.3,33.4c0,18.4,15,33.3,33.4,33.3c18.4,0,33.3-14.9,33.3-33.3
			C325.6,223.9,310.7,209,292.2,209C292.3,209,292.2,209,292.2,209z M315.3,229h-9.8c-1-4.1-2.6-8.1-4.6-11.9
			C307,219.2,312.1,223.4,315.3,229z M292.3,215.8c2.8,4,4.9,8.5,6.4,13.2h-12.7C287.3,224.3,289.5,219.8,292.3,215.8L292.3,215.8z
			 M266.5,249c-1.2-4.4-1.2-9,0-13.3h11.3c-0.6,4.4-0.6,8.9,0,13.3H266.5z M269.2,255.6h9.8c1,4.1,2.6,8.1,4.6,11.9
			C277.5,265.4,272.4,261.2,269.2,255.6L269.2,255.6z M279,229h-9.8c3.2-5.6,8.3-9.8,14.4-11.9C281.6,220.9,280.1,224.8,279,229z
			 M292.3,268.8c-2.8-4-4.9-8.5-6.4-13.2h12.7C297.2,260.4,295.1,264.8,292.3,268.8L292.3,268.8z M300.1,249h-15.6
			c-0.7-4.4-0.7-8.9,0-13.3h15.6C300.8,240.1,300.8,244.6,300.1,249z M300.9,267.5c2-3.8,3.6-7.7,4.6-11.9h9.8
			C312.1,261.2,307,265.4,300.9,267.5L300.9,267.5z M306.8,249c0.6-4.4,0.6-8.9,0-13.3h11.3c1.1,4.4,1.1,9,0,13.3H306.8z"/>
	</g>
	<g>
		<path d="M251.5,307h1.7l2.3,9.5l0.2,0.9h0.1l0.3-0.9l2.9-9.5h1.6l2.8,9.5l0.3,0.9h0.1l2.5-10.3h1.7l-3.5,12.9h-1.6l-2.7-9.3
			l-0.3-1h-0.1l-0.3,1l-2.8,9.3h-1.6L251.5,307z"/>
		<path d="M270,319.5c-0.7-0.4-1.2-1-1.6-1.7c-0.4-0.7-0.6-1.6-0.6-2.5c0-0.9,0.2-1.7,0.5-2.4c0.4-0.7,0.9-1.3,1.6-1.8
			s1.5-0.7,2.3-0.7c0.9,0,1.7,0.2,2.3,0.6c0.7,0.4,1.2,1,1.5,1.7c0.4,0.7,0.5,1.5,0.5,2.4c0,0.2,0,0.3-0.1,0.5h-7.3
			c0,0.7,0.2,1.3,0.5,1.8c0.3,0.5,0.7,0.8,1.1,1.1s0.9,0.4,1.4,0.4c1.2,0,2.1-0.6,2.7-1.7l1.3,0.6c-0.4,0.7-0.9,1.3-1.6,1.8
			c-0.7,0.4-1.5,0.6-2.5,0.6C271.5,320.1,270.7,319.9,270,319.5z M275,314.3c0-0.4-0.1-0.8-0.3-1.2c-0.2-0.4-0.5-0.7-0.9-1
			c-0.4-0.3-0.9-0.4-1.6-0.4c-0.7,0-1.3,0.2-1.8,0.7s-0.8,1.1-1,1.8H275z"/>
		<path d="M281.2,319.7c-0.6-0.3-1-0.7-1.3-1.2h-0.1v1.3h-1.5V307h1.5v3.8l-0.1,1.3h0.1c0.3-0.5,0.7-0.9,1.3-1.2
			c0.6-0.3,1.2-0.5,1.9-0.5c0.8,0,1.6,0.2,2.2,0.6c0.7,0.4,1.2,1,1.6,1.7c0.4,0.7,0.6,1.6,0.6,2.5c0,0.9-0.2,1.8-0.6,2.5
			c-0.4,0.7-0.9,1.3-1.6,1.7c-0.7,0.4-1.4,0.6-2.2,0.6C282.3,320.1,281.7,320,281.2,319.7z M284.4,318.3c0.5-0.3,0.8-0.7,1.1-1.2
			c0.3-0.5,0.4-1.1,0.4-1.8c0-0.7-0.1-1.3-0.4-1.8c-0.3-0.5-0.7-0.9-1.1-1.2c-0.5-0.3-1-0.4-1.5-0.4c-0.5,0-1,0.1-1.5,0.4
			s-0.8,0.7-1.1,1.2s-0.4,1.1-0.4,1.8s0.1,1.3,0.4,1.8s0.6,0.9,1.1,1.2s1,0.4,1.5,0.4C283.4,318.7,283.9,318.6,284.4,318.3z"/>
		<path d="M296.9,307h1.7l4.9,12.9h-1.7l-1.3-3.5H295l-1.3,3.5H292L296.9,307z M300,314.9l-1.7-4.6l-0.5-1.4h-0.1l-0.5,1.4l-1.7,4.6
			H300z"/>
		<path d="M304.9,310.7h1.5v1.4h0.1c0.3-0.5,0.7-0.9,1.3-1.2c0.6-0.3,1.2-0.5,1.9-0.5c0.8,0,1.6,0.2,2.2,0.6s1.2,1,1.6,1.7
			s0.6,1.6,0.6,2.5c0,0.9-0.2,1.8-0.6,2.5s-0.9,1.3-1.6,1.7s-1.4,0.6-2.2,0.6c-0.7,0-1.3-0.2-1.9-0.5c-0.6-0.3-1-0.7-1.3-1.2h-0.1
			l0.1,1.3v4h-1.5V310.7z M310.9,318.3c0.5-0.3,0.8-0.7,1.1-1.2c0.3-0.5,0.4-1.1,0.4-1.8c0-0.7-0.1-1.3-0.4-1.8
			c-0.3-0.5-0.7-0.9-1.1-1.2s-1-0.4-1.5-0.4s-1,0.1-1.5,0.4s-0.8,0.7-1.1,1.2c-0.3,0.5-0.4,1.1-0.4,1.8s0.1,1.3,0.4,1.8
			c0.3,0.5,0.6,0.9,1.1,1.2s1,0.4,1.5,0.4S310.4,318.6,310.9,318.3z"/>
		<path d="M315.5,310.7h1.5v1.4h0.1c0.3-0.5,0.7-0.9,1.3-1.2c0.6-0.3,1.2-0.5,1.9-0.5c0.8,0,1.6,0.2,2.2,0.6s1.2,1,1.6,1.7
			s0.6,1.6,0.6,2.5c0,0.9-0.2,1.8-0.6,2.5s-0.9,1.3-1.6,1.7s-1.4,0.6-2.2,0.6c-0.7,0-1.3-0.2-1.9-0.5c-0.6-0.3-1-0.7-1.3-1.2H317
			l0.1,1.3v4h-1.5V310.7z M321.5,318.3c0.5-0.3,0.8-0.7,1.1-1.2c0.3-0.5,0.4-1.1,0.4-1.8c0-0.7-0.1-1.3-0.4-1.8
			c-0.3-0.5-0.7-0.9-1.1-1.2s-1-0.4-1.5-0.4s-1,0.1-1.5,0.4s-0.8,0.7-1.1,1.2c-0.3,0.5-0.4,1.1-0.4,1.8s0.1,1.3,0.4,1.8
			c0.3,0.5,0.6,0.9,1.1,1.2s1,0.4,1.5,0.4S321,318.6,321.5,318.3z"/>
		<path d="M327,319.4c-0.7-0.5-1.1-1.1-1.4-1.8l1.4-0.6c0.2,0.6,0.6,1,1,1.3c0.5,0.3,0.9,0.5,1.5,0.5c0.6,0,1.1-0.1,1.5-0.4
			c0.4-0.2,0.6-0.6,0.6-1c0-0.4-0.2-0.7-0.5-0.9c-0.3-0.2-0.8-0.4-1.5-0.6l-1.1-0.3c-0.7-0.2-1.3-0.5-1.8-0.9
			c-0.5-0.4-0.7-1-0.7-1.7c0-0.5,0.2-1,0.5-1.4c0.3-0.4,0.7-0.7,1.3-0.9c0.5-0.2,1.1-0.3,1.7-0.3c0.8,0,1.5,0.2,2.2,0.5
			c0.6,0.3,1.1,0.8,1.3,1.5l-1.3,0.6c-0.4-0.8-1.1-1.2-2.2-1.2c-0.5,0-0.9,0.1-1.3,0.4s-0.6,0.5-0.6,0.9c0,0.3,0.1,0.6,0.4,0.8
			c0.3,0.2,0.7,0.4,1.2,0.5l1.3,0.3c0.9,0.2,1.6,0.6,2,1s0.7,1,0.7,1.6c0,0.6-0.2,1.1-0.5,1.5c-0.3,0.4-0.8,0.8-1.3,1
			c-0.6,0.2-1.2,0.3-1.8,0.3C328.5,320.1,327.6,319.9,327,319.4z"/>
	</g>
</g>
</svg>
