<svg width="330" height="220" xmlns="http://www.w3.org/2000/svg" xmlns:xlink="http://www.w3.org/1999/xlink"><defs><path id="a" d="M.488.522h58.2V76.25H.488z"/><path id="c" d="M.081.406h65.867V40.12H.081z"/></defs><g fill="none" fill-rule="evenodd"><g transform="translate(98 45)"><mask id="b" fill="#fff"><use xlink:href="#a"/></mask><use fill="#FFF" xlink:href="#a"/><circle stroke="#212121" fill="#2979FF" mask="url(#b)" cx="21.387" cy="22.443" r="7.118"/><path d="M38.914 77.808l6.237 8.851H-8.755l26.953-38.252 7.189 10.202 13.425-19.053 26.952 38.252h-26.85z" stroke="#212121" fill="#2979FF" mask="url(#b)"/><path stroke="#212121" mask="url(#b)" d="M.988 1.022h57.2V75.75H.988z"/></g><g transform="translate(164 94)"><mask id="d" fill="#fff"><use xlink:href="#c"/></mask><path stroke="#212121" d="M.581.906h64.867V39.62H.581z"/><g stroke="#212121" stroke-width=".85" mask="url(#d)"><path d="M-129.12-27.487h324.651M11.578-97.313v220.119M138.329-97.313v220.119M25.662-97.313v220.119M152.412-97.313v220.119M39.745-97.313v220.119M166.496-97.313v220.119M53.829-97.313v220.119M180.58-97.313v220.119M67.912-97.313v220.119M194.663-97.313v220.119M81.995-97.313v220.119M-2.505-97.313v220.119M124.246-97.313v220.119M-16.588-97.313v220.119M110.162-97.313v220.119M-30.672-97.313v220.119M96.079-97.313v220.119M-44.755-97.816v220.119M-58.839-97.816v220.119M-72.922-97.816v220.119M-87.005-97.816v220.119M-101.089-97.816v220.119M-115.172-97.816v220.119M-129.256-97.816v220.119M-129.12-41.543h324.651M-129.12-55.6h324.651M-129.12-69.656h324.651M-129.12-83.712h324.651M-129.12-97.768h324.651M-129.12-13.43h324.651M-129.12.626h324.651M-129.12 14.682h324.651M-129.12 28.739h324.651M-129.12 42.795h324.651M-129.12 56.852h324.651M-129.12 70.908h324.651M-129.12 84.964h324.651M-129.12 99.02h324.651M-129.12 113.077h324.651"/></g><circle stroke="#212121" fill="#3FC4FF" mask="url(#d)" cx="33.015" cy="23.717" r="13.989"/><path stroke="#212121" fill="#FFF" stroke-linejoin="round" mask="url(#d)" transform="rotate(90 33.983 23.717)" d="M33.983 18.694l5.362 10.046H28.622z"/></g><path d="M84.5 140.407h157.1v-8.157a3.75 3.75 0 0 0-3.75-3.75H88.25a3.75 3.75 0 0 0-3.75 3.75v8.157zm157.1 0h.5l-.5.5v-.5z" stroke="#212121" fill="#FFF"/><circle stroke="#212121" fill="#2979FF" cx="97.7" cy="134.7" r="1.7"/><circle stroke="#212121" fill="#3740FF" cx="90.7" cy="134.7" r="1.7"/><circle stroke="#212121" fill="#3FC4FF" cx="103.7" cy="134.7" r="1.7"/><rect stroke="#212121" fill="#FFF" x="112.5" y="162.675" width="100.15" height="7.5" rx="3.75"/><g transform="translate(112 162)"><rect fill="#3740FF" x=".137" y=".35" width="78.2" height="8.5" rx="4.25"/><rect stroke="#212121" x=".637" y=".675" width="77.2" height="7.5" rx="3.75"/></g><path d="M169.425 58.55v24.302M175.218 77.109l-5.11 5.109-5.108-5.11" stroke="#212121"/><circle stroke="#212121" fill="#3FC4FF" cx="175.55" cy="108.55" r="2.55"/><circle stroke="#212121" fill="#3FC4FF" cx="217.55" cy="122.55" r="2.55"/><path d="M241.564 140.184v80.053M84.526 140.184v80.053M99 219.964V192h56.947v27.964M165 219.531V205h64.575v14.531" stroke="#212121"/></g></svg>