<svg width="330" height="220" xmlns="http://www.w3.org/2000/svg" xmlns:xlink="http://www.w3.org/1999/xlink"><defs><path d="M4.7.55h22a4 4 0 0 1 4 4v22a4 4 0 0 1-4 4h-22a4 4 0 0 1-4-4v-22a4 4 0 0 1 4-4z" id="a"/></defs><g fill="none" fill-rule="evenodd"><path d="M94.755 125.2v-12.341a5.5 5.5 0 0 1 5.5-5.5h129.088a5.5 5.5 0 0 1 5.5 5.5v12.34H94.755z" stroke="#212121" fill="#FFF"/><path d="M110.062 138.05a3.5 3.5 0 0 0-3.5 3.5v22a3.5 3.5 0 0 0 3.5 3.5h22a3.5 3.5 0 0 0 3.5-3.5v-22a3.5 3.5 0 0 0-3.5-3.5h-22z" stroke="#212121" fill="#FF8100"/><path d="M151.88 138.05a3.5 3.5 0 0 0-3.5 3.5v22a3.5 3.5 0 0 0 3.5 3.5h22a3.5 3.5 0 0 0 3.5-3.5v-22a3.5 3.5 0 0 0-3.5-3.5h-22z" stroke="#212121" fill="#FFC836"/><g transform="translate(189 137)"><mask id="b" fill="#fff"><use xlink:href="#a"/></mask><path stroke="#212121" d="M4.7 1.05a3.5 3.5 0 0 0-3.5 3.5v22a3.5 3.5 0 0 0 3.5 3.5h22a3.5 3.5 0 0 0 3.5-3.5v-22a3.5 3.5 0 0 0-3.5-3.5h-22z"/><g stroke="#212121" stroke-width=".85" mask="url(#b)"><path d="M-129.472-29.194H100.99M-29.537-78.869V77.39M60.101-78.869V77.39M-19.578-78.869V77.39M70.061-78.869V77.39M-9.618-78.869V77.39M80.021-78.869V77.39M.342-78.869V77.39M89.981-78.869V77.39M10.302-78.869V77.39M99.941-78.869V77.39M20.262-78.869V77.39M-39.497-78.869V77.39M50.142-78.869V77.39M-49.457-78.869V77.39M40.182-78.869V77.39M-59.417-78.869V77.39M30.222-78.869V77.39M-69.377-79.225V77.032M-79.337-79.225V77.032M-89.297-79.225V77.032M-99.257-79.225V77.032M-109.217-79.225V77.032M-119.176-79.225V77.032M-129.136-79.225V77.032M-129.472-39.135H100.99M-129.472-49.076H100.99M-129.472-59.016H100.99M-129.472-68.957H100.99M-129.472-78.898H100.99M-129.472-19.253H100.99M-129.472-9.313H100.99M-129.472.628H100.99M-129.472 10.569H100.99M-129.472 20.51H100.99M-129.472 30.45H100.99M-129.472 40.391H100.99M-129.472 50.332H100.99M-129.472 60.273H100.99M-129.472 70.214H100.99"/></g></g><path d="M191.629 131.479h26.143a8 8 0 0 1 8 8v26.143a8 8 0 0 1-8 8h-26.143a8 8 0 0 1-8-8v-26.143a8 8 0 0 1 8-8z" stroke="#212121" stroke-width=".85" stroke-dasharray="2.55"/><circle stroke="#212121" fill="#FFEE43" cx="209.229" cy="157.562" r="2.5"/><circle stroke="#212121" fill="#FFEE43" cx="199.287" cy="147.557" r="2.5"/><path d="M193.588 48.588a3.5 3.5 0 0 0-3.5 3.5v22a3.5 3.5 0 0 0 3.5 3.5h22a3.5 3.5 0 0 0 3.5-3.5v-22a3.5 3.5 0 0 0-3.5-3.5h-22z" stroke="#212121" fill="#FFEE43"/><path d="M204.802 62.5v38.835M211.719 94.25l-7.019 7.02-7.019-7.02" stroke="#212121"/><path d="M152.266 114.633a2.128 2.128 0 0 0 0 4.257h25.468a2.128 2.128 0 0 0 0-4.257h-25.468z" stroke="#212121" fill="#F5F5F5"/><path d="M94.75 124.9v92.6M234.76 124.9v92.6" stroke="#212121"/></g></svg>