<svg width="96" height="96" xmlns="http://www.w3.org/2000/svg" xmlns:xlink="http://www.w3.org/1999/xlink"><defs><linearGradient x1="36.626%" y1="20.358%" x2="64.01%" y2="100.652%" id="b"><stop stop-color="#FFF" stop-opacity=".1" offset="0%"/><stop stop-color="#FFF" stop-opacity="0" offset="100%"/></linearGradient><linearGradient x1="68.935%" y1="65.756%" x2="31.065%" y2="35.799%" id="c"><stop stop-color="#262626" stop-opacity=".1" offset="0%"/><stop stop-color="#262626" stop-opacity="0" offset="100%"/></linearGradient><linearGradient x1="62.531%" y1="13.086%" x2="24.779%" y2="100.996%" id="d"><stop stop-color="#262626" stop-opacity=".1" offset="0%"/><stop stop-color="#262626" stop-opacity="0" offset="100%"/></linearGradient><linearGradient x1="0%" y1="50%" y2="50%" id="e"><stop stop-color="#262626" stop-opacity=".1" offset="0%"/><stop stop-color="#262626" stop-opacity="0" offset="100%"/></linearGradient><path d="M10 14a2 2 0 1 1 0-4 2 2 0 0 1 0 4zm71-6a1 1 0 1 1 0-2 1 1 0 0 1 0 2zM15.5 31a1.5 1.5 0 1 1 0-3 1.5 1.5 0 0 1 0 3zM1 36a1 1 0 1 1 0-2 1 1 0 0 1 0 2zm8 44a1 1 0 1 1 0-2 1 1 0 0 1 0 2zm12-31a1 1 0 1 1 0-2 1 1 0 0 1 0 2zM5 54a2 2 0 1 1 0-4 2 2 0 0 1 0 4zm16 32a1 1 0 1 1 0-2 1 1 0 0 1 0 2zm38-73a1 1 0 1 1 0-2 1 1 0 0 1 0 2zM34 6a1 1 0 1 1 0-2 1 1 0 0 1 0 2zm49 30a1 1 0 1 1 0-2 1 1 0 0 1 0 2zm-9 6a1 1 0 1 1 0-2 1 1 0 0 1 0 2z" id="a"/><mask id="f" x="0" y="0" width="84" height="82" fill="#fff"><use xlink:href="#a"/></mask><circle id="g" cx="20.962" cy="20.868" r="20.801"/></defs><g fill="none" fill-rule="evenodd"><path d="M0 0h96v96H0z"/><g transform="translate(5 3)"><path d="M3 0h80v80H3z"/><path fill="#FFF" d="M31.375 44.642h22.94v22.94h-22.94z"/><path d="M25.758 77.176l5.2-42.962h25.026l5.199 42.962H25.758zm25.185-31.45l-15.7 5.102-1.909 12.88 19.342-6.285-1.733-11.696z" stroke="#000" fill="#F4481E" fill-rule="nonzero"/><path stroke="#979797" fill="#FFF176" d="M34.559 19.324h15.94V39.03H34.56z"/><path d="M56.818 34.214h3.337v6.674H26.786v-6.674h3.337V20.866l13.348-8.342 13.347 8.342v13.348zm-6.674 0v-9.649l-6.673-4.17-6.674 4.17v9.649h13.347z" stroke="#000" fill="#F4481E" fill-rule="nonzero"/><path d="M50.022 37.123l4.664 31.485a36.538 36.538 0 0 1-18.166 4.804 36.538 36.538 0 0 1-18.167-4.804l4.664-31.485h-2.996v-6.674h3.337V17.102l13.348-8.343 13.347 8.343v13.347h3.337v6.674h-3.368z" fill="url(#b)" fill-rule="nonzero" transform="translate(6.765 3.765)"/><path fill="url(#c)" fill-rule="nonzero" d="M36.706 30.45H23.358V17.101l13.348-8.343z" transform="translate(6.765 3.765)"/><path d="M36.706 73.412a36.677 36.677 0 0 1-18.167-4.804l4.183-31.485h13.984v36.289z" fill="url(#d)" fill-rule="nonzero" transform="translate(6.765 3.765)"/><path fill="url(#e)" fill-rule="nonzero" transform="matrix(-1 0 0 1 63.492 3.765)" d="M20.021 30.449h16.684v6.674H20.021z"/><use stroke="#212324" mask="url(#f)" stroke-width="2" fill="#FFA600" stroke-dasharray="1,1" xlink:href="#a"/><path d="M31 72c3.314 0 6-2.91 6-6.5S34.314 59 31 59a5.6 5.6 0 0 0-.73.048A8.5 8.5 0 0 0 14 62.417 5 5 0 1 0 12 72l19-.001zM65.436 22.846h-1.513a2.923 2.923 0 0 0 0 5.846h11.692v-.087c.237.057.48.087.731.087 2.018 0 3.654-1.963 3.654-4.384 0-2.422-1.636-4.385-3.654-4.385a3.1 3.1 0 0 0-1.128.213 5.117 5.117 0 0 0-9.782 2.71z" stroke="#212324" fill="#FFF"/></g><g transform="translate(50 50)"><mask id="h" fill="#fff"><use xlink:href="#g"/></mask><use stroke="#000" fill="#FFF" xlink:href="#g"/><g mask="url(#h)" stroke="#212121" stroke-width=".81"><path d="M-72.66 6.242h206.254M16.77-38.202v139.844M97.035-38.202v139.844M25.688-38.202v139.844m80.265-139.844v139.844M34.607-38.202v139.844m80.265-139.844v139.844M43.525-38.202v139.844M123.79-38.202v139.844M52.443-38.202v139.844M132.71-38.202v139.844M61.362-38.202v139.844M7.852-38.202v139.844M88.116-38.202v139.844M-1.067-38.202v139.844M79.198-38.202v139.844M-9.985-38.202v139.844M70.28-38.202v139.844M-18.903-38.52v139.844M-27.822-38.52v139.844M-36.74-38.52v139.844M-45.66-38.52v139.844M-54.577-38.52v139.844M-63.495-38.52v139.844M-72.414-38.52v139.844M-72.66-2.66h206.254m-206.254-8.9h206.254M-72.66-20.463h206.254M-72.66-29.363h206.254M-72.66-38.265h206.254M-72.66 15.143h206.254m-206.254 8.9h206.254M-72.66 32.946h206.254M-72.66 41.846h206.254M-72.66 50.748h206.254m-206.254 8.9h206.254M-72.66 68.55h206.254M-72.66 77.451h206.254M-72.66 86.353h206.254m-206.254 8.9h206.254"/></g></g><path d="M82.333 63c-3.48.933-7.56 1.333-11.333 1.333-3.773 0-7.853-.4-11.333-1.333L59 65.667c2.48.666 5.333 1.106 8 1.333v17.333h2.667v-8h2.666v8H75V67c2.667-.227 5.52-.667 8-1.333L82.333 63zM71 63c1.467 0 2.667-1.2 2.667-2.667 0-1.466-1.2-2.666-2.667-2.666a2.675 2.675 0 0 0-2.667 2.666C68.333 61.8 69.533 63 71 63z" stroke="#000" fill="#FFF176" fill-rule="nonzero"/><path d="M55 55h32v32H55z"/></g></svg>