<svg id="Layer_1" xmlns="http://www.w3.org/2000/svg" viewBox="0 0 192 192"><style>.st0,.st1,.st3{fill:none;stroke:#212121}.st1,.st3{fill-rule:evenodd;clip-rule:evenodd;fill:#ffee43}.st3{fill:#ffb63d}.st4{stroke:#000}.st4,.st5{fill:none}</style><g transform="translate(16 13)"><ellipse class="st0" cx="80" cy="83" rx="80" ry="26"/><ellipse transform="rotate(-60 80 83.003)" class="st0" cx="80" cy="83" rx="80" ry="26"/><ellipse transform="rotate(-30 79.995 83.003)" class="st0" cx="80" cy="83" rx="26" ry="80"/></g><path class="st1" d="M32 70.5c-5.2 0-9.5 4.3-9.5 9.5s4.3 9.5 9.5 9.5 9.5-4.3 9.5-9.5-4.3-9.5-9.5-9.5z"/><path d="M32 76v8m-4-4h8" fill="none" stroke="#000" stroke-linecap="square"/><path class="st3" d="M50 132.5c-5.2 0-9.5 4.3-9.5 9.5s4.3 9.5 9.5 9.5 9.5-4.3 9.5-9.5-4.3-9.5-9.5-9.5z"/><path class="st4" d="M46 144.8v1.2h1.2l5-5-1.2-1.2-5 5zm8-5.6l-1.2-1.2-.6.6 1.2 1.2.6-.6z"/><path class="st5" d="M44 136h12v12H44v-12z"/><path class="st3" d="M142 32.5c-5.2 0-9.5 4.3-9.5 9.5s4.3 9.5 9.5 9.5 9.5-4.3 9.5-9.5-4.3-9.5-9.5-9.5z"/><path class="st4" d="M140 38.5v7l5.5-3.5-5.5-3.5z"/><path class="st5" d="M136 36h12v12h-12V36z"/><path class="st1" d="M162 101.5c-5.2 0-9.5 4.3-9.5 9.5s4.3 9.5 9.5 9.5 9.5-4.3 9.5-9.5-4.3-9.5-9.5-9.5z"/><path class="st4" d="M165.2 107h-6.4c-.4 0-.8.4-.8.8v7.2l1.6-1.6h5.6c.4 0 .8-.4.8-.8v-4.8c0-.4-.4-.8-.8-.8z"/><path class="st5" d="M156 106h12v12h-12v-12z"/><path d="M66 53h60v86H66V53z" fill="#fff" stroke="#212121"/><path d="M66 139v5.7c0 5.1 4.2 9.3 9.3 9.3h41.3c5.2 0 9.3-4.2 9.3-9.3V139H66zm0-86v-5.7c0-5.1 4.2-9.3 9.3-9.3h41.3c5.2 0 9.3 4.2 9.3 9.3V53H66z" fill="#ff5915" stroke="#212121"/><path class="st0" d="M90 46h12.4"/><g><path d="M72 80h48v52H72V80z" fill-rule="evenodd" clip-rule="evenodd" fill="#f5f5f5"/><g transform="translate(78 88)"><circle cx="12" cy="12" r="12" fill="#ffb63d"/><circle class="st0" cx="24" cy="24" r="11.5"/></g></g><circle class="st3" cx="96.5" cy="64.5" r="4"/><path class="st0" d="M89 71.5h16"/><path d="M29 32c-1.7 0-3-1.3-3-3s1.3-3 3-3 3 1.3 3 3-1.3 3-3 3zm142 124c-1.1 0-2-.9-2-2s.9-2 2-2 2 .9 2 2-.9 2-2 2zm-152-4c-1.1 0-2-.9-2-2s.9-2 2-2 2 .9 2 2-.9 2-2 2zm60 32c-1.7 0-3-1.3-3-3s1.3-3 3-3 3 1.3 3 3-1.3 3-3 3zm73-8c-1.1 0-2-.9-2-2s.9-2 2-2 2 .9 2 2-.9 2-2 2zM90 13c-1.1 0-2-.9-2-2s.9-2 2-2 2 .9 2 2-.9 2-2 2zm89 52c-1.7 0-3-1.3-3-3s1.3-3 3-3 3 1.3 3 3-1.3 3-3 3zm-8-37c-1.1 0-2-.9-2-2s.9-2 2-2 2 .9 2 2-.9 2-2 2z" fill-rule="evenodd" clip-rule="evenodd" fill="#ffee43"/></svg>