<svg width="192" height="192" xmlns="http://www.w3.org/2000/svg"><g fill="none" fill-rule="evenodd"><path fill="#FFF" d="M0 0h192v192H0z"/><g transform="translate(16 13)" stroke="#212121"><ellipse cx="80" cy="83" rx="80" ry="26"/><ellipse transform="rotate(120 80 83)" cx="80" cy="83" rx="80" ry="26"/><ellipse transform="rotate(60 80 83)" cx="80" cy="83" rx="80" ry="26"/></g><path d="M32 70.5a9.5 9.5 0 1 0 0 19 9.5 9.5 0 0 0 0-19z" stroke="#212121" fill="#FFEE43"/><path d="M32 76v8M28 80h8" stroke="#000" stroke-linecap="square"/><path d="M50 132.5a9.5 9.5 0 1 0 0 19 9.5 9.5 0 0 0 0-19z" stroke="#212121" fill="#FFB63D"/><path d="M46 144.832V146h1.168l5.03-5.03-1.168-1.168-5.03 5.03zm8-5.664L52.832 138l-.56.56 1.168 1.168.56-.56z" stroke="#000"/><path d="M44 136h12v12H44z"/><path d="M142 32.5a9.5 9.5 0 1 0 0 19 9.5 9.5 0 0 0 0-19z" stroke="#212121" fill="#FFB63D"/><path stroke="#000" d="M140 38.5v7l5.5-3.5z"/><path d="M136 36h12v12h-12z"/><g><path d="M162 101.5a9.5 9.5 0 1 0 0 19 9.5 9.5 0 0 0 0-19z" fill="#FFEE43" stroke="#212121"/><path d="M165.2 107h-6.4c-.44 0-.796.36-.796.8L158 115l1.6-1.6h5.6c.44 0 .8-.36.8-.8v-4.8c0-.44-.36-.8-.8-.8z" stroke="#000"/><path d="M156 106h12v12h-12z"/></g><g stroke="#212121"><path d="M66 53h60v86H66z" fill="#FFF" fill-rule="nonzero"/><path d="M66 139v5.717c0 5.127 4.186 9.283 9.349 9.283h41.302c5.163 0 9.349-4.156 9.349-9.283V139H66zM66 53v-5.717C66 42.156 70.186 38 75.349 38h41.302c5.163 0 9.349 4.156 9.349 9.283V53H66z" fill="#FF5915" fill-rule="nonzero"/><path d="M90 46.02h12.369"/></g><g><path fill="#F5F5F5" d="M72 80h48v52H72z"/><g transform="translate(78 88)" fill-rule="nonzero"><circle fill="#FFB63D" cx="12" cy="12" r="12"/><circle stroke="#212121" cx="24" cy="24" r="11.5"/></g></g><circle stroke="#212121" fill="#FFB63D" cx="96.5" cy="64.5" r="4"/><path d="M89 71.5h16" stroke="#212121"/><path d="M29 32a3 3 0 1 1 0-6 3 3 0 0 1 0 6zm142 124a2 2 0 1 1 0-4 2 2 0 0 1 0 4zm-152-4a2 2 0 1 1 0-4 2 2 0 0 1 0 4zm60 32a3 3 0 1 1 0-6 3 3 0 0 1 0 6zm73-8a2 2 0 1 1 0-4 2 2 0 0 1 0 4zM90 13a2 2 0 1 1 0-4 2 2 0 0 1 0 4zm89 52a3 3 0 1 1 0-6 3 3 0 0 1 0 6zm-8-37a2 2 0 1 1 0-4 2 2 0 0 1 0 4z" fill="#FFEE43"/></g></svg>