<svg width="1657" height="354" fill="none" xmlns="http://www.w3.org/2000/svg"><path fill="#2C888E" d="M3 159h281v45H3z"/><path fill="#CF53DA" d="M565 159h281v45H565z"/><path fill="#F29239" d="M284 159h281v45H284z"/><path fill="#C1D0E1" d="M846 129h404v105H846z"/><path fill="#7FA7DE" d="M1250 129h404v105h-404z"/><path d="M847.766 333.77a2.501 2.501 0 0 0 .004-3.536l-15.891-15.928a2.5 2.5 0 1 0-3.54 3.531l14.125 14.159-14.158 14.125a2.5 2.5 0 1 0 3.531 3.54l15.929-15.891zM2.997 333.5l843 1 .006-5-843-1-.006 5z" fill="#828282"/><path d="M1.234 329.244a2.5 2.5 0 0 0-.004 3.536l15.892 15.928a2.5 2.5 0 1 0 3.54-3.531L6.535 331.018l14.158-14.125a2.5 2.5 0 0 0-3.531-3.54L1.234 329.244zm844.769.256l-843-.986-.006 5 843 .986.006-5zM1251.77 67.228c.97.974.97 2.557 0 3.535l-15.9 15.95c-.98.978-2.56.982-3.54.008a2.502 2.502 0 0 1 0-3.535l14.13-14.177-14.15-14.107a2.511 2.511 0 0 1 0-3.536 2.505 2.505 0 0 1 3.54-.009l15.92 15.87zm-405.771.272l404.001-1v5l-403.999 1-.002-5z" fill="#828282"/><path d="M844.233 71.758a2.5 2.5 0 0 1-.002-3.535l15.901-15.95a2.5 2.5 0 0 1 3.536-.008 2.5 2.5 0 0 1 .002 3.536l-14.134 14.176 14.15 14.108c.976.974.977 2.557.002 3.536a2.5 2.5 0 0 1-3.536.008l-15.919-15.871zM1250 71.5l-403.999.986-.002-5L1250 66.5v5zM266.062 301.172c-.421 3.609-1.757 6.398-4.007 8.367-2.235 1.953-5.211 2.93-8.93 2.93-4.031 0-7.266-1.446-9.703-4.336-2.422-2.891-3.633-6.758-3.633-11.602v-3.281c0-3.172.563-5.961 1.688-8.367 1.14-2.406 2.75-4.25 4.828-5.531 2.078-1.297 4.484-1.946 7.218-1.946 3.625 0 6.532 1.016 8.719 3.047 2.188 2.016 3.461 4.813 3.82 8.391h-4.523c-.391-2.719-1.242-4.688-2.555-5.906-1.296-1.219-3.117-1.829-5.461-1.829-2.875 0-5.132 1.063-6.773 3.188-1.625 2.125-2.438 5.148-2.438 9.07v3.305c0 3.703.774 6.648 2.321 8.836 1.547 2.187 3.711 3.281 6.492 3.281 2.5 0 4.414-.562 5.742-1.687 1.344-1.141 2.235-3.118 2.672-5.93h4.523zm4.336-2.086c0-2.484.485-4.719 1.454-6.703.984-1.985 2.343-3.516 4.078-4.594 1.75-1.078 3.742-1.617 5.976-1.617 3.453 0 6.242 1.195 8.367 3.586 2.141 2.39 3.211 5.57 3.211 9.539v.305c0 2.468-.476 4.687-1.429 6.656-.938 1.953-2.289 3.476-4.055 4.57-1.75 1.094-3.766 1.641-6.047 1.641-3.437 0-6.226-1.196-8.367-3.586-2.125-2.391-3.188-5.555-3.188-9.492v-.305zm4.36.516c0 2.812.648 5.07 1.945 6.773 1.313 1.703 3.063 2.555 5.25 2.555 2.203 0 3.953-.86 5.25-2.578 1.297-1.735 1.945-4.157 1.945-7.266 0-2.781-.664-5.031-1.992-6.75-1.312-1.734-3.062-2.602-5.25-2.602-2.14 0-3.867.852-5.179 2.555-1.313 1.703-1.969 4.141-1.969 7.313zm28.265-12.961l.141 3.187c1.938-2.437 4.469-3.656 7.594-3.656 5.359 0 8.062 3.023 8.109 9.07V312h-4.336v-16.781c-.015-1.828-.437-3.18-1.265-4.055-.813-.875-2.086-1.312-3.821-1.312-1.406 0-2.64.375-3.703 1.125-1.062.75-1.89 1.734-2.484 2.953V312h-4.336v-25.359h4.101zm26.485 0l.14 3.187c1.938-2.437 4.469-3.656 7.594-3.656 5.36 0 8.063 3.023 8.11 9.07V312h-4.336v-16.781c-.016-1.828-.438-3.18-1.266-4.055-.812-.875-2.086-1.312-3.82-1.312-1.407 0-2.641.375-3.703 1.125-1.063.75-1.891 1.734-2.485 2.953V312h-4.336v-25.359h4.102zm32.906 25.828c-3.437 0-6.234-1.125-8.391-3.375-2.156-2.266-3.234-5.289-3.234-9.071v-.796c0-2.516.477-4.758 1.43-6.727.969-1.984 2.312-3.531 4.031-4.641 1.734-1.125 3.609-1.687 5.625-1.687 3.297 0 5.859 1.086 7.687 3.258 1.829 2.172 2.743 5.281 2.743 9.328v1.804h-17.18c.063 2.5.789 4.524 2.18 6.071 1.406 1.531 3.187 2.297 5.343 2.297 1.532 0 2.829-.313 3.891-.938a9.773 9.773 0 0 0 2.789-2.484l2.649 2.062c-2.125 3.266-5.313 4.899-9.563 4.899zm-.539-22.735c-1.75 0-3.219.641-4.406 1.922-1.188 1.266-1.922 3.047-2.203 5.344h12.703v-.328c-.125-2.203-.719-3.906-1.781-5.11-1.063-1.218-2.5-1.828-4.313-1.828zm25.641 19.196c1.546 0 2.898-.469 4.054-1.407 1.157-.937 1.797-2.109 1.922-3.515h4.102c-.078 1.453-.578 2.836-1.5 4.148-.922 1.313-2.156 2.36-3.703 3.141a10.588 10.588 0 0 1-4.875 1.172c-3.454 0-6.204-1.149-8.25-3.446-2.032-2.312-3.047-5.468-3.047-9.468v-.727c0-2.469.453-4.664 1.359-6.586.906-1.922 2.203-3.414 3.891-4.476 1.703-1.063 3.711-1.594 6.023-1.594 2.844 0 5.203.851 7.078 2.555 1.891 1.703 2.899 3.914 3.024 6.632h-4.102c-.125-1.64-.75-2.984-1.875-4.031-1.109-1.062-2.484-1.594-4.125-1.594-2.203 0-3.914.797-5.133 2.391-1.203 1.578-1.804 3.867-1.804 6.867v.82c0 2.922.601 5.172 1.804 6.75 1.203 1.579 2.922 2.368 5.157 2.368zm20.836-28.43v6.141h4.734v3.351h-4.734v15.727c0 1.015.21 1.781.632 2.297.422.5 1.141.75 2.157.75.5 0 1.187-.094 2.062-.282V312c-1.141.312-2.25.469-3.328.469-1.937 0-3.398-.586-4.383-1.758-.984-1.172-1.476-2.836-1.476-4.992v-15.727h-4.618v-3.351h4.618V280.5h4.336zm14.531 31.5h-4.336v-25.359h4.336V312zm-4.688-32.086c0-.703.211-1.297.633-1.781.438-.485 1.078-.727 1.922-.727.844 0 1.484.242 1.922.727.437.484.656 1.078.656 1.781 0 .703-.219 1.289-.656 1.758-.438.469-1.078.703-1.922.703-.844 0-1.484-.234-1.922-.703-.422-.469-.633-1.055-.633-1.758zm10.5 19.172c0-2.484.485-4.719 1.453-6.703.985-1.985 2.344-3.516 4.079-4.594 1.75-1.078 3.742-1.617 5.976-1.617 3.453 0 6.242 1.195 8.367 3.586 2.141 2.39 3.211 5.57 3.211 9.539v.305c0 2.468-.476 4.687-1.429 6.656-.938 1.953-2.29 3.476-4.055 4.57-1.75 1.094-3.766 1.641-6.047 1.641-3.438 0-6.227-1.196-8.367-3.586-2.125-2.391-3.188-5.555-3.188-9.492v-.305zm4.36.516c0 2.812.648 5.07 1.945 6.773 1.312 1.703 3.062 2.555 5.25 2.555 2.203 0 3.953-.86 5.25-2.578 1.297-1.735 1.945-4.157 1.945-7.266 0-2.781-.664-5.031-1.992-6.75-1.312-1.734-3.062-2.602-5.25-2.602-2.141 0-3.867.852-5.18 2.555-1.312 1.703-1.968 4.141-1.968 7.313zm28.265-12.961l.141 3.187c1.937-2.437 4.469-3.656 7.594-3.656 5.359 0 8.062 3.023 8.109 9.07V312h-4.336v-16.781c-.016-1.828-.437-3.18-1.266-4.055-.812-.875-2.085-1.312-3.82-1.312-1.406 0-2.64.375-3.703 1.125-1.062.75-1.891 1.734-2.484 2.953V312h-4.336v-25.359h4.101zm49.055 18.632c0-1.171-.445-2.078-1.336-2.718-.875-.657-2.414-1.219-4.617-1.688-2.188-.469-3.93-1.031-5.227-1.687-1.281-.657-2.234-1.438-2.859-2.344-.609-.906-.914-1.984-.914-3.234 0-2.079.875-3.836 2.625-5.274 1.765-1.437 4.015-2.156 6.75-2.156 2.875 0 5.203.742 6.984 2.226 1.797 1.485 2.696 3.383 2.696 5.696h-4.36c0-1.188-.508-2.211-1.523-3.071-1-.859-2.266-1.289-3.797-1.289-1.578 0-2.813.344-3.703 1.032-.891.687-1.336 1.586-1.336 2.695 0 1.047.414 1.836 1.242 2.367.828.531 2.32 1.039 4.477 1.524 2.171.484 3.929 1.062 5.273 1.734 1.344.672 2.336 1.484 2.977 2.437.656.938.984 2.086.984 3.446 0 2.265-.906 4.086-2.719 5.461-1.812 1.359-4.164 2.039-7.054 2.039-2.032 0-3.829-.36-5.391-1.078-1.563-.719-2.789-1.719-3.68-3-.875-1.297-1.312-2.696-1.312-4.196h4.336c.078 1.453.656 2.61 1.734 3.469 1.094.844 2.531 1.266 4.313 1.266 1.64 0 2.953-.328 3.937-.985 1-.672 1.5-1.562 1.5-2.672zm20.508 7.196c-3.438 0-6.235-1.125-8.391-3.375-2.156-2.266-3.234-5.289-3.234-9.071v-.796c0-2.516.476-4.758 1.43-6.727.968-1.984 2.312-3.531 4.031-4.641 1.734-1.125 3.609-1.687 5.625-1.687 3.297 0 5.859 1.086 7.687 3.258 1.828 2.172 2.742 5.281 2.742 9.328v1.804h-17.179c.062 2.5.789 4.524 2.179 6.071 1.407 1.531 3.188 2.297 5.344 2.297 1.531 0 2.828-.313 3.891-.938a9.786 9.786 0 0 0 2.789-2.484l2.648 2.062c-2.125 3.266-5.312 4.899-9.562 4.899zm-.539-22.735c-1.75 0-3.219.641-4.406 1.922-1.188 1.266-1.922 3.047-2.204 5.344h12.704v-.328c-.126-2.203-.719-3.906-1.782-5.11-1.062-1.218-2.5-1.828-4.312-1.828zm21.351-9.234v6.141h4.735v3.351h-4.735v15.727c0 1.015.211 1.781.633 2.297.422.5 1.141.75 2.156.75.5 0 1.188-.094 2.063-.282V312c-1.141.312-2.25.469-3.328.469-1.938 0-3.399-.586-4.383-1.758-.984-1.172-1.477-2.836-1.477-4.992v-15.727h-4.617v-3.351h4.617V280.5h4.336zm25.477 28.992c-1.688 1.985-4.164 2.977-7.43 2.977-2.703 0-4.765-.781-6.187-2.344-1.407-1.578-2.117-3.906-2.133-6.984v-16.5h4.336v16.382c0 3.844 1.562 5.766 4.687 5.766 3.313 0 5.516-1.234 6.61-3.703v-18.445h4.336V312h-4.125l-.094-2.508zm32.25-9.89c0 3.859-.883 6.968-2.649 9.328-1.765 2.359-4.156 3.539-7.171 3.539-3.079 0-5.5-.977-7.266-2.93v12.211H588v-35.109h3.961l.211 2.812c1.766-2.187 4.219-3.281 7.359-3.281 3.047 0 5.453 1.148 7.219 3.445 1.781 2.297 2.672 5.492 2.672 9.586v.399zm-4.336-.493c0-2.859-.609-5.117-1.828-6.773-1.219-1.656-2.891-2.484-5.016-2.484-2.625 0-4.594 1.164-5.906 3.492v12.117c1.297 2.312 3.281 3.469 5.953 3.469 2.078 0 3.727-.821 4.945-2.461 1.235-1.657 1.852-4.11 1.852-7.36zM1017.54 4.578h-10.97V35h-4.48V4.578h-10.942V.875h26.392v3.703zm29.01 0h-10.96V35h-4.48V4.578h-10.95V.875h26.39v3.703zm23.89 15.352h-14.32V35h-4.5V.875h21.14v3.703h-16.64V16.25h14.32v3.68zm7.71 15.07V.875h11.15c3.71 0 6.49.766 8.35 2.297 1.87 1.531 2.81 3.797 2.81 6.797 0 1.594-.45 3.008-1.36 4.242-.9 1.219-2.14 2.164-3.7 2.836 1.84.515 3.3 1.5 4.36 2.953 1.08 1.438 1.62 3.156 1.62 5.156 0 3.063-1 5.469-2.98 7.219-1.99 1.75-4.79 2.625-8.42 2.625h-11.83zm4.5-15.96v12.28h7.43c2.09 0 3.74-.539 4.94-1.617 1.22-1.094 1.83-2.594 1.83-4.5 0-4.11-2.23-6.164-6.7-6.164h-7.5zm0-3.61h6.8c1.96 0 3.53-.492 4.71-1.477 1.18-.984 1.78-2.32 1.78-4.008 0-1.875-.55-3.234-1.64-4.078-1.1-.86-2.76-1.289-5-1.289h-6.65V15.43zM1655.77 332.228a2.51 2.51 0 0 1 0 3.535l-15.9 15.95c-.98.978-2.56.982-3.54.008a2.502 2.502 0 0 1 0-3.535l14.13-14.177-14.15-14.107a2.512 2.512 0 0 1 0-3.536 2.505 2.505 0 0 1 3.54-.009l15.92 15.871zM1250 332.5l404-1v5l-404 1v-5z" fill="#828282"/><path d="M1248.23 336.758a2.51 2.51 0 0 1 0-3.535l15.9-15.949a2.505 2.505 0 0 1 3.54-.009c.97.974.98 2.557 0 3.536l-14.13 14.176 14.15 14.108a2.51 2.51 0 0 1 0 3.535c-.98.979-2.56.983-3.54.009l-15.92-15.871zM1654 336.5l-404 .986v-5l404-.986v5zM1281.48 286.195h-8.02V300h-4.52v-34.125h11.29c3.85 0 6.8.875 8.86 2.625 2.08 1.75 3.12 4.297 3.12 7.641 0 2.125-.58 3.976-1.73 5.554-1.14 1.578-2.74 2.758-4.78 3.539l8.01 14.485V300h-4.83l-7.4-13.805zm-8.02-3.679h6.92c2.23 0 4-.578 5.32-1.735 1.32-1.156 1.99-2.703 1.99-4.64 0-2.11-.64-3.727-1.9-4.852-1.25-1.125-3.06-1.695-5.44-1.711h-6.89v12.938zm34.92 17.953c-3.43 0-6.23-1.125-8.39-3.375-2.15-2.266-3.23-5.289-3.23-9.071v-.796c0-2.516.47-4.758 1.43-6.727.97-1.984 2.31-3.531 4.03-4.641 1.73-1.125 3.61-1.687 5.62-1.687 3.3 0 5.86 1.086 7.69 3.258 1.83 2.172 2.74 5.281 2.74 9.328v1.804h-17.18c.07 2.5.79 4.524 2.18 6.071 1.41 1.531 3.19 2.297 5.35 2.297 1.53 0 2.83-.313 3.89-.938a9.857 9.857 0 0 0 2.79-2.484l2.65 2.062c-2.13 3.266-5.32 4.899-9.57 4.899zm-.54-22.735c-1.75 0-3.22.641-4.4 1.922-1.19 1.266-1.92 3.047-2.21 5.344h12.71v-.328c-.13-2.203-.72-3.906-1.78-5.11-1.07-1.218-2.5-1.828-4.32-1.828zm30.24 15.539c0-1.171-.45-2.078-1.34-2.718-.87-.657-2.41-1.219-4.62-1.688-2.18-.469-3.92-1.031-5.22-1.687-1.28-.657-2.24-1.438-2.86-2.344-.61-.906-.92-1.984-.92-3.234 0-2.079.88-3.836 2.63-5.274 1.77-1.437 4.02-2.156 6.75-2.156 2.88 0 5.2.742 6.98 2.226 1.8 1.485 2.7 3.383 2.7 5.696h-4.36c0-1.188-.51-2.211-1.52-3.071-1-.859-2.27-1.289-3.8-1.289-1.58 0-2.81.344-3.7 1.032-.89.687-1.34 1.586-1.34 2.695 0 1.047.42 1.836 1.24 2.367.83.531 2.32 1.039 4.48 1.524 2.17.484 3.93 1.062 5.27 1.734 1.35.672 2.34 1.484 2.98 2.437.66.938.98 2.086.98 3.446 0 2.265-.9 4.086-2.71 5.461-1.82 1.359-4.17 2.039-7.06 2.039-2.03 0-3.83-.36-5.39-1.078-1.56-.719-2.79-1.719-3.68-3-.87-1.297-1.31-2.696-1.31-4.196h4.33c.08 1.453.66 2.61 1.74 3.469 1.09.844 2.53 1.266 4.31 1.266 1.64 0 2.95-.328 3.94-.985 1-.672 1.5-1.562 1.5-2.672zm31.4-5.671c0 3.859-.88 6.968-2.64 9.328-1.77 2.359-4.16 3.539-7.18 3.539-3.07 0-5.5-.977-7.26-2.93v12.211h-4.34v-35.109h3.96l.21 2.812c1.77-2.187 4.22-3.281 7.36-3.281 3.05 0 5.46 1.148 7.22 3.445 1.78 2.297 2.67 5.492 2.67 9.586v.399zm-4.33-.493c0-2.859-.61-5.117-1.83-6.773-1.22-1.656-2.89-2.484-5.02-2.484-2.62 0-4.59 1.164-5.9 3.492v12.117c1.3 2.312 3.28 3.469 5.95 3.469 2.08 0 3.73-.821 4.95-2.461 1.23-1.657 1.85-4.11 1.85-7.36zm8.72-.023c0-2.484.48-4.719 1.45-6.703.98-1.985 2.34-3.516 4.08-4.594 1.75-1.078 3.74-1.617 5.98-1.617 3.45 0 6.24 1.195 8.36 3.586 2.14 2.39 3.21 5.57 3.21 9.539v.305c0 2.468-.47 4.687-1.43 6.656-.93 1.953-2.29 3.476-4.05 4.57-1.75 1.094-3.77 1.641-6.05 1.641-3.44 0-6.22-1.196-8.37-3.586-2.12-2.391-3.18-5.555-3.18-9.492v-.305zm4.36.516c0 2.812.65 5.07 1.94 6.773 1.31 1.703 3.06 2.555 5.25 2.555 2.2 0 3.96-.86 5.25-2.578 1.3-1.735 1.95-4.157 1.95-7.266 0-2.781-.67-5.031-2-6.75-1.31-1.734-3.06-2.602-5.24-2.602-2.15 0-3.87.852-5.18 2.555-1.32 1.703-1.97 4.141-1.97 7.313zm28.26-12.961l.14 3.187c1.94-2.437 4.47-3.656 7.6-3.656 5.36 0 8.06 3.023 8.11 9.07V300H1418v-16.781c-.02-1.828-.44-3.18-1.27-4.055-.81-.875-2.08-1.312-3.82-1.312-1.4 0-2.64.375-3.7 1.125a7.616 7.616 0 0 0-2.48 2.953V300h-4.34v-25.359h4.1zm37.15 18.632c0-1.171-.44-2.078-1.34-2.718-.87-.657-2.41-1.219-4.61-1.688-2.19-.469-3.93-1.031-5.23-1.687-1.28-.657-2.23-1.438-2.86-2.344-.61-.906-.91-1.984-.91-3.234 0-2.079.87-3.836 2.62-5.274 1.77-1.437 4.02-2.156 6.75-2.156 2.88 0 5.21.742 6.99 2.226 1.79 1.485 2.69 3.383 2.69 5.696h-4.36c0-1.188-.5-2.211-1.52-3.071-1-.859-2.27-1.289-3.8-1.289-1.58 0-2.81.344-3.7 1.032-.89.687-1.34 1.586-1.34 2.695 0 1.047.42 1.836 1.25 2.367.82.531 2.32 1.039 4.47 1.524 2.17.484 3.93 1.062 5.28 1.734 1.34.672 2.33 1.484 2.97 2.437.66.938.99 2.086.99 3.446 0 2.265-.91 4.086-2.72 5.461-1.81 1.359-4.17 2.039-7.06 2.039-2.03 0-3.82-.36-5.39-1.078-1.56-.719-2.79-1.719-3.68-3-.87-1.297-1.31-2.696-1.31-4.196h4.34c.07 1.453.65 2.61 1.73 3.469 1.09.844 2.53 1.266 4.31 1.266 1.64 0 2.96-.328 3.94-.985 1-.672 1.5-1.562 1.5-2.672zm20.51 7.196c-3.44 0-6.24-1.125-8.39-3.375-2.16-2.266-3.24-5.289-3.24-9.071v-.796c0-2.516.48-4.758 1.43-6.727.97-1.984 2.32-3.531 4.03-4.641 1.74-1.125 3.61-1.687 5.63-1.687 3.3 0 5.86 1.086 7.69 3.258 1.82 2.172 2.74 5.281 2.74 9.328v1.804h-17.18c.06 2.5.79 4.524 2.18 6.071 1.41 1.531 3.19 2.297 5.34 2.297 1.53 0 2.83-.313 3.89-.938 1.07-.625 2-1.453 2.79-2.484l2.65 2.062c-2.12 3.266-5.31 4.899-9.56 4.899zm-.54-22.735c-1.75 0-3.22.641-4.41 1.922-1.18 1.266-1.92 3.047-2.2 5.344h12.7v-.328c-.12-2.203-.72-3.906-1.78-5.11-1.06-1.218-2.5-1.828-4.31-1.828zm33.26-9.234v6.141h4.73v3.351h-4.73v15.727c0 1.015.21 1.781.63 2.297.42.5 1.14.75 2.16.75.5 0 1.18-.094 2.06-.282V300a12.59 12.59 0 0 1-3.33.469c-1.94 0-3.4-.586-4.38-1.758-.99-1.172-1.48-2.836-1.48-4.992v-15.727h-4.62v-3.351h4.62V268.5h4.34zm22.08 10.031a13.12 13.12 0 0 0-2.14-.164c-2.84 0-4.77 1.211-5.79 3.633v18h-4.33v-25.359h4.22l.07 2.929c1.42-2.265 3.43-3.398 6.04-3.398.85 0 1.49.109 1.93.328v4.031zM1537.67 300c-.25-.5-.45-1.391-.61-2.672-2.01 2.094-4.42 3.141-7.22 3.141-2.5 0-4.55-.703-6.16-2.11-1.59-1.421-2.39-3.218-2.39-5.39 0-2.641 1-4.688 3-6.141 2.01-1.469 4.84-2.203 8.48-2.203h4.22v-1.992c0-1.516-.45-2.719-1.36-3.61-.9-.906-2.24-1.359-4.01-1.359-1.54 0-2.84.391-3.89 1.172-1.04.781-1.57 1.726-1.57 2.836h-4.36c0-1.266.45-2.484 1.34-3.656.91-1.188 2.13-2.125 3.66-2.813 1.54-.687 3.24-1.031 5.08-1.031 2.92 0 5.21.734 6.87 2.203 1.66 1.453 2.52 3.461 2.58 6.023v11.672c0 2.328.29 4.18.89 5.555V300h-4.55zm-7.19-3.305c1.36 0 2.64-.351 3.86-1.054 1.22-.703 2.11-1.618 2.65-2.743v-5.203h-3.4c-5.31 0-7.97 1.555-7.97 4.664 0 1.36.46 2.422 1.36 3.188.91.765 2.07 1.148 3.5 1.148zm21.75-22.054l.14 3.187c1.93-2.437 4.47-3.656 7.59-3.656 5.36 0 8.06 3.023 8.11 9.07V300h-4.34v-16.781c-.01-1.828-.43-3.18-1.26-4.055-.81-.875-2.09-1.312-3.82-1.312-1.41 0-2.64.375-3.7 1.125-1.07.75-1.9 1.734-2.49 2.953V300h-4.34v-25.359h4.11zm37.15 18.632c0-1.171-.45-2.078-1.34-2.718-.88-.657-2.42-1.219-4.62-1.688-2.19-.469-3.93-1.031-5.22-1.687-1.29-.657-2.24-1.438-2.86-2.344-.61-.906-.92-1.984-.92-3.234 0-2.079.88-3.836 2.63-5.274 1.76-1.437 4.01-2.156 6.75-2.156 2.87 0 5.2.742 6.98 2.226 1.8 1.485 2.7 3.383 2.7 5.696h-4.36c0-1.188-.51-2.211-1.53-3.071-1-.859-2.26-1.289-3.79-1.289-1.58 0-2.82.344-3.71 1.032-.89.687-1.33 1.586-1.33 2.695 0 1.047.41 1.836 1.24 2.367.83.531 2.32 1.039 4.48 1.524 2.17.484 3.93 1.062 5.27 1.734 1.34.672 2.34 1.484 2.98 2.437.65.938.98 2.086.98 3.446 0 2.265-.91 4.086-2.72 5.461-1.81 1.359-4.16 2.039-7.05 2.039-2.03 0-3.83-.36-5.39-1.078-1.57-.719-2.79-1.719-3.68-3-.88-1.297-1.32-2.696-1.32-4.196h4.34c.08 1.453.66 2.61 1.73 3.469 1.1.844 2.54 1.266 4.32 1.266 1.64 0 2.95-.328 3.94-.985 1-.672 1.5-1.562 1.5-2.672zm12.11 6.727v-22.008h-4.01v-3.351h4.01v-2.602c0-2.719.73-4.82 2.18-6.305 1.45-1.484 3.51-2.226 6.17-2.226 1 0 1.99.133 2.97.398l-.23 3.516c-.74-.141-1.52-.211-2.35-.211-1.4 0-2.49.414-3.25 1.242-.77.813-1.15 1.985-1.15 3.516v2.672h5.41v3.351h-5.41V300h-4.34zm24.52.469c-3.44 0-6.24-1.125-8.39-3.375-2.16-2.266-3.24-5.289-3.24-9.071v-.796c0-2.516.48-4.758 1.43-6.727.97-1.984 2.31-3.531 4.03-4.641 1.74-1.125 3.61-1.687 5.63-1.687 3.3 0 5.86 1.086 7.69 3.258 1.82 2.172 2.74 5.281 2.74 9.328v1.804h-17.18c.06 2.5.79 4.524 2.18 6.071 1.4 1.531 3.19 2.297 5.34 2.297 1.53 0 2.83-.313 3.89-.938 1.07-.625 1.99-1.453 2.79-2.484l2.65 2.062c-2.12 3.266-5.31 4.899-9.56 4.899zm-.54-22.735c-1.75 0-3.22.641-4.41 1.922-1.18 1.266-1.92 3.047-2.2 5.344h12.7v-.328c-.12-2.203-.72-3.906-1.78-5.11-1.06-1.218-2.5-1.828-4.31-1.828zm27.73.797a13.12 13.12 0 0 0-2.14-.164c-2.84 0-4.77 1.211-5.79 3.633v18h-4.33v-25.359h4.22l.07 2.929c1.42-2.265 3.43-3.398 6.04-3.398.85 0 1.49.109 1.93.328v4.031z" fill="#828282"/></svg>