<svg width="96" height="96" xmlns="http://www.w3.org/2000/svg" xmlns:xlink="http://www.w3.org/1999/xlink"><defs><path id="a" d="M0 0h49.333l-8.222 24.667H8.222z"/></defs><g fill="none" fill-rule="evenodd"><path d="M15.644 19.222h65.778V85H15.644z"/><path d="M39.778 43.067l-8.839 16.126a3 3 0 0 0 2.63 4.442h34.842" stroke="#212324" stroke-width="3"/><path d="M24.56 31.233L32.45 54.9h32.167l7.89-23.667H24.56z" stroke="#212324" fill="#F8F9FA"/><g transform="translate(23.867 30.733)"><mask id="b" fill="#fff"><use xlink:href="#a"/></mask><use fill-opacity="0" fill="#FFF" xlink:href="#a"/><path d="M-2.878 8.633H54.78M-2.878 16.033H54.78M13.567-6.167V30.12M21.789-6.167V30.12M30.011-6.167V30.12M38.233-6.167V30.12" stroke="#212324" stroke-linecap="square" mask="url(#b)"/></g><path d="M33.158 55.4L22.31 22.738a4 4 0 0 0-3.796-2.74h-4.236" stroke="#212324" stroke-width="3"/><path d="M32.843 67.411a7.695 7.695 0 0 0-7.702 7.722 7.695 7.695 0 0 0 7.702 7.723c4.278 0 7.743-3.456 7.743-7.723 0-4.266-3.465-7.722-7.743-7.722zm.008 2.289a5.438 5.438 0 0 1 5.446 5.433 5.438 5.438 0 0 1-5.446 5.434 5.417 5.417 0 0 1-5.42-5.434 5.417 5.417 0 0 1 5.42-5.433zM63.415 67.411a7.695 7.695 0 0 0-7.702 7.722 7.695 7.695 0 0 0 7.702 7.723c4.278 0 7.743-3.456 7.743-7.723 0-4.266-3.465-7.722-7.743-7.722zm.008 2.289a5.438 5.438 0 0 1 5.446 5.433 5.438 5.438 0 0 1-5.446 5.434 5.417 5.417 0 0 1-5.421-5.434 5.417 5.417 0 0 1 5.421-5.433z" stroke="#212324" fill="#3FC4FF"/><g><path d="M49.356 11h39.466v39.467H49.356z"/><path d="M84.21 30.396L69.418 15.604a2.78 2.78 0 0 0-1.974-.815h-11.51a2.788 2.788 0 0 0-2.79 2.789v11.51c0 .755.299 1.456.824 1.974l14.8 14.8c.518.518 1.22.816 1.965.816a2.78 2.78 0 0 0 1.974-.816l11.508-11.508c.52-.528.818-1.231.818-1.976 0-.754-.298-1.456-.823-1.982zM58.4 23.011a2.963 2.963 0 0 1-2.967-2.967 2.963 2.963 0 0 1 2.967-2.966 2.963 2.963 0 0 1 2.967 2.966 2.963 2.963 0 0 1-2.967 2.967z" stroke="#212324" fill="#FFF"/><path d="M77.755 36.11l-7.022 7.022-7.021-7.021a4.129 4.129 0 0 1-1.2-2.911 4.113 4.113 0 0 1 7.02-2.902l1.201 1.2 1.2-1.2a4.113 4.113 0 0 1 7.022 2.902c0 1.135-.46 2.162-1.2 2.91z" fill="#3740FF" fill-rule="nonzero"/></g><path d="M0 0h96v96H0z"/></g></svg>