<?xml version="1.0" encoding="UTF-8"?>
<svg width="96px" height="96px" viewBox="0 0 96 96" version="1.1" xmlns="http://www.w3.org/2000/svg" xmlns:xlink="http://www.w3.org/1999/xlink">
    <!-- Generator: Sketch 54.1 (76490) - https://sketchapp.com -->
    <title>22 Search Engine Optimization audits</title>
    <desc>Created with Sketch.</desc>
    <defs>
        <linearGradient x1="36.626067%" y1="20.3583319%" x2="64.0098147%" y2="100.652008%" id="linearGradient-1">
            <stop stop-color="#FFFFFF" stop-opacity="0.1" offset="0%"></stop>
            <stop stop-color="#FFFFFF" stop-opacity="0" offset="100%"></stop>
        </linearGradient>
        <linearGradient x1="68.9349112%" y1="65.7561304%" x2="31.0650888%" y2="35.7993836%" id="linearGradient-2">
            <stop stop-color="#262626" stop-opacity="0.1" offset="0%"></stop>
            <stop stop-color="#262626" stop-opacity="0" offset="100%"></stop>
        </linearGradient>
        <linearGradient x1="62.5305769%" y1="13.0863251%" x2="24.7785622%" y2="100.996123%" id="linearGradient-3">
            <stop stop-color="#262626" stop-opacity="0.1" offset="0%"></stop>
            <stop stop-color="#262626" stop-opacity="0" offset="100%"></stop>
        </linearGradient>
        <linearGradient x1="0%" y1="50%" x2="100%" y2="50%" id="linearGradient-4">
            <stop stop-color="#262626" stop-opacity="0.1" offset="0%"></stop>
            <stop stop-color="#262626" stop-opacity="0" offset="100%"></stop>
        </linearGradient>
        <path d="M10,14 C8.8954305,14 8,13.1045695 8,12 C8,10.8954305 8.8954305,10 10,10 C11.1045695,10 12,10.8954305 12,12 C12,13.1045695 11.1045695,14 10,14 Z M81,8 C80.4477153,8 80,7.55228475 80,7 C80,6.44771525 80.4477153,6 81,6 C81.5522847,6 82,6.44771525 82,7 C82,7.55228475 81.5522847,8 81,8 Z M15.5,31 C14.6715729,31 14,30.3284271 14,29.5 C14,28.6715729 14.6715729,28 15.5,28 C16.3284271,28 17,28.6715729 17,29.5 C17,30.3284271 16.3284271,31 15.5,31 Z M1,36 C0.44771525,36 0,35.5522847 0,35 C0,34.4477153 0.44771525,34 1,34 C1.55228475,34 2,34.4477153 2,35 C2,35.5522847 1.55228475,36 1,36 Z M9,80 C8.44771525,80 8,79.5522847 8,79 C8,78.4477153 8.44771525,78 9,78 C9.55228475,78 10,78.4477153 10,79 C10,79.5522847 9.55228475,80 9,80 Z M21,49 C20.4477153,49 20,48.5522847 20,48 C20,47.4477153 20.4477153,47 21,47 C21.5522847,47 22,47.4477153 22,48 C22,48.5522847 21.5522847,49 21,49 Z M5,54 C3.8954305,54 3,53.1045695 3,52 C3,50.8954305 3.8954305,50 5,50 C6.1045695,50 7,50.8954305 7,52 C7,53.1045695 6.1045695,54 5,54 Z M21,86 C20.4477153,86 20,85.5522847 20,85 C20,84.4477153 20.4477153,84 21,84 C21.5522847,84 22,84.4477153 22,85 C22,85.5522847 21.5522847,86 21,86 Z M59,13 C58.4477153,13 58,12.5522847 58,12 C58,11.4477153 58.4477153,11 59,11 C59.5522847,11 60,11.4477153 60,12 C60,12.5522847 59.5522847,13 59,13 Z M34,6 C33.4477153,6 33,5.55228475 33,5 C33,4.44771525 33.4477153,4 34,4 C34.5522847,4 35,4.44771525 35,5 C35,5.55228475 34.5522847,6 34,6 Z M83,36 C82.4477153,36 82,35.5522847 82,35 C82,34.4477153 82.4477153,34 83,34 C83.5522847,34 84,34.4477153 84,35 C84,35.5522847 83.5522847,36 83,36 Z M74,42 C73.4477153,42 73,41.5522847 73,41 C73,40.4477153 73.4477153,40 74,40 C74.5522847,40 75,40.4477153 75,41 C75,41.5522847 74.5522847,42 74,42 Z" id="path-5"></path>
        <mask id="mask-6" maskContentUnits="userSpaceOnUse" maskUnits="objectBoundingBox" x="0" y="0" width="84" height="82" fill="white">
            <use xlink:href="#path-5"></use>
        </mask>
        <circle id="path-7" cx="20.9622424" cy="20.8680606" r="20.8010303"></circle>
        <circle id="path-9" cx="20.9622424" cy="20.8680606" r="20.8010303"></circle>
    </defs>
    <g id="22-Search-Engine-Optimization-audits" stroke="none" stroke-width="1" fill="none" fill-rule="evenodd">
        <rect id="Rectangle" x="0" y="0" width="96" height="96"></rect>
        <g id="lighthouse-graphics" transform="translate(5.000000, 3.000000)">
            <g id="lighthouse" transform="translate(3.000000, 0.000000)">
                <g id="Group-4-Copy-2">
                    <rect id="Rectangle" x="0" y="0" width="80" height="80"></rect>
                    <g id="Group-2" transform="translate(3.764706, 3.764706)">
                        <rect id="Rectangle" fill="#FFFFFF" x="24.6096257" y="40.8770053" width="22.9411765" height="22.9411765"></rect>
                        <path d="M18.9934641,73.4117647 L24.1925134,30.4491979 L49.2192513,30.4491979 L54.4183007,73.4117647 C48.7712418,73.4117647 43.3148315,73.4117647 36.7058824,73.4117647 C32.2999163,73.4117647 26.3957768,73.4117647 18.9934641,73.4117647 Z M44.1781967,41.9618797 L28.4778102,47.0632445 L26.5697562,59.9426091 L45.9109938,53.65826 L44.1781967,41.9618797 Z" id="Shape" stroke="#000000" fill="#F4481E" fill-rule="nonzero"></path>
                        <rect id="Rectangle" stroke="#979797" fill="#FFF176" x="27.7941176" y="15.5588235" width="15.9411765" height="19.7058824"></rect>
                        <path d="M50.0534759,30.4491979 L53.3903743,30.4491979 L53.3903743,37.1229947 L20.0213904,37.1229947 L20.0213904,30.4491979 L23.3582888,30.4491979 L23.3582888,17.1016043 L36.7058824,8.75935829 L50.0534759,17.1016043 L50.0534759,30.4491979 Z M43.3796791,30.4491979 L43.3796791,20.8005404 L36.7058824,16.6294174 L30.0320856,20.8005404 L30.0320856,30.4491979 L43.3796791,30.4491979 Z" id="Path" stroke="#000000" fill="#F4481E" fill-rule="nonzero"></path>
                        <path d="M50.0215842,37.1229947 L54.6860679,68.6082597 C49.3294518,71.6651185 43.1284537,73.4117647 36.5195046,73.4117647 C29.9105555,73.4117647 23.7095574,71.6651185 18.3529412,68.608257 L23.017425,37.1229947 L20.0213904,37.1229947 L20.0213904,30.4491979 L23.3582888,30.4491979 L23.3582888,17.1016043 L36.7058824,8.75935829 L50.0534759,17.1016043 L50.0534759,30.4491979 L53.3903743,30.4491979 L53.3903743,37.1229947 L50.0215842,37.1229947 Z" id="Path" fill="url(#linearGradient-1)" fill-rule="nonzero"></path>
                        <polygon id="Path-Copy-2" fill="url(#linearGradient-2)" fill-rule="nonzero" points="36.7058824 30.4491979 23.3582888 30.4491979 23.3582888 17.1016043 36.7058824 8.75935829"></polygon>
                        <path d="M36.7058824,73.4117647 C30.1105092,73.4117647 23.8883917,71.6534655 18.5393189,68.608257 L22.7217774,37.1229947 L36.7058824,37.1229947 L36.7058824,73.4117647 Z" id="Path-Copy-4" fill="url(#linearGradient-3)" fill-rule="nonzero"></path>
                        <rect id="Rectangle-Copy-13" fill="url(#linearGradient-4)" fill-rule="nonzero" transform="translate(28.363636, 33.786096) scale(-1, 1) translate(-28.363636, -33.786096) " x="20.0213904" y="30.4491979" width="16.684492" height="6.67379679"></rect>
                    </g>
                </g>
            </g>
            <use id="stars" stroke="#212324" mask="url(#mask-6)" stroke-width="2" fill="#FFA600" stroke-dasharray="1,1" xlink:href="#path-5"></use>
            <path d="M13,72 C9.6862915,72 7,69.0898509 7,65.5 C7,61.9101491 9.6862915,59 13,59 C13.2472272,59 13.4909621,59.0161987 13.7303495,59.0476697 C15.0538097,56.0736095 18.0347461,54 21.5,54 C26.1664621,54 29.9546392,57.7603853 29.9995957,62.4162204 C30.6121646,62.1485128 31.2887388,62 32,62 C34.7614237,62 37,64.2385763 37,67 C37,69.7614237 34.7614237,72 32,72 L13,72 Z" id="cloud2" stroke="#212324" fill="#FFFFFF" transform="translate(22.000000, 63.000000) scale(-1, 1) translate(-22.000000, -63.000000) "></path>
            <path d="M75.5635831,22.8461538 L77.0769231,22.8461538 C78.6912939,22.8461538 80,24.15486 80,25.7692308 C80,27.3836016 78.6912939,28.6923077 77.0769231,28.6923077 L65.3846154,28.6923077 L65.3846154,28.6045995 C65.1484966,28.662115 64.9041097,28.6923077 64.6538462,28.6923077 C62.6358826,28.6923077 61,26.7292485 61,24.3076923 C61,21.8861361 62.6358826,19.9230769 64.6538462,19.9230769 C65.0474257,19.9230769 65.426471,19.9977513 65.7816798,20.1359375 C66.5554537,18.293729 68.3766436,17 70.5,17 C73.3251489,17 75.6153846,19.2902357 75.6153846,22.1153846 C75.6153846,22.3634964 75.5977205,22.6074824 75.5635812,22.8461538 Z" id="cloud1" stroke="#212324" fill="#FFFFFF" transform="translate(70.500000, 22.846154) scale(-1, 1) translate(-70.500000, -22.846154) "></path>
        </g>
        <g id="Content" transform="translate(50.000000, 50.000000)">
            <mask id="mask-8" fill="white">
                <use xlink:href="#path-7"></use>
            </mask>
            <use id="c" stroke="#000000" fill="#FFFFFF" xlink:href="#path-7"></use>
            <g id="Group" mask="url(#mask-8)">
                <g transform="translate(-72.969697, -38.606061)">
                    <path d="M0.30969697,44.8479394 L206.563636,44.8479394 M89.74,0.40430303 L89.74,140.248182 M170.00497,0.40430303 L170.00497,140.248182 M98.658,0.40430303 L98.658,140.248182 M178.92297,0.40430303 L178.92297,140.248182 M107.576424,0.40430303 L107.576424,140.248182 M187.841818,0.40430303 L187.841818,140.248182 M116.494848,0.40430303 L116.494848,140.248182 M196.759818,0.40430303 L196.759818,140.248182 M125.412848,0.40430303 L125.412848,140.248182 M205.678242,0.40430303 L205.678242,140.248182 M134.331273,0.40430303 L134.331273,140.248182 M80.8211515,0.40430303 L80.8211515,140.248182 M161.086545,0.40430303 L161.086545,140.248182 M71.9031515,0.40430303 L71.9031515,140.248182 M152.168121,0.40430303 L152.168121,140.248182 M62.9847273,0.40430303 L62.9847273,140.248182 M143.249697,0.40430303 L143.249697,140.248182 M54.066303,0.0848484848 L54.066303,139.929152 M45.1478788,0.0848484848 L45.1478788,139.929152 M36.2294545,0.0848484848 L36.2294545,139.929152 M27.3110303,0.0848484848 L27.3110303,139.929152 M18.3930303,0.0848484848 L18.3930303,139.929152 M9.47460606,0.0848484848 L9.47460606,139.929152 M0.556181818,0.0848484848 L0.556181818,139.929152 M0.30969697,35.9464848 L206.563636,35.9464848 M0.30969697,27.0454545 L206.563636,27.0454545 M0.30969697,18.144 L206.563636,18.144 M0.30969697,9.2429697 L206.563636,9.2429697 M0.30969697,0.341515152 L206.563636,0.341515152 M0.30969697,53.7489697 L206.563636,53.7489697 M0.30969697,62.65 L206.563636,62.65 M0.30969697,71.5514545 L206.563636,71.5514545 M0.30969697,80.4524848 L206.563636,80.4524848 M0.30969697,89.3539394 L206.563636,89.3539394 M0.30969697,98.2549697 L206.563636,98.2549697 M0.30969697,107.156424 L206.563636,107.156424 M0.30969697,116.057455 L206.563636,116.057455 M0.30969697,124.958909 L206.563636,124.958909 M0.30969697,133.859939 L206.563636,133.859939" id="Shape" stroke="#212121" stroke-width="0.81" fill="none"></path>
                    <path d="M64.469697,82.1060606 L116.462787,82.1060606 L116.006555,48.8691261 L105.611134,60.1671598 L90.6566485,56.1735091 L80.222469,69.254514 L73.316236,65.2584547 L66.7072943,73.85565 L64.469697,77.7397812 L64.469697,82.1060606 Z" id="Rectangle" stroke="#212121" stroke-width="1" fill="#F5F5F5" fill-rule="evenodd"></path>
                    <g id="Group-3" stroke="none" stroke-width="1" fill="none" fill-rule="evenodd" transform="translate(82.969697, 48.606061)">
                        <rect id="Rectangle" fill="#FFFFFF" x="2" y="3" width="15" height="15" rx="7.5"></rect>
                        <path d="M23.1325272,18.4918669 L18.6525921,14.732755 L18.8242955,14.3814827 C19.4628039,13.0752175 19.7992039,11.6368923 19.7992039,10.149602 C19.7992039,4.82027395 15.47893,0.5 10.149602,0.5 C4.82027395,0.5 0.5,4.82027395 0.5,10.149602 C0.5,15.47893 4.82027395,19.7992039 10.149602,19.7992039 C12.3046187,19.7992039 14.3507212,19.0914295 16.0234578,17.8061359 L16.3418785,17.5614686 L20.7849264,21.2896285 C20.9114257,21.395774 21.1000217,21.379274 21.2061672,21.2527747 L23.169381,18.9131077 C23.2755265,18.7866083 23.2590265,18.5980124 23.1325272,18.4918669 Z M10.149602,16.1888997 C6.81418989,16.1888997 4.11030417,13.485014 4.11030417,10.149602 C4.11030417,6.81418989 6.81418989,4.11030417 10.149602,4.11030417 C13.485014,4.11030417 16.1888997,6.81418989 16.1888997,10.149602 C16.1888997,13.485014 13.485014,16.1888997 10.149602,16.1888997 Z" id="Combined-Shape" stroke="#212121" fill="#FFF176"></path>
                    </g>
                </g>
            </g>
            <mask id="mask-10" fill="white">
                <use xlink:href="#path-9"></use>
            </mask>
            <use id="c" stroke="#000000" xlink:href="#path-9"></use>
        </g>
    </g>
</svg>