<svg width="330" height="220" xmlns="http://www.w3.org/2000/svg" xmlns:xlink="http://www.w3.org/1999/xlink"><defs><circle id="a" cx="37" cy="37" r="37"/><linearGradient x1="36.626%" y1="20.358%" x2="64.01%" y2="100.652%" id="c"><stop stop-color="#FFF" stop-opacity=".1" offset="0%"/><stop stop-color="#FFF" stop-opacity="0" offset="100%"/></linearGradient><linearGradient x1="68.935%" y1="65.756%" x2="31.065%" y2="35.799%" id="d"><stop stop-color="#262626" stop-opacity=".1" offset="0%"/><stop stop-color="#262626" stop-opacity="0" offset="100%"/></linearGradient><linearGradient x1="62.531%" y1="13.086%" x2="24.779%" y2="100.996%" id="e"><stop stop-color="#262626" stop-opacity=".1" offset="0%"/><stop stop-color="#262626" stop-opacity="0" offset="100%"/></linearGradient><linearGradient x1="0%" y1="50%" y2="50%" id="f"><stop stop-color="#262626" stop-opacity=".1" offset="0%"/><stop stop-color="#262626" stop-opacity="0" offset="100%"/></linearGradient></defs><g fill="none" fill-rule="evenodd"><g transform="translate(100 35)" fill-rule="nonzero" stroke="#212121"><circle fill="#FF5915" cx="133" cy="20.4" r="4.8"/><circle fill="#FFA900" cx="5" cy="5" r="4.8"/><circle fill="#FF5915" cx="29" cy="143.8" r="4.8"/></g><path d="M211.785 77c-14.355 3.85-31.185 5.5-46.75 5.5-15.565 0-32.395-1.65-46.75-5.5l-2.75 11c10.23 2.75 22 4.565 33 5.5V165h11v-33h11v33h11V93.5c11-.935 22.77-2.75 33-5.5l-2.75-11zm-46.75 0c6.05 0 11-4.95 11-11s-4.95-11-11-11-11 4.95-11 11 4.95 11 11 11z" stroke="#000" fill="#FFF176" fill-rule="nonzero"/><path d="M99.035 44h132v132h-132z"/><g transform="translate(189 115)"><circle fill="#FFF" cx="37" cy="37" r="37"/><mask id="b" fill="#fff"><use xlink:href="#a"/></mask><g mask="url(#b)"><path d="M50.02 26.363H48.1v.007a3.469 3.469 0 1 0 0 6.922v.008h13.875v-.063c.226.041.458.063.694.063 2.426 0 4.394-2.278 4.394-5.087 0-2.81-1.968-5.088-4.394-5.088-.377 0-.743.055-1.091.158a6.015 6.015 0 0 0-11.557 3.08z" stroke="#212324" fill="#FFF" fill-rule="nonzero"/><path d="M-5.088-4.625h83.25v83.25h-83.25z"/><g fill-rule="nonzero"><path fill="#FFF" d="M24.44 41.83h23.872v23.874H24.44z"/><path d="M18.595 75.687l5.41-44.708H50.05l5.41 44.708H18.595zm26.208-32.728l-16.338 5.309-1.986 13.402 20.127-6.54-1.803-12.17z" stroke="#000" fill="#F4481E"/><path stroke="#979797" stroke-width=".5" fill="#FFF176" d="M27.483 15.214h17.13V36.26h-17.13z"/><path d="M50.917 30.979h3.473v6.945H19.665v-6.945h3.472v-13.89l13.89-8.681 13.89 8.681v13.89zm-6.945 0v-10.04l-6.945-4.341-6.945 4.34v10.04h13.89z" stroke="#000" fill="#F4481E"/><path d="M33.054 29.631l4.854 32.764a38.022 38.022 0 0 1-18.905 5 38.022 38.022 0 0 1-18.904-5l4.854-32.764H1.835v-6.945h3.472V8.796l13.89-8.68 13.89 8.68v13.89h3.472v6.945h-3.505z" fill="url(#c)" transform="translate(17.83 8.293)"/><path fill="url(#d)" d="M19.197 22.686H5.307V8.796l13.89-8.68z" transform="translate(17.83 8.293)"/><path d="M19.197 67.394A38.167 38.167 0 0 1 .292 62.395l4.353-32.764h14.552v37.763z" fill="url(#e)" transform="translate(17.83 8.293)"/><path fill="url(#f)" transform="matrix(-1 0 0 1 38.862 8.293)" d="M1.835 22.686h17.362v6.945H1.835z"/></g><path d="M26.825 43.475c3.065 0 5.55-2.692 5.55-6.013 0-3.32-2.485-6.012-5.55-6.012a5.18 5.18 0 0 0-.676.044A7.864 7.864 0 0 0 11.1 34.61a4.625 4.625 0 1 0-1.85 8.865h17.575z" stroke="#212324" fill="#FFF" fill-rule="nonzero"/></g><circle stroke="#212121" cx="37" cy="37" r="36.5"/></g></g></svg>