<svg width="330" height="220" xmlns="http://www.w3.org/2000/svg" xmlns:xlink="http://www.w3.org/1999/xlink"><defs><rect id="a" x="5.328" y="5.556" width="30.723" height="30.723" rx="11.059"/><rect id="c" x="4.518" y="4.326" width="29.954" height="29.954" rx="5.53"/></defs><g fill="none" fill-rule="evenodd"><g transform="rotate(18 4.879 365.587)"><path d="M127.865 26.92L21.877 133.466" stroke="#212121" stroke-dasharray="2.304"/><path d="M79.505 98.8c31.028 0 56.182-25.153 56.182-56.181M113.371 19.363c-53.062 0-96.077 43.016-96.077 96.078" stroke="#212121"/><path stroke="#212121" d="M109.144 23.958l4.616-4.616-4.616-4.616M140.303 47.235l-4.616-4.616-4.616 4.616"/><rect stroke="#212121" fill="#FFEE43" x=".989" y="122.657" width="32.61" height="32.61" rx="16.305"/><g transform="translate(36.204 77.884)"><mask id="b" fill="#fff"><use xlink:href="#a"/></mask><rect stroke="#212121" x="5.828" y="6.056" width="29.723" height="29.723" rx="11.059"/><g stroke="#212121" stroke-width=".768" mask="url(#b)"><path d="M-36.137 100.725L393.683-38.93M120.176-52.668l94.69 291.425M286.838-106.82l94.69 291.425M138.694-58.685l94.69 291.425M305.357-112.837l94.69 291.425M157.212-64.702l94.69 291.425M323.875-118.854l94.69 291.425M175.73-70.719l94.69 291.426M342.393-124.87l94.69 291.425M194.248-76.736l94.69 291.426M360.91-130.888l94.69 291.426M212.766-82.752l94.69 291.425M101.657-46.651l94.69 291.425M268.32-100.803l94.69 291.425M83.14-40.634l94.69 291.425M249.802-94.786l94.69 291.425M64.621-34.617l94.69 291.425M231.284-88.77l94.69 291.426M45.887-29.266l94.69 291.426M27.369-23.249l94.69 291.425M8.85-17.232l94.69 291.425M-9.667-11.215l94.69 291.425M-28.185-5.198l94.69 291.425M-46.704.819l94.69 291.425M-65.222 6.836l94.69 291.425M-42.142 82.243L387.677-57.414M-48.147 63.76L381.672-75.896M-54.153 45.278L375.667-94.38M-60.158 26.795L369.66-112.86M-66.163 8.313l429.819-139.657M-30.131 119.208L399.688-20.449M-24.126 137.69L405.693-1.965M-18.12 156.173L411.697 16.516M-12.115 174.656L417.704 34.999M-6.11 193.138L423.709 53.481M-.105 211.62l429.82-139.656M5.9 230.103L435.72 90.447M11.906 248.586l429.819-139.657M17.911 267.068l429.82-139.656M23.917 285.55l429.819-139.656"/></g></g><g transform="translate(76.876 40.02)"><mask id="d" fill="#fff"><use xlink:href="#c"/></mask><rect stroke="#212121" x="5.018" y="4.826" width="28.954" height="28.954" rx="5.53"/><g stroke="#212121" stroke-width=".768" mask="url(#d)"><path d="M-77.962 164.773l391.39-225.97M43.043-17.768l153.21 265.37M194.805-105.387l153.211 265.37M59.905-27.503l153.211 265.37M211.667-115.123l153.211 265.37M76.767-37.239l153.212 265.37M228.53-124.859l153.21 265.37M93.63-46.974l153.211 265.37M245.392-134.594l153.211 265.37M110.492-56.71l153.212 265.37M262.254-144.33l153.212 265.37M127.355-66.445l153.211 265.37M26.18-8.032l153.211 265.37M177.942-95.652l153.212 265.37M9.318 1.704l153.211 265.37M161.08-85.916l153.211 265.37M-7.545 11.44l153.212 265.369M144.217-76.18L297.43 189.188M-24.757 20.569l153.211 265.37M-41.62 30.304l153.212 265.37M-58.482 40.04L94.729 305.41M-75.344 49.775l153.21 265.37M-92.207 59.51L61.004 324.88M-109.07 69.246l153.212 265.37M-125.932 78.982L27.28 344.352M-87.679 147.943l391.39-225.97M-97.395 131.113l391.39-225.97M-107.112 114.283l391.39-225.97M-116.83 97.453l391.391-225.97M-126.546 80.623l391.39-225.97M-68.245 181.603l391.39-225.97M-58.528 198.433l391.39-225.97M-48.811 215.263l391.39-225.969M-39.094 232.093L352.296 6.124M-29.377 248.923l391.39-225.969M-19.66 265.753L371.73 39.784M-9.944 282.584l391.39-225.97M-.227 299.414l391.39-225.97M9.49 316.244l391.39-225.97M19.207 333.074l391.39-225.97"/></g></g><path stroke="#212121" fill="#FFB63D" d="M116.96 9.822L145.228.637l9.185 28.268-28.268 9.185z"/><rect stroke="#212121" fill="#FBDB34" x="54.376" y="95.99" width="5" height="5" rx="2.5"/><rect stroke="#212121" fill="#FBDB34" x="93.871" y="56.823" width="5" height="5" rx="2.5"/></g><path d="M86.37 178.856V219.5M91.333 183.012l-4.616-4.616-4.616 4.616M86.931 147.956v11.612M92.737 153.762H81.125M242.329 76.702h-11.612" stroke="#212121"/></g></svg>