<?xml version="1.0" encoding="utf-8"?>
<!-- Generator: Adobe Illustrator 23.0.3, SVG Export Plug-In . SVG Version: 6.00 Build 0)  -->
<svg version="1.1" id="Layer_1" xmlns="http://www.w3.org/2000/svg" xmlns:xlink="http://www.w3.org/1999/xlink" x="0px" y="0px"
	 viewBox="0 0 382 303" style="enable-background:new 0 0 382 303;" xml:space="preserve">
<style type="text/css">
	.st0{fill-rule:evenodd;clip-rule:evenodd;fill:#FFFFFF;}
	.st1{fill-rule:evenodd;clip-rule:evenodd;fill:#F5F5F5;}
	.st2{fill:none;stroke:#212121;}
	.st3{fill-rule:evenodd;clip-rule:evenodd;fill:#FFFFFF;stroke:#979797;}
	.st4{fill:none;stroke:#000000;stroke-width:0.75;}
	.st5{fill:none;stroke:#212121;stroke-linejoin:round;}
	.st6{fill:none;}
	.st7{fill-rule:evenodd;clip-rule:evenodd;fill:#2979FF;}
	.st8{fill-rule:evenodd;clip-rule:evenodd;fill:#FFEC44;}
	.st9{fill:none;stroke:#212121;stroke-width:0.75;}
	.st10{fill-rule:evenodd;clip-rule:evenodd;}
	.st11{fill:none;stroke:#000000;stroke-width:0.701;stroke-linecap:round;stroke-linejoin:round;}
	.st12{filter:url(#Adobe_OpacityMaskFilter);}
	.st13{mask:url(#b_1_);fill-rule:evenodd;clip-rule:evenodd;fill:#FE7E00;stroke:#212121;}
	.st14{fill:none;stroke:#000000;stroke-linejoin:round;stroke-dasharray:3,2.802;}
	.st15{fill-rule:evenodd;clip-rule:evenodd;fill:#374AFF;}
	.st16{fill-rule:evenodd;clip-rule:evenodd;fill:#2A7DFF;}
	.st17{fill-rule:evenodd;clip-rule:evenodd;fill:#42C6FF;}
	.st18{filter:url(#Adobe_OpacityMaskFilter_1_);}
	.st19{mask:url(#d_1_);fill:#3FC4FF;}
	.st20{filter:url(#Adobe_OpacityMaskFilter_2_);}
	.st21{mask:url(#d_2_);fill:none;stroke:#212121;}
	.st22{fill:none;stroke:#000000;stroke-linejoin:round;}
	.st23{fill-rule:evenodd;clip-rule:evenodd;fill:#FE80C2;}
	.st24{fill-rule:evenodd;clip-rule:evenodd;fill:#FE0D75;}
	.st25{fill-rule:evenodd;clip-rule:evenodd;fill:#E983FC;}
	.st26{fill-rule:evenodd;clip-rule:evenodd;fill:#00BFA5;}
	.st27{fill:none;stroke:#212121;stroke-dasharray:3;}
	.st28{fill-rule:evenodd;clip-rule:evenodd;fill:#212121;}
	.st29{fill:none;stroke:#FF1776;stroke-linejoin:round;}
	.st30{fill:none;stroke:#FF1776;stroke-linecap:square;stroke-linejoin:round;}
	.st31{fill:none;stroke:#E51661;stroke-linecap:square;stroke-linejoin:round;}
	.st32{fill:none;stroke:#A250FF;stroke-linejoin:round;}
	.st33{fill-rule:evenodd;clip-rule:evenodd;fill:#FF80C3;stroke:#212121;}
</style>
<g>
	<path class="st0" d="M-857.2-258h1440v3587h-1440V-258z"/>
	<path class="st1" d="M61,284.4h163.8v-9.9H61V284.4z"/>
	<path class="st2" d="M61,284.4h219v-9.9H61V284.4z"/>
	<path class="st3" d="M280.1,274.5H98.4L123,145.7h181.7L280.1,274.5z"/>
	<path class="st4" d="M280.1,274.5H98.4L123,145.7h181.7L280.1,274.5z"/>
	<path class="st2" d="M224.3,274.5v9.9"/>
	<path class="st5" d="M129.3,222.4h66.3 M127.1,234.3h40.6"/>
	<path class="st1" d="M202.1,206.8h-69.6l7.7-42.1h69.6L202.1,206.8z"/>
	<path class="st6" d="M202.1,206.8h-69.6l7.7-42.1h69.6L202.1,206.8z"/>
	<path class="st7" d="M142,248.9h-14.6c-2.4,0-4.4,2-4.4,4.4s2,4.4,4.4,4.4H142c2.4-0.1,4.4-2.1,4.3-4.5
		C146.3,250.8,144.3,248.9,142,248.9"/>
	<path class="st8" d="M183.9,186c-0.4,7.3-6.7,13.1-14,13c-7.3-0.2-13-6.2-12.5-13.6c0.4-7.3,6.7-13.1,14-13
		C178.7,172.6,184.3,178.7,183.9,186"/>
	<path class="st9" d="M183.9,186c-0.4,7.3-6.7,13.1-14,13c-7.3-0.2-13-6.2-12.5-13.6c0.4-7.3,6.7-13.1,14-13
		C178.7,172.6,184.3,178.7,183.9,186z"/>
	<path class="st10" d="M167.7,182.9c0,0.7-0.6,1.2-1.3,1.2c-0.6,0-1.1-0.5-1.1-1.2c0,0,0,0,0-0.1c0-0.7,0.6-1.2,1.3-1.2
		C167.3,181.7,167.8,182.2,167.7,182.9 M176.6,183.1c0,0.7-0.6,1.2-1.3,1.2c-0.6,0-1.1-0.5-1.1-1.2c0,0,0,0,0-0.1
		c0-0.7,0.6-1.2,1.3-1.2C176.1,181.9,176.7,182.4,176.6,183.1"/>
	<path class="st11" d="M164.7,187.6c0,0,1.5,3.3,5.6,3.4c4.1,0.1,6.1-3.1,6.1-3.1"/>
	<g transform="translate(118.973 241.41)">
		<path class="st9" d="M-42.2-23.6L-78.3-9.5c-1.2,0.5-2.6-0.1-3.1-1.3l-28.2-71c-0.5-1.2,0.1-2.6,1.3-3.1c0,0,0,0,0,0l0,0
			l36.2-14.1c1.2-0.5,2.6,0.1,3.1,1.3l28.2,71C-40.4-25.5-40.9-24.1-42.2-23.6L-42.2-23.6z"/>
		<defs>
			<filter id="Adobe_OpacityMaskFilter" filterUnits="userSpaceOnUse" x="-111.3" y="-102.7" width="75.9" height="94.8">
				<feColorMatrix  type="matrix" values="1 0 0 0 0  0 1 0 0 0  0 0 1 0 0  0 0 0 1 0"/>
			</filter>
		</defs>
		<mask maskUnits="userSpaceOnUse" x="-111.3" y="-102.7" width="75.9" height="94.8" id="b_1_">
			<g class="st12">
				<path id="a_1_" class="st0" d="M-42.3-24L-78.5-9.9c-1,0.4-2.2-0.1-2.6-1.1l-28.2-71c-0.4-1,0.1-2.2,1.1-2.6c0,0,0,0,0,0
					L-72-98.7c1-0.4,2.2,0.1,2.6,1.1l28.2,71C-40.8-25.5-41.3-24.4-42.3-24C-42.3-24-42.3-24-42.3-24z"/>
			</g>
		</mask>
		<path class="st13" d="M-66.1-102l4.8,12l-44.6,17.7l-4.8-12L-66.1-102z M-40.8-38.2l4.8,12L-80.6-8.5l-4.8-12
			C-85.3-20.5-40.8-38.2-40.8-38.2z"/>
	</g>
	<path class="st10" d="M44.2,178.8l-1.4,0.5l-0.4-1.1l1.4-0.5L44.2,178.8z M51.9,178.8l-1.6-4.1l-0.9,0.4l-0.4-1.1l-7.8,3.1l0.4,1.1
		l-0.9,0.4l2.5,6.3l-1.1,0.4l0.3,0.9l-1.5,0.6l0.4,1.1l-1.5,0.6l0.4,0.9l-1.1,0.4l0.4,1l-2.2,0.9l-0.4-1l-0.9,0.4l-0.4-0.9l-0.9,0.4
		l-0.9-2.2l-0.9,0.3l2.2,5.6l1.1-0.4l0.4,1.1l0.9-0.4l0.4,1l1.2-0.5l0.4,1l0.9-0.4l0.4,1l0.7-0.3l1.5,3.7l2-0.8l-0.3-0.8l-1,0.4
		l-0.4-1l1-0.4l-0.4-1.1l0.8-0.3l-0.4-0.9l1.2-0.5l0.4,1l1-0.4l1.1,2.7l1.9-0.8l-0.3-0.7l-1.1,0.4l-1.6-3.9l0.9-0.3l-0.4-1.1
		l1.1-0.4l-0.6-1.4l1-0.4l-1.3-3.3l1.3-0.5l0.4,0.9l0.9-0.4l-0.8-1.9l-2,0.8l-0.8-2.1l4.1-1.6l-0.3-0.8l-3.1,1.2l-0.4-1.1
		L51.9,178.8L51.9,178.8z"/>
	<path class="st14" d="M59.1,162.6l16-6.3 M61.5,168.6l11.7-4.6 M27.9,205.6l-16,6.5 M30.3,211.6l-11.6,4.7"/>
	<path class="st0" d="M224.6,121.2l-71.5-19l21.2-80.1l71.5,19L224.6,121.2z"/>
	<path class="st2" d="M224.6,121.2l-71.5-19l21.2-80.1l71.5,19L224.6,121.2z"/>
	<path class="st0" d="M218.9,112.2l-71.5-19l21.2-80.1l71.5,19L218.9,112.2z"/>
	<path class="st2" d="M218.9,112.2l-71.5-19l21.2-80.1l71.5,19L218.9,112.2z"/>
	<path class="st0" d="M213.6,103.4l-71.5-19l21.2-80.1l71.5,19L213.6,103.4z"/>
	<path class="st2" d="M213.6,103.4l-71.5-19l21.2-80.1l71.5,19L213.6,103.4z"/>
	<path class="st0" d="M232.9,30.8l-71.5-19l2-7.6l71.5,19L232.9,30.8z"/>
	<path class="st2" d="M232.9,30.8l-71.5-19l2-7.6l71.5,19L232.9,30.8z"/>
	<path class="st15" d="M168.1,9.6c-0.2,0.7-0.9,1.2-1.6,1c-0.7-0.2-1.2-0.9-1-1.6c0,0,0-0.1,0-0.1c0.2-0.7,1-1.1,1.7-0.9
		C167.8,8.2,168.2,8.9,168.1,9.6"/>
	<path class="st6" d="M168.1,9.6c-0.2,0.7-0.9,1.2-1.6,1c-0.7-0.2-1.2-0.9-1-1.6c0,0,0-0.1,0-0.1c0.2-0.7,1-1.1,1.7-0.9
		C167.8,8.2,168.2,8.9,168.1,9.6z"/>
	<path class="st16" d="M174.3,11.2c-0.2,0.7-0.9,1.2-1.6,1c-0.7-0.2-1.2-0.9-1-1.6c0,0,0-0.1,0-0.1c0.2-0.7,1-1.1,1.7-0.9
		C174,9.9,174.4,10.5,174.3,11.2"/>
	<path class="st6" d="M174.3,11.2c-0.2,0.7-0.9,1.2-1.6,1c-0.7-0.2-1.2-0.9-1-1.6c0,0,0-0.1,0-0.1c0.2-0.7,1-1.1,1.7-0.9
		C174,9.9,174.4,10.5,174.3,11.2L174.3,11.2z"/>
	<path class="st17" d="M180.5,12.9c-0.2,0.7-0.9,1.2-1.6,1c-0.7-0.2-1.2-0.9-1-1.6c0,0,0-0.1,0-0.1c0.2-0.7,1-1.1,1.7-0.9
		C180.2,11.5,180.6,12.2,180.5,12.9"/>
	<path class="st6" d="M180.5,12.9c-0.2,0.7-0.9,1.2-1.6,1c-0.7-0.2-1.2-0.9-1-1.6c0,0,0-0.1,0-0.1c0.2-0.7,1-1.1,1.7-0.9
		C180.2,11.5,180.6,12.2,180.5,12.9L180.5,12.9z"/>
	<g transform="translate(273.973 122.41)">
		<g>
			<path class="st7" d="M-58.4-65.8l-51.2-13.6l5.1-19.1L-53.3-85L-58.4-65.8z"/>
		</g>
		<defs>
			<filter id="Adobe_OpacityMaskFilter_1_" filterUnits="userSpaceOnUse" x="-71.1" y="-97" width="28" height="28">
				<feColorMatrix  type="matrix" values="1 0 0 0 0  0 1 0 0 0  0 0 1 0 0  0 0 0 1 0"/>
			</filter>
		</defs>
		<mask maskUnits="userSpaceOnUse" x="-71.1" y="-97" width="28" height="28" id="d_1_">
			<g class="st18">
				<path id="c_1_" class="st0" d="M-58.4-65.8l-51.2-13.6l5.1-19.1L-53.3-85L-58.4-65.8z"/>
			</g>
		</mask>
		<circle class="st19" cx="-57.1" cy="-83" r="14"/>
		<defs>
			<filter id="Adobe_OpacityMaskFilter_2_" filterUnits="userSpaceOnUse" x="-84.7" y="-95.4" width="28" height="28">
				<feColorMatrix  type="matrix" values="1 0 0 0 0  0 1 0 0 0  0 0 1 0 0  0 0 0 1 0"/>
			</filter>
		</defs>
		<mask maskUnits="userSpaceOnUse" x="-84.7" y="-95.4" width="28" height="28" id="d_2_">
			<g class="st20">
				<path id="c_2_" class="st0" d="M-58.4-65.8l-51.2-13.6l5.1-19.1L-53.3-85L-58.4-65.8z"/>
			</g>
		</mask>
		<circle class="st21" cx="-70.7" cy="-81.4" r="13.5"/>
	</g>
	<path class="st22" d="M162.1,51.9l24.9,6.6 M159.8,60.4l50.7,13.5 M155.4,77.3l50.7,13.5 M157.6,68.9l40.2,10.7"/>
	<path class="st23" d="M258.7,130.5c0,2.8-2.3,5.1-5.1,5.1c-2.8,0-5.1-2.3-5.1-5.1c0,0,0,0,0,0c0-2.8,2.3-5.1,5.1-5.1
		C256.4,125.5,258.6,127.7,258.7,130.5"/>
	<path class="st24" d="M81.1,111.3c0,1.8-1.4,3.2-3.2,3.2c-1.8,0-3.2-1.4-3.2-3.2c0,0,0,0,0,0c0-1.8,1.4-3.2,3.2-3.2
		C79.7,108.1,81.1,109.5,81.1,111.3"/>
	<path class="st25" d="M305,273.7c0,1.8-1.5,3.3-3.3,3.3c-1.8,0-3.2-1.5-3.2-3.3c0-1.8,1.4-3.2,3.2-3.2
		C303.5,270.5,305,271.9,305,273.7C305,273.7,305,273.7,305,273.7"/>
	<path class="st5" d="M110.6,135.2l-22-15.1 M264.4,136.4l14.9-34 M315.9,222.8l1.4-8 M309.7,224.1l-6-5.4 M310,231.5l-8.3,1
		 M118.1,127.6L83.1,82.4"/>
	<path class="st26" d="M348.6,145.1l-37.3-18l18-37.3l37.3,18.1L348.6,145.1z"/>
	<path class="st27" d="M323.2,143.2L313,103l40.2-10.1l10.1,40.2L323.2,143.2z"/>
	<path class="st5" d="M364.5,149.1c0,0,8.5,24.9-22.2,31.5"/>
	<path class="st2" d="M362.1,153.5l2.2-5.2l4.6,3.2"/>
	<path class="st28" d="M280.5,274.7H180l25.1-128.8h100.6L280.5,274.7z"/>
	<g>
		<path class="st29" d="M219.2,168.2h62.2"/>
		<path class="st30" d="M216.8,163l-4.7,5.2"/>
		<path class="st31" d="M216.6,173.6l-4.5-5.4 M283.6,162.9l4.7,5.2"/>
		<path class="st30" d="M283.8,173.5l4.5-5.4"/>
		<path class="st32" d="M208.3,189.4h9.6 M230.4,189.4h53.5"/>
		<path class="st29" d="M204.4,210.6h9.6 M227.1,210.6h28.2 M266.7,210.6h13.6"/>
		<path class="st32" d="M200.9,231.7h9.6 M223,231.7h14.4 M249.4,231.7h27"/>
		<path class="st29" d="M196.8,252.9h9.6 M219.6,252.9h30.8"/>
	</g>
	<path class="st33" d="M313.7,227.4l7.4,22.3l5.1-5.2l5.9,5.9l4.3-3.9l-5.8-6.3l5.3-4.8L313.7,227.4z"/>
</g>
</svg>
