<svg width="602" height="501" xmlns="http://www.w3.org/2000/svg" xmlns:xlink="http://www.w3.org/1999/xlink"><defs><path d="M67.684 75.025L31.527 89.117a2 2 0 0 1-2.585-1.125L.735 16.949a2 2 0 0 1 1.132-2.602L38.027.257a2 2 0 0 1 2.585 1.125l28.205 71.042a2 2 0 0 1-1.133 2.601z" id="a"/><path id="c" d="M51.64 33.163L.48 19.595 5.557.45l51.16 13.568z"/></defs><g fill="none" fill-rule="evenodd"><path fill="#FFF" d="M-747.156-159h1440v3587h-1440z"/><path fill="#F5F5F5" d="M171.048 383.447h163.846v-9.91H171.048z"/><path stroke="#212121" d="M171.048 383.447h219.017v-9.91H171.048z"/><path stroke="#979797" fill="#FFF" d="M390.065 373.536h-181.69l24.658-128.847h181.689z"/><path stroke="#000" stroke-width=".75" d="M390.065 373.536h-181.69l24.658-128.847h181.689z"/><path d="M334.303 373.536v9.91" stroke="#212121"/><path d="M239.3 321.422h66.337M237.124 333.348h40.596" stroke="#212121" stroke-linejoin="round"/><path fill="#F5F5F5" d="M312.093 305.848h-69.59l7.734-42.061h69.59z"/><path d="M312.093 305.848h-69.59l7.734-42.061h69.59z"/><path d="M251.964 347.885h-14.565a4.432 4.432 0 1 0 0 8.864h14.565a4.433 4.433 0 0 0 0-8.864" fill="#2979FF"/><path d="M293.934 285.015c-.416 7.326-6.7 13.136-14.038 12.979-7.338-.162-12.95-6.229-12.535-13.554.416-7.326 6.7-13.138 14.038-12.979 7.338.16 12.95 6.227 12.535 13.554" fill="#FFEC44"/><path d="M293.934 285.015c-.416 7.326-6.7 13.136-14.038 12.979-7.338-.162-12.95-6.229-12.535-13.554.416-7.326 6.7-13.138 14.038-12.979 7.338.16 12.95 6.227 12.535 13.554z" stroke="#212121" stroke-width=".75"/><path d="M277.718 281.881a1.242 1.242 0 0 1-1.255 1.162 1.14 1.14 0 0 1-1.122-1.214 1.24 1.24 0 0 1 1.254-1.16c.659.013 1.16.558 1.123 1.212M286.614 282.074a1.243 1.243 0 0 1-1.255 1.162 1.14 1.14 0 0 1-1.122-1.214c.037-.654.6-1.176 1.254-1.159.657.012 1.16.555 1.123 1.211" fill="#000"/><path d="M274.724 286.633s1.49 3.267 5.56 3.356c4.066.087 6.052-3.104 6.052-3.104" stroke="#000" stroke-width=".701" stroke-linecap="round" stroke-linejoin="round"/><g transform="translate(118.973 241.41)"><mask id="b" fill="#fff"><use xlink:href="#a"/></mask><path stroke="#212121" stroke-width=".75" d="M67.82 75.374L31.663 89.467a2.375 2.375 0 0 1-3.07-1.337L.386 17.087a2.375 2.375 0 0 1 1.331-3.084l.014-.005 36.16-14.09a2.375 2.375 0 0 1 3.07 1.336l28.204 71.041a2.375 2.375 0 0 1-1.33 3.084l-.015.005z"/><path d="M43.914-3.006l4.76 12.012L4.119 26.66-.64 14.65 43.914-3.006zM69.209 60.828l4.76 12.014-44.555 17.653-4.76-12.01 44.555-17.657z" stroke="#212121" fill="#FE7E00" mask="url(#b)"/></g><path d="M154.151 277.829l-1.371.543-.416-1.051 1.37-.543.417 1.051zm7.772.006l-1.613-4.068-.91.361-.42-1.061-7.832 3.103.432 1.09-.94.375 2.49 6.284-1.063.421.348.88-1.456.577.421 1.062-1.518.603.373.94-1.124.445.387.97-2.187.867-.385-.97-.941.373-.36-.91-.91.36-.867-2.186-.85.336 2.213 5.586 1.093-.433.421 1.062.94-.373.398 1.001 1.183-.468.385.972.91-.361.41 1.032.729-.29 1.467 3.704 1.973-.78-.3-.762-.973.387-.385-.973 1.033-.408-.42-1.063.82-.324-.362-.911 1.184-.468.396 1 .972-.384 1.07 2.7 1.944-.769-.29-.728-1.061.422-1.553-3.917.85-.336-.433-1.094 1.064-.42-.567-1.426 1.032-.41-1.298-3.28 1.251-.494.373.941.934-.37-.77-1.943-2.033.807-.818-2.065 4.128-1.636-.314-.793-3.098 1.226-.43-1.088 4.857-1.925z" fill="#000"/><path d="M169.08 261.599l16.017-6.347M171.465 267.617l11.657-4.62M137.923 304.57l-15.976 6.45M140.347 310.574l-11.629 4.694" stroke="#000" stroke-linejoin="round" stroke-dasharray="3,2.802000045776367"/><path fill="#FFF" d="M334.558 220.154l-71.532-18.973 21.244-80.102 71.534 18.973z"/><path stroke="#212121" d="M334.558 220.154l-71.532-18.973 21.244-80.102 71.534 18.973z"/><path fill="#FFF" d="M328.88 211.166l-71.532-18.973 21.244-80.102 71.534 18.973z"/><path stroke="#212121" d="M328.88 211.166l-71.532-18.973 21.244-80.102 71.534 18.973z"/><path fill="#FFF" d="M323.637 202.35l-71.534-18.973 21.244-80.102 71.534 18.973z"/><path stroke="#212121" d="M323.637 202.35l-71.534-18.973 21.244-80.102 71.534 18.973z"/><path fill="#FFF" d="M342.877 129.804l-71.532-18.973 2.002-7.555 71.534 18.972z"/><path stroke="#212121" d="M342.877 129.804l-71.532-18.973 2.002-7.555 71.534 18.972z"/><path d="M278.062 108.57a1.336 1.336 0 1 1-2.581-.686 1.336 1.336 0 0 1 2.581.686" fill="#374AFF"/><path d="M278.062 108.57a1.336 1.336 0 1 1-2.581-.686 1.336 1.336 0 0 1 2.581.686z"/><path d="M284.265 110.214a1.336 1.336 0 1 1-2.581-.686 1.336 1.336 0 0 1 2.58.686" fill="#2A7DFF"/><path d="M284.265 110.214a1.336 1.336 0 1 1-2.581-.686 1.336 1.336 0 0 1 2.58.686z"/><path d="M290.468 111.86a1.336 1.336 0 1 1-2.581-.686 1.336 1.336 0 0 1 2.58.685" fill="#42C6FF"/><path d="M290.468 111.86a1.336 1.336 0 1 1-2.581-.686 1.336 1.336 0 0 1 2.58.685z"/><g transform="translate(273.973 122.41)"><mask id="d" fill="#fff"><use xlink:href="#c"/></mask><use fill="#2979FF" xlink:href="#c"/><circle fill="#3FC4FF" fill-rule="nonzero" mask="url(#d)" cx="52.851" cy="15.98" r="14"/><circle stroke="#212121" mask="url(#d)" cx="39.311" cy="17.634" r="13.5"/></g><path d="M272.084 150.931l24.926 6.61M269.84 159.396l50.729 13.454M265.35 176.325l50.727 13.455M267.594 167.86l40.182 10.657" stroke="#000" stroke-linejoin="round"/><path d="M368.652 229.54a5.077 5.077 0 1 1-10.154 0 5.077 5.077 0 0 1 10.154 0" fill="#FE80C2"/><path d="M191.135 210.283a3.214 3.214 0 1 1-6.428 0 3.214 3.214 0 0 1 6.428 0" fill="#FE0D75"/><path d="M414.993 372.733a3.267 3.267 0 0 1-3.266 3.268 3.267 3.267 0 0 1 0-6.533 3.265 3.265 0 0 1 3.266 3.265" fill="#E983FC"/><path d="M220.59 234.155l-22.03-15.097M374.361 235.375l14.913-34.016M425.907 321.799l1.403-8.037M419.697 323.142l-6.033-5.361M420.05 330.461l-8.323.95M228.125 226.606L193.07 181.36" stroke="#212121" stroke-linejoin="round"/><path fill="#00BFA5" d="M458.568 244.065l-37.297-18.047 18.05-37.3 37.296 18.05z"/><path d="M433.179 242.221l-10.15-40.171 40.175-10.15 10.148 40.174-40.173 10.147z" stroke="#212121" stroke-dasharray="3"/><path d="M474.494 248.092s8.535 24.946-22.232 31.466" stroke="#212121" stroke-linejoin="round"/><path stroke="#212121" d="M472.077 252.478l2.154-5.173 4.64 3.208"/><path fill="#212121" d="M390.543 373.726H289.979l25.14-128.847h100.564z"/><g stroke-linejoin="round"><path d="M329.188 267.17h62.191" stroke="#FF1776"/><path d="M326.836 262.042l-4.684 5.156" stroke="#FF1776" stroke-linecap="square"/><path d="M326.611 272.61l-4.457-5.412M393.551 261.912l4.684 5.156" stroke="#E51661" stroke-linecap="square"/><path d="M393.774 272.48l4.46-5.412" stroke="#FF1776" stroke-linecap="square"/><path d="M318.347 288.42h9.62M340.374 288.42h53.536" stroke="#A250FF"/><path d="M314.392 309.581h9.62M337.053 309.581h28.193M376.74 309.581h13.591" stroke="#FF1776"/><path d="M310.896 330.74h9.62M333.038 330.74h14.37M359.352 330.74h26.999" stroke="#A250FF"/><path d="M306.78 351.9h9.62M329.616 351.9h30.846" stroke="#FF1776"/></g><path stroke="#212121" fill="#FF80C3" d="M423.662 326.363l7.407 22.346 5.127-5.184 5.91 5.91 4.27-3.917-5.837-6.337 5.341-4.785z"/></g></svg>