<svg xmlns="http://www.w3.org/2000/svg" xmlns:xlink="http://www.w3.org/1999/xlink" width="800" height="800" version="1.1" viewBox="0 0 800 800"><title>futureweb-full</title><desc>Created with Sketch.</desc><defs><polygon id="path-1" points=".227 .259 163.726 .259 163.726 100.557 .227 100.557"/><rect id="path-3" width="48.141" height="48.141" x=".143" y=".748"/><rect id="path-5" width="48.141" height="48.141" x=".143" y=".748"/><rect id="path-7" width="48.141" height="48.141" x=".143" y=".748"/><rect id="path-9" width="48.141" height="48.141" x=".143" y=".748"/><rect id="path-11" width="48.141" height="48.141" x=".143" y=".748"/><rect id="path-13" width="48.141" height="48.141" x=".143" y=".748"/><polygon id="path-15" points=".529 .25 367.346 .25 367.346 269.513 .529 269.513"/><rect id="path-17" width="160" height="197" x=".709" y="0"/><rect id="path-19" width="100" height="51.025" x=".981" y=".065"/></defs><g id="futureweb-full" fill="none" fill-rule="evenodd" stroke="none" stroke-width="1"><rect id="masking" width="720" height="800" x="-.328" y="-.051"/><g id="landscape_pink" transform="translate(636.000000, 235.000000)"><mask id="mask-2" fill="#fff"><use xlink:href="#path-1"/></mask><use id="Rectangle-12" fill="#F1F3F4" fill-rule="nonzero" xlink:href="#path-1"/><path id="Rectangle" stroke="#FFF" d="M2.72722357,115.621094 L167.727224,115.621094 L167.727224,61.6210938 L22.2272236,61.6210938 C11.457671,61.6210938 2.72722357,70.3515411 2.72722357,81.1210938 L2.72722357,115.621094 Z" mask="url(#mask-2)"/><rect id="Rectangle" width="86.224" height="38.985" x="38.864" y="11.139" fill="#FFF" mask="url(#mask-2)"/><circle id="Oval" cx="23.232" cy="82.125" r="4.504" stroke="#FF1776" mask="url(#mask-2)"/></g><g id="landscape_orange" transform="translate(335.665254, 211.441277)"><path id="Rectangle-12" fill="#F1F3F4" fill-rule="nonzero" stroke="#FFF" d="M-0.113465319,-0.229269101 L198.059473,-0.229269101 L198.059473,143.398567 L-0.113465319,143.398567 L-0.113465319,-0.229269101 Z"/><rect id="Rectangle" width="67" height="11" x="20.219" y="0" fill="#FFF"/><rect id="Rectangle" width="66" height="89.5" x="20.719" y="53.648" stroke="#FFF"/><rect id="Rectangle" width="66" height="41" x="101.958" y="22.781" stroke="#FFF"/><rect id="Rectangle" width="67" height="37" x="101.458" y="106.199" fill="#FFF"/><path id="Path-44" stroke="#FFB63D" stroke-width=".75" d="M101.458008,70.889589 L128.737089,70.889589"/><path id="Path-44" stroke="#FFB63D" stroke-width=".75" d="M20.21875,16.9887793 L46.0017379,16.9887793"/></g><g id="portrait_red" transform="translate(547.000000, -8.000000)"><path id="Rectangle-12" fill="#F1F3F4" fill-rule="nonzero" stroke="#FFF" d="M0.771921726,1.3272286 L0.771921726,219.864401 L176.726717,219.864401 L176.726717,1.3272286 L0.771921726,1.3272286 Z"/><path id="Path-45" stroke="#FF1800" d="M89.3243728,178.884284 L118.292841,178.884284"/><path id="Path-45" stroke="#FF1800" d="M101.414521,171.114502 L118.292841,171.114502"/><circle id="Oval" cx="88.749" cy="146.123" r="58.717" stroke="#FFF"/><circle id="Oval" cx="88.749" cy="12.045" r="58.717" fill="#FFF" stroke="#FFF"/><path id="Path-45" stroke="#FF1800" d="M62.707159,50.9194401 L91.6756272,50.9194401" transform="translate(77.191393, 50.919440) scale(-1, 1) translate(-77.191393, -50.919440)"/><path id="Path-45" stroke="#FF1800" d="M63.3442263,43.1496586 L80.2225459,43.1496586" transform="translate(71.464852, 43.149659) scale(-1, 1) translate(-71.464852, -43.149659)"/></g><g id="landscape_purple" transform="translate(96.950691, 530.559544)"><path id="Rectangle-12" fill="#F1F3F4" fill-rule="nonzero" stroke="#FFF" d="M-0.151875333,-0.0560735837 L221.03023,-0.0560735837 L221.03023,144.458995 L-0.151875333,144.458995 L-0.151875333,-0.0560735837 Z"/><path id="Rectangle-12" fill-rule="nonzero" stroke="#FFF" d="M-0.151875333,59.4287377 L209.619622,59.4287377 L209.619622,144.458995 L-0.151875333,144.458995 L-0.151875333,59.4287377 Z"/><polygon id="Rectangle-12" fill="#FFF" fill-rule="nonzero" points="148.709 45.058 176.77 45.058 176.77 73.118 148.709 73.118"/><polygon id="Stroke-34" fill="#EA80FC" points="160.029 54.821 160.029 63.355 167.056 59.088"/><path id="Path-43" stroke="#FFF" d="M29.1186451,23.9214106 L76.7823202,23.9214106"/><path id="Path-43" stroke="#FFF" d="M29.1186451,35.2114553 L76.7823202,35.2114553"/></g><g id="landscape_green" opacity=".953" transform="translate(344.668520, 413.098251)"><path id="Rectangle-12" fill="#F1F3F4" fill-rule="nonzero" stroke="#FFF" d="M-0.36368558,-0.207512257 L286.36099,-0.207512257 L286.36099,199.531731 L-0.36368558,199.531731 L-0.36368558,-0.207512257 Z"/><path id="Path" fill="#F1F3F4" fill-rule="nonzero" stroke="#FFF" d="M217.859478,-0.207512257 L286.36099,-0.207512257 L286.36099,199.531731 L222.881892,199.531731 L222.732534,199.361603 C197.965072,171.149954 184.07322,134.98279 184.07322,96.6621094 C184.07322,61.0647076 196.052549,27.2954095 217.709341,-0.0181594733 L217.859478,-0.207512257 Z"/><rect id="Rectangle" width="93.776" height="139.746" x="155.53" y="29.789" fill="#F1F3F4" fill-rule="nonzero" stroke="#FFF"/><path id="Path-43" fill="#D8D8D8" stroke="#FFF" d="M68.3090195,77.6204989 L129.487375,77.6204989"/><rect id="Rectangle" width="40.805" height="13" x="68" y="100.162" fill="#FAFAFA"/><path id="Path-43" fill="#D8D8D8" stroke="#FFF" d="M68.3090195,89.1732332 L129.487375,89.1732332"/><path id="Path-43" fill="#00BFA5" stroke="#00BFA5" d="M76.0373708,106.662109 L100.721175,106.662109"/><path id="Path-43" fill="#00BFA5" stroke="#00BFA5" d="M165.098082,39.4093347 L184.371684,39.4093347"/></g><g id="pink" transform="translate(472.698215, 117.210147)"><path id="Rectangle-12" fill="#FFF" stroke="#212121" d="M-0.5,-0.5 L108.797124,-0.5 L108.797124,182.715009 L-0.5,182.715009 L-0.5,-0.5 Z"/><circle id="Oval" cx="54" cy="22" r="8.5" fill="#FF1776" stroke="#212121"/><path id="Path" stroke="#212121" d="M39.2419693,42.7898535 L68.0566683,42.7898535"/><path id="Rectangle-12" fill="#F5F5F5" d="M10.7934813,55.953916 L96.6904573,55.953916 C97.2427421,55.953916 97.6904573,56.4016312 97.6904573,56.953916 L97.6904573,153.403135 C97.6904573,153.955419 97.2427421,154.403135 96.6904573,154.403135 L10.7934813,154.403135 C10.2411965,154.403135 9.79348128,153.955419 9.79348128,153.403135 L9.79348128,56.953916 C9.79348128,56.4016312 10.2411965,55.953916 10.7934813,55.953916 Z"/><path id="Path" fill="#FF1776" d="M47.3133816,96.3984964 C43.5260752,96.3984964 40.4445803,99.4799913 40.4445803,103.267648 C40.4445803,106.201472 41.5892055,108.963129 43.6684972,111.04522 C46.8339757,114.210349 51.757159,118.614584 53.7937591,120.42023 C55.8058641,118.609685 60.654512,114.211049 63.8178909,111.044521 C65.895083,108.967328 67.0393584,106.205321 67.0393584,103.267648 C67.0393584,99.4799913 63.9578634,96.3984964 60.1705571,96.3984964 C58.1035129,96.3984964 56.1585948,97.3478599 54.8351547,99.003035 L53.7423192,100.369517 L52.6491339,99.0033849 C51.324644,97.3478599 49.3797258,96.3984964 47.3133816,96.3984964 Z"/><path id="Path" fill="#FF80C3" stroke="#212121" d="M47.3133816,90.4348679 C43.5260752,90.4348679 40.4445803,93.5163628 40.4445803,97.3040191 C40.4445803,100.237843 41.5892055,102.999501 43.6684972,105.081592 C46.8339757,108.246721 51.757159,112.650956 53.7937591,114.456601 C55.8058641,112.646057 60.654512,108.24742 63.8178909,105.080892 C65.895083,103.0037 67.0393584,100.241692 67.0393584,97.3040191 C67.0393584,93.5163628 63.9578634,90.4348679 60.1705571,90.4348679 C58.1035129,90.4348679 56.1585948,91.3842315 54.8351547,93.0394065 L53.7423192,94.4058882 L52.6491339,93.0397564 C51.324644,91.3842315 49.3797258,90.4348679 47.3133816,90.4348679 Z"/><path id="Rectangle-12" fill="#F5F5F5" d="M10.7934813,163.463095 L96.6904573,163.463095 C97.2427421,163.463095 97.6904573,163.910811 97.6904573,164.463095 L97.6904573,182.189853 L9.79348128,182.189853 L9.79348128,164.463095 C9.79348128,163.910811 10.2411965,163.463095 10.7934813,163.463095 Z"/></g><g id="green" transform="translate(173.970965, -4.059581)"><path id="Rectangle-12" fill="#FFF" stroke="#212121" d="M-0.117469183,0.243174865 L270.227582,0.243174865 L270.227582,198.023079 L-0.117469183,198.023079 L-0.117469183,0.243174865 Z"/><rect id="Rectangle" width="117.654" height="149.741" x="17.496" y="30.669" fill="#F5F5F5"/><path id="Path-43" fill="#D8D8D8" stroke="#212121" d="M156.923221,80.436659 L243.210703,80.436659"/><path id="Path-43" fill="#D8D8D8" stroke="#212121" d="M156.923221,93.3990261 L243.210703,93.3990261"/><path id="Path-43" fill="#D8D8D8" stroke="#212121" d="M156.923221,106.233963 L219.997516,106.233963"/><circle id="Oval-7" cx="161.841" cy="121.392" r="4.728" fill="#00BFA5" fill-rule="nonzero" stroke="#212121" stroke-width=".9"/><circle id="Oval-7" cx="177.912" cy="121.392" r="4.728" fill="#00E676" fill-rule="nonzero" stroke="#212121" stroke-width=".9"/><path id="Path" fill="#006776" fill-rule="nonzero" d="M177.720172,125.666228 L177.720172,117.118041 C177.783728,117.115238 177.847645,117.113822 177.911892,117.113822 C180.274739,117.113822 182.190205,119.029288 182.190205,121.392134 C182.190205,123.754981 180.274739,125.670447 177.911892,125.670447 C177.847645,125.670447 177.783728,125.669031 177.720172,125.666228 Z"/><circle id="Oval-7" cx="193.983" cy="121.392" r="4.728" fill="#00E676" fill-rule="nonzero" stroke="#212121" stroke-width=".9"/><circle id="Oval-7" cx="63.479" cy="88.063" r="27.41" fill="#00BFA5" fill-rule="nonzero"/><circle id="Oval-7" cx="90.889" cy="115.474" r="26.91" fill-rule="nonzero" stroke="#212121"/><path id="Path-46" stroke="#212121" d="M81.4933878,157.896236 L71.1517608,157.896236"/></g><g id="purple" transform="translate(577.000000, 367.000000)"><path id="Rectangle-12" fill="#FFF" fill-rule="nonzero" stroke="#212121" d="M0.564693854,1.1094039 L0.564693854,226.683764 L209.959752,226.683764 L209.959752,1.1094039 L0.564693854,1.1094039 Z"/><g id="box" transform="translate(50.000000, 32.000000)"><mask id="mask-4" fill="#fff"><use xlink:href="#path-3"/></mask><use id="Rectangle" fill="#F5F5F5" xlink:href="#path-3"/></g><g id="box" transform="translate(50.000000, 89.998630)"><mask id="mask-6" fill="#fff"><use xlink:href="#path-5"/></mask><use id="Rectangle" fill="#F5F5F5" xlink:href="#path-5"/></g><g id="box" transform="translate(50.000000, 147.488294)"><mask id="mask-8" fill="#fff"><use xlink:href="#path-7"/></mask><use id="Rectangle" fill="#F5F5F5" xlink:href="#path-7"/></g><g id="box" transform="translate(107.595954, 32.000000)"><mask id="mask-10" fill="#fff"><use xlink:href="#path-9"/></mask><use id="Rectangle" fill="#F5F5F5" xlink:href="#path-9"/></g><g id="box" transform="translate(107.595954, 89.998630)"><mask id="mask-12" fill="#fff"><use xlink:href="#path-11"/></mask><use id="Rectangle" fill="#F5F5F5" xlink:href="#path-11"/></g><g id="box" transform="translate(107.595954, 147.488294)"><mask id="mask-14" fill="#fff"><use xlink:href="#path-13"/></mask><use id="Rectangle" fill="#F5F5F5" xlink:href="#path-13"/></g><path id="Path-2" stroke="#212121" d="M15.0332031,32.9130354 L41.6589709,32.9130354"/><path id="Path-2" stroke="#212121" d="M15.0332031,22.6408999 L41.6589709,22.6408999"/><path id="Path-2" stroke="#212121" d="M15.0332031,43.1851708 L41.6589709,43.1851708"/><path id="Path-2" stroke="#212121" d="M15.0332031,53.4573062 L41.6589709,53.4573062"/><rect id="Rectangle" width="13" height="13" x="67.714" y="50.319" fill="#EA80FC"/><rect id="Rectangle" width="12" height="12" x="125.81" y="108.817" stroke="#A249FF"/><path id="Rectangle" fill="#A249FF" stroke="#212121" d="M67.8379726,108.148746 L67.8379726,122.193104 L81.8823307,122.193104 L67.8379726,108.148746 Z"/><polygon id="Rectangle" fill="#6600ED" points="127.934 169.415 138.702 180.182 124.917 183.199" transform="translate(131.809659, 176.307035) rotate(135.000000) translate(-131.809659, -176.307035)"/><circle id="Oval" cx="74.214" cy="172.307" r="7" stroke="#6600ED"/><circle id="Oval" cx="131.81" cy="56.819" r="7" fill="#EA80FC" stroke="#212121"/><rect id="Rectangle" width="13" height="13" x="67.83" y="49.844" fill="#EA80FC"/><rect id="Rectangle" width="12" height="12" x="125.926" y="108.342" stroke="#A249FF"/><path id="Rectangle" fill="#A249FF" stroke="#212121" d="M67.9543924,107.67383 L67.9543924,121.718188 L81.9987504,121.718188 L67.9543924,107.67383 Z"/><polygon id="Rectangle" fill="#6600ED" points="128.051 168.94 138.818 179.707 125.034 182.725" transform="translate(131.926079, 175.832120) rotate(135.000000) translate(-131.926079, -175.832120)"/><circle id="Oval" cx="74.33" cy="171.832" r="7" stroke="#6600ED"/><circle id="Oval" cx="131.926" cy="56.344" r="7" fill="#EA80FC" stroke="#212121"/></g><g id="blue" transform="translate(25.804688, 234.079781)"><path id="Rectangle-12" fill="#FFF" stroke="#212121" d="M0.0291998807,-0.250378779 L367.845688,-0.250378779 L367.845688,270.013113 L0.0291998807,270.013113 L0.0291998807,-0.250378779 Z"/><mask id="mask-16" fill="#fff"><use xlink:href="#path-15"/></mask><circle id="Oval" cx="9.009" cy="8.185" r="2.316" fill="#2979FF" stroke="#212121" mask="url(#mask-16)"/><circle id="Oval" cx="19.305" cy="8.185" r="2.316" fill="#2979FF" stroke="#212121" mask="url(#mask-16)"/><circle id="Oval" cx="29.601" cy="8.185" r="2.316" fill="#2979FF" stroke="#212121" mask="url(#mask-16)"/><g id="Rectangle-2" mask="url(#mask-16)"><g transform="translate(183.000000, 1.302734)"><mask id="mask-18" fill="#fff"><use xlink:href="#path-17"/></mask><use id="Rectangle" fill="#F5F5F5" fill-rule="evenodd" stroke="none" xlink:href="#path-17"/><path id="Rectangle" fill="#3740FF" fill-rule="evenodd" stroke="none" d="M155.643282,31.6706083 L273.887376,149.914702 C295.975632,172.002959 295.975632,207.815098 273.887376,229.903354 C251.79912,251.991611 215.98698,251.991611 193.898724,229.903354 L75.6546298,111.65926 C53.5663735,89.5710039 53.5663735,53.7588646 75.6546298,31.6706083 C97.7428861,9.58235201 133.555025,9.58235201 155.643282,31.6706083 Z" mask="url(#mask-18)"/><path id="Rectangle" fill="none" stroke="#212121" stroke-width="1" d="M-31.0965069,-30.4946136 C-52.989501,-52.3876078 -88.4850578,-52.3876078 -110.378052,-30.4946136 C-132.271046,-8.60161944 -132.271046,26.8939374 -110.378052,48.7869315 L7.86604215,167.031026 C29.7590363,188.92402 65.2545931,188.92402 87.1475873,167.031026 C109.040581,145.138032 109.040581,109.642475 87.1475873,87.7494805 L-31.0965069,-30.4946136 Z" mask="url(#mask-18)"/></g></g><g id="Group-2" mask="url(#mask-16)"><g transform="translate(101.000000, 219.000000)"><mask id="mask-20" fill="#fff"><use xlink:href="#path-19"/></mask><use id="Rectangle" fill="#F5F5F5" fill-rule="evenodd" stroke="none" xlink:href="#path-19"/><polygon id="Path" fill="#3FC4FF" fill-rule="nonzero" stroke="none" points="101.878 50.92 15.902 50.92 54.768 11.296" mask="url(#mask-20)"/><polygon id="Path" fill="#2979FF" fill-rule="nonzero" stroke="none" points="1.195 50.92 1.195 21.272 36.445 50.92" mask="url(#mask-20)"/><path id="Path" fill="none" fill-rule="nonzero" stroke="#212121" stroke-width="1" d="M25.3228308,41.2555339 L63.9053104,73.6634672" mask="url(#mask-20)"/></g></g><g id="blue-corner" mask="url(#mask-16)"><g transform="translate(0.000000, 177.000000)"><rect id="Rectangle" width="99.7" height="28.821" x=".556" y="63.269" fill="#F5F5F5" fill-rule="evenodd" stroke="none"/><path id="Path" fill="#3740FF" fill-rule="nonzero" stroke="none" d="M0.5953125,26.9772474 L49.5904923,7.18190986 C54.7111874,5.11301477 60.5395017,7.58698744 62.6083968,12.7076825 L77.6212983,49.8659176 C79.6901934,54.9866126 77.2162207,60.814927 72.0955257,62.8838221 L17.5708172,84.9132342 C12.4501222,86.9821293 6.62180783,84.5081567 4.55291274,79.3874616 L0.5953125,69.5920573 L0.5953125,26.9772474 Z"/><path id="Rectangle-12" fill="none" fill-rule="nonzero" stroke="#212121" stroke-width="1" d="M20.8803836,16.5093483 C15.6336784,16.5093483 11.3803836,20.7626432 11.3803836,26.0093483 L11.3803836,66.0857958 C11.3803836,71.332501 15.6336784,75.5857958 20.8803836,75.5857958 L79.687176,75.5857958 C84.9338811,75.5857958 89.187176,71.332501 89.187176,66.0857958 L89.187176,26.0093483 C89.187176,20.7626432 84.9338811,16.5093483 79.687176,16.5093483 L20.8803836,16.5093483 Z" transform="translate(50.283780, 46.047572) rotate(-22.000000) translate(-50.283780, -46.047572)"/><rect id="cover" width="99.7" height="63" x=".595" y=".22" fill="#FFF" fill-rule="nonzero" stroke="none"/></g></g></g><g id="yellow" transform="translate(388.311876, 574.661886)"><path id="Rectangle-12" fill="#FFF" fill-rule="nonzero" stroke="#212121" d="M0.553158283,0.591128486 L0.553158283,169.322489 L94.731093,169.322489 L94.731093,0.591128486 L0.553158283,0.591128486 Z"/><g id="Group-5" transform="translate(10.642126, 21.000000)"><circle id="Oval" cx="7.217" cy="7.608" r="6.5" fill="#FF5915" stroke="#212121"/><path id="Rectangle" fill="#F5F5F5" d="M21.2857805,0.607645527 L68.2857805,0.607645527 C71.0472043,0.607645527 73.2857805,2.84622178 73.2857805,5.60764553 L73.2857805,51.6076455 C73.2857805,54.3690693 71.0472043,56.6076455 68.2857805,56.6076455 L26.2857805,56.6076455 C23.5243568,56.6076455 21.2857805,54.3690693 21.2857805,51.6076455 L21.2857805,0.607645527 Z"/><path id="Path-43" stroke="#212121" d="M32.0862095,28.2958575 L63.0569126,28.2958575"/><path id="Path-43" stroke="#212121" d="M32.0862095,15.5932719 L63.0569126,15.5932719"/><path id="Path-43" stroke="#212121" d="M32.0862095,40.998443 L63.0569126,40.998443"/></g></g><circle id="Oval" cx="465.51" cy="716.192" r="6.5" fill="#FBDB34" stroke="#212121"/><rect id="Rectangle" width="52" height="34" x="400" y="666" fill="#FFB63D" fill-rule="nonzero" rx="5"/><path id="Rectangle" fill="#FBDB34" d="M420.369665,707.192383 L446.369665,707.192383 C449.131088,707.192383 451.369665,709.430959 451.369665,712.192383 L451.369665,723.192383 L420.369665,723.192383 C417.608241,723.192383 415.369665,720.953807 415.369665,718.192383 L415.369665,712.192383 C415.369665,709.430959 417.608241,707.192383 420.369665,707.192383 Z"/><path id="Path-43" stroke="#212121" d="M410.785328,676.800264 L440.785328,676.800264"/><path id="Path-43" stroke="#212121" d="M410.785328,689.193347 L440.785328,689.193347"/><path id="Path-43" stroke="#212121" stroke-dasharray="4" d="M423.00443,715.484375 L445.140173,715.484375"/><g id="lines-on-blue" transform="translate(67.000000, 302.000000)"><path id="Path-43" stroke="#212121" d="M216,168.148163 L266,168.148163"/><path id="Path-43" stroke="#212121" d="M216,184.027069 L266,184.027069"/><path id="Path-43" stroke="#212121" d="M35.2382812,19.5786133 L98.7404964,19.5786133"/><path id="Path-43" stroke="#212121" d="M0.838867188,35.5786133 L98.7404964,35.5786133"/><path id="Path-43" stroke="#212121" d="M0.838867188,51.5786133 L98.7404964,51.5786133"/><rect id="Rectangle-2" width="40.243" height="11.67" x="58.096" y="66.714" fill-rule="nonzero" stroke="#3FC4FF" rx="5.835"/><path id="Triangle" fill-rule="nonzero" stroke="#3FC4FF" stroke-linejoin="round" d="M14.6201227,3.69654421 L21.0661531,16.588605 C21.5601316,17.576562 21.1596829,18.7779081 20.1717259,19.2718866 C19.894015,19.410742 19.5877889,19.4830322 19.2772987,19.4830322 L6.3852379,19.4830322 C5.2806684,19.4830322 4.3852379,18.5876017 4.3852379,17.4830322 C4.3852379,17.172542 4.45752808,16.8663159 4.59638352,16.588605 L11.0424139,3.69654421 C11.5363924,2.70858722 12.7377385,2.30813852 13.7256955,2.80211702 C14.1127503,2.99564442 14.4265953,3.30948941 14.6201227,3.69654421 Z"/><rect id="Rectangle-2" width="5" height="5" x="203.5" y="164.997" fill-rule="nonzero" stroke="#3740FF"/><rect id="Rectangle-2" width="5" height="5" x="203.5" y="180.876" fill-rule="nonzero" stroke="#3740FF"/></g></g></svg>