<svg version="1.1" viewBox="0.0 0.0 768.0 192.0" fill="none" stroke="none" stroke-linecap="square" stroke-miterlimit="10" xmlns:xlink="http://www.w3.org/1999/xlink" xmlns="http://www.w3.org/2000/svg"><clipPath id="p.0"><path d="m0 0l768.0 0l0 192.0l-768.0 0l0 -192.0z" clip-rule="nonzero"/></clipPath><g clip-path="url(#p.0)"><path fill="#000000" fill-opacity="0.0" d="m0 0l768.0 0l0 192.0l-768.0 0z" fill-rule="evenodd"/><path fill="#000000" fill-opacity="0.0" d="m28.8 19.2l259.21262 0l0 115.2126l-259.21262 0z" fill-rule="evenodd"/><path fill="#2979ff" d="m89.04934 42.731922l43.578117 0l0 12.28125l-30.624992 0l0 16.703121l27.562492 0l0 12.296875l-27.562492 0l0 27.453125l-12.953125 0l0 -68.734375zm55.007973 0l12.95314 0l0 68.734375l-12.95314 0l0 -68.734375zm28.607986 0l23.234375 0q10.75 0 18.71875 4.328125q7.96875 4.3125 12.28125 12.09375q4.328125 7.765621 4.328125 17.937496q0 10.1875 -4.328125 17.96875q-4.3125 7.765625 -12.28125 12.09375q-7.96875 4.3125 -18.71875 4.3125l-23.234375 0l0 -68.734375zm22.65625 56.45312q11.125 0 16.984375 -5.90625q5.859375 -5.90625 5.859375 -16.1875q0 -10.265625 -5.859375 -16.171871q-5.859375 -5.90625 -16.984375 -5.90625l-9.703125 0l0 44.17187l9.703125 0z" fill-rule="nonzero"/><path fill="#0cce6b" d="m360.0 57.6l115.212585 0l0 43.2126l-115.212585 0z" fill-rule="evenodd"/><path fill="#000000" d="m401.9218 84.22505q-1.359375 0 -2.5 -0.65625q-1.140625 -0.65625 -1.828125 -1.796875q-0.671875 -1.140625 -0.671875 -2.53125q0 -1.40625 0.671875 -2.546875q0.6875 -1.140625 1.828125 -1.78125q1.140625 -0.65625 2.5 -0.65625q1.09375 0 2.015625 0.390625q0.921875 0.375 1.5625 1.0625l-1.015625 1.015625q-0.96875 -1.09375 -2.5625 -1.09375q-0.921875 0 -1.75 0.453125q-0.8125 0.4375 -1.296875 1.265625q-0.46875 0.828125 -0.46875 1.890625q0 1.0625 0.484375 1.890625q0.484375 0.8125 1.296875 1.265625q0.8125 0.4375 1.75 0.4375q1.515625 0 2.453125 -0.953125q0.3125 -0.28125 0.515625 -0.734375q0.203125 -0.453125 0.28125 -1.0l-3.28125 0l0 -1.296875l4.640625 0q0.078125 0.453125 0.078125 0.765625q0 0.90625 -0.28125 1.734375q-0.28125 0.8125 -0.890625 1.4375q-0.640625 0.703125 -1.53125 1.078125q-0.890625 0.359375 -2.0 0.359375zm10.868805 0q-1.390625 0 -2.53125 -0.671875q-1.125 -0.671875 -1.78125 -1.8125q-0.640625 -1.140625 -0.640625 -2.5q0 -1.375 0.640625 -2.515625q0.65625 -1.140625 1.78125 -1.796875q1.140625 -0.671875 2.53125 -0.671875q1.390625 0 2.515625 0.671875q1.125 0.65625 1.765625 1.796875q0.640625 1.140625 0.640625 2.515625q0 1.359375 -0.640625 2.5q-0.640625 1.140625 -1.765625 1.8125q-1.125 0.671875 -2.515625 0.671875zm0 -1.390625q0.953125 0 1.75 -0.453125q0.796875 -0.46875 1.25 -1.28125q0.46875 -0.828125 0.46875 -1.859375q0 -1.046875 -0.46875 -1.859375q-0.453125 -0.828125 -1.25 -1.28125q-0.796875 -0.46875 -1.75 -0.46875q-0.96875 0 -1.765625 0.46875q-0.78125 0.453125 -1.25 1.28125q-0.453125 0.8125 -0.453125 1.859375q0 1.03125 0.453125 1.859375q0.46875 0.8125 1.25 1.28125q0.796875 0.453125 1.765625 0.453125zm10.955627 1.390625q-1.390625 0 -2.53125 -0.671875q-1.125 -0.671875 -1.78125 -1.8125q-0.640625 -1.140625 -0.640625 -2.5q0 -1.375 0.640625 -2.515625q0.65625 -1.140625 1.78125 -1.796875q1.140625 -0.671875 2.53125 -0.671875q1.390625 0 2.515625 0.671875q1.125 0.65625 1.765625 1.796875q0.640625 1.140625 0.640625 2.515625q0 1.359375 -0.640625 2.5q-0.640625 1.140625 -1.765625 1.8125q-1.125 0.671875 -2.515625 0.671875zm0 -1.390625q0.953125 0 1.75 -0.453125q0.796875 -0.46875 1.25 -1.28125q0.46875 -0.828125 0.46875 -1.859375q0 -1.046875 -0.46875 -1.859375q-0.453125 -0.828125 -1.25 -1.28125q-0.796875 -0.46875 -1.75 -0.46875q-0.96875 0 -1.765625 0.46875q-0.78125 0.453125 -1.25 1.28125q-0.453125 0.8125 -0.453125 1.859375q0 1.03125 0.453125 1.859375q0.46875 0.8125 1.25 1.28125q0.796875 0.453125 1.765625 0.453125zm6.6202087 -8.375l3.046875 0q1.484375 0 2.578125 0.609375q1.109375 0.59375 1.703125 1.6875q0.59375 1.078125 0.59375 2.484375q0 1.390625 -0.59375 2.484375q-0.59375 1.078125 -1.703125 1.6875q-1.09375 0.59375 -2.578125 0.59375l-3.046875 0l0 -9.546875zm3.015625 8.15625q1.625 0 2.515625 -0.890625q0.90625 -0.90625 0.90625 -2.484375q0 -1.59375 -0.90625 -2.484375q-0.890625 -0.90625 -2.515625 -0.90625l-1.546875 0l0 6.765625l1.546875 0z" fill-rule="nonzero"/><path fill="#ffa400" d="m475.2 57.600365l124.787415 0l0 43.2126l-124.787415 0z" fill-rule="evenodd"/><path fill="#000000" d="m517.5868 66.459785l1.734375 0l4.3125 7.015625l0.078125 0l-0.078125 -1.84375l0 -5.171875l1.453125 0l0 9.546875l-1.515625 0l-4.53125 -7.375l-0.078125 0l0.078125 1.84375l0 5.53125l-1.453125 0l0 -9.546875zm9.662842 0l5.78125 0l0 1.390625l-4.3125 0l0 2.6875l3.890625 0l0 1.390625l-3.890625 0l0 2.6875l4.3125 0l0 1.390625l-5.78125 0l0 -9.546875zm7.623657 0l5.78125 0l0 1.390625l-4.3125 0l0 2.6875l3.890625 0l0 1.390625l-3.890625 0l0 2.6875l4.3125 0l0 1.390625l-5.78125 0l0 -9.546875zm7.623657 0l3.046875 0q1.484375 0 2.578125 0.609375q1.109375 0.59375 1.703125 1.6875q0.59375 1.078125 0.59375 2.484375q0 1.390625 -0.59375 2.484375q-0.59375 1.078125 -1.703125 1.6875q-1.09375 0.59375 -2.578125 0.59375l-3.046875 0l0 -9.546875zm3.015625 8.15625q1.625 0 2.515625 -0.890625q0.90625 -0.90625 0.90625 -2.484375q0 -1.59375 -0.90625 -2.484375q-0.890625 -0.90625 -2.515625 -0.90625l-1.546875 0l0 6.765625l1.546875 0zm9.361877 1.609375q-1.1875 0 -2.140625 -0.6875q-0.953125 -0.703125 -1.3125 -1.953125l1.375 -0.5625q0.21875 0.796875 0.765625 1.3125q0.546875 0.5 1.3125 0.5q0.71875 0 1.21875 -0.375q0.5 -0.375 0.5 -1.03125q0 -0.59375 -0.4375 -0.984375q-0.4375 -0.390625 -1.515625 -0.765625l-0.59375 -0.21875q-0.984375 -0.34375 -1.625 -0.953125q-0.640625 -0.625 -0.640625 -1.65625q0 -0.703125 0.375 -1.296875q0.375 -0.609375 1.0625 -0.953125q0.6875 -0.34375 1.5625 -0.34375q1.234375 0 1.96875 0.609375q0.75 0.59375 1.015625 1.359375l-1.3125 0.5625q-0.140625 -0.484375 -0.5625 -0.828125q-0.421875 -0.34375 -1.109375 -0.34375q-0.640625 0 -1.09375 0.34375q-0.453125 0.34375 -0.453125 0.875q0 0.5 0.40625 0.828125q0.40625 0.3125 1.25 0.609375l0.609375 0.21875q1.234375 0.421875 1.890625 1.109375q0.671875 0.671875 0.671875 1.8125q0 0.921875 -0.46875 1.5625q-0.46875 0.625 -1.21875 0.9375q-0.734375 0.3125 -1.5 0.3125z" fill-rule="nonzero"/><path fill="#000000" d="m491.15063 82.459785l1.46875 0l0 9.546875l-1.46875 0l0 -9.546875zm3.611908 0l1.96875 0l2.796875 7.265625l0.078125 0l2.796875 -7.265625l1.96875 0l0 9.546875l-1.4375 0l0 -5.390625l0.078125 -1.703125l-0.078125 0l-2.78125 7.09375l-1.171875 0l-2.78125 -7.09375l-0.078125 0l0.078125 1.703125l0 5.390625l-1.4375 0l0 -9.546875zm11.768707 0l3.28125 0q0.859375 0 1.5625 0.375q0.71875 0.375 1.140625 1.046875q0.421875 0.65625 0.421875 1.5q0 0.84375 -0.421875 1.515625q-0.421875 0.65625 -1.140625 1.03125q-0.703125 0.375 -1.5625 0.375l-1.8125 0l0 3.703125l-1.46875 0l0 -9.546875zm3.3125 4.453125q0.734375 0 1.1875 -0.453125q0.453125 -0.46875 0.453125 -1.078125q0 -0.609375 -0.453125 -1.0625q-0.453125 -0.46875 -1.1875 -0.46875l-1.84375 0l0 3.0625l1.84375 0zm4.5910645 -4.453125l3.34375 0q0.875 0 1.5625 0.375q0.703125 0.375 1.109375 1.046875q0.40625 0.65625 0.40625 1.5q0 0.953125 -0.625 1.703125q-0.609375 0.734375 -1.546875 0.984375l-0.015625 0.078125l2.625 3.78125l0 0.078125l-1.6875 0l-2.546875 -3.75l-1.15625 0l0 3.75l-1.46875 0l0 -9.546875zm3.3125 4.453125q0.6875 0 1.15625 -0.4375q0.484375 -0.4375 0.484375 -1.109375q0 -0.609375 -0.4375 -1.0625q-0.4375 -0.46875 -1.15625 -0.46875l-1.890625 0l0 3.078125l1.84375 0zm9.286377 5.3125q-1.390625 0 -2.53125 -0.671875q-1.125 -0.671875 -1.78125 -1.8125q-0.640625 -1.140625 -0.640625 -2.5q0 -1.375 0.640625 -2.515625q0.65625 -1.140625 1.78125 -1.796875q1.140625 -0.671875 2.53125 -0.671875q1.390625 0 2.515625 0.671875q1.125 0.65625 1.765625 1.796875q0.640625 1.140625 0.640625 2.515625q0 1.359375 -0.640625 2.5q-0.640625 1.140625 -1.765625 1.8125q-1.125 0.671875 -2.515625 0.671875zm0 -1.390625q0.953125 0 1.75 -0.453125q0.796875 -0.46875 1.25 -1.28125q0.46875 -0.828125 0.46875 -1.859375q0 -1.046875 -0.46875 -1.859375q-0.453125 -0.828125 -1.25 -1.28125q-0.796875 -0.46875 -1.75 -0.46875q-0.96875 0 -1.765625 0.46875q-0.78125 0.453125 -1.25 1.28125q-0.453125 0.8125 -0.453125 1.859375q0 1.03125 0.453125 1.859375q0.46875 0.8125 1.25 1.28125q0.796875 0.453125 1.765625 0.453125zm5.32959 -8.375l1.59375 0l2.15625 6.34375l0.34375 1.078125l0.078125 0l0.359375 -1.078125l2.25 -6.34375l1.59375 0l-3.46875 9.546875l-1.515625 0l-3.390625 -9.546875zm9.647156 0l5.78125 0l0 1.390625l-4.3125 0l0 2.6875l3.890625 0l0 1.390625l-3.890625 0l0 2.6875l4.3125 0l0 1.390625l-5.78125 0l0 -9.546875zm7.623657 0l1.96875 0l2.796875 7.265625l0.078125 0l2.796875 -7.265625l1.96875 0l0 9.546875l-1.4375 0l0 -5.390625l0.078125 -1.703125l-0.078125 0l-2.78125 7.09375l-1.171875 0l-2.78125 -7.09375l-0.078125 0l0.078125 1.703125l0 5.390625l-1.4375 0l0 -9.546875zm11.768677 0l5.78125 0l0 1.390625l-4.3125 0l0 2.6875l3.890625 0l0 1.390625l-3.890625 0l0 2.6875l4.3125 0l0 1.390625l-5.78125 0l0 -9.546875zm7.623657 0l1.734375 0l4.3125 7.015625l0.078125 0l-0.078125 -1.84375l0 -5.171875l1.453125 0l0 9.546875l-1.515625 0l-4.53125 -7.375l-0.078125 0l0.078125 1.84375l0 5.53125l-1.453125 0l0 -9.546875zm11.615967 1.390625l-2.6875 0l0 -1.390625l6.8125 0l0 1.390625l-2.671875 0l0 8.15625l-1.453125 0l0 -8.15625z" fill-rule="nonzero"/><path fill="#ff4e42" d="m600.025 57.60126l115.212585 0l0 43.212597l-115.212585 0z" fill-rule="evenodd"/><path fill="#000000" d="m639.73035 74.460686l3.28125 0q0.859375 0 1.5625 0.375q0.71875 0.375 1.140625 1.046875q0.421875 0.65625 0.421875 1.5q0 0.84375 -0.421875 1.515625q-0.421875 0.65625 -1.140625 1.03125q-0.703125 0.375 -1.5625 0.375l-1.8125 0l0 3.703125l-1.46875 0l0 -9.546875zm3.3125 4.453125q0.734375 0 1.1875 -0.453125q0.453125 -0.46875 0.453125 -1.078125q0 -0.609375 -0.453125 -1.0625q-0.453125 -0.46875 -1.1875 -0.46875l-1.84375 0l0 3.0625l1.84375 0zm8.939758 5.3125q-1.390625 0 -2.53125 -0.671875q-1.125 -0.671875 -1.78125 -1.8125q-0.640625 -1.140625 -0.640625 -2.5q0 -1.375 0.640625 -2.515625q0.65625 -1.140625 1.78125 -1.796875q1.140625 -0.671875 2.53125 -0.671875q1.390625 0 2.515625 0.671875q1.125 0.65625 1.765625 1.796875q0.640625 1.140625 0.640625 2.515625q0 1.359375 -0.640625 2.5q-0.640625 1.140625 -1.765625 1.8125q-1.125 0.671875 -2.515625 0.671875zm0 -1.390625q0.953125 0 1.75 -0.453125q0.796875 -0.46875 1.25 -1.28125q0.46875 -0.828125 0.46875 -1.859375q0 -1.046875 -0.46875 -1.859375q-0.453125 -0.828125 -1.25 -1.28125q-0.796875 -0.46875 -1.75 -0.46875q-0.96875 0 -1.765625 0.46875q-0.78125 0.453125 -1.25 1.28125q-0.453125 0.8125 -0.453125 1.859375q0 1.03125 0.453125 1.859375q0.46875 0.8125 1.25 1.28125q0.796875 0.453125 1.765625 0.453125zm10.955627 1.390625q-1.390625 0 -2.53125 -0.671875q-1.125 -0.671875 -1.78125 -1.8125q-0.640625 -1.140625 -0.640625 -2.5q0 -1.375 0.640625 -2.515625q0.65625 -1.140625 1.78125 -1.796875q1.140625 -0.671875 2.53125 -0.671875q1.390625 0 2.515625 0.671875q1.125 0.65625 1.765625 1.796875q0.640625 1.140625 0.640625 2.515625q0 1.359375 -0.640625 2.5q-0.640625 1.140625 -1.765625 1.8125q-1.125 0.671875 -2.515625 0.671875zm0 -1.390625q0.953125 0 1.75 -0.453125q0.796875 -0.46875 1.25 -1.28125q0.46875 -0.828125 0.46875 -1.859375q0 -1.046875 -0.46875 -1.859375q-0.453125 -0.828125 -1.25 -1.28125q-0.796875 -0.46875 -1.75 -0.46875q-0.96875 0 -1.765625 0.46875q-0.78125 0.453125 -1.25 1.28125q-0.453125 0.8125 -0.453125 1.859375q0 1.03125 0.453125 1.859375q0.46875 0.8125 1.25 1.28125q0.796875 0.453125 1.765625 0.453125zm6.6202393 -8.375l3.34375 0q0.875 0 1.5625 0.375q0.703125 0.375 1.109375 1.046875q0.40625 0.65625 0.40625 1.5q0 0.953125 -0.625 1.703125q-0.609375 0.734375 -1.546875 0.984375l-0.015625 0.078125l2.625 3.78125l0 0.078125l-1.6875 0l-2.546875 -3.75l-1.15625 0l0 3.75l-1.46875 0l0 -9.546875zm3.3125 4.453125q0.6875 0 1.15625 -0.4375q0.484375 -0.4375 0.484375 -1.109375q0 -0.609375 -0.4375 -1.0625q-0.4375 -0.46875 -1.15625 -0.46875l-1.890625 0l0 3.078125l1.84375 0z" fill-rule="nonzero"/><path fill="#000000" fill-opacity="0.0" d="m552.0 124.8l96.0 0l0 28.7874l-96.0 0z" fill-rule="evenodd"/><path fill="#434343" d="m574.5663 145.61494q-1.359375 0 -2.5 -0.765625q-1.125 -0.78125 -1.5625 -2.265625l1.75 -0.71875q0.25 0.9375 0.84375 1.4375q0.59375 0.5 1.46875 0.5q0.875 0 1.515625 -0.53125q0.640625 -0.53125 0.640625 -1.375q0 -0.828125 -0.671875 -1.359375q-0.65625 -0.546875 -1.671875 -0.546875l-1.03125 0l0 -1.703125l0.9375 0q0.859375 0 1.4375 -0.453125q0.59375 -0.46875 0.59375 -1.296875q0 -0.71875 -0.53125 -1.15625q-0.53125 -0.4375 -1.328125 -0.4375q-0.796875 0 -1.28125 0.421875q-0.46875 0.421875 -0.671875 1.046875l-1.703125 -0.71875q0.34375 -0.984375 1.265625 -1.734375q0.9375 -0.75 2.390625 -0.75q1.078125 0 1.9375 0.421875q0.859375 0.40625 1.328125 1.140625q0.484375 0.734375 0.484375 1.640625q0 0.9375 -0.453125 1.59375q-0.453125 0.65625 -1.109375 1.0l0 0.09375q0.859375 0.359375 1.40625 1.109375q0.5625 0.734375 0.5625 1.78125q0 1.046875 -0.53125 1.875q-0.515625 0.8125 -1.4375 1.28125q-0.921875 0.46875 -2.078125 0.46875zm10.533813 0q-1.453125 0 -2.5625 -0.8125q-1.09375 -0.828125 -1.703125 -2.234375q-0.59375 -1.40625 -0.59375 -3.15625q0 -1.75 0.59375 -3.15625q0.609375 -1.421875 1.703125 -2.234375q1.109375 -0.8125 2.5625 -0.8125q1.453125 0 2.5625 0.8125q1.109375 0.8125 1.703125 2.234375q0.59375 1.40625 0.59375 3.15625q0 1.75 -0.59375 3.15625q-0.59375 1.40625 -1.703125 2.234375q-1.109375 0.8125 -2.5625 0.8125zm0 -1.765625q0.921875 0 1.59375 -0.578125q0.671875 -0.59375 1.03125 -1.59375q0.359375 -1.0 0.359375 -2.265625q0 -1.265625 -0.359375 -2.28125q-0.359375 -1.015625 -1.03125 -1.578125q-0.671875 -0.578125 -1.59375 -0.578125q-0.90625 0 -1.578125 0.578125q-0.65625 0.5625 -1.015625 1.578125q-0.359375 1.015625 -0.359375 2.28125q0 1.265625 0.359375 2.265625q0.359375 1.0 1.015625 1.59375q0.671875 0.578125 1.578125 0.578125zm11.436523 1.765625q-1.453125 0 -2.5625 -0.8125q-1.09375 -0.828125 -1.703125 -2.234375q-0.59375 -1.40625 -0.59375 -3.15625q0 -1.75 0.59375 -3.15625q0.609375 -1.421875 1.703125 -2.234375q1.109375 -0.8125 2.5625 -0.8125q1.453125 0 2.5625 0.8125q1.109375 0.8125 1.703125 2.234375q0.59375 1.40625 0.59375 3.15625q0 1.75 -0.59375 3.15625q-0.59375 1.40625 -1.703125 2.234375q-1.109375 0.8125 -2.5625 0.8125zm0 -1.765625q0.921875 0 1.59375 -0.578125q0.671875 -0.59375 1.03125 -1.59375q0.359375 -1.0 0.359375 -2.265625q0 -1.265625 -0.359375 -2.28125q-0.359375 -1.015625 -1.03125 -1.578125q-0.671875 -0.578125 -1.59375 -0.578125q-0.90625 0 -1.578125 0.578125q-0.65625 0.5625 -1.015625 1.578125q-0.359375 1.015625 -0.359375 2.28125q0 1.265625 0.359375 2.265625q0.359375 1.0 1.015625 1.59375q0.671875 0.578125 1.578125 0.578125zm5.7333374 1.484375l0 0zm5.1312256 -8.84375l1.765625 0l0 1.21875l0.109375 0q0.390625 -0.65625 1.109375 -1.0625q0.734375 -0.421875 1.609375 -0.421875q0.953125 0 1.65625 0.453125q0.703125 0.4375 1.015625 1.1875q0.453125 -0.75 1.203125 -1.1875q0.765625 -0.453125 1.78125 -0.453125q1.53125 0 2.3125 0.921875q0.78125 0.921875 0.78125 2.515625l0 5.671875l-1.859375 0l0 -5.359375q0 -2.046875 -1.734375 -2.046875q-0.953125 0 -1.546875 0.765625q-0.59375 0.765625 -0.59375 1.90625l0 4.734375l-1.859375 0l0 -5.359375q0 -2.046875 -1.78125 -2.046875q-0.921875 0 -1.515625 0.78125q-0.578125 0.765625 -0.578125 1.90625l0 4.71875l-1.875 0l0 -8.84375zm18.605957 9.125q-1.5 0 -2.484375 -0.65625q-0.984375 -0.671875 -1.375 -1.71875l1.671875 -0.734375q0.3125 0.71875 0.890625 1.09375q0.578125 0.359375 1.296875 0.359375q0.75 0 1.25 -0.265625q0.5 -0.265625 0.5 -0.796875q0 -0.484375 -0.421875 -0.765625q-0.421875 -0.296875 -1.328125 -0.5l-1.0625 -0.25q-1.046875 -0.25 -1.75 -0.90625q-0.6875 -0.671875 -0.6875 -1.671875q0 -0.765625 0.453125 -1.34375q0.46875 -0.59375 1.234375 -0.90625q0.78125 -0.328125 1.6875 -0.328125q1.25 0 2.171875 0.484375q0.9375 0.484375 1.359375 1.421875l-1.625 0.71875q-0.53125 -1.046875 -1.890625 -1.046875q-0.65625 0 -1.09375 0.28125q-0.4375 0.265625 -0.4375 0.6875q0 0.78125 1.34375 1.125l1.28125 0.3125q1.3125 0.328125 1.96875 0.984375q0.671875 0.65625 0.671875 1.625q0 0.828125 -0.484375 1.46875q-0.46875 0.625 -1.3125 0.984375q-0.828125 0.34375 -1.828125 0.34375z" fill-rule="nonzero"/><path fill="#000000" fill-opacity="0.0" d="m427.2 124.8l96.0 0l0 28.7874l-96.0 0z" fill-rule="evenodd"/><path fill="#434343" d="m449.96008 135.98994l-1.9375 1.390625l-0.953125 -1.4375l3.421875 -2.46875l1.34375 0l0 11.859375l-1.875 0l0 -9.34375zm9.083771 9.625q-1.453125 0 -2.5625 -0.8125q-1.09375 -0.828125 -1.703125 -2.234375q-0.59375 -1.40625 -0.59375 -3.15625q0 -1.75 0.59375 -3.15625q0.609375 -1.421875 1.703125 -2.234375q1.109375 -0.8125 2.5625 -0.8125q1.453125 0 2.5625 0.8125q1.109375 0.8125 1.703125 2.234375q0.59375 1.40625 0.59375 3.15625q0 1.75 -0.59375 3.15625q-0.59375 1.40625 -1.703125 2.234375q-1.109375 0.8125 -2.5625 0.8125zm0 -1.765625q0.921875 0 1.59375 -0.578125q0.671875 -0.59375 1.03125 -1.59375q0.359375 -1.0 0.359375 -2.265625q0 -1.265625 -0.359375 -2.28125q-0.359375 -1.015625 -1.03125 -1.578125q-0.671875 -0.578125 -1.59375 -0.578125q-0.90625 0 -1.578125 0.578125q-0.65625 0.5625 -1.015625 1.578125q-0.359375 1.015625 -0.359375 2.28125q0 1.265625 0.359375 2.265625q0.359375 1.0 1.015625 1.59375q0.671875 0.578125 1.578125 0.578125zm11.436493 1.765625q-1.453125 0 -2.5625 -0.8125q-1.09375 -0.828125 -1.703125 -2.234375q-0.59375 -1.40625 -0.59375 -3.15625q0 -1.75 0.59375 -3.15625q0.609375 -1.421875 1.703125 -2.234375q1.109375 -0.8125 2.5625 -0.8125q1.453125 0 2.5625 0.8125q1.109375 0.8125 1.703125 2.234375q0.59375 1.40625 0.59375 3.15625q0 1.75 -0.59375 3.15625q-0.59375 1.40625 -1.703125 2.234375q-1.109375 0.8125 -2.5625 0.8125zm0 -1.765625q0.921875 0 1.59375 -0.578125q0.671875 -0.59375 1.03125 -1.59375q0.359375 -1.0 0.359375 -2.265625q0 -1.265625 -0.359375 -2.28125q-0.359375 -1.015625 -1.03125 -1.578125q-0.671875 -0.578125 -1.59375 -0.578125q-0.90625 0 -1.578125 0.578125q-0.65625 0.5625 -1.015625 1.578125q-0.359375 1.015625 -0.359375 2.28125q0 1.265625 0.359375 2.265625q0.359375 1.0 1.015625 1.59375q0.671875 0.578125 1.578125 0.578125zm5.733368 1.484375l0 0zm5.1311646 -8.84375l1.765625 0l0 1.21875l0.109375 0q0.390625 -0.65625 1.109375 -1.0625q0.734375 -0.421875 1.609375 -0.421875q0.953125 0 1.65625 0.453125q0.703125 0.4375 1.015625 1.1875q0.453125 -0.75 1.203125 -1.1875q0.765625 -0.453125 1.78125 -0.453125q1.53125 0 2.3125 0.921875q0.78125 0.921875 0.78125 2.515625l0 5.671875l-1.859375 0l0 -5.359375q0 -2.046875 -1.734375 -2.046875q-0.953125 0 -1.546875 0.765625q-0.59375 0.765625 -0.59375 1.90625l0 4.734375l-1.859375 0l0 -5.359375q0 -2.046875 -1.78125 -2.046875q-0.921875 0 -1.515625 0.78125q-0.578125 0.765625 -0.578125 1.90625l0 4.71875l-1.875 0l0 -8.84375zm18.606018 9.125q-1.5 0 -2.484375 -0.65625q-0.984375 -0.671875 -1.375 -1.71875l1.671875 -0.734375q0.3125 0.71875 0.890625 1.09375q0.578125 0.359375 1.296875 0.359375q0.75 0 1.25 -0.265625q0.5 -0.265625 0.5 -0.796875q0 -0.484375 -0.421875 -0.765625q-0.421875 -0.296875 -1.328125 -0.5l-1.0625 -0.25q-1.046875 -0.25 -1.75 -0.90625q-0.6875 -0.671875 -0.6875 -1.671875q0 -0.765625 0.453125 -1.34375q0.46875 -0.59375 1.234375 -0.90625q0.78125 -0.328125 1.6875 -0.328125q1.25 0 2.171875 0.484375q0.9375 0.484375 1.359375 1.421875l-1.625 0.71875q-0.53125 -1.046875 -1.890625 -1.046875q-0.65625 0 -1.09375 0.28125q-0.4375 0.265625 -0.4375 0.6875q0 0.78125 1.34375 1.125l1.28125 0.3125q1.3125 0.328125 1.96875 0.984375q0.671875 0.65625 0.671875 1.625q0 0.828125 -0.484375 1.46875q-0.46875 0.625 -1.3125 0.984375q-0.828125 0.34375 -1.828125 0.34375z" fill-rule="nonzero"/><path fill="#000000" fill-opacity="0.0" d="m474.88504 125.7474l0 -28.7874" fill-rule="evenodd"/><path stroke="#434343" stroke-width="2.0" stroke-linejoin="round" stroke-linecap="butt" d="m474.88504 125.747406l0 -21.207397" fill-rule="evenodd"/><path fill="#434343" stroke="#434343" stroke-width="2.0" stroke-linecap="butt" d="m474.88504 97.96001c1.8170166 0 3.2900085 1.4729843 3.2900085 3.290001c0 1.8170166 -1.472992 3.2899933 -3.2900085 3.2899933c-1.8170166 0 -3.289978 -1.4729767 -3.289978 -3.2899933c0 -1.8170166 1.4729614 -3.290001 3.289978 -3.290001z" fill-rule="nonzero"/><path fill="#000000" fill-opacity="0.0" d="m28.8 129.6l268.7874 0l0 38.393692l-268.7874 0z" fill-rule="evenodd"/><path fill="#666666" d="m87.84882 141.01123l8.828125 0l0 1.71875l-7.015625 0l0 5.234375l6.34375 0l0 1.703125l-6.34375 0l0 6.609375l-1.8125 0l0 -15.265625zm11.815079 2.390625q-0.53125 0 -0.921875 -0.390625q-0.375 -0.390625 -0.375 -0.921875q0 -0.546875 0.375 -0.921875q0.390625 -0.375 0.921875 -0.375q0.5625 0 0.9375 0.375q0.375 0.375 0.375 0.921875q0 0.53125 -0.375 0.921875q-0.375 0.390625 -0.9375 0.390625zm-0.890625 2.0l1.8125 0l0 10.875l-1.8125 0l0 -10.875zm4.6483 0l1.734375 0l0 1.75l0.078125 0q0.3125 -0.90625 1.234375 -1.484375q0.921875 -0.59375 1.921875 -0.59375q0.75 0 1.28125 0.21875l0 1.96875q-0.6875 -0.34375 -1.53125 -0.34375q-0.796875 0 -1.453125 0.453125q-0.65625 0.4375 -1.0625 1.203125q-0.390625 0.75 -0.390625 1.625l0 6.078125l-1.8125 0l0 -10.875zm11.368286 11.21875q-1.75 0 -2.921875 -0.8125q-1.171875 -0.828125 -1.671875 -2.109375l1.625 -0.734375q0.40625 0.984375 1.203125 1.515625q0.8125 0.53125 1.765625 0.53125q1.015625 0 1.734375 -0.40625q0.734375 -0.421875 0.734375 -1.1875q0 -0.6875 -0.578125 -1.09375q-0.5625 -0.421875 -1.8125 -0.71875l-1.3125 -0.34375q-1.296875 -0.3125 -2.140625 -1.078125q-0.828125 -0.78125 -0.828125 -1.984375q0 -0.9375 0.5625 -1.65625q0.5625 -0.71875 1.5 -1.09375q0.953125 -0.390625 2.03125 -0.390625q1.4375 0 2.546875 0.625q1.125 0.609375 1.59375 1.71875l-1.578125 0.734375q-0.71875 -1.453125 -2.578125 -1.453125q-0.90625 0 -1.578125 0.421875q-0.671875 0.40625 -0.671875 1.046875q0 0.59375 0.46875 0.96875q0.484375 0.375 1.421875 0.609375l1.578125 0.40625q1.59375 0.40625 2.40625 1.203125q0.8125 0.796875 0.8125 1.953125q0 1.0 -0.578125 1.765625q-0.578125 0.75 -1.5625 1.15625q-0.984375 0.40625 -2.171875 0.40625zm10.372192 -0.171875q-0.671875 0 -1.234375 -0.203125q-0.5625 -0.21875 -0.953125 -0.59375q-0.84375 -0.796875 -0.84375 -2.234375l0 -6.375l-1.90625 0l0 -1.640625l1.90625 0l0 -3.078125l1.8125 0l0 3.078125l2.65625 0l0 1.640625l-2.65625 0l0 5.921875q0 0.90625 0.34375 1.328125q0.40625 0.46875 1.171875 0.46875q0.65625 0 1.1875 -0.359375l0 1.765625q-0.3125 0.15625 -0.65625 0.21875q-0.328125 0.0625 -0.828125 0.0625zm2.2748718 -0.171875l0 0zm6.651268 -15.265625l1.8125 0l0 15.265625l-1.8125 0l0 -15.265625zm4.866043 4.390625l1.734375 0l0 1.59375l0.078125 0q0.453125 -0.8125 1.421875 -1.375q0.984375 -0.5625 2.09375 -0.5625q1.96875 0 3.0 1.140625q1.03125 1.140625 1.03125 3.109375l0 6.96875l-1.8125 0l0 -6.703125q0 -1.515625 -0.734375 -2.1875q-0.71875 -0.6875 -1.96875 -0.6875q-0.875 0 -1.578125 0.5q-0.6875 0.484375 -1.078125 1.28125q-0.375 0.796875 -0.375 1.671875l0 6.125l-1.8125 0l0 -10.875zm11.887009 0l1.71875 0l0 1.625l0.09375 0q0.484375 -0.84375 1.46875 -1.40625q1.0 -0.5625 2.234375 -0.5625q1.4687653 0 2.6562653 0.75q1.1875 0.75 1.859375 2.078125q0.6875 1.3125 0.6875 2.953125q0 1.65625 -0.6875 2.96875q-0.671875 1.3125 -1.859375 2.0625q-1.1875 0.75 -2.6562653 0.75q-1.234375 0 -2.234375 -0.5625q-0.984375 -0.578125 -1.46875 -1.375l-0.09375 0l0.09375 1.484375l0 4.71875l-1.8125 0l0 -15.484375zm5.328125 9.578125q0.93751526 0 1.7656403 -0.515625q0.828125 -0.515625 1.3125 -1.453125q0.5 -0.9375 0.5 -2.171875q0 -1.234375 -0.5 -2.171875q-0.484375 -0.9375 -1.3125 -1.453125q-0.828125 -0.515625 -1.7656403 -0.515625q-0.96875 0 -1.796875 0.515625q-0.8125 0.515625 -1.3125 1.453125q-0.5 0.9375 -0.5 2.171875q0 1.234375 0.5 2.171875q0.5 0.9375 1.3125 1.453125q0.828125 0.515625 1.796875 0.515625zm11.350723 1.640625q-1.96875 0 -3.0 -1.15625q-1.03125 -1.15625 -1.03125 -3.21875l0 -6.84375l1.8125 0l0 6.5625q0 1.5625 0.703125 2.296875q0.703125 0.71875 1.890625 0.71875q0.921875 0 1.625 -0.484375q0.71875 -0.5 1.109375 -1.28125q0.40625 -0.796875 0.40625 -1.671875l0 -6.140625l1.8125 0l0 10.875l-1.734375 0l0 -1.578125l-0.078125 0q-0.453125 0.8125 -1.4375 1.375q-0.96875 0.546875 -2.078125 0.546875zm12.306183 -0.171875q-0.671875 0 -1.234375 -0.203125q-0.5625 -0.21875 -0.953125 -0.59375q-0.84375 -0.796875 -0.84375 -2.234375l0 -6.375l-1.90625 0l0 -1.640625l1.90625 0l0 -3.078125l1.8125 0l0 3.078125l2.65625 0l0 1.640625l-2.65625 0l0 5.921875q0 0.90625 0.34375 1.328125q0.40625 0.46875 1.171875 0.46875q0.65625 0 1.1875 -0.359375l0 1.765625q-0.3125 0.15625 -0.65625 0.21875q-0.328125 0.0625 -0.828125 0.0625zm2.2748718 -0.171875l0 0zm6.6512756 -15.265625l4.609375 0q2.34375 0 4.09375 0.96875q1.75 0.96875 2.6875 2.703125q0.9375 1.71875 0.9375 3.953125q0 2.25 -0.9375 3.984375q-0.9375 1.71875 -2.6875 2.6875q-1.75 0.96875 -4.09375 0.96875l-4.609375 0l0 -15.265625zm4.609375 13.53125q2.703125 0 4.296875 -1.546875q1.59375 -1.5625 1.59375 -4.359375q0 -2.78125 -1.59375 -4.34375q-1.59375 -1.5625 -4.296875 -1.5625l-2.796875 0l0 11.8125l2.796875 0zm14.548737 2.078125q-1.5625 0 -2.796875 -0.75q-1.234375 -0.75 -1.9375 -2.0625q-0.6875 -1.3125 -0.6875 -2.953125q0 -1.546875 0.640625 -2.875q0.65625 -1.34375 1.859375 -2.125q1.21875 -0.796875 2.765625 -0.796875q1.609375 0 2.78125 0.71875q1.171875 0.703125 1.796875 1.96875q0.625 1.265625 0.625 2.875q0 0.265625 -0.03125 0.5625l-8.625 0q0.0625 1.234375 0.59375 2.09375q0.546875 0.84375 1.359375 1.28125q0.828125 0.421875 1.71875 0.421875q2.125 0 3.21875 -1.96875l1.53125 0.75q-0.671875 1.296875 -1.890625 2.078125q-1.21875 0.78125 -2.921875 0.78125zm3.140625 -6.9375q-0.046875 -0.671875 -0.390625 -1.359375q-0.34375 -0.6875 -1.078125 -1.15625q-0.71875 -0.46875 -1.828125 -0.46875q-1.28125 0 -2.171875 0.828125q-0.890625 0.8125 -1.171875 2.15625l6.640625 0zm4.023407 -8.671875l1.8125 0l0 15.265625l-1.8125 0l0 -15.265625zm7.862335 15.609375q-1.1875 0 -2.125 -0.46875q-0.9375 -0.46875 -1.453125 -1.28125q-0.515625 -0.828125 -0.515625 -1.875q0 -1.734375 1.296875 -2.703125q1.3125 -0.96875 3.296875 -0.96875q0.984375 0 1.828125 0.21875q0.84375 0.203125 1.28125 0.484375l0 -0.65625q0 -1.21875 -0.859375 -1.953125q-0.84375 -0.734375 -2.140625 -0.734375q-0.90625 0 -1.6875 0.390625q-0.765625 0.390625 -1.21875 1.09375l-1.359375 -1.015625q0.640625 -0.984375 1.765625 -1.53125q1.125 -0.5625 2.5 -0.5625q2.21875 0 3.46875 1.171875q1.265625 1.15625 1.265625 3.15625l0 6.890625l-1.734375 0l0 -1.5625l-0.078125 0q-0.46875 0.796875 -1.40625 1.359375q-0.9375 0.546875 -2.125 0.546875zm0.171875 -1.609375q0.921875 0 1.703125 -0.46875q0.796875 -0.46875 1.265625 -1.25q0.46875 -0.796875 0.46875 -1.734375q-0.515625 -0.34375 -1.265625 -0.546875q-0.734375 -0.21875 -1.5625 -0.21875q-1.5 0 -2.265625 0.625q-0.75 0.609375 -0.75 1.59375q0 0.890625 0.6875 1.453125q0.6875 0.546875 1.71875 0.546875zm10.799438 0.578125l-4.5 -10.1875l1.96875 0l3.40625 8.078125l0.046875 0l3.28125 -8.078125l1.953125 0l-6.71875 15.484375l-1.875 0l2.4375 -5.296875z" fill-rule="nonzero"/><path fill="#000000" fill-opacity="0.0" d="m600.0 125.62752l0 -28.566933" fill-rule="evenodd"/><path stroke="#434343" stroke-width="2.0" stroke-linejoin="round" stroke-linecap="butt" d="m600.0 125.627525l0 -20.98693" fill-rule="evenodd"/><path fill="#434343" stroke="#434343" stroke-width="2.0" stroke-linecap="butt" d="m600.0 98.06059c1.8170166 0 3.289978 1.4729843 3.289978 3.290001c0 1.8170166 -1.4729614 3.290001 -3.289978 3.290001c-1.8170166 0 -3.289978 -1.4729843 -3.289978 -3.290001c0 -1.8170166 1.4729614 -3.290001 3.289978 -3.290001z" fill-rule="nonzero"/></g></svg>